<svg width="23" height="22" viewBox="0 0 23 22" fill="none" xmlns="http://www.w3.org/2000/svg">
<g clip-path="url(#clip0)">
<path d="M22.1562 10.6562C22.1562 16.5406 17.3844 21.3125 11.5 21.3125C5.61562 21.3125 0.84375 16.5406 0.84375 10.6562C0.84375 4.77187 5.61562 0 11.5 0C17.3844 0 22.1562 4.77187 22.1562 10.6562Z" fill="url(#paint0_linear)" fill-opacity="0.1"/>
<path d="M19.0625 10.6562C19.0625 14.8323 15.676 18.2188 11.5 18.2188C7.32399 18.2188 3.9375 14.8323 3.9375 10.6562C3.9375 6.48024 7.32399 3.09375 11.5 3.09375C15.676 3.09375 19.0625 6.48024 19.0625 10.6562Z" fill="url(#paint1_linear)"/>
<path d="M14.5 8L8.5 14" stroke="white" stroke-width="1.5" stroke-linecap="round"/>
<path d="M14.5 14L8.5 8" stroke="white" stroke-width="1.5" stroke-linecap="round"/>
</g>
<defs>
<linearGradient id="paint0_linear" x1="11.5" y1="0" x2="11.5" y2="21.3125" gradientUnits="userSpaceOnUse">
<stop stop-color="#EF9AA3"/>
<stop offset="1" stop-color="#DD3646"/>
</linearGradient>
<linearGradient id="paint1_linear" x1="11.5" y1="3.09375" x2="11.5" y2="18.2188" gradientUnits="userSpaceOnUse">
<stop stop-color="#EF9AA3"/>
<stop offset="1" stop-color="#DD3646"/>
</linearGradient>
<clipPath id="clip0">
<rect width="22" height="22" fill="white" transform="translate(0.5)"/>
</clipPath>
</defs>
</svg>
