<svg width="48" height="48" viewBox="0 0 48 48" fill="none" xmlns="http://www.w3.org/2000/svg">
<g clip-path="url(#clip0)">
<path d="M36 17H24H12C12 17 9 27 9 35L24 36L39 35C39 27 36 17 36 17Z" fill="#9AA0A6"/>
<path d="M24 24C15.716 24 9 31.686 9 35C19 36 23.966 42.975 23.966 42.975L24 43L24.034 42.975C24.034 42.975 29 36 39 35C39 31.686 32.284 24 24 24Z" fill="#9AA0A6"/>
<path d="M23.1 5.2001L0.6 15.1001C-0.2 15.5001 -0.2 16.6001 0.6 17.0001L23.1 26.9001C23.7 27.1001 24.3 27.1001 24.9 26.9001L47.4 17.0001C48.2 16.6001 48.2 15.5001 47.4 15.1001L24.9 5.2001C24.3 4.9001 23.7 4.9001 23.1 5.2001Z" fill="#E0E0E0"/>
<path d="M5 39.0001C4.448 39.0001 4 38.5531 4 38.0001V18.0001C4 17.5081 4.358 17.0891 4.844 17.0121L23.844 14.0121C24.386 13.9291 24.902 14.2981 24.988 14.8441C25.074 15.3891 24.702 15.9021 24.156 15.9881L6 18.8541V38.0001C6 38.5531 5.552 39.0001 5 39.0001Z" fill="#0D6EFD"/>
<path d="M5 38C6.7 38 8 39.3 8 41C8 42.7 5 47 5 47C5 47 2 42.7 2 41C2 39.3 3.3 38 5 38Z" fill="#0D6EFD"/>
<path d="M5 36C4.46957 36 3.96086 36.2107 3.58579 36.5858C3.21071 36.9609 3 37.4696 3 38C3 38.5304 3.21071 39.0391 3.58579 39.4142C3.96086 39.7893 4.46957 40 5 40C5.53043 40 6.03914 39.7893 6.41421 39.4142C6.78929 39.0391 7 38.5304 7 38C7 37.4696 6.78929 36.9609 6.41421 36.5858C6.03914 36.2107 5.53043 36 5 36Z" fill="#FFCA28"/>
</g>
<defs>
<clipPath id="clip0">
<rect width="48" height="48" fill="white"/>
</clipPath>
</defs>
</svg>
