<svg width="48" height="48" viewBox="0 0 48 48" fill="none" xmlns="http://www.w3.org/2000/svg">
<path d="M36 17V42C36 43.105 35.105 44 34 44H10C8.895 44 8 43.105 8 42V10C8 8.895 8.895 8 10 8H27L36 17Z" fill="#9AA0A6"/>
<path opacity="0.05" d="M10 8H27L36 17V42H13.681C11.648 42 10 40.352 10 38.319V8Z" fill="black"/>
<path opacity="0.07" d="M11 8H27L36 17V41H13.839C12.271 41 11 39.729 11 38.161V8Z" fill="black"/>
<path d="M40 14V38C40 39.105 39.105 40 38 40H14C12.895 40 12 39.105 12 38V6C12 4.895 12.895 4 14 4H30L40 14Z" fill="#E0E0E0"/>
<path d="M30 4V12C30 13.105 30.895 14 32 14H40L30 4Z" fill="#9AA0A6"/>
<path d="M33.3169 20.9341H18.3169C18.0409 20.9341 17.8169 20.7101 17.8169 20.4341V19.4341C17.8169 19.1581 18.0409 18.9341 18.3169 18.9341H33.3169C33.5929 18.9341 33.8169 19.1581 33.8169 19.4341V20.4341C33.8169 20.7101 33.5929 20.9341 33.3169 20.9341Z" fill="#0D6EFD"/>
<path d="M33.3169 24.9341H18.3169C18.0409 24.9341 17.8169 24.7101 17.8169 24.4341V23.4341C17.8169 23.1581 18.0409 22.9341 18.3169 22.9341H33.3169C33.5929 22.9341 33.8169 23.1581 33.8169 23.4341V24.4341C33.8169 24.7101 33.5929 24.9341 33.3169 24.9341Z" fill="#0D6EFD"/>
<path d="M33.3169 28.9341H18.3169C18.0409 28.9341 17.8169 28.7101 17.8169 28.4341V27.4341C17.8169 27.1581 18.0409 26.9341 18.3169 26.9341H33.3169C33.5929 26.9341 33.8169 27.1581 33.8169 27.4341V28.4341C33.8169 28.7101 33.5929 28.9341 33.3169 28.9341Z" fill="#0D6EFD"/>
<path d="M29.3169 32.9341H18.3169C18.0409 32.9341 17.8169 32.7101 17.8169 32.4341V31.4341C17.8169 31.1581 18.0409 30.9341 18.3169 30.9341H29.3169C29.5929 30.9341 29.8169 31.1581 29.8169 31.4341V32.4341C29.8169 32.7101 29.5929 32.9341 29.3169 32.9341Z" fill="#0D6EFD"/>
</svg>
