<?xml version="1.0" encoding="UTF-8"?>
<svg width="14px" height="14px" viewBox="0 0 14 14" version="1.1" xmlns="http://www.w3.org/2000/svg" xmlns:xlink="http://www.w3.org/1999/xlink">
    <!-- Generator: Sketch 53.2 (72643) - https://sketchapp.com -->
    <title>analyze-dark</title>
    <desc>Created with Sketch.</desc>
    <g id="Page-1" stroke="none" stroke-width="1" fill="none" fill-rule="evenodd">
        <g id="analyze-dark" transform="translate(-1.000000, -1.000000)" fill-rule="nonzero">
            <polygon id="Path" fill-opacity="0" fill="#D8D8D8" points="0 0 16 0 16 16 0 16"></polygon>
            <path d="M2.333,1.8 C2.612,1.8 2.84,2.013 2.864,2.285 L2.867,2.333 L2.867,12.85 C2.867,12.99 2.972,13.107 3.108,13.124 L3.143,13.126 L13.667,13.126 C13.961,13.126 14.2,13.365 14.2,13.659 C14.2,13.937 13.987,14.166 13.715,14.19 L13.667,14.193 L3.143,14.193 C2.423,14.193 1.837,13.628 1.802,12.917 L1.8,12.85 L1.8,2.333 C1.8,2.039 2.039,1.8 2.333,1.8 Z M13.24,3.816 C13.48,3.956 13.57,4.253 13.456,4.5 L13.432,4.546 L11.126,8.504 C10.981,8.753 10.667,8.839 10.418,8.708 L10.374,8.682 L8.145,7.23 L6.027,10.704 C5.882,10.94 5.583,11.024 5.339,10.906 L5.294,10.881 C5.057,10.737 4.973,10.438 5.091,10.193 L5.116,10.148 L7.521,6.205 C7.669,5.963 7.978,5.881 8.225,6.011 L8.267,6.036 L10.487,7.483 L12.511,4.009 C12.659,3.754 12.985,3.669 13.24,3.816 L13.24,3.816 Z" id="Shape" fill="#26344A"></path>
        </g>
    </g>
</svg>