<?xml version="1.0" encoding="UTF-8"?>
<svg width="60px" height="77px" viewBox="0 0 60 77" version="1.1" xmlns="http://www.w3.org/2000/svg" xmlns:xlink="http://www.w3.org/1999/xlink">
    <!-- Generator: Sketch 48.2 (47327) - http://www.bohemiancoding.com/sketch -->
    <title>Group 10 Copy 2</title>
    <desc>Created with Sketch.</desc>
    <defs></defs>
    <g id="//-1-task-icons" stroke="none" stroke-width="1" fill="none" fill-rule="evenodd" transform="translate(-676.000000, -222.000000)">
        <g id="Group-10-Copy-2" transform="translate(677.000000, 223.000000)">
            <g id="illustration-6-copy-3" transform="translate(2.000000, 18.000000)">
                <path d="M39,20.9752629 L27.3477917,20.9752629 L24.6646137,26 L22.033988,20.9752629 L10,20.9752629 C6.6862915,20.9752629 4,18.2889714 4,14.9752629 L4,9 C4,5.6862915 6.6862915,3 10,3 L39,3 C42.3137085,3 45,5.6862915 45,9 L45,14.9752629 C45,18.2889714 42.3137085,20.9752629 39,20.9752629 Z" id="Stroke-183" fill="#E0F8EF"></path>
                <path d="M40,20.4749087 L26.1950833,20.4749087 L23.1846885,26 L20.2332549,20.4749087 L6,20.4749087 C2.6862915,20.4749087 3.65375128e-15,17.7886172 1.77635684e-15,14.4749087 L-8.8817842e-16,6 C-1.29399067e-15,2.6862915 2.6862915,-1.16763846e-15 6,-1.77635684e-15 L40,-1.77635684e-15 C43.3137085,-2.38507522e-15 46,2.6862915 46,6 L46,14.4749087 C46,17.7886172 43.3137085,20.4749087 40,20.4749087 Z" id="Stroke-183" stroke="#7C8495" stroke-width="1.5" stroke-linecap="round"></path>
                <path d="M11,7.5 L35,7.5" id="Line" stroke="#7C8495" stroke-width="1.5" stroke-linecap="round"></path>
                <path d="M13,12.5 L33,12.5" id="Line-Copy" stroke="#7C8495" stroke-width="1.5" stroke-linecap="round"></path>
                <path d="M17,10.5 L35,10.5" id="Line" stroke="#FFFFFF" stroke-width="1.5" stroke-linecap="round" stroke-linejoin="round"></path>
                <path d="M19,15.5 L33,15.5" id="Line-Copy" stroke="#FFFFFF" stroke-width="1.5" stroke-linecap="round" stroke-linejoin="round"></path>
            </g>
            <g id="illustration-6-copy-4" transform="translate(40.000000, 0.000000)" stroke="#7C8495" stroke-linecap="round" stroke-width="1.5">
                <path d="M16,11.0249508 L10.667,11.0249508 L9.09635924,14 L7.5564808,11.0249508 L2,11.0249508 C0.8954305,11.0249508 2.54146955e-15,10.1295203 4.4408921e-16,9.02495084 L0,2 C-6.25798147e-16,0.8954305 0.8954305,-6.85272294e-16 2,-8.8817842e-16 L16,-1.33226763e-15 C17.1045695,-1.53517375e-15 18,0.8954305 18,2 L18,9.02495084 C18,10.1295203 17.1045695,11.0249508 16,11.0249508 Z" id="Stroke-183"></path>
                <path d="M5.60108107,4.75 L13.3989189,4.75" id="Line"></path>
                <path d="M5.60108107,7.75 L11.5994179,7.75" id="Line-Copy"></path>
            </g>
            <g id="Group-6-Copy-2" transform="translate(15.000000, 49.000000)">
                <path d="M14,20 C14,22.208 12.432,24 10.5,24 C8.568,24 7,22.208 7,20" id="Stroke-210" stroke="#7C8495" stroke-width="1.5" stroke-linecap="round"></path>
                <path d="M6.833585,9.81818182 C6.833585,6.60509091 9.37072232,4 12.5,4 C15.6292777,4 18.166415,6.60509091 18.166415,9.81818182 L18.166415,14.1818182 L20.9103765,19.1316364 C21.1426995,19.6087273 20.9075433,20 20.3876497,20 L4.61235032,20 C4.09245674,20 3.85730052,19.6087273 4.08962353,19.1316364 L6.833585,14.1818182 L6.833585,9.81818182 Z" id="Stroke-211" fill="#E9F1FB"></path>
                <path d="M3.50031088,6.90909091 C3.50031088,3.09354545 6.63442168,0 10.5,0 C14.3655783,0 17.4996891,3.09354545 17.4996891,6.90909091 L17.4996891,12.0909091 L20.8892886,17.9688182 C21.1762758,18.5353636 20.8857887,19 20.2435673,19 L0.756432745,19 C0.114211269,19 -0.17627583,18.5353636 0.110711424,17.9688182 L3.50031088,12.0909091 L3.50031088,6.90909091 Z" id="Stroke-211" stroke="#7C8495" stroke-width="1.5" stroke-linecap="round"></path>
            </g>
            <g id="Group-7-Copy" transform="translate(0.000000, 62.000000)" stroke="#7C8495" stroke-linecap="round" stroke-width="1.5">
                <path d="M2.94117647,0 C-0.980392157,3.58985087 -0.980392157,9.41014913 2.94117647,13" id="Oval-2"></path>
                <path d="M6.8627451,2.78571429 C4.24836601,4.83705764 4.24836601,8.16294236 6.8627451,10.2142857" id="Oval-2"></path>
                <path d="M42.1568627,10.2142857 C44.7712418,8.16294236 44.7712418,4.83705764 42.1568627,2.78571429" id="Path"></path>
                <path d="M47.0588235,13 C50.9803922,9.41014913 50.9803922,3.58985087 47.0588235,0" id="Path"></path>
            </g>
        </g>
    </g>
</svg>