<?xml version="1.0" encoding="UTF-8"?>
<svg width="67px" height="60px" viewBox="0 0 67 60" version="1.1" xmlns="http://www.w3.org/2000/svg" xmlns:xlink="http://www.w3.org/1999/xlink">
    <!-- Generator: Sketch 48.2 (47327) - http://www.bohemiancoding.com/sketch -->
    <title>Group 22 Copy 2</title>
    <desc>Created with Sketch.</desc>
    <defs></defs>
    <g id="//-1-task-icons" stroke="none" stroke-width="1" fill="none" fill-rule="evenodd" transform="translate(-918.000000, -100.000000)">
        <g id="Group-22-Copy-2" transform="translate(919.000000, 101.000000)">
            <g id="Group-21">
                <rect id="Rectangle-6" fill="#3A475B" x="12.6119403" y="2.88679245" width="13.5820896" height="11.5471698" rx="3"></rect>
                <rect id="Rectangle-6-Copy" fill="#3A475B" x="13.5820896" y="24.0566038" width="12.6119403" height="11.5471698" rx="3"></rect>
                <rect id="Rectangle-6" stroke="#8A959F" stroke-width="2" stroke-linecap="round" x="9.70149254" y="0" width="16.4925373" height="14.4339623" rx="3"></rect>
                <rect id="Rectangle-6-Copy" stroke="#8A959F" stroke-width="2" stroke-linecap="round" x="9.70149254" y="21.1698113" width="16.4925373" height="14.4339623" rx="3"></rect>
                <path d="M47.5193276,6.73584906 L41.8059701,6.73584906 C40.1491159,6.73584906 38.8059701,8.07899481 38.8059701,9.73584906 L38.8059701,47.5188679 C38.8059701,49.1757222 40.1491159,50.5188679 41.8059701,50.5188679 L47.1220208,50.5188679" id="Path-14-Copy" stroke="#8A959F" stroke-width="2" stroke-linecap="round"></path>
                <path d="M9.71335747,6.73584906 L3,6.73584906 C1.34314575,6.73584906 2.41183085e-16,8.07899481 4.4408921e-16,9.73584906 L0,25.3867925 C2.02906125e-16,27.0436467 1.34314575,28.3867925 3,28.3867925 L8.31605061,28.3867925" id="Path-14" stroke="#8A959F" stroke-width="2" stroke-linecap="round"></path>
                <path d="M27.1585395,28.3867925 L48.0223881,28.3867925" id="Line-4" stroke="#8A959F" stroke-width="2" stroke-linecap="round"></path>
                <rect id="Rectangle-6-Copy-5" fill="#3A475B" x="52.3880597" y="24.0566038" width="12.6119403" height="11.5471698" rx="3"></rect>
                <rect id="Rectangle-6-Copy-6" stroke="#8A959F" stroke-width="2" stroke-linecap="round" x="48.5074627" y="21.1698113" width="16.4925373" height="14.4339623" rx="3"></rect>
            </g>
            <rect id="Rectangle-6-Copy-7" fill="#3A475B" x="53" y="3" width="12" height="12" rx="3"></rect>
            <rect id="Rectangle-6-Copy-8" stroke="#8A959F" stroke-width="2" stroke-linecap="round" x="48" y="0" width="17" height="14" rx="3"></rect>
            <rect id="Rectangle-6-Copy-9" fill="#3A475B" x="53" y="46" width="12" height="12" rx="3"></rect>
            <rect id="Rectangle-6-Copy-10" stroke="#8A959F" stroke-width="2" stroke-linecap="round" x="48" y="44" width="17" height="14" rx="3"></rect>
        </g>
    </g>
</svg>