<svg xmlns="http://www.w3.org/2000/svg" width="13" height="13" viewBox="0 0 13 13">
    <g fill="none" fill-rule="evenodd">
        <g>
            <g>
                <g>
                    <path fill="#D8D8D8" fill-opacity="0" d="M0 0H13V13H0z" transform="translate(-655 -134) translate(655 134)"/>
                    <path fill="#8A959F" d="M6.5 9.276c.165 0 .308-.06.428-.18l4.266-4.266c.12-.121.181-.264.181-.429 0-.165-.06-.308-.18-.428-.122-.121-.264-.181-.43-.181h-8.53c-.166 0-.308.06-.43.18-.12.121-.18.264-.18.429 0 .165.06.308.18.429l4.267 4.265c.12.12.263.181.428.181z" transform="translate(-655 -134) translate(655 134)"/>
                </g>
            </g>
        </g>
    </g>
</svg>
