<?xml version="1.0" encoding="UTF-8"?>
<svg width="65px" height="66px" viewBox="0 0 65 66" version="1.1" xmlns="http://www.w3.org/2000/svg" xmlns:xlink="http://www.w3.org/1999/xlink">
    <!-- Generator: Sketch 48.2 (47327) - http://www.bohemiancoding.com/sketch -->
    <title>Group 18 Copy 2</title>
    <desc>Created with Sketch.</desc>
    <defs></defs>
    <g id="//-1-task-icons" stroke="none" stroke-width="1" fill="none" fill-rule="evenodd" transform="translate(-919.000000, -747.000000)">
        <g id="Group-18-Copy-2" transform="translate(916.000000, 744.000000)">
            <g id="Group-16" transform="translate(35.566987, 35.750000) rotate(-60.000000) translate(-35.566987, -35.750000) translate(6.566987, 15.250000)">
                <polyline id="Rectangle-7" stroke="#8A959F" stroke-width="1.5" stroke-linecap="round" points="7.36507937 31.5791506 7.36507937 8.41312741 30.3809524 8.41312741"></polyline>
                <g id="Group-23" transform="translate(0.000000, 26.019305)">
                    <ellipse id="Oval-5" stroke="#8A959F" stroke-width="1.5" fill="#3A475B" stroke-linecap="round" cx="6.9047619" cy="6.94980695" rx="6.9047619" ry="6.94980695"></ellipse>
                    <ellipse id="Oval-5" fill="#7C8495" cx="6.9047619" cy="6.94980695" rx="1.64399093" ry="1.65471594"></ellipse>
                </g>
                <g id="Group-23-Copy-2" transform="translate(23.936508, 1.926641)">
                    <ellipse id="Oval-5" stroke="#8A959F" stroke-width="1.5" fill="#3A475B" stroke-linecap="round" cx="6.9047619" cy="6.94980695" rx="6.9047619" ry="6.94980695"></ellipse>
                    <ellipse id="Oval-5" fill="#7C8495" cx="6.9047619" cy="6.94980695" rx="1.64399093" ry="1.65471594"></ellipse>
                </g>
                <g id="Group-15" transform="translate(38.500000, 20.418919) scale(-1, -1) translate(-38.500000, -20.418919) translate(19.000000, 0.918919)">
                    <polyline id="Rectangle-7-Copy" stroke="#8A959F" stroke-width="1.5" stroke-linecap="round" points="7.18666667 30.9069897 7.18666667 7.23355079 30.7066667 7.23355079"></polyline>
                    <g id="Group-23-Copy-4" transform="translate(0.000000, 24.331034)">
                        <ellipse id="Oval-5" stroke="#8A959F" stroke-width="1.5" fill="#3A475B" stroke-linecap="round" cx="6.86" cy="6.90475303" rx="6.86" ry="6.90475303"></ellipse>
                        <ellipse id="Oval-5" fill="#7C8495" cx="6.86" cy="6.90475303" rx="1.63333333" ry="1.64398882"></ellipse>
                    </g>
                    <g id="Group-23-Copy-5" transform="translate(24.173333, 0.000000)">
                        <ellipse id="Oval-5" stroke="#8A959F" stroke-width="1.5" fill="#3A475B" stroke-linecap="round" cx="6.86" cy="6.90475303" rx="6.86" ry="6.90475303"></ellipse>
                        <ellipse id="Oval-5" fill="#7C8495" cx="6.86" cy="6.90475303" rx="1.63333333" ry="1.64398882"></ellipse>
                    </g>
                </g>
            </g>
            <g id="Group-17" transform="translate(64.526168, 19.000685) rotate(3.000000) translate(-64.526168, -19.000685) translate(59.026168, 11.000685)" stroke="#8A959F" stroke-linecap="round" stroke-width="1.5">
                <path d="M7.65706001,1.73196273 C3.34333452,5.57823152 3.34333452,11.8142654 7.65706001,15.6605342" id="Oval-2-Copy-2" transform="translate(6.039413, 8.696248) scale(-1, -1) rotate(-23.000000) translate(-6.039413, -8.696248) "></path>
                <polyline id="Path-15" transform="translate(2.233810, 3.305498) rotate(-16.000000) translate(-2.233810, -3.305498) " points="0.471117111 5.21159139 0.471117111 1.39940538 3.9965031 1.39940538"></polyline>
            </g>
            <g id="Group-17-Copy" transform="translate(6.473832, 52.999315) scale(-1, -1) rotate(3.000000) translate(-6.473832, -52.999315) translate(0.973832, 44.999315)" stroke="#8A959F" stroke-linecap="round" stroke-width="1.5">
                <path d="M7.65706001,1.73196273 C3.34333452,5.57823152 3.34333452,11.8142654 7.65706001,15.6605342" id="Oval-2-Copy-2" transform="translate(6.039413, 8.696248) scale(-1, -1) rotate(-23.000000) translate(-6.039413, -8.696248) "></path>
                <polyline id="Path-15" transform="translate(2.233810, 3.305498) rotate(-16.000000) translate(-2.233810, -3.305498) " points="0.471117111 5.21159139 0.471117111 1.39940538 3.9965031 1.39940538"></polyline>
            </g>
        </g>
    </g>
</svg>