<?xml version="1.0" encoding="UTF-8"?>
<svg width="79px" height="80px" viewBox="0 0 79 80" version="1.1" xmlns="http://www.w3.org/2000/svg" xmlns:xlink="http://www.w3.org/1999/xlink">
    <!-- Generator: Sketch 48.2 (47327) - http://www.bohemiancoding.com/sketch -->
    <title>Group 10 Copy 5</title>
    <desc>Created with Sketch.</desc>
    <defs></defs>
    <g id="//-1-task-icons" stroke="none" stroke-width="1" fill="none" fill-rule="evenodd" transform="translate(-911.000000, -610.000000)">
        <g id="Group-10-Copy-5" transform="translate(911.000000, 607.000000)">
            <circle id="Oval-5" stroke="#E5E8EC" stroke-width="1.5" opacity="0.200000003" stroke-linecap="round" stroke-dasharray="3,6" cx="41" cy="43" r="36"></circle>
            <circle id="Oval-5" fill="#3A475B" cx="41.5" cy="43.5" r="21.5"></circle>
            <circle id="Oval-3" stroke="#8A959F" stroke-width="1.5" fill="#3A475B" stroke-linecap="round" transform="translate(69.692812, 21.208753) rotate(44.000000) translate(-69.692812, -21.208753) " cx="69.6928121" cy="21.2087535" r="4"></circle>
            <polygon id="Stroke-159-Copy" stroke="#8A959F" stroke-width="1.5" fill="#3A475B" stroke-linecap="round" transform="translate(5.519459, 49.507020) rotate(44.000000) translate(-5.519459, -49.507020) " points="6.81164215 53.3823521 2.50517588 52.5213024 1.64412621 48.2148361 4.22849312 45.6316871 8.5337415 46.4927368 9.39479117 50.799203"></polygon>
            <polygon id="Stroke-144-Copy" stroke="#8A959F" stroke-width="1.5" fill="#3A475B" stroke-linecap="round" transform="translate(55.884095, 76.114220) rotate(44.000000) translate(-55.884095, -76.114220) " points="59.8840949 78.9731293 51.8840949 80.1142203 55.4887942 72.1142203"></polygon>
            <circle id="Oval-5" fill="#3A475B" cx="11" cy="24" r="6"></circle>
            <circle id="Oval-5-Copy" fill="#3A475B" cx="73" cy="56" r="6"></circle>
            <circle id="Oval-5-Copy-2" fill="#3A475B" cx="44" cy="9" r="6"></circle>
            <circle id="Oval-5-Copy-3" fill="#3A475B" cx="23" cy="73" r="6"></circle>
            <text id="?" transform="translate(20.500000, 72.500000) rotate(-29.000000) translate(-20.500000, -72.500000) " font-family="Lato-Semibold, Lato" font-size="14" font-weight="500" fill="#8A959F">
                <tspan x="17" y="78">?</tspan>
            </text>
            <text id="?-copy-4" font-family="Lato-Semibold, Lato" font-size="14" font-weight="500" fill="#8A959F">
                <tspan x="39" y="14">?</tspan>
            </text>
            <text id="?-copy-3" transform="translate(71.500000, 54.500000) rotate(14.000000) translate(-71.500000, -54.500000) " font-family="Lato-Semibold, Lato" font-size="14" font-weight="500" fill="#8A959F">
                <tspan x="68" y="60">?</tspan>
            </text>
            <text id="?-copy" transform="translate(8.500000, 23.500000) rotate(-16.000000) translate(-8.500000, -23.500000) " font-family="Lato-Semibold, Lato" font-size="14" font-weight="500" fill="#8A959F">
                <tspan x="5" y="29">?</tspan>
            </text>
            <g id="Group-13" transform="translate(33.000000, 30.000000)" fill="#3A475B" stroke="#8A959F" stroke-linecap="round" stroke-width="1.5">
                <path d="M0,8.18001109 C0.1363342,4.94207385 1.26675498,2.64714924 3.39129627,1.29516842 C4.7319159,0.431718491 6.37926277,0 8.3333863,0 C10.9010137,0 13.0340439,0.613494697 14.7325408,1.8405025 C16.4310377,3.0675103 17.2802734,4.88527236 17.2802734,7.29384323 C17.2802734,8.77079706 16.9110405,10.014828 16.1725636,11.0259733 C15.7408386,11.6394772 14.9114847,12.4233871 13.6844769,13.3777265 L12.4745169,14.3150194 C11.8155683,14.8262727 11.3781693,15.4227258 11.1623068,16.1043968 C11.0259726,16.5361218 10.952126,17.2064216 10.9407648,18.1153162 L6.3395086,18.1153162 C6.4076757,16.1952763 6.5894519,14.868878 6.88484267,14.1360817 C7.18023344,13.4032853 7.9414213,12.5597301 9.1684291,11.6053907 L10.4124725,10.6340144 C10.8214751,10.3272625 11.1509444,9.99211259 11.4008905,9.62855473 C11.8553378,9.00368964 12.0825581,8.31634836 12.0825581,7.56651026 C12.0825581,6.70306033 11.8297755,5.91631019 11.3242029,5.20623623 C10.8186302,4.49616227 9.8955479,4.14113062 8.55492827,4.14113062 C7.237031,4.14113062 6.30258769,4.57852961 5.7515703,5.45334073 C5.20055291,6.32815185 4.92504835,7.23703288 4.92504835,8.18001109 L0,8.18001109 Z" id="?-copy-6"></path>
                <path d="M8.68274094,21.4500277 L8.83611615,21.4500277 C10.1961307,21.4500277 11.2986403,22.5525374 11.2986403,23.9125519 L11.2986403,23.9125519 C11.2986403,25.2725665 10.1961307,26.3750761 8.83611615,26.3750761 L8.68274094,26.3750761 C7.3227264,26.3750761 6.22021677,25.2725665 6.22021677,23.9125519 L6.22021677,23.9125519 C6.22021677,22.5525374 7.3227264,21.4500277 8.68274094,21.4500277 Z" id="Path"></path>
            </g>
        </g>
    </g>
</svg>