<svg xmlns="http://www.w3.org/2000/svg" width="12" height="12" viewBox="0 0 12 12">
    <g fill="none" fill-rule="evenodd">
        <g>
            <g>
                <path fill="#D8D8D8" fill-opacity="0" d="M0 0H12V12H0z" transform="translate(-1194 -415) rotate(90 395.5 810.5)"/>
                <path fill="#26344A" d="M9.503 6.257l.027.025c.141.141.15.365.025.516l-.025.027-3.312 3.313c-.141.14-.365.149-.516.024l-.027-.024-3.313-3.313c-.15-.15-.15-.393 0-.543.141-.14.365-.149.516-.025l.027.025 3.041 3.041 3.042-3.04c.14-.142.364-.15.515-.026zm0-4.42l.027.025c.141.141.15.365.025.516l-.025.027-3.312 3.313c-.141.14-.365.149-.516.025l-.027-.025-3.313-3.313c-.15-.15-.15-.393 0-.543.141-.14.365-.149.516-.024l.027.024 3.041 3.042 3.042-3.042c.14-.14.364-.149.515-.024z" transform="translate(-1194 -415) rotate(90 395.5 810.5)"/>
            </g>
        </g>
    </g>
</svg>
