<svg xmlns="http://www.w3.org/2000/svg" viewBox="0 0 172.1 30"><defs><style>.cls-1{fill:#222;}.cls-2{fill:#7221ac;}.cls-3{fill:#fff;}</style></defs><g id="Layer_2" data-name="Layer 2"><g id="Layer_1-2" data-name="Layer 1"><path class="cls-1" d="M38.2,26.77V4.05H47c5.56,0,9.15,3.14,9.15,8,0,5.1-3.84,8.4-9.79,8.4H42.73v6.32ZM42.73,16.4h4.14c2.91,0,4.86-1.75,4.86-4.35,0-2.34-1.95-3.91-4.86-3.91H42.73Z"/><rect class="cls-1" x="58.43" y="3.03" width="4.33" height="23.74"/><path class="cls-1" d="M73.29,27.11a8.11,8.11,0,0,1-7.92-8.26,8,8,0,0,1,7.92-8.3,8.13,8.13,0,0,1,4.52,1.26l.31.2V10.89h4.32V26.77H78.12V25.65l-.31.2A8.13,8.13,0,0,1,73.29,27.11Zm.78-13a4.53,4.53,0,0,0-4.41,4.73,4.49,4.49,0,0,0,4.41,4.65,4.76,4.76,0,0,0,4-1.95l.05-.05V16.16l0-.05A4.74,4.74,0,0,0,74.07,14.12Z"/><path class="cls-1" d="M93.89,27.28c-3.84,0-6.32-2.67-6.32-6.8v-6H84.13V10.89h3.44V5.07h4.29v5.82h5.88v3.57H91.86v6c0,1.84,1.11,2.89,3,2.89a11,11,0,0,0,2.59-.39l.56,3.65A12,12,0,0,1,93.89,27.28Z"/><path class="cls-1" d="M102.63,26.77V14.46H98.28V10.89h4.35V8.38c0-4.28,2.71-7.15,6.74-7.15a15.67,15.67,0,0,1,3.78.53l-.58,3.66a12.85,12.85,0,0,0-2.25-.27A3.1,3.1,0,0,0,107,8.34v2.55h6.18v3.57H107V26.77Z"/><path class="cls-1" d="M122.08,27.28a8.21,8.21,0,0,1-8.54-8.43,8.51,8.51,0,0,1,17,0A8.17,8.17,0,0,1,122.08,27.28Zm0-12.92a4.2,4.2,0,0,0-4.28,4.49,4.32,4.32,0,0,0,4.28,4.62c2.44,0,4.21-1.95,4.21-4.62A4.17,4.17,0,0,0,122.08,14.36Z"/><path class="cls-1" d="M133,26.77V10.89h4.32V13l.34-.31a7.74,7.74,0,0,1,5.37-2.05v4.09a7.75,7.75,0,0,0-5.66,2.4l-.05.06v9.6Z"/><path class="cls-1" d="M167.77,26.77V18.44c0-2.66-1.34-4.18-3.67-4.18a4,4,0,0,0-3.22,1.89l0,.06v.08A15.79,15.79,0,0,1,161,18v8.74h-4.33V18.44c0-2.7-1.31-4.18-3.7-4.18a3.87,3.87,0,0,0-3,1.92l0,.05V26.77h-4.32V10.89h4.32v1.24l.34-.31a5,5,0,0,1,3.87-1.44,6.52,6.52,0,0,1,5.05,2.24l.14.16.15-.14a7.67,7.67,0,0,1,5.78-2.26c4,0,6.91,3.22,6.91,7.65v8.74Z"/><path class="cls-2" d="M30,8V28a2,2,0,0,1-2,2H8a8,8,0,0,1-8-8V8A8,8,0,0,1,8,0H22A8,8,0,0,1,30,8Z"/><path class="cls-3" d="M22.72,10.85l-7,3.8a1.4,1.4,0,0,1-1.32,0L7.29,10.86a.51.51,0,0,1,0-.91l7.06-3.79a1.42,1.42,0,0,1,1.3,0l7.07,3.78A.51.51,0,0,1,22.72,10.85Z"/><path class="cls-3" d="M22.71,15.45l-7,3.79a1.41,1.41,0,0,1-1.28,0l0,0L7.28,15.46a.52.52,0,0,1,0-.92L9,13.64,13.23,16h0l1.71.93L16.7,16l0,0L21,13.63l1.71.91h0l.12.09a.56.56,0,0,1,.13.22A.52.52,0,0,1,22.71,15.45Z"/><path class="cls-3" d="M22.71,20l-7,3.8a1.38,1.38,0,0,1-1.28,0h0L7.28,20.05a.52.52,0,0,1,0-.92L9,18.23l4.26,2.31,0,0,1.71.93,1.72-.93,0,0L21,18.22l1.71.91,0,0,.12.09a.45.45,0,0,1,.13.22A.51.51,0,0,1,22.71,20Z"/></g></g></svg>