<?xml version="1.0" encoding="UTF-8"?>
<svg width="12px" height="12px" viewBox="0 0 12 12" version="1.1" xmlns="http://www.w3.org/2000/svg" xmlns:xlink="http://www.w3.org/1999/xlink">
    <!-- Generator: Sketch 53.2 (72643) - https://sketchapp.com -->
    <title>appearance-green</title>
    <desc>Created with Sketch.</desc>
    <g id="Page-1" stroke="none" stroke-width="1" fill="none" fill-rule="evenodd">
        <g id="appearance-green" transform="translate(-2.000000, -2.000000)" fill-rule="nonzero">
            <polygon id="Path" fill-opacity="0" fill="#D8D8D8" points="0 0 16 0 16 16 0 16"></polygon>
            <path d="M8,2 C4.69,2 2,4.69 2,8 L2,8.462 C2,9.475 2.833,10.308 3.846,10.308 L4.308,10.308 C5.079,10.308 5.692,10.921 5.692,11.692 L5.692,12.154 C5.692,13.167 6.525,14 7.538,14 L8,14 C11.31,14 14,11.31 14,8 C14,4.69 11.31,2 8,2 Z M8,2.923 C10.809,2.923 13.077,5.191 13.077,8 C13.077,10.809 10.809,13.077 8,13.077 L7.538,13.077 C7.023,13.077 6.615,12.669 6.615,12.154 L6.615,11.692 C6.615,10.423 5.577,9.385 4.308,9.385 L3.846,9.385 C3.331,9.385 2.923,8.977 2.923,8.462 L2.923,8 C2.923,5.191 5.191,2.923 8,2.923 Z M7.538,3.846 C7.03,3.846 6.615,4.261 6.615,4.769 C6.615,5.278 7.03,5.692 7.538,5.692 C8.047,5.692 8.462,5.278 8.462,4.769 C8.462,4.261 8.047,3.846 7.538,3.846 L7.538,3.846 Z M10.308,4.769 C9.799,4.769 9.385,5.184 9.385,5.692 C9.385,6.201 9.799,6.615 10.308,6.615 C10.816,6.615 11.231,6.201 11.231,5.692 C11.231,5.184 10.816,4.769 10.308,4.769 Z M4.769,5.692 C4.261,5.692 3.846,6.107 3.846,6.615 C3.846,7.124 4.261,7.538 4.769,7.538 C5.278,7.538 5.692,7.124 5.692,6.615 C5.692,6.107 5.278,5.692 4.769,5.692 Z M11.231,7.538 C10.722,7.538 10.308,7.953 10.308,8.462 C10.308,8.97 10.722,9.385 11.231,9.385 C11.739,9.385 12.154,8.97 12.154,8.462 C12.154,7.953 11.739,7.538 11.231,7.538 L11.231,7.538 Z M9.385,10.308 C8.876,10.308 8.462,10.722 8.462,11.231 C8.462,11.739 8.876,12.154 9.385,12.154 C9.893,12.154 10.308,11.739 10.308,11.231 C10.308,10.722 9.893,10.308 9.385,10.308 Z" id="Shape" fill="#009DAB"></path>
        </g>
    </g>
</svg>