<svg width="20" height="20" viewBox="0 0 20 20" fill="none" xmlns="http://www.w3.org/2000/svg">
<path d="M3.125 2.5C2.09473 2.5 1.25 3.34473 1.25 4.375V10.625C1.25 11.6553 2.09473 12.5 3.125 12.5H4.99023V15L8.33008 12.5H11.875C12.9053 12.5 13.75 11.6553 13.75 10.625V4.375C13.75 3.34473 12.9053 2.5 11.875 2.5H3.125ZM3.125 3.75H11.875C12.2266 3.75 12.5 4.02344 12.5 4.375V10.625C12.5 10.9766 12.2266 11.25 11.875 11.25H7.91016L6.24023 12.5V11.25H3.125C2.77344 11.25 2.5 10.9766 2.5 10.625V4.375C2.5 4.02344 2.77344 3.75 3.125 3.75ZM15 6.25V7.5H16.875C17.2266 7.5 17.5 7.77344 17.5 8.125V14.375C17.5 14.7266 17.2266 15 16.875 15H13.7549V16.25L12.0898 15H8.125C7.87598 15 7.66113 14.8486 7.55859 14.6338L6.55273 15.3906C6.88965 15.9082 7.46582 16.25 8.125 16.25H11.6699L15.0049 18.75V16.25H16.875C17.9053 16.25 18.75 15.4053 18.75 14.375V8.125C18.75 7.09473 17.9053 6.25 16.875 6.25H15ZM15 8.75V10H16.25V8.75H15ZM15 11.25V12.5H16.25V11.25H15Z" fill="black"/>
<path d="M3.75 5V6.25H11.25V5H3.75ZM3.75 7.5V8.75H8.75V7.5H3.75Z" fill="#0D6EFD"/>
</svg>
