<svg width="20" height="20" viewBox="0 0 20 20" fill="none" xmlns="http://www.w3.org/2000/svg">
<path d="M2.5 1.25V2.5H9.375C9.75586 2.5 10 2.75391 10 3.00781V3.85742C9.29199 4.10156 8.75 4.73145 8.75 5.50781V13.75H2.5V15H8.75V15.7422C8.75 16.7383 9.62891 17.5 10.625 17.5H17.5V16.25H10.625C10.2441 16.25 10 15.9961 10 15.7422V5.50781C10 5.25391 10.2441 5 10.625 5H17.5V3.75H11.25V3.00781C11.25 2.01172 10.3711 1.25 9.375 1.25H2.5Z" fill="black"/>
<path d="M5 5V7.5H2.5V8.75H5V11.25L8.125 8.125L5 5ZM15 7.5L11.875 10.625L15 13.75V11.25H17.5V10H15V7.5Z" fill="#0D6EFD"/>
</svg>
