<svg width="20" height="20" viewBox="0 0 20 20" fill="none" xmlns="http://www.w3.org/2000/svg">
<path d="M10 7.5C9.21875 7.5 8.55449 7.81547 8.12744 8.2959C7.7004 8.77632 7.5 9.39236 7.5 10C7.5 10.6076 7.7004 11.2237 8.12744 11.7041C8.55449 12.1845 9.21875 12.5 10 12.5C10.7812 12.5 11.4455 12.1845 11.8726 11.7041C12.2996 11.2237 12.5 10.6076 12.5 10C12.5 9.39236 12.2996 8.77632 11.8726 8.2959C11.4455 7.81547 10.7812 7.5 10 7.5ZM10 12.5C8.91347 12.5 7.89774 12.896 7.23145 13.7573C7.14575 13.8681 7.08099 14.0027 7.00684 14.126C6.58796 13.8916 6.11966 13.75 5.625 13.75C3.86668 13.75 2.5 15.3764 2.5 17.5H3.75C3.75 15.8736 4.62082 15 5.625 15C5.95192 15 6.24842 15.0937 6.51367 15.2734C6.33969 15.9108 6.25 16.6486 6.25 17.5H7.5C7.5 16.0192 7.79869 15.0688 8.22021 14.5239C8.64174 13.979 9.18778 13.75 10 13.75C10.8122 13.75 11.3583 13.979 11.7798 14.5239C12.2013 15.0688 12.5 16.0192 12.5 17.5H13.75C13.75 16.6486 13.6603 15.9108 13.4863 15.2734C13.7516 15.0937 14.0481 15 14.375 15C15.3792 15 16.25 15.8736 16.25 17.5H17.5C17.5 15.3764 16.1333 13.75 14.375 13.75C13.8803 13.75 13.412 13.8916 12.9932 14.126C12.919 14.0027 12.8543 13.8681 12.7686 13.7573C12.1023 12.896 11.0865 12.5 10 12.5ZM14.375 13.75C14.9479 13.75 15.4559 13.5127 15.7788 13.1494C16.1017 12.7862 16.25 12.3264 16.25 11.875C16.25 11.4236 16.1017 10.9638 15.7788 10.6006C15.4559 10.2373 14.9479 10 14.375 10C13.8021 10 13.2941 10.2373 12.9712 10.6006C12.6483 10.9638 12.5 11.4236 12.5 11.875C12.5 12.3264 12.6483 12.7862 12.9712 13.1494C13.2941 13.5127 13.8021 13.75 14.375 13.75ZM5.625 13.75C6.19792 13.75 6.70593 13.5127 7.02881 13.1494C7.35169 12.7862 7.5 12.3264 7.5 11.875C7.5 11.4236 7.35169 10.9638 7.02881 10.6006C6.70593 10.2373 6.19792 10 5.625 10C5.05208 10 4.54407 10.2373 4.22119 10.6006C3.89831 10.9638 3.75 11.4236 3.75 11.875C3.75 12.3264 3.89831 12.7862 4.22119 13.1494C4.54407 13.5127 5.05208 13.75 5.625 13.75ZM10 8.75C10.4687 8.75 10.742 8.90328 10.9399 9.12598C11.1379 9.34868 11.25 9.67014 11.25 10C11.25 10.3299 11.1379 10.6513 10.9399 10.874C10.742 11.0967 10.4687 11.25 10 11.25C9.53125 11.25 9.25801 11.0967 9.06006 10.874C8.8621 10.6513 8.75 10.3299 8.75 10C8.75 9.67014 8.8621 9.34868 9.06006 9.12598C9.25801 8.90328 9.53125 8.75 10 8.75ZM5.625 11.25C5.88542 11.25 6.0024 11.3252 6.09619 11.4307C6.18998 11.5362 6.25 11.7014 6.25 11.875C6.25 12.0486 6.18998 12.2138 6.09619 12.3193C6.0024 12.4248 5.88542 12.5 5.625 12.5C5.36458 12.5 5.2476 12.4248 5.15381 12.3193C5.06002 12.2138 5 12.0486 5 11.875C5 11.7014 5.06002 11.5362 5.15381 11.4307C5.2476 11.3252 5.36458 11.25 5.625 11.25ZM14.375 11.25C14.6354 11.25 14.7524 11.3252 14.8462 11.4307C14.94 11.5362 15 11.7014 15 11.875C15 12.0486 14.94 12.2138 14.8462 12.3193C14.7524 12.4248 14.6354 12.5 14.375 12.5C14.1146 12.5 13.9976 12.4248 13.9038 12.3193C13.81 12.2138 13.75 12.0486 13.75 11.875C13.75 11.7014 13.81 11.5362 13.9038 11.4307C13.9976 11.3252 14.1146 11.25 14.375 11.25Z" fill="black"/>
<path d="M4.375 1.25C4.20924 1.25002 4.05028 1.31587 3.93308 1.43308C3.81587 1.55028 3.75002 1.70924 3.75 1.875V5.625V8.125C3.75005 8.24859 3.78673 8.36938 3.85541 8.47213C3.9241 8.57487 4.02169 8.65495 4.13587 8.70224C4.25005 8.74953 4.37569 8.76192 4.49691 8.73783C4.61812 8.71374 4.72948 8.65425 4.81689 8.56689L7.13379 6.25H11.875H14.1162L15.1831 7.31689C15.2705 7.40425 15.3819 7.46374 15.5031 7.48783C15.6243 7.51192 15.7499 7.49954 15.8641 7.45224C15.9783 7.40495 16.0759 7.32487 16.1446 7.22213C16.2133 7.11938 16.25 6.99859 16.25 6.875V5.625V3.125C16.25 2.95924 16.1841 2.80028 16.0669 2.68308C15.9497 2.56587 15.7908 2.50002 15.625 2.5H12.5V1.875C12.5 1.70924 12.4341 1.55028 12.3169 1.43308C12.1997 1.31587 12.0408 1.25002 11.875 1.25H4.375ZM5 2.5H11.25V3.125V5H6.875C6.70925 5.00003 6.5503 5.0659 6.43311 5.18311L5 6.61621V5.625V2.5ZM12.5 3.75H15V5.36621L14.8169 5.18311C14.6997 5.0659 14.5407 5.00003 14.375 5H12.5V3.75Z" fill="#0D6EFD"/>
</svg>
