<svg width="78" height="78" viewBox="0 0 78 78" fill="none" xmlns="http://www.w3.org/2000/svg">
<rect y="0.912109" width="78" height="77" rx="3" fill="#E8EAF6"/>
<path d="M26 26.5312H54V52.5312H26V53.5312H55V25.5312H26V26.5312Z" fill="#311B92"/>
<path d="M50.5 35.0312H58.5V43.0312H50.5V35.0312Z" fill="#D1C4E9"/>
<path d="M58 35.5312V42.5312H51V35.5312H58ZM59 34.5312H50V43.5312H59V34.5312Z" fill="#311B92"/>
<path d="M21.5 22.0312H29.5V30.0312H21.5V22.0312Z" fill="#D1C4E9"/>
<path d="M29 22.5312V29.5312H22V22.5312H29ZM30 21.5312H21V30.5312H30V21.5312Z" fill="#311B92"/>
<path d="M37.5 22.0312H45.5V30.0312H37.5V22.0312Z" fill="#D1C4E9"/>
<path d="M45 22.5312V29.5312H38V22.5312H45ZM46 21.5312H37V30.5312H46V21.5312Z" fill="#311B92"/>
<path d="M21.5 49.0312H29.5V57.0312H21.5V49.0312Z" fill="#D1C4E9"/>
<path d="M29 49.5312V56.5312H22V49.5312H29ZM30 48.5312H21V57.5312H30V48.5312Z" fill="#311B92"/>
<path d="M37.5 49.0312H45.5V57.0312H37.5V49.0312Z" fill="#D1C4E9"/>
<path d="M45 49.5312V56.5312H38V49.5312H45ZM46 48.5312H37V57.5312H46V48.5312Z" fill="#311B92"/>
</svg>
