<svg width="78" height="78" viewBox="0 0 78 78" fill="none" xmlns="http://www.w3.org/2000/svg">
<rect y="0.912109" width="78" height="77" rx="3" fill="#FFEBEE"/>
<path d="M37.6931 31.0139L38.8881 29.8179C39.7391 28.9679 40.8701 28.4999 42.0711 28.4999H46.0001L56.5001 27.5469V40.4999H52.8331L49.0621 43.3289L37.6931 31.0139Z" fill="#F8BBD0"/>
<path d="M56 28.095V40H53H52.667L52.4 40.2L49.122 42.658L38.386 31.028L39.242 30.172C39.998 29.416 41.003 29 42.071 29H46H46.045L46.09 28.996L56 28.095ZM57 27L46 28H42.071C40.745 28 39.473 28.527 38.535 29.464L37 31L49 44L53 41H57V27Z" fill="#880E4F"/>
<path d="M39.5 54.4999C38.617 54.4999 37.831 53.9019 37.587 53.0459L37.371 52.2869L37.123 52.5039L26.222 40.4999H19.5V27.5469L29.955 28.4979L34.834 28.4999C36.072 28.4999 37.269 29.0189 38.117 29.9219L45.718 38.0299L49.298 41.7709L49.361 41.8069C50.064 42.2099 50.501 42.9539 50.501 43.7499C50.501 44.9479 49.559 45.9309 48.356 45.9869L47.721 46.0169L47.9 46.6269C47.968 46.8629 48 47.0609 48 47.2499C48 48.4909 46.99 49.4999 45.75 49.4999C45.553 49.4999 45.349 49.4659 45.106 49.3929L44.358 49.1669L44.466 49.9409C44.486 50.0759 44.499 50.1609 44.499 50.2499C44.499 51.4909 43.489 52.4999 42.249 52.4999C42.201 52.4999 42.154 52.4919 42.108 52.4859L41.547 52.4229L41.46 52.8759C41.282 53.8169 40.457 54.4999 39.5 54.4999Z" fill="#FCE4EC"/>
<path d="M20 28.095L29.909 28.996L29.955 29H30H34.834C35.935 29 36.999 29.461 37.752 30.264L45.361 38.38L48.887 42.064L48.987 42.168L49.112 42.24C49.668 42.559 50 43.124 50 43.75C50 44.68 49.267 45.444 48.332 45.488L47.065 45.548L47.419 46.766C47.474 46.956 47.5 47.11 47.5 47.25C47.5 48.215 46.715 49 45.75 49C45.604 49 45.445 48.973 45.25 48.914L43.757 48.465L43.971 50.009L43.979 50.066C43.988 50.127 44 50.187 44 50.25C44 51.215 43.215 52 42.255 52C42.229 51.999 42.203 51.994 42.177 51.99L42.061 51.975L41.143 51.875L40.97 52.782C40.836 53.488 40.217 54 39.5 54C38.84 54 38.251 53.551 38.068 52.908L37.61 51.402L37.16 51.8L26.74 40.328L26.443 40H26H20V28.095ZM19 27V41H26L37.083 53.203L37.106 53.182C37.405 54.229 38.358 55 39.5 55C40.72 55 41.732 54.126 41.953 52.97C42.052 52.981 42.148 53 42.25 53C43.769 53 45 51.769 45 50.25C45 50.12 44.979 49.996 44.962 49.872C45.213 49.947 45.474 50 45.75 50C47.269 50 48.5 48.769 48.5 47.25C48.5 46.983 48.45 46.731 48.379 46.487C49.837 46.418 51 45.224 51 43.75C51 42.728 50.436 41.847 49.609 41.373L46.083 37.688L38.482 29.58C37.536 28.572 36.216 28 34.834 28H30L19 27Z" fill="#880E4F"/>
<path d="M35.6181 38.791C35.0881 38.791 34.5821 38.702 34.1931 38.539C33.2381 38.14 32.6761 37.635 32.5671 37.079C32.4391 36.431 32.9231 35.783 33.3531 35.354L38.8881 29.818C39.7391 28.968 40.8701 28.5 42.0711 28.5H45.5001V34.5H44.0001C43.1131 34.5 41.9001 34.965 41.2401 35.559L39.2731 37.329C37.8571 38.601 36.3761 38.791 35.6181 38.791Z" fill="#F8BBD0"/>
<path d="M45 29V34H44C42.988 34 41.658 34.51 40.906 35.187L38.939 36.956C37.648 38.117 36.305 38.291 35.619 38.291C34.991 38.291 34.577 38.157 34.387 38.077C33.616 37.754 33.132 37.355 33.059 36.982C32.994 36.65 33.23 36.185 33.708 35.707L39.244 30.171C39.998 29.416 41.003 29 42.071 29H45ZM46 28H42.071C40.745 28 39.473 28.527 38.535 29.464L33 35C31.583 36.417 31.611 38 34 39C34.421 39.176 34.982 39.291 35.619 39.291C36.821 39.291 38.295 38.881 39.608 37.7L41.575 35.931C42.143 35.419 43.235 35 44 35H46V28Z" fill="#880E4F"/>
<path d="M49.667 34L46 35H45V34H43V29H49.667V34ZM36.5 54.5C35.551 54.5 34.727 53.826 34.54 52.897L34.459 52.495H34.05L33.95 52.503C32.621 52.5 31.5 51.378 31.5 50V49.5H31C29.621 49.5 28.5 48.378 28.5 47V46.5H28C26.621 46.5 25.5 45.378 25.5 44C25.5 42.622 26.621 41.5 28 41.5C29.379 41.5 30.5 42.622 30.5 44V44.5H31C32.379 44.5 33.5 45.622 33.5 47V47.5H34C35.379 47.5 36.5 48.622 36.5 50V50.41L36.896 50.54C37.825 50.727 38.5 51.551 38.5 52.5C38.5 53.603 37.603 54.5 36.5 54.5Z" fill="#F8BBD0"/>
<path d="M28 42C29.103 42 30 42.897 30 44V45H31C32.103 45 33 45.897 33 47V48H34C35.085 48 35.97 48.868 35.999 49.946L35.996 49.968L35.995 50.033L35.98 50.867L36.798 51.031C37.495 51.17 38 51.788 38 52.5C38 53.327 37.327 54 36.5 54C35.788 54 35.17 53.495 35.03 52.798L34.866 51.98L34.032 51.995C34.005 51.995 33.979 51.997 33.953 51.999C32.872 51.974 32 51.087 32 50V49H31C29.897 49 29 48.103 29 47V46H28C26.897 46 26 45.103 26 44C26 42.897 26.897 42 28 42ZM28 41C26.343 41 25 42.343 25 44C25 45.657 26.343 47 28 47C28 48.657 29.343 50 31 50C31 51.657 32.343 53 34 53C34.017 53 34.033 52.995 34.05 52.995C34.28 54.138 35.289 55 36.5 55C37.881 55 39 53.881 39 52.5C39 51.289 38.138 50.28 36.995 50.05C36.995 50.033 37 50.017 37 50C37 48.343 35.657 47 34 47C34 45.343 32.657 44 31 44C31 42.343 29.657 41 28 41Z" fill="#880E4F"/>
<path d="M41 52L41.737 52.737M47 45L48.171 46.171L47 45ZM43.5 48.5L44.671 49.671L43.5 48.5Z" stroke="#880E4F" stroke-miterlimit="10" stroke-linecap="round"/>
<path d="M44.5 34H45.5C45.775 34 46 34.225 46 34.5C46 34.775 45.775 35 45.5 35H44.5C44.225 35 44 34.775 44 34.5C44 34.225 44.225 34 44.5 34Z" fill="#880E4F"/>
</svg>
