<svg width="78" height="78" viewBox="0 0 78 78" fill="none" xmlns="http://www.w3.org/2000/svg">
<rect y="0.912109" width="78" height="77" rx="3" fill="#E0F7FA"/>
<path d="M34 56.5L40.667 44.5" stroke="#006064" stroke-miterlimit="10"/>
<path d="M34 55C33.824 55 34.176 55 34 55C33.172 55 32.5 55.672 32.5 56.5C32.5 57.328 33.172 58 34 58C34.176 58 33.824 58 34 58C34.828 58 35.5 57.328 35.5 56.5C35.5 55.672 34.828 55 34 55Z" fill="#006064"/>
<path d="M50 56.5L43.333 44.5" stroke="#006064" stroke-miterlimit="10"/>
<path d="M50 55C50.176 55 49.824 55 50 55C50.828 55 51.5 55.672 51.5 56.5C51.5 57.328 50.828 58 50 58C49.824 58 50.176 58 50 58C49.172 58 48.5 57.328 48.5 56.5C48.5 55.672 49.172 55 50 55ZM42 53C41.448 53 41 52.552 41 52V25C41 24.448 41.448 24 42 24C42.552 24 43 24.448 43 25V52C43 52.552 42.552 53 42 53Z" fill="#006064"/>
<path d="M27.5 28.5H56.5V48.5H27.5V28.5Z" fill="#E0F7FA"/>
<path d="M56 29V48H28V29H56ZM57 28H27V49H57V28Z" fill="#006064"/>
<path d="M26.5 25.5H57.5V28.5H26.5V25.5Z" fill="#B2EBF2"/>
<path d="M57 26V28H27V26H57ZM58 25H26V29H58V25Z" fill="#006064"/>
<path d="M26 29H27V49H29.837L31.125 33.805L28 33V30.398L28.652 30C30.07 29.004 31 27.36 31 25.5C31 25.331 30.99 25.165 30.975 25H26V29Z" fill="#B2EBF2"/>
<path d="M28 33V30.398L28.652 30C29.054 29.717 29.412 29.377 29.726 29H27V49H29.837L31.125 33.805L28 33Z" fill="#E0F7FA"/>
<path d="M25.5 21.5C24.4391 21.5 23.4217 21.9214 22.6716 22.6716C21.9214 23.4217 21.5 24.4391 21.5 25.5C21.5 26.5609 21.9214 27.5783 22.6716 28.3284C23.4217 29.0786 24.4391 29.5 25.5 29.5C26.5609 29.5 27.5783 29.0786 28.3284 28.3284C29.0786 27.5783 29.5 26.5609 29.5 25.5C29.5 24.4391 29.0786 23.4217 28.3284 22.6716C27.5783 21.9214 26.5609 21.5 25.5 21.5Z" fill="#E0F7FA"/>
<path d="M25.5 22C27.43 22 29 23.57 29 25.5C29 27.43 27.43 29 25.5 29C23.57 29 22 27.43 22 25.5C22 23.57 23.57 22 25.5 22ZM25.5 21C23.015 21 21 23.015 21 25.5C21 27.985 23.015 30 25.5 30C27.985 30 30 27.985 30 25.5C30 23.015 27.985 21 25.5 21Z" fill="#006064"/>
<path d="M22.5 58.5V47.793L19.5 44.793V37C19.5 33.967 21.967 31.5 25 31.5H40C40.827 31.5 41.5 32.173 41.5 33C41.5 33.827 40.827 34.5 40 34.5H29.54L27.54 58.5H22.5Z" fill="#80DEEA"/>
<path d="M40 32C40.551 32 41 32.449 41 33C41 33.551 40.551 34 40 34H30H29.08L29.004 34.917L27.08 58H23V48V47.586L22.707 47.293L20 44.586V37C20 34.243 22.243 32 25 32H40ZM40 31H25C21.686 31 19 33.686 19 37V45L22 48V59H28L30 35H40C41.105 35 42 34.105 42 33C42 31.895 41.105 31 40 31Z" fill="#006064"/>
</svg>
