<svg width="78" height="78" viewBox="0 0 78 78" fill="none" xmlns="http://www.w3.org/2000/svg">
<rect y="0.912109" width="78" height="77" rx="3" fill="#E3F2FD"/>
<path d="M57.994 58.46C55.881 58.295 53.513 57.629 51.216 56.543L51.024 56.452L50.825 56.528C49.131 57.173 47.34 57.5 45.5 57.5C38.332 57.5 32.5 52.565 32.5 46.5C32.5 40.435 38.332 35.5 45.5 35.5C52.668 35.5 58.5 40.435 58.5 46.5C58.5 49.029 57.458 51.501 55.565 53.459L55.323 53.71L55.474 54.023C56.292 55.724 57.138 57.211 57.994 58.46Z" fill="#81D4FA"/>
<path d="M45.5 36C52.393 36 58 40.71 58 46.5C58 48.9 57.008 51.248 55.206 53.111L54.722 53.612L55.024 54.24C55.665 55.573 56.324 56.777 56.992 57.842C55.217 57.575 53.301 56.976 51.429 56.091L51.044 55.909L50.646 56.061C49.009 56.684 47.278 57 45.5 57C38.607 57 33 52.29 33 46.5C33 40.71 38.607 36 45.5 36ZM45.5 35C38.044 35 32 40.149 32 46.5C32 52.851 38.044 58 45.5 58C47.461 58 49.32 57.636 51.001 56.995C53.547 58.198 56.405 59 59 59C57.824 57.451 56.799 55.623 55.925 53.806C57.846 51.82 59 49.275 59 46.5C59 40.149 52.956 35 45.5 35Z" fill="#01579B"/>
<path d="M47.035 41H44.058L40 52H42.721C42.721 52 45.424 43.286 45.45 42.964H45.512C45.548 43.347 48.264 52 48.264 52H51L47.035 41Z" fill="#E3F2FD"/>
<path d="M42 47H49V49H42V47Z" fill="#E3F2FD"/>
<path d="M22.006 44.46C22.862 43.211 23.708 41.724 24.526 40.023L24.677 39.71L24.435 39.459C22.542 37.501 21.5 35.029 21.5 32.5C21.5 26.435 27.332 21.5 34.5 21.5C41.668 21.5 47.5 26.435 47.5 32.5C47.5 38.565 41.668 43.5 34.5 43.5C32.66 43.5 30.869 43.173 29.176 42.528L28.977 42.452L28.785 42.543C26.487 43.629 24.119 44.295 22.006 44.46Z" fill="#DFF0FE"/>
<path d="M34.5 22C41.393 22 47 26.71 47 32.5C47 38.29 41.393 43 34.5 43C32.722 43 30.991 42.684 29.355 42.061L28.957 41.909L28.572 42.091C26.7 42.976 24.784 43.575 23.009 43.842C23.677 42.777 24.335 41.573 24.977 40.24L25.279 39.612L24.795 39.111C22.992 37.248 22 34.9 22 32.5C22 26.71 27.607 22 34.5 22ZM34.5 21C27.044 21 21 26.149 21 32.5C21 35.275 22.154 37.82 24.075 39.806C23.201 41.623 22.176 43.451 21 45C23.595 45 26.453 44.198 28.999 42.995C30.68 43.636 32.539 44 34.5 44C41.956 44 48 38.851 48 32.5C48 26.149 41.956 21 34.5 21Z" fill="#01579B"/>
<path d="M34 28C35.626 28 37 29.832 37 32C37 34.168 35.626 36 34 36C32.374 36 31 34.168 31 32C31 29.832 32.374 28 34 28ZM34 26C31.239 26 29 28.686 29 32C29 35.314 31.239 38 34 38C36.761 38 39 35.314 39 32C39 28.686 36.761 26 34 26Z" fill="#01579B"/>
<path d="M34 36H37L40 39H37L34 36Z" fill="#01579B"/>
</svg>
