<svg width="78" height="78" viewBox="0 0 78 78" fill="none" xmlns="http://www.w3.org/2000/svg">
<rect width="78" height="78" rx="3" fill="#F9FBE7"/>
<path d="M39.5 19.5C39.106 19.5 38.7159 19.5776 38.3519 19.7284C37.988 19.8791 37.6573 20.1001 37.3787 20.3787C37.1001 20.6573 36.8791 20.988 36.7284 21.3519C36.5776 21.7159 36.5 22.106 36.5 22.5C36.5 22.894 36.5776 23.2841 36.7284 23.6481C36.8791 24.012 37.1001 24.3427 37.3787 24.6213C37.6573 24.8999 37.988 25.1209 38.3519 25.2716C38.7159 25.4224 39.106 25.5 39.5 25.5C39.894 25.5 40.2841 25.4224 40.6481 25.2716C41.012 25.1209 41.3427 24.8999 41.6213 24.6213C41.8999 24.3427 42.1209 24.012 42.2716 23.6481C42.4224 23.2841 42.5 22.894 42.5 22.5C42.5 22.106 42.4224 21.7159 42.2716 21.3519C42.1209 20.988 41.8999 20.6573 41.6213 20.3787C41.3427 20.1001 41.012 19.8791 40.6481 19.7284C40.2841 19.5776 39.894 19.5 39.5 19.5Z" fill="#DCE775"/>
<path d="M39.5 26C37.6 26 36 24.4 36 22.5C36 20.6 37.6 19 39.5 19C41.4 19 43 20.6 43 22.5C43 24.4 41.4 26 39.5 26ZM39.5 20C38.1 20 37 21.1 37 22.5C37 23.9 38.1 25 39.5 25C40.9 25 42 23.9 42 22.5C42 21.1 40.9 20 39.5 20Z" fill="#827717"/>
<path d="M24.7 22.4004C23.9043 22.4004 23.1412 22.7165 22.5786 23.2791C22.016 23.8417 21.7 24.6047 21.7 25.4004C21.7 26.196 22.016 26.9591 22.5786 27.5217C23.1412 28.0843 23.9043 28.4004 24.7 28.4004C25.4956 28.4004 26.2587 28.0843 26.8213 27.5217C27.3839 26.9591 27.7 26.196 27.7 25.4004C27.7 24.6047 27.3839 23.8417 26.8213 23.2791C26.2587 22.7165 25.4956 22.4004 24.7 22.4004Z" fill="#DCE775"/>
<path d="M24.5 29C22.6 29 21 27.4 21 25.5C21 23.6 22.6 22 24.5 22C26.4 22 28 23.6 28 25.5C28 27.4 26.4 29 24.5 29ZM24.5 23C23.1 23 22 24.1 22 25.5C22 26.9 23.1 28 24.5 28C25.9 28 27 26.9 27 25.5C27 24.1 25.9 23 24.5 23ZM39 25.5H40V31H39V25.5Z" fill="#827717"/>
<path d="M26.1545 27.8721L26.8616 27.165L29.8315 30.1347L29.1244 30.8419L26.1545 27.8721Z" fill="#827717"/>
<path d="M54.3 22.4004C53.5044 22.4004 52.7413 22.7165 52.1787 23.2791C51.6161 23.8417 51.3 24.6047 51.3 25.4004C51.3 26.196 51.6161 26.9591 52.1787 27.5217C52.7413 28.0843 53.5044 28.4004 54.3 28.4004C55.0957 28.4004 55.8588 28.0843 56.4214 27.5217C56.984 26.9591 57.3 26.196 57.3 25.4004C57.3 24.6047 56.984 23.8417 56.4214 23.2791C55.8588 22.7165 55.0957 22.4004 54.3 22.4004Z" fill="#DCE775"/>
<path d="M54.5 29C52.6 29 51 27.4 51 25.5C51 23.6 52.6 22 54.5 22C56.4 22 58 23.6 58 25.5C58 27.4 56.4 29 54.5 29ZM54.5 23C53.1 23 52 24.1 52 25.5C52 26.9 53.1 28 54.5 28C55.9 28 57 26.9 57 25.5C57 24.1 55.9 23 54.5 23Z" fill="#827717"/>
<path d="M49.1538 30.1348L52.1236 27.1649L52.8307 27.872L49.8609 30.8419L49.1538 30.1348Z" fill="#827717"/>
<path d="M39.5 52.5C38.7044 52.5 37.9413 52.8161 37.3787 53.3787C36.8161 53.9413 36.5 54.7044 36.5 55.5C36.5 56.2956 36.8161 57.0587 37.3787 57.6213C37.9413 58.1839 38.7044 58.5 39.5 58.5C40.2956 58.5 41.0587 58.1839 41.6213 57.6213C42.1839 57.0587 42.5 56.2956 42.5 55.5C42.5 54.7044 42.1839 53.9413 41.6213 53.3787C41.0587 52.8161 40.2956 52.5 39.5 52.5Z" fill="#DCE775"/>
<path d="M39.5 59C37.6 59 36 57.4 36 55.5C36 53.6 37.6 52 39.5 52C41.4 52 43 53.6 43 55.5C43 57.4 41.4 59 39.5 59ZM39.5 53C38.1 53 37 54.1 37 55.5C37 56.9 38.1 58 39.5 58C40.9 58 42 56.9 42 55.5C42 54.1 40.9 53 39.5 53Z" fill="#827717"/>
<path d="M54.3 49C53.5044 49 52.7413 49.3161 52.1787 49.8787C51.6161 50.4413 51.3 51.2044 51.3 52C51.3 52.7956 51.6161 53.5587 52.1787 54.1213C52.7413 54.6839 53.5044 55 54.3 55C55.0957 55 55.8588 54.6839 56.4214 54.1213C56.984 53.5587 57.3 52.7956 57.3 52C57.3 51.2044 56.984 50.4413 56.4214 49.8787C55.8588 49.3161 55.0957 49 54.3 49Z" fill="#DCE775"/>
<path d="M54.5 56C52.6 56 51 54.4 51 52.5C51 50.6 52.6 49 54.5 49C56.4 49 58 50.6 58 52.5C58 54.4 56.4 56 54.5 56ZM54.5 50C53.1 50 52 51.1 52 52.5C52 53.9 53.1 55 54.5 55C55.9 55 57 53.9 57 52.5C57 51.1 55.9 50 54.5 50ZM39 47H40V52.5H39V47Z" fill="#827717"/>
<path d="M49.1616 47.8691L49.8687 47.162L52.8386 50.1318L52.1315 50.8389L49.1616 47.8691Z" fill="#827717"/>
<path d="M24.5 49.5C23.7044 49.5 22.9413 49.8161 22.3787 50.3787C21.8161 50.9413 21.5 51.7044 21.5 52.5C21.5 53.2956 21.8161 54.0587 22.3787 54.6213C22.9413 55.1839 23.7044 55.5 24.5 55.5C25.2956 55.5 26.0587 55.1839 26.6213 54.6213C27.1839 54.0587 27.5 53.2956 27.5 52.5C27.5 51.7044 27.1839 50.9413 26.6213 50.3787C26.0587 49.8161 25.2956 49.5 24.5 49.5Z" fill="#DCE775"/>
<path d="M24.5 56C22.6 56 21 54.4 21 52.5C21 50.6 22.6 49 24.5 49C26.4 49 28 50.6 28 52.5C28 54.4 26.4 56 24.5 56ZM24.5 50C23.1 50 22 51.1 22 52.5C22 53.9 23.1 55 24.5 55C25.9 55 27 53.9 27 52.5C27 51.1 25.9 50 24.5 50Z" fill="#827717"/>
<path d="M26.1616 50.1318L29.1314 47.1619L29.8385 47.869L26.8687 50.8389L26.1616 50.1318Z" fill="#827717"/>
<path d="M29.5 30.5H49.5V47.5H29.5V30.5Z" fill="#F9FBE7"/>
<path d="M50 48H29V30H50V48ZM30 47H49V31H30V47Z" fill="#827717"/>
<path d="M41.5 34H37.5C37.2 34 37 33.8 37 33.5C37 33.2 37.2 33 37.5 33H41.5C41.8 33 42 33.2 42 33.5C42 33.8 41.8 34 41.5 34Z" fill="#827717"/>
</svg>
