<svg width="210" height="119" viewBox="0 0 210 119" fill="none" xmlns="http://www.w3.org/2000/svg">
<g clip-path="url(#clip0_408_3709)">
<path d="M50.3307 59.3203C50.2083 59.5982 49.5963 61.1767 49.0065 62.7663L47.4819 68.7466C47.2037 71.6368 47.3595 74.8382 48.5502 74.8493C49.6408 74.8715 49.6408 72.9596 50.1193 69.4136C50.2417 72.6261 50.3307 74.9382 51.4547 74.8271C52.5675 74.7159 52.434 71.4589 52.3116 68.9801C53.1128 70.5141 54.1144 72.6261 54.9601 72.4038C56.1731 72.0703 55.3942 70.2362 55.0047 68.969C54.1366 66.1455 55.3608 65.4119 56.4068 63.8556C57.0968 62.8218 56.9299 61.3656 56.3734 59.8094L50.3307 59.3203Z" fill="white"/>
<path d="M48.5728 75.1837H48.5426C48.4001 75.1802 48.2599 75.1466 48.1314 75.0849C48.0029 75.0233 47.8889 74.9351 47.797 74.8262C46.7609 73.6763 47.0393 69.8585 47.1492 68.7158C47.1509 68.6987 47.1538 68.6819 47.158 68.6653L48.6826 62.6849C48.6856 62.6738 48.6891 62.6627 48.6931 62.6516C49.2684 61.1012 49.8922 59.4886 50.0249 59.1872C50.0533 59.1241 50.1004 59.0712 50.1599 59.0358C50.2194 59.0004 50.2884 58.9841 50.3574 58.9892L56.4001 59.4783C56.4642 59.4835 56.5254 59.507 56.5764 59.5461C56.6273 59.5851 56.666 59.6381 56.6876 59.6985C57.3672 61.5993 57.3664 63.0202 56.6844 64.0418C56.4903 64.3309 56.2941 64.5865 56.1045 64.8349C55.2668 65.9291 54.6618 66.7198 55.3236 68.8723C55.3697 69.0222 55.4213 69.1803 55.4745 69.3428C55.7972 70.3321 56.1644 71.454 55.7807 72.1663C55.7048 72.3057 55.6004 72.4277 55.4742 72.5242C55.3481 72.6208 55.203 72.6898 55.0485 72.7267C54.202 72.9491 53.4374 71.8111 52.7063 70.4576C52.7831 73.0655 52.625 75.0466 51.4876 75.1602C51.3522 75.1756 51.215 75.1623 51.0849 75.1214C50.9549 75.0804 50.8349 75.0127 50.7328 74.9225C50.3416 74.5818 50.1305 73.8846 50.0031 72.9091C49.768 74.3863 49.4484 75.1837 48.5728 75.1837ZM47.8109 68.8047C47.551 71.532 47.7442 73.7707 48.2928 74.3798C48.3231 74.4206 48.3622 74.454 48.4071 74.4777C48.4521 74.5013 48.5018 74.5146 48.5526 74.5165H48.5611C49.1558 74.5165 49.3126 73.2215 49.5718 71.0817C49.6336 70.5703 49.7038 69.9912 49.7878 69.3692C49.7989 69.2864 49.8407 69.2109 49.905 69.1574C49.9692 69.104 50.0511 69.0766 50.1346 69.0806C50.2181 69.0846 50.297 69.1197 50.3559 69.179C50.4147 69.2383 50.4491 69.3175 50.4522 69.401C50.5413 71.7369 50.6253 73.9432 51.172 74.4191C51.2052 74.4496 51.2448 74.4723 51.2879 74.4855C51.331 74.4987 51.3765 74.5021 51.4211 74.4954C51.5283 74.4843 51.8885 74.3287 52.0128 72.7652C52.1057 71.5958 52.0286 70.0317 51.9775 68.9969C51.9738 68.9209 51.9961 68.846 52.0409 68.7845C52.0856 68.723 52.1501 68.6786 52.2235 68.6587C52.297 68.6388 52.375 68.6446 52.4448 68.675C52.5145 68.7055 52.5717 68.7589 52.6069 68.8263C52.6757 68.9581 52.7461 69.0943 52.8177 69.2328C53.1865 69.9463 53.6045 70.755 54.0094 71.3323C54.5457 72.0975 54.8067 72.0993 54.8744 72.0817C54.9412 72.0684 55.0042 72.0408 55.059 72.0006C55.1139 71.9605 55.1594 71.9089 55.1922 71.8493C55.4402 71.3886 55.1069 70.3686 54.8393 69.5489C54.7849 69.3822 54.7321 69.2206 54.6848 69.0672C53.9222 66.5865 54.7243 65.5384 55.5735 64.4288C55.7571 64.189 55.9469 63.9409 56.1289 63.6701C56.6549 62.8821 56.6548 61.6898 56.1289 60.1241L50.5461 59.6723C50.3299 60.2091 49.8264 61.5153 49.3253 62.8654L47.8109 68.8047Z" fill="#222433"/>
<path d="M54.1869 52.4766C54.1869 52.4766 52.7068 58.2013 51.3492 63.9371C51.2824 64.215 51.2156 64.504 51.1489 64.7819C49.947 69.8841 48.8564 74.8863 48.9009 75.9201L48.8008 98.5522L48.8342 102.943H65.6269V79.1437L65.6046 78.5879L68.9431 83.4456L73.7951 103.61L90.0759 99.2858L84.8011 77.3318C84.5245 76.1598 84.0135 75.0557 83.2987 74.086L77.946 66.9495L71.8922 58.8905L70.8795 57.5454L54.1869 52.4766Z" fill="white"/>
<path d="M73.7968 103.945C73.7218 103.945 73.649 103.92 73.5901 103.873C73.5312 103.827 73.4897 103.762 73.4722 103.689L68.6349 83.5849L65.9625 79.6967V102.944C65.9625 103.033 65.9274 103.118 65.8648 103.18C65.8022 103.243 65.7172 103.278 65.6287 103.278H48.836C48.7479 103.278 48.6634 103.243 48.6008 103.181C48.5383 103.119 48.5028 103.035 48.5021 102.947L48.4688 98.5561L48.5689 75.9273C48.5256 74.7563 49.7715 69.1825 50.8257 64.7069C50.8591 64.5671 50.8925 64.4257 50.9259 64.2845C50.9593 64.1433 50.9927 64.0002 51.026 63.8607C52.3688 58.1883 53.8503 52.4519 53.8652 52.3947C53.8765 52.3511 53.8964 52.3103 53.9239 52.2747C53.9513 52.239 53.9857 52.2093 54.025 52.1873C54.0642 52.1652 54.1076 52.1514 54.1523 52.1465C54.1971 52.1416 54.2424 52.1458 54.2854 52.1589L70.978 57.2278C71.0458 57.2483 71.1052 57.2899 71.1478 57.3464L72.1605 58.6914L78.2143 66.7505L83.5671 73.8869C84.3102 74.8929 84.841 76.0391 85.1272 77.2562L90.402 99.2088C90.4224 99.2935 90.4088 99.3827 90.3642 99.4575C90.3195 99.5323 90.2474 99.5867 90.1632 99.609L73.8824 103.933C73.8545 103.941 73.8257 103.945 73.7968 103.945ZM65.6063 78.2558C65.6605 78.2558 65.7139 78.269 65.7618 78.2941C65.8097 78.3193 65.8508 78.3558 65.8815 78.4003L69.22 83.258C69.2431 83.2918 69.2599 83.3294 69.2695 83.3692L74.0416 103.201L89.677 99.0487L84.4783 77.4111C84.2129 76.282 83.7207 75.2184 83.0316 74.285L77.6806 67.1509L71.6268 59.0918L70.6799 57.834L54.4251 52.8986C54.0886 54.2102 52.8307 59.1361 51.6758 64.0155C51.6424 64.155 51.6091 64.2963 51.5757 64.4379C51.5423 64.5795 51.5089 64.7223 51.4755 64.8616C49.9955 71.1446 49.2003 75.068 49.2365 75.9078C49.2365 75.9129 49.2365 75.9183 49.2365 75.9236L49.1363 98.5557L49.1673 102.611H65.2948V79.152L65.2726 78.6029C65.2708 78.558 65.2781 78.5131 65.294 78.4711C65.31 78.4291 65.3343 78.3907 65.3655 78.3583C65.3967 78.3259 65.4341 78.3001 65.4755 78.2826C65.5169 78.265 65.5614 78.2559 65.6064 78.2559L65.6063 78.2558Z" fill="#222433"/>
<path d="M64.7837 113.558L64.7948 102.965H50.595C49.6157 105.644 47.2009 107.056 44.3075 107.7C41.7591 108.267 40.1343 110.702 40.3235 113.447V113.569L56.6489 113.558L59.3419 108.967L59.2863 113.558H64.7837Z" fill="white"/>
<path d="M40.3252 113.904C40.2367 113.904 40.1518 113.869 40.0892 113.807C40.0266 113.744 39.9914 113.659 39.9914 113.571V113.46C39.7944 110.525 41.5782 107.967 44.2366 107.376C47.4099 106.669 49.4447 105.147 50.2831 102.852C50.3066 102.788 50.3493 102.732 50.4054 102.693C50.4615 102.654 50.5283 102.633 50.5967 102.633H64.7965C64.8851 102.633 64.97 102.668 65.0326 102.73C65.0952 102.793 65.1304 102.878 65.1304 102.966L65.1193 113.56C65.1193 113.648 65.0841 113.733 65.0215 113.796C64.9589 113.858 64.874 113.893 64.7854 113.893H59.288C59.2438 113.893 59.2001 113.885 59.1593 113.868C59.1185 113.85 59.0816 113.826 59.0505 113.794C59.0194 113.763 58.9949 113.726 58.9784 113.685C58.9619 113.644 58.9536 113.6 58.9541 113.556L58.9945 110.224L56.9386 113.728C56.9091 113.779 56.8671 113.82 56.8166 113.849C56.7662 113.878 56.709 113.893 56.6508 113.893L40.3255 113.904L40.3252 113.904ZM50.8262 103.3C49.8588 105.7 47.6922 107.29 44.382 108.027C42.1007 108.535 40.5548 110.709 40.6484 113.237L56.4593 113.226L59.0559 108.8C59.0931 108.737 59.1503 108.688 59.2185 108.66C59.2868 108.632 59.3623 108.628 59.4332 108.648C59.5042 108.667 59.5666 108.71 59.6108 108.769C59.6551 108.828 59.6786 108.899 59.6777 108.973L59.6261 113.226H64.452L64.4626 103.3L50.8262 103.3Z" fill="#222433"/>
<path d="M88.3626 99.7305C88.7855 102.109 90.2767 103.532 92.9364 103.021L97.9108 102.243C100.47 101.765 102.896 103.154 103.798 105.733L103.842 105.855L87.7728 113.548L79.9607 108.957L80.0164 113.548H74.5189L74.5078 103.399L88.3626 99.7305Z" fill="white"/>
<path d="M87.7748 113.882C87.7152 113.882 87.6567 113.866 87.6054 113.836L80.3035 109.546L80.352 113.545C80.3526 113.589 80.3443 113.633 80.3278 113.674C80.3112 113.715 80.2867 113.752 80.2557 113.784C80.2246 113.815 80.1876 113.84 80.1469 113.857C80.1061 113.874 80.0624 113.883 80.0182 113.883H74.5208C74.4322 113.883 74.3473 113.847 74.2847 113.785C74.2221 113.722 74.1869 113.638 74.1869 113.549L74.1758 103.4C74.1758 103.327 74.2001 103.255 74.245 103.197C74.2899 103.139 74.3529 103.097 74.4241 103.078L88.2789 99.4096C88.3235 99.3978 88.3701 99.3953 88.4158 99.4024C88.4614 99.4095 88.5051 99.426 88.544 99.4508C88.583 99.4756 88.6163 99.5082 88.642 99.5466C88.6677 99.5849 88.6851 99.6282 88.6932 99.6736C88.9079 100.881 89.4096 101.786 90.1444 102.29C90.8455 102.772 91.7645 102.908 92.8751 102.695L92.8862 102.693L97.8606 101.915C100.596 101.404 103.172 102.929 104.115 105.625L104.158 105.743C104.186 105.821 104.184 105.906 104.153 105.983C104.122 106.059 104.063 106.122 103.988 106.157L87.919 113.85C87.874 113.871 87.8247 113.882 87.7748 113.882ZM74.8547 113.215H79.6803L79.6287 108.962C79.628 108.903 79.643 108.845 79.6722 108.793C79.7014 108.742 79.7438 108.699 79.795 108.67C79.8462 108.64 79.9044 108.624 79.9635 108.625C80.0227 108.625 80.0808 108.641 80.1318 108.671L87.7908 113.171L103.426 105.687C102.549 103.406 100.331 102.131 97.9732 102.572L92.9954 103.351C91.7056 103.598 90.6187 103.426 89.766 102.839C88.9576 102.284 88.3885 101.357 88.1078 100.144L74.8438 103.657L74.8547 113.215Z" fill="#222433"/>
<path d="M50.0145 109.738C49.8595 109.738 49.7063 109.707 49.5645 109.644C49.4226 109.582 49.2954 109.491 49.191 109.377C49.0724 109.248 48.9844 109.095 48.9333 108.927C48.8822 108.76 48.8693 108.584 48.8957 108.411L49.3806 104.961L45.3926 105.433C45.1431 105.457 44.8926 105.397 44.6812 105.263C44.4698 105.128 44.3097 104.927 44.2265 104.691L44.2021 104.618C44.1291 104.415 44.1134 104.195 44.1567 103.983C44.2 103.772 44.3006 103.576 44.4476 103.417C44.5808 103.269 44.7527 103.161 44.944 103.105C45.1352 103.05 45.3383 103.048 45.5303 103.101L49.8684 104.257C49.9256 104.273 49.9777 104.303 50.0194 104.345C50.0611 104.387 50.0909 104.439 50.1057 104.496L51.085 108.275C51.1273 108.444 51.1324 108.621 51.1001 108.792C51.0677 108.963 50.9987 109.125 50.8976 109.267C50.8048 109.399 50.6847 109.509 50.5455 109.59C50.4063 109.671 50.2512 109.721 50.0909 109.736C50.0656 109.737 50.0405 109.738 50.0145 109.738ZM49.8736 106.258L49.5577 108.505V108.508C49.5461 108.582 49.5513 108.658 49.573 108.73C49.5948 108.803 49.6325 108.869 49.6834 108.924C49.7257 108.974 49.7792 109.014 49.8395 109.039C49.8998 109.065 49.9653 109.076 50.0308 109.072C50.0962 109.067 50.1596 109.048 50.2161 109.015C50.2725 108.981 50.3203 108.935 50.3556 108.88C50.4006 108.817 50.4313 108.744 50.4457 108.668C50.46 108.592 50.4577 108.514 50.4389 108.438L49.8736 106.258ZM45.2442 103.73C45.1862 103.731 45.1291 103.744 45.0763 103.769C45.0236 103.793 44.9764 103.827 44.9376 103.87C44.8732 103.941 44.8295 104.027 44.8111 104.121C44.7927 104.214 44.8004 104.311 44.8333 104.401L44.8579 104.474C44.8917 104.567 44.9556 104.647 45.0396 104.701C45.1236 104.754 45.223 104.779 45.3223 104.77L48.0088 104.452L45.3566 103.746C45.3199 103.735 45.2821 103.73 45.2442 103.73Z" fill="#222433"/>
<path d="M71.0722 86.2814C71.0239 86.2814 70.9761 86.271 70.9323 86.2508C70.8884 86.2306 70.8495 86.2011 70.8181 86.1644L68.6815 83.6633C68.624 83.596 68.5956 83.5086 68.6026 83.4205C68.6096 83.3323 68.6513 83.2505 68.7187 83.1931C68.786 83.1357 68.8735 83.1073 68.9617 83.1143C69.05 83.1213 69.1319 83.163 69.1894 83.2303L71.326 85.7314C71.3674 85.7799 71.3941 85.8392 71.4028 85.9023C71.4116 85.9654 71.402 86.0297 71.3753 86.0876C71.3486 86.1455 71.3058 86.1945 71.2521 86.2288C71.1983 86.2632 71.1359 86.2814 71.0721 86.2814H71.0722Z" fill="#222433"/>
<path d="M92.5594 108.261C92.3969 108.261 92.2358 108.23 92.0847 108.171C91.8948 108.095 91.7236 107.978 91.5828 107.83C91.4421 107.681 91.335 107.504 91.2691 107.311L89.7639 102.898C89.7485 102.852 89.743 102.804 89.7478 102.757C89.7526 102.709 89.7677 102.663 89.792 102.622L91.5582 99.6149C91.6652 99.4291 91.8165 99.2727 91.9987 99.1596C92.1809 99.0465 92.3883 98.9802 92.6023 98.9666C92.8227 98.9554 93.0424 98.998 93.2425 99.0906C93.4427 99.1833 93.6172 99.3232 93.7511 99.4983C93.8784 99.6586 93.9684 99.8453 94.0146 100.045C94.0608 100.244 94.062 100.451 94.0182 100.651C93.9778 100.845 93.8946 101.028 93.7747 101.186C93.6547 101.344 93.501 101.474 93.3247 101.565L91.0074 102.758L93.676 105.888C93.8155 106.052 93.9163 106.244 93.971 106.451C94.0258 106.659 94.0329 106.876 93.9921 107.086C93.9564 107.285 93.8764 107.474 93.7578 107.637C93.6392 107.801 93.4852 107.936 93.3072 108.032L93.1608 108.112C92.9754 108.21 92.769 108.261 92.5594 108.261ZM90.6157 103.327L91.9001 107.093C91.9346 107.196 91.9907 107.289 92.0646 107.368C92.1386 107.447 92.2286 107.509 92.3287 107.55C92.4115 107.584 92.5006 107.599 92.5898 107.594C92.679 107.59 92.7662 107.566 92.8452 107.524L92.9904 107.445C93.0807 107.396 93.1587 107.327 93.2186 107.243C93.2784 107.16 93.3186 107.064 93.3362 106.962C93.3582 106.85 93.3545 106.734 93.3253 106.623C93.2962 106.512 93.2424 106.409 93.1679 106.321L90.6157 103.327ZM92.6838 99.6313C92.6705 99.6313 92.6571 99.6313 92.6437 99.6325C92.5386 99.64 92.4369 99.6734 92.3477 99.7296C92.2586 99.7859 92.1847 99.8633 92.1327 99.9549L90.8918 102.067L93.0194 100.973C93.1078 100.926 93.1848 100.861 93.2447 100.781C93.3046 100.701 93.3459 100.609 93.3658 100.512C93.3888 100.408 93.3883 100.3 93.3643 100.196C93.3403 100.092 93.2934 99.9948 93.2271 99.9113C93.1642 99.826 93.0825 99.7564 92.9883 99.7078C92.8941 99.6593 92.7899 99.6331 92.6839 99.6313H92.6838Z" fill="#222433"/>
<path d="M54.4006 92.8615C54.9476 92.8615 55.391 92.4185 55.391 91.8721C55.391 91.3257 54.9476 90.8828 54.4006 90.8828C53.8536 90.8828 53.4102 91.3257 53.4102 91.8721C53.4102 92.4185 53.8536 92.8615 54.4006 92.8615Z" fill="#82B1FF"/>
<path d="M50.4514 87.9162C50.9984 87.9162 51.4418 87.4732 51.4418 86.9268C51.4418 86.3804 50.9984 85.9375 50.4514 85.9375C49.9044 85.9375 49.4609 86.3804 49.4609 86.9268C49.4609 87.4732 49.9044 87.9162 50.4514 87.9162Z" fill="#82B1FF"/>
<path d="M64.5295 91.1388C65.0765 91.1388 65.5199 90.6959 65.5199 90.1495C65.5199 89.6031 65.0765 89.1602 64.5295 89.1602C63.9825 89.1602 63.5391 89.6031 63.5391 90.1495C63.5391 90.6959 63.9825 91.1388 64.5295 91.1388Z" fill="#82B1FF"/>
<path d="M61.2561 86.0607C61.8031 86.0607 62.2465 85.6177 62.2465 85.0713C62.2465 84.525 61.8031 84.082 61.2561 84.082C60.7091 84.082 60.2656 84.525 60.2656 85.0713C60.2656 85.6177 60.7091 86.0607 61.2561 86.0607Z" fill="#82B1FF"/>
<path d="M60.2374 91.3974C60.6507 91.0394 60.6952 90.4146 60.3368 90.0018C59.9784 89.5891 59.3529 89.5446 58.9396 89.9026C58.5264 90.2606 58.4819 90.8854 58.8403 91.2982C59.1987 91.711 59.8242 91.7554 60.2374 91.3974Z" fill="#82B1FF"/>
<path d="M55.6936 87.2052C56.2406 87.2052 56.684 86.7623 56.684 86.2159C56.684 85.6695 56.2406 85.2266 55.6936 85.2266C55.1466 85.2266 54.7031 85.6695 54.7031 86.2159C54.7031 86.7623 55.1466 87.2052 55.6936 87.2052Z" fill="#82B1FF"/>
<path d="M51.842 82.2794C52.389 82.2794 52.8324 81.8365 52.8324 81.2901C52.8324 80.7437 52.389 80.3008 51.842 80.3008C51.295 80.3008 50.8516 80.7437 50.8516 81.2901C50.8516 81.8365 51.295 82.2794 51.842 82.2794Z" fill="#82B1FF"/>
<path d="M57.6076 81.4122C58.1546 81.4122 58.598 80.9693 58.598 80.4229C58.598 79.8765 58.1546 79.4336 57.6076 79.4336C57.0606 79.4336 56.6172 79.8765 56.6172 80.4229C56.6172 80.9693 57.0606 81.4122 57.6076 81.4122Z" fill="#82B1FF"/>
<path d="M53.5451 76.4786C54.0921 76.4786 54.5355 76.0357 54.5355 75.4893C54.5355 74.9429 54.0921 74.5 53.5451 74.5C52.9981 74.5 52.5547 74.9429 52.5547 75.4893C52.5547 76.0357 52.9981 76.4786 53.5451 76.4786Z" fill="#82B1FF"/>
<path d="M63.4474 80.6349C63.9944 80.6349 64.4379 80.1919 64.4379 79.6456C64.4379 79.0992 63.9944 78.6562 63.4474 78.6562C62.9005 78.6562 62.457 79.0992 62.457 79.6456C62.457 80.1919 62.9005 80.6349 63.4474 80.6349Z" fill="#82B1FF"/>
<path d="M60.1896 75.4904C60.7366 75.4904 61.1801 75.0474 61.1801 74.501C61.1801 73.9547 60.7366 73.5117 60.1896 73.5117C59.6426 73.5117 59.1992 73.9547 59.1992 74.501C59.1992 75.0474 59.6426 75.4904 60.1896 75.4904Z" fill="#82B1FF"/>
<path d="M55.8264 70.4318C56.3734 70.4318 56.8168 69.9889 56.8168 69.4425C56.8168 68.8961 56.3734 68.4531 55.8264 68.4531C55.2794 68.4531 54.8359 68.8961 54.8359 69.4425C54.8359 69.9889 55.2794 70.4318 55.8264 70.4318Z" fill="#82B1FF"/>
<path d="M50.4524 68.3506C50.5779 68.2925 50.7146 68.2622 50.853 68.2617C51.1157 68.2617 51.3676 68.366 51.5533 68.5515C51.7391 68.737 51.8434 68.9887 51.8434 69.251C51.8434 69.5134 51.7391 69.7651 51.5533 69.9506C51.3676 70.1361 51.1157 70.2404 50.853 70.2404C50.6785 70.2409 50.507 70.1948 50.3563 70.1069C50.2056 70.0189 50.0813 69.8923 49.9961 69.7401" fill="#82B1FF"/>
<path d="M64.0061 96.6192C64.5531 96.6192 64.9965 96.1763 64.9965 95.6299C64.9965 95.0836 64.5531 94.6406 64.0061 94.6406C63.4591 94.6406 63.0156 95.0836 63.0156 95.6299C63.0156 96.1763 63.4591 96.6192 64.0061 96.6192Z" fill="#82B1FF"/>
<path d="M59.7492 96.9912C60.1624 96.6332 60.2069 96.0084 59.8485 95.5956C59.4901 95.1828 58.8646 95.1384 58.4514 95.4963C58.0381 95.8543 57.9937 96.4792 58.352 96.892C58.7104 97.3047 59.3359 97.3492 59.7492 96.9912Z" fill="#82B1FF"/>
<path d="M59.2492 101.847C59.6624 101.489 59.7069 100.864 59.3485 100.451C58.9901 100.038 58.3646 99.9938 57.9514 100.352C57.5381 100.71 57.4936 101.335 57.852 101.747C58.2104 102.16 58.8359 102.205 59.2492 101.847Z" fill="#82B1FF"/>
<path d="M53.9553 97.9982C54.5023 97.9982 54.9457 97.5552 54.9457 97.0088C54.9457 96.4625 54.5023 96.0195 53.9553 96.0195C53.4083 96.0195 52.9648 96.4625 52.9648 97.0088C52.9648 97.5552 53.4083 97.9982 53.9553 97.9982Z" fill="#82B1FF"/>
<path d="M53.4123 103.135C53.9593 103.135 54.4027 102.692 54.4027 102.146C54.4027 101.599 53.9593 101.156 53.4123 101.156C52.8653 101.156 52.4219 101.599 52.4219 102.146C52.4219 102.692 52.8653 103.135 53.4123 103.135Z" fill="#82B1FF"/>
<path d="M48.9258 97.6523C49.1885 97.6523 49.4404 97.7566 49.6261 97.9421C49.8119 98.1276 49.9162 98.3793 49.9162 98.6417C49.9162 98.9041 49.8119 99.1557 49.6261 99.3412C49.4404 99.5268 49.1885 99.631 48.9258 99.631" fill="#82B1FF"/>
<path d="M49.207 91.4414C49.4697 91.4414 49.7216 91.5456 49.9074 91.7312C50.0931 91.9167 50.1975 92.1683 50.1975 92.4307C50.1975 92.6931 50.0931 92.9447 49.9074 93.1303C49.7216 93.3158 49.4697 93.42 49.207 93.42" fill="#82B1FF"/>
<path d="M63.5373 102.1C64.0843 102.1 64.5277 101.657 64.5277 101.11C64.5277 100.564 64.0843 100.121 63.5373 100.121C62.9903 100.121 62.5469 100.564 62.5469 101.11C62.5469 101.657 62.9903 102.1 63.5373 102.1Z" fill="#82B1FF"/>
<path d="M78.2834 90.7521C78.8304 90.7521 79.2738 90.3092 79.2738 89.7628C79.2738 89.2164 78.8304 88.7734 78.2834 88.7734C77.7364 88.7734 77.293 89.2164 77.293 89.7628C77.293 90.3092 77.7364 90.7521 78.2834 90.7521Z" fill="#82B1FF"/>
<path d="M74.3342 85.8028C74.8812 85.8028 75.3246 85.3599 75.3246 84.8135C75.3246 84.2671 74.8812 83.8242 74.3342 83.8242C73.7872 83.8242 73.3438 84.2671 73.3438 84.8135C73.3438 85.3599 73.7872 85.8028 74.3342 85.8028Z" fill="#82B1FF"/>
<path d="M85.1389 83.9474C85.6859 83.9474 86.1293 83.5045 86.1293 82.9581C86.1293 82.4117 85.6859 81.9688 85.1389 81.9688C84.5919 81.9688 84.1484 82.4117 84.1484 82.9581C84.1484 83.5045 84.5919 83.9474 85.1389 83.9474Z" fill="#82B1FF"/>
<path d="M83.4592 89.5412C84.0062 89.5412 84.4496 89.0982 84.4496 88.5518C84.4496 88.0054 84.0062 87.5625 83.4592 87.5625C82.9122 87.5625 82.4688 88.0054 82.4688 88.5518C82.4688 89.0982 82.9122 89.5412 83.4592 89.5412Z" fill="#82B1FF"/>
<path d="M79.5725 85.0919C80.1195 85.0919 80.5629 84.649 80.5629 84.1026C80.5629 83.5562 80.1195 83.1133 79.5725 83.1133C79.0255 83.1133 78.582 83.5562 78.582 84.1026C78.582 84.649 79.0255 85.0919 79.5725 85.0919Z" fill="#82B1FF"/>
<path d="M75.7248 80.17C76.2718 80.17 76.7152 79.7271 76.7152 79.1807C76.7152 78.6343 76.2718 78.1914 75.7248 78.1914C75.1778 78.1914 74.7344 78.6343 74.7344 79.1807C74.7344 79.7271 75.1778 80.17 75.7248 80.17Z" fill="#82B1FF"/>
<path d="M81.4787 79.3029C82.0257 79.3029 82.4691 78.8599 82.4691 78.3135C82.4691 77.7672 82.0257 77.3242 81.4787 77.3242C80.9317 77.3242 80.4883 77.7672 80.4883 78.3135C80.4883 78.8599 80.9317 79.3029 81.4787 79.3029Z" fill="#82B1FF"/>
<path d="M77.4162 74.3653C77.9632 74.3653 78.4066 73.9224 78.4066 73.376C78.4066 72.8297 77.9632 72.3867 77.4162 72.3867C76.8692 72.3867 76.4258 72.8297 76.4258 73.376C76.4258 73.9224 76.8692 74.3653 77.4162 74.3653Z" fill="#82B1FF"/>
<path d="M87.8967 94.5099C88.4437 94.5099 88.8871 94.067 88.8871 93.5206C88.8871 92.9742 88.4437 92.5312 87.8967 92.5312C87.3497 92.5312 86.9062 92.9742 86.9062 93.5206C86.9062 94.067 87.3497 94.5099 87.8967 94.5099Z" fill="#82B1FF"/>
<path d="M82.967 95.131C83.514 95.131 83.9574 94.6881 83.9574 94.1417C83.9574 93.5953 83.514 93.1523 82.967 93.1523C82.42 93.1523 81.9766 93.5953 81.9766 94.1417C81.9766 94.6881 82.42 95.131 82.967 95.131Z" fill="#82B1FF"/>
<path d="M82.467 99.9864C83.014 99.9864 83.4574 99.5435 83.4574 98.9971C83.4574 98.4507 83.014 98.0078 82.467 98.0078C81.92 98.0078 81.4766 98.4507 81.4766 98.9971C81.4766 99.5435 81.92 99.9864 82.467 99.9864Z" fill="#82B1FF"/>
<path d="M77.8381 95.8849C78.3851 95.8849 78.8285 95.4419 78.8285 94.8956C78.8285 94.3492 78.3851 93.9062 77.8381 93.9062C77.2911 93.9062 76.8477 94.3492 76.8477 94.8956C76.8477 95.4419 77.2911 95.8849 77.8381 95.8849Z" fill="#82B1FF"/>
<path d="M77.2912 101.022C77.8382 101.022 78.2816 100.579 78.2816 100.032C78.2816 99.4859 77.8382 99.043 77.2912 99.043C76.7442 99.043 76.3008 99.4859 76.3008 100.032C76.3008 100.579 76.7442 101.022 77.2912 101.022Z" fill="#82B1FF"/>
<path d="M72.7951 97.5333C73.3421 97.5333 73.7855 97.0904 73.7855 96.544C73.7855 95.9976 73.3421 95.5547 72.7951 95.5547C72.2481 95.5547 71.8047 95.9976 71.8047 96.544C71.8047 97.0904 72.2481 97.5333 72.7951 97.5333Z" fill="#82B1FF"/>
<path d="M73.0959 91.3185C73.6429 91.3185 74.0863 90.8756 74.0863 90.3292C74.0863 89.7828 73.6429 89.3398 73.0959 89.3398C72.5489 89.3398 72.1055 89.7828 72.1055 90.3292C72.1055 90.8756 72.5489 91.3185 73.0959 91.3185Z" fill="#82B1FF"/>
<path d="M87.4201 99.9864C87.9671 99.9864 88.4105 99.5435 88.4105 98.9971C88.4105 98.4507 87.9671 98.0078 87.4201 98.0078C86.8731 98.0078 86.4297 98.4507 86.4297 98.9971C86.4297 99.5435 86.8731 99.9864 87.4201 99.9864Z" fill="#82B1FF"/>
<path d="M62.9475 66.7755C63.4944 66.7755 63.9379 66.3326 63.9379 65.7862C63.9379 65.2398 63.4944 64.7969 62.9475 64.7969C62.4005 64.7969 61.957 65.2398 61.957 65.7862C61.957 66.3326 62.4005 66.7755 62.9475 66.7755Z" fill="#82B1FF"/>
<path d="M59.7028 61.5241C60.0676 61.1171 60.033 60.4916 59.6255 60.1272C59.218 59.7628 58.5919 59.7973 58.227 60.2044C57.8622 60.6114 57.8968 61.2368 58.3043 61.6013C58.7118 61.9657 59.3379 61.9312 59.7028 61.5241Z" fill="#82B1FF"/>
<path d="M69.7912 59.9708C70.3382 59.9708 70.7816 59.5279 70.7816 58.9815C70.7816 58.4351 70.3382 57.9922 69.7912 57.9922C69.2442 57.9922 68.8008 58.4351 68.8008 58.9815C68.8008 59.5279 69.2442 59.9708 69.7912 59.9708Z" fill="#82B1FF"/>
<path d="M68.1115 65.5607C68.6585 65.5607 69.102 65.1177 69.102 64.5713C69.102 64.025 68.6585 63.582 68.1115 63.582C67.5645 63.582 67.1211 64.025 67.1211 64.5713C67.1211 65.1177 67.5645 65.5607 68.1115 65.5607Z" fill="#82B1FF"/>
<path d="M64.2287 61.1153C64.7757 61.1153 65.2191 60.6724 65.2191 60.126C65.2191 59.5796 64.7757 59.1367 64.2287 59.1367C63.6817 59.1367 63.2383 59.5796 63.2383 60.126C63.2383 60.6724 63.6817 61.1153 64.2287 61.1153Z" fill="#82B1FF"/>
<path d="M60.3889 56.1896C60.9359 56.1896 61.3793 55.7466 61.3793 55.2003C61.3793 54.6539 60.9359 54.2109 60.3889 54.2109C59.8419 54.2109 59.3984 54.6539 59.3984 55.2003C59.3984 55.7466 59.8419 56.1896 60.3889 56.1896Z" fill="#82B1FF"/>
<path d="M72.5529 70.5294C73.0999 70.5294 73.5434 70.0865 73.5434 69.5401C73.5434 68.9937 73.0999 68.5508 72.5529 68.5508C72.0059 68.5508 71.5625 68.9937 71.5625 69.5401C71.5625 70.0865 72.0059 70.5294 72.5529 70.5294Z" fill="#82B1FF"/>
<path d="M78.8402 67.5753C78.8402 67.7709 78.7821 67.9622 78.6733 68.1249C78.5645 68.2876 78.4098 68.4144 78.2288 68.4893C78.0478 68.5642 77.8487 68.5838 77.6566 68.5456C77.4645 68.5074 77.288 68.4132 77.1495 68.2748C77.011 68.1365 76.9166 67.9602 76.8784 67.7683C76.8402 67.5764 76.8598 67.3774 76.9348 67.1967C77.0097 67.0159 77.1367 66.8614 77.2996 66.7527C77.4624 66.644 77.6539 66.5859 77.8498 66.5859" fill="#82B1FF"/>
<path d="M73.7873 63.8067C74.3343 63.8067 74.7777 63.3638 74.7777 62.8174C74.7777 62.2711 74.3343 61.8281 73.7873 61.8281C73.2403 61.8281 72.7969 62.2711 72.7969 62.8174C72.7969 63.3638 73.2403 63.8067 73.7873 63.8067Z" fill="#82B1FF"/>
<path d="M55.4709 56.6583C56.0179 56.6583 56.4613 56.2154 56.4613 55.669C56.4613 55.1226 56.0179 54.6797 55.4709 54.6797C54.9239 54.6797 54.4805 55.1226 54.4805 55.669C54.4805 56.2154 54.9239 56.6583 55.4709 56.6583Z" fill="#82B1FF"/>
<path d="M67.6232 71.1544C68.1702 71.1544 68.6137 70.7115 68.6137 70.1651C68.6137 69.6187 68.1702 69.1758 67.6232 69.1758C67.0762 69.1758 66.6328 69.6187 66.6328 70.1651C66.6328 70.7115 67.0762 71.1544 67.6232 71.1544Z" fill="#82B1FF"/>
<path d="M61.9475 71.131C62.4945 71.131 62.9379 70.6881 62.9379 70.1417C62.9379 69.5953 62.4945 69.1523 61.9475 69.1523C61.4005 69.1523 60.957 69.5953 60.957 70.1417C60.957 70.6881 61.4005 71.131 61.9475 71.131Z" fill="#82B1FF"/>
<path d="M69.7912 80.9786C70.3382 80.9786 70.7816 80.5357 70.7816 79.9893C70.7816 79.4429 70.3382 79 69.7912 79C69.2442 79 68.8008 79.4429 68.8008 79.9893C68.8008 80.5357 69.2442 80.9786 69.7912 80.9786Z" fill="#82B1FF"/>
<path d="M66.1193 76.4786C66.6663 76.4786 67.1097 76.0357 67.1097 75.4893C67.1097 74.9429 66.6663 74.5 66.1193 74.5C65.5723 74.5 65.1289 74.9429 65.1289 75.4893C65.1289 76.0357 65.5723 76.4786 66.1193 76.4786Z" fill="#82B1FF"/>
<path d="M54.1232 64.5411C54.6702 64.5411 55.1137 64.0982 55.1137 63.5518C55.1137 63.0054 54.6702 62.5625 54.1232 62.5625C53.5762 62.5625 53.1328 63.0054 53.1328 63.5518C53.1328 64.0982 53.5762 64.5411 54.1232 64.5411Z" fill="#82B1FF"/>
<path d="M72.0725 76.0099C72.6194 76.0099 73.0629 75.5669 73.0629 75.0206C73.0629 74.4742 72.6194 74.0312 72.0725 74.0312C71.5255 74.0312 71.082 74.4742 71.082 75.0206C71.082 75.5669 71.5255 76.0099 72.0725 76.0099Z" fill="#82B1FF"/>
<path d="M73.8086 103.936C73.7336 103.936 73.6608 103.911 73.602 103.865C73.5431 103.818 73.5015 103.754 73.484 103.681L68.6466 83.5765L65.9743 79.6883V102.947C65.9743 103.036 65.9391 103.12 65.8765 103.183C65.8139 103.245 65.729 103.281 65.6404 103.281H48.8477C48.7596 103.281 48.6751 103.246 48.6125 103.184C48.55 103.122 48.5145 103.038 48.5139 102.95L48.4805 98.5589L48.5806 75.9305C48.4924 73.6102 53.5926 53.3824 53.81 52.5215C53.8209 52.4779 53.8406 52.4371 53.8678 52.4013C53.895 52.3655 53.9292 52.3356 53.9682 52.3134C54.0073 52.2911 54.0505 52.277 54.0951 52.2718C54.1398 52.2666 54.185 52.2705 54.2282 52.2832L70.9875 57.2186C71.0563 57.2389 71.1167 57.2808 71.1599 57.338L72.1725 58.6831L78.2264 66.7421L83.5791 73.8786C84.3222 74.8845 84.853 76.0308 85.1391 77.2478L90.4139 99.2005C90.4343 99.2852 90.4207 99.3744 90.3761 99.4492C90.3314 99.524 90.2593 99.5783 90.175 99.6007L73.8942 103.925C73.8663 103.932 73.8375 103.936 73.8086 103.936ZM65.6182 78.2475C65.6723 78.2474 65.7257 78.2606 65.7737 78.2858C65.8217 78.3109 65.8628 78.3474 65.8935 78.392L69.232 83.2497C69.2551 83.2834 69.2718 83.3211 69.2813 83.3608L74.0534 103.193L89.6887 99.0403L84.4899 77.4027C84.2246 76.2736 83.7324 75.2101 83.0432 74.2768L77.6921 67.1425L71.6383 59.0835L70.6924 57.8274L54.3726 53.0212C52.5176 60.3834 49.172 74.1898 49.248 75.9096C49.248 75.9149 49.248 75.9207 49.248 75.9258L49.1478 98.5579L49.1788 102.614H65.3066V79.1437L65.2843 78.5946C65.2825 78.5497 65.2898 78.5049 65.3057 78.4629C65.3217 78.4209 65.346 78.3825 65.3772 78.3501C65.4084 78.3177 65.4458 78.2919 65.4872 78.2743C65.5286 78.2567 65.5732 78.2477 65.6182 78.2477V78.2475Z" fill="#222433"/>
<path d="M51.8431 63.8923C51.8886 64.4977 51.77 65.1041 51.4998 65.6479C51.2296 66.1917 50.8177 66.6527 50.3074 66.9825C49.8092 67.2799 49.3682 67.6639 49.0054 68.1163C47.5698 69.9949 47.1915 69.8282 46.6462 69.7504C45.3775 69.5614 48.6048 64.1257 49.7287 61.1133" fill="white"/>
<path d="M47.0199 70.1246C46.9037 70.123 46.7879 70.1125 46.6733 70.0933L46.597 70.0822C46.4966 70.0693 46.4007 70.0324 46.3176 69.9747C46.2344 69.917 46.1664 69.8402 46.1191 69.7507C45.7342 69.0296 46.5469 67.2406 47.9049 64.3817C48.471 63.1884 49.0571 61.9552 49.4141 60.9981C49.4451 60.9153 49.5078 60.8481 49.5884 60.8113C49.669 60.7746 49.7609 60.7714 49.8439 60.8023C49.9268 60.8333 49.9941 60.8959 50.0309 60.9764C50.0676 61.0569 50.0709 61.1487 50.0399 61.2316C49.6726 62.2156 49.0807 63.462 48.5082 64.6673C47.9831 65.773 47.4398 66.9162 47.0885 67.8218C46.6211 69.0263 46.6755 69.3531 46.7019 69.4234L46.7745 69.4345C47.1763 69.4962 47.4936 69.5446 48.7383 67.9158C49.1247 67.4332 49.5937 67.023 50.1237 66.7042C50.5829 66.4059 50.9537 65.99 51.1972 65.4998C51.4408 65.0097 51.5482 64.4633 51.5084 63.9175C51.502 63.8293 51.531 63.7422 51.589 63.6753C51.647 63.6084 51.7292 63.5673 51.8175 63.561C51.9058 63.5546 51.993 63.5836 52.06 63.6415C52.1269 63.6994 52.1681 63.7815 52.1744 63.8697C52.2228 64.5345 52.0918 65.2 51.7951 65.7969C51.4984 66.3939 51.0468 66.9004 50.4874 67.2637C50.0215 67.5407 49.6088 67.8986 49.2687 68.3204C48.1222 69.8209 47.5686 70.1246 47.0199 70.1246Z" fill="#222433"/>
<path d="M39.4136 46.4857C39.2594 44.8461 39.6879 43.2046 40.6238 41.849C41.5598 40.4933 42.9436 39.51 44.5326 39.0713L57.9535 35.3808C59.9163 34.9126 61.9692 34.9817 63.896 35.5809L67.4014 36.6814L79.1975 41.8058L73.7112 53.7221L70.8624 57.5349L55.3383 52.8551L54.6831 52.6661L55.5831 47.2193L53.0211 47.6417L54.6831 52.6661L51.8529 63.7976L41.5281 50.0872C40.6712 48.9645 39.7476 47.864 39.4137 46.4857H39.4136Z" fill="white"/>
<path d="M51.8515 64.1315C51.7997 64.1315 51.7485 64.1195 51.7022 64.0963C51.6558 64.0732 51.6155 64.0395 51.5844 63.9981L41.2598 50.2882C41.1806 50.1843 41.0994 50.079 41.0182 49.9736C40.226 48.9451 39.4066 47.8817 39.0876 46.5645C39.0839 46.5491 39.0813 46.5335 39.0798 46.5177C38.9165 44.7999 39.3645 43.0796 40.3452 41.659C41.3258 40.2385 42.7763 39.2086 44.4418 38.7505L57.8635 35.06C57.8673 35.0589 57.871 35.058 57.8746 35.057C59.8959 34.576 62.0095 34.6473 63.9936 35.2633L67.4998 36.3638C67.5111 36.3672 67.5222 36.3713 67.5331 36.376L79.3292 41.5004C79.3699 41.5181 79.4066 41.5438 79.4373 41.5758C79.4679 41.6079 79.4919 41.6457 79.5077 41.6871C79.5235 41.7285 79.531 41.7726 79.5295 41.8169C79.5281 41.8612 79.5178 41.9048 79.4994 41.9451L74.0131 53.8614C74.0033 53.8826 73.9913 53.9028 73.9774 53.9215L71.1285 57.7343C71.0875 57.7892 71.0305 57.8301 70.9654 57.8516C70.9003 57.873 70.8301 57.8739 70.7645 57.8541L55.2404 53.1743L54.9205 53.082L52.1751 63.8795C52.1595 63.9404 52.1271 63.9957 52.0815 64.0389C52.0359 64.0822 51.9789 64.1117 51.9172 64.1241C51.8956 64.1287 51.8736 64.1312 51.8515 64.1315ZM39.7423 46.4307C40.0316 47.5998 40.7682 48.5553 41.5474 49.5668C41.629 49.673 41.7106 49.7793 41.7922 49.8855L51.6994 63.0414L54.334 52.6791L52.7026 47.7473C52.6875 47.7016 52.6825 47.6531 52.6879 47.6053C52.6933 47.5574 52.709 47.5113 52.7339 47.4702C52.7589 47.429 52.7925 47.3937 52.8324 47.3667C52.8723 47.3397 52.9175 47.3216 52.9651 47.3137L55.5272 46.8908C55.5795 46.8821 55.6332 46.8861 55.6837 46.9023C55.7342 46.9185 55.7802 46.9465 55.8177 46.984C55.8552 47.0215 55.8832 47.0673 55.8995 47.1178C55.9157 47.1683 55.9197 47.2219 55.911 47.2742L55.0593 52.4286L55.4293 52.5352L70.7333 57.1484L73.4212 53.5516L78.7502 41.9763L67.283 36.9947L63.7944 35.8994C61.9268 35.32 59.9376 35.2526 58.035 35.7044L44.6197 39.3933C43.1095 39.8087 41.7936 40.7411 40.902 42.0276C40.0104 43.314 39.5999 44.8725 39.7423 46.4307ZM53.459 47.9081L54.573 51.2763L55.1763 47.625L53.459 47.9081Z" fill="#222433"/>
<path d="M68.4347 32.5146L66.3203 36.1828C66.0582 36.6394 65.9148 37.1544 65.9031 37.6806C65.8915 38.2068 66.0119 38.7275 66.2536 39.1953L66.376 39.4287C66.5691 39.7934 66.8326 40.1162 67.1513 40.3787C67.4699 40.6411 67.8374 40.838 68.2326 40.9578C68.6278 41.0777 69.0429 41.1183 69.4538 41.0771C69.8648 41.036 70.2635 40.914 70.627 40.7181C71.1213 40.4485 71.5358 40.0536 71.8289 39.5732L73.2422 37.2277C74.3739 37.2532 75.4764 36.867 76.3444 36.141C77.2124 35.4151 77.7867 34.3989 77.9606 33.2816C78.0214 32.8993 78.0327 32.5107 77.994 32.1255C77.9066 31.1564 77.5174 30.239 76.8812 29.5022C77.028 29.1574 77.129 28.7949 77.1816 28.4239C77.2373 27.8844 77.2373 27.3405 77.1816 26.801L71.9624 26.1562L70.6159 27.8348L69.1358 27.7792C67.1884 27.7125 66.1312 30.0135 67.4443 31.4474L68.4347 32.5146Z" fill="white"/>
<path d="M69.1431 41.4284C68.7995 41.4282 68.4578 41.377 68.1292 41.2766C67.6925 41.1448 67.2864 40.9274 66.9346 40.6372C66.5829 40.3469 66.2925 39.9896 66.0805 39.5861L65.9573 39.3513C65.6887 38.8343 65.5545 38.2581 65.5672 37.6757C65.58 37.0934 65.7391 36.5236 66.0301 36.0188L68.0221 32.5625L67.1986 31.6755C66.8613 31.3094 66.64 30.8519 66.5624 30.3604C66.4849 29.869 66.5546 29.3656 66.7628 28.9136C66.9709 28.4617 67.3083 28.0813 67.7323 27.8203C68.1564 27.5594 68.6483 27.4296 69.146 27.4472L70.4592 27.4966L71.7007 25.949C71.7363 25.9047 71.7827 25.8701 71.8355 25.8487C71.8882 25.8273 71.9456 25.8198 72.0021 25.8267L77.2213 26.4715C77.2962 26.4807 77.3657 26.515 77.4185 26.5688C77.4714 26.6225 77.5044 26.6926 77.5123 26.7675C77.571 27.3356 77.5704 27.9082 77.5103 28.4761C77.4627 28.8066 77.3801 29.1311 77.2639 29.4441C77.8705 30.2053 78.2396 31.1279 78.3254 32.097C78.3669 32.5105 78.3546 32.9276 78.2886 33.3379C78.1043 34.5001 77.5164 35.5604 76.6279 36.333C75.7394 37.1056 74.607 37.5412 73.4292 37.5634L72.1136 39.7466C71.7892 40.2771 71.3314 40.7135 70.7857 41.0124C70.281 41.2845 69.7167 41.4275 69.1431 41.4284ZM69.0548 28.1126C68.6942 28.113 68.3416 28.2182 68.0398 28.4154C67.7381 28.6126 67.5004 28.8933 67.3557 29.2232C67.211 29.5531 67.1656 29.9179 67.225 30.2731C67.2844 30.6284 67.446 30.9586 67.6902 31.2237L68.6791 32.2892C68.7275 32.3414 68.758 32.4078 68.766 32.4785C68.774 32.5493 68.7592 32.6207 68.7236 32.6824L66.6092 36.3507C66.3741 36.7585 66.2454 37.2189 66.235 37.6894C66.2246 38.1599 66.3328 38.6255 66.5497 39.0433L66.6713 39.2754C66.844 39.601 67.0794 39.8893 67.3642 40.1236C67.6489 40.3578 67.9772 40.5335 68.3302 40.6404C68.6832 40.7474 69.054 40.7834 69.421 40.7465C69.788 40.7097 70.1441 40.6006 70.4687 40.4256C70.9116 40.1848 71.2825 39.831 71.5437 39.4002L72.9557 37.0572C72.986 37.0066 73.0292 36.965 73.0809 36.9366C73.1326 36.9083 73.1909 36.8941 73.2498 36.8957C74.3002 36.9175 75.3229 36.5583 76.1283 35.8845C76.9338 35.2107 77.4674 34.2681 77.6303 33.2314C77.6872 32.8758 77.6976 32.5143 77.6612 32.156C77.5812 31.2562 77.2196 30.4045 76.6278 29.7216C76.5869 29.6741 76.5602 29.6161 76.5508 29.5542C76.5413 29.4922 76.5495 29.4289 76.5744 29.3714C76.7096 29.0535 76.8026 28.7192 76.8509 28.3772C76.8956 27.953 76.9022 27.5257 76.8706 27.1004L72.1059 26.5113L70.8759 28.0446C70.8435 28.0854 70.8018 28.118 70.7544 28.1397C70.7069 28.1614 70.655 28.1715 70.6028 28.1693L69.1228 28.1137C69.1 28.1129 69.0773 28.1126 69.0548 28.1126Z" fill="#222433"/>
<path d="M77.615 27.0677C77.4899 26.0171 77.0351 25.033 76.3157 24.2564C75.5964 23.4797 74.6494 22.9505 73.6104 22.7444C72.5715 22.5383 71.4939 22.666 70.5321 23.1092C69.5702 23.5523 68.7735 24.2882 68.256 25.2114C68.1901 25.3189 68.1306 25.4302 68.0779 25.5448C67.8843 25.9654 67.7495 26.4105 67.6773 26.8676C67.6551 27.0122 67.6439 27.1678 67.6328 27.3123H67.6551C68.1558 27.3901 68.69 27.3567 69.1574 27.568C69.558 27.7458 69.8807 28.0793 70.1478 28.4239C70.6152 29.013 71.0826 29.8801 70.7821 30.636C70.8129 30.6338 70.843 30.6263 70.8712 30.6137C70.9107 30.5944 70.9452 30.5663 70.9722 30.5317C70.9992 30.497 71.0179 30.4566 71.027 30.4136L71.4165 27.9125C71.479 27.5317 71.6893 27.1909 72.0018 26.9641C72.3144 26.7372 72.7038 26.6427 73.0857 26.7009L77.2923 27.3679C77.3337 27.3741 77.376 27.3713 77.4163 27.3598C77.4567 27.3483 77.494 27.3283 77.526 27.3012C77.5623 27.2755 77.5903 27.2396 77.6061 27.198C77.622 27.1564 77.6251 27.1111 77.615 27.0677Z" fill="#0D6EFD"/>
<path d="M73.1303 29.9352C73.4007 29.9352 73.6199 29.7163 73.6199 29.4461C73.6199 29.176 73.4007 28.957 73.1303 28.957C72.8598 28.957 72.6406 29.176 72.6406 29.4461C72.6406 29.7163 72.8598 29.9352 73.1303 29.9352Z" fill="#222433"/>
<path d="M76.4584 30.0915C76.7288 30.0915 76.9481 29.8725 76.9481 29.6024C76.9481 29.3323 76.7288 29.1133 76.4584 29.1133C76.188 29.1133 75.9688 29.3323 75.9688 29.6024C75.9688 29.8725 76.188 30.0915 76.4584 30.0915Z" fill="#222433"/>
<path d="M73.3323 37.5743C73.0781 37.5724 72.8243 37.5527 72.5729 37.5154C71.5337 37.3546 70.5718 36.8703 69.8242 36.1316C69.7634 36.0687 69.7297 35.9844 69.7305 35.897C69.7312 35.8095 69.7664 35.7259 69.8283 35.6641C69.8902 35.6022 69.9739 35.5672 70.0614 35.5664C70.149 35.5657 70.2333 35.5993 70.2962 35.66C70.9433 36.2985 71.7753 36.7171 72.674 36.8563C72.8919 36.8885 73.1117 36.9056 73.332 36.9073C73.4205 36.9073 73.5054 36.9425 73.568 37.005C73.6306 37.0675 73.6658 37.1524 73.6658 37.2408C73.6658 37.3293 73.6306 37.4141 73.568 37.4766C73.5054 37.5392 73.4205 37.5743 73.332 37.5743H73.3323Z" fill="#222433"/>
<path d="M75.714 31.6013C75.7028 31.6013 75.6917 31.6013 75.68 31.5997L74.378 31.4663C74.3344 31.4618 74.2921 31.4488 74.2535 31.428C74.2149 31.4072 74.1808 31.379 74.1531 31.3451C74.1254 31.3111 74.1047 31.2721 74.0921 31.2301C74.0796 31.1881 74.0754 31.1441 74.0799 31.1006C74.0843 31.057 74.0973 31.0147 74.1182 30.9762C74.139 30.9376 74.1672 30.9036 74.2012 30.8759C74.2352 30.8483 74.2743 30.8276 74.3163 30.815C74.3583 30.8025 74.4024 30.7983 74.446 30.8028L75.2965 30.8899L74.9081 28.978C74.8905 28.8913 74.9081 28.8011 74.9571 28.7274C75.006 28.6537 75.0822 28.6024 75.169 28.5848C75.2558 28.5672 75.346 28.5848 75.4198 28.6336C75.4936 28.6825 75.545 28.7587 75.5626 28.8453L76.0411 31.2019C76.051 31.2504 76.05 31.3005 76.0382 31.3485C76.0263 31.3965 76.0039 31.4413 75.9726 31.4796C75.9412 31.5179 75.9018 31.5488 75.857 31.57C75.8123 31.5912 75.7634 31.6021 75.7138 31.6021L75.714 31.6013Z" fill="#222433"/>
<path d="M68.4371 32.5129C68.2182 32.5331 67.9976 32.5256 67.7805 32.4906C67.2798 32.4126 66.8135 32.188 66.4406 31.8452C66.0677 31.5024 65.8049 31.0569 65.6854 30.5649C65.566 30.073 65.5953 29.5567 65.7696 29.0814C65.944 28.6061 66.2555 28.1931 66.6648 27.8946C67.0741 27.5961 67.5628 27.4256 68.0691 27.4046C68.5755 27.3835 69.0767 27.5129 69.5094 27.7764C69.9421 28.0399 70.2868 28.4257 70.5001 28.8849C70.7133 29.3441 70.7854 29.8562 70.7073 30.3564" fill="white"/>
<path d="M68.2073 32.8593C68.0471 32.8587 67.8871 32.8462 67.7288 32.8219C67.1628 32.734 66.6355 32.4804 66.2138 32.0933C65.792 31.7061 65.4946 31.2027 65.3593 30.6467C65.224 30.0907 65.2568 29.5071 65.4535 28.9697C65.6502 28.4323 66.0021 27.9653 66.4645 27.6276C66.927 27.29 67.4793 27.0969 68.0517 27.0729C68.624 27.0488 69.1906 27.1948 69.6798 27.4924C70.1691 27.79 70.559 28.2258 70.8003 28.7448C71.0415 29.2638 71.1233 29.8425 71.0353 30.4079C71.0294 30.4519 71.0149 30.4942 70.9925 30.5325C70.9701 30.5708 70.9403 30.6042 70.9048 30.6308C70.8693 30.6575 70.8289 30.6767 70.7859 30.6876C70.7428 30.6984 70.6981 30.7006 70.6542 30.6939C70.6103 30.6873 70.5682 30.6719 70.5303 30.6488C70.4924 30.6257 70.4596 30.5953 70.4336 30.5594C70.4076 30.5234 70.3891 30.4827 70.379 30.4395C70.369 30.3963 70.3677 30.3516 70.3752 30.3079C70.4435 29.8728 70.381 29.4273 70.1958 29.0277C70.0105 28.6281 69.7107 28.2924 69.3344 28.063C68.9581 27.8336 68.5221 27.7208 68.0816 27.739C67.6411 27.7572 67.2159 27.9055 66.8598 28.1651C66.5037 28.4247 66.2326 28.7839 66.081 29.1974C65.9293 29.6109 65.9038 30.0601 66.0078 30.488C66.1117 30.916 66.3404 31.3035 66.6649 31.6017C66.9894 31.8998 67.3951 32.0951 67.8307 32.1628C68.0189 32.1933 68.2102 32.2 68.4 32.1828C68.4881 32.1735 68.5762 32.1996 68.6451 32.2552C68.7139 32.3109 68.7578 32.3915 68.7671 32.4795C68.7763 32.5674 68.7503 32.6555 68.6946 32.7242C68.6389 32.793 68.5581 32.8368 68.47 32.8461C68.3828 32.8551 68.2951 32.8595 68.2073 32.8593Z" fill="#222433"/>
<path d="M67.7657 30.9904C67.6927 30.9905 67.6217 30.9667 67.5636 30.9227C67.5054 30.8787 67.4633 30.8169 67.4436 30.7467C67.424 30.6765 67.4279 30.6019 67.4548 30.5341C67.4816 30.4664 67.53 30.4093 67.5924 30.3716L68.3233 29.93L67.081 29.3591C67.0412 29.3408 67.0054 29.3148 66.9756 29.2827C66.9458 29.2506 66.9226 29.2129 66.9074 29.1718C66.8922 29.1307 66.8853 29.0871 66.887 29.0433C66.8887 28.9995 66.899 28.9565 66.9173 28.9168C66.9543 28.8364 67.0217 28.774 67.1048 28.7434C67.1459 28.7282 67.1896 28.7212 67.2334 28.7229C67.2773 28.7246 67.3203 28.7349 67.3601 28.7532L69.1741 29.5869C69.2292 29.6122 69.2763 29.652 69.3104 29.7021C69.3446 29.7521 69.3644 29.8105 69.3679 29.871C69.3713 29.9315 69.3582 29.9917 69.3299 30.0453C69.3017 30.0989 69.2593 30.1438 69.2074 30.1751L67.9388 30.9421C67.8866 30.9738 67.8267 30.9905 67.7657 30.9904Z" fill="#222433"/>
<path d="M75.8474 32.8572H75.8435L73.8516 32.8349C73.763 32.8344 73.6783 32.7988 73.616 32.736C73.5538 32.6731 73.519 32.5881 73.5195 32.4996C73.52 32.4112 73.5557 32.3265 73.6186 32.2644C73.6816 32.2022 73.7667 32.1675 73.8552 32.168H73.8924L75.851 32.1902C75.9395 32.1907 76.0243 32.2263 76.0865 32.2892C76.1488 32.3521 76.1835 32.4371 76.183 32.5255C76.1825 32.614 76.1469 32.6986 76.0839 32.7608C76.021 32.823 75.9359 32.8576 75.8473 32.8572H75.8474Z" fill="#222433"/>
<path d="M79.4173 46.8989C76.2012 47.2435 74.1425 43.6419 76.1901 41.1964C76.2235 41.1631 76.2458 41.1297 76.2791 41.0964C77.225 40.0515 77.9818 38.8287 77.4365 36.8834C77.047 35.5051 76.2346 33.5042 77.5923 33.1818C78.5271 32.9595 79.5731 35.2605 80.4078 36.9279C80.3632 34.249 80.3076 30.7363 81.554 30.6474C82.8004 30.5473 83.0897 33.0929 83.1008 36.55C83.7574 32.7372 83.5571 30.6363 84.7701 30.6807C86.7621 30.7585 85.9052 38.6286 84.848 41.2854L84.2916 43.0083C83.6127 45.1315 81.6875 46.6544 79.4173 46.8989Z" fill="white"/>
<path d="M79.0089 47.2555C78.2884 47.2604 77.5803 47.0689 76.9606 46.7017C76.341 46.3345 75.8333 45.8055 75.4923 45.1715C75.1314 44.5112 74.9804 43.7567 75.0596 43.0085C75.1388 42.2604 75.4443 41.554 75.9354 40.9837C75.9417 40.9761 75.9484 40.9689 75.9553 40.962C75.9645 40.9528 75.9718 40.9433 75.9795 40.9341C75.9978 40.9119 76.0163 40.8905 76.0376 40.8688C77.0323 39.7683 77.5956 38.6844 77.1165 36.9745C77.0691 36.807 77.0152 36.6292 76.9597 36.4465C76.6378 35.3858 76.2729 34.1837 76.7019 33.4377C76.7889 33.2891 76.9065 33.1607 77.047 33.0608C77.1874 32.961 77.3475 32.8921 77.5166 32.8586C78.4562 32.6347 79.2772 33.9571 80.0606 35.4853C80.0579 32.53 80.2791 30.4053 81.5316 30.3164C81.6876 30.3033 81.8446 30.3234 81.9923 30.3753C82.14 30.4271 82.275 30.5097 82.3885 30.6174C82.8162 31.0106 83.0978 31.7607 83.2601 33.0221C83.4898 31.3134 83.7419 30.3098 84.7833 30.3491C85.0409 30.3592 85.4099 30.4678 85.7098 30.9283C86.915 32.7791 86.0831 39.0763 85.1634 41.3995L84.6105 43.1121C83.8936 45.3543 81.8695 46.9717 79.4542 47.2319C79.3063 47.2477 79.1576 47.2556 79.0089 47.2555ZM76.4401 41.4207C76.0389 41.8898 75.7898 42.4695 75.7258 43.0831C75.6617 43.6968 75.7858 44.3154 76.0814 44.857C76.7257 46.0618 77.9911 46.7172 79.3833 46.5682C81.5359 46.3365 83.3384 44.8996 83.9752 42.9079L84.5317 41.1839C84.5339 41.1769 84.5365 41.17 84.5391 41.1631C85.473 38.8165 86.151 32.8279 85.1504 31.2912C84.9946 31.0513 84.8518 31.0186 84.7584 31.0149H84.74C84.2065 31.0149 84.074 31.8876 83.8289 33.8361C83.728 34.6386 83.6137 35.548 83.4312 36.6078C83.4171 36.6901 83.3726 36.7641 83.3065 36.8152C83.2404 36.8663 83.1575 36.8908 83.0742 36.8838C82.9909 36.8769 82.9132 36.8389 82.8566 36.7775C82.8 36.7161 82.7684 36.6357 82.7683 36.5522C82.7618 34.5371 82.6681 31.7803 81.9368 31.1079C81.8908 31.0618 81.8351 31.0264 81.7738 31.0045C81.7124 30.9825 81.6469 30.9745 81.5821 30.981C81.2328 31.006 80.9598 31.6888 80.8299 32.8545C80.6954 34.0629 80.7206 35.5827 80.743 36.9236C80.7443 36.9992 80.7198 37.0729 80.6735 37.1328C80.6273 37.1927 80.5621 37.235 80.4886 37.253C80.4151 37.271 80.3376 37.2635 80.2689 37.2317C80.2003 37.2 80.1444 37.1458 80.1106 37.0782C80.0416 36.9403 79.9709 36.7979 79.8991 36.6529C79.3297 35.5037 78.2701 33.366 77.671 33.5071C77.5909 33.5202 77.5145 33.5504 77.4472 33.5958C77.3798 33.6411 77.323 33.7004 77.2808 33.7697C76.9955 34.2658 77.3299 35.3674 77.5987 36.2526C77.6554 36.4397 77.7106 36.6215 77.7592 36.7936C78.3565 38.9249 77.472 40.2782 76.5283 41.321C76.5244 41.3251 76.5206 41.3292 76.5166 41.3331C76.5074 41.3423 76.5001 41.3517 76.4923 41.3609C76.4761 41.3812 76.4593 41.401 76.4402 41.4209L76.4401 41.4207Z" fill="#222433"/>
<path d="M79.5846 64.7067C77.8789 64.7059 76.2433 64.0287 75.0372 62.8239C73.8311 61.6192 73.1532 59.9854 73.1523 58.2817V42.7305H86.0056V58.2817C86.0074 59.125 85.8426 59.9604 85.5207 60.74C85.1988 61.5195 84.726 62.228 84.1296 62.8249C83.5331 63.4217 82.8246 63.8951 82.0447 64.218C81.2648 64.5409 80.4288 64.707 79.5846 64.7067Z" fill="white"/>
<path d="M79.5864 65.0416C77.7925 65.0396 76.0727 64.3269 74.8043 63.0599C73.5358 61.7928 72.8223 60.075 72.8203 58.2831V42.7319C72.8203 42.6435 72.8555 42.5587 72.9181 42.4961C72.9807 42.4336 73.0656 42.3984 73.1542 42.3984H86.0074C86.096 42.3984 86.1809 42.4336 86.2435 42.4961C86.3061 42.5587 86.3413 42.6435 86.3413 42.7319V58.2831C86.3431 59.1702 86.1697 60.049 85.831 60.8691C85.4923 61.6891 84.995 62.4344 84.3675 63.0622C83.74 63.69 82.9948 64.188 82.1743 64.5276C81.3539 64.8673 80.4745 65.042 79.5864 65.0416ZM73.488 43.0654V58.2831C73.4877 59.4883 73.8454 60.6664 74.5158 61.6684C75.1862 62.6704 76.1392 63.4511 77.2541 63.9117C78.369 64.3723 79.5957 64.4922 80.7788 64.256C81.9619 64.0198 83.0482 63.4383 83.9003 62.585C84.4665 62.0212 84.9149 61.3506 85.2193 60.6122C85.5237 59.8738 85.6781 59.0823 85.6736 58.2837V43.0654H73.488Z" fill="#222433"/>
<path d="M144.583 108.959C144.399 109.011 144.207 108.902 144.154 108.716L129.845 57.8446C129.792 57.6586 129.899 57.4658 130.084 57.4139C130.268 57.362 130.46 57.4707 130.512 57.6568L144.822 108.528C144.874 108.714 144.767 108.907 144.583 108.959Z" fill="#222433"/>
<path d="M132.472 47.2386C131.801 47.4268 131.41 48.129 131.6 48.8068C131.6 48.8071 131.601 48.8076 131.601 48.8079C131.41 48.1303 130.711 47.7341 130.04 47.923C130.04 47.9231 130.039 47.9232 130.039 47.9233C129.368 48.1122 128.978 48.8148 129.169 49.4924C128.978 48.8148 128.28 48.4186 127.609 48.6075C127.608 48.6076 127.608 48.6077 127.608 48.6078C126.936 48.796 126.546 49.4983 126.736 50.176C126.736 50.1764 126.736 50.1768 126.736 50.1772C126.546 49.5004 125.849 49.1042 125.178 49.2916C124.506 49.4761 124.112 50.1761 124.298 50.855C124.299 50.8576 124.3 50.8603 124.3 50.8629C124.11 50.1853 123.411 49.789 122.74 49.978C122.069 50.1663 121.678 50.8684 121.868 51.5462C121.868 51.5465 121.869 51.547 121.869 51.5473L123.314 56.6854C124.267 60.0757 127.762 62.0583 131.12 61.1139C131.121 61.1136 131.121 61.1134 131.122 61.1132C134.48 60.1679 136.43 56.6528 135.476 53.2622L134.03 48.1241C133.84 47.4474 133.143 47.0511 132.472 47.2386Z" fill="#82B1FF"/>
<path d="M133.029 53.8055C132.845 53.8574 132.653 53.7487 132.601 53.5627L131.243 48.7352C131.191 48.5492 131.298 48.3564 131.482 48.3045C131.666 48.2526 131.858 48.3614 131.91 48.5474L133.268 53.3748C133.321 53.5608 133.214 53.7537 133.029 53.8055Z" fill="#222433"/>
<path d="M130.584 54.493C130.4 54.5449 130.208 54.4362 130.156 54.2502L128.798 49.4227C128.746 49.2367 128.852 49.0439 129.037 48.992C129.221 48.9401 129.413 49.0488 129.465 49.2349L130.823 54.0623C130.875 54.2483 130.768 54.4412 130.584 54.493Z" fill="#222433"/>
<path d="M128.139 55.1805C127.954 55.2324 127.763 55.1237 127.71 54.9377L126.353 50.1102C126.3 49.9242 126.407 49.7314 126.591 49.6795C126.776 49.6276 126.967 49.7363 127.02 49.9224L128.378 54.7498C128.43 54.9358 128.323 55.1287 128.139 55.1805Z" fill="#222433"/>
<path d="M125.693 55.868C125.509 55.9199 125.317 55.8112 125.265 55.6252L123.907 50.7977C123.855 50.6117 123.962 50.4189 124.146 50.367C124.33 50.3151 124.522 50.4239 124.574 50.6099L125.932 55.4373C125.985 55.6233 125.878 55.8162 125.693 55.868Z" fill="#222433"/>
<path d="M152.37 91.4813H134.478C134.432 88.5826 134.409 86.8502 134.409 86.2035C134.409 79.7245 135.366 74.3966 137.28 70.2197C139.205 66.0159 143.055 61.327 148.797 56.0722C154.549 50.8405 157.996 47.4221 159.092 45.7936C160.814 43.3094 161.728 40.3528 161.708 37.3283C161.708 33.0436 160.179 29.3672 157.12 26.299C154.054 23.2385 149.938 21.7141 144.739 21.7141C139.735 21.7141 135.543 23.3117 132.161 26.5069C128.806 29.6944 126.489 34.5565 125.209 41.0932L107.133 38.5755C107.64 29.1978 111.202 21.2444 117.82 14.7154C124.449 8.17868 133.118 4.92188 143.909 4.92188C155.218 4.92188 164.226 8.23258 170.931 14.854C177.606 21.46 180.949 29.1631 180.961 37.9635C180.961 42.814 179.716 47.4221 177.272 51.7529C174.805 56.0838 169.552 61.993 161.512 69.4806C157.339 73.361 154.768 76.4677 153.754 78.8352C152.728 81.1912 152.267 85.395 152.37 91.4813Z" fill="#0D6EFD"/>
<path d="M152.36 97.1055H134.676V113.574H152.36V97.1055Z" fill="#0D6EFD"/>
<path d="M68.3362 113.739C68.2743 113.739 68.2137 113.721 68.1615 113.687C68.1092 113.653 68.0674 113.605 68.041 113.548L67.297 111.944C67.26 111.864 67.2555 111.773 67.2847 111.689C67.3138 111.606 67.3742 111.538 67.4524 111.501C67.5306 111.463 67.6204 111.458 67.7019 111.488C67.7834 111.518 67.8499 111.579 67.8869 111.659L68.6309 113.264C68.6545 113.314 68.6651 113.37 68.6617 113.426C68.6584 113.482 68.6412 113.536 68.6118 113.584C68.5824 113.631 68.5417 113.67 68.4935 113.697C68.4453 113.725 68.3912 113.739 68.3362 113.739Z" fill="#222433"/>
<path d="M70.1309 113.739C70.0758 113.739 70.0217 113.725 69.9735 113.697C69.9253 113.67 69.8846 113.631 69.8552 113.584C69.8258 113.536 69.8086 113.482 69.8053 113.426C69.8019 113.37 69.8125 113.314 69.8361 113.264L70.5801 111.659C70.5984 111.62 70.6242 111.584 70.6559 111.555C70.6877 111.526 70.7248 111.503 70.7652 111.488C70.8055 111.473 70.8483 111.467 70.8911 111.469C70.9339 111.471 70.9759 111.482 71.0146 111.501C71.0534 111.519 71.0881 111.546 71.1169 111.578C71.1457 111.61 71.1679 111.648 71.1823 111.689C71.1968 111.731 71.2031 111.774 71.201 111.818C71.1989 111.862 71.1884 111.904 71.1701 111.944L70.4261 113.548C70.3996 113.605 70.3578 113.653 70.3056 113.687C70.2533 113.721 70.1927 113.739 70.1309 113.739Z" fill="#222433"/>
<path d="M69.2365 113.739C69.1499 113.739 69.0669 113.704 69.0057 113.642C68.9445 113.579 68.9102 113.495 68.9102 113.407V111.446C68.9102 111.358 68.9445 111.273 69.0057 111.211C69.0669 111.148 69.1499 111.113 69.2365 111.113C69.323 111.113 69.406 111.148 69.4672 111.211C69.5284 111.273 69.5628 111.358 69.5628 111.446V113.407C69.5628 113.495 69.5284 113.579 69.4672 113.642C69.406 113.704 69.323 113.739 69.2365 113.739Z" fill="#222433"/>
<path d="M108.904 113.904C108.84 113.904 108.777 113.885 108.722 113.849C108.668 113.813 108.624 113.762 108.597 113.702L107.822 111.997C107.783 111.912 107.779 111.815 107.809 111.727C107.839 111.638 107.902 111.566 107.984 111.526C108.065 111.486 108.159 111.481 108.243 111.513C108.328 111.544 108.398 111.61 108.436 111.695L109.211 113.399C109.236 113.453 109.247 113.512 109.243 113.572C109.24 113.631 109.222 113.689 109.191 113.74C109.161 113.79 109.118 113.831 109.068 113.86C109.018 113.889 108.962 113.904 108.904 113.904Z" fill="#222433"/>
<path d="M110.777 113.904C110.72 113.904 110.664 113.889 110.613 113.86C110.563 113.831 110.521 113.79 110.49 113.74C110.46 113.689 110.442 113.631 110.438 113.572C110.435 113.512 110.446 113.453 110.47 113.399L111.245 111.695C111.264 111.653 111.291 111.615 111.324 111.584C111.357 111.553 111.396 111.528 111.438 111.513C111.48 111.497 111.525 111.49 111.569 111.493C111.614 111.495 111.657 111.506 111.698 111.526C111.738 111.546 111.774 111.574 111.804 111.608C111.834 111.643 111.858 111.683 111.873 111.727C111.888 111.77 111.894 111.817 111.892 111.863C111.89 111.91 111.879 111.955 111.86 111.997L111.085 113.702C111.057 113.762 111.014 113.813 110.959 113.849C110.905 113.885 110.842 113.904 110.777 113.904Z" fill="#222433"/>
<path d="M109.84 113.903C109.75 113.903 109.663 113.866 109.6 113.8C109.536 113.734 109.5 113.644 109.5 113.55V111.467C109.5 111.373 109.536 111.283 109.6 111.217C109.663 111.151 109.75 111.113 109.84 111.113C109.93 111.113 110.017 111.151 110.08 111.217C110.144 111.283 110.18 111.373 110.18 111.467V113.55C110.18 113.644 110.144 113.734 110.08 113.8C110.017 113.866 109.93 113.903 109.84 113.903Z" fill="#222433"/>
<path d="M172.441 113.904C172.374 113.904 172.308 113.885 172.252 113.849C172.195 113.813 172.15 113.762 172.121 113.702L171.315 111.997C171.275 111.912 171.27 111.815 171.302 111.727C171.333 111.638 171.399 111.566 171.484 111.526C171.568 111.486 171.666 111.481 171.754 111.513C171.842 111.544 171.914 111.61 171.954 111.695L172.76 113.399C172.786 113.453 172.797 113.512 172.794 113.572C172.79 113.631 172.771 113.689 172.74 113.74C172.708 113.79 172.664 113.831 172.611 113.86C172.559 113.889 172.501 113.904 172.441 113.904Z" fill="#222433"/>
<path d="M174.388 113.904C174.329 113.904 174.27 113.889 174.218 113.86C174.166 113.831 174.122 113.79 174.09 113.74C174.058 113.689 174.039 113.631 174.036 113.572C174.032 113.512 174.044 113.453 174.069 113.399L174.875 111.695C174.895 111.653 174.923 111.615 174.957 111.584C174.992 111.553 175.032 111.528 175.076 111.513C175.119 111.497 175.166 111.49 175.212 111.493C175.258 111.495 175.304 111.506 175.346 111.526C175.388 111.546 175.425 111.574 175.457 111.608C175.488 111.643 175.512 111.683 175.528 111.727C175.543 111.77 175.55 111.817 175.548 111.863C175.545 111.91 175.534 111.955 175.514 111.997L174.708 113.702C174.68 113.762 174.634 113.813 174.578 113.849C174.521 113.885 174.456 113.904 174.388 113.904Z" fill="#222433"/>
<path d="M173.412 113.903C173.318 113.903 173.228 113.866 173.162 113.8C173.096 113.734 173.059 113.644 173.059 113.55V111.467C173.059 111.373 173.096 111.283 173.162 111.217C173.228 111.151 173.318 111.113 173.412 111.113C173.506 111.113 173.596 111.151 173.662 111.217C173.728 111.283 173.766 111.373 173.766 111.467V113.55C173.766 113.644 173.728 113.734 173.662 113.8C173.596 113.866 173.506 113.903 173.412 113.903Z" fill="#222433"/>
<path d="M123.236 82.3944C122.852 82.5021 122.526 82.7571 122.329 83.1038C122.132 83.4505 122.081 83.8605 122.185 84.2443L122.191 84.2536C122.084 83.8694 121.827 83.5442 121.479 83.3495C121.131 83.1548 120.719 83.1066 120.334 83.2155C119.949 83.3244 119.623 83.5814 119.427 83.9301C119.231 84.2787 119.181 84.6904 119.289 85.0746L121.319 92.3975L116.527 86.5025C116.278 86.1922 115.915 85.9938 115.518 85.9511C115.122 85.9084 114.724 86.0248 114.413 86.2747C114.101 86.5247 113.902 86.8876 113.858 87.2838C113.814 87.68 113.929 88.0769 114.178 88.3873C113.929 88.0769 113.566 87.8786 113.17 87.8359C112.774 87.7931 112.376 87.9096 112.064 88.1595C111.753 88.4094 111.553 88.7724 111.509 89.1686C111.465 89.5648 111.581 89.9617 111.83 90.272L112.453 91.0541L116.691 96.2938C117.426 97.2002 118.408 97.8744 119.52 98.2356C120.631 98.5969 121.824 98.6297 122.955 98.3302L122.958 98.3548C123.776 98.1202 124.54 97.7254 125.205 97.1934L125.193 97.1748C126.094 96.4279 126.759 95.4366 127.108 94.3212C127.457 93.2058 127.475 92.0142 127.159 90.8909L125.343 84.3908L125.079 83.4292C125.028 83.2392 124.939 83.0614 124.819 82.9061C124.698 82.7508 124.548 82.6212 124.376 82.5249C124.205 82.4285 124.015 82.3674 123.82 82.345C123.624 82.3226 123.426 82.3394 123.236 82.3944Z" fill="white"/>
<path d="M124.857 97.8565C124.298 98.216 123.69 98.4917 123.052 98.6747C123.007 98.6879 122.96 98.6914 122.914 98.6852C121.736 98.97 120.503 98.9164 119.356 98.5303C118.21 98.1443 117.197 97.4417 116.436 96.5037L112.197 91.2641L111.573 90.48C111.422 90.2934 111.309 90.0783 111.243 89.8474C111.176 89.6166 111.156 89.3746 111.184 89.1357C111.237 88.6524 111.48 88.2091 111.858 87.9031C112.045 87.7516 112.259 87.6385 112.49 87.5704C112.72 87.5022 112.961 87.4804 113.2 87.5062C113.309 87.5176 113.418 87.5387 113.524 87.5693C113.518 87.4633 113.521 87.3571 113.533 87.2516C113.585 86.7681 113.828 86.3246 114.207 86.0184C114.393 85.867 114.608 85.7539 114.838 85.6858C115.068 85.6176 115.31 85.5958 115.548 85.6215C115.789 85.646 116.023 85.7182 116.236 85.8339C116.449 85.9495 116.637 86.1063 116.788 86.2951L120.576 90.9542L118.971 85.1654C118.874 84.7919 118.896 84.3968 119.036 84.0362C119.176 83.6756 119.426 83.3677 119.75 83.1564C120.075 82.9451 120.457 82.841 120.843 82.8588C121.229 82.8767 121.6 83.0156 121.902 83.256C121.999 82.9737 122.164 82.719 122.381 82.5135C122.598 82.3081 122.862 82.158 123.149 82.0762C123.382 82.0087 123.627 81.9885 123.868 82.017C124.109 82.0455 124.342 82.122 124.553 82.242C124.761 82.3594 124.944 82.5175 125.09 82.7068C125.236 82.8962 125.342 83.113 125.403 83.3444L125.666 84.3029L127.482 90.8018C127.809 91.9672 127.795 93.2026 127.444 94.363C127.093 95.5234 126.418 96.5608 125.499 97.3535C125.478 97.3918 125.449 97.4256 125.415 97.453C125.236 97.597 125.05 97.7316 124.857 97.8565ZM122.99 98.0004C123.685 97.7866 124.335 97.4499 124.911 97.0063C124.93 96.9738 124.955 96.9449 124.984 96.9207C125.835 96.2146 126.463 95.2779 126.793 94.224C127.123 93.1702 127.14 92.0443 126.842 90.9828L125.025 84.4821L124.761 83.5193C124.722 83.3725 124.655 83.235 124.563 83.1148C124.47 82.9947 124.354 82.8945 124.222 82.8201C124.088 82.7437 123.94 82.6951 123.787 82.6771C123.633 82.6591 123.478 82.672 123.329 82.7151C123.039 82.7967 122.791 82.986 122.636 83.2441C122.481 83.5021 122.431 83.8094 122.495 84.1027C122.501 84.1215 122.507 84.1404 122.513 84.1595C122.535 84.236 122.53 84.3182 122.497 84.391C122.463 84.4638 122.405 84.5223 122.333 84.5558C122.26 84.5893 122.178 84.5955 122.101 84.5734C122.024 84.5513 121.958 84.5022 121.915 84.4352L121.909 84.426C121.891 84.398 121.877 84.3675 121.868 84.3354C121.864 84.3205 121.86 84.3055 121.856 84.2905C121.753 84.0075 121.544 83.7755 121.274 83.6425C121.003 83.5095 120.692 83.4857 120.403 83.5759C120.115 83.6662 119.872 83.8637 119.725 84.1275C119.578 84.3912 119.538 84.7011 119.614 84.9928L121.643 92.3089C121.663 92.3824 121.657 92.4607 121.627 92.5307C121.596 92.6006 121.542 92.658 121.474 92.6931C121.406 92.7282 121.329 92.739 121.254 92.7236C121.179 92.7081 121.112 92.6675 121.064 92.6084L116.271 86.7135C116.174 86.5924 116.054 86.4919 115.918 86.4177C115.782 86.3436 115.632 86.2972 115.478 86.2813C115.326 86.265 115.172 86.2788 115.026 86.3221C114.879 86.3654 114.743 86.4372 114.624 86.5335C114.382 86.7297 114.227 87.0138 114.194 87.3233C114.175 87.4751 114.188 87.629 114.23 87.7758C114.272 87.9226 114.343 88.0594 114.439 88.1783L114.44 88.1795C114.49 88.2482 114.512 88.3338 114.501 88.4184C114.49 88.503 114.446 88.5802 114.38 88.6339C114.313 88.6877 114.229 88.7138 114.144 88.707C114.059 88.7002 113.979 88.6609 113.923 88.5973L113.921 88.5951C113.824 88.4747 113.704 88.3748 113.569 88.3011C113.433 88.2274 113.283 88.1814 113.129 88.1657C112.978 88.1492 112.824 88.163 112.678 88.2064C112.531 88.2497 112.394 88.3217 112.276 88.4182C112.033 88.6144 111.878 88.8985 111.845 89.208C111.827 89.3599 111.839 89.5139 111.881 89.6608C111.924 89.8078 111.995 89.9447 112.091 90.0636L112.716 90.8479L116.953 96.0856C117.648 96.9417 118.577 97.5786 119.627 97.9199C120.677 98.2612 121.804 98.2926 122.874 98.0101C122.912 98.0001 122.951 97.9968 122.99 98.0005L122.99 98.0004Z" fill="#222433"/>
<path d="M142.264 132.94C142.255 132.946 142.246 132.951 142.236 132.956C142.197 132.976 142.155 132.989 142.111 132.992C142.068 132.996 142.024 132.991 141.982 132.978C141.941 132.965 141.902 132.944 141.869 132.916C141.836 132.887 141.808 132.853 141.788 132.814L122.371 95.1474C122.331 95.0692 122.324 94.9781 122.351 94.8942C122.377 94.8102 122.437 94.7403 122.515 94.6998C122.594 94.6592 122.685 94.6514 122.769 94.6781C122.853 94.7048 122.922 94.7637 122.963 94.8419L142.38 132.508C142.418 132.582 142.427 132.666 142.406 132.746C142.384 132.826 142.334 132.895 142.264 132.94Z" fill="#222433"/>
<path d="M117.998 93.1605C117.929 93.205 117.846 93.2224 117.765 93.2095C117.684 93.1965 117.611 93.1541 117.559 93.0903L113.86 88.5024C113.805 88.4339 113.78 88.3462 113.789 88.2586C113.799 88.171 113.843 88.0907 113.911 88.0353C113.98 87.9799 114.068 87.954 114.156 87.9633C114.243 87.9726 114.324 88.0162 114.379 88.0847L118.078 92.6727C118.105 92.7066 118.125 92.7456 118.138 92.7874C118.15 92.8292 118.154 92.8731 118.149 92.9165C118.144 92.9599 118.131 93.0019 118.11 93.0402C118.089 93.0786 118.061 93.1124 118.027 93.1398C118.017 93.1472 118.008 93.1541 117.998 93.1605Z" fill="#222433"/>
<path d="M123.93 90.0962C123.887 90.1244 123.837 90.142 123.785 90.1476C123.733 90.1532 123.681 90.1465 123.633 90.1283C123.584 90.11 123.54 90.0806 123.505 90.0424C123.47 90.0042 123.445 89.9583 123.431 89.9083L121.837 84.2246C121.813 84.1399 121.824 84.0491 121.867 83.9722C121.91 83.8953 121.982 83.8386 122.067 83.8145C122.152 83.7905 122.243 83.8012 122.32 83.8441C122.397 83.8871 122.453 83.9588 122.477 84.0436L124.071 89.7272C124.09 89.7955 124.087 89.8682 124.061 89.9346C124.036 90.001 123.99 90.0576 123.93 90.0962Z" fill="#222433"/>
<path d="M164.431 96.5204C163.402 96.2243 162.483 95.6291 161.792 94.8101C161.101 93.9911 160.668 92.9851 160.548 91.9192C160.428 90.8534 160.626 89.7756 161.117 88.8222C161.608 87.8688 162.371 87.0826 163.308 86.563C164.245 86.0434 165.315 85.8137 166.382 85.903C167.45 85.9923 168.466 86.3966 169.304 87.0647C170.141 87.7328 170.762 88.6348 171.088 89.6565C171.413 90.6783 171.429 91.7739 171.132 92.8049C170.734 94.1865 169.804 95.3536 168.548 96.0501C167.292 96.7467 165.811 96.9158 164.431 96.5204ZM167.238 86.752C166.338 86.4932 165.382 86.5074 164.49 86.7928C163.599 87.0782 162.811 87.622 162.228 88.3554C161.644 89.0888 161.291 89.9789 161.213 90.9131C161.134 91.8473 161.334 92.7836 161.787 93.6038C162.24 94.4239 162.926 95.0909 163.758 95.5205C164.589 95.9502 165.53 96.123 166.46 96.0173C167.39 95.9116 168.268 95.5321 168.983 94.9267C169.698 94.3213 170.218 93.5172 170.477 92.6162C170.822 91.408 170.675 90.112 170.068 89.0126C169.461 87.9132 168.443 87.1002 167.238 86.752Z" fill="#222433"/>
<path d="M164.431 96.5204C163.402 96.2243 162.483 95.6291 161.792 94.8101C161.101 93.9911 160.668 92.9851 160.548 91.9192C160.428 90.8534 160.626 89.7756 161.117 88.8222C161.608 87.8688 162.371 87.0826 163.308 86.563C164.245 86.0434 165.315 85.8137 166.382 85.903C167.45 85.9923 168.466 86.3966 169.304 87.0647C170.141 87.7328 170.762 88.6348 171.088 89.6565C171.413 90.6783 171.429 91.7739 171.132 92.8049C170.734 94.1865 169.804 95.3536 168.548 96.0501C167.292 96.7467 165.811 96.9158 164.431 96.5204ZM167.238 86.752C166.338 86.4932 165.382 86.5074 164.49 86.7928C163.599 87.0782 162.811 87.622 162.228 88.3554C161.644 89.0888 161.291 89.9789 161.213 90.9131C161.134 91.8473 161.334 92.7836 161.787 93.6038C162.24 94.4239 162.926 95.0909 163.758 95.5205C164.589 95.9502 165.53 96.123 166.46 96.0173C167.39 95.9116 168.268 95.5321 168.983 94.9267C169.698 94.3213 170.218 93.5172 170.477 92.6162C170.822 91.408 170.675 90.112 170.068 89.0126C169.461 87.9132 168.443 87.1002 167.238 86.752Z" fill="#222433"/>
<path d="M164.526 96.1908C167.219 96.9656 170.031 95.4071 170.806 92.7096C171.581 90.0122 170.026 87.1973 167.333 86.4225C164.64 85.6477 161.829 87.2062 161.054 89.9037C160.279 92.6011 161.833 95.416 164.526 96.1908Z" fill="white"/>
<path d="M164.431 96.5202C163.402 96.2241 162.483 95.6289 161.792 94.8099C161.101 93.9909 160.668 92.9849 160.548 91.9191C160.428 90.8533 160.626 89.7755 161.117 88.8221C161.608 87.8688 162.371 87.0826 163.308 86.563C164.245 86.0433 165.315 85.8137 166.383 85.903C167.45 85.9923 168.466 86.3966 169.304 87.0647C170.142 87.7328 170.762 88.6348 171.088 89.6565C171.413 90.6783 171.429 91.7739 171.133 92.8049C170.734 94.1864 169.805 95.3535 168.548 96.05C167.292 96.7465 165.811 96.9156 164.431 96.5202ZM167.238 86.752C166.338 86.4932 165.382 86.5074 164.49 86.7928C163.599 87.0781 162.811 87.6219 162.228 88.3553C161.645 89.0887 161.291 89.9787 161.213 90.9129C161.134 91.8471 161.334 92.7835 161.787 93.6036C162.24 94.4237 162.926 95.0907 163.758 95.5204C164.589 95.95 165.53 96.1229 166.46 96.0172C167.39 95.9115 168.268 95.5319 168.983 94.9266C169.698 94.3212 170.218 93.5171 170.477 92.6161C170.822 91.4079 170.676 90.112 170.068 89.0126C169.461 87.9133 168.443 87.1003 167.238 86.752Z" fill="#222433"/>
<path d="M154.459 131.207C154.372 131.182 154.299 131.123 154.255 131.044C154.211 130.965 154.201 130.871 154.226 130.784L164.195 96.0981C164.22 96.011 164.278 95.9373 164.357 95.8934C164.437 95.8495 164.53 95.8389 164.617 95.8639C164.704 95.8889 164.778 95.9476 164.821 96.0269C164.865 96.1062 164.876 96.1997 164.851 96.2868L154.882 130.973C154.857 131.06 154.798 131.134 154.719 131.178C154.64 131.221 154.546 131.232 154.459 131.207Z" fill="#222433"/>
<path d="M165.615 92.4047C164.623 92.1175 163.734 91.5524 163.053 90.7761C162.371 89.9998 161.926 89.0445 161.768 88.0227C161.761 87.978 161.762 87.9323 161.772 87.8881C161.783 87.844 161.802 87.8023 161.828 87.7656C161.855 87.7289 161.888 87.6978 161.927 87.6742C161.966 87.6505 162.008 87.6348 162.053 87.628C162.098 87.6211 162.144 87.6232 162.187 87.6342C162.231 87.6452 162.273 87.6648 162.309 87.6919C162.345 87.719 162.376 87.753 162.399 87.7921C162.422 87.8311 162.437 87.8743 162.443 87.9192C162.58 88.8119 162.97 89.6466 163.565 90.3248C164.161 91.0031 164.937 91.4967 165.804 91.7477C166.67 91.9951 167.59 91.9905 168.454 91.7343C169.318 91.4781 170.092 90.981 170.685 90.3009C170.745 90.2328 170.829 90.1911 170.919 90.1849C171.009 90.1788 171.098 90.2086 171.166 90.2679C171.234 90.3272 171.276 90.4111 171.283 90.5013C171.289 90.5916 171.259 90.6807 171.2 90.7491C170.522 91.5273 169.636 92.0961 168.647 92.3893C167.658 92.6824 166.607 92.6878 165.615 92.4047Z" fill="#222433"/>
<path d="M167.79 92.5322C167.743 92.5185 167.699 92.4946 167.661 92.462C166.881 91.7829 166.311 90.8953 166.017 89.903C165.722 88.9108 165.716 87.855 165.999 86.8592C166.071 86.6091 166.161 86.3645 166.268 86.1272C166.286 86.0854 166.312 86.0477 166.345 86.0161C166.377 85.9845 166.416 85.9598 166.458 85.9433C166.5 85.9268 166.545 85.919 166.591 85.9202C166.636 85.9213 166.681 85.9316 166.722 85.9502C166.763 85.9689 166.801 85.9957 166.832 86.0289C166.862 86.0621 166.886 86.1012 166.902 86.1438C166.918 86.1865 166.925 86.2318 166.923 86.2772C166.921 86.3226 166.91 86.3671 166.89 86.4081C166.797 86.6155 166.718 86.8293 166.655 87.0479C166.408 87.9184 166.413 88.8413 166.671 89.7087C166.928 90.576 167.427 91.3518 168.108 91.9454C168.167 91.9964 168.207 92.0659 168.22 92.1425C168.234 92.2191 168.222 92.2982 168.185 92.3666C168.147 92.435 168.088 92.4888 168.016 92.5189C167.945 92.549 167.865 92.5537 167.79 92.5322Z" fill="#222433"/>
<path d="M152.418 151.816C152.239 151.816 152.094 151.669 152.094 151.488V101.961C152.094 101.78 152.239 101.633 152.418 101.633C152.597 101.633 152.742 101.78 152.742 101.961V151.488C152.742 151.669 152.597 151.816 152.418 151.816Z" fill="#222433"/>
<path d="M157.142 93.0586C156.49 93.058 155.961 93.5924 155.961 94.2522C155.961 94.2525 155.961 94.2529 155.961 94.2533C155.961 93.5935 155.432 93.0586 154.78 93.0586C154.78 93.0586 154.779 93.0586 154.779 93.0586C154.127 93.0586 153.599 93.5935 153.599 94.2533C153.599 93.5935 153.07 93.0586 152.418 93.0586C152.418 93.0586 152.418 93.0586 152.417 93.0586C151.765 93.058 151.236 93.5924 151.236 94.2522C151.236 94.2525 151.236 94.2529 151.236 94.2533C151.236 93.5943 150.709 93.0598 150.058 93.0586C149.406 93.0544 148.874 93.5858 148.87 94.2456C148.87 94.2481 148.87 94.2508 148.87 94.2533C148.87 93.5935 148.341 93.0586 147.689 93.0586C147.037 93.0581 146.508 93.5924 146.508 94.2522C146.508 94.2525 146.508 94.2529 146.508 94.2533V99.2559C146.507 102.557 149.151 105.233 152.412 105.234C152.413 105.234 152.413 105.234 152.414 105.234C155.676 105.234 158.32 102.557 158.32 99.2559V94.2533C158.32 93.5944 157.793 93.0598 157.142 93.0586Z" fill="#82B1FF"/>
<path d="M155.984 99.1253C155.805 99.1253 155.66 98.9785 155.66 98.7974V94.0974C155.66 93.9163 155.805 93.7695 155.984 93.7695C156.163 93.7695 156.308 93.9163 156.308 94.0974V98.7974C156.308 98.9785 156.163 99.1253 155.984 99.1253Z" fill="#222433"/>
<path d="M153.605 99.1253C153.426 99.1253 153.281 98.9785 153.281 98.7974V94.0974C153.281 93.9163 153.426 93.7695 153.605 93.7695C153.784 93.7695 153.929 93.9163 153.929 94.0974V98.7974C153.929 98.9785 153.784 99.1253 153.605 99.1253Z" fill="#222433"/>
<path d="M151.23 99.1253C151.051 99.1253 150.906 98.9785 150.906 98.7974V94.0974C150.906 93.9163 151.051 93.7695 151.23 93.7695C151.409 93.7695 151.554 93.9163 151.554 94.0974V98.7974C151.554 98.9785 151.409 99.1253 151.23 99.1253Z" fill="#222433"/>
<path d="M148.855 99.1253C148.676 99.1253 148.531 98.9785 148.531 98.7974V94.0974C148.531 93.9163 148.676 93.7695 148.855 93.7695C149.034 93.7695 149.179 93.9163 149.179 94.0974V98.7974C149.179 98.9785 149.034 99.1253 148.855 99.1253Z" fill="#222433"/>
<path d="M144.305 107.133C145.174 107.133 145.879 106.437 145.879 105.58C145.879 104.722 145.174 104.027 144.305 104.027C143.435 104.027 142.73 104.722 142.73 105.58C142.73 106.437 143.435 107.133 144.305 107.133Z" fill="white"/>
<path d="M144.305 107.429C143.934 107.429 143.572 107.321 143.263 107.117C142.955 106.914 142.714 106.625 142.572 106.287C142.43 105.95 142.393 105.578 142.466 105.219C142.538 104.86 142.717 104.531 142.979 104.272C143.241 104.013 143.575 103.837 143.939 103.766C144.303 103.695 144.68 103.731 145.023 103.871C145.365 104.011 145.658 104.248 145.864 104.552C146.07 104.856 146.18 105.214 146.18 105.58C146.18 106.07 145.982 106.54 145.63 106.887C145.279 107.233 144.802 107.428 144.305 107.429ZM144.305 104.324C144.053 104.324 143.807 104.397 143.597 104.535C143.388 104.673 143.225 104.87 143.128 105.099C143.032 105.329 143.007 105.581 143.056 105.825C143.105 106.068 143.226 106.292 143.404 106.468C143.583 106.643 143.809 106.763 144.056 106.812C144.304 106.86 144.56 106.835 144.792 106.74C145.025 106.645 145.224 106.484 145.364 106.277C145.504 106.071 145.579 105.828 145.579 105.58C145.578 105.247 145.444 104.928 145.205 104.692C144.966 104.457 144.643 104.324 144.305 104.324Z" fill="#222433"/>
<path d="M139.521 108.667C140.208 108.667 140.764 108.118 140.764 107.441C140.764 106.764 140.208 106.215 139.521 106.215C138.834 106.215 138.277 106.764 138.277 107.441C138.277 108.118 138.834 108.667 139.521 108.667Z" fill="white"/>
<path d="M139.521 108.964C139.215 108.964 138.917 108.875 138.663 108.707C138.409 108.54 138.211 108.302 138.094 108.024C137.977 107.745 137.947 107.439 138.006 107.144C138.066 106.848 138.213 106.577 138.429 106.364C138.645 106.151 138.92 106.006 139.22 105.947C139.519 105.888 139.83 105.919 140.112 106.034C140.394 106.149 140.635 106.344 140.805 106.595C140.975 106.845 141.065 107.14 141.065 107.441C141.065 107.845 140.902 108.232 140.612 108.517C140.323 108.803 139.93 108.963 139.521 108.964ZM139.521 106.511C139.334 106.511 139.152 106.566 138.997 106.668C138.842 106.77 138.721 106.915 138.65 107.085C138.579 107.255 138.56 107.442 138.596 107.622C138.633 107.803 138.723 107.968 138.854 108.098C138.986 108.228 139.154 108.317 139.337 108.353C139.52 108.389 139.709 108.37 139.882 108.3C140.054 108.229 140.201 108.11 140.305 107.957C140.408 107.804 140.464 107.625 140.464 107.441C140.463 107.194 140.364 106.958 140.187 106.784C140.01 106.61 139.771 106.512 139.521 106.511Z" fill="#222433"/>
<path d="M141.977 113.907C141.93 113.907 141.884 113.897 141.843 113.876C141.801 113.856 141.765 113.826 141.736 113.789C141.708 113.752 141.689 113.71 141.681 113.665C141.672 113.62 141.675 113.573 141.687 113.529L144.014 105.499C144.025 105.461 144.043 105.426 144.067 105.395C144.092 105.364 144.122 105.338 144.157 105.319C144.191 105.3 144.229 105.288 144.269 105.283C144.308 105.279 144.348 105.282 144.387 105.293C144.425 105.303 144.46 105.322 144.491 105.346C144.523 105.37 144.548 105.401 144.568 105.435C144.587 105.469 144.599 105.507 144.603 105.546C144.607 105.585 144.604 105.624 144.592 105.662L142.266 113.692C142.248 113.754 142.21 113.808 142.158 113.847C142.106 113.886 142.042 113.907 141.977 113.907Z" fill="#222433"/>
<path d="M141.977 113.905C141.916 113.905 141.857 113.887 141.807 113.853C141.757 113.82 141.719 113.772 141.697 113.717L139.24 107.546C139.21 107.473 139.212 107.391 139.244 107.319C139.276 107.247 139.335 107.19 139.409 107.161C139.484 107.132 139.566 107.134 139.64 107.165C139.713 107.197 139.77 107.255 139.8 107.329L142.257 113.499C142.275 113.544 142.281 113.593 142.276 113.641C142.27 113.689 142.253 113.735 142.225 113.775C142.198 113.815 142.161 113.848 142.117 113.87C142.074 113.893 142.026 113.905 141.977 113.905H141.977Z" fill="#222433"/>
<path d="M125.152 5.86656L125.794 4.74256C126.087 4.22915 126.74 4.05018 127.253 4.34276C127.397 4.42511 127.52 4.54011 127.612 4.67857L129.601 7.66205L126.022 7.46601C125.432 7.43348 124.981 6.92838 125.014 6.33767C125.023 6.17199 125.07 6.01078 125.152 5.86656Z" fill="white"/>
<path d="M125.364 7.59813C125.245 7.52666 125.136 7.43685 125.04 7.33016C124.792 7.0522 124.666 6.69391 124.687 6.32135C124.699 6.10646 124.762 5.89387 124.868 5.70693C124.868 5.70683 124.868 5.70674 124.868 5.70674L125.51 4.58274C125.695 4.25898 125.994 4.0263 126.354 3.92771C126.713 3.82918 127.089 3.87662 127.412 4.06126C127.601 4.16874 127.762 4.31967 127.882 4.49939L129.871 7.48249C129.939 7.58518 129.944 7.71777 129.883 7.82499C129.821 7.9322 129.705 7.99566 129.582 7.98892L126.003 7.79294C125.773 7.78036 125.555 7.71302 125.364 7.59813ZM125.434 6.02964C125.377 6.12935 125.344 6.24257 125.337 6.35714C125.326 6.55596 125.393 6.74702 125.526 6.89528C125.658 7.04359 125.841 7.13122 126.039 7.14222L128.968 7.30266L127.34 4.86115C127.276 4.76529 127.191 4.68541 127.09 4.6274C126.917 4.52898 126.717 4.50371 126.525 4.55628C126.334 4.60876 126.174 4.73281 126.075 4.90545L125.434 6.02964Z" fill="#222433"/>
<path d="M131.401 3.21126L132.524 3.85254C133.036 4.14743 133.212 4.80213 132.917 5.315C132.835 5.45771 132.721 5.57959 132.585 5.67118L129.601 7.66475L129.801 4.07969C129.835 3.48907 130.341 3.03776 130.931 3.07165C131.097 3.08116 131.258 3.1289 131.401 3.21126Z" fill="white"/>
<path d="M129.431 7.94569C129.328 7.88364 129.267 7.76914 129.274 7.64818L129.474 4.06314C129.519 3.29333 130.18 2.70355 130.948 2.74768C131.163 2.75994 131.375 2.82287 131.561 2.92961L132.684 3.57089C133.351 3.9556 133.582 4.81098 133.198 5.47884C133.091 5.66404 132.941 5.82463 132.764 5.94344L129.779 7.93702C129.677 8.00557 129.544 8.01026 129.437 7.94911C129.435 7.94803 129.433 7.94686 129.431 7.94569ZM132.371 4.14318C132.367 4.14089 132.363 4.13861 132.36 4.13641L131.238 3.49569C131.238 3.49563 131.238 3.49558 131.238 3.49552C131.138 3.43855 131.025 3.40502 130.911 3.39846C130.501 3.3749 130.148 3.6895 130.124 4.0998L129.96 7.03305L132.402 5.40167C132.496 5.33847 132.576 5.25281 132.633 5.15403C132.836 4.80155 132.718 4.35109 132.371 4.14318ZM131.399 3.21259L131.4 3.21315L131.399 3.21259Z" fill="#222433"/>
<path d="M176.259 63.4419L177.382 64.024C177.895 64.2896 178.096 64.9201 177.831 65.4324C177.757 65.5766 177.649 65.7014 177.518 65.7968L174.686 67.8569L174.733 64.3546C174.741 63.7771 175.216 63.3161 175.794 63.3249C175.956 63.3274 176.115 63.3675 176.259 63.4419Z" fill="white"/>
<path d="M174.581 63.7199C174.646 63.6007 174.73 63.4907 174.83 63.3933C175.091 63.1396 175.436 63.003 175.8 63.0087C176.01 63.0118 176.22 63.0646 176.407 63.1613C176.407 63.1613 176.407 63.1614 176.407 63.1614L177.53 63.7434C177.854 63.9109 178.093 64.1943 178.204 64.5413C178.314 64.8884 178.283 65.2574 178.116 65.5805C178.019 65.7687 177.878 65.9322 177.707 66.056L174.876 68.1161C174.778 68.1869 174.649 68.1966 174.542 68.1411C174.435 68.0856 174.368 67.9745 174.37 67.8539L174.417 64.3517C174.42 64.1271 174.477 63.9116 174.581 63.7199ZM176.115 63.7263C176.015 63.6747 175.904 63.6466 175.792 63.645C175.597 63.6421 175.413 63.7149 175.274 63.8502C175.134 63.9856 175.056 64.1671 175.054 64.3614L175.015 67.2272L177.332 65.5413C177.423 65.4753 177.498 65.3886 177.55 65.2877C177.64 65.1155 177.656 64.9188 177.597 64.7338C177.538 64.5488 177.411 64.3977 177.238 64.3084L176.115 63.7263Z" fill="#222433"/>
<path d="M179.108 69.4378L178.527 70.5592C178.26 71.0709 177.628 71.2687 177.115 71.0009C176.973 70.9265 176.849 70.8201 176.754 70.6903L174.689 67.8555L178.195 67.9094C178.773 67.9196 179.234 68.3959 179.225 68.9734C179.222 69.1353 179.182 69.2942 179.108 69.4378Z" fill="white"/>
<path d="M174.407 67.7043C174.463 67.6008 174.573 67.5369 174.691 67.5388L178.198 67.5927C178.951 67.606 179.553 68.2284 179.541 68.9804C179.538 69.1902 179.485 69.3996 179.388 69.5857L178.808 70.7071C178.459 71.3743 177.634 71.6329 176.966 71.2843C176.781 71.1876 176.619 71.0474 176.495 70.879L174.429 68.0439C174.358 67.9464 174.349 67.8172 174.404 67.7103C174.405 67.7082 174.406 67.7063 174.407 67.7043ZM178.237 70.4246C178.239 70.4208 178.241 70.4169 178.243 70.4131L178.823 69.2926C178.823 69.2925 178.823 69.2924 178.823 69.2923C178.875 69.193 178.903 69.0813 178.905 68.9693C178.911 68.5681 178.59 68.2361 178.188 68.2291L175.319 68.1849L177.01 70.5046C177.075 70.5942 177.162 70.6689 177.261 70.7206C177.613 70.9044 178.048 70.7714 178.237 70.4246ZM179.106 69.4391L179.105 69.44L179.106 69.4391Z" fill="#222433"/>
<path d="M56.3164 14.1172C57.1293 14.1169 57.9343 14.2771 58.6854 14.5886C59.4365 14.9001 60.119 15.3569 60.6938 15.9328C61.2686 16.5087 61.7245 17.1925 62.0355 17.945C62.3464 18.6976 62.5063 19.5041 62.506 20.3186C62.5082 21.8468 61.9417 23.3208 60.9172 24.4529C60.6164 24.7815 60.4508 25.2119 60.4538 25.6578V28.9962C60.4517 29.0505 60.4389 29.1038 60.4162 29.1531C60.3935 29.2024 60.3613 29.2468 60.3214 29.2836C60.284 29.3161 60.2405 29.3408 60.1934 29.3562C60.1463 29.3716 60.0967 29.3774 60.0473 29.3733C59.9979 29.3692 59.9499 29.3552 59.906 29.3322C59.8622 29.3092 59.8233 29.2776 59.7918 29.2394L57.9824 27.128C57.8048 26.9238 57.5838 26.7622 57.3355 26.655C57.0872 26.5479 56.8181 26.498 56.5481 26.509C56.4712 26.5182 56.3938 26.5219 56.3164 26.52H49.1779C48.365 26.5203 47.56 26.3602 46.8089 26.0486C46.0578 25.7371 45.3753 25.2803 44.8005 24.7044C44.2256 24.1285 43.7697 23.4447 43.4588 22.6922C43.1478 21.9396 42.988 21.1331 42.9883 20.3186C42.988 19.5041 43.1478 18.6976 43.4588 17.945C43.7697 17.1925 44.2256 16.5087 44.8005 15.9328C45.3753 15.3569 46.0578 14.9001 46.8089 14.5886C47.56 14.2771 48.365 14.1169 49.1779 14.1172H56.3164Z" fill="white"/>
<path d="M60.0736 29.7056C60.0515 29.7056 60.0297 29.7045 60.008 29.7025C59.9167 29.6943 59.828 29.6678 59.7471 29.6246C59.6662 29.5815 59.5948 29.5225 59.537 29.4512L57.7308 27.3437C57.5871 27.1796 57.4091 27.0494 57.2094 26.9622C57.0097 26.875 56.7932 26.8331 56.5755 26.8394C56.4893 26.8489 56.4027 26.8529 56.316 26.8513H49.1769C47.4475 26.8513 45.7889 26.163 44.5661 24.9378C43.3432 23.7126 42.6562 22.0509 42.6562 20.3182C42.6562 18.5855 43.3432 16.9238 44.5661 15.6986C45.7889 14.4735 47.4475 13.7852 49.1769 13.7852H56.3153C58.0441 13.7871 59.7015 14.476 60.924 15.7008C62.1464 16.9255 62.834 18.5861 62.8359 20.3182C62.8405 21.9294 62.2429 23.484 61.1608 24.6759C60.9153 24.9432 60.7805 25.2941 60.7838 25.6574V28.9958C60.7818 29.0937 60.7605 29.1902 60.7211 29.2798C60.6817 29.3694 60.6249 29.4503 60.5542 29.5179C60.5482 29.5237 60.542 29.5289 60.5357 29.5349C60.4068 29.645 60.243 29.7055 60.0736 29.7056ZM56.6174 26.1755C56.9232 26.1759 57.2254 26.2417 57.5038 26.3685C57.7822 26.4953 58.0304 26.6801 58.2318 26.9107L60.042 29.023C60.0445 29.0258 60.047 29.0288 60.0494 29.0319C60.0518 29.0351 60.055 29.0376 60.0585 29.0394C60.0621 29.0411 60.066 29.0421 60.0699 29.0421C60.0796 29.0431 60.0893 29.0411 60.0977 29.0363C60.1091 29.0251 60.1174 29.0111 60.1219 28.9958V25.6574C60.118 25.1276 60.3152 24.6162 60.6735 24.2265C61.6432 23.1572 62.1785 21.763 62.174 20.3182C62.1722 18.762 61.5544 17.27 60.4561 16.1696C59.3577 15.0692 57.8686 14.4502 56.3153 14.4484H49.1769C47.6231 14.4484 46.1329 15.0668 45.0342 16.1676C43.9355 17.2684 43.3182 18.7614 43.3182 20.3182C43.3182 21.875 43.9355 23.368 45.0342 24.4688C46.1329 25.5696 47.6231 26.188 49.1769 26.188H56.3153C56.377 26.1896 56.4388 26.187 56.5001 26.1803C56.5112 26.1787 56.5222 26.1776 56.5332 26.1772C56.5616 26.1761 56.5896 26.1755 56.6174 26.1755Z" fill="#222433"/>
<path d="M55.3792 21.3128C55.8972 21.3128 56.3171 20.8921 56.3171 20.3732C56.3171 19.8543 55.8972 19.4336 55.3792 19.4336C54.8613 19.4336 54.4414 19.8543 54.4414 20.3732C54.4414 20.8921 54.8613 21.3128 55.3792 21.3128Z" fill="#82B1FF"/>
<path d="M52.7425 21.3128C53.2605 21.3128 53.6803 20.8921 53.6803 20.3732C53.6803 19.8543 53.2605 19.4336 52.7425 19.4336C52.2246 19.4336 51.8047 19.8543 51.8047 20.3732C51.8047 20.8921 52.2246 21.3128 52.7425 21.3128Z" fill="#82B1FF"/>
<path d="M50.137 21.3128C50.655 21.3128 51.0749 20.8921 51.0749 20.3732C51.0749 19.8543 50.655 19.4336 50.137 19.4336C49.6191 19.4336 49.1992 19.8543 49.1992 20.3732C49.1992 20.8921 49.6191 21.3128 50.137 21.3128Z" fill="#82B1FF"/>
<path d="M193.764 113.933H20.0092C19.8269 113.933 19.6875 113.783 19.6875 113.588C19.6875 113.392 19.8269 113.242 20.0092 113.242H193.764C193.947 113.242 194.086 113.392 194.086 113.588C194.086 113.783 193.947 113.933 193.764 113.933Z" fill="#222433"/>
</g>
<defs>
<clipPath id="clip0_408_3709">
<rect width="210" height="118.172" fill="white"/>
</clipPath>
</defs>
</svg>
