<svg width="19" height="20" viewBox="0 0 19 20" fill="none" xmlns="http://www.w3.org/2000/svg">
<path d="M9.7487 0.832031C4.69661 0.832031 0.582031 4.94661 0.582031 9.9987C0.582031 15.0508 4.69661 19.1654 9.7487 19.1654C14.8008 19.1654 18.9154 15.0508 18.9154 9.9987C18.9154 4.94661 14.8008 0.832031 9.7487 0.832031ZM9.7487 2.4987C13.8991 2.4987 17.2487 5.84831 17.2487 9.9987C17.2487 14.1491 13.8991 17.4987 9.7487 17.4987C5.59831 17.4987 2.2487 14.1491 2.2487 9.9987C2.2487 5.84831 5.59831 2.4987 9.7487 2.4987ZM14.2539 6.82161L8.91537 12.1341L6.18099 9.39974L4.98307 10.5977L8.31641 13.931L8.91537 14.5039L9.51432 13.931L15.4258 7.99349L14.2539 6.82161Z" fill="#28A745"/>
</svg>
