<svg width="21" height="20" viewBox="0 0 21 20" fill="none" xmlns="http://www.w3.org/2000/svg">
<path d="M10.7487 0.832031C5.69661 0.832031 1.58203 4.94661 1.58203 9.9987C1.58203 15.0508 5.69661 19.1654 10.7487 19.1654C15.8008 19.1654 19.9154 15.0508 19.9154 9.9987C19.9154 4.94661 15.8008 0.832031 10.7487 0.832031ZM10.7487 2.4987C14.8991 2.4987 18.2487 5.84831 18.2487 9.9987C18.2487 14.1491 14.8991 17.4987 10.7487 17.4987C6.59831 17.4987 3.2487 14.1491 3.2487 9.9987C3.2487 5.84831 6.59831 2.4987 10.7487 2.4987Z" fill="#EF9AA3"/>
<line x1="7.12508" y1="6.4843" x2="14.2679" y2="13.6272" stroke="#DD3646" stroke-width="2"/>
<line x1="14.2657" y1="6.70711" x2="7.12284" y2="13.85" stroke="#DD3646" stroke-width="2"/>
</svg>
