<svg width="10" height="11" viewBox="0 0 10 11" fill="none" xmlns="http://www.w3.org/2000/svg">
<path d="M5.70703 5.50009L9.85355 1.35355C10.0488 1.15829 10.0488 0.841709 9.85355 0.646447C9.65829 0.451184 9.34171 0.451185 9.14645 0.646447L4.99991 4.793L0.853555 0.646814C0.658288 0.451556 0.341706 0.451562 0.146448 0.646828C-0.0488104 0.842094 -0.048804 1.15868 0.146462 1.35393L4.2928 5.5001L0.146447 9.64646C-0.0488157 9.84173 -0.0488155 10.1583 0.146447 10.3536C0.341709 10.5488 0.658292 10.5488 0.853553 10.3536L4.99992 6.2072L9.14646 10.3536C9.34173 10.5488 9.65831 10.5488 9.85357 10.3536C10.0488 10.1583 10.0488 9.84171 9.85355 9.64645L5.70703 5.50009Z" fill="#202124"/>
</svg>
