<svg xmlns="http://www.w3.org/2000/svg" width="13" height="13" viewBox="0 0 13 13">
    <g fill="none" fill-rule="evenodd" stroke="#8A959F" stroke-linecap="round" stroke-linejoin="round" stroke-width="1.5">
        <path d="M5.277 1l-.067.343L4.95 2.6a4.338 4.338 0 0 0-1.126.647L2.56 2.823l-.34-.105-.175.303-.87 1.454L1 4.778l.258.226.977.831c-.035.218-.08.433-.08.661 0 .229.045.444.08.662l-.977.831L1 8.214l.176.304.87 1.454.176.304.34-.106 1.263-.423c.338.266.713.49 1.126.647l.259 1.256.067.343H7.722l.068-.343.258-1.256a4.338 4.338 0 0 0 1.127-.647l1.263.423.34.106.176-.304.87-1.454.176-.304-.258-.225-.978-.831c.036-.218.081-.433.081-.662 0-.228-.045-.443-.08-.66l.976-.832.259-.226-.177-.303-.869-1.454-.177-.303-.339.105-1.263.423a4.338 4.338 0 0 0-1.127-.647L7.79 1.343 7.722 1H5.277z"/>
        <path d="M8.071 6.499a1.571 1.571 0 1 1-3.143-.002 1.571 1.571 0 0 1 3.143.002z"/>
    </g>
</svg>
