<svg xmlns="http://www.w3.org/2000/svg" width="313" height="164" viewBox="0 0 313 164">
    <g fill="none" fill-rule="nonzero">
        <path fill="#F2F2F2" d="M66.202 163.729H0v-40.745h75.357v28.56"/>
        <path fill="#000" d="M69.805 160.733H3.303V119.39H79.26v28.86h-.6v-28.26H3.903v40.145h65.902zM96.93 160.883H78.96v-.6h15.656l-15.652-8.693.292-.523z"/>
        <path fill="#000" d="M12.009 133.769h58.545v1H12.009zM12.009 139.761h58.545v1H12.009zM12.009 145.753h58.545v1H12.009z"/>
        <path fill="#FF6584" d="M47.457 116.043l-1.233-.403c-4.401-1.48-7.292-2.426-8.322-4.742a3.598 3.598 0 0 1 1.85-4.831 3.937 3.937 0 0 1 3.3.07 3.924 3.924 0 0 1 2.164-2.49 3.62 3.62 0 0 1 4.83 1.875c1.03 2.316-.208 5.09-2.061 9.339l-.528 1.182zM78.393 38.248l-.84-.274c-2.995-1.008-4.963-1.651-5.663-3.228a2.449 2.449 0 0 1 1.258-3.289 2.68 2.68 0 0 1 2.247.048 2.67 2.67 0 0 1 1.473-1.694 2.464 2.464 0 0 1 3.288 1.275c.7 1.577-.142 3.465-1.403 6.357l-.36.805z"/>
        <path fill="#F2F2F2" d="M244.997 62.64h66.202V21.895H235.84v28.56"/>
        <path fill="#000" d="M307.896 59.644h-66.502v-.6h65.902V18.9h-74.757v28.26h-.6V18.3h75.957zM232.239 59.794h-17.97l17.674-9.816.291.523-15.651 8.694h15.656z"/>
        <path fill="#000" d="M240.645 32.68h58.545v1h-58.545zM240.645 38.672h58.545v1h-58.545zM240.645 44.664h58.545v1h-58.545z"/>
        <path fill="#FF6584" d="M303.427 10.264l-.189-1.066c-.64-3.823-1.082-6.323.224-7.995a3.023 3.023 0 0 1 4.3-.544 3.277 3.277 0 0 1 1.25 2.458 3.292 3.292 0 0 1 2.693.61 3.014 3.014 0 0 1 .52 4.294c-1.307 1.672-3.845 1.854-7.716 2.166l-1.082.077z"/>
        <path fill="#26344A" d="M41.445 71h-5.1V49.145h5.1V71zm4.05 0V55.445h2.88c.29 0 .532.065.728.195.195.13.332.325.412.585l.27.9c.3-.28.61-.54.93-.78.32-.24.662-.442 1.028-.608a6.099 6.099 0 0 1 2.572-.532c.85 0 1.602.147 2.258.443a4.685 4.685 0 0 1 1.657 1.23c.45.525.79 1.15 1.02 1.874.23.726.345 1.513.345 2.363V71h-4.65v-9.885c0-.76-.175-1.352-.525-1.778-.35-.425-.865-.637-1.545-.637-.51 0-.99.11-1.44.33a5.6 5.6 0 0 0-1.29.885V71h-4.65zm22.86.24c-.74 0-1.392-.107-1.958-.322a3.888 3.888 0 0 1-1.425-.916 3.9 3.9 0 0 1-.877-1.432c-.2-.56-.3-1.185-.3-1.875v-8.04h-1.32a.88.88 0 0 1-.615-.233c-.17-.155-.255-.382-.255-.682v-1.815l2.475-.48.915-3.795c.12-.48.46-.72 1.02-.72h2.43v4.545h3.78v3.18h-3.78v7.725c0 .36.087.657.263.892.175.236.427.353.757.353a1.489 1.489 0 0 0 .727-.172 5.36 5.36 0 0 1 .24-.12.615.615 0 0 1 .263-.053c.14 0 .252.032.338.097.085.066.172.168.262.308l1.41 2.205c-.6.45-1.275.787-2.025 1.013a8.047 8.047 0 0 1-2.325.337zm6.54-.24V55.445h2.76c.23 0 .422.02.578.06.155.04.284.102.39.188a.8.8 0 0 1 .24.337c.055.14.102.31.142.51l.255 1.455c.57-.88 1.21-1.575 1.92-2.085s1.485-.765 2.325-.765c.71 0 1.28.17 1.71.51l-.6 3.42c-.04.21-.12.357-.24.442-.12.086-.28.128-.48.128-.17 0-.37-.022-.6-.068a4.651 4.651 0 0 0-.87-.067c-1.22 0-2.18.65-2.88 1.95V71h-4.65zm19.32-15.795c1.18 0 2.255.185 3.225.555.97.37 1.802.9 2.498 1.59.695.69 1.234 1.527 1.62 2.512.385.986.577 2.093.577 3.323 0 1.24-.192 2.357-.578 3.352-.385.996-.924 1.84-1.62 2.535a7.107 7.107 0 0 1-2.497 1.605c-.97.376-2.045.563-3.225.563-1.19 0-2.272-.187-3.248-.563a7.247 7.247 0 0 1-2.52-1.605c-.705-.695-1.25-1.54-1.635-2.535-.385-.995-.577-2.112-.577-3.352 0-1.23.192-2.337.578-3.323.385-.985.93-1.822 1.635-2.512a7.213 7.213 0 0 1 2.52-1.59c.975-.37 2.057-.555 3.247-.555zm0 12.585c1.07 0 1.857-.377 2.362-1.133.506-.755.758-1.902.758-3.442 0-1.54-.252-2.685-.757-3.435-.506-.75-1.293-1.125-2.363-1.125-1.1 0-1.905.375-2.415 1.125s-.765 1.895-.765 3.435.255 2.687.765 3.442c.51.756 1.315 1.133 2.415 1.133zm21.39 3.21c-.29 0-.532-.065-.728-.195a1.041 1.041 0 0 1-.412-.585l-.36-1.185c-.31.33-.635.63-.975.9-.34.27-.707.502-1.102.697a5.83 5.83 0 0 1-1.276.45 6.564 6.564 0 0 1-1.477.158c-.81 0-1.56-.18-2.25-.54-.69-.36-1.285-.88-1.785-1.56s-.892-1.512-1.177-2.498c-.286-.985-.428-2.107-.428-3.367 0-1.16.16-2.237.48-3.233.32-.995.772-1.854 1.358-2.58a6.304 6.304 0 0 1 2.107-1.702c.82-.41 1.725-.615 2.715-.615.8 0 1.477.117 2.032.352a5.867 5.867 0 0 1 1.508.923v-7.875h4.65V71h-2.88zm-4.71-3.33c.34 0 .647-.032.922-.097.276-.066.528-.158.758-.278.23-.12.447-.27.652-.45.206-.18.408-.39.608-.63v-6.6c-.36-.39-.742-.662-1.147-.818a3.557 3.557 0 0 0-1.283-.232c-.43 0-.825.085-1.185.255-.36.17-.672.442-.938.818-.265.375-.472.862-.622 1.462-.15.6-.225 1.325-.225 2.175 0 .82.06 1.51.18 2.07.12.56.287 1.012.503 1.358.215.345.472.592.772.742.3.15.635.225 1.005.225zm15.54-12.225v9.87c0 .77.175 1.365.525 1.785.35.42.865.63 1.545.63.51 0 .987-.105 1.433-.315.445-.21.877-.505 1.297-.885V55.445h4.65V71h-2.88c-.58 0-.96-.26-1.14-.78l-.285-.9c-.3.29-.61.552-.93.788-.32.235-.662.434-1.028.6a6.138 6.138 0 0 1-1.177.39c-.42.095-.88.142-1.38.142-.85 0-1.602-.147-2.257-.442a4.645 4.645 0 0 1-1.658-1.238 5.397 5.397 0 0 1-1.02-1.875 7.755 7.755 0 0 1-.345-2.37v-9.87h4.65zm24.27 3.69c-.14.17-.275.305-.405.405-.13.1-.315.15-.555.15-.23 0-.437-.055-.623-.165l-.622-.367c-.23-.136-.5-.258-.81-.368-.31-.11-.695-.165-1.155-.165-.57 0-1.062.105-1.477.315-.416.21-.758.51-1.028.9s-.47.867-.6 1.432a8.557 8.557 0 0 0-.195 1.913c0 1.49.287 2.635.862 3.435.576.8 1.368 1.2 2.378 1.2.54 0 .967-.067 1.282-.202.316-.136.583-.285.803-.45l.607-.458c.186-.14.418-.21.698-.21.37 0 .65.135.84.405l1.35 1.665c-.48.55-.985.997-1.515 1.343a7.6 7.6 0 0 1-1.627.81 8.4 8.4 0 0 1-1.673.404c-.56.076-1.105.113-1.635.113-.95 0-1.857-.18-2.722-.54a6.67 6.67 0 0 1-2.28-1.568c-.656-.685-1.175-1.527-1.56-2.527-.386-1-.578-2.14-.578-3.42 0-1.12.167-2.167.502-3.143.336-.975.83-1.82 1.485-2.535.656-.715 1.465-1.277 2.43-1.687.966-.41 2.083-.615 3.353-.615 1.22 0 2.29.195 3.21.585.92.39 1.75.96 2.49 1.71l-1.23 1.635zm8.16-3.69V71h-4.65V55.445h4.65zm.54-4.26c0 .37-.075.717-.225 1.042-.15.326-.355.61-.615.856a3.01 3.01 0 0 1-.907.584 2.816 2.816 0 0 1-1.103.218c-.38 0-.735-.072-1.065-.218a2.994 2.994 0 0 1-.877-.584 2.7 2.7 0 0 1-.6-.855 2.53 2.53 0 0 1-.218-1.043c0-.38.072-.735.218-1.065a2.81 2.81 0 0 1 1.478-1.455c.329-.14.684-.21 1.064-.21.39 0 .757.07 1.102.21a2.831 2.831 0 0 1 1.523 1.455c.15.33.225.685.225 1.065zM162.615 71V55.445h2.88c.29 0 .532.065.727.195.196.13.333.325.413.585l.27.9c.3-.28.61-.54.93-.78.32-.24.662-.442 1.028-.608a6.099 6.099 0 0 1 2.572-.532c.85 0 1.602.147 2.257.443a4.685 4.685 0 0 1 1.658 1.23c.45.525.79 1.15 1.02 1.874.23.726.345 1.513.345 2.363V71h-4.65v-9.885c0-.76-.175-1.352-.525-1.778-.35-.425-.865-.637-1.545-.637-.51 0-.99.11-1.44.33a5.6 5.6 0 0 0-1.29.885V71h-4.65zm22.89-15.825c.66 0 1.282.065 1.868.195.585.13 1.127.315 1.627.555h4.695v1.695c0 .26-.072.465-.218.615-.145.15-.392.265-.742.345l-1.14.255c.14.45.21.915.21 1.395 0 .78-.162 1.48-.488 2.1a4.776 4.776 0 0 1-1.335 1.583c-.565.435-1.232.77-2.002 1.005a8.437 8.437 0 0 1-2.475.352c-.49 0-.95-.03-1.38-.09-.34.2-.51.43-.51.69 0 .26.137.447.412.563.276.115.638.194 1.088.24.45.045.965.074 1.545.09.58.015 1.17.05 1.77.105.6.055 1.19.147 1.77.277.58.13 1.095.34 1.545.63.45.29.812.677 1.088 1.162.275.486.412 1.103.412 1.853 0 .7-.17 1.385-.51 2.055-.34.67-.84 1.265-1.5 1.785s-1.47.937-2.43 1.252c-.96.316-2.06.473-3.3.473-1.22 0-2.272-.115-3.157-.345-.886-.23-1.62-.532-2.206-.907-.585-.376-1.017-.808-1.297-1.298s-.42-1-.42-1.53c0-.69.21-1.272.63-1.748.42-.475.995-.847 1.725-1.117-.35-.23-.63-.525-.84-.885-.21-.36-.315-.815-.315-1.365 0-.23.04-.472.12-.727.08-.256.205-.503.375-.743s.385-.47.645-.69c.26-.22.57-.415.93-.585-.81-.43-1.447-1-1.912-1.71-.466-.71-.698-1.535-.698-2.475 0-.78.165-1.482.495-2.107a4.762 4.762 0 0 1 1.357-1.59c.576-.436 1.253-.77 2.033-1.005a8.75 8.75 0 0 1 2.535-.353zm3.45 16.395c0-.25-.077-.45-.233-.6a1.658 1.658 0 0 0-.63-.36 4.461 4.461 0 0 0-.93-.195c-.355-.04-.737-.07-1.147-.09a87.1 87.1 0 0 0-1.275-.053 16.02 16.02 0 0 1-1.305-.097c-.29.2-.527.422-.713.668a1.346 1.346 0 0 0-.277.832c0 .22.048.42.143.6.095.18.262.335.502.465s.562.232.968.308c.405.075.917.112 1.537.112.67 0 1.22-.04 1.65-.12.43-.08.772-.19 1.028-.33.255-.14.432-.307.532-.502.1-.196.15-.408.15-.638zm-3.45-9.165c.77 0 1.327-.192 1.673-.578.345-.385.517-.882.517-1.492 0-.63-.172-1.125-.517-1.485-.346-.36-.903-.54-1.673-.54s-1.327.18-1.672.54c-.346.36-.518.855-.518 1.485 0 .3.042.575.127.825.085.25.218.467.398.653.18.185.407.33.683.434.275.106.602.158.982.158zm-65.935 36.18c-.15.24-.307.42-.472.54-.166.12-.378.18-.638.18-.23 0-.477-.072-.742-.218-.266-.145-.565-.307-.9-.487a7.469 7.469 0 0 0-1.148-.487 4.591 4.591 0 0 0-1.47-.218c-.95 0-1.657.202-2.123.608-.465.405-.697.952-.697 1.642 0 .44.14.805.42 1.095.28.29.647.54 1.103.75.455.21.974.402 1.56.578.585.175 1.182.37 1.792.585.61.215 1.207.467 1.793.757.585.29 1.104.66 1.56 1.11.455.45.822.997 1.102 1.642.28.646.42 1.423.42 2.333a7.6 7.6 0 0 1-.525 2.835 6.638 6.638 0 0 1-1.522 2.302c-.666.656-1.485 1.17-2.46 1.545-.976.376-2.083.563-3.323.563-.68 0-1.372-.07-2.078-.21a12.338 12.338 0 0 1-2.047-.593c-.66-.255-1.28-.557-1.86-.907a7.903 7.903 0 0 1-1.515-1.17l1.5-2.37c.11-.18.265-.325.465-.435.2-.11.415-.165.645-.165.3 0 .602.095.907.285.306.19.65.4 1.036.63.385.23.827.44 1.327.63s1.09.285 1.77.285c.92 0 1.635-.202 2.145-.608.51-.405.765-1.047.765-1.927 0-.51-.14-.925-.42-1.245a3.245 3.245 0 0 0-1.102-.795c-.456-.21-.973-.395-1.553-.555-.58-.16-1.175-.337-1.785-.532a13.06 13.06 0 0 1-1.785-.72 5.633 5.633 0 0 1-1.553-1.125c-.455-.466-.822-1.045-1.102-1.74-.28-.696-.42-1.553-.42-2.573a6.195 6.195 0 0 1 1.95-4.485c.64-.61 1.425-1.097 2.355-1.463.93-.365 1.995-.547 3.195-.547.67 0 1.322.052 1.957.157.636.106 1.238.26 1.808.466.57.205 1.102.45 1.597.734.496.286.938.608 1.328.968l-1.26 2.355zM123.65 116v-15.555h2.88c.29 0 .532.065.727.195.196.13.333.325.413.585l.255.84c.26-.27.53-.517.81-.742a5.051 5.051 0 0 1 1.957-.975 5.036 5.036 0 0 1 1.238-.143c.94 0 1.717.242 2.332.728.616.485 1.083 1.132 1.403 1.942.26-.48.577-.89.953-1.23.375-.34.78-.615 1.215-.825.435-.21.894-.365 1.38-.465.485-.1.967-.15 1.447-.15.89 0 1.68.132 2.37.398.69.265 1.267.65 1.732 1.154.466.506.818 1.125 1.058 1.86.24.736.36 1.568.36 2.498V116h-4.65v-9.885c0-1.61-.69-2.415-2.07-2.415-.63 0-1.152.207-1.567.623-.416.415-.623 1.012-.623 1.792V116h-4.65v-9.885c0-.89-.175-1.515-.525-1.875-.35-.36-.865-.54-1.545-.54-.42 0-.817.095-1.193.285-.375.19-.727.445-1.057.765V116h-4.65zm36.57 0c-.44 0-.772-.06-.998-.18-.225-.12-.412-.37-.562-.75l-.33-.855c-.39.33-.765.62-1.125.87a7.13 7.13 0 0 1-1.118.638 5.518 5.518 0 0 1-1.23.39 7.57 7.57 0 0 1-1.447.127c-.71 0-1.355-.092-1.935-.277a4.037 4.037 0 0 1-1.477-.818 3.595 3.595 0 0 1-.938-1.343c-.22-.535-.33-1.152-.33-1.852 0-.55.14-1.115.42-1.695.28-.58.765-1.107 1.455-1.582.69-.476 1.62-.873 2.79-1.193 1.17-.32 2.645-.5 4.425-.54v-.66c0-.91-.187-1.567-.563-1.972-.375-.406-.907-.608-1.597-.608-.55 0-1 .06-1.35.18-.35.12-.662.255-.938.405-.275.15-.542.285-.802.405-.26.12-.57.18-.93.18-.32 0-.592-.077-.817-.233a1.727 1.727 0 0 1-.533-.577l-.84-1.455a9.456 9.456 0 0 1 3.127-1.853c1.146-.405 2.373-.607 3.683-.607.94 0 1.787.152 2.543.458.755.305 1.394.73 1.92 1.275a5.571 5.571 0 0 1 1.207 1.942c.28.75.42 1.57.42 2.46V116h-2.13zm-5.34-2.835c.6 0 1.125-.105 1.575-.315.45-.21.905-.55 1.365-1.02v-2.16c-.93.04-1.695.12-2.295.24-.6.12-1.075.27-1.425.45-.35.18-.592.385-.727.615-.136.23-.203.48-.203.75 0 .53.145.902.435 1.118.29.215.715.322 1.275.322zm15.57-19.62V116h-4.65V93.545h4.65zm8.55 0V116h-4.65V93.545H179zm25.41.6v4.02h-6.15V116h-5.07V98.165h-6.15v-4.02h17.37zM213.65 116c-.44 0-.772-.06-.998-.18-.225-.12-.412-.37-.562-.75l-.33-.855c-.39.33-.765.62-1.125.87a7.13 7.13 0 0 1-1.117.638 5.518 5.518 0 0 1-1.23.39 7.57 7.57 0 0 1-1.448.127c-.71 0-1.355-.092-1.935-.277a4.037 4.037 0 0 1-1.477-.818 3.595 3.595 0 0 1-.938-1.343c-.22-.535-.33-1.152-.33-1.852 0-.55.14-1.115.42-1.695.28-.58.765-1.107 1.455-1.582.69-.476 1.62-.873 2.79-1.193 1.17-.32 2.645-.5 4.425-.54v-.66c0-.91-.187-1.567-.563-1.972-.375-.406-.907-.608-1.597-.608-.55 0-1 .06-1.35.18-.35.12-.662.255-.938.405-.275.15-.542.285-.802.405-.26.12-.57.18-.93.18-.32 0-.592-.077-.817-.233a1.727 1.727 0 0 1-.533-.577l-.84-1.455a9.456 9.456 0 0 1 3.127-1.853c1.146-.405 2.373-.607 3.683-.607.94 0 1.787.152 2.542.458.756.305 1.395.73 1.92 1.275a5.571 5.571 0 0 1 1.208 1.942c.28.75.42 1.57.42 2.46V116h-2.13zm-5.34-2.835c.6 0 1.125-.105 1.575-.315.45-.21.905-.55 1.365-1.02v-2.16c-.93.04-1.695.12-2.295.24-.6.12-1.075.27-1.425.45-.35.18-.592.385-.727.615-.136.23-.203.48-.203.75 0 .53.145.902.435 1.118.29.215.715.322 1.275.322zm15.57-19.62V116h-4.65V93.545h4.65zm8.4 0v12.585h.69c.29 0 .512-.04.667-.12.156-.08.303-.225.443-.435l2.94-4.38c.17-.26.372-.45.607-.57.236-.12.533-.18.893-.18h4.26l-4.02 5.535c-.19.26-.397.49-.623.69-.225.2-.467.38-.727.54.45.34.84.79 1.17 1.35l4.38 7.44h-4.2c-.35 0-.652-.057-.907-.172-.256-.116-.463-.318-.623-.608l-2.94-5.505c-.14-.25-.285-.413-.435-.487-.15-.075-.375-.113-.675-.113h-.9V116h-4.65V93.545h4.65z"/>
    </g>
</svg>
