<svg width="14" height="13" viewBox="0 0 14 13" fill="none" xmlns="http://www.w3.org/2000/svg">
<path d="M4.5 1C4.30078 1 4.11719 1.12109 4.03906 1.30469L2.04297 5H0.5C0.222656 5 0 5.22266 0 5.5V7.5C0 7.77734 0.222656 8 0.5 8H1.08984L1.85156 11.7969C1.98828 12.4922 2.60938 13 3.32031 13H10.6797C11.3906 13 12.0117 12.4922 12.1523 11.7969L12.9102 8H13.5C13.7773 8 14 7.77734 14 7.5V5.5C14 5.22266 13.7773 5 13.5 5H11.957L9.96094 1.30469C9.88281 1.12109 9.69922 1 9.5 1H4.5ZM4.82812 2H5.5H6.5H7.5H8.5H9.17188L10.8711 5H3.13281L4.82812 2ZM1 6H13V7H12.5C12.2617 7 12.0547 7.16797 12.0117 7.40234L11.1719 11.5977C11.1211 11.8359 10.9219 12 10.6797 12H3.32031C3.07812 12 2.87891 11.8359 2.82812 11.5977L1.99219 7.40234C1.94531 7.16797 1.73828 7 1.5 7H1V6ZM4 7V11H10V7H4ZM5 8H9V10H5V8Z" fill="black"/>
<path d="M5.5 2V2.5H6.5V2H5.5Z" fill="black"/>
<path d="M7.5 2.5H8.5V2H7.5V2.5Z" fill="black"/>
<path d="M5.5 0.5V1H6.5V0.5H5.5Z" fill="black"/>
<path d="M7.5 1H8.5V0.5H7.5V1Z" fill="black"/>
</svg>
