<svg width="16" height="16" viewBox="0 0 16 16" fill="none" xmlns="http://www.w3.org/2000/svg">
<path d="M11.3333 1.33203V8.66536M14.6666 6.53203V3.46536C14.6666 2.71863 14.6666 2.34526 14.5213 2.06004C14.3935 1.80916 14.1895 1.60519 13.9386 1.47736C13.6534 1.33203 13.28 1.33203 12.5333 1.33203H5.41196C4.43764 1.33203 3.95048 1.33203 3.55701 1.51032C3.21022 1.66746 2.91549 1.92031 2.70745 2.23917C2.4714 2.60096 2.39732 3.08246 2.24917 4.04545L1.90045 6.31211C1.70505 7.58224 1.60735 8.2173 1.79582 8.71145C1.96125 9.14516 2.27239 9.50783 2.6759 9.73728C3.13564 9.9987 3.77818 9.9987 5.06324 9.9987H5.59995C5.97332 9.9987 6.16001 9.9987 6.30261 10.0714C6.42806 10.1353 6.53004 10.2373 6.59396 10.3627C6.66662 10.5053 6.66662 10.692 6.66662 11.0654V13.0215C6.66662 13.9294 7.40262 14.6654 8.31051 14.6654C8.52706 14.6654 8.7233 14.5378 8.81125 14.3399L11.0518 9.29882C11.1537 9.06953 11.2046 8.95489 11.2852 8.87082C11.3563 8.79652 11.4438 8.7397 11.5406 8.70482C11.6501 8.66536 11.7756 8.66536 12.0265 8.66536H12.5333C13.28 8.66536 13.6534 8.66536 13.9386 8.52004C14.1895 8.39221 14.3935 8.18823 14.5213 7.93735C14.6666 7.65214 14.6666 7.27877 14.6666 6.53203Z" stroke="#806D16" stroke-linecap="round" stroke-linejoin="round"/>
</svg>
