<svg width="16" height="16" viewBox="0 0 16 16" fill="none" xmlns="http://www.w3.org/2000/svg">
<path d="M4.66659 14.6654V7.33203M1.33325 8.66536V13.332C1.33325 14.0684 1.93021 14.6654 2.66659 14.6654H11.6174C12.6046 14.6654 13.4441 13.9451 13.5942 12.9695L14.3121 8.30281C14.4985 7.0913 13.5611 5.9987 12.3354 5.9987H9.99992C9.63173 5.9987 9.33325 5.70022 9.33325 5.33203V2.97592C9.33325 2.06803 8.59726 1.33203 7.68936 1.33203C7.47281 1.33203 7.27657 1.45956 7.18862 1.65745L4.84254 6.93612C4.73554 7.17688 4.4968 7.33203 4.23334 7.33203H2.66659C1.93021 7.33203 1.33325 7.92899 1.33325 8.66536Z" stroke="#806D16" stroke-linecap="round" stroke-linejoin="round"/>
</svg>
