<svg width="14" height="14" viewBox="0 0 14 14" fill="none" xmlns="http://www.w3.org/2000/svg">
<path fill-rule="evenodd" clip-rule="evenodd" d="M3.64616 12.859H1.45866C1.26499 12.859 1.08008 12.782 0.942992 12.6455C0.806492 12.509 0.729492 12.3235 0.729492 12.1299V5.97511C0.729492 5.78145 0.806492 5.59653 0.942992 5.45945C1.08008 5.32295 1.26499 5.24595 1.45866 5.24595H3.64616V12.859ZM4.52116 4.36511L6.40241 1.79961C6.70516 1.38778 7.18524 1.14453 7.69624 1.14453H7.78374C8.25799 1.14453 8.70774 1.35395 9.01224 1.71736C9.31732 2.0802 9.44566 2.5597 9.36341 3.02636L9.00291 5.07503C8.99591 5.11703 9.00757 5.16078 9.03499 5.19403C9.06299 5.2267 9.10382 5.24595 9.14699 5.24595H11.6617C12.1605 5.24595 12.6307 5.47695 12.9352 5.87128C13.2402 6.26561 13.3447 6.77895 13.2192 7.26136L12.0724 11.6562C11.8875 12.3649 11.2476 12.859 10.5155 12.859H4.52116V4.36511Z" fill="#FAE29B"/>
</svg>
