<svg width="14" height="12" viewBox="0 0 14 12" fill="none" xmlns="http://www.w3.org/2000/svg">
<path fill-rule="evenodd" clip-rule="evenodd" d="M10.3541 0.142921L12.5416 0.142921C12.7353 0.142921 12.9202 0.219922 13.0573 0.356422C13.1938 0.492923 13.2708 0.678422 13.2708 0.872088L13.2708 7.02684C13.2708 7.22051 13.1938 7.40542 13.0573 7.54251C12.9202 7.67901 12.7353 7.75601 12.5416 7.75601L10.3541 7.75601L10.3541 0.142921ZM9.47909 8.63684L7.59784 11.2023C7.29509 11.6142 6.815 11.8574 6.304 11.8574L6.2165 11.8574C5.74225 11.8574 5.2925 11.648 4.988 11.2846C4.68292 10.9218 4.55459 10.4423 4.63684 9.97559L4.99734 7.92692C5.00434 7.88492 4.99267 7.84117 4.96525 7.80792C4.93725 7.77525 4.89642 7.75601 4.85325 7.75601L2.3385 7.756C1.83975 7.756 1.36959 7.525 1.06509 7.13067C0.760004 6.73634 0.655588 6.223 0.781004 5.74059L1.92784 1.34575C2.11275 0.637004 2.75267 0.142921 3.48475 0.142921L9.47909 0.142921L9.47909 8.63684Z" fill="#D9435F"/>
</svg>
