<svg width="12" height="12" viewBox="0 0 12 12" fill="none" xmlns="http://www.w3.org/2000/svg">
<path d="M1.33333 0.666667C1.33333 0.298477 1.03486 0 0.666667 0C0.298477 0 7.44955e-08 0.298477 7.44955e-08 0.666667V1.62961C-4.21874e-06 2.72463 -7.59959e-06 3.58728 0.0567112 4.28148C0.114576 4.98972 0.234783 5.58115 0.508637 6.11862C0.956046 6.99671 1.66995 7.71062 2.54804 8.15803C3.08551 8.43188 3.67695 8.55209 4.38519 8.60996C5.0794 8.66668 5.94203 8.66667 7.03706 8.66667H9.72386L7.5286 10.8619C7.26825 11.1223 7.26825 11.5444 7.5286 11.8047C7.78895 12.0651 8.21106 12.0651 8.47141 11.8047L11.8047 8.47141C12.0651 8.21106 12.0651 7.78895 11.8047 7.5286L8.47141 4.19526C8.21106 3.93491 7.78895 3.93491 7.5286 4.19526C7.26825 4.45561 7.26825 4.87772 7.5286 5.13807L9.72386 7.33333H7.06667C5.93556 7.33333 5.12733 7.33282 4.49376 7.28105C3.86798 7.22992 3.47154 7.13214 3.15337 6.97002C2.52616 6.65044 2.01622 6.14051 1.69665 5.5133C1.53453 5.19512 1.43674 4.79869 1.38562 4.1729C1.33385 3.53934 1.33333 2.73111 1.33333 1.6V0.666667Z" fill="#777A80"/>
</svg>
