<svg width="95" height="16" viewBox="0 0 95 16" fill="none" xmlns="http://www.w3.org/2000/svg">
<path d="M6.46585 2.91729C6.15106 2.91729 5.89587 2.66211 5.89587 2.34732C5.89587 2.05002 6.12349 1.80588 6.41397 1.77967L6.46585 1.77734H9.6957C10.0105 1.77734 10.2657 2.03253 10.2657 2.34732C10.2657 2.64462 10.0381 2.88875 9.74758 2.91496L9.6957 2.91729H6.46585Z" fill="#9AA0A6"/>
<path d="M5.08841 4.67524C5.08841 4.99003 5.34359 5.24522 5.65838 5.24522H10.5032L10.555 5.24289C10.8455 5.21668 11.0731 4.97254 11.0731 4.67524C11.0731 4.36045 10.818 4.10527 10.5032 4.10527H5.65838L5.6065 4.1076C5.31603 4.1338 5.08841 4.37794 5.08841 4.67524Z" fill="#9AA0A6"/>
<path d="M5.08841 9.97073C5.08841 10.2855 5.34359 10.5407 5.65838 10.5407H10.5032L10.555 10.5384C10.8455 10.5122 11.0731 10.268 11.0731 9.97073C11.0731 9.65594 10.818 9.40075 10.5032 9.40075L5.65838 9.40075L5.6065 9.40308C5.31603 9.42929 5.08841 9.67343 5.08841 9.97073Z" fill="#9AA0A6"/>
<path fill-rule="evenodd" clip-rule="evenodd" d="M4.04345 14.2218H12.1181C12.8789 14.2218 13.4955 13.6052 13.4955 12.844V7.99996C13.4955 7.23868 12.8789 6.62213 12.1181 6.62213H4.04345C3.28269 6.62213 2.66602 7.23868 2.66602 7.99996V12.844C2.66602 13.6052 3.28269 14.2218 4.04345 14.2218ZM12.1181 13.0818H4.04345C3.91222 13.0818 3.80596 12.9756 3.80596 12.844V7.99996C3.80596 7.86831 3.91222 7.76208 4.04345 7.76208H12.1181C12.2493 7.76208 12.3556 7.86831 12.3556 7.99996V12.844C12.3556 12.9756 12.2493 13.0818 12.1181 13.0818Z" fill="#9AA0A6"/>
<path d="M21.5159 12H20.3511L22.9683 4.72727H24.2361L26.8532 12H25.6885L23.6324 6.0483H23.5756L21.5159 12ZM21.7112 9.15199H25.4896V10.0753H21.7112V9.15199ZM28.8801 8.76136V12H27.8183V6.54545H28.8374V7.43324H28.9049C29.0304 7.14441 29.2269 6.91241 29.4944 6.73722C29.7643 6.56203 30.104 6.47443 30.5136 6.47443C30.8853 6.47443 31.2108 6.55256 31.4901 6.70881C31.7695 6.86269 31.9861 7.09233 32.14 7.39773C32.2939 7.70312 32.3708 8.08073 32.3708 8.53054V12H31.309V8.65838C31.309 8.26302 31.2061 7.95407 31.0001 7.73153C30.7941 7.50663 30.5112 7.39418 30.1514 7.39418C29.9052 7.39418 29.6862 7.44744 29.4944 7.55398C29.305 7.66051 29.1547 7.81676 29.0434 8.02273C28.9345 8.22633 28.8801 8.47254 28.8801 8.76136ZM37.8822 7.87713L36.9198 8.04759C36.8796 7.92448 36.8157 7.80729 36.7281 7.69602C36.6428 7.58475 36.5268 7.49361 36.3801 7.42259C36.2333 7.35156 36.0498 7.31605 35.8296 7.31605C35.529 7.31605 35.278 7.38352 35.0768 7.51847C34.8756 7.65104 34.7749 7.82268 34.7749 8.03338C34.7749 8.21567 34.8424 8.36245 34.9774 8.47372C35.1123 8.58499 35.3301 8.67614 35.6308 8.74716L36.4972 8.94602C36.9991 9.06203 37.3732 9.24077 37.6194 9.48224C37.8656 9.72372 37.9887 10.0374 37.9887 10.4233C37.9887 10.75 37.894 11.0412 37.7046 11.2969C37.5176 11.5502 37.256 11.7491 36.9198 11.8935C36.586 12.0379 36.199 12.1101 35.7586 12.1101C35.1478 12.1101 34.6495 11.9799 34.2636 11.7195C33.8777 11.4567 33.641 11.0838 33.5534 10.6009L34.5796 10.4446C34.6436 10.7121 34.7749 10.9145 34.9738 11.0518C35.1727 11.1868 35.4319 11.2543 35.7515 11.2543C36.0995 11.2543 36.3777 11.1821 36.586 11.0376C36.7944 10.8909 36.8985 10.7121 36.8985 10.5014C36.8985 10.331 36.8346 10.1877 36.7068 10.0717C36.5813 9.95573 36.3883 9.86813 36.1279 9.80895L35.2046 9.60653C34.6956 9.49053 34.3192 9.30587 34.0754 9.05256C33.8339 8.79924 33.7132 8.47846 33.7132 8.0902C33.7132 7.76823 33.8031 7.48651 33.983 7.24503C34.163 7.00355 34.4115 6.81534 34.7288 6.6804C35.046 6.54309 35.4094 6.47443 35.819 6.47443C36.4085 6.47443 36.8725 6.60227 37.211 6.85795C37.5496 7.11127 37.7733 7.45099 37.8822 7.87713ZM40.3387 12L38.7336 6.54545H39.8309L40.8998 10.5511H40.953L42.0255 6.54545H43.1228L44.1881 10.5334H44.2414L45.3032 6.54545H46.4005L44.7989 12H43.7158L42.6079 8.06179H42.5262L41.4182 12H40.3387ZM49.593 12.1101C49.0555 12.1101 48.5927 11.9953 48.2045 11.7656C47.8186 11.5336 47.5203 11.2081 47.3096 10.7891C47.1012 10.3677 46.9971 9.87405 46.9971 9.30824C46.9971 8.74953 47.1012 8.2571 47.3096 7.83097C47.5203 7.40483 47.8138 7.07221 48.1903 6.8331C48.569 6.59399 49.0117 6.47443 49.5184 6.47443C49.8261 6.47443 50.1244 6.52533 50.4133 6.62713C50.7021 6.72893 50.9613 6.88873 51.191 7.10653C51.4206 7.32434 51.6017 7.60724 51.7343 7.95526C51.8669 8.3009 51.9332 8.72112 51.9332 9.21591V9.59233H47.5972V8.79688H50.8927C50.8927 8.51752 50.8358 8.27012 50.7222 8.05469C50.6086 7.83688 50.4488 7.66525 50.2428 7.53977C50.0392 7.4143 49.8001 7.35156 49.5255 7.35156C49.2272 7.35156 48.9668 7.42495 48.7442 7.57173C48.5241 7.71615 48.3536 7.90554 48.2329 8.13991C48.1145 8.37192 48.0553 8.62405 48.0553 8.89631V9.51776C48.0553 9.88234 48.1192 10.1925 48.2471 10.4482C48.3773 10.7038 48.5584 10.8991 48.7904 11.0341C49.0224 11.1667 49.2935 11.233 49.6036 11.233C49.8048 11.233 49.9883 11.2045 50.154 11.1477C50.3198 11.0885 50.463 11.0009 50.5837 10.8849C50.7045 10.7689 50.7968 10.6257 50.8607 10.4553L51.8657 10.6364C51.7852 10.9323 51.6408 11.1915 51.4324 11.4141C51.2265 11.6342 50.9672 11.8059 50.6547 11.929C50.3446 12.0497 49.9907 12.1101 49.593 12.1101ZM53.1112 12V6.54545H54.1375V7.41193H54.1943C54.2938 7.11837 54.469 6.88755 54.7199 6.71946C54.9732 6.54901 55.2597 6.46378 55.5793 6.46378C55.6456 6.46378 55.7237 6.46615 55.8137 6.47088C55.906 6.47562 55.9782 6.48153 56.0303 6.48864V7.50426C55.9877 7.49242 55.9119 7.4794 55.803 7.4652C55.6941 7.44863 55.5852 7.44034 55.4763 7.44034C55.2253 7.44034 55.0016 7.49361 54.8051 7.60014C54.611 7.70431 54.4571 7.84991 54.3435 8.03693C54.2298 8.22159 54.173 8.43229 54.173 8.66903V12H53.1112ZM59.1047 12.1101C58.5673 12.1101 58.1044 11.9953 57.7162 11.7656C57.3303 11.5336 57.032 11.2081 56.8213 10.7891C56.613 10.3677 56.5088 9.87405 56.5088 9.30824C56.5088 8.74953 56.613 8.2571 56.8213 7.83097C57.032 7.40483 57.3256 7.07221 57.702 6.8331C58.0808 6.59399 58.5235 6.47443 59.0301 6.47443C59.3379 6.47443 59.6362 6.52533 59.925 6.62713C60.2138 6.72893 60.473 6.88873 60.7027 7.10653C60.9323 7.32434 61.1134 7.60724 61.246 7.95526C61.3786 8.3009 61.4449 8.72112 61.4449 9.21591V9.59233H57.1089V8.79688H60.4044C60.4044 8.51752 60.3476 8.27012 60.2339 8.05469C60.1203 7.83688 59.9605 7.66525 59.7545 7.53977C59.5509 7.4143 59.3118 7.35156 59.0372 7.35156C58.7389 7.35156 58.4785 7.42495 58.2559 7.57173C58.0358 7.71615 57.8653 7.90554 57.7446 8.13991C57.6262 8.37192 57.567 8.62405 57.567 8.89631V9.51776C57.567 9.88234 57.6309 10.1925 57.7588 10.4482C57.889 10.7038 58.0701 10.8991 58.3021 11.0341C58.5341 11.1667 58.8052 11.233 59.1153 11.233C59.3166 11.233 59.5 11.2045 59.6657 11.1477C59.8315 11.0885 59.9747 11.0009 60.0954 10.8849C60.2162 10.7689 60.3085 10.6257 60.3724 10.4553L61.3774 10.6364C61.2969 10.9323 61.1525 11.1915 60.9442 11.4141C60.7382 11.6342 60.479 11.8059 60.1665 11.929C59.8563 12.0497 59.5024 12.1101 59.1047 12.1101ZM64.6649 12.1065C64.2245 12.1065 63.8315 11.9941 63.4859 11.7692C63.1426 11.5419 62.8727 11.2187 62.6762 10.7997C62.4821 10.3783 62.385 9.87287 62.385 9.28338C62.385 8.69389 62.4833 8.18963 62.6798 7.7706C62.8786 7.35156 63.1509 7.03078 63.4965 6.80824C63.8422 6.5857 64.234 6.47443 64.672 6.47443C65.0105 6.47443 65.2828 6.53125 65.4887 6.64489C65.6971 6.75616 65.858 6.88636 65.9717 7.03551C66.0877 7.18466 66.1776 7.31605 66.2416 7.42969H66.3055V4.72727H67.3673V12H66.3303V11.1513H66.2416C66.1776 11.2673 66.0853 11.3999 65.9646 11.549C65.8462 11.6982 65.6829 11.8284 65.4745 11.9396C65.2662 12.0509 64.9963 12.1065 64.6649 12.1065ZM64.8992 11.201C65.2046 11.201 65.4627 11.1205 65.6734 10.9595C65.8865 10.7962 66.0474 10.5701 66.1563 10.2812C66.2676 9.99242 66.3232 9.65625 66.3232 9.27273C66.3232 8.89394 66.2688 8.5625 66.1599 8.27841C66.051 7.99432 65.8912 7.77296 65.6805 7.61435C65.4698 7.45573 65.2094 7.37642 64.8992 7.37642C64.5796 7.37642 64.3133 7.45928 64.1002 7.625C63.8872 7.79072 63.7262 8.01681 63.6173 8.30327C63.5107 8.58973 63.4575 8.91288 63.4575 9.27273C63.4575 9.63731 63.5119 9.9652 63.6208 10.2564C63.7297 10.5476 63.8907 10.7784 64.1038 10.9489C64.3192 11.117 64.5844 11.201 64.8992 11.201ZM71.6144 12V4.72727H72.6762V7.42969H72.7401C72.8017 7.31605 72.8905 7.18466 73.0065 7.03551C73.1225 6.88636 73.2835 6.75616 73.4894 6.64489C73.6954 6.53125 73.9677 6.47443 74.3062 6.47443C74.7465 6.47443 75.1395 6.5857 75.4852 6.80824C75.8308 7.03078 76.1019 7.35156 76.2984 7.7706C76.4972 8.18963 76.5967 8.69389 76.5967 9.28338C76.5967 9.87287 76.4984 10.3783 76.3019 10.7997C76.1054 11.2187 75.8356 11.5419 75.4923 11.7692C75.149 11.9941 74.7572 12.1065 74.3169 12.1065C73.9854 12.1065 73.7143 12.0509 73.5036 11.9396C73.2953 11.8284 73.132 11.6982 73.0136 11.549C72.8952 11.3999 72.8041 11.2673 72.7401 11.1513H72.6514V12H71.6144ZM72.6549 9.27273C72.6549 9.65625 72.7106 9.99242 72.8218 10.2812C72.9331 10.5701 73.0941 10.7962 73.3048 10.9595C73.5155 11.1205 73.7735 11.201 74.0789 11.201C74.3962 11.201 74.6613 11.117 74.8744 10.9489C75.0874 10.7784 75.2484 10.5476 75.3573 10.2564C75.4686 9.9652 75.5242 9.63731 75.5242 9.27273C75.5242 8.91288 75.4698 8.58973 75.3609 8.30327C75.2544 8.01681 75.0934 7.79072 74.8779 7.625C74.6649 7.45928 74.3985 7.37642 74.0789 7.37642C73.7712 7.37642 73.5107 7.45573 73.2977 7.61435C73.087 7.77296 72.9272 7.99432 72.8183 8.27841C72.7094 8.5625 72.6549 8.89394 72.6549 9.27273ZM78.2746 14.0455C78.116 14.0455 77.9716 14.0324 77.8414 14.0064C77.7111 13.9827 77.6141 13.9567 77.5502 13.9283L77.8058 13.0582C78 13.1103 78.1728 13.1328 78.3243 13.1257C78.4758 13.1186 78.6096 13.0618 78.7256 12.9553C78.844 12.8487 78.9481 12.6747 79.0381 12.4332L79.1695 12.071L77.1737 6.54545H78.3101L79.6915 10.7784H79.7483L81.1297 6.54545H82.2696L80.0218 12.728C79.9176 13.0121 79.785 13.2524 79.624 13.4489C79.463 13.6477 79.2713 13.7969 79.0487 13.8963C78.8262 13.9957 78.5682 14.0455 78.2746 14.0455ZM86.6135 12H85.4488L88.066 4.72727H89.3337L91.9509 12H90.7861L88.73 6.0483H88.6732L86.6135 12ZM86.8089 9.15199H90.5873V10.0753H86.8089V9.15199ZM94.0985 4.72727V12H93.0012V4.72727H94.0985Z" fill="#9AA0A6"/>
</svg>
