<svg width="55" height="15" viewBox="0 0 55 15" fill="none" xmlns="http://www.w3.org/2000/svg">
<g clip-path="url(#clip0_127_8384)">
<path d="M17.5662 7.78509C16.908 7.12611 16.0149 6.75486 15.0828 6.75282C14.1507 6.75078 13.256 7.11816 12.5948 7.77424C13.0373 7.34112 13.6328 7.09952 14.2524 7.10171C14.8719 7.10395 15.4657 7.34977 15.9051 7.78601C16.3444 8.22224 16.594 8.81374 16.5997 9.43239C16.6055 10.051 16.3669 10.6471 15.9357 11.0914L15.9325 11.0946L15.9167 11.1109L15.8912 11.1359C15.2317 11.7969 14.3363 12.1693 13.4019 12.171C12.4675 12.1728 11.5707 11.8039 10.9087 11.1453C10.2467 10.4868 9.87376 9.59265 9.87198 8.65959C9.87019 7.72652 10.2397 6.83094 10.8992 6.16992C10.019 7.04763 9.5242 8.23858 9.52344 9.48067C9.52267 10.7228 10.0161 11.9143 10.8951 12.7931C11.7741 13.6719 12.9667 14.1661 14.2105 14.1668C15.4544 14.1676 16.6476 13.6749 17.5277 12.7972C17.5336 12.7917 17.5396 12.7863 17.545 12.7803L17.5668 12.7592L17.5739 12.7516C17.5836 12.7424 17.5929 12.7326 17.6021 12.7228L17.6146 12.7103C18.2537 12.0464 18.6067 11.1587 18.5976 10.2378C18.5886 9.31694 18.2183 8.43633 17.5662 7.78509Z" fill="url(#paint0_linear_127_8384)"/>
<path d="M16.3731 5.29962C15.4967 4.85077 14.5012 4.68867 13.5275 4.83629C12.5538 4.98391 11.6514 5.43377 10.948 6.12214L10.9323 6.13787L10.916 6.15412L10.8844 6.18559C10.2266 6.84829 9.85924 7.74484 9.86331 8.67796C9.86739 9.61107 10.2425 10.5044 10.9062 11.1613C11.5698 11.8183 12.4676 12.185 13.4021 12.1809C14.3365 12.1769 15.2311 11.8023 15.889 11.1396C15.4459 11.5782 14.8467 11.8233 14.2228 11.8213C13.5989 11.8193 13.0014 11.5702 12.5612 11.1288C12.121 10.6873 11.8741 10.0895 11.8747 9.46654C11.8752 8.84357 12.1233 8.24626 12.5644 7.80565L12.579 7.79154C13.2412 7.15216 14.1279 6.79721 15.0489 6.80271C15.97 6.80821 16.8523 7.17376 17.5068 7.82097C18.1613 8.46819 18.5359 9.34565 18.5503 10.2654C18.5648 11.185 18.218 12.0738 17.5841 12.7412C18.0974 12.2166 18.4802 11.5791 18.7017 10.8798C18.9231 10.1805 18.9772 9.43909 18.8594 8.71518C18.7415 7.99127 18.4552 7.30509 18.0234 6.71186C17.5915 6.11862 17.0262 5.6349 16.3731 5.29962Z" fill="#17A674"/>
<path d="M16.3731 5.29962C15.4967 4.85077 14.5012 4.68867 13.5275 4.83629C12.5538 4.98391 11.6514 5.43377 10.948 6.12214L10.9323 6.13787L10.916 6.15412L10.8844 6.18559C10.2266 6.84829 9.85924 7.74484 9.86331 8.67796C9.86739 9.61107 10.2425 10.5044 10.9062 11.1613C11.5698 11.8183 12.4676 12.185 13.4021 12.1809C14.3365 12.1769 15.2311 11.8023 15.889 11.1396C15.4459 11.5782 14.8467 11.8233 14.2228 11.8213C13.5989 11.8193 13.0014 11.5702 12.5612 11.1288C12.121 10.6873 11.8741 10.0895 11.8747 9.46654C11.8752 8.84357 12.1233 8.24626 12.5644 7.80565L12.579 7.79154C13.2412 7.15216 14.1279 6.79721 15.0489 6.80271C15.97 6.80821 16.8523 7.17376 17.5068 7.82097C18.1613 8.46819 18.5359 9.34565 18.5503 10.2654C18.5648 11.185 18.218 12.0738 17.5841 12.7412C18.0974 12.2166 18.4802 11.5791 18.7017 10.8798C18.9231 10.1805 18.9772 9.43909 18.8594 8.71518C18.7415 7.99127 18.4552 7.30509 18.0234 6.71186C17.5915 6.11862 17.0262 5.6349 16.3731 5.29962Z" fill="url(#paint1_linear_127_8384)"/>
<path d="M16.3731 5.29962C15.4967 4.85077 14.5012 4.68867 13.5275 4.83629C12.5538 4.98391 11.6514 5.43377 10.948 6.12214L10.9323 6.13787L10.916 6.15412L10.8844 6.18559C10.2266 6.84829 9.85924 7.74484 9.86331 8.67796C9.86739 9.61107 10.2425 10.5044 10.9062 11.1613C11.5698 11.8183 12.4676 12.185 13.4021 12.1809C14.3365 12.1769 15.2311 11.8023 15.889 11.1396C15.4459 11.5782 14.8467 11.8233 14.2228 11.8213C13.5989 11.8193 13.0014 11.5702 12.5612 11.1288C12.121 10.6873 11.8741 10.0895 11.8747 9.46654C11.8752 8.84357 12.1233 8.24626 12.5644 7.80565L12.579 7.79154C13.2412 7.15216 14.1279 6.79721 15.0489 6.80271C15.97 6.80821 16.8523 7.17376 17.5068 7.82097C18.1613 8.46819 18.5359 9.34565 18.5503 10.2654C18.5648 11.185 18.218 12.0738 17.5841 12.7412C18.0974 12.2166 18.4802 11.5791 18.7017 10.8798C18.9231 10.1805 18.9772 9.43909 18.8594 8.71518C18.7415 7.99127 18.4552 7.30509 18.0234 6.71186C17.5915 6.11862 17.0262 5.6349 16.3731 5.29962Z" fill="url(#paint2_linear_127_8384)"/>
<path d="M16.3731 5.29962C15.4967 4.85077 14.5012 4.68867 13.5275 4.83629C12.5538 4.98391 11.6514 5.43377 10.948 6.12214L10.9323 6.13787L10.916 6.15412L10.8844 6.18559C10.2266 6.84829 9.85924 7.74484 9.86331 8.67796C9.86739 9.61107 10.2425 10.5044 10.9062 11.1613C11.5698 11.8183 12.4676 12.185 13.4021 12.1809C14.3365 12.1769 15.2311 11.8023 15.889 11.1396C15.4459 11.5782 14.8467 11.8233 14.2228 11.8213C13.5989 11.8193 13.0014 11.5702 12.5612 11.1288C12.121 10.6873 11.8741 10.0895 11.8747 9.46654C11.8752 8.84357 12.1233 8.24626 12.5644 7.80565L12.579 7.79154C13.2412 7.15216 14.1279 6.79721 15.0489 6.80271C15.97 6.80821 16.8523 7.17376 17.5068 7.82097C18.1613 8.46819 18.5359 9.34565 18.5503 10.2654C18.5648 11.185 18.218 12.0738 17.5841 12.7412C18.0974 12.2166 18.4802 11.5791 18.7017 10.8798C18.9231 10.1805 18.9772 9.43909 18.8594 8.71518C18.7415 7.99127 18.4552 7.30509 18.0234 6.71186C17.5915 6.11862 17.0262 5.6349 16.3731 5.29962Z" fill="url(#paint3_linear_127_8384)"/>
<path d="M16.3731 5.29962C15.4967 4.85077 14.5012 4.68867 13.5275 4.83629C12.5538 4.98391 11.6514 5.43377 10.948 6.12214L10.9323 6.13787L10.916 6.15412L10.8844 6.18559C10.2266 6.84829 9.85924 7.74484 9.86331 8.67796C9.86739 9.61107 10.2425 10.5044 10.9062 11.1613C11.5698 11.8183 12.4676 12.185 13.4021 12.1809C14.3365 12.1769 15.2311 11.8023 15.889 11.1396C15.4459 11.5782 14.8467 11.8233 14.2228 11.8213C13.5989 11.8193 13.0014 11.5702 12.5612 11.1288C12.121 10.6873 11.8741 10.0895 11.8747 9.46654C11.8752 8.84357 12.1233 8.24626 12.5644 7.80565L12.579 7.79154C13.2412 7.15216 14.1279 6.79721 15.0489 6.80271C15.97 6.80821 16.8523 7.17376 17.5068 7.82097C18.1613 8.46819 18.5359 9.34565 18.5503 10.2654C18.5648 11.185 18.218 12.0738 17.5841 12.7412C18.0974 12.2166 18.4802 11.5791 18.7017 10.8798C18.9231 10.1805 18.9772 9.43909 18.8594 8.71518C18.7415 7.99127 18.4552 7.30509 18.0234 6.71186C17.5915 6.11862 17.0262 5.6349 16.3731 5.29962Z" fill="url(#paint4_linear_127_8384)"/>
<path d="M16.3731 5.29962C15.4967 4.85077 14.5012 4.68867 13.5275 4.83629C12.5538 4.98391 11.6514 5.43377 10.948 6.12214L10.9323 6.13787L10.916 6.15412L10.8844 6.18559C10.2266 6.84829 9.85924 7.74484 9.86331 8.67796C9.86739 9.61107 10.2425 10.5044 10.9062 11.1613C11.5698 11.8183 12.4676 12.185 13.4021 12.1809C14.3365 12.1769 15.2311 11.8023 15.889 11.1396C15.4459 11.5782 14.8467 11.8233 14.2228 11.8213C13.5989 11.8193 13.0014 11.5702 12.5612 11.1288C12.121 10.6873 11.8741 10.0895 11.8747 9.46654C11.8752 8.84357 12.1233 8.24626 12.5644 7.80565L12.579 7.79154C13.2412 7.15216 14.1279 6.79721 15.0489 6.80271C15.97 6.80821 16.8523 7.17376 17.5068 7.82097C18.1613 8.46819 18.5359 9.34565 18.5503 10.2654C18.5648 11.185 18.218 12.0738 17.5841 12.7412C18.0974 12.2166 18.4802 11.5791 18.7017 10.8798C18.9231 10.1805 18.9772 9.43909 18.8594 8.71518C18.7415 7.99127 18.4552 7.30509 18.0234 6.71186C17.5915 6.11862 17.0262 5.6349 16.3731 5.29962Z" fill="url(#paint5_linear_127_8384)"/>
<path d="M16.3731 5.29962C15.4967 4.85077 14.5012 4.68867 13.5275 4.83629C12.5538 4.98391 11.6514 5.43377 10.948 6.12214L10.9323 6.13787L10.916 6.15412L10.8844 6.18559C10.2266 6.84829 9.85924 7.74484 9.86331 8.67796C9.86739 9.61107 10.2425 10.5044 10.9062 11.1613C11.5698 11.8183 12.4676 12.185 13.4021 12.1809C14.3365 12.1769 15.2311 11.8023 15.889 11.1396C15.4459 11.5782 14.8467 11.8233 14.2228 11.8213C13.5989 11.8193 13.0014 11.5702 12.5612 11.1288C12.121 10.6873 11.8741 10.0895 11.8747 9.46654C11.8752 8.84357 12.1233 8.24626 12.5644 7.80565L12.579 7.79154C13.2412 7.15216 14.1279 6.79721 15.0489 6.80271C15.97 6.80821 16.8523 7.17376 17.5068 7.82097C18.1613 8.46819 18.5359 9.34565 18.5503 10.2654C18.5648 11.185 18.218 12.0738 17.5841 12.7412C18.0974 12.2166 18.4802 11.5791 18.7017 10.8798C18.9231 10.1805 18.9772 9.43909 18.8594 8.71518C18.7415 7.99127 18.4552 7.30509 18.0234 6.71186C17.5915 6.11862 17.0262 5.6349 16.3731 5.29962Z" fill="url(#paint6_linear_127_8384)"/>
<path d="M46.5742 6.35586V8.57552C46.1289 9.16957 45.5376 9.37261 44.9457 9.37261C43.8924 9.37261 43.1582 8.48696 43.1582 7.47379C43.1582 6.44442 43.8924 5.54199 44.9457 5.54199C45.5376 5.54199 46.1289 5.74829 46.5742 6.35586Z" fill="#9CA3AF"/>
<path d="M52.8618 0.805664H40.7233C40.4424 0.805593 40.1642 0.861165 39.9046 0.969208C39.6451 1.07725 39.4092 1.23564 39.2106 1.43535C39.0119 1.63505 38.8544 1.87214 38.7468 2.13309C38.6393 2.39404 38.584 2.67373 38.584 2.95618V9.83657C40.1899 9.84303 41.4446 11.0749 41.4446 12.654C41.4472 13.1736 41.3067 13.6837 41.0386 14.1279H52.8618C53.4291 14.1274 53.973 13.9007 54.3738 13.4975C54.7746 13.0943 55.0002 12.5476 55.0007 11.9773V2.95834C55.0012 2.67574 54.9462 2.39583 54.8388 2.13463C54.7313 1.87343 54.574 1.63608 54.3753 1.43614C54.1767 1.2362 53.9404 1.07761 53.6812 0.969424C53.4215 0.861241 53.1429 0.805593 52.8618 0.805664ZM48.5806 11.0852H46.5751V10.5327C46.0423 10.8821 45.3934 11.0852 44.6152 11.0852C42.7101 11.0852 41.1664 9.48981 41.1664 7.47325C41.1664 5.4275 42.7101 3.84512 44.6152 3.84512C45.3918 3.84512 46.0423 4.04819 46.5751 4.39761V3.84512H48.5806V11.0852ZM52.4198 11.0852H50.4143V3.84512H52.4223L52.4198 11.0852Z" fill="#9CA3AF"/>
<path d="M6.0199 8.6633L9.62179 4.80674H6.27346L2.69146 8.68276V0.802734H0V14.1314H2.69146V12.2029L4.18354 10.6275L6.64084 14.1314H10.0278L6.0199 8.6633Z" fill="#9CA3AF"/>
<path d="M22.4836 5.98987V4.80176H19.834V14.1313H22.4836V8.65345C23.2473 7.81043 24.256 7.38866 25.6853 7.33305V4.80338C24.3328 4.80338 23.3027 5.22463 22.4836 5.98987Z" fill="#9CA3AF"/>
<path d="M34.9445 9.24489C34.9445 6.50624 33.0689 4.71484 30.5498 4.71484C27.7703 4.71484 25.877 6.69253 25.877 9.42797C25.877 12.0742 27.7886 14.1265 30.6196 14.1265C32.6999 14.1265 34.3547 12.9594 34.8322 11.2566H32.1687C31.8919 11.7012 31.3945 11.9236 30.6766 11.9236C29.2801 11.9236 28.5996 11.1097 28.3976 10.0739H34.8892C34.9292 9.79942 34.9478 9.52223 34.9445 9.24489ZM28.4137 8.55846C28.6538 7.56204 29.3333 6.83945 30.5654 6.83945C31.5961 6.83945 32.2589 7.45077 32.405 8.55846H28.4137Z" fill="#9CA3AF"/>
<path d="M38.5746 11.1895C37.7491 11.1895 37.0664 11.8202 37.0664 12.6508C37.0664 13.5004 37.7491 14.1311 38.5746 14.1311C39.42 14.1311 40.1027 13.5004 40.1027 12.6508C40.1027 11.8197 39.42 11.1895 38.5746 11.1895Z" fill="#9CA3AF"/>
<path d="M12.5566 7.81238L12.5686 7.80078C12.5654 7.80352 12.5625 7.80647 12.5598 7.8097L12.5566 7.81238Z" fill="url(#paint7_linear_127_8384)"/>
<path d="M17.4814 12.7618L17.4868 12.7559L17.4688 12.7741L17.4814 12.7618Z" fill="url(#paint8_linear_127_8384)"/>
</g>
<defs>
<linearGradient id="paint0_linear_127_8384" x1="10.4431" y1="12.3195" x2="18.2721" y2="7.12677" gradientUnits="userSpaceOnUse">
<stop stop-color="#8C8EFF"/>
<stop offset="0.549246" stop-color="#4B4EFC"/>
<stop offset="1" stop-color="#3D40F2"/>
</linearGradient>
<linearGradient id="paint1_linear_127_8384" x1="15.6898" y1="8.15841" x2="19.2195" y2="5.91018" gradientUnits="userSpaceOnUse">
<stop stop-color="#BFC527" stop-opacity="0"/>
<stop offset="1" stop-color="#BFC527"/>
</linearGradient>
<linearGradient id="paint2_linear_127_8384" x1="14.7465" y1="6.89132" x2="13.9086" y2="9.88852" gradientUnits="userSpaceOnUse">
<stop stop-color="#FEC412"/>
<stop offset="1" stop-color="#FEC412" stop-opacity="0"/>
</linearGradient>
<linearGradient id="paint3_linear_127_8384" x1="11.951" y1="9.22006" x2="16.6845" y2="9.35746" gradientUnits="userSpaceOnUse">
<stop stop-color="#E05063"/>
<stop offset="1" stop-color="#E05063" stop-opacity="0"/>
</linearGradient>
<linearGradient id="paint4_linear_127_8384" x1="12.0882" y1="10.4015" x2="14.5699" y2="7.14432" gradientUnits="userSpaceOnUse">
<stop stop-color="#AF348D"/>
<stop offset="1" stop-color="#AF348D" stop-opacity="0"/>
</linearGradient>
<linearGradient id="paint5_linear_127_8384" x1="14.7979" y1="11.7371" x2="13.4812" y2="7.24974" gradientUnits="userSpaceOnUse">
<stop stop-color="#3596D5"/>
<stop offset="1" stop-color="#3596D5" stop-opacity="0"/>
</linearGradient>
<linearGradient id="paint6_linear_127_8384" x1="17.9879" y1="12.148" x2="15.3672" y2="10.0378" gradientUnits="userSpaceOnUse">
<stop stop-color="#17A674"/>
<stop offset="1" stop-color="#17A674" stop-opacity="0"/>
</linearGradient>
<linearGradient id="paint7_linear_127_8384" x1="14.3315" y1="10.2984" x2="15.3172" y2="9.28027" gradientUnits="userSpaceOnUse">
<stop stop-color="#009DAB" stop-opacity="0"/>
<stop offset="1" stop-color="#009DAB"/>
</linearGradient>
<linearGradient id="paint8_linear_127_8384" x1="19.997" y1="10.1442" x2="15.6268" y2="14.6409" gradientUnits="userSpaceOnUse">
<stop offset="0.24" stop-color="#009DAB" stop-opacity="0"/>
<stop offset="1" stop-color="#009DAB"/>
</linearGradient>
<clipPath id="clip0_127_8384">
<rect width="55" height="13.3935" fill="white" transform="translate(0 0.802734)"/>
</clipPath>
</defs>
</svg>
