<?xml version="1.0" encoding="UTF-8"?>
<svg width="14px" height="12px" viewBox="0 0 14 12" version="1.1" xmlns="http://www.w3.org/2000/svg" xmlns:xlink="http://www.w3.org/1999/xlink">
    <!-- Generator: Sketch 53.2 (72643) - https://sketchapp.com -->
    <title>address-green</title>
    <desc>Created with Sketch.</desc>
    <g id="Page-1" stroke="none" stroke-width="1" fill="none" fill-rule="evenodd">
        <g id="address-green" transform="translate(-1.000000, -2.000000)" fill-rule="nonzero">
            <polygon id="Path" fill-opacity="0" fill="#D8D8D8" points="0 0 16 0 16 16 0 16"></polygon>
            <path d="M8,2 C6.35,2 5,3.35 5,5 C5,5.496 5.188,6.004 5.434,6.564 C5.642,7.037 5.904,7.528 6.17,8 L3.5,8 C3.296,8 3.112,8.124 3.036,8.314 L1.036,13.314 C0.974,13.469 0.993,13.644 1.086,13.781 C1.179,13.918 1.335,14.001 1.501,14 L14.501,14 C14.666,14 14.821,13.918 14.915,13.78 C15.008,13.643 15.027,13.469 14.965,13.314 L12.965,8.314 C12.889,8.124 12.705,8 12.501,8 L9.83,8 C10.097,7.528 10.358,7.037 10.566,6.564 C10.813,6.004 11,5.496 11,5 C11,3.35 9.65,2 8,2 Z M8,3 C9.11,3 10,3.89 10,5 C10,5.194 9.875,5.656 9.653,6.162 C9.43,6.668 9.126,7.239 8.819,7.768 C8.411,8.471 8.229,8.721 8.001,9.064 C7.772,8.721 7.591,8.471 7.182,7.768 C6.875,7.238 6.571,6.668 6.348,6.162 C6.126,5.656 6.001,5.194 6.001,5 C6.001,3.89 6.891,3 8.001,3 L8,3 Z M8,4 C7.448,4 7,4.448 7,5 C7,5.552 7.448,6 8,6 C8.553,6 9,5.552 9,5 C9,4.448 8.553,4 8,4 Z M3.839,9 L6.77,9 C7.21,9.71 7.588,10.283 7.588,10.283 L8.001,10.879 L8.413,10.283 C8.413,10.283 8.79,9.71 9.23,9 L12.162,9 L13.762,13 L2.238,13 L3.838,9 L3.839,9 Z" id="Shape" fill="#009DAB"></path>
        </g>
    </g>
</svg>