<?xml version="1.0" encoding="UTF-8"?>
<svg width="17px" height="19px" viewBox="0 0 17 19" version="1.1" xmlns="http://www.w3.org/2000/svg" xmlns:xlink="http://www.w3.org/1999/xlink">
    <!-- Generator: Sketch 53.2 (72643) - https://sketchapp.com -->
    <title>addList</title>
    <desc>Created with Sketch.</desc>
    <g id="Page-1" stroke="none" stroke-width="1" fill="none" fill-rule="evenodd">
        <g id="addList">
            <polygon id="Path" fill="#EAF6EC" fill-rule="nonzero" points="0.25 17.75 0.25 0.25 9.3965 0.25 13.75 4.6035 13.75 17.75"></polygon>
            <path d="M9.293,0.5 L13.5,4.707 L13.5,17.5 L0.5,17.5 L0.5,0.5 L9.293,0.5 Z M9.5,0 L0,0 L0,18 L14,18 L14,4.5 L9.5,0 Z" id="Shape" fill="#135423" fill-rule="nonzero"></path>
            <polygon id="Path" fill="#EAF6EC" fill-rule="nonzero" points="9.25 4.75 9.25 0.25 9.3965 0.25 13.75 4.6035 13.75 4.75"></polygon>
            <path d="M9.5,0.707 L13.293,4.5 L9.5,4.5 L9.5,0.707 Z M9.5,0 L9,0 L9,5 L14,5 L14,4.5 L9.5,0 Z" id="Shape" fill="#135423" fill-rule="nonzero"></path>
            <polygon id="Path" fill="#EAF6EC" fill-rule="nonzero" points="7.5 8.5 14 8.5 14 18 7.5 18"></polygon>
            <path d="M13.75,8 C13.8875,8 14,8.1125 14,8.25 L14,8.75 C14,8.8875 13.8875,9 13.75,9 C13.6125,9 13.5,8.8875 13.5,8.75 L13.5,8.25 C13.5,8.1125 13.6125,8 13.75,8 Z M7.25,18 L7.75,18 C7.8875,18 8,17.8875 8,17.75 C8,17.6125 7.8875,17.5 7.75,17.5 L7.25,17.5 C7.1125,17.5 7,17.6125 7,17.75 C7,17.8875 7.1125,18 7.25,18 Z M10.75,7.5 L4.75,7.5 C4.612,7.5 4.5,7.388 4.5,7.25 C4.5,7.112 4.612,7 4.75,7 L10.75,7 C10.888,7 11,7.112 11,7.25 C11,7.388 10.888,7.5 10.75,7.5 Z M8.75,9 L4.75,9 C4.612,9 4.5,8.888 4.5,8.75 C4.5,8.612 4.612,8.5 4.75,8.5 L8.75,8.5 C8.888,8.5 9,8.612 9,8.75 C9,8.888 8.888,9 8.75,9 Z M10.75,10.5 L4.75,10.5 C4.612,10.5 4.5,10.388 4.5,10.25 C4.5,10.112 4.612,10 4.75,10 L10.75,10 C10.888,10 11,10.112 11,10.25 C11,10.388 10.888,10.5 10.75,10.5 Z M10.75,13.5 L4.75,13.5 C4.612,13.5 4.5,13.388 4.5,13.25 C4.5,13.112 4.612,13 4.75,13 L10.75,13 C10.888,13 11,13.112 11,13.25 C11,13.388 10.888,13.5 10.75,13.5 Z M8.75,12 L4.75,12 C4.612,12 4.5,11.888 4.5,11.75 C4.5,11.612 4.612,11.5 4.75,11.5 L8.75,11.5 C8.888,11.5 9,11.612 9,11.75 C9,11.888 8.888,12 8.75,12 Z" id="Shape" fill="#135423" fill-rule="nonzero"></path>
            <path d="M11.0001,10.5 L11.0001,10 L9.8061,10 C9.5586,10.1485 9.3231,10.314 9.1041,10.5 L11.0001,10.5 Z M11.0001,13.5 L11.0001,13 L7.4706,13 C7.4221,13.1635 7.3811,13.33 7.3481,13.5 L11.0001,13.5 Z M9.0001,12 L9.0001,11.5 L8.1951,11.5 C8.0826,11.661 7.9766,11.8265 7.8826,12 L9.0001,12 Z" id="Shape" fill="#FCEAED" fill-rule="nonzero"></path>
            <path d="M12.5,18.75 C10.1565,18.75 8.25,16.8435 8.25,14.5 C8.25,12.1565 10.1565,10.25 12.5,10.25 C14.8435,10.25 16.75,12.1565 16.75,14.5 C16.75,16.8435 14.8435,18.75 12.5,18.75 Z" id="Path" fill="#93D3A2" fill-rule="nonzero"></path>
            <path d="M12.5,10.5 C14.7055,10.5 16.5,12.2945 16.5,14.5 C16.5,16.7055 14.7055,18.5 12.5,18.5 C10.2945,18.5 8.5,16.7055 8.5,14.5 C8.5,12.2945 10.2945,10.5 12.5,10.5 Z M12.5,10 C10.0145,10 8,12.0145 8,14.5 C8,16.9855 10.0145,19 12.5,19 C14.9855,19 17,16.9855 17,14.5 C17,12.0145 14.9855,10 12.5,10 Z" id="Shape" fill="#135423" fill-rule="nonzero"></path>
            <path d="M10,14.5 L15,14.5 L10,14.5 Z M12.5,17 L12.5,12 L12.5,17 Z" id="Shape" stroke="#EAF6EC"></path>
            <path d="M3.25,6.875 C3.15054,6.875 3.05516,6.91451 2.98484,6.98484 C2.91451,7.05516 2.875,7.15054 2.875,7.25 C2.875,7.34946 2.91451,7.44484 2.98484,7.51517 C3.05516,7.58549 3.15054,7.625 3.25,7.625 C3.34946,7.625 3.44484,7.58549 3.51516,7.51517 C3.58549,7.44484 3.625,7.34946 3.625,7.25 C3.625,7.15054 3.58549,7.05516 3.51516,6.98484 C3.44484,6.91451 3.34946,6.875 3.25,6.875 Z" id="Path" fill="#135423" fill-rule="nonzero"></path>
            <path d="M3.25,8.375 C3.15054,8.375 3.05516,8.41451 2.98484,8.48483 C2.91451,8.55516 2.875,8.65054 2.875,8.75 C2.875,8.84946 2.91451,8.94484 2.98484,9.0152 C3.05516,9.0855 3.15054,9.125 3.25,9.125 C3.34946,9.125 3.44484,9.0855 3.51516,9.0152 C3.58549,8.94484 3.625,8.84946 3.625,8.75 C3.625,8.65054 3.58549,8.55516 3.51516,8.48483 C3.44484,8.41451 3.34946,8.375 3.25,8.375 Z" id="Path" fill="#135423" fill-rule="nonzero"></path>
            <path d="M3.25,9.875 C3.15054,9.875 3.05516,9.9145 2.98484,9.9848 C2.91451,10.0552 2.875,10.1505 2.875,10.25 C2.875,10.3495 2.91451,10.4448 2.98484,10.5152 C3.05516,10.5855 3.15054,10.625 3.25,10.625 C3.34946,10.625 3.44484,10.5855 3.51516,10.5152 C3.58549,10.4448 3.625,10.3495 3.625,10.25 C3.625,10.1505 3.58549,10.0552 3.51516,9.9848 C3.44484,9.9145 3.34946,9.875 3.25,9.875 Z" id="Path" fill="#135423" fill-rule="nonzero"></path>
            <path d="M3.25,11.375 C3.15054,11.375 3.05516,11.4145 2.98484,11.4848 C2.91451,11.5552 2.875,11.6505 2.875,11.75 C2.875,11.8495 2.91451,11.9448 2.98484,12.0152 C3.05516,12.0855 3.15054,12.125 3.25,12.125 C3.34946,12.125 3.44484,12.0855 3.51516,12.0152 C3.58549,11.9448 3.625,11.8495 3.625,11.75 C3.625,11.6505 3.58549,11.5552 3.51516,11.4848 C3.44484,11.4145 3.34946,11.375 3.25,11.375 Z" id="Path" fill="#135423" fill-rule="nonzero"></path>
            <path d="M3.25,12.875 C3.15054,12.875 3.05516,12.9145 2.98484,12.9848 C2.91451,13.0552 2.875,13.1505 2.875,13.25 C2.875,13.3495 2.91451,13.4448 2.98484,13.5152 C3.05516,13.5855 3.15054,13.625 3.25,13.625 C3.34946,13.625 3.44484,13.5855 3.51516,13.5152 C3.58549,13.4448 3.625,13.3495 3.625,13.25 C3.625,13.1505 3.58549,13.0552 3.51516,12.9848 C3.44484,12.9145 3.34946,12.875 3.25,12.875 Z" id="Path" fill="#135423" fill-rule="nonzero"></path>
        </g>
    </g>
</svg>