<?xml version="1.0" encoding="UTF-8"?>
<svg width="18px" height="18px" viewBox="0 0 18 18" version="1.1" xmlns="http://www.w3.org/2000/svg" xmlns:xlink="http://www.w3.org/1999/xlink">
    <!-- Generator: Sketch 53.2 (72643) - https://sketchapp.com -->
    <title>circledPlay</title>
    <desc>Created with Sketch.</desc>
    <g id="Page-1" stroke="none" stroke-width="1" fill="none" fill-rule="evenodd">
        <g id="circledPlay" fill-rule="nonzero">
            <path d="M9,17.75 C4.1755,17.75 0.25,13.8245 0.25,9 C0.25,4.1755 4.1755,0.25 9,0.25 C13.8245,0.25 17.75,4.1755 17.75,9 C17.75,13.8245 13.8245,17.75 9,17.75 Z" id="Path" fill="#EAF6EC"></path>
            <path d="M9,0.50098 C13.687,0.50098 17.5,4.31398 17.5,9.001 C17.5,13.688 13.687,17.501 9,17.501 C4.313,17.501 0.5,13.688 0.5,9.001 C0.5,4.31398 4.313,0.50098 9,0.50098 Z M9,0.00098 C4.0295,0.00098 0,4.03048 0,9.001 C0,13.9715 4.0295,18.001 9,18.001 C13.9705,18.001 18,13.9715 18,9.001 C18,4.03048 13.9705,0.00098 9,0.00098 Z" id="Shape" fill="#135423"></path>
            <polygon id="Path" fill="#28A745" points="6.5 5.00098 6.5 13.001 13.5 9.001"></polygon>
        </g>
    </g>
</svg>