<?xml version="1.0" encoding="UTF-8"?>
<svg width="20px" height="20px" viewBox="0 0 20 20" version="1.1" xmlns="http://www.w3.org/2000/svg" xmlns:xlink="http://www.w3.org/1999/xlink">
    <!-- Generator: Sketch 53.2 (72643) - https://sketchapp.com -->
    <title>communication</title>
    <desc>Created with Sketch.</desc>
    <g id="Page-1" stroke="none" stroke-width="1" fill="none" fill-rule="evenodd">
        <g id="communication" fill-rule="nonzero">
            <path d="M19,19.2508 C17.95,19.1508 16.75,18.8508 15.6,18.3008 L15.5,18.2508 L15.4,18.3008 C14.55,18.6008 13.65,18.8008 12.75,18.8008 C9.15,18.8008 6.25,16.3508 6.25,13.3008 C6.25,10.2508 9.15,7.80078 12.75,7.80078 C16.35,7.80078 19.25,10.2508 19.25,13.3008 C19.25,14.5508 18.75,15.8008 17.8,16.8008 L17.7,16.9508 L17.8,17.1008 C18.15,17.8508 18.55,18.6008 19,19.2508 Z" id="Path" fill="#93D3A2"></path>
            <path d="M12.75,8 C16.2,8 19,10.35 19,13.25 C19,14.45 18.5,15.6 17.6,16.55 L17.35,16.8 L17.5,17.1 C17.8,17.75 18.15,18.35 18.5,18.9 C17.6,18.75 16.65,18.45 15.7,18 L15.5,17.95 L15.3,18.05 C14.5,18.35 13.65,18.5 12.75,18.5 C9.3,18.5 6.5,16.15 6.5,13.25 C6.5,10.35 9.3,8 12.75,8 Z M12.75,7.5 C9,7.5 6,10.05 6,13.25 C6,16.45 9,19 12.75,19 C13.75,19 14.65,18.8 15.5,18.5 C16.75,19.1 18.2,19.5 19.5,19.5 C18.9,18.75 18.4,17.8 17.95,16.9 C18.9,15.9 19.5,14.65 19.5,13.25 C19.5,10.05 16.5,7.5 12.75,7.5 Z" id="Shape" fill="#135423"></path>
            <path d="M0.999805,12.25 C1.4498,11.65 1.8498,10.9 2.2498,10.05 L2.3498,9.9 L2.2498,9.75 C1.2998,8.75 0.799805,7.55 0.799805,6.25 C0.799805,3.2 3.6998,0.75 7.2998,0.75 C10.8998,0.75 13.7998,3.2 13.7998,6.25 C13.7998,9.3 10.8998,11.75 7.2998,11.75 C6.3998,11.75 5.4998,11.6 4.6498,11.25 L4.4998,11.25 L4.3998,11.3 C3.2498,11.8 2.0498,12.15 0.999805,12.25 Z" id="Path" fill="#EAF6EC"></path>
            <path d="M7.25,1 C10.7,1 13.5,3.35 13.5,6.25 C13.5,9.15 10.7,11.5 7.25,11.5 C6.35,11.5 5.5,11.35 4.7,11.05 L4.5,10.95 L4.3,11.05 C3.35,11.5 2.4,11.8 1.5,11.9 C1.85,11.35 2.15,10.75 2.5,10.1 L2.65,9.8 L2.4,9.55 C1.5,8.6 1,7.45 1,6.25 C1,3.35 3.8,1 7.25,1 Z M7.25,0.5 C3.5,0.5 0.5,3.05 0.5,6.25 C0.5,7.65 1.1,8.9 2.05,9.9 C1.6,10.8 1.1,11.75 0.5,12.5 C1.8,12.5 3.25,12.1 4.5,11.5 C5.35,11.8 6.25,12 7.25,12 C11,12 14,9.45 14,6.25 C14,3.05 11,0.5 7.25,0.5 Z" id="Shape" fill="#135423"></path>
            <path d="M10.75,5 L3.75,5 C3.6,5 3.5,4.9 3.5,4.75 C3.5,4.6 3.6,4.5 3.75,4.5 L10.75,4.5 C10.9,4.5 11,4.6 11,4.75 C11,4.9 10.9,5 10.75,5 Z M10.75,8 L3.75,8 C3.6,8 3.5,7.9 3.5,7.75 C3.5,7.6 3.6,7.5 3.75,7.5 L10.75,7.5 C10.9,7.5 11,7.6 11,7.75 C11,7.9 10.9,8 10.75,8 Z M16.25,12 L9.25,12 C9.1,12 9,11.9 9,11.75 C9,11.6 9.1,11.5 9.25,11.5 L16.25,11.5 C16.4,11.5 16.5,11.6 16.5,11.75 C16.5,11.9 16.4,12 16.25,12 Z M16.25,15 L9.25,15 C9.1,15 9,14.9 9,14.75 C9,14.6 9.1,14.5 9.25,14.5 L16.25,14.5 C16.4,14.5 16.5,14.6 16.5,14.75 C16.5,14.9 16.4,15 16.25,15 Z" id="Shape" fill="#135423"></path>
        </g>
    </g>
</svg>