<?xml version="1.0" encoding="UTF-8"?>
<svg width="20px" height="18px" viewBox="0 0 20 18" version="1.1" xmlns="http://www.w3.org/2000/svg" xmlns:xlink="http://www.w3.org/1999/xlink">
    <!-- Generator: Sketch 53.2 (72643) - https://sketchapp.com -->
    <title>deleteMessage</title>
    <desc>Created with Sketch.</desc>
    <g id="Page-1" stroke="none" stroke-width="1" fill="none" fill-rule="evenodd">
        <g id="deleteMessage">
            <path d="M2.4465,16.2355 C2.84,15.5605 3.302,14.7355 3.7265,13.947 L3.826,13.762 L3.6615,13.632 C1.784,12.148 0.75,10.148 0.75,8 C0.75,3.7265 4.8995,0.25 10,0.25 C15.1005,0.25 19.25,3.7265 19.25,8 C19.25,12.2735 15.1005,15.75 10,15.75 C8.9135,15.75 7.8305,15.584 6.782,15.2575 L6.7005,15.232 L6.6205,15.262 C5.148,15.809 3.627,16.161 2.4465,16.2355 Z" id="Path" fill="#EAF6EC" fill-rule="nonzero"></path>
            <path d="M10,0.5 C14.9625,0.5 19,3.8645 19,8 C19,12.1355 14.9625,15.5 10,15.5 C8.9385,15.5 7.8805,15.338 6.8565,15.019 L6.6935,14.968 L6.5335,15.0275 C5.273,15.4955 3.9795,15.819 2.9035,15.943 C3.239,15.3575 3.6045,14.6995 3.9465,14.065 L4.1455,13.6955 L3.8165,13.4355 C2,12.0005 1,10.07 1,8 C1,3.8645 5.0375,0.5 10,0.5 Z M10,0 C4.7535,0 0.5,3.5815 0.5,8 C0.5,10.3005 1.66,12.3685 3.5065,13.828 C2.9735,14.8175 2.4185,15.798 2,16.5 C3.2985,16.5 5.086,16.0985 6.7075,15.4965 C7.735,15.8165 8.8405,16 10,16 C15.2465,16 19.5,12.4185 19.5,8 C19.5,3.5815 15.2465,0 10,0 Z" id="Shape" fill="#135423" fill-rule="nonzero"></path>
            <path d="M15.5,9.5 C17.7055,9.5 19.5,11.2945 19.5,13.5 C19.5,15.7055 17.7055,17.5 15.5,17.5 C13.2945,17.5 11.5,15.7055 11.5,13.5 C11.5,11.2945 13.2945,9.5 15.5,9.5 Z M15.5,9 C13.0145,9 11,11.0145 11,13.5 C11,15.9855 13.0145,18 15.5,18 C17.9855,18 20,15.9855 20,13.5 C20,11.0145 17.9855,9 15.5,9 Z" id="Shape" fill="#135423" fill-rule="nonzero"></path>
            <path d="M15.5,9.25 C14.3728,9.25 13.2918,9.6978 12.4948,10.4948 C11.6978,11.2918 11.25,12.3728 11.25,13.5 C11.25,14.6272 11.6978,15.7082 12.4948,16.5052 C13.2918,17.3022 14.3728,17.75 15.5,17.75 C16.6272,17.75 17.7082,17.3022 18.5052,16.5052 C19.3022,15.7082 19.75,14.6272 19.75,13.5 C19.75,12.3728 19.3022,11.2918 18.5052,10.4948 C17.7082,9.6978 16.6272,9.25 15.5,9.25 Z" id="Path" fill="#93D3A2" fill-rule="nonzero"></path>
            <path d="M15.5,9.5 C17.7055,9.5 19.5,11.2945 19.5,13.5 C19.5,15.7055 17.7055,17.5 15.5,17.5 C13.2945,17.5 11.5,15.7055 11.5,13.5 C11.5,11.2945 13.2945,9.5 15.5,9.5 Z M15.5,9 C13.0145,9 11,11.0145 11,13.5 C11,15.9855 13.0145,18 15.5,18 C17.9855,18 20,15.9855 20,13.5 C20,11.0145 17.9855,9 15.5,9 Z" id="Shape" fill="#135423" fill-rule="nonzero"></path>
            <polyline id="Path" stroke="#EAF6EC" points="13.4106 13.5122 14.7956 14.8967 17.9106 11.7812"></polyline>
        </g>
    </g>
</svg>