<?xml version="1.0" encoding="UTF-8"?>
<svg width="20px" height="15px" viewBox="0 0 20 15" version="1.1" xmlns="http://www.w3.org/2000/svg" xmlns:xlink="http://www.w3.org/1999/xlink">
    <!-- Generator: Sketch 53.2 (72643) - https://sketchapp.com -->
    <title>handshake</title>
    <desc>Created with Sketch.</desc>
    <g id="Page-1" stroke="none" stroke-width="1" fill="none" fill-rule="evenodd">
        <g id="handshake">
            <path d="M9.84631,2.50694 L10.4438,1.90894 C10.8693,1.48394 11.4348,1.24994 12.0353,1.24994 L13.9998,1.24994 L19.2498,0.77344 L19.2498,7.2499 L17.4163,7.2499 L15.5308,8.6644 L9.84631,2.50694 Z" id="Path" fill="#93D3A2" fill-rule="nonzero"></path>
            <path d="M18.9998,1.0475 L18.9998,7 L17.4998,7 L17.3333,7 L17.1998,7.1 L15.5608,8.329 L10.1928,2.514 L10.6208,2.086 C10.9988,1.708 11.5013,1.5 12.0353,1.5 L13.9998,1.5 L14.0223,1.5 L14.0448,1.498 L18.9998,1.0475 Z M19.4998,0.5 L13.9998,1 L12.0353,1 C11.3723,1 10.7363,1.2635 10.2673,1.732 L9.49982,2.5 L15.4998,9 L17.4998,7.5 L19.4998,7.5 L19.4998,0.5 Z" id="Shape" fill="#135423" fill-rule="nonzero"></path>
            <path d="M10.7498,14.2499 C10.3083,14.2499 9.91532,13.9509 9.79332,13.5229 L9.68532,13.1434 L9.56132,13.2519 L4.11082,7.2499 L0.749817,7.2499 L0.749817,0.77344 L5.97732,1.24894 L8.41682,1.24994 C9.03582,1.24994 9.63432,1.50944 10.0583,1.96094 L13.8588,6.01494 L15.6488,7.8854 L15.6803,7.9034 C16.0318,8.1049 16.2503,8.4769 16.2503,8.8749 C16.2503,9.4739 15.7793,9.9654 15.1778,9.9934 L14.8603,10.0084 L14.9498,10.3134 C14.9838,10.4314 14.9998,10.5304 14.9998,10.6249 C14.9998,11.2454 14.4948,11.7499 13.8748,11.7499 C13.7763,11.7499 13.6743,11.7329 13.5528,11.6964 L13.1788,11.5834 L13.2328,11.9704 C13.2428,12.0379 13.2493,12.0804 13.2493,12.1249 C13.2493,12.7454 12.7443,13.2499 12.1243,13.2499 C12.1003,13.2499 12.0768,13.2459 12.0538,13.2429 L11.7733,13.2114 L11.7298,13.4379 C11.6408,13.9084 11.2283,14.2499 10.7498,14.2499 Z" id="Path" fill="#EAF6EC" fill-rule="nonzero"></path>
            <path d="M1.00018,1.0475 L5.95468,1.498 L5.97768,1.5 L6.00018,1.5 L8.41718,1.5 C8.96768,1.5 9.49968,1.7305 9.87618,2.132 L13.6807,6.19 L15.4437,8.032 L15.4937,8.084 L15.5562,8.12 C15.8342,8.2795 16.0002,8.562 16.0002,8.875 C16.0002,9.34 15.6337,9.722 15.1662,9.744 L14.5327,9.774 L14.7097,10.383 C14.7372,10.478 14.7502,10.555 14.7502,10.625 C14.7502,11.1075 14.3577,11.5 13.8752,11.5 C13.8022,11.5 13.7227,11.4865 13.6252,11.457 L12.8787,11.2325 L12.9857,12.0045 L12.9897,12.033 C12.9942,12.0635 13.0002,12.0935 13.0002,12.125 C13.0002,12.6075 12.6077,13 12.1277,13 C12.1147,12.9995 12.1017,12.997 12.0887,12.995 L12.0307,12.9875 L11.5717,12.9375 L11.4852,13.391 C11.4182,13.744 11.1087,14 10.7502,14 C10.4202,14 10.1257,13.7755 10.0342,13.454 L9.80518,12.701 L9.58018,12.9 L4.37018,7.164 L4.22168,7 L4.00018,7 L1.00018,7 L1.00018,1.0475 Z M0.500183,0.5 L0.500183,7.5 L4.00018,7.5 L9.54168,13.6015 L9.55318,13.591 C9.70268,14.1145 10.1792,14.5 10.7502,14.5 C11.3602,14.5 11.8662,14.063 11.9767,13.485 C12.0262,13.4905 12.0742,13.5 12.1252,13.5 C12.8847,13.5 13.5002,12.8845 13.5002,12.125 C13.5002,12.06 13.4897,11.998 13.4812,11.936 C13.6067,11.9735 13.7372,12 13.8752,12 C14.6347,12 15.2502,11.3845 15.2502,10.625 C15.2502,10.4915 15.2252,10.3655 15.1897,10.2435 C15.9187,10.209 16.5002,9.612 16.5002,8.875 C16.5002,8.364 16.2182,7.9235 15.8047,7.6865 L14.0417,5.844 L10.2412,1.79 C9.76818,1.286 9.10818,1 8.41718,1 L6.00018,1 L0.500183,0.5 Z" id="Shape" fill="#135423" fill-rule="nonzero"></path>
            <path d="M8.80921,6.3955 C8.54421,6.3955 8.29121,6.351 8.09671,6.2695 C7.61921,6.07 7.33821,5.8175 7.28371,5.5395 C7.21971,5.2155 7.46171,4.8915 7.67671,4.677 L10.4442,1.909 C10.8697,1.484 11.4352,1.25 12.0357,1.25 L13.7502,1.25 L13.7502,4.25 L13.0002,4.25 C12.5567,4.25 11.9502,4.4825 11.6202,4.7795 L10.6367,5.6645 C9.92871,6.3005 9.18821,6.3955 8.80921,6.3955 Z" id="Path" fill="#93D3A2" fill-rule="nonzero"></path>
            <path d="M13.5004,1.5 L13.5004,4 L13.0004,4 C12.4944,4 11.8294,4.255 11.4534,4.5935 L10.4699,5.478 C9.82441,6.0585 9.15291,6.1455 8.80991,6.1455 C8.49591,6.1455 8.28891,6.0785 8.19391,6.0385 C7.80841,5.877 7.56641,5.6775 7.52991,5.491 C7.49741,5.325 7.61541,5.0925 7.85441,4.8535 L10.6224,2.0855 C10.9994,1.708 11.5019,1.5 12.0359,1.5 L13.5004,1.5 Z M14.0004,1 L12.0359,1 C11.3729,1 10.7369,1.2635 10.2679,1.732 L7.50041,4.5 C6.79191,5.2085 6.80591,6 8.00041,6.5 C8.21091,6.588 8.49141,6.6455 8.80991,6.6455 C9.41091,6.6455 10.1479,6.4405 10.8044,5.85 L11.7879,4.9655 C12.0719,4.7095 12.6179,4.5 13.0004,4.5 L14.0004,4.5 L14.0004,1 Z" id="Shape" fill="#135423" fill-rule="nonzero"></path>
            <path d="M15.8335,4 L14,4.5 L13.5,4.5 L13.5,4 L12.5,4 L12.5,1.5 L15.8335,1.5 L15.8335,4 Z M9.25,14.25 C8.7755,14.25 8.3635,13.913 8.27,13.4485 L8.2295,13.2475 L8.025,13.2475 L7.975,13.2515 C7.3105,13.25 6.75,12.689 6.75,12 L6.75,11.75 L6.5,11.75 C5.8105,11.75 5.25,11.189 5.25,10.5 L5.25,10.25 L5,10.25 C4.3105,10.25 3.75,9.689 3.75,9 C3.75,8.311 4.3105,7.75 5,7.75 C5.6895,7.75 6.25,8.311 6.25,9 L6.25,9.25 L6.5,9.25 C7.1895,9.25 7.75,9.811 7.75,10.5 L7.75,10.75 L8,10.75 C8.6895,10.75 9.25,11.311 9.25,12 L9.25,12.205 L9.448,12.27 C9.9125,12.3635 10.25,12.7755 10.25,13.25 C10.25,13.8015 9.8015,14.25 9.25,14.25 Z" id="Shape" fill="#93D3A2" fill-rule="nonzero"></path>
            <path d="M5.00037,8 C5.55187,8 6.00037,8.4485 6.00037,9 L6.00037,9.5 L6.50037,9.5 C7.05187,9.5 7.50037,9.9485 7.50037,10.5 L7.50037,11 L8.00037,11 C8.54287,11 8.98537,11.434 8.99987,11.973 L8.99837,11.984 L8.99787,12.0165 L8.99037,12.4335 L9.39937,12.5155 C9.74787,12.585 10.0004,12.894 10.0004,13.25 C10.0004,13.6635 9.66387,14 9.25037,14 C8.89437,14 8.58537,13.7475 8.51537,13.399 L8.43337,12.99 L8.01637,12.9975 C8.00287,12.9975 7.98987,12.9985 7.97687,12.9995 C7.43637,12.987 7.00037,12.5435 7.00037,12 L7.00037,11.5 L6.50037,11.5 C5.94887,11.5 5.50037,11.0515 5.50037,10.5 L5.50037,10 L5.00037,10 C4.44887,10 4.00037,9.5515 4.00037,9 C4.00037,8.4485 4.44887,8 5.00037,8 Z M5.00037,7.5 C4.17187,7.5 3.50037,8.1715 3.50037,9 C3.50037,9.8285 4.17187,10.5 5.00037,10.5 C5.00037,11.3285 5.67187,12 6.50037,12 C6.50037,12.8285 7.17187,13.5 8.00037,13.5 C8.00887,13.5 8.01687,13.4975 8.02537,13.4975 C8.14037,14.069 8.64487,14.5 9.25037,14.5 C9.94087,14.5 10.5004,13.9405 10.5004,13.25 C10.5004,12.6445 10.0694,12.14 9.49787,12.025 C9.49787,12.0165 9.50037,12.0085 9.50037,12 C9.50037,11.1715 8.82887,10.5 8.00037,10.5 C8.00037,9.6715 7.32887,9 6.50037,9 C6.50037,8.1715 5.82887,7.5 5.00037,7.5 Z" id="Shape" fill="#135423" fill-rule="nonzero"></path>
            <path d="M11.4996,13 L11.8681,13.3685 L11.4996,13 Z M14.4996,9.5 L15.0851,10.0855 L14.4996,9.5 Z M12.7496,11.25 L13.3351,11.8355 L12.7496,11.25 Z" id="Shape" stroke="#07377F" stroke-width="0.5" stroke-linecap="round"></path>
            <path d="M13.2502,4 L13.7502,4 C13.8877,4 14.0002,4.1125 14.0002,4.25 C14.0002,4.3875 13.8877,4.5 13.7502,4.5 L13.2502,4.5 C13.1127,4.5 13.0002,4.3875 13.0002,4.25 C13.0002,4.1125 13.1127,4 13.2502,4 Z" id="Path" fill="#07377F" fill-rule="nonzero"></path>
        </g>
    </g>
</svg>