<?xml version="1.0" encoding="UTF-8"?>
<svg width="20px" height="20px" viewBox="0 0 20 20" version="1.1" xmlns="http://www.w3.org/2000/svg" xmlns:xlink="http://www.w3.org/1999/xlink">
    <!-- Generator: Sketch 53.2 (72643) - https://sketchapp.com -->
    <title>messaging</title>
    <desc>Created with Sketch.</desc>
    <g id="Page-1" stroke="none" stroke-width="1" fill="none" fill-rule="evenodd">
        <g id="messaging" fill-rule="nonzero">
            <path d="M19,19.2498 C17.95,19.1498 16.75,18.8498 15.6,18.2998 L15.5,18.2498 L15.4,18.2998 C14.55,18.5998 13.65,18.7998 12.75,18.7998 C9.15,18.7998 6.25,16.3498 6.25,13.2998 C6.25,10.2498 9.15,7.7998 12.75,7.7998 C16.35,7.7998 19.25,10.2498 19.25,13.2998 C19.25,14.5498 18.75,15.7998 17.8,16.7998 L17.7,16.9498 L17.8,17.0998 C18.15,17.8498 18.55,18.5998 19,19.2498 Z" id="Path" fill="#93D3A2"></path>
            <path d="M12.75,8 C16.2,8 19,10.35 19,13.25 C19,14.45 18.5,15.6 17.6,16.55 L17.35,16.8 L17.5,17.1 C17.8,17.75 18.15,18.35 18.5,18.9 C17.6,18.75 16.65,18.45 15.7,18 L15.5,17.95 L15.3,18.05 C14.5,18.35 13.65,18.5 12.75,18.5 C9.3,18.5 6.5,16.15 6.5,13.25 C6.5,10.35 9.3,8 12.75,8 Z M12.75,7.5 C9,7.5 6,10.05 6,13.25 C6,16.45 9,19 12.75,19 C13.75,19 14.65,18.8 15.5,18.5 C16.75,19.1 18.2,19.5 19.5,19.5 C18.9,18.75 18.4,17.8 17.95,16.9 C18.9,15.9 19.5,14.65 19.5,13.25 C19.5,10.05 16.5,7.5 12.75,7.5 Z" id="Shape" fill="#135423"></path>
            <path d="M0.999805,12.25 C1.4498,11.65 1.8498,10.9 2.2498,10.05 L2.3498,9.9 L2.2498,9.75 C1.2998,8.75 0.799805,7.55 0.799805,6.25 C0.799805,3.2 3.6998,0.75 7.2998,0.75 C10.8998,0.75 13.7998,3.2 13.7998,6.25 C13.7998,9.3 10.8998,11.75 7.2998,11.75 C6.3998,11.75 5.4998,11.6 4.6498,11.25 L4.4998,11.25 L4.3998,11.3 C3.2498,11.8 2.0498,12.15 0.999805,12.25 Z" id="Path" fill="#EAF6EC"></path>
            <path d="M7.25,1 C10.7,1 13.5,3.35 13.5,6.25 C13.5,9.15 10.7,11.5 7.25,11.5 C6.35,11.5 5.5,11.35 4.7,11.05 L4.5,10.95 L4.3,11.05 C3.35,11.5 2.4,11.8 1.5,11.9 C1.85,11.35 2.15,10.75 2.5,10.1 L2.65,9.8 L2.4,9.55 C1.5,8.6 1,7.45 1,6.25 C1,3.35 3.8,1 7.25,1 Z M7.25,0.5 C3.5,0.5 0.5,3.05 0.5,6.25 C0.5,7.65 1.1,8.9 2.05,9.9 C1.6,10.8 1.1,11.75 0.5,12.5 C1.8,12.5 3.25,12.1 4.5,11.5 C5.35,11.8 6.25,12 7.25,12 C11,12 14,9.45 14,6.25 C14,3.05 11,0.5 7.25,0.5 Z" id="Shape" fill="#135423"></path>
            <path d="M10.7998,5.5 L3.7998,5.5 C3.5238,5.5 3.2998,5.276 3.2998,5 C3.2998,4.724 3.5238,4.5 3.7998,4.5 L10.7998,4.5 C11.0758,4.5 11.2998,4.724 11.2998,5 C11.2998,5.276 11.0758,5.5 10.7998,5.5 Z" id="Path" fill="#135423"></path>
            <path d="M9.7998,8 L3.7998,8 C3.5238,8 3.2998,7.776 3.2998,7.5 C3.2998,7.224 3.5238,7 3.7998,7 L9.7998,7 C10.0758,7 10.2998,7.224 10.2998,7.5 C10.2998,7.776 10.0758,8 9.7998,8 Z" id="Path" fill="#135423"></path>
        </g>
    </g>
</svg>