<?xml version="1.0" encoding="UTF-8"?>
<svg width="19px" height="20px" viewBox="0 0 19 20" version="1.1" xmlns="http://www.w3.org/2000/svg" xmlns:xlink="http://www.w3.org/1999/xlink">
    <!-- Generator: Sketch 53.2 (72643) - https://sketchapp.com -->
    <title>Multichannel</title>
    <desc>Created with Sketch.</desc>
    <g id="Page-1" stroke="none" stroke-width="1" fill="none" fill-rule="evenodd">
        <g id="Multichannel" fill-rule="nonzero">
            <path d="M9.25,0.25 C9.053,0.25 8.85796,0.288799 8.67597,0.364181 C8.49399,0.439563 8.32863,0.550052 8.18934,0.68934 C8.05005,0.828628 7.93956,0.993986 7.86418,1.17597 C7.7888,1.35796 7.75,1.55302 7.75,1.75 C7.75,1.94698 7.7888,2.14204 7.86418,2.32403 C7.93956,2.50601 8.05005,2.67137 8.18934,2.81066 C8.32863,2.94995 8.49399,3.06044 8.67597,3.13582 C8.85796,3.2112 9.053,3.25 9.25,3.25 C9.447,3.25 9.642,3.2112 9.824,3.13582 C10.006,3.06044 10.1714,2.94995 10.3107,2.81066 C10.4499,2.67137 10.5604,2.50601 10.6358,2.32403 C10.7112,2.14204 10.75,1.94698 10.75,1.75 C10.75,1.55302 10.7112,1.35796 10.6358,1.17597 C10.5604,0.993986 10.4499,0.828628 10.3107,0.68934 C10.1714,0.550052 10.006,0.439563 9.824,0.364181 C9.642,0.288799 9.447,0.25 9.25,0.25 Z" id="Path" fill="#28A745"></path>
            <path d="M9.25,3.5 C8.3,3.5 7.5,2.7 7.5,1.75 C7.5,0.8 8.3,0 9.25,0 C10.2,0 11,0.8 11,1.75 C11,2.7 10.2,3.5 9.25,3.5 Z M9.25,0.5 C8.55,0.5 8,1.05 8,1.75 C8,2.45 8.55,3 9.25,3 C9.95,3 10.5,2.45 10.5,1.75 C10.5,1.05 9.95,0.5 9.25,0.5 Z" id="Shape" fill="#135423"></path>
            <path d="M1.8501,1.7002 C1.45227,1.7002 1.07074,1.85823 0.78944,2.13954 C0.50813,2.42084 0.3501,2.80237 0.3501,3.2002 C0.3501,3.59802 0.50813,3.97955 0.78944,4.26086 C1.07074,4.54216 1.45227,4.7002 1.8501,4.7002 C2.24792,4.7002 2.62945,4.54216 2.91076,4.26086 C3.19206,3.97955 3.3501,3.59802 3.3501,3.2002 C3.3501,2.80237 3.19206,2.42084 2.91076,2.13954 C2.62945,1.85823 2.24792,1.7002 1.8501,1.7002 Z" id="Path" fill="#28A745"></path>
            <path d="M1.75,5 C0.8,5 0,4.2 0,3.25 C0,2.3 0.8,1.5 1.75,1.5 C2.7,1.5 3.5,2.3 3.5,3.25 C3.5,4.2 2.7,5 1.75,5 Z M1.75,2 C1.05,2 0.5,2.55 0.5,3.25 C0.5,3.95 1.05,4.5 1.75,4.5 C2.45,4.5 3,3.95 3,3.25 C3,2.55 2.45,2 1.75,2 Z M9,3.25 L9.5,3.25 L9.5,6 L9,6 L9,3.25 Z" id="Shape" fill="#135423"></path>
            <polygon id="Path" fill="#135423" points="2.57715 4.43555 2.9307 4.08199 4.41565 5.56689 4.0621 5.92045"></polygon>
            <path d="M16.6499,1.7002 C16.2521,1.7002 15.8705,1.85823 15.5892,2.13954 C15.3079,2.42084 15.1499,2.80237 15.1499,3.2002 C15.1499,3.59802 15.3079,3.97955 15.5892,4.26086 C15.8705,4.54216 16.2521,4.7002 16.6499,4.7002 C17.0477,4.7002 17.4293,4.54216 17.7106,4.26086 C17.9919,3.97955 18.1499,3.59802 18.1499,3.2002 C18.1499,2.80237 17.9919,2.42084 17.7106,2.13954 C17.4293,1.85823 17.0477,1.7002 16.6499,1.7002 Z" id="Path" fill="#28A745"></path>
            <path d="M16.75,5 C15.8,5 15,4.2 15,3.25 C15,2.3 15.8,1.5 16.75,1.5 C17.7,1.5 18.5,2.3 18.5,3.25 C18.5,4.2 17.7,5 16.75,5 Z M16.75,2 C16.05,2 15.5,2.55 15.5,3.25 C15.5,3.95 16.05,4.5 16.75,4.5 C17.45,4.5 18,3.95 18,3.25 C18,2.55 17.45,2 16.75,2 Z" id="Shape" fill="#135423"></path>
            <polygon id="Path" fill="#135423" points="14.0769 5.56738 15.5618 4.08243 15.9154 4.43598 14.4305 5.92093"></polygon>
            <path d="M9.25,16.75 C8.85218,16.75 8.47064,16.908 8.18934,17.1893 C7.90804,17.4706 7.75,17.8522 7.75,18.25 C7.75,18.6478 7.90804,19.0294 8.18934,19.3107 C8.47064,19.592 8.85218,19.75 9.25,19.75 C9.6478,19.75 10.0294,19.592 10.3107,19.3107 C10.592,19.0294 10.75,18.6478 10.75,18.25 C10.75,17.8522 10.592,17.4706 10.3107,17.1893 C10.0294,16.908 9.6478,16.75 9.25,16.75 Z" id="Path" fill="#28A745"></path>
            <path d="M9.25,20 C8.3,20 7.5,19.2 7.5,18.25 C7.5,17.3 8.3,16.5 9.25,16.5 C10.2,16.5 11,17.3 11,18.25 C11,19.2 10.2,20 9.25,20 Z M9.25,17 C8.55,17 8,17.55 8,18.25 C8,18.95 8.55,19.5 9.25,19.5 C9.95,19.5 10.5,18.95 10.5,18.25 C10.5,17.55 9.95,17 9.25,17 Z" id="Shape" fill="#135423"></path>
            <path d="M16.6499,15 C16.2521,15 15.8705,15.158 15.5892,15.4393 C15.3079,15.7206 15.1499,16.1022 15.1499,16.5 C15.1499,16.8978 15.3079,17.2794 15.5892,17.5607 C15.8705,17.842 16.2521,18 16.6499,18 C17.0477,18 17.4293,17.842 17.7106,17.5607 C17.9919,17.2794 18.1499,16.8978 18.1499,16.5 C18.1499,16.1022 17.9919,15.7206 17.7106,15.4393 C17.4293,15.158 17.0477,15 16.6499,15 Z" id="Path" fill="#28A745"></path>
            <path d="M16.75,18.5 C15.8,18.5 15,17.7 15,16.75 C15,15.8 15.8,15 16.75,15 C17.7,15 18.5,15.8 18.5,16.75 C18.5,17.7 17.7,18.5 16.75,18.5 Z M16.75,15.5 C16.05,15.5 15.5,16.05 15.5,16.75 C15.5,17.45 16.05,18 16.75,18 C17.45,18 18,17.45 18,16.75 C18,16.05 17.45,15.5 16.75,15.5 Z M9,14 L9.5,14 L9.5,16.75 L9,16.75 L9,14 Z" id="Shape" fill="#135423"></path>
            <polygon id="Path" fill="#135423" points="14.0808 14.4346 14.4344 14.081 15.9193 15.5659 15.5658 15.9195"></polygon>
            <path d="M1.75,15.25 C1.35218,15.25 0.97064,15.408 0.68934,15.6893 C0.40804,15.9706 0.25,16.3522 0.25,16.75 C0.25,17.1478 0.40804,17.5294 0.68934,17.8107 C0.97064,18.092 1.35218,18.25 1.75,18.25 C2.14782,18.25 2.52936,18.092 2.81066,17.8107 C3.09196,17.5294 3.25,17.1478 3.25,16.75 C3.25,16.3522 3.09196,15.9706 2.81066,15.6893 C2.52936,15.408 2.14782,15.25 1.75,15.25 Z" id="Path" fill="#28A745"></path>
            <path d="M1.75,18.5 C0.8,18.5 0,17.7 0,16.75 C0,15.8 0.8,15 1.75,15 C2.7,15 3.5,15.8 3.5,16.75 C3.5,17.7 2.7,18.5 1.75,18.5 Z M1.75,15.5 C1.05,15.5 0.5,16.05 0.5,16.75 C0.5,17.45 1.05,18 1.75,18 C2.45,18 3,17.45 3,16.75 C3,16.05 2.45,15.5 1.75,15.5 Z" id="Shape" fill="#135423"></path>
            <polygon id="Path" fill="#135423" points="2.58081 15.5654 4.06571 14.0805 4.41927 14.434 2.93437 15.919"></polygon>
            <polygon id="Path" fill="#EAF6EC" points="4.25 5.75 14.25 5.75 14.25 14.25 4.25 14.25"></polygon>
            <path d="M14.5,14.5 L4,14.5 L4,5.5 L14.5,5.5 L14.5,14.5 Z M4.5,14 L14,14 L14,6 L4.5,6 L4.5,14 Z" id="Shape" fill="#135423"></path>
            <path d="M10.25,7.5 L8.25,7.5 C8.1,7.5 8,7.4 8,7.25 C8,7.1 8.1,7 8.25,7 L10.25,7 C10.4,7 10.5,7.1 10.5,7.25 C10.5,7.4 10.4,7.5 10.25,7.5 Z" id="Path" fill="#28A745"></path>
        </g>
    </g>
</svg>