<?xml version="1.0" encoding="UTF-8"?>
<svg width="20px" height="20px" viewBox="0 0 20 20" version="1.1" xmlns="http://www.w3.org/2000/svg" xmlns:xlink="http://www.w3.org/1999/xlink">
    <!-- Generator: Sketch 53.2 (72643) - https://sketchapp.com -->
    <title>noChat</title>
    <desc>Created with Sketch.</desc>
    <g id="Page-1" stroke="none" stroke-width="1" fill="none" fill-rule="evenodd">
        <g id="noChat">
            <path d="M18.745,19.195 C18.6785,19.195 18.608,19.1895 18.534,19.1795 C17.5955,19.048 16.583,18.734 15.606,18.272 L15.5095,18.2265 L15.41,18.2645 C14.565,18.5865 13.67,18.75 12.75,18.75 C9.166,18.75 6.25,16.2825 6.25,13.25 C6.25,10.2175 9.166,7.75 12.75,7.75 C16.334,7.75 19.25,10.2175 19.25,13.25 C19.25,14.515 18.729,15.7505 17.7825,16.7295 L17.6615,16.855 L17.737,17.0115 C17.8895,17.3285 18.0495,17.646 18.2205,17.959 C18.3565,18.2075 18.5715,18.4085 18.761,18.5865 C19.145,18.9465 19.1505,19.0085 19.0685,19.1065 C19.0215,19.1625 18.9035,19.195 18.745,19.195 Z" id="Path" fill="#93D3A2" fill-rule="nonzero"></path>
            <path d="M12.75,8 C16.1965,8 19,10.355 19,13.25 C19,14.45 18.504,15.624 17.603,16.5555 L17.361,16.806 L17.512,17.12 C17.6825,17.475 17.843,17.7885 18.002,18.079 C18.157,18.3625 18.387,18.5785 18.59,18.7685 C18.645,18.82 18.7155,18.886 18.7725,18.945 C18.764,18.9455 18.7545,18.9455 18.745,18.9455 C18.692,18.9455 18.633,18.941 18.569,18.932 C17.6555,18.804 16.668,18.4975 15.7125,18.046 L15.52,17.955 L15.321,18.031 C14.5035,18.342 13.6385,18.5 12.75,18.5 C9.3035,18.5 6.5,16.145 6.5,13.25 C6.5,10.355 9.3035,8 12.75,8 Z M12.75,7.5 C9.022,7.5 6,10.0745 6,13.25 C6,16.4255 9.022,19 12.75,19 C13.73,19 14.6585,18.818 15.499,18.498 C16.452,18.9485 17.492,19.286 18.4995,19.427 C18.5855,19.439 18.6675,19.4455 18.745,19.4455 C18.9725,19.4455 19.157,19.391 19.2605,19.2665 C19.6685,18.777 18.761,18.425 18.44,17.8385 C18.271,17.5295 18.113,17.216 17.962,16.903 C18.923,15.91 19.5,14.6375 19.5,13.25 C19.5,10.0745 16.478,7.5 12.75,7.5 Z" id="Shape" fill="#135423" fill-rule="nonzero"></path>
            <path d="M1.0025,12.23 C1.431,11.6055 1.8535,10.862 2.263,10.0115 L2.3385,9.855 L2.2175,9.7295 C1.271,8.7505 0.75,7.5145 0.75,6.25 C0.75,3.2175 3.666,0.75 7.25,0.75 C10.834,0.75 13.75,3.2175 13.75,6.25 C13.75,9.2825 10.834,11.75 7.25,11.75 C6.3305,11.75 5.435,11.5865 4.5885,11.264 L4.489,11.226 L4.3925,11.2715 C3.2435,11.8145 2.0595,12.1475 1.0025,12.23 Z" id="Path" fill="#EAF6EC" fill-rule="nonzero"></path>
            <path d="M7.25,1 C10.6965,1 13.5,3.355 13.5,6.25 C13.5,9.145 10.6965,11.5 7.25,11.5 C6.361,11.5 5.4955,11.342 4.6775,11.0305 L4.4785,10.9545 L4.286,11.0455 C3.35,11.488 2.392,11.7875 1.5045,11.921 C1.8385,11.3885 2.1675,10.7865 2.4885,10.12 L2.6395,9.806 L2.3975,9.5555 C1.496,8.624 1,7.45 1,6.25 C1,3.355 3.8035,1 7.25,1 Z M7.25,0.5 C3.522,0.5 0.5,3.0745 0.5,6.25 C0.5,7.6375 1.077,8.91 2.0375,9.903 C1.6005,10.8115 1.088,11.7255 0.5,12.5 C1.7975,12.5 3.2265,12.099 4.4995,11.4975 C5.34,11.818 6.2695,12 7.25,12 C10.978,12 14,9.4255 14,6.25 C14,3.0745 10.978,0.5 7.25,0.5 Z" id="Shape" fill="#135423" fill-rule="nonzero"></path>
            <path d="M1.75,1.75 L18.9165,18.9165" id="Path" stroke="#135423" stroke-linecap="round"></path>
        </g>
    </g>
</svg>