<?xml version="1.0" encoding="UTF-8"?>
<svg width="16px" height="19px" viewBox="0 0 16 19" version="1.1" xmlns="http://www.w3.org/2000/svg" xmlns:xlink="http://www.w3.org/1999/xlink">
    <!-- Generator: Sketch 53.2 (72643) - https://sketchapp.com -->
    <title>passFail</title>
    <desc>Created with Sketch.</desc>
    <g id="Page-1" stroke="none" stroke-width="1" fill="none" fill-rule="evenodd">
        <g id="passFail">
            <path d="M1.18174,18.75 C0.94374,18.75 0.75024,18.552 0.75024,18.3075 L0.75024,1.6925 C0.75024,1.448 0.94424,1.25 1.18174,1.25 L6.27024,1.25 C6.25674,1.334 6.25024,1.417 6.25024,1.5 C6.25024,2.465 7.03524,3.25 8.0002,3.25 C8.9652,3.25 9.7502,2.465 9.7502,1.5 C9.7502,1.417 9.7437,1.334 9.7302,1.25 L14.8187,1.25 C15.0567,1.25 15.2502,1.448 15.2502,1.6925 L15.2502,18.3075 C15.2502,18.5515 15.0562,18.75 14.8187,18.75 L1.18174,18.75 Z" id="Path" fill="#93D3A2" fill-rule="nonzero"></path>
            <path d="M14.818,1.5 C14.9185,1.5 15,1.5865 15,1.6925 L15,18.308 C15,18.4135 14.9185,18.5 14.818,18.5 L1.182,18.5 C1.0815,18.5 1,18.4135 1,18.3075 L1,1.6925 C1,1.5865 1.0815,1.5 1.182,1.5 L6,1.5 C6,2.603 6.897,3.5 8,3.5 C9.103,3.5 10,2.603 10,1.5 L14.818,1.5 Z M14.818,1 L9.408,1 C9.464,1.157 9.5,1.3235 9.5,1.5 C9.5,2.3285 8.8285,3 8,3 C7.1715,3 6.5,2.3285 6.5,1.5 C6.5,1.3235 6.536,1.157 6.592,1 L1.182,1 C0.8055,1 0.5,1.31 0.5,1.6925 L0.5,18.308 C0.5,18.69 0.8055,19 1.182,19 L14.8185,19 C15.1945,19 15.5,18.69 15.5,18.3075 L15.5,1.6925 C15.5,1.31 15.1945,1 14.818,1 Z" id="Shape" fill="#135423" fill-rule="nonzero"></path>
            <polygon id="Path" fill="#EAF6EC" fill-rule="nonzero" points="2.00024 2.5 14.0002 2.5 14.0002 17.5 2.00024 17.5"></polygon>
            <path d="M7.99976,0.5 C8.5513,0.5 8.9998,0.9485 8.9998,1.5 C8.9998,2.0515 8.5513,2.5 7.99976,2.5 C7.44826,2.5 6.99976,2.0515 6.99976,1.5 C6.99976,0.9485 7.44826,0.5 7.99976,0.5 Z M7.99976,0 C7.17126,0 6.49976,0.6715 6.49976,1.5 C6.49976,2.3285 7.17126,3 7.99976,3 C8.8283,3 9.4998,2.3285 9.4998,1.5 C9.4998,0.6715 8.8283,0 7.99976,0 Z" id="Shape" fill="#135423" fill-rule="nonzero"></path>
            <path d="M5.50049,3.75 C5.08699,3.75 4.75049,3.4135 4.75049,3 L4.75049,1.25 L6.76849,1.25 L6.78749,1.197 C6.76299,1.294 6.75049,1.3955 6.75049,1.5 C6.75049,2.1895 7.31099,2.75 8.0005,2.75 C8.69,2.75 9.2505,2.1895 9.2505,1.5 C9.2505,1.3955 9.238,1.294 9.2135,1.197 L9.2325,1.25 L11.2505,1.25 L11.2505,3 C11.2505,3.4135 10.914,3.75 10.5005,3.75 L5.50049,3.75 Z" id="Shape" fill="#28A745" fill-rule="nonzero"></path>
            <path d="M11.0002,1.5 L11.0002,3 C11.0002,3.2755 10.7757,3.5 10.5002,3.5 L5.50024,3.5 C5.22474,3.5 5.00024,3.2755 5.00024,3 L5.00024,1.5 L6.50024,1.5 C6.50024,2.327 7.17324,3 8.0002,3 C8.8272,3 9.5002,2.327 9.5002,1.5 L11.0002,1.5 Z M8.0002,0 C7.34824,0 6.79874,0.4185 6.59224,1 L4.50024,1 L4.50024,3 C4.50024,3.5525 4.94774,4 5.50024,4 L10.5002,4 C11.0527,4 11.5002,3.5525 11.5002,3 L11.5002,1 L9.4082,1 C9.2017,0.4185 8.6522,0 8.0002,0 Z M8.0002,2.5 C7.44874,2.5 7.00024,2.0515 7.00024,1.5 C7.00024,0.9485 7.44874,0.5 8.0002,0.5 C8.5517,0.5 9.0002,0.9485 9.0002,1.5 C9.0002,2.0515 8.5517,2.5 8.0002,2.5 Z" id="Shape" fill="#135423" fill-rule="nonzero"></path>
            <path d="M9.25,8.25 L10.1875,9.1875 L12.25,7.25 L9.25,8.25 Z M9.75,11.75 L11.75,13.75 L9.75,11.75 Z M11.75,11.75 L9.75,13.75 L11.75,11.75 Z" id="Shape" stroke="#135423" stroke-width="0.5" stroke-linecap="round"></path>
            <path d="M7.74976,8.5 L4.24976,8.5 C4.11226,8.5 3.99976,8.3875 3.99976,8.25 C3.99976,8.1125 4.11226,8 4.24976,8 L7.74976,8 C7.88726,8 7.99976,8.1125 7.99976,8.25 C7.99976,8.3875 7.88726,8.5 7.74976,8.5 Z" id="Path" fill="#93D3A2" fill-rule="nonzero"></path>
            <path d="M7.74976,8 L4.24976,8 C4.11226,8 3.99976,8.1125 3.99976,8.25 C3.99976,8.3875 4.11226,8.5 4.24976,8.5 L7.74976,8.5 C7.88726,8.5 7.99976,8.3875 7.99976,8.25 C7.99976,8.1125 7.88726,8 7.74976,8 Z" id="Path" fill="#135423" fill-rule="nonzero"></path>
            <path d="M7.74976,13 L4.24976,13 C4.11226,13 3.99976,12.8875 3.99976,12.75 C3.99976,12.6125 4.11226,12.5 4.24976,12.5 L7.74976,12.5 C7.88726,12.5 7.99976,12.6125 7.99976,12.75 C7.99976,12.8875 7.88726,13 7.74976,13 Z" id="Path" fill="#93D3A2" fill-rule="nonzero"></path>
            <path d="M7.74976,12.5 L4.24976,12.5 C4.11226,12.5 3.99976,12.6125 3.99976,12.75 C3.99976,12.8875 4.11226,13 4.24976,13 L7.74976,13 C7.88726,13 7.99976,12.8875 7.99976,12.75 C7.99976,12.6125 7.88726,12.5 7.74976,12.5 Z" id="Path" fill="#135423" fill-rule="nonzero"></path>
        </g>
    </g>
</svg>