<svg width="20" height="20" viewBox="0 0 20 20" fill="none" xmlns="http://www.w3.org/2000/svg">
<path d="M0.755859 19.25C0.889859 16.4705 3.24686 14.25 6.12486 14.25H9.87486C12.7529 14.25 15.1099 16.4705 15.2439 19.25H0.755859Z" fill="#93D3A2"/>
<path d="M9.875 14.5C12.528 14.5 14.7165 16.477 14.9745 19H1.0255C1.2835 16.477 3.472 14.5 6.125 14.5H9.875ZM9.875 14H6.125C3.0185 14 0.5 16.4625 0.5 19.5H15.5C15.5 16.4625 12.9815 14 9.875 14Z" fill="#135423"/>
<path d="M8 15.7501C6.462 15.7501 5.8515 14.4371 5.75 14.1886V11.4551H10.25V14.1891C10.1485 14.4371 9.538 15.7501 8 15.7501Z" fill="#EAF6EC"/>
<path d="M10 11.7051V14.1376C9.8685 14.4326 9.3035 15.5001 8 15.5001C6.6945 15.5001 6.1295 14.4296 6 14.1376V11.7051H10ZM10.5 11.2051H5.5V14.2361C5.5 14.2361 6.1335 16.0006 8 16.0006C9.8665 16.0006 10.5 14.2361 10.5 14.2361V11.2051Z" fill="#135423"/>
<path d="M8 13.7498C7.698 13.7498 7.414 13.6408 7.1795 13.4348L7.1345 13.3948L7.076 13.3798C5.412 12.9578 4.25 11.4648 4.25 9.74984V5.10084C4.25 4.18734 4.993 3.44434 5.906 3.44434H10.0935C11.007 3.44434 11.75 4.18734 11.75 5.10084V9.74984C11.75 11.4648 10.588 12.9578 8.924 13.3798L8.8655 13.3948L8.8205 13.4348C8.586 13.6408 8.302 13.7498 8 13.7498Z" fill="#EAF6EC"/>
<path d="M10.0935 3.69434C10.869 3.69434 11.5 4.32534 11.5 5.10084V9.74984C11.5 11.3503 10.4155 12.7433 8.8625 13.1378L8.746 13.1673L8.6555 13.2468C8.524 13.3623 8.304 13.4998 8 13.4998C7.696 13.4998 7.476 13.3623 7.3445 13.2468L7.254 13.1673L7.1375 13.1378C5.5845 12.7433 4.5 11.3503 4.5 9.74984V5.10084C4.5 4.32534 5.131 3.69434 5.9065 3.69434H10.0935ZM10.0935 3.19434H5.906C4.8535 3.19434 4 4.04784 4 5.10084V9.74984C4 11.6183 5.283 13.1828 7.0145 13.6223C7.2785 13.8543 7.621 13.9998 8 13.9998C8.379 13.9998 8.7215 13.8543 8.9855 13.6223C10.717 13.1828 12 11.6183 12 9.74984V5.10084C12 4.04784 11.1465 3.19434 10.0935 3.19434Z" fill="#135423"/>
<path d="M11.9999 13.75C11.1164 13.75 10.2944 13.2945 9.86491 13.008C10.3874 12.6785 11.2499 11.8965 11.2499 10.321V7.959C11.2499 6.754 10.2069 5.8475 10.1624 5.81L9.94741 5.626L9.79091 5.8625C9.78041 5.878 8.72341 7.4405 6.46541 7.7525C5.28691 7.915 4.74991 8.807 4.74991 9.5665V10.321C4.74991 11.9175 5.60391 12.6885 6.12841 13.011C5.69891 13.298 4.88191 13.75 3.99991 13.75C3.10691 13.75 2.31091 13.2825 1.92041 13.008C2.36091 12.6605 3.14291 11.888 3.14291 10.786C3.14291 10.322 3.05491 9.8315 2.96191 9.312C2.85741 8.731 2.74991 8.131 2.74991 7.5C2.74991 3.256 5.44341 1.75 7.74991 1.75C9.65091 1.75 10.2654 3.0875 10.2714 3.1015L10.3369 3.25H10.4999C12.2474 3.25 13.2499 4.6165 13.2499 7C13.2499 7.671 13.1159 8.418 12.9859 9.1405C12.8644 9.817 12.7499 10.4565 12.7499 11C12.7499 11.922 13.4794 12.426 14.0709 12.6405C13.7169 13.046 12.9639 13.75 11.9999 13.75Z" fill="#93D3A2"/>
<path d="M7.75 2C9.4635 2 10.0215 3.1575 10.043 3.2025L10.1745 3.5H10.5C12.112 3.5 13 4.743 13 7C13 7.649 12.868 8.3845 12.74 9.0965C12.6165 9.7845 12.5 10.434 12.5 11C12.5 11.8825 13.0715 12.4285 13.646 12.726C13.2755 13.0835 12.694 13.5 12 13.5C11.363 13.5 10.7515 13.238 10.3215 12.995C10.866 12.5535 11.5 11.736 11.5 10.3215V7.9595C11.5 6.6405 10.373 5.6615 10.325 5.6205L9.896 5.2565L9.583 5.7245C9.5425 5.785 8.568 7.21 6.4315 7.505C5.1045 7.688 4.5 8.702 4.5 9.5665V10.321C4.5 11.7525 5.127 12.5655 5.671 13.0015C5.2455 13.243 4.641 13.5 4 13.5C3.3435 13.5 2.7375 13.222 2.3345 12.9795C2.8055 12.5395 3.393 11.79 3.393 10.7855C3.393 10.2995 3.303 9.798 3.208 9.2675C3.1055 8.698 3 8.109 3 7.5C3 3.4405 5.559 2 7.75 2ZM7.75 1.5C5.106 1.5 2.5 3.347 2.5 7.5C2.5 8.727 2.893 9.841 2.893 10.7855C2.893 12.1635 1.5 13 1.5 13C1.5 13 2.627 14 4 14C5.397 14 6.6055 12.972 6.6055 12.972C6.6055 12.972 5 12.459 5 10.3215C5 10.015 5 10.0415 5 9.567C5 8.89 5.471 8.1425 6.5 8C8.908 7.6675 10 6 10 6C10 6 11 6.8555 11 7.9595C11 8.4815 11 9.464 11 10.3215C11 12.4185 9.393 12.9725 9.393 12.9725C9.393 12.9725 10.6125 14 12 14C13.5025 14 14.5 12.5 14.5 12.5C14.5 12.5 13 12.2325 13 11C13 9.905 13.5 8.324 13.5 7C13.5 4.1195 12.117 3 10.5 3C10.5 3 9.836 1.5 7.75 1.5Z" fill="#135423"/>
<path d="M10.4217 9.73171C10.6612 9.25971 10.9502 8.60171 11.2337 7.87621L11.2972 7.71321L11.1627 7.60171C10.2467 6.84121 9.74219 5.82821 9.74219 4.74921C9.74219 2.53921 11.8767 0.741211 14.5002 0.741211C17.1237 0.741211 19.2582 2.53971 19.2582 4.74971C19.2582 6.95971 17.1237 8.75771 14.5002 8.75771C14.1707 8.75771 13.8367 8.72771 13.5087 8.66921L13.4232 8.65371L13.3477 8.69671C12.5892 9.12471 11.4257 9.61521 10.4217 9.73171Z" fill="#EAF6EC"/>
<path d="M14.5 0.984C16.99 0.984 19.016 2.6735 19.016 4.75C19.016 6.8265 16.99 8.516 14.5 8.516C14.184 8.516 13.865 8.4875 13.5515 8.4315L13.38 8.401L13.2285 8.4865C12.4455 8.9285 11.5835 9.2595 10.844 9.416C11.1185 8.8255 11.3655 8.2045 11.459 7.9645L11.586 7.639L11.3175 7.416C10.458 6.702 9.9845 5.7555 9.9845 4.75C9.984 2.6735 12.01 0.984 14.5 0.984ZM14.5 0.5C11.7385 0.5 9.5 2.403 9.5 4.75C9.5 5.9415 10.0785 7.017 11.0075 7.7885C10.6995 8.578 10.301 9.495 10 10C11.049 10 12.444 9.4845 13.466 8.908C13.8 8.9675 14.1455 9 14.5 9C17.2615 9 19.5 7.097 19.5 4.75C19.5 2.403 17.2615 0.5 14.5 0.5Z" fill="#135423"/>
</svg>
