<svg width="34" height="34" viewBox="0 0 34 34" fill="none" xmlns="http://www.w3.org/2000/svg">
<path d="M11 12.5C10.7239 12.5 10.5 12.7239 10.5 13C10.5 13.2761 10.7239 13.5 11 13.5H23C23.2761 13.5 23.5 13.2761 23.5 13C23.5 12.7239 23.2761 12.5 23 12.5H11ZM13 16.5C12.7239 16.5 12.5 16.7239 12.5 17C12.5 17.2761 12.7239 17.5 13 17.5H21C21.2761 17.5 21.5 17.2761 21.5 17C21.5 16.7239 21.2761 16.5 21 16.5H13ZM15 20.5C14.7239 20.5 14.5 20.7239 14.5 21C14.5 21.2761 14.7239 21.5 15 21.5H19C19.2761 21.5 19.5 21.2761 19.5 21C19.5 20.7239 19.2761 20.5 19 20.5H15Z" fill="#202124"/>
</svg>
