<svg width="210" height="119" viewBox="0 0 210 119" fill="none" xmlns="http://www.w3.org/2000/svg">
<g clip-path="url(#clip0)">
<path d="M50.3285 59.3203C50.2061 59.5982 49.5941 61.1767 49.0043 62.7663L47.4797 68.7466C47.2015 71.6368 47.3573 74.8382 48.548 74.8493C49.6386 74.8715 49.6386 72.9596 50.1171 69.4136C50.2395 72.6261 50.3285 74.9382 51.4525 74.8271C52.5654 74.7159 52.4318 71.4589 52.3094 68.9801C53.1106 70.5141 54.1122 72.6261 54.9579 72.4038C56.1709 72.0703 55.392 70.2362 55.0025 68.969C54.1344 66.1455 55.3586 65.4119 56.4046 63.8556C57.0946 62.8218 56.9277 61.3656 56.3713 59.8094L50.3285 59.3203Z" fill="white"/>
<path d="M48.5713 75.1837H48.5412C48.3986 75.1802 48.2585 75.1466 48.1299 75.0849C48.0014 75.0233 47.8874 74.9351 47.7956 74.8262C46.7594 73.6763 47.0378 69.8585 47.1478 68.7158C47.1494 68.6987 47.1524 68.6819 47.1566 68.6653L48.6812 62.6849C48.6842 62.6738 48.6876 62.6627 48.6916 62.6516C49.2669 61.1012 49.8907 59.4886 50.0235 59.1872C50.0518 59.1241 50.0989 59.0712 50.1584 59.0358C50.2179 59.0004 50.2869 58.9841 50.356 58.9892L56.3987 59.4783C56.4627 59.4835 56.5239 59.507 56.5749 59.5461C56.6259 59.5851 56.6645 59.6381 56.6861 59.6985C57.3657 61.5993 57.365 63.0202 56.6829 64.0418C56.4888 64.3309 56.2926 64.5865 56.103 64.8349C55.2654 65.9291 54.6603 66.7198 55.3221 68.8723C55.3682 69.0222 55.4198 69.1803 55.473 69.3428C55.7957 70.3321 56.163 71.454 55.7793 72.1663C55.7033 72.3057 55.5989 72.4277 55.4728 72.5242C55.3466 72.6208 55.2016 72.6898 55.047 72.7267C54.2005 72.9491 53.436 71.8111 52.7048 70.4576C52.7816 73.0655 52.6235 75.0466 51.4862 75.1602C51.3507 75.1756 51.2135 75.1623 51.0835 75.1214C50.9535 75.0804 50.8335 75.0127 50.7313 74.9225C50.3402 74.5818 50.1291 73.8846 50.0016 72.9091C49.7665 74.3863 49.4469 75.1837 48.5713 75.1837ZM47.8095 68.8047C47.5495 71.532 47.7427 73.7707 48.2913 74.3798C48.3216 74.4206 48.3607 74.454 48.4057 74.4777C48.4506 74.5013 48.5004 74.5146 48.5512 74.5165H48.5596C49.1543 74.5165 49.3111 73.2215 49.5703 71.0817C49.6322 70.5703 49.7023 69.9912 49.7863 69.3692C49.7975 69.2864 49.8393 69.2109 49.9035 69.1574C49.9677 69.104 50.0497 69.0766 50.1331 69.0806C50.2166 69.0846 50.2956 69.1197 50.3544 69.179C50.4132 69.2383 50.4476 69.3175 50.4508 69.401C50.5398 71.7369 50.6238 73.9432 51.1706 74.4191C51.2037 74.4496 51.2433 74.4723 51.2864 74.4855C51.3295 74.4987 51.375 74.5021 51.4196 74.4954C51.5268 74.4843 51.887 74.3287 52.0113 72.7652C52.1042 71.5958 52.0271 70.0317 51.976 68.9969C51.9723 68.9209 51.9947 68.846 52.0394 68.7845C52.0842 68.723 52.1486 68.6786 52.222 68.6587C52.2955 68.6388 52.3736 68.6446 52.4433 68.675C52.513 68.7055 52.5702 68.7589 52.6055 68.8263C52.6742 68.9581 52.7447 69.0943 52.8162 69.2328C53.185 69.9463 53.603 70.755 54.008 71.3323C54.5442 72.0975 54.8052 72.0993 54.873 72.0817C54.9397 72.0684 55.0027 72.0408 55.0576 72.0006C55.1125 71.9605 55.1579 71.9089 55.1907 71.8493C55.4387 71.3886 55.1054 70.3686 54.8378 69.5489C54.7834 69.3822 54.7306 69.2206 54.6833 69.0672C53.9207 66.5865 54.7229 65.5384 55.5721 64.4288C55.7557 64.189 55.9454 63.9409 56.1275 63.6701C56.6534 62.8821 56.6533 61.6898 56.1275 60.1241L50.5446 59.6723C50.3285 60.2091 49.8249 61.5153 49.3238 62.8654L47.8095 68.8047Z" fill="#222433"/>
<path d="M54.1911 52.4785C54.1911 52.4785 52.711 58.2032 51.3533 63.9391C51.2866 64.217 51.2198 64.506 51.153 64.7839C49.9512 69.8861 48.8606 74.8883 48.9051 75.9221L48.8049 98.5541L48.8383 102.945H65.631V79.1457L65.6088 78.5899L68.9473 83.4476L73.7993 103.612L90.0801 99.2878L84.8052 77.3338C84.5286 76.1617 84.0176 75.0577 83.3029 74.0879L77.9501 66.9515L71.8963 58.8924L70.8836 57.5474L54.1911 52.4785Z" fill="white"/>
<path d="M73.7992 103.945C73.7243 103.945 73.6514 103.92 73.5926 103.873C73.5337 103.827 73.4921 103.762 73.4746 103.689L68.6374 83.5849L65.965 79.6967V102.944C65.965 103.033 65.9298 103.118 65.8672 103.18C65.8046 103.243 65.7197 103.278 65.6311 103.278H48.8384C48.7503 103.278 48.6658 103.243 48.6033 103.181C48.5407 103.119 48.5053 103.035 48.5046 102.947L48.4712 98.5561L48.5713 75.9273C48.5281 74.7563 49.774 69.1825 50.8282 64.7069C50.8616 64.5671 50.895 64.4257 50.9283 64.2845C50.9617 64.1433 50.9951 64.0002 51.0285 63.8607C52.3712 58.1883 53.8528 52.4519 53.8677 52.3947C53.8789 52.3511 53.8989 52.3103 53.9263 52.2747C53.9538 52.239 53.9882 52.2093 54.0274 52.1873C54.0667 52.1652 54.11 52.1514 54.1548 52.1465C54.1995 52.1416 54.2448 52.1458 54.2879 52.1589L70.9804 57.2278C71.0482 57.2483 71.1077 57.2899 71.1502 57.3464L72.1629 58.6914L78.2168 66.7505L83.5695 73.8869C84.3126 74.8929 84.8434 76.0391 85.1296 77.2562L90.4044 99.2088C90.4248 99.2935 90.4112 99.3827 90.3666 99.4575C90.322 99.5323 90.2498 99.5867 90.1656 99.609L73.8848 103.933C73.8569 103.941 73.8282 103.945 73.7992 103.945ZM65.6088 78.2558C65.6629 78.2558 65.7163 78.269 65.7642 78.2941C65.8122 78.3193 65.8533 78.3558 65.884 78.4003L69.2225 83.258C69.2456 83.2918 69.2623 83.3294 69.2719 83.3692L74.0441 103.201L89.6794 99.0487L84.4807 77.4111C84.2154 76.282 83.7232 75.2184 83.034 74.285L77.683 67.1509L71.6292 59.0918L70.6823 57.834L54.4275 52.8986C54.091 54.2102 52.8332 59.1361 51.6783 64.0155C51.6449 64.155 51.6115 64.2963 51.5781 64.4379C51.5447 64.5795 51.5114 64.7223 51.478 64.8616C49.9979 71.1446 49.2028 75.068 49.2389 75.9078C49.2389 75.9129 49.2389 75.9183 49.2389 75.9236L49.1388 98.5557L49.1697 102.611H65.2973V79.152L65.275 78.6029C65.2732 78.558 65.2805 78.5131 65.2965 78.4711C65.3124 78.4291 65.3367 78.3907 65.3679 78.3583C65.3991 78.3259 65.4365 78.3001 65.4779 78.2826C65.5193 78.265 65.5639 78.2559 65.6089 78.2559L65.6088 78.2558Z" fill="#222433"/>
<path d="M64.7852 113.562L64.7963 102.969H50.5965C49.6172 105.648 47.2023 107.059 44.3089 107.704C41.7605 108.271 40.1358 110.705 40.325 113.451V113.573L56.6503 113.562L59.3434 108.971L59.2877 113.562H64.7852Z" fill="white"/>
<path d="M40.3248 113.906C40.2362 113.906 40.1513 113.871 40.0887 113.809C40.0261 113.746 39.9909 113.661 39.9909 113.573V113.462C39.7939 110.527 41.5777 107.969 44.2362 107.378C47.4094 106.671 49.4442 105.149 50.2826 102.854C50.3061 102.79 50.3488 102.734 50.4049 102.695C50.461 102.656 50.5278 102.635 50.5962 102.635H64.7961C64.8846 102.635 64.9695 102.67 65.0321 102.732C65.0947 102.795 65.1299 102.88 65.1299 102.968L65.1188 113.562C65.1188 113.65 65.0836 113.735 65.021 113.798C64.9584 113.86 64.8735 113.895 64.7849 113.895H59.2875C59.2433 113.895 59.1996 113.886 59.1588 113.869C59.118 113.852 59.0811 113.828 59.05 113.796C59.019 113.765 58.9944 113.728 58.9779 113.687C58.9614 113.646 58.9531 113.602 58.9537 113.558L58.994 110.226L56.9381 113.73C56.9087 113.781 56.8666 113.822 56.8161 113.851C56.7657 113.88 56.7085 113.895 56.6503 113.895L40.325 113.906L40.3248 113.906ZM50.8257 103.302C49.8583 105.702 47.6917 107.292 44.3815 108.029C42.1002 108.537 40.5543 110.711 40.6479 113.239L56.4588 113.228L59.0554 108.802C59.0926 108.739 59.1498 108.689 59.2181 108.662C59.2863 108.634 59.3618 108.63 59.4327 108.65C59.5037 108.669 59.5661 108.712 59.6104 108.771C59.6546 108.83 59.6781 108.901 59.6772 108.975L59.6256 113.228H64.4515L64.4621 103.302L50.8257 103.302Z" fill="#222433"/>
<path d="M88.3663 99.7344C88.7892 102.113 90.2804 103.536 92.9401 103.025L97.9144 102.247C100.474 101.769 102.9 103.158 103.801 105.737L103.846 105.859L87.7765 113.551L79.9644 108.961L80.02 113.551H74.5226L74.5115 103.403L88.3663 99.7344Z" fill="white"/>
<path d="M87.7767 113.884C87.7172 113.884 87.6587 113.868 87.6073 113.838L80.3055 109.548L80.354 113.547C80.3545 113.591 80.3463 113.635 80.3297 113.676C80.3132 113.717 80.2887 113.754 80.2576 113.785C80.2266 113.817 80.1896 113.842 80.1488 113.859C80.1081 113.876 80.0643 113.885 80.0201 113.885H74.5227C74.4342 113.885 74.3493 113.849 74.2866 113.787C74.224 113.724 74.1889 113.64 74.1889 113.551L74.1777 103.402C74.1777 103.329 74.2021 103.257 74.247 103.199C74.2919 103.141 74.3548 103.099 74.426 103.08L88.2808 99.4115C88.3255 99.3997 88.3721 99.3973 88.4177 99.4044C88.4634 99.4114 88.507 99.4279 88.546 99.4527C88.5849 99.4775 88.6183 99.5102 88.644 99.5485C88.6696 99.5869 88.6871 99.6301 88.6951 99.6755C88.9098 100.883 89.4116 101.788 90.1464 102.292C90.8475 102.774 91.7665 102.91 92.8771 102.697L92.8882 102.695L97.8626 101.917C100.598 101.406 103.174 102.931 104.117 105.626L104.16 105.745C104.188 105.823 104.186 105.908 104.155 105.985C104.124 106.061 104.065 106.124 103.99 106.159L87.9209 113.852C87.8759 113.873 87.8266 113.884 87.7767 113.884ZM74.8567 113.217H79.6823L79.6306 108.964C79.6299 108.905 79.6449 108.847 79.6742 108.795C79.7034 108.744 79.7458 108.701 79.797 108.672C79.8482 108.642 79.9063 108.626 79.9655 108.627C80.0247 108.627 80.0827 108.643 80.1337 108.673L87.7927 113.173L103.428 105.689C102.551 103.408 100.333 102.133 97.9752 102.574L92.9974 103.353C91.7076 103.6 90.6207 103.428 89.7679 102.841C88.9595 102.285 88.3904 101.359 88.1098 100.146L74.8458 103.659L74.8567 113.217Z" fill="#222433"/>
<path d="M50.0154 109.738C49.8605 109.738 49.7072 109.707 49.5654 109.644C49.4236 109.582 49.2964 109.491 49.1919 109.377C49.0734 109.248 48.9854 109.095 48.9343 108.927C48.8832 108.76 48.8703 108.584 48.8967 108.411L49.3816 104.961L45.3936 105.433C45.1441 105.457 44.8936 105.397 44.6822 105.263C44.4708 105.128 44.3106 104.927 44.2274 104.691L44.2031 104.618C44.1301 104.415 44.1144 104.195 44.1577 103.983C44.201 103.772 44.3016 103.576 44.4486 103.417C44.5818 103.269 44.7537 103.161 44.9449 103.105C45.1362 103.05 45.3392 103.048 45.5312 103.101L49.8694 104.257C49.9266 104.273 49.9787 104.303 50.0204 104.345C50.062 104.387 50.0918 104.439 50.1067 104.496L51.086 108.275C51.1283 108.444 51.1334 108.621 51.1011 108.792C51.0687 108.963 50.9996 109.125 50.8986 109.267C50.8058 109.399 50.6857 109.509 50.5465 109.59C50.4073 109.671 50.2522 109.721 50.0919 109.736C50.0666 109.737 50.0415 109.738 50.0154 109.738ZM49.8745 106.258L49.5587 108.505V108.508C49.547 108.582 49.5523 108.658 49.574 108.73C49.5958 108.803 49.6335 108.869 49.6844 108.924C49.7267 108.974 49.7801 109.014 49.8405 109.039C49.9008 109.065 49.9663 109.076 50.0317 109.072C50.0971 109.067 50.1606 109.048 50.2171 109.015C50.2735 108.981 50.3213 108.935 50.3566 108.88C50.4016 108.817 50.4323 108.744 50.4466 108.668C50.461 108.592 50.4587 108.514 50.4399 108.438L49.8745 106.258ZM45.2451 103.73C45.1871 103.731 45.13 103.744 45.0773 103.769C45.0246 103.793 44.9774 103.827 44.9385 103.87C44.8742 103.941 44.8304 104.027 44.812 104.121C44.7937 104.214 44.8013 104.311 44.8343 104.401L44.8589 104.474C44.8926 104.567 44.9565 104.647 45.0405 104.701C45.1246 104.754 45.224 104.779 45.3233 104.77L48.0098 104.452L45.3575 103.746C45.3209 103.735 45.2831 103.73 45.2451 103.73Z" fill="#222433"/>
<path d="M71.0727 86.2814C71.0244 86.2814 70.9766 86.271 70.9328 86.2508C70.8889 86.2306 70.8499 86.2011 70.8186 86.1644L68.682 83.6633C68.6245 83.596 68.5961 83.5086 68.6031 83.4205C68.6101 83.3323 68.6518 83.2505 68.7192 83.1931C68.7865 83.1357 68.874 83.1073 68.9622 83.1143C69.0505 83.1213 69.1324 83.163 69.1899 83.2303L71.3265 85.7314C71.3679 85.7799 71.3946 85.8392 71.4033 85.9023C71.412 85.9654 71.4025 86.0297 71.3758 86.0876C71.349 86.1455 71.3063 86.1945 71.2526 86.2288C71.1988 86.2632 71.1363 86.2814 71.0726 86.2814H71.0727Z" fill="#222433"/>
<path d="M92.5594 108.259C92.3969 108.259 92.2358 108.228 92.0847 108.169C91.8948 108.093 91.7236 107.976 91.5828 107.828C91.4421 107.679 91.335 107.502 91.2691 107.309L89.7639 102.896C89.7485 102.851 89.743 102.802 89.7478 102.755C89.7526 102.707 89.7677 102.661 89.792 102.62L91.5582 99.6129C91.6652 99.4272 91.8165 99.2708 91.9987 99.1577C92.1809 99.0446 92.3883 98.9782 92.6023 98.9646C92.8227 98.9535 93.0424 98.996 93.2425 99.0887C93.4427 99.1813 93.6172 99.3212 93.7511 99.4963C93.8784 99.6567 93.9684 99.8433 94.0146 100.043C94.0608 100.242 94.062 100.449 94.0182 100.649C93.9778 100.843 93.8946 101.026 93.7747 101.184C93.6547 101.342 93.501 101.472 93.3247 101.563L91.0074 102.756L93.676 105.887C93.8155 106.05 93.9163 106.242 93.971 106.449C94.0258 106.657 94.0329 106.874 93.9921 107.084C93.9564 107.283 93.8764 107.472 93.7578 107.635C93.6392 107.799 93.4852 107.934 93.3072 108.03L93.1608 108.11C92.9754 108.208 92.769 108.259 92.5594 108.259ZM90.6157 103.326L91.9001 107.091C91.9346 107.194 91.9907 107.287 92.0646 107.366C92.1386 107.445 92.2286 107.507 92.3287 107.548C92.4115 107.582 92.5006 107.597 92.5898 107.592C92.679 107.588 92.7662 107.564 92.8452 107.522L92.9904 107.443C93.0807 107.394 93.1587 107.325 93.2186 107.241C93.2784 107.158 93.3186 107.062 93.3362 106.96C93.3582 106.848 93.3545 106.732 93.3253 106.621C93.2962 106.51 93.2424 106.407 93.1679 106.319L90.6157 103.326ZM92.6838 99.6294C92.6705 99.6294 92.6571 99.6294 92.6437 99.6306C92.5386 99.6381 92.4369 99.6714 92.3477 99.7277C92.2586 99.7839 92.1847 99.8613 92.1327 99.953L90.8918 102.065L93.0194 100.971C93.1078 100.924 93.1848 100.859 93.2447 100.779C93.3046 100.699 93.3459 100.607 93.3658 100.51C93.3888 100.406 93.3883 100.298 93.3643 100.194C93.3403 100.09 93.2934 99.9928 93.2271 99.9094C93.1642 99.8241 93.0825 99.7544 92.9883 99.7059C92.8941 99.6573 92.7899 99.6311 92.6839 99.6294H92.6838Z" fill="#222433"/>
<path d="M54.4023 92.8634C54.9493 92.8634 55.3927 92.4205 55.3927 91.8741C55.3927 91.3277 54.9493 90.8848 54.4023 90.8848C53.8553 90.8848 53.4119 91.3277 53.4119 91.8741C53.4119 92.4205 53.8553 92.8634 54.4023 92.8634Z" fill="#82B1FF"/>
<path d="M50.4519 87.9162C50.9988 87.9162 51.4423 87.4732 51.4423 86.9268C51.4423 86.3804 50.9988 85.9375 50.4519 85.9375C49.9049 85.9375 49.4614 86.3804 49.4614 86.9268C49.4614 87.4732 49.9049 87.9162 50.4519 87.9162Z" fill="#82B1FF"/>
<path d="M64.5295 91.1407C65.0765 91.1407 65.5199 90.6978 65.5199 90.1514C65.5199 89.605 65.0765 89.1621 64.5295 89.1621C63.9825 89.1621 63.5391 89.605 63.5391 90.1514C63.5391 90.6978 63.9825 91.1407 64.5295 91.1407Z" fill="#82B1FF"/>
<path d="M61.2575 86.0607C61.8045 86.0607 62.248 85.6177 62.248 85.0713C62.248 84.525 61.8045 84.082 61.2575 84.082C60.7105 84.082 60.2671 84.525 60.2671 85.0713C60.2671 85.6177 60.7105 86.0607 61.2575 86.0607Z" fill="#82B1FF"/>
<path d="M60.2396 91.3994C60.6529 91.0414 60.6974 90.4166 60.339 90.0038C59.9806 89.591 59.3551 89.5466 58.9418 89.9046C58.5286 90.2625 58.4841 90.8874 58.8425 91.3001C59.2009 91.7129 59.8264 91.7573 60.2396 91.3994Z" fill="#82B1FF"/>
<path d="M55.6931 87.2052C56.2401 87.2052 56.6835 86.7623 56.6835 86.2159C56.6835 85.6695 56.2401 85.2266 55.6931 85.2266C55.1461 85.2266 54.7026 85.6695 54.7026 86.2159C54.7026 86.7623 55.1461 87.2052 55.6931 87.2052Z" fill="#82B1FF"/>
<path d="M51.843 82.2814C52.3899 82.2814 52.8334 81.8384 52.8334 81.2921C52.8334 80.7457 52.3899 80.3027 51.843 80.3027C51.296 80.3027 50.8525 80.7457 50.8525 81.2921C50.8525 81.8384 51.296 82.2814 51.843 82.2814Z" fill="#82B1FF"/>
<path d="M57.6079 81.4142C58.1548 81.4142 58.5983 80.9712 58.5983 80.4249C58.5983 79.8785 58.1548 79.4355 57.6079 79.4355C57.0609 79.4355 56.6174 79.8785 56.6174 80.4249C56.6174 80.9712 57.0609 81.4142 57.6079 81.4142Z" fill="#82B1FF"/>
<path d="M53.5458 76.4786C54.0928 76.4786 54.5363 76.0357 54.5363 75.4893C54.5363 74.9429 54.0928 74.5 53.5458 74.5C52.9988 74.5 52.5554 74.9429 52.5554 75.4893C52.5554 76.0357 52.9988 76.4786 53.5458 76.4786Z" fill="#82B1FF"/>
<path d="M63.4499 80.6349C63.9969 80.6349 64.4403 80.1919 64.4403 79.6456C64.4403 79.0992 63.9969 78.6562 63.4499 78.6562C62.9029 78.6562 62.4595 79.0992 62.4595 79.6456C62.4595 80.1919 62.9029 80.6349 63.4499 80.6349Z" fill="#82B1FF"/>
<path d="M60.1892 75.4884C60.7361 75.4884 61.1796 75.0455 61.1796 74.4991C61.1796 73.9527 60.7361 73.5098 60.1892 73.5098C59.6422 73.5098 59.1987 73.9527 59.1987 74.4991C59.1987 75.0455 59.6422 75.4884 60.1892 75.4884Z" fill="#82B1FF"/>
<path d="M55.8269 70.4318C56.3738 70.4318 56.8173 69.9889 56.8173 69.4425C56.8173 68.8961 56.3738 68.4531 55.8269 68.4531C55.2799 68.4531 54.8364 68.8961 54.8364 69.4425C54.8364 69.9889 55.2799 70.4318 55.8269 70.4318Z" fill="#82B1FF"/>
<path d="M50.4519 68.3526C50.5774 68.2945 50.7141 68.2641 50.8525 68.2637C51.1152 68.2637 51.3671 68.3679 51.5528 68.5534C51.7386 68.739 51.8429 68.9906 51.8429 69.253C51.8429 69.5154 51.7386 69.767 51.5528 69.9525C51.3671 70.1381 51.1152 70.2423 50.8525 70.2423C50.678 70.2429 50.5065 70.1968 50.3558 70.1088C50.2051 70.0209 50.0808 69.8942 49.9956 69.7421" fill="#82B1FF"/>
<path d="M64.0061 96.6212C64.5531 96.6212 64.9965 96.1783 64.9965 95.6319C64.9965 95.0855 64.5531 94.6426 64.0061 94.6426C63.4591 94.6426 63.0156 95.0855 63.0156 95.6319C63.0156 96.1783 63.4591 96.6212 64.0061 96.6212Z" fill="#82B1FF"/>
<path d="M59.7504 96.9912C60.1636 96.6332 60.2081 96.0084 59.8497 95.5956C59.4914 95.1828 58.8658 95.1384 58.4526 95.4963C58.0393 95.8543 57.9949 96.4792 58.3533 96.892C58.7116 97.3047 59.3371 97.3492 59.7504 96.9912Z" fill="#82B1FF"/>
<path d="M59.2497 101.849C59.6629 101.491 59.7074 100.866 59.349 100.453C58.9906 100.04 58.3651 99.9958 57.9519 100.354C57.5386 100.712 57.4941 101.337 57.8525 101.749C58.2109 102.162 58.8364 102.207 59.2497 101.849Z" fill="#82B1FF"/>
<path d="M53.9575 97.9982C54.5045 97.9982 54.9479 97.5552 54.9479 97.0088C54.9479 96.4625 54.5045 96.0195 53.9575 96.0195C53.4105 96.0195 52.967 96.4625 52.967 97.0088C52.967 97.5552 53.4105 97.9982 53.9575 97.9982Z" fill="#82B1FF"/>
<path d="M53.4118 103.135C53.9588 103.135 54.4022 102.692 54.4022 102.146C54.4022 101.599 53.9588 101.156 53.4118 101.156C52.8648 101.156 52.4214 101.599 52.4214 102.146C52.4214 102.692 52.8648 103.135 53.4118 103.135Z" fill="#82B1FF"/>
<path d="M48.9275 97.6543C49.1902 97.6543 49.4421 97.7585 49.6278 97.9441C49.8136 98.1296 49.9179 98.3812 49.9179 98.6436C49.9179 98.906 49.8136 99.1577 49.6278 99.3432C49.4421 99.5287 49.1902 99.633 48.9275 99.633" fill="#82B1FF"/>
<path d="M49.2058 91.4395C49.4685 91.4395 49.7204 91.5437 49.9062 91.7292C50.0919 91.9147 50.1962 92.1664 50.1962 92.4288C50.1962 92.6911 50.0919 92.9428 49.9062 93.1283C49.7204 93.3139 49.4685 93.4181 49.2058 93.4181" fill="#82B1FF"/>
<path d="M63.5385 102.1C64.0855 102.1 64.5289 101.657 64.5289 101.11C64.5289 100.564 64.0855 100.121 63.5385 100.121C62.9915 100.121 62.5481 100.564 62.5481 101.11C62.5481 101.657 62.9915 102.1 63.5385 102.1Z" fill="#82B1FF"/>
<path d="M78.2841 90.7502C78.8311 90.7502 79.2746 90.3072 79.2746 89.7608C79.2746 89.2144 78.8311 88.7715 78.2841 88.7715C77.7371 88.7715 77.2937 89.2144 77.2937 89.7608C77.2937 90.3072 77.7371 90.7502 78.2841 90.7502Z" fill="#82B1FF"/>
<path d="M74.3332 85.8048C74.8802 85.8048 75.3236 85.3619 75.3236 84.8155C75.3236 84.2691 74.8802 83.8262 74.3332 83.8262C73.7862 83.8262 73.3428 84.2691 73.3428 84.8155C73.3428 85.3619 73.7862 85.8048 74.3332 85.8048Z" fill="#82B1FF"/>
<path d="M85.1389 83.9474C85.6859 83.9474 86.1293 83.5045 86.1293 82.9581C86.1293 82.4117 85.6859 81.9688 85.1389 81.9688C84.5919 81.9688 84.1484 82.4117 84.1484 82.9581C84.1484 83.5045 84.5919 83.9474 85.1389 83.9474Z" fill="#82B1FF"/>
<path d="M83.4589 89.5392C84.0059 89.5392 84.4494 89.0963 84.4494 88.5499C84.4494 88.0035 84.0059 87.5605 83.4589 87.5605C82.9119 87.5605 82.4685 88.0035 82.4685 88.5499C82.4685 89.0963 82.9119 89.5392 83.4589 89.5392Z" fill="#82B1FF"/>
<path d="M79.5747 85.0939C80.1217 85.0939 80.5651 84.6509 80.5651 84.1045C80.5651 83.5582 80.1217 83.1152 79.5747 83.1152C79.0277 83.1152 78.5842 83.5582 78.5842 84.1045C78.5842 84.6509 79.0277 85.0939 79.5747 85.0939Z" fill="#82B1FF"/>
<path d="M75.7246 80.1681C76.2716 80.1681 76.715 79.7252 76.715 79.1788C76.715 78.6324 76.2716 78.1895 75.7246 78.1895C75.1776 78.1895 74.7341 78.6324 74.7341 79.1788C74.7341 79.7252 75.1776 80.1681 75.7246 80.1681Z" fill="#82B1FF"/>
<path d="M81.4777 79.3009C82.0247 79.3009 82.4682 78.858 82.4682 78.3116C82.4682 77.7652 82.0247 77.3223 81.4777 77.3223C80.9307 77.3223 80.4873 77.7652 80.4873 78.3116C80.4873 78.858 80.9307 79.3009 81.4777 79.3009Z" fill="#82B1FF"/>
<path d="M77.4157 74.3653C77.9627 74.3653 78.4061 73.9224 78.4061 73.376C78.4061 72.8297 77.9627 72.3867 77.4157 72.3867C76.8687 72.3867 76.4253 72.8297 76.4253 73.376C76.4253 73.9224 76.8687 74.3653 77.4157 74.3653Z" fill="#82B1FF"/>
<path d="M87.8991 94.508C88.4461 94.508 88.8895 94.065 88.8895 93.5186C88.8895 92.9722 88.4461 92.5293 87.8991 92.5293C87.3521 92.5293 86.9087 92.9722 86.9087 93.5186C86.9087 94.065 87.3521 94.508 87.8991 94.508Z" fill="#82B1FF"/>
<path d="M82.9692 95.131C83.5162 95.131 83.9596 94.6881 83.9596 94.1417C83.9596 93.5953 83.5162 93.1523 82.9692 93.1523C82.4222 93.1523 81.9788 93.5953 81.9788 94.1417C81.9788 94.6881 82.4222 95.131 82.9692 95.131Z" fill="#82B1FF"/>
<path d="M82.468 99.9884C83.0149 99.9884 83.4584 99.5455 83.4584 98.9991C83.4584 98.4527 83.0149 98.0098 82.468 98.0098C81.921 98.0098 81.4775 98.4527 81.4775 98.9991C81.4775 99.5455 81.921 99.9884 82.468 99.9884Z" fill="#82B1FF"/>
<path d="M77.8388 95.8868C78.3858 95.8868 78.8292 95.4439 78.8292 94.8975C78.8292 94.3511 78.3858 93.9082 77.8388 93.9082C77.2918 93.9082 76.8484 94.3511 76.8484 94.8975C76.8484 95.4439 77.2918 95.8868 77.8388 95.8868Z" fill="#82B1FF"/>
<path d="M77.2932 101.022C77.8402 101.022 78.2836 100.579 78.2836 100.032C78.2836 99.4859 77.8402 99.043 77.2932 99.043C76.7462 99.043 76.3027 99.4859 76.3027 100.032C76.3027 100.579 76.7462 101.022 77.2932 101.022Z" fill="#82B1FF"/>
<path d="M72.7975 97.5314C73.3445 97.5314 73.788 97.0884 73.788 96.542C73.788 95.9957 73.3445 95.5527 72.7975 95.5527C72.2506 95.5527 71.8071 95.9957 71.8071 96.542C71.8071 97.0884 72.2506 97.5314 72.7975 97.5314Z" fill="#82B1FF"/>
<path d="M73.0981 91.3185C73.6451 91.3185 74.0885 90.8756 74.0885 90.3292C74.0885 89.7828 73.6451 89.3398 73.0981 89.3398C72.5511 89.3398 72.1077 89.7828 72.1077 90.3292C72.1077 90.8756 72.5511 91.3185 73.0981 91.3185Z" fill="#82B1FF"/>
<path d="M87.4206 99.9884C87.9676 99.9884 88.411 99.5455 88.411 98.9991C88.411 98.4527 87.9676 98.0098 87.4206 98.0098C86.8736 98.0098 86.4302 98.4527 86.4302 98.9991C86.4302 99.5455 86.8736 99.9884 87.4206 99.9884Z" fill="#82B1FF"/>
<path d="M62.9492 66.7736C63.4962 66.7736 63.9396 66.3306 63.9396 65.7842C63.9396 65.2379 63.4962 64.7949 62.9492 64.7949C62.4022 64.7949 61.9587 65.2379 61.9587 65.7842C61.9587 66.3306 62.4022 66.7736 62.9492 66.7736Z" fill="#82B1FF"/>
<path d="M59.7035 61.5261C60.0683 61.119 60.0337 60.4936 59.6262 60.1292C59.2187 59.7647 58.5926 59.7993 58.2278 60.2063C57.8629 60.6134 57.8975 61.2388 58.305 61.6032C58.7125 61.9677 59.3386 61.9331 59.7035 61.5261Z" fill="#82B1FF"/>
<path d="M69.7929 59.9708C70.3399 59.9708 70.7833 59.5279 70.7833 58.9815C70.7833 58.4351 70.3399 57.9922 69.7929 57.9922C69.2459 57.9922 68.8025 58.4351 68.8025 58.9815C68.8025 59.5279 69.2459 59.9708 69.7929 59.9708Z" fill="#82B1FF"/>
<path d="M68.1128 65.5626C68.6598 65.5626 69.1032 65.1197 69.1032 64.5733C69.1032 64.0269 68.6598 63.584 68.1128 63.584C67.5658 63.584 67.1223 64.0269 67.1223 64.5733C67.1223 65.1197 67.5658 65.5626 68.1128 65.5626Z" fill="#82B1FF"/>
<path d="M64.2287 61.1153C64.7757 61.1153 65.2191 60.6724 65.2191 60.126C65.2191 59.5796 64.7757 59.1367 64.2287 59.1367C63.6817 59.1367 63.2383 59.5796 63.2383 60.126C63.2383 60.6724 63.6817 61.1153 64.2287 61.1153Z" fill="#82B1FF"/>
<path d="M60.3893 56.1915C60.9363 56.1915 61.3798 55.7486 61.3798 55.2022C61.3798 54.6558 60.9363 54.2129 60.3893 54.2129C59.8424 54.2129 59.3989 54.6558 59.3989 55.2022C59.3989 55.7486 59.8424 56.1915 60.3893 56.1915Z" fill="#82B1FF"/>
<path d="M72.5527 70.5314C73.0997 70.5314 73.5431 70.0885 73.5431 69.5421C73.5431 68.9957 73.0997 68.5527 72.5527 68.5527C72.0057 68.5527 71.5623 68.9957 71.5623 69.5421C71.5623 70.0885 72.0057 70.5314 72.5527 70.5314Z" fill="#82B1FF"/>
<path d="M78.84 67.5733C78.84 67.769 78.7819 67.9603 78.6731 68.123C78.5642 68.2856 78.4096 68.4125 78.2286 68.4873C78.0476 68.5622 77.8485 68.5818 77.6563 68.5436C77.4642 68.5055 77.2877 68.4112 77.1492 68.2729C77.0107 68.1345 76.9164 67.9582 76.8782 67.7663C76.8399 67.5744 76.8596 67.3755 76.9345 67.1947C77.0095 67.0139 77.1364 66.8594 77.2993 66.7507C77.4622 66.642 77.6537 66.584 77.8496 66.584" fill="#82B1FF"/>
<path d="M73.7883 63.8048C74.3353 63.8048 74.7787 63.3618 74.7787 62.8155C74.7787 62.2691 74.3353 61.8262 73.7883 61.8262C73.2413 61.8262 72.7979 62.2691 72.7979 62.8155C72.7979 63.3618 73.2413 63.8048 73.7883 63.8048Z" fill="#82B1FF"/>
<path d="M55.4704 56.6583C56.0174 56.6583 56.4608 56.2154 56.4608 55.669C56.4608 55.1226 56.0174 54.6797 55.4704 54.6797C54.9234 54.6797 54.48 55.1226 54.48 55.669C54.48 56.2154 54.9234 56.6583 55.4704 56.6583Z" fill="#82B1FF"/>
<path d="M67.6228 71.1544C68.1697 71.1544 68.6132 70.7115 68.6132 70.1651C68.6132 69.6187 68.1697 69.1758 67.6228 69.1758C67.0758 69.1758 66.6323 69.6187 66.6323 70.1651C66.6323 70.7115 67.0758 71.1544 67.6228 71.1544Z" fill="#82B1FF"/>
<path d="M61.9477 71.131C62.4947 71.131 62.9381 70.6881 62.9381 70.1417C62.9381 69.5953 62.4947 69.1523 61.9477 69.1523C61.4007 69.1523 60.9573 69.5953 60.9573 70.1417C60.9573 70.6881 61.4007 71.131 61.9477 71.131Z" fill="#82B1FF"/>
<path d="M69.7929 80.9806C70.3399 80.9806 70.7833 80.5377 70.7833 79.9913C70.7833 79.4449 70.3399 79.002 69.7929 79.002C69.2459 79.002 68.8025 79.4449 68.8025 79.9913C68.8025 80.5377 69.2459 80.9806 69.7929 80.9806Z" fill="#82B1FF"/>
<path d="M66.1205 76.4786C66.6675 76.4786 67.111 76.0357 67.111 75.4893C67.111 74.9429 66.6675 74.5 66.1205 74.5C65.5735 74.5 65.1301 74.9429 65.1301 75.4893C65.1301 76.0357 65.5735 76.4786 66.1205 76.4786Z" fill="#82B1FF"/>
<path d="M54.1245 64.5392C54.6715 64.5392 55.1149 64.0963 55.1149 63.5499C55.1149 63.0035 54.6715 62.5605 54.1245 62.5605C53.5775 62.5605 53.134 63.0035 53.134 63.5499C53.134 64.0963 53.5775 64.5392 54.1245 64.5392Z" fill="#82B1FF"/>
<path d="M72.0744 76.0118C72.6214 76.0118 73.0648 75.5689 73.0648 75.0225C73.0648 74.4761 72.6214 74.0332 72.0744 74.0332C71.5274 74.0332 71.084 74.4761 71.084 75.0225C71.084 75.5689 71.5274 76.0118 72.0744 76.0118Z" fill="#82B1FF"/>
<path d="M73.8103 103.935C73.7354 103.934 73.6625 103.909 73.6037 103.863C73.5448 103.817 73.5032 103.752 73.4857 103.679L68.6483 83.5745L65.976 79.6864V102.945C65.976 103.034 65.9408 103.118 65.8782 103.181C65.8156 103.244 65.7307 103.279 65.6421 103.279H48.8494C48.7613 103.279 48.6768 103.244 48.6142 103.182C48.5517 103.12 48.5162 103.036 48.5156 102.948L48.4822 98.5569L48.5823 75.9285C48.4941 73.6083 53.5943 53.3805 53.8117 52.5195C53.8227 52.476 53.8423 52.4351 53.8695 52.3993C53.8967 52.3636 53.9309 52.3337 53.97 52.3114C54.009 52.2891 54.0522 52.275 54.0968 52.2698C54.1415 52.2646 54.1867 52.2685 54.2299 52.2812L70.9892 57.2167C71.058 57.237 71.1185 57.2788 71.1616 57.3361L72.1743 58.6811L78.2281 66.7402L83.5808 73.8766C84.324 74.8825 84.8547 76.0288 85.1408 77.2459L90.4157 99.1986C90.436 99.2832 90.4224 99.3725 90.3778 99.4472C90.3331 99.522 90.261 99.5764 90.1767 99.5987L73.8959 103.923C73.868 103.93 73.8393 103.934 73.8103 103.935ZM65.6199 78.2455C65.6741 78.2455 65.7274 78.2586 65.7754 78.2838C65.8234 78.309 65.8645 78.3454 65.8952 78.39L69.2337 83.2477C69.2568 83.2815 69.2735 83.3191 69.283 83.3589L74.0551 103.191L89.6904 99.0384L84.4916 77.4007C84.2263 76.2716 83.7341 75.2081 83.0449 74.2748L77.6938 67.1406L71.64 59.0815L70.6941 57.8254L54.3743 53.0192C52.5193 60.3814 49.1737 74.1879 49.2497 75.9076C49.2497 75.913 49.2497 75.9187 49.2497 75.9239L49.1495 98.5559L49.1805 102.612H65.3083V79.1417L65.286 78.5927C65.2842 78.5478 65.2915 78.503 65.3075 78.4609C65.3234 78.4189 65.3477 78.3805 65.3789 78.3481C65.4101 78.3157 65.4475 78.29 65.4889 78.2724C65.5303 78.2548 65.5749 78.2457 65.6199 78.2458V78.2455Z" fill="#222433"/>
<path d="M51.8434 63.8962C51.8889 64.5016 51.7703 65.108 51.5001 65.6518C51.2298 66.1956 50.8179 66.6566 50.3076 66.9864C49.8094 67.2838 49.3685 67.6678 49.0056 68.1202C47.5701 69.9988 47.1917 69.8321 46.6464 69.7543C45.3778 69.5653 48.605 64.1296 49.729 61.1172" fill="white"/>
<path d="M47.0218 70.1265C46.9057 70.1249 46.7898 70.1145 46.6753 70.0953L46.5989 70.0842C46.4985 70.0712 46.4027 70.0343 46.3195 69.9767C46.2364 69.919 46.1683 69.8422 46.1211 69.7527C45.7362 69.0316 46.5489 67.2426 47.9069 64.3837C48.473 63.1904 49.0591 61.9572 49.4161 61.0001C49.4471 60.9172 49.5098 60.85 49.5903 60.8133C49.6709 60.7766 49.7628 60.7733 49.8458 60.8043C49.9288 60.8352 49.9961 60.8979 50.0328 60.9784C50.0696 61.0589 50.0728 61.1506 50.0418 61.2335C49.6746 62.2175 49.0827 63.4639 48.5101 64.6692C47.9851 65.775 47.4418 66.9181 47.0905 67.8237C46.6231 69.0283 46.6775 69.3551 46.7039 69.4253L46.7764 69.4364C47.1783 69.4981 47.4955 69.5466 48.7403 67.9178C49.1266 67.4352 49.5957 67.0249 50.1256 66.7061C50.5849 66.4078 50.9556 65.9919 51.1992 65.5018C51.4427 65.0117 51.5502 64.4652 51.5103 63.9195C51.504 63.8313 51.533 63.7441 51.591 63.6773C51.6489 63.6104 51.7311 63.5693 51.8194 63.5629C51.9077 63.5566 51.995 63.5856 52.0619 63.6435C52.1289 63.7014 52.17 63.7835 52.1764 63.8717C52.2248 64.5364 52.0938 65.2019 51.797 65.7989C51.5003 66.3958 51.0487 66.9023 50.4893 67.2656C50.0234 67.5427 49.6107 67.9006 49.2706 68.3224C48.1242 69.8228 47.5706 70.1265 47.0218 70.1265Z" fill="#222433"/>
<path d="M39.4129 46.4876C39.2587 44.8481 39.6871 43.2066 40.6231 41.8509C41.5591 40.4953 42.9429 39.5119 44.5319 39.0733L57.9527 35.3828C59.9156 34.9145 61.9685 34.9837 63.8953 35.5829L67.4007 36.6833L79.1968 41.8078L73.7105 53.7241L70.8616 57.5369L55.3376 52.8571L54.6823 52.6681L55.5824 47.2213L53.0204 47.6437L54.6823 52.6681L51.8522 63.7996L41.5274 50.0892C40.6705 48.9665 39.7468 47.866 39.413 46.4876H39.4129Z" fill="white"/>
<path d="M51.852 64.1335C51.8001 64.1335 51.749 64.1214 51.7027 64.0983C51.6563 64.0751 51.616 64.0415 51.5849 64.0001L41.2603 50.2901C41.1811 50.1863 41.0998 50.0809 41.0187 49.9755C40.2265 48.9471 39.4071 47.8836 39.0881 46.5665C39.0844 46.5511 39.0818 46.5354 39.0803 46.5197C38.917 44.8019 39.365 43.0815 40.3457 41.661C41.3263 40.2405 42.7768 39.2106 44.4423 38.7524L57.864 35.0619C57.8677 35.0608 57.8715 35.0599 57.8751 35.0589C59.8964 34.578 62.0099 34.6492 63.9941 35.2652L67.5002 36.3657C67.5116 36.3692 67.5227 36.3733 67.5336 36.3779L79.3297 41.5024C79.3704 41.5201 79.4071 41.5457 79.4378 41.5778C79.4684 41.6098 79.4924 41.6476 79.5082 41.689C79.524 41.7304 79.5315 41.7746 79.53 41.8189C79.5286 41.8632 79.5183 41.9067 79.4999 41.947L74.0136 53.8633C74.0038 53.8846 73.9918 53.9047 73.9778 53.9235L71.129 57.7362C71.088 57.7911 71.031 57.8321 70.9659 57.8535C70.9008 57.875 70.8306 57.8759 70.765 57.8561L55.2409 53.1763L54.921 53.084L52.1756 63.8815C52.16 63.9424 52.1276 63.9976 52.082 64.0409C52.0363 64.0842 51.9794 64.1137 51.9177 64.126C51.8961 64.1306 51.8741 64.1331 51.852 64.1335ZM39.7427 46.4326C40.0321 47.6017 40.7687 48.5572 41.5479 49.5688C41.6295 49.675 41.7111 49.7812 41.7927 49.8875L51.6998 63.0433L54.3345 52.681L52.7031 47.7492C52.688 47.7035 52.6829 47.6551 52.6884 47.6072C52.6938 47.5594 52.7095 47.5133 52.7344 47.4721C52.7594 47.4309 52.793 47.3956 52.8329 47.3686C52.8728 47.3416 52.918 47.3236 52.9656 47.3157L55.5277 46.8927C55.58 46.8841 55.6337 46.888 55.6842 46.9043C55.7347 46.9205 55.7807 46.9485 55.8182 46.9859C55.8557 47.0234 55.8837 47.0693 55.9 47.1198C55.9162 47.1702 55.9201 47.2238 55.9115 47.2761L55.0598 52.4306L55.4297 52.5372L70.7338 57.1503L73.4216 53.5535L78.7507 41.9783L67.2835 36.9967L63.7949 35.9014C61.9273 35.3219 59.9381 35.2545 58.0354 35.7063L44.6202 39.3953C43.11 39.8107 41.7941 40.7431 40.9025 42.0295C40.0109 43.3159 39.6004 44.8745 39.7427 46.4326ZM53.4595 47.9101L54.5735 51.2782L55.1768 47.6269L53.4595 47.9101Z" fill="#222433"/>
<path d="M68.4352 32.5146L66.3208 36.1828C66.0587 36.6394 65.9153 37.1544 65.9036 37.6806C65.8919 38.2068 66.0124 38.7275 66.2541 39.1953L66.3765 39.4287C66.5696 39.7934 66.8331 40.1162 67.1517 40.3787C67.4704 40.6411 67.8379 40.838 68.2331 40.9578C68.6283 41.0777 69.0434 41.1183 69.4543 41.0771C69.8653 41.036 70.264 40.914 70.6275 40.7181C71.1218 40.4485 71.5363 40.0536 71.8294 39.5732L73.2427 37.2277C74.3744 37.2532 75.4769 36.867 76.3449 36.141C77.2128 35.4151 77.7872 34.3989 77.9611 33.2816C78.0219 32.8993 78.0332 32.5107 77.9945 32.1255C77.9071 31.1564 77.5179 30.239 76.8817 29.5022C77.0285 29.1574 77.1295 28.7949 77.1821 28.4239C77.2378 27.8844 77.2378 27.3405 77.1821 26.801L71.9629 26.1562L70.6164 27.8348L69.1363 27.7792C67.1888 27.7125 66.1316 30.0135 67.4448 31.4474L68.4352 32.5146Z" fill="white"/>
<path d="M69.1441 41.4265C68.8005 41.4262 68.4588 41.3751 68.1302 41.2746C67.6935 41.1428 67.2874 40.9255 66.9356 40.6352C66.5839 40.345 66.2935 39.9877 66.0815 39.5841L65.9583 39.3494C65.6896 38.8324 65.5555 38.2562 65.5682 37.6738C65.5809 37.0914 65.7401 36.5216 66.0311 36.0168L68.023 32.5605L67.1995 31.6736C66.8623 31.3075 66.641 30.8499 66.5634 30.3585C66.4859 29.867 66.5556 29.3636 66.7637 28.9117C66.9719 28.4597 67.3093 28.0793 67.7333 27.8184C68.1574 27.5575 68.6492 27.4277 69.147 27.4453L70.4601 27.4946L71.7016 25.9471C71.7373 25.9027 71.7837 25.8682 71.8364 25.8468C71.8892 25.8254 71.9466 25.8178 72.0031 25.8248L77.2223 26.4695C77.2971 26.4788 77.3667 26.5131 77.4195 26.5668C77.4723 26.6206 77.5054 26.6906 77.5133 26.7655C77.572 27.3336 77.5713 27.9062 77.5113 28.4742C77.4637 28.8046 77.3811 29.1291 77.2649 29.4422C77.8715 30.2034 78.2406 31.126 78.3263 32.0951C78.3679 32.5086 78.3556 32.9257 78.2896 33.336C78.1053 34.4982 77.5174 35.5585 76.6289 36.3311C75.7404 37.1037 74.608 37.5393 73.4302 37.5615L72.1146 39.7446C71.7902 40.2751 71.3323 40.7115 70.7867 41.0104C70.282 41.2826 69.7176 41.4255 69.1441 41.4265ZM69.0557 28.1107C68.6952 28.111 68.3425 28.2162 68.0408 28.4134C67.7391 28.6107 67.5014 28.8913 67.3567 29.2212C67.212 29.5511 67.1666 29.9159 67.226 30.2712C67.2854 30.6264 67.447 30.9567 67.6912 31.2217L68.6801 32.2873C68.7285 32.3395 68.759 32.4058 68.767 32.4766C68.775 32.5473 68.7601 32.6188 68.7246 32.6805L66.6102 36.3487C66.3751 36.7566 66.2464 37.2169 66.236 37.6874C66.2256 38.1579 66.3338 38.6235 66.5506 39.0413L66.6723 39.2734C66.8449 39.5991 67.0804 39.8873 67.3651 40.1216C67.6499 40.3559 67.9782 40.5316 68.3312 40.6385C68.6842 40.7454 69.0549 40.7815 69.422 40.7446C69.789 40.7077 70.1451 40.5986 70.4697 40.4236C70.9125 40.1828 71.2835 39.829 71.5447 39.3983L72.9567 37.0552C72.987 37.0047 73.0302 36.9631 73.0818 36.9347C73.1335 36.9063 73.1918 36.8922 73.2508 36.8937C74.3012 36.9156 75.3238 36.5563 76.1293 35.8825C76.9348 35.2088 77.4684 34.2662 77.6313 33.2295C77.6882 32.8738 77.6986 32.5123 77.6622 32.154C77.5821 31.2543 77.2206 30.4026 76.6288 29.7196C76.5879 29.6721 76.5612 29.6141 76.5517 29.5522C76.5423 29.4903 76.5505 29.4269 76.5754 29.3695C76.7106 29.0515 76.8035 28.7173 76.8518 28.3752C76.8966 27.9511 76.9032 27.5238 76.8715 27.0985L72.1069 26.5093L70.8769 28.0427C70.8445 28.0835 70.8028 28.1161 70.7554 28.1378C70.7079 28.1594 70.656 28.1696 70.6038 28.1674L69.1237 28.1118C69.101 28.111 69.0783 28.1106 69.0557 28.1107Z" fill="#222433"/>
<path d="M77.6162 27.0677C77.4911 26.0171 77.0363 25.033 76.3169 24.2564C75.5976 23.4797 74.6506 22.9505 73.6117 22.7444C72.5727 22.5383 71.4951 22.666 70.5333 23.1092C69.5715 23.5523 68.7747 24.2882 68.2572 25.2114C68.1913 25.3189 68.1318 25.4302 68.0792 25.5448C67.8856 25.9654 67.7508 26.4105 67.6785 26.8676C67.6563 27.0122 67.6452 27.1678 67.634 27.3123H67.6563C68.1571 27.3901 68.6912 27.3567 69.1586 27.568C69.5592 27.7458 69.882 28.0793 70.1491 28.4239C70.6164 29.013 71.0838 29.8801 70.7834 30.636C70.8141 30.6338 70.8443 30.6263 70.8724 30.6137C70.9119 30.5944 70.9464 30.5663 70.9734 30.5317C71.0004 30.497 71.0192 30.4566 71.0282 30.4136L71.4177 27.9125C71.4802 27.5317 71.6905 27.1909 72.0031 26.9641C72.3156 26.7372 72.705 26.6427 73.0869 26.7009L77.2935 27.3679C77.3349 27.3741 77.3773 27.3713 77.4176 27.3598C77.4579 27.3483 77.4953 27.3283 77.5272 27.3012C77.5636 27.2755 77.5915 27.2396 77.6073 27.198C77.6232 27.1564 77.6263 27.1111 77.6162 27.0677Z" fill="#0D6EFD"/>
<path d="M73.1315 29.9352C73.4019 29.9352 73.6211 29.7163 73.6211 29.4461C73.6211 29.176 73.4019 28.957 73.1315 28.957C72.8611 28.957 72.6418 29.176 72.6418 29.4461C72.6418 29.7163 72.8611 29.9352 73.1315 29.9352Z" fill="#222433"/>
<path d="M76.4589 30.0915C76.7293 30.0915 76.9485 29.8725 76.9485 29.6024C76.9485 29.3323 76.7293 29.1133 76.4589 29.1133C76.1885 29.1133 75.9692 29.3323 75.9692 29.6024C75.9692 29.8725 76.1885 30.0915 76.4589 30.0915Z" fill="#222433"/>
<path d="M73.3316 37.5723C73.0774 37.5705 72.8236 37.5508 72.5722 37.5134C71.5329 37.3526 70.571 36.8684 69.8235 36.1296C69.7626 36.0667 69.729 35.9825 69.7297 35.895C69.7305 35.8076 69.7656 35.724 69.8275 35.6621C69.8894 35.6003 69.9732 35.5652 70.0607 35.5645C70.1482 35.5637 70.2326 35.5973 70.2955 35.6581C70.9426 36.2965 71.7746 36.7151 72.6733 36.8544C72.8912 36.8866 73.111 36.9036 73.3312 36.9054C73.4198 36.9054 73.5047 36.9405 73.5673 37.0031C73.6299 37.0656 73.6651 37.1504 73.6651 37.2389C73.6651 37.3273 73.6299 37.4121 73.5673 37.4747C73.5047 37.5372 73.4198 37.5723 73.3312 37.5723H73.3316Z" fill="#222433"/>
<path d="M75.7137 31.6033C75.7026 31.6033 75.6915 31.6033 75.6798 31.6016L74.3777 31.4682C74.3341 31.4638 74.2918 31.4508 74.2532 31.43C74.2146 31.4092 74.1805 31.381 74.1529 31.347C74.1252 31.3131 74.1045 31.274 74.0919 31.232C74.0793 31.1901 74.0752 31.1461 74.0796 31.1025C74.0841 31.0589 74.0971 31.0167 74.1179 30.9781C74.1387 30.9396 74.1669 30.9055 74.2009 30.8779C74.2349 30.8502 74.2741 30.8295 74.3161 30.817C74.3581 30.8044 74.4021 30.8002 74.4457 30.8047L75.2963 30.8919L74.9079 28.9799C74.8903 28.8932 74.9079 28.8031 74.9568 28.7294C75.0057 28.6556 75.082 28.6043 75.1688 28.5867C75.2555 28.5692 75.3458 28.5867 75.4196 28.6356C75.4934 28.6845 75.5448 28.7606 75.5624 28.8473L76.0409 31.2039C76.0508 31.2524 76.0498 31.3024 76.0379 31.3504C76.0261 31.3985 76.0037 31.4433 75.9723 31.4816C75.941 31.5199 75.9015 31.5507 75.8568 31.5719C75.812 31.5931 75.7631 31.6041 75.7136 31.6041L75.7137 31.6033Z" fill="#222433"/>
<path d="M68.4351 32.5148C68.2162 32.535 67.9956 32.5275 67.7786 32.4926C67.2778 32.4145 66.8115 32.1899 66.4386 31.8471C66.0657 31.5044 65.8029 31.0588 65.6835 30.5669C65.5641 30.0749 65.5934 29.5587 65.7677 29.0834C65.942 28.608 66.2535 28.195 66.6628 27.8965C67.0721 27.5981 67.5608 27.4275 68.0672 27.4065C68.5735 27.3855 69.0747 27.5149 69.5074 27.7784C69.9401 28.0419 70.2849 28.4277 70.4981 28.8869C70.7113 29.3461 70.7834 29.8582 70.7053 30.3583" fill="white"/>
<path d="M68.2073 32.8593C68.0471 32.8587 67.8871 32.8462 67.7288 32.8219C67.1628 32.734 66.6355 32.4804 66.2138 32.0933C65.792 31.7061 65.4946 31.2027 65.3593 30.6467C65.224 30.0907 65.2568 29.5071 65.4535 28.9697C65.6502 28.4323 66.0021 27.9653 66.4645 27.6276C66.927 27.29 67.4793 27.0969 68.0517 27.0729C68.624 27.0488 69.1906 27.1948 69.6798 27.4924C70.1691 27.79 70.559 28.2258 70.8003 28.7448C71.0415 29.2638 71.1233 29.8425 71.0353 30.4079C71.0294 30.4519 71.0149 30.4942 70.9925 30.5325C70.9701 30.5708 70.9403 30.6042 70.9048 30.6308C70.8693 30.6575 70.8289 30.6767 70.7859 30.6876C70.7428 30.6984 70.6981 30.7006 70.6542 30.6939C70.6103 30.6873 70.5682 30.6719 70.5303 30.6488C70.4924 30.6257 70.4596 30.5953 70.4336 30.5594C70.4076 30.5234 70.3891 30.4827 70.379 30.4395C70.369 30.3963 70.3677 30.3516 70.3752 30.3079C70.4435 29.8728 70.381 29.4273 70.1958 29.0277C70.0105 28.6281 69.7107 28.2924 69.3344 28.063C68.9581 27.8336 68.5221 27.7208 68.0816 27.739C67.6411 27.7572 67.2159 27.9055 66.8598 28.1651C66.5037 28.4247 66.2326 28.7839 66.081 29.1974C65.9293 29.6109 65.9038 30.0601 66.0078 30.488C66.1117 30.916 66.3404 31.3035 66.6649 31.6017C66.9894 31.8998 67.3951 32.0951 67.8307 32.1628C68.0189 32.1933 68.2102 32.2 68.4 32.1828C68.4881 32.1735 68.5762 32.1996 68.6451 32.2552C68.7139 32.3109 68.7578 32.3915 68.7671 32.4795C68.7763 32.5674 68.7503 32.6555 68.6946 32.7242C68.6389 32.793 68.5581 32.8368 68.47 32.8461C68.3828 32.8551 68.2951 32.8595 68.2073 32.8593Z" fill="#222433"/>
<path d="M67.7678 30.9923C67.6949 30.9924 67.6239 30.9687 67.5658 30.9247C67.5076 30.8807 67.4655 30.8189 67.4458 30.7487C67.4262 30.6785 67.4301 30.6038 67.457 30.5361C67.4838 30.4683 67.5322 30.4112 67.5946 30.3735L68.3255 29.932L67.0832 29.3611C67.0434 29.3428 67.0076 29.3168 66.9778 29.2847C66.948 29.2525 66.9248 29.2148 66.9096 29.1738C66.8944 29.1327 66.8875 29.089 66.8892 29.0453C66.8909 29.0015 66.9012 28.9585 66.9195 28.9187C66.9565 28.8384 67.0239 28.776 67.107 28.7453C67.1481 28.7301 67.1918 28.7232 67.2356 28.7249C67.2795 28.7265 67.3225 28.7368 67.3623 28.7551L69.1763 29.5888C69.2313 29.6141 69.2785 29.654 69.3126 29.704C69.3468 29.7541 69.3666 29.8125 69.3701 29.8729C69.3735 29.9334 69.3604 29.9937 69.3321 30.0473C69.3039 30.1008 69.2615 30.1457 69.2096 30.1771L67.941 30.9441C67.8888 30.9757 67.8289 30.9924 67.7678 30.9923Z" fill="#222433"/>
<path d="M75.8469 32.8591H75.843L73.8511 32.8369C73.7625 32.8364 73.6778 32.8008 73.6155 32.7379C73.5533 32.675 73.5186 32.59 73.519 32.5016C73.5195 32.4131 73.5552 32.3285 73.6181 32.2663C73.6811 32.2041 73.7662 32.1694 73.8547 32.1699H73.8919L75.8505 32.1922C75.939 32.1926 76.0238 32.2282 76.086 32.2911C76.1483 32.354 76.183 32.439 76.1825 32.5275C76.182 32.6159 76.1464 32.7005 76.0834 32.7627C76.0205 32.8249 75.9354 32.8596 75.8468 32.8591H75.8469Z" fill="#222433"/>
<path d="M79.4193 46.897C76.2032 47.2416 74.1444 43.64 76.1921 41.1945C76.2254 41.1611 76.2477 41.1278 76.2811 41.0944C77.227 40.0495 77.9837 38.8268 77.4384 36.8815C77.0489 35.5031 76.2366 33.5022 77.5942 33.1799C78.529 32.9575 79.5751 35.2585 80.4097 36.9259C80.3652 34.247 80.3096 30.7344 81.5559 30.6454C82.8023 30.5454 83.0916 33.0909 83.1028 36.548C83.7593 32.7352 83.559 30.6343 84.772 30.6788C86.764 30.7566 85.9071 38.6267 84.8499 41.2834L84.2935 43.0064C83.6147 45.1295 81.6895 46.6524 79.4193 46.897Z" fill="white"/>
<path d="M79.0089 47.2536C78.2884 47.2585 77.5803 47.067 76.9606 46.6998C76.341 46.3326 75.8333 45.8035 75.4923 45.1696C75.1314 44.5092 74.9804 43.7547 75.0596 43.0066C75.1388 42.2584 75.4443 41.5521 75.9354 40.9817C75.9417 40.9742 75.9484 40.967 75.9553 40.9601C75.9645 40.9508 75.9718 40.9414 75.9795 40.9322C75.9978 40.9099 76.0163 40.8886 76.0376 40.8668C77.0323 39.7663 77.5956 38.6824 77.1165 36.9725C77.0691 36.805 77.0152 36.6273 76.9597 36.4445C76.6378 35.3839 76.2729 34.1818 76.7019 33.4358C76.7889 33.2872 76.9065 33.1587 77.047 33.0589C77.1874 32.959 77.3475 32.8901 77.5166 32.8566C78.4562 32.6328 79.2772 33.9551 80.0606 35.4833C80.0579 32.5281 80.2791 30.4034 81.5316 30.3144C81.6876 30.3014 81.8446 30.3214 81.9923 30.3733C82.14 30.4252 82.275 30.5077 82.3885 30.6154C82.8162 31.0086 83.0978 31.7587 83.2601 33.0202C83.4898 31.3114 83.7419 30.3079 84.7833 30.3471C85.0409 30.3572 85.4099 30.4658 85.7098 30.9264C86.915 32.7772 86.0831 39.0744 85.1634 41.3976L84.6105 43.1101C83.8936 45.3523 81.8695 46.9698 79.4542 47.2299C79.3063 47.2457 79.1576 47.2536 79.0089 47.2536ZM76.4401 41.4187C76.0389 41.8878 75.7898 42.4675 75.7258 43.0812C75.6617 43.6948 75.7858 44.3134 76.0814 44.8551C76.7257 46.0598 77.9911 46.7152 79.3833 46.5663C81.5359 46.3345 83.3384 44.8977 83.9752 42.9059L84.5317 41.1819C84.5339 41.1749 84.5365 41.168 84.5391 41.1612C85.473 38.8146 86.151 32.826 85.1504 31.2893C84.9946 31.0493 84.8518 31.0166 84.7584 31.013H84.74C84.2065 31.013 84.074 31.8857 83.8289 33.8342C83.728 34.6366 83.6137 35.546 83.4312 36.6058C83.4171 36.6881 83.3726 36.7622 83.3065 36.8133C83.2404 36.8644 83.1575 36.8889 83.0742 36.8819C82.9909 36.8749 82.9132 36.837 82.8566 36.7756C82.8 36.7141 82.7684 36.6338 82.7683 36.5503C82.7618 34.5352 82.6681 31.7784 81.9368 31.106C81.8908 31.0598 81.8351 31.0245 81.7738 31.0025C81.7124 30.9806 81.6469 30.9725 81.5821 30.979C81.2328 31.0041 80.9598 31.6868 80.8299 32.8525C80.6954 34.0609 80.7206 35.5807 80.743 36.9216C80.7443 36.9972 80.7198 37.071 80.6735 37.1309C80.6273 37.1907 80.5621 37.2331 80.4886 37.2511C80.4151 37.269 80.3376 37.2615 80.2689 37.2298C80.2003 37.198 80.1444 37.1439 80.1106 37.0763C80.0416 36.9383 79.9709 36.7959 79.8991 36.651C79.3297 35.5018 78.2701 33.3641 77.671 33.5051C77.5909 33.5183 77.5145 33.5485 77.4472 33.5938C77.3798 33.6391 77.323 33.6984 77.2808 33.7677C76.9955 34.2638 77.3299 35.3654 77.5987 36.2507C77.6554 36.4378 77.7106 36.6195 77.7592 36.7917C78.3565 38.923 77.472 40.2762 76.5283 41.319C76.5244 41.3231 76.5206 41.3272 76.5166 41.3311C76.5074 41.3403 76.5001 41.3498 76.4923 41.3589C76.4761 41.3792 76.4593 41.399 76.4402 41.4189L76.4401 41.4187Z" fill="#222433"/>
<path d="M79.5863 64.7067C77.8806 64.7059 76.245 64.0287 75.0389 62.8239C73.8328 61.6192 73.1549 59.9854 73.1541 58.2817V42.7305H86.0073V58.2817C86.0091 59.125 85.8443 59.9604 85.5224 60.74C85.2005 61.5195 84.7277 62.228 84.1313 62.8249C83.5348 63.4217 82.8264 63.8951 82.0464 64.218C81.2665 64.5409 80.4305 64.707 79.5863 64.7067Z" fill="white"/>
<path d="M79.5864 65.0397C77.7925 65.0376 76.0727 64.3249 74.8043 63.0579C73.5358 61.7909 72.8223 60.073 72.8203 58.2812V42.73C72.8203 42.6415 72.8555 42.5567 72.9181 42.4942C72.9807 42.4316 73.0656 42.3965 73.1542 42.3965H86.0074C86.096 42.3965 86.1809 42.4316 86.2435 42.4942C86.3061 42.5567 86.3413 42.6415 86.3413 42.73V58.2812C86.3431 59.1683 86.1697 60.047 85.831 60.8671C85.4923 61.6872 84.995 62.4324 84.3675 63.0602C83.74 63.688 82.9948 64.186 82.1743 64.5257C81.3539 64.8653 80.4745 65.04 79.5864 65.0397ZM73.488 43.0634V58.2812C73.4877 59.4863 73.8454 60.6645 74.5158 61.6665C75.1862 62.6684 76.1392 63.4491 77.2541 63.9098C78.369 64.3704 79.5957 64.4902 80.7788 64.254C81.9619 64.0179 83.0482 63.4363 83.9003 62.5831C84.4665 62.0193 84.9149 61.3487 85.2193 60.6102C85.5237 59.8718 85.6781 59.0803 85.6736 58.2817V43.0634H73.488Z" fill="#222433"/>
<path d="M144.582 108.957C144.397 109.009 144.206 108.9 144.153 108.714L129.844 57.8427C129.791 57.6566 129.898 57.4638 130.082 57.4119C130.267 57.3601 130.458 57.4688 130.511 57.6548L144.821 108.526C144.873 108.712 144.766 108.905 144.582 108.957Z" fill="#222433"/>
<path d="M132.47 47.2366C131.799 47.4248 131.409 48.1271 131.599 48.8049C131.599 48.8052 131.599 48.8056 131.599 48.806C131.408 48.1284 130.71 47.7322 130.039 47.9211C130.038 47.9212 130.038 47.9213 130.037 47.9214C129.366 48.1103 128.977 48.8128 129.167 49.4904C128.977 48.8128 128.278 48.4166 127.607 48.6055C127.607 48.6056 127.606 48.6057 127.606 48.6058C126.934 48.7941 126.544 49.4963 126.734 50.1741C126.734 50.1744 126.735 50.1749 126.735 50.1752C126.544 49.4984 125.847 49.1022 125.176 49.2897C124.504 49.4742 124.11 50.1741 124.296 50.8531C124.297 50.8556 124.298 50.8583 124.299 50.8609C124.108 50.1833 123.409 49.7871 122.738 49.976C122.067 50.1643 121.677 50.8665 121.867 51.5443C121.867 51.5446 121.867 51.545 121.867 51.5454L123.312 56.6835C124.266 60.0737 127.76 62.0564 131.118 61.1119C131.119 61.1117 131.12 61.1115 131.12 61.1113C134.479 60.166 136.428 56.6509 135.474 53.2602L134.028 48.1221C133.838 47.4455 133.141 47.0492 132.47 47.2366Z" fill="#82B1FF"/>
<path d="M133.028 53.8016C132.843 53.8535 132.652 53.7448 132.599 53.5588L131.241 48.7313C131.189 48.5453 131.296 48.3525 131.48 48.3006C131.665 48.2487 131.856 48.3574 131.909 48.5435L133.267 53.3709C133.319 53.5569 133.212 53.7498 133.028 53.8016Z" fill="#222433"/>
<path d="M130.582 54.4911C130.397 54.5429 130.206 54.4342 130.153 54.2482L128.795 49.4208C128.743 49.2348 128.85 49.0419 129.034 48.9901C129.219 48.9382 129.41 49.0469 129.463 49.2329L130.82 54.0603C130.873 54.2464 130.766 54.4392 130.582 54.4911Z" fill="#222433"/>
<path d="M128.136 55.1786C127.951 55.2304 127.76 55.1217 127.707 54.9357L126.35 50.1083C126.297 49.9223 126.404 49.7294 126.589 49.6776C126.773 49.6257 126.965 49.7344 127.017 49.9204L128.375 54.7478C128.427 54.9339 128.32 55.1267 128.136 55.1786Z" fill="#222433"/>
<path d="M125.691 55.868C125.506 55.9199 125.314 55.8112 125.262 55.6252L123.904 50.7977C123.852 50.6117 123.959 50.4189 124.143 50.367C124.327 50.3151 124.519 50.4239 124.572 50.6099L125.929 55.4373C125.982 55.6233 125.875 55.8162 125.691 55.868Z" fill="#222433"/>
<path d="M152.37 91.4833H134.478C134.432 88.5845 134.409 86.8522 134.409 86.2054C134.409 79.7264 135.366 74.3985 137.28 70.2217C139.205 66.0178 143.055 61.329 148.797 56.0742C154.549 50.8425 157.996 47.424 159.092 45.7956C160.814 43.3114 161.728 40.3547 161.708 37.3302C161.708 33.0455 160.179 29.3691 157.12 26.301C154.054 23.2405 149.938 21.716 144.739 21.716C139.735 21.716 135.543 23.3136 132.161 26.5088C128.806 29.6963 126.489 34.5585 125.209 41.0952L107.133 38.5775C107.64 29.1997 111.202 21.2464 117.82 14.7173C124.449 8.18064 133.118 4.92383 143.909 4.92383C155.218 4.92383 164.226 8.23453 170.931 14.8559C177.606 21.4619 180.949 29.1651 180.961 37.9654C180.961 42.816 179.716 47.424 177.272 51.7549C174.805 56.0857 169.552 61.9949 161.512 69.4825C157.339 73.363 154.768 76.4696 153.754 78.8372C152.728 81.1932 152.267 85.397 152.37 91.4833Z" fill="#0D6EFD"/>
<path d="M152.358 97.1074H134.674V113.576H152.358V97.1074Z" fill="#0D6EFD"/>
<path d="M68.3362 113.741C68.2743 113.741 68.2137 113.723 68.1615 113.689C68.1092 113.655 68.0674 113.607 68.041 113.55L67.297 111.946C67.26 111.866 67.2555 111.775 67.2847 111.691C67.3138 111.608 67.3742 111.54 67.4524 111.503C67.5306 111.465 67.6204 111.46 67.7019 111.49C67.7834 111.52 67.8499 111.581 67.8869 111.661L68.6309 113.265C68.6545 113.316 68.6651 113.372 68.6617 113.428C68.6584 113.484 68.6412 113.538 68.6118 113.586C68.5824 113.633 68.5417 113.672 68.4935 113.699C68.4453 113.727 68.3912 113.741 68.3362 113.741Z" fill="#222433"/>
<path d="M70.1326 113.741C70.0775 113.741 70.0234 113.727 69.9752 113.699C69.927 113.672 69.8864 113.633 69.8569 113.586C69.8275 113.538 69.8103 113.484 69.807 113.428C69.8037 113.372 69.8142 113.316 69.8378 113.265L70.5818 111.661C70.6001 111.622 70.6259 111.586 70.6577 111.557C70.6894 111.528 70.7265 111.505 70.7669 111.49C70.8072 111.475 70.85 111.469 70.8928 111.471C70.9356 111.473 70.9776 111.484 71.0163 111.503C71.0551 111.521 71.0898 111.548 71.1186 111.58C71.1474 111.612 71.1696 111.65 71.1841 111.691C71.1985 111.733 71.2048 111.776 71.2027 111.82C71.2006 111.864 71.1901 111.906 71.1718 111.946L70.4278 113.55C70.4013 113.607 70.3596 113.655 70.3073 113.689C70.255 113.723 70.1944 113.741 70.1326 113.741Z" fill="#222433"/>
<path d="M69.2345 113.741C69.148 113.741 69.065 113.706 69.0038 113.644C68.9426 113.581 68.9082 113.497 68.9082 113.408V111.448C68.9082 111.36 68.9426 111.275 69.0038 111.213C69.065 111.15 69.148 111.115 69.2345 111.115C69.3211 111.115 69.4041 111.15 69.4653 111.213C69.5264 111.275 69.5608 111.36 69.5608 111.448V113.408C69.5608 113.497 69.5264 113.581 69.4653 113.644C69.4041 113.706 69.3211 113.741 69.2345 113.741Z" fill="#222433"/>
<path d="M108.904 113.906C108.84 113.906 108.777 113.887 108.722 113.851C108.668 113.815 108.624 113.764 108.597 113.704L107.822 111.999C107.783 111.914 107.779 111.817 107.809 111.729C107.839 111.64 107.902 111.568 107.984 111.528C108.065 111.488 108.159 111.483 108.243 111.515C108.328 111.546 108.398 111.612 108.436 111.697L109.211 113.401C109.236 113.455 109.247 113.514 109.243 113.574C109.24 113.633 109.222 113.691 109.191 113.741C109.161 113.792 109.118 113.833 109.068 113.862C109.018 113.891 108.962 113.906 108.904 113.906Z" fill="#222433"/>
<path d="M110.776 113.906C110.718 113.906 110.662 113.891 110.612 113.862C110.562 113.833 110.519 113.792 110.489 113.741C110.458 113.691 110.44 113.633 110.437 113.574C110.433 113.514 110.444 113.455 110.469 113.401L111.244 111.697C111.263 111.655 111.29 111.617 111.323 111.586C111.356 111.555 111.394 111.53 111.437 111.515C111.479 111.499 111.523 111.492 111.568 111.495C111.612 111.497 111.656 111.508 111.696 111.528C111.737 111.548 111.773 111.576 111.803 111.61C111.833 111.645 111.856 111.685 111.871 111.729C111.886 111.772 111.893 111.819 111.891 111.865C111.888 111.912 111.877 111.957 111.858 111.999L111.083 113.704C111.056 113.764 111.012 113.815 110.958 113.851C110.903 113.887 110.84 113.906 110.776 113.906Z" fill="#222433"/>
<path d="M109.84 113.905C109.75 113.905 109.663 113.868 109.599 113.802C109.536 113.736 109.5 113.646 109.5 113.552V111.469C109.5 111.375 109.536 111.285 109.599 111.219C109.663 111.152 109.75 111.115 109.84 111.115C109.93 111.115 110.016 111.152 110.08 111.219C110.144 111.285 110.18 111.375 110.18 111.469V113.552C110.18 113.646 110.144 113.736 110.08 113.802C110.016 113.868 109.93 113.905 109.84 113.905Z" fill="#222433"/>
<path d="M172.441 113.906C172.374 113.906 172.308 113.887 172.252 113.851C172.195 113.815 172.15 113.764 172.121 113.704L171.315 111.999C171.275 111.914 171.27 111.817 171.302 111.729C171.333 111.64 171.399 111.568 171.484 111.528C171.568 111.488 171.666 111.483 171.754 111.515C171.842 111.546 171.914 111.612 171.954 111.697L172.76 113.401C172.786 113.455 172.797 113.514 172.794 113.574C172.79 113.633 172.771 113.691 172.74 113.741C172.708 113.792 172.664 113.833 172.611 113.862C172.559 113.891 172.501 113.906 172.441 113.906Z" fill="#222433"/>
<path d="M174.387 113.906C174.328 113.906 174.269 113.891 174.217 113.862C174.165 113.833 174.121 113.792 174.089 113.741C174.057 113.691 174.038 113.633 174.035 113.574C174.031 113.514 174.042 113.455 174.068 113.401L174.874 111.697C174.894 111.655 174.922 111.617 174.956 111.586C174.99 111.555 175.031 111.53 175.074 111.515C175.118 111.499 175.164 111.492 175.211 111.495C175.257 111.497 175.303 111.508 175.345 111.528C175.387 111.548 175.424 111.576 175.455 111.61C175.487 111.645 175.511 111.685 175.526 111.729C175.542 111.772 175.549 111.819 175.547 111.865C175.544 111.912 175.533 111.957 175.513 111.999L174.707 113.704C174.678 113.764 174.633 113.815 174.577 113.851C174.52 113.887 174.454 113.906 174.387 113.906Z" fill="#222433"/>
<path d="M173.414 113.905C173.32 113.905 173.23 113.868 173.164 113.802C173.098 113.736 173.061 113.646 173.061 113.552V111.469C173.061 111.375 173.098 111.285 173.164 111.219C173.23 111.152 173.32 111.115 173.414 111.115C173.508 111.115 173.598 111.152 173.664 111.219C173.73 111.285 173.768 111.375 173.768 111.469V113.552C173.768 113.646 173.73 113.736 173.664 113.802C173.598 113.868 173.508 113.905 173.414 113.905Z" fill="#222433"/>
<path d="M123.24 82.3905C122.856 82.4982 122.529 82.7532 122.333 83.0999C122.136 83.4466 122.084 83.8566 122.189 84.2404L122.195 84.2496C122.087 83.8655 121.831 83.5402 121.482 83.3456C121.134 83.1509 120.722 83.1027 120.337 83.2116C119.952 83.3205 119.626 83.5775 119.43 83.9262C119.234 84.2748 119.184 84.6865 119.292 85.0707L121.323 92.3936L116.53 86.4986C116.281 86.1882 115.918 85.9899 115.522 85.9472C115.125 85.9045 114.728 86.0209 114.416 86.2708C114.105 86.5208 113.905 86.8837 113.861 87.2799C113.817 87.6761 113.932 88.073 114.181 88.3833C113.932 88.073 113.57 87.8747 113.173 87.8319C112.777 87.7892 112.379 87.9056 112.068 88.1556C111.756 88.4055 111.556 88.7685 111.512 89.1647C111.468 89.5608 111.584 89.9578 111.833 90.2681L112.456 91.0502L116.694 96.2899C117.429 97.1963 118.412 97.8705 119.523 98.2317C120.634 98.593 121.827 98.6258 122.958 98.3263L122.961 98.3509C123.779 98.1163 124.543 97.7215 125.208 97.1895L125.196 97.1709C126.097 96.424 126.762 95.4327 127.111 94.3173C127.46 93.2019 127.478 92.0103 127.163 90.887L125.346 84.3868L125.082 83.4253C125.031 83.2353 124.943 83.0574 124.822 82.9022C124.701 82.7469 124.551 82.6173 124.379 82.521C124.208 82.4246 124.019 82.3634 123.823 82.341C123.627 82.3186 123.429 82.3355 123.24 82.3905Z" fill="white"/>
<path d="M124.858 97.8526C124.3 98.2121 123.692 98.4878 123.054 98.6708C123.009 98.684 122.961 98.6875 122.915 98.6812C121.737 98.9661 120.504 98.9125 119.358 98.5264C118.211 98.1404 117.199 97.4378 116.437 96.4998L112.199 91.2602L111.574 90.4761C111.423 90.2895 111.311 90.0744 111.244 89.8435C111.177 89.6127 111.158 89.3707 111.186 89.1318C111.239 88.6485 111.481 88.2052 111.86 87.8992C112.046 87.7477 112.261 87.6346 112.491 87.5665C112.721 87.4983 112.963 87.4765 113.201 87.5023C113.311 87.5137 113.419 87.5348 113.525 87.5654C113.519 87.4594 113.522 87.3531 113.534 87.2477C113.587 86.7642 113.829 86.3207 114.208 86.0145C114.395 85.8631 114.609 85.75 114.84 85.6819C115.07 85.6137 115.311 85.5919 115.55 85.6176C115.791 85.6421 116.025 85.7143 116.238 85.83C116.45 85.9456 116.638 86.1024 116.79 86.2912L120.577 90.9503L118.973 85.1615C118.875 84.788 118.898 84.3929 119.038 84.0323C119.177 83.6716 119.427 83.3638 119.752 83.1525C120.076 82.9412 120.458 82.837 120.845 82.8549C121.231 82.8728 121.601 83.0117 121.903 83.252C122.001 82.9698 122.165 82.7151 122.382 82.5096C122.599 82.3042 122.863 82.1541 123.15 82.0723C123.384 82.0048 123.628 81.9846 123.869 82.0131C124.111 82.0416 124.343 82.1181 124.554 82.2381C124.762 82.3555 124.945 82.5135 125.091 82.7029C125.237 82.8923 125.344 83.1091 125.404 83.3405L125.667 84.299L127.483 90.7979C127.81 91.9633 127.797 93.1987 127.446 94.3591C127.094 95.5195 126.42 96.5569 125.5 97.3495C125.479 97.3879 125.451 97.4217 125.417 97.4491C125.237 97.5931 125.051 97.7277 124.858 97.8526ZM122.992 97.9965C123.686 97.7827 124.337 97.446 124.912 97.0024C124.932 96.9699 124.956 96.941 124.985 96.9168C125.836 96.2107 126.464 95.274 126.794 94.2201C127.124 93.1663 127.141 92.0404 126.844 90.9789L125.027 84.4781L124.762 83.5154C124.724 83.3686 124.657 83.2311 124.564 83.1109C124.472 82.9908 124.356 82.8906 124.224 82.8162C124.09 82.7398 123.941 82.6912 123.788 82.6732C123.635 82.6552 123.479 82.6681 123.33 82.7112C123.041 82.7928 122.793 82.9821 122.638 83.2402C122.483 83.4982 122.432 83.8055 122.497 84.0988C122.503 84.1176 122.509 84.1365 122.514 84.1556C122.537 84.2321 122.531 84.3143 122.498 84.3871C122.465 84.4599 122.407 84.5184 122.334 84.5519C122.261 84.5854 122.179 84.5916 122.102 84.5695C122.026 84.5474 121.959 84.4983 121.916 84.4313L121.91 84.422C121.892 84.3941 121.878 84.3636 121.869 84.3315C121.865 84.3166 121.861 84.3016 121.857 84.2865C121.754 84.0036 121.546 83.7716 121.275 83.6386C121.005 83.5056 120.693 83.4818 120.405 83.572C120.117 83.6623 119.874 83.8598 119.727 84.1236C119.58 84.3873 119.54 84.6972 119.615 84.9889L121.644 92.305C121.664 92.3785 121.659 92.4568 121.628 92.5268C121.597 92.5967 121.544 92.6541 121.476 92.6892C121.408 92.7243 121.33 92.7351 121.255 92.7197C121.181 92.7042 121.113 92.6636 121.065 92.6045L116.273 86.7095C116.176 86.5885 116.056 86.488 115.919 86.4138C115.783 86.3397 115.633 86.2933 115.479 86.2774C115.327 86.2611 115.174 86.2749 115.027 86.3182C114.881 86.3615 114.744 86.4333 114.626 86.5296C114.383 86.7258 114.228 87.0098 114.195 87.3194C114.177 87.4712 114.189 87.625 114.231 87.7719C114.274 87.9187 114.345 88.0555 114.44 88.1744L114.441 88.1756C114.492 88.2443 114.513 88.3299 114.502 88.4145C114.491 88.4991 114.448 88.5763 114.381 88.63C114.315 88.6837 114.23 88.7099 114.145 88.7031C114.06 88.6963 113.981 88.657 113.924 88.5934L113.923 88.5912C113.826 88.4708 113.706 88.3709 113.57 88.2972C113.434 88.2235 113.285 88.1775 113.131 88.1618C112.979 88.1453 112.826 88.1591 112.679 88.2025C112.532 88.2458 112.396 88.3178 112.277 88.4143C112.035 88.6105 111.88 88.8945 111.847 89.2041C111.828 89.356 111.841 89.51 111.883 89.6569C111.925 89.8039 111.996 89.9408 112.092 90.0596L112.717 90.844L116.954 96.0817C117.65 96.9378 118.578 97.5746 119.628 97.916C120.678 98.2573 121.806 98.2887 122.875 98.0062C122.913 97.9962 122.953 97.9929 122.992 97.9966L122.992 97.9965Z" fill="#222433"/>
<path d="M142.264 132.934C142.255 132.94 142.245 132.945 142.236 132.95C142.197 132.97 142.155 132.983 142.111 132.986C142.068 132.99 142.024 132.985 141.982 132.972C141.941 132.959 141.902 132.938 141.869 132.91C141.835 132.882 141.808 132.847 141.788 132.808L122.371 95.1416C122.331 95.0634 122.323 94.9722 122.35 94.8883C122.377 94.8043 122.436 94.7344 122.515 94.6939C122.593 94.6534 122.684 94.6456 122.768 94.6722C122.852 94.6989 122.922 94.7578 122.963 94.836L142.38 132.502C142.418 132.576 142.427 132.66 142.405 132.74C142.384 132.82 142.334 132.889 142.264 132.934Z" fill="#222433"/>
<path d="M118 93.1586C117.931 93.203 117.848 93.2205 117.767 93.2075C117.686 93.1946 117.613 93.1521 117.561 93.0884L113.863 88.5005C113.807 88.432 113.782 88.3443 113.791 88.2567C113.801 88.1691 113.845 88.0888 113.914 88.0334C113.982 87.978 114.07 87.9521 114.158 87.9613C114.245 87.9706 114.326 88.0143 114.381 88.0828L118.08 92.6707C118.107 92.7046 118.128 92.7436 118.14 92.7854C118.152 92.8273 118.156 92.8711 118.151 92.9145C118.146 92.9579 118.133 93 118.112 93.0383C118.091 93.0766 118.063 93.1105 118.029 93.1379C118.02 93.1453 118.01 93.1522 118 93.1586Z" fill="#222433"/>
<path d="M123.93 90.0923C123.886 90.1205 123.836 90.1381 123.785 90.1437C123.733 90.1493 123.681 90.1426 123.632 90.1244C123.584 90.1061 123.54 90.0767 123.505 90.0385C123.47 90.0003 123.444 89.9544 123.43 89.9044L121.836 84.2207C121.813 84.136 121.824 84.0452 121.867 83.9683C121.91 83.8913 121.982 83.8347 122.067 83.8106C122.152 83.7866 122.243 83.7973 122.319 83.8402C122.396 83.8832 122.453 83.9549 122.477 84.0397L124.07 89.7233C124.089 89.7916 124.086 89.8643 124.061 89.9307C124.035 89.9971 123.99 90.0537 123.93 90.0923Z" fill="#222433"/>
<path d="M164.432 96.5224C163.403 96.2263 162.485 95.6311 161.794 94.8121C161.102 93.993 160.669 92.987 160.549 91.9212C160.429 90.8554 160.627 89.7776 161.118 88.8242C161.61 87.8708 162.372 87.0846 163.31 86.5649C164.247 86.0453 165.317 85.8156 166.384 85.9049C167.451 85.9942 168.468 86.3985 169.305 87.0666C170.143 87.7348 170.764 88.6367 171.089 89.6585C171.415 90.6802 171.43 91.7759 171.134 92.8069C170.735 94.1885 169.806 95.3555 168.549 96.0521C167.293 96.7486 165.812 96.9178 164.432 96.5224ZM167.239 86.7539C166.34 86.4951 165.384 86.5093 164.492 86.7947C163.6 87.0801 162.813 87.6239 162.229 88.3573C161.646 89.0907 161.293 89.9808 161.214 90.915C161.136 91.8492 161.336 92.7856 161.789 93.6057C162.242 94.4258 162.927 95.0929 163.759 95.5225C164.591 95.9521 165.531 96.125 166.461 96.0193C167.391 95.9136 168.269 95.534 168.984 94.9286C169.699 94.3232 170.219 93.5192 170.478 92.6181C170.824 91.4099 170.677 90.114 170.07 89.0146C169.462 87.9152 168.445 87.1022 167.239 86.7539Z" fill="#222433"/>
<path d="M164.432 96.5224C163.403 96.2263 162.485 95.6311 161.794 94.8121C161.102 93.993 160.669 92.987 160.549 91.9212C160.429 90.8554 160.627 89.7776 161.118 88.8242C161.61 87.8708 162.372 87.0846 163.31 86.5649C164.247 86.0453 165.317 85.8156 166.384 85.9049C167.451 85.9942 168.468 86.3985 169.305 87.0666C170.143 87.7348 170.764 88.6367 171.089 89.6585C171.415 90.6802 171.43 91.7759 171.134 92.8069C170.735 94.1885 169.806 95.3555 168.549 96.0521C167.293 96.7486 165.812 96.9178 164.432 96.5224ZM167.239 86.7539C166.34 86.4951 165.384 86.5093 164.492 86.7947C163.6 87.0801 162.813 87.6239 162.229 88.3573C161.646 89.0907 161.293 89.9808 161.214 90.915C161.136 91.8492 161.336 92.7856 161.789 93.6057C162.242 94.4258 162.927 95.0929 163.759 95.5225C164.591 95.9521 165.531 96.125 166.461 96.0193C167.391 95.9136 168.269 95.534 168.984 94.9286C169.699 94.3232 170.219 93.5192 170.478 92.6181C170.824 91.4099 170.677 90.114 170.07 89.0146C169.462 87.9152 168.445 87.1022 167.239 86.7539Z" fill="#222433"/>
<path d="M164.527 96.1947C167.22 96.9695 170.031 95.411 170.806 92.7135C171.581 90.0161 170.027 87.2013 167.334 86.4264C164.641 85.6516 161.829 87.2101 161.054 89.9076C160.279 92.605 161.834 95.4199 164.527 96.1947Z" fill="white"/>
<path d="M164.432 96.5222C163.403 96.2261 162.485 95.6309 161.794 94.8119C161.103 93.9929 160.669 92.9868 160.549 91.921C160.429 90.8552 160.627 89.7775 161.119 88.8241C161.61 87.8707 162.372 87.0845 163.31 86.5649C164.247 86.0453 165.317 85.8156 166.384 85.9049C167.451 85.9943 168.468 86.3985 169.305 87.0667C170.143 87.7348 170.764 88.6368 171.089 89.6585C171.415 90.6802 171.43 91.7759 171.134 92.8068C170.736 94.1884 169.806 95.3554 168.55 96.0519C167.293 96.7485 165.813 96.9176 164.432 96.5222ZM167.239 86.7539C166.34 86.4951 165.384 86.5093 164.492 86.7947C163.6 87.0801 162.813 87.6239 162.229 88.3573C161.646 89.0906 161.293 89.9807 161.214 90.9149C161.136 91.8491 161.336 92.7854 161.789 93.6055C162.242 94.4257 162.927 95.0927 163.759 95.5223C164.591 95.9519 165.531 96.1248 166.461 96.0191C167.391 95.9134 168.269 95.5339 168.984 94.9285C169.699 94.3231 170.219 93.5191 170.478 92.6181C170.824 91.4099 170.677 90.114 170.07 89.0146C169.463 87.9152 168.445 87.1022 167.239 86.7539Z" fill="#222433"/>
<path d="M154.462 131.209C154.375 131.184 154.302 131.125 154.258 131.046C154.214 130.967 154.204 130.873 154.229 130.786L164.198 96.1001C164.223 96.0129 164.281 95.9393 164.361 95.8954C164.44 95.8514 164.533 95.8408 164.62 95.8659C164.707 95.8909 164.781 95.9495 164.825 96.0288C164.868 96.1081 164.879 96.2017 164.854 96.2888L154.885 130.975C154.86 131.062 154.801 131.136 154.722 131.18C154.643 131.223 154.549 131.234 154.462 131.209Z" fill="#222433"/>
<path d="M165.616 92.4047C164.624 92.1175 163.735 91.5524 163.054 90.7761C162.372 89.9998 161.927 89.0445 161.769 88.0227C161.762 87.978 161.763 87.9323 161.773 87.8881C161.784 87.844 161.803 87.8023 161.829 87.7656C161.856 87.7289 161.889 87.6978 161.928 87.6742C161.966 87.6505 162.009 87.6348 162.054 87.628C162.099 87.6211 162.145 87.6232 162.188 87.6342C162.232 87.6452 162.274 87.6648 162.31 87.6919C162.346 87.719 162.377 87.753 162.4 87.7921C162.423 87.8311 162.438 87.8743 162.444 87.9192C162.581 88.8119 162.971 89.6466 163.566 90.3248C164.162 91.0031 164.938 91.4967 165.805 91.7477C166.671 91.9951 167.591 91.9905 168.455 91.7343C169.319 91.4781 170.093 90.981 170.686 90.3009C170.746 90.2328 170.83 90.1911 170.92 90.1849C171.01 90.1788 171.099 90.2086 171.167 90.2679C171.235 90.3272 171.277 90.4111 171.284 90.5013C171.29 90.5916 171.26 90.6807 171.201 90.7491C170.523 91.5273 169.637 92.0961 168.648 92.3893C167.659 92.6824 166.607 92.6878 165.616 92.4047Z" fill="#222433"/>
<path d="M167.792 92.5322C167.744 92.5185 167.7 92.4946 167.663 92.462C166.883 91.7829 166.313 90.8953 166.018 89.903C165.724 88.9108 165.718 87.855 166.001 86.8592C166.073 86.6091 166.163 86.3645 166.27 86.1272C166.288 86.0854 166.314 86.0477 166.346 86.0161C166.379 85.9845 166.418 85.9598 166.46 85.9433C166.502 85.9268 166.547 85.919 166.593 85.9202C166.638 85.9213 166.682 85.9316 166.724 85.9502C166.765 85.9689 166.802 85.9957 166.833 86.0289C166.864 86.0621 166.888 86.1012 166.904 86.1438C166.919 86.1865 166.926 86.2318 166.924 86.2772C166.922 86.3226 166.911 86.3671 166.892 86.4081C166.798 86.6155 166.72 86.8293 166.657 87.0479C166.41 87.9184 166.415 88.8413 166.672 89.7087C166.93 90.576 167.428 91.3518 168.11 91.9454C168.169 91.9964 168.208 92.0659 168.222 92.1425C168.236 92.2191 168.223 92.2982 168.186 92.3666C168.149 92.435 168.09 92.4888 168.018 92.5189C167.946 92.549 167.867 92.5537 167.792 92.5322Z" fill="#222433"/>
<path d="M152.417 151.818C152.238 151.818 152.093 151.671 152.093 151.49V101.963C152.093 101.782 152.238 101.635 152.417 101.635C152.596 101.635 152.741 101.782 152.741 101.963V151.49C152.741 151.671 152.596 151.818 152.417 151.818Z" fill="#222433"/>
<path d="M157.142 93.0606C156.49 93.0599 155.961 93.5944 155.961 94.2541C155.961 94.2545 155.961 94.2549 155.961 94.2552C155.961 93.5955 155.432 93.0606 154.78 93.0606C154.78 93.0606 154.779 93.0606 154.779 93.0606C154.127 93.0606 153.599 93.5955 153.599 94.2552C153.599 93.5955 153.07 93.0606 152.418 93.0606C152.418 93.0606 152.418 93.0606 152.417 93.0606C151.765 93.0599 151.236 93.5944 151.236 94.2541C151.236 94.2545 151.236 94.2549 151.236 94.2552C151.236 93.5963 150.709 93.0618 150.058 93.0606C149.406 93.0563 148.874 93.5877 148.87 94.2476C148.87 94.2501 148.87 94.2527 148.87 94.2552C148.87 93.5955 148.341 93.0606 147.689 93.0606C147.037 93.06 146.508 93.5944 146.508 94.2541C146.508 94.2545 146.508 94.2549 146.508 94.2552V99.2579C146.507 102.559 149.151 105.235 152.412 105.236C152.413 105.236 152.413 105.236 152.414 105.236C155.676 105.236 158.32 102.559 158.32 99.2579V94.2552C158.32 93.5964 157.793 93.0618 157.142 93.0606Z" fill="#82B1FF"/>
<path d="M155.983 99.1272C155.804 99.1272 155.659 98.9804 155.659 98.7993V94.0994C155.659 93.9183 155.804 93.7715 155.983 93.7715C156.162 93.7715 156.307 93.9183 156.307 94.0994V98.7993C156.307 98.9804 156.162 99.1272 155.983 99.1272Z" fill="#222433"/>
<path d="M153.607 99.1272C153.428 99.1272 153.283 98.9804 153.283 98.7993V94.0994C153.283 93.9183 153.428 93.7715 153.607 93.7715C153.786 93.7715 153.931 93.9183 153.931 94.0994V98.7993C153.931 98.9804 153.786 99.1272 153.607 99.1272Z" fill="#222433"/>
<path d="M151.231 99.1272C151.052 99.1272 150.907 98.9804 150.907 98.7993V94.0994C150.907 93.9183 151.052 93.7715 151.231 93.7715C151.41 93.7715 151.555 93.9183 151.555 94.0994V98.7993C151.555 98.9804 151.41 99.1272 151.231 99.1272Z" fill="#222433"/>
<path d="M148.855 99.1272C148.676 99.1272 148.531 98.9804 148.531 98.7993V94.0994C148.531 93.9183 148.676 93.7715 148.855 93.7715C149.034 93.7715 149.179 93.9183 149.179 94.0994V98.7993C149.179 98.9804 149.034 99.1272 148.855 99.1272Z" fill="#222433"/>
<path d="M144.304 107.131C145.174 107.131 145.879 106.435 145.879 105.578C145.879 104.721 145.174 104.025 144.304 104.025C143.435 104.025 142.73 104.721 142.73 105.578C142.73 106.435 143.435 107.131 144.304 107.131Z" fill="white"/>
<path d="M144.304 107.427C143.933 107.427 143.571 107.319 143.262 107.115C142.954 106.912 142.714 106.623 142.572 106.285C142.43 105.948 142.393 105.576 142.465 105.217C142.537 104.858 142.716 104.529 142.978 104.27C143.24 104.012 143.575 103.835 143.938 103.764C144.302 103.693 144.679 103.729 145.022 103.869C145.365 104.009 145.657 104.246 145.863 104.55C146.07 104.854 146.18 105.212 146.18 105.578C146.179 106.068 145.981 106.538 145.63 106.885C145.278 107.232 144.801 107.427 144.304 107.427ZM144.304 104.322C144.052 104.322 143.806 104.396 143.597 104.534C143.387 104.672 143.224 104.868 143.128 105.097C143.031 105.327 143.006 105.579 143.055 105.823C143.104 106.066 143.226 106.29 143.404 106.466C143.582 106.642 143.809 106.761 144.056 106.81C144.303 106.858 144.559 106.833 144.792 106.738C145.024 106.643 145.223 106.482 145.363 106.276C145.503 106.069 145.578 105.826 145.578 105.578C145.577 105.245 145.443 104.926 145.204 104.69C144.966 104.455 144.642 104.322 144.304 104.322Z" fill="#222433"/>
<path d="M139.521 108.663C140.208 108.663 140.764 108.114 140.764 107.437C140.764 106.76 140.208 106.211 139.521 106.211C138.834 106.211 138.277 106.76 138.277 107.437C138.277 108.114 138.834 108.663 139.521 108.663Z" fill="white"/>
<path d="M139.521 108.96C139.215 108.96 138.917 108.871 138.663 108.703C138.409 108.536 138.211 108.298 138.094 108.02C137.977 107.742 137.947 107.435 138.006 107.14C138.066 106.844 138.213 106.573 138.429 106.36C138.645 106.147 138.92 106.002 139.22 105.943C139.519 105.885 139.83 105.915 140.112 106.03C140.394 106.145 140.635 106.34 140.805 106.591C140.975 106.841 141.065 107.136 141.065 107.437C141.065 107.841 140.902 108.228 140.612 108.513C140.323 108.799 139.93 108.959 139.521 108.96ZM139.521 106.507C139.334 106.507 139.152 106.562 138.997 106.664C138.842 106.766 138.721 106.911 138.65 107.081C138.579 107.251 138.56 107.438 138.596 107.618C138.633 107.799 138.723 107.964 138.854 108.094C138.986 108.224 139.154 108.313 139.337 108.349C139.52 108.385 139.709 108.366 139.882 108.296C140.054 108.225 140.201 108.106 140.305 107.953C140.408 107.801 140.464 107.621 140.464 107.437C140.463 107.191 140.364 106.954 140.187 106.78C140.01 106.606 139.771 106.508 139.521 106.507Z" fill="#222433"/>
<path d="M141.978 113.905C141.931 113.905 141.885 113.895 141.844 113.874C141.802 113.854 141.766 113.824 141.738 113.787C141.71 113.751 141.691 113.708 141.682 113.663C141.674 113.618 141.676 113.571 141.689 113.527L144.015 105.497C144.026 105.459 144.044 105.424 144.068 105.393C144.093 105.362 144.123 105.336 144.158 105.317C144.193 105.298 144.231 105.286 144.27 105.281C144.31 105.277 144.35 105.28 144.388 105.291C144.426 105.301 144.462 105.32 144.493 105.344C144.524 105.368 144.55 105.399 144.569 105.433C144.588 105.467 144.6 105.505 144.604 105.544C144.609 105.583 144.605 105.622 144.594 105.66L142.267 113.69C142.249 113.752 142.211 113.806 142.159 113.845C142.107 113.884 142.043 113.905 141.978 113.905Z" fill="#222433"/>
<path d="M141.978 113.905C141.917 113.905 141.858 113.887 141.808 113.853C141.759 113.82 141.72 113.772 141.698 113.717L139.241 107.546C139.212 107.473 139.213 107.391 139.245 107.319C139.277 107.247 139.336 107.19 139.411 107.161C139.485 107.132 139.568 107.134 139.641 107.165C139.714 107.197 139.772 107.255 139.801 107.329L142.258 113.499C142.276 113.544 142.282 113.593 142.277 113.641C142.271 113.689 142.254 113.735 142.227 113.775C142.199 113.815 142.162 113.848 142.119 113.87C142.075 113.893 142.027 113.905 141.978 113.905H141.978Z" fill="#222433"/>
<path d="M125.163 5.86851L125.805 4.74451C126.097 4.23111 126.75 4.05213 127.263 4.34471C127.407 4.42707 127.531 4.54206 127.623 4.68052L129.612 7.66401L126.033 7.46796C125.443 7.43543 124.991 6.93034 125.024 6.33963C125.033 6.17394 125.081 6.01273 125.163 5.86851Z" fill="white"/>
<path d="M125.376 7.59813C125.257 7.52666 125.148 7.43685 125.052 7.33016C124.804 7.0522 124.678 6.69391 124.699 6.32135C124.711 6.10646 124.774 5.89387 124.88 5.70693C124.88 5.70683 124.881 5.70674 124.881 5.70674L125.522 4.58274C125.707 4.25898 126.006 4.0263 126.366 3.92771C126.725 3.82918 127.101 3.87662 127.425 4.06126C127.613 4.16874 127.774 4.31967 127.894 4.49939L129.883 7.48249C129.951 7.58518 129.956 7.71777 129.895 7.82499C129.834 7.9322 129.717 7.99566 129.594 7.98892L126.015 7.79294C125.786 7.78036 125.568 7.71302 125.376 7.59813ZM125.446 6.02964C125.389 6.12935 125.356 6.24257 125.35 6.35714C125.338 6.55596 125.405 6.74702 125.538 6.89528C125.671 7.04359 125.853 7.13122 126.051 7.14222L128.98 7.30266L127.352 4.86115C127.288 4.76529 127.203 4.68541 127.102 4.6274C126.929 4.52898 126.729 4.50371 126.537 4.55628C126.346 4.60876 126.186 4.73281 126.088 4.90545L125.446 6.02964Z" fill="#222433"/>
<path d="M131.413 3.2093L132.536 3.85059C133.048 4.14547 133.224 4.80018 132.929 5.31304C132.847 5.45576 132.733 5.57764 132.596 5.66923L129.612 7.66279L129.813 4.07774C129.847 3.48712 130.353 3.03581 130.943 3.0697C131.109 3.07921 131.269 3.12695 131.413 3.2093Z" fill="white"/>
<path d="M129.445 7.94178C129.341 7.87973 129.28 7.76523 129.287 7.64428L129.488 4.05923C129.532 3.28942 130.194 2.69965 130.962 2.74378C131.176 2.75603 131.388 2.81896 131.575 2.9257L132.697 3.56698C133.365 3.9517 133.595 4.80707 133.211 5.47494C133.105 5.66013 132.955 5.82072 132.777 5.93953L129.793 7.93311C129.69 8.00166 129.558 8.00636 129.451 7.9452C129.449 7.94413 129.447 7.94295 129.445 7.94178ZM132.385 4.13927C132.381 4.13699 132.377 4.1347 132.373 4.1325L131.252 3.49178C131.251 3.49173 131.251 3.49167 131.251 3.49161C131.152 3.43465 131.039 3.40111 130.924 3.39455C130.514 3.37099 130.162 3.68559 130.138 4.0959L129.974 7.02914L132.416 5.39776C132.51 5.33457 132.59 5.2489 132.647 5.15013C132.85 4.79765 132.732 4.34719 132.385 4.13927ZM131.413 3.20869L131.414 3.20924L131.413 3.20869Z" fill="#222433"/>
<path d="M176.26 63.4419L177.383 64.024C177.895 64.2896 178.096 64.9201 177.832 65.4324C177.757 65.5766 177.65 65.7014 177.518 65.7968L174.687 67.8569L174.734 64.3546C174.742 63.7771 175.216 63.3161 175.794 63.3249C175.956 63.3274 176.116 63.3675 176.26 63.4419Z" fill="white"/>
<path d="M174.58 63.7179C174.645 63.5987 174.728 63.4887 174.828 63.3914C175.089 63.1377 175.434 63.0011 175.799 63.0067C176.009 63.0099 176.219 63.0627 176.406 63.1593C176.406 63.1594 176.406 63.1594 176.406 63.1594L177.529 63.7415C177.852 63.909 178.091 64.1924 178.202 64.5394C178.313 64.8864 178.281 65.2555 178.114 65.5786C178.017 65.7667 177.876 65.9302 177.706 66.0541L174.874 68.1141C174.777 68.185 174.647 68.1947 174.54 68.1392C174.433 68.0837 174.367 67.9725 174.368 67.8519L174.415 64.3497C174.418 64.1251 174.475 63.9096 174.58 63.7179ZM176.113 63.7243C176.014 63.6728 175.902 63.6446 175.79 63.6431C175.595 63.6401 175.412 63.7129 175.272 63.8483C175.133 63.9837 175.055 64.1651 175.052 64.3595L175.013 67.2253L177.331 65.5394C177.422 65.4733 177.496 65.3867 177.549 65.2858C177.638 65.1135 177.654 64.9168 177.595 64.7318C177.536 64.5468 177.409 64.3958 177.236 64.3065L176.113 63.7243Z" fill="#222433"/>
<path d="M179.105 69.4397L178.525 70.5611C178.258 71.0729 177.626 71.2707 177.113 71.0029C176.971 70.9284 176.847 70.8221 176.752 70.6922L174.686 67.8574L178.193 67.9114C178.771 67.9216 179.232 68.3979 179.223 68.9754C179.22 69.1373 179.18 69.2962 179.105 69.4397Z" fill="white"/>
<path d="M174.407 67.7043C174.463 67.6008 174.572 67.5369 174.691 67.5388L178.198 67.5927C178.951 67.606 179.553 68.2284 179.541 68.9804C179.538 69.1902 179.485 69.3996 179.388 69.5857L178.807 70.7071C178.459 71.3743 177.633 71.6329 176.966 71.2843C176.781 71.1876 176.618 71.0474 176.495 70.879L174.429 68.0439C174.358 67.9464 174.348 67.8172 174.403 67.7103C174.404 67.7082 174.405 67.7063 174.407 67.7043ZM178.236 70.4246C178.238 70.4208 178.24 70.4169 178.242 70.4131L178.822 69.2926C178.822 69.2925 178.823 69.2924 178.823 69.2923C178.874 69.193 178.902 69.0813 178.904 68.9693C178.911 68.5681 178.589 68.2361 178.188 68.2291L175.319 68.1849L177.009 70.5046C177.075 70.5942 177.161 70.6689 177.26 70.7206C177.612 70.9044 178.047 70.7714 178.236 70.4246ZM179.105 69.4391L179.105 69.44L179.105 69.4391Z" fill="#222433"/>
<path d="M56.3154 14.1191C57.1283 14.1188 57.9333 14.279 58.6844 14.5905C59.4355 14.9021 60.118 15.3589 60.6928 15.9348C61.2676 16.5107 61.7235 17.1945 62.0345 17.947C62.3454 18.6995 62.5053 19.5061 62.505 20.3206C62.5072 21.8487 61.9408 23.3228 60.9162 24.4548C60.6154 24.7834 60.4498 25.2139 60.4528 25.6598V28.9981C60.4507 29.0524 60.4379 29.1057 60.4152 29.1551C60.3925 29.2044 60.3603 29.2487 60.3204 29.2855C60.283 29.3181 60.2395 29.3428 60.1924 29.3582C60.1453 29.3736 60.0957 29.3794 60.0463 29.3753C59.997 29.3711 59.9489 29.3572 59.9051 29.3342C59.8612 29.3112 59.8223 29.2796 59.7908 29.2413L57.9814 27.13C57.8038 26.9258 57.5828 26.7641 57.3345 26.657C57.0863 26.5498 56.8172 26.4999 56.5471 26.5109C56.4702 26.5201 56.3928 26.5238 56.3154 26.522H49.1769C48.364 26.5223 47.559 26.3621 46.8079 26.0506C46.0568 25.739 45.3743 25.2823 44.7995 24.7063C44.2247 24.1304 43.7688 23.4467 43.4578 22.6941C43.1469 21.9416 42.987 21.135 42.9873 20.3206C42.987 19.5061 43.1469 18.6995 43.4578 17.947C43.7688 17.1945 44.2247 16.5107 44.7995 15.9348C45.3743 15.3589 46.0568 14.9021 46.8079 14.5905C47.559 14.279 48.364 14.1188 49.1769 14.1191H56.3154Z" fill="white"/>
<path d="M60.0736 29.7075C60.0515 29.7075 60.0297 29.7065 60.008 29.7044C59.9167 29.6962 59.828 29.6698 59.7471 29.6266C59.6662 29.5834 59.5948 29.5245 59.537 29.4532L57.7308 27.3457C57.5871 27.1816 57.4091 27.0513 57.2094 26.9642C57.0097 26.877 56.7932 26.8351 56.5755 26.8414C56.4893 26.8509 56.4027 26.8548 56.316 26.8532H49.1769C47.4475 26.8532 45.7889 26.1649 44.5661 24.9397C43.3432 23.7145 42.6562 22.0528 42.6562 20.3202C42.6562 18.5875 43.3432 16.9258 44.5661 15.7006C45.7889 14.4754 47.4475 13.7871 49.1769 13.7871H56.3153C58.0441 13.789 59.7015 14.478 60.924 15.7027C62.1464 16.9275 62.834 18.5881 62.8359 20.3202C62.8405 21.9314 62.2429 23.486 61.1608 24.6778C60.9153 24.9452 60.7805 25.2961 60.7838 25.6594V28.9977C60.7818 29.0956 60.7605 29.1922 60.7211 29.2818C60.6817 29.3714 60.6249 29.4523 60.5542 29.5198C60.5482 29.5257 60.542 29.5309 60.5357 29.5368C60.4068 29.6469 60.243 29.7074 60.0736 29.7075ZM56.6174 26.1775C56.9232 26.1779 57.2254 26.2436 57.5038 26.3704C57.7822 26.4972 58.0304 26.6821 58.2318 26.9127L60.042 29.0249C60.0445 29.0278 60.047 29.0308 60.0494 29.0339C60.0518 29.037 60.055 29.0395 60.0585 29.0413C60.0621 29.0431 60.066 29.044 60.0699 29.044C60.0796 29.0451 60.0893 29.0431 60.0977 29.0383C60.1091 29.0271 60.1174 29.0131 60.1219 28.9977V25.6594C60.118 25.1296 60.3152 24.6181 60.6735 24.2285C61.6432 23.1591 62.1785 21.7649 62.174 20.3202C62.1722 18.7639 61.5544 17.2719 60.4561 16.1715C59.3577 15.0711 57.8686 14.4521 56.3153 14.4504H49.1769C47.6231 14.4504 46.1329 15.0688 45.0342 16.1696C43.9355 17.2704 43.3182 18.7634 43.3182 20.3202C43.3182 21.8769 43.9355 23.3699 45.0342 24.4707C46.1329 25.5715 47.6231 26.19 49.1769 26.19H56.3153C56.377 26.1915 56.4388 26.1889 56.5001 26.1822C56.5112 26.1807 56.5222 26.1796 56.5332 26.1791C56.5616 26.178 56.5896 26.1775 56.6174 26.1775Z" fill="#222433"/>
<path d="M55.378 21.3148C55.896 21.3148 56.3158 20.8941 56.3158 20.3752C56.3158 19.8562 55.896 19.4355 55.378 19.4355C54.8601 19.4355 54.4402 19.8562 54.4402 20.3752C54.4402 20.8941 54.8601 21.3148 55.378 21.3148Z" fill="#82B1FF"/>
<path d="M52.7408 21.3148C53.2588 21.3148 53.6786 20.8941 53.6786 20.3752C53.6786 19.8562 53.2588 19.4355 52.7408 19.4355C52.2229 19.4355 51.803 19.8562 51.803 20.3752C51.803 20.8941 52.2229 21.3148 52.7408 21.3148Z" fill="#82B1FF"/>
<path d="M50.137 21.3148C50.655 21.3148 51.0749 20.8941 51.0749 20.3752C51.0749 19.8562 50.655 19.4355 50.137 19.4355C49.6191 19.4355 49.1992 19.8562 49.1992 20.3752C49.1992 20.8941 49.6191 21.3148 50.137 21.3148Z" fill="#82B1FF"/>
<path d="M193.764 113.933H20.0092C19.8269 113.933 19.6875 113.783 19.6875 113.588C19.6875 113.392 19.8269 113.242 20.0092 113.242H193.764C193.947 113.242 194.086 113.392 194.086 113.588C194.086 113.783 193.947 113.933 193.764 113.933Z" fill="#222433"/>
</g>
<defs>
<clipPath id="clip0">
<rect width="210" height="118.172" fill="white"/>
</clipPath>
</defs>
</svg>
