<svg width="20" height="20" viewBox="0 0 20 20" fill="none" xmlns="http://www.w3.org/2000/svg">
<path d="M5.83325 5.41602H9.58325C9.81325 5.41602 9.99992 5.22935 9.99992 4.99935V3.33268C9.99992 3.10268 9.81325 2.91602 9.58325 2.91602H5.83325V5.41602Z" fill="url(#paint0_linear)"/>
<path d="M7.57964 13.3327H5.83381V2.91602L3.82214 4.92768C3.50923 5.2406 3.33381 5.66435 3.33381 6.10643V13.3327H1.58798C1.28798 13.3327 1.13798 13.6952 1.35006 13.9073L4.14214 16.6994C4.38631 16.9435 4.78214 16.9435 5.02589 16.6994L7.81798 13.9073C8.03006 13.6952 7.87964 13.3327 7.57964 13.3327Z" fill="url(#paint1_linear)"/>
<path d="M14.1667 14.584H10.4167C10.1867 14.584 10 14.7707 10 15.0007V16.6673C10 16.8973 10.1867 17.084 10.4167 17.084H14.1667V14.584Z" fill="url(#paint2_linear)"/>
<path d="M12.4209 6.66698H14.1668V17.0836L16.1784 15.072C16.4909 14.7595 16.6668 14.3353 16.6668 13.8936V6.66698H18.4126C18.7126 6.66698 18.8626 6.30448 18.6505 6.0924L15.8588 3.30031C15.6147 3.05615 15.2188 3.05615 14.9751 3.30031L12.183 6.0924C11.9705 6.30448 12.1209 6.66698 12.4209 6.66698Z" fill="url(#paint3_linear)"/>
<defs>
<linearGradient id="paint0_linear" x1="9.99992" y1="4.16602" x2="5.83325" y2="4.16602" gradientUnits="userSpaceOnUse">
<stop offset="0.266" stop-color="#199AE0"/>
<stop offset="0.582" stop-color="#1898DE"/>
<stop offset="0.745" stop-color="#1590D6"/>
<stop offset="0.873" stop-color="#1083C9"/>
<stop offset="0.982" stop-color="#0870B7"/>
<stop offset="1" stop-color="#076CB3"/>
</linearGradient>
<linearGradient id="paint1_linear" x1="1.63548" y1="3.4156" x2="7.08423" y2="17.4439" gradientUnits="userSpaceOnUse">
<stop stop-color="#32BDEF"/>
<stop offset="1" stop-color="#1EA2E4"/>
</linearGradient>
<linearGradient id="paint2_linear" x1="10" y1="15.834" x2="14.1667" y2="15.834" gradientUnits="userSpaceOnUse">
<stop offset="0.266" stop-color="#199AE0"/>
<stop offset="0.582" stop-color="#1898DE"/>
<stop offset="0.745" stop-color="#1590D6"/>
<stop offset="0.873" stop-color="#1083C9"/>
<stop offset="0.982" stop-color="#0870B7"/>
<stop offset="1" stop-color="#076CB3"/>
</linearGradient>
<linearGradient id="paint3_linear" x1="13.4638" y1="3.19323" x2="18.3334" y2="16.9899" gradientUnits="userSpaceOnUse">
<stop stop-color="#32BDEF"/>
<stop offset="1" stop-color="#1EA2E4"/>
</linearGradient>
</defs>
</svg>
