<svg width="150" height="150" viewBox="0 0 150 150" fill="none" xmlns="http://www.w3.org/2000/svg">
<g clip-path="url(#clip0)">
<path d="M17.3897 90.9499C19.237 90.9499 20.7345 89.4509 20.7345 87.6019C20.7345 85.7529 19.237 84.2539 17.3897 84.2539C15.5424 84.2539 14.0449 85.7529 14.0449 87.6019C14.0449 89.4509 15.5424 90.9499 17.3897 90.9499Z" fill="white"/>
<path d="M17.3893 91.3012C16.6581 91.3012 15.9433 91.0842 15.3354 90.6776C14.7274 90.271 14.2536 89.693 13.9738 89.0169C13.694 88.3407 13.6208 87.5967 13.7634 86.8789C13.9061 86.1611 14.2582 85.5017 14.7752 84.9842C15.2922 84.4667 15.9509 84.1143 16.6681 83.9715C17.3852 83.8287 18.1285 83.902 18.804 84.1821C19.4795 84.4621 20.0569 84.9364 20.4631 85.545C20.8694 86.1535 21.0862 86.8689 21.0862 87.6008C21.0851 88.5819 20.6953 89.5225 20.0022 90.2162C19.3091 90.9099 18.3694 91.3001 17.3893 91.3012ZM17.3893 84.6052C16.7974 84.6052 16.2188 84.7809 15.7266 85.1101C15.2345 85.4392 14.8509 85.9071 14.6244 86.4544C14.3979 87.0018 14.3386 87.6041 14.4541 88.1852C14.5695 88.7663 14.8546 89.3 15.2731 89.719C15.6916 90.1379 16.2249 90.4232 16.8054 90.5388C17.386 90.6544 17.9877 90.5951 18.5345 90.3683C19.0814 90.1416 19.5488 89.7577 19.8776 89.265C20.2065 88.7724 20.382 88.1933 20.382 87.6008C20.3811 86.8066 20.0655 86.0452 19.5045 85.4836C18.9434 84.922 18.1827 84.6061 17.3893 84.6052Z" fill="#222433"/>
<path d="M21.7325 97.6335C23.5798 97.6335 25.0773 96.1345 25.0773 94.2855C25.0773 92.4364 23.5798 90.9375 21.7325 90.9375C19.8852 90.9375 18.3877 92.4364 18.3877 94.2855C18.3877 96.1345 19.8852 97.6335 21.7325 97.6335Z" fill="#93D3A2"/>
<path d="M15.1134 98.5866C16.9607 98.5866 18.4582 97.0877 18.4582 95.2386C18.4582 93.3896 16.9607 91.8906 15.1134 91.8906C13.2661 91.8906 11.7686 93.3896 11.7686 95.2386C11.7686 97.0877 13.2661 98.5866 15.1134 98.5866Z" fill="white"/>
<path d="M15.1129 98.9379C14.3817 98.9379 13.667 98.7209 13.059 98.3143C12.4511 97.9077 11.9772 97.3298 11.6974 96.6536C11.4176 95.9774 11.3444 95.2334 11.4871 94.5156C11.6297 93.7978 11.9818 93.1384 12.4988 92.6209C13.0158 92.1034 13.6746 91.751 14.3917 91.6082C15.1088 91.4654 15.8521 91.5387 16.5277 91.8188C17.2032 92.0989 17.7806 92.5732 18.1868 93.1817C18.593 93.7902 18.8098 94.5056 18.8098 95.2375C18.8087 96.2186 18.4189 97.1592 17.7258 97.8529C17.0327 98.5466 16.0931 98.9368 15.1129 98.9379ZM15.1129 92.242C14.521 92.242 13.9424 92.4176 13.4502 92.7468C12.9581 93.076 12.5745 93.5438 12.348 94.0912C12.1215 94.6385 12.0622 95.2408 12.1777 95.8219C12.2932 96.403 12.5782 96.9368 12.9967 97.3557C13.4153 97.7746 13.9485 98.0599 14.5291 98.1755C15.1096 98.2911 15.7113 98.2318 16.2582 98.0051C16.805 97.7783 17.2724 97.3944 17.6013 96.9018C17.9301 96.4091 18.1056 95.83 18.1056 95.2375C18.1047 94.4433 17.7891 93.6819 17.2281 93.1203C16.667 92.5587 15.9064 92.2429 15.1129 92.242Z" fill="#222433"/>
<path d="M22.7891 104.999C24.6364 104.999 26.134 103.5 26.134 101.651C26.134 99.8017 24.6364 98.3027 22.7891 98.3027C20.9419 98.3027 19.4443 99.8017 19.4443 101.651C19.4443 103.5 20.9419 104.999 22.7891 104.999Z" fill="white"/>
<path d="M22.7887 105.352C22.0575 105.352 21.3428 105.135 20.7348 104.728C20.1269 104.322 19.653 103.744 19.3732 103.068C19.0934 102.392 19.0202 101.647 19.1628 100.93C19.3055 100.212 19.6576 99.5525 20.1746 99.035C20.6916 98.5175 21.3503 98.1651 22.0675 98.0223C22.7846 97.8795 23.5279 97.9528 24.2034 98.2328C24.879 98.5129 25.4563 98.9872 25.8626 99.5957C26.2688 100.204 26.4856 100.92 26.4856 101.652C26.4845 102.633 26.0946 103.573 25.4016 104.267C24.7085 104.961 23.7688 105.351 22.7887 105.352ZM22.7887 98.656C22.1968 98.656 21.6182 98.8317 21.126 99.1609C20.6339 99.49 20.2503 99.9579 20.0238 100.505C19.7973 101.053 19.738 101.655 19.8535 102.236C19.9689 102.817 20.254 103.351 20.6725 103.77C21.0911 104.189 21.6243 104.474 22.2048 104.59C22.7854 104.705 23.3871 104.646 23.934 104.419C24.4808 104.192 24.9482 103.808 25.2771 103.316C25.6059 102.823 25.7814 102.244 25.7814 101.652C25.7805 100.857 25.4649 100.096 24.9039 99.5344C24.3428 98.9728 23.5821 98.6569 22.7887 98.656Z" fill="#222433"/>
<path d="M16.169 105.95C18.0163 105.95 19.5138 104.451 19.5138 102.602C19.5138 100.753 18.0163 99.2539 16.169 99.2539C14.3217 99.2539 12.8242 100.753 12.8242 102.602C12.8242 104.451 14.3217 105.95 16.169 105.95Z" fill="#93D3A2"/>
<path d="M7.57816 105.704C9.04303 105.704 10.2305 104.516 10.2305 103.049C10.2305 101.583 9.04303 100.395 7.57816 100.395C6.11329 100.395 4.92578 101.583 4.92578 103.049C4.92578 104.516 6.11329 105.704 7.57816 105.704Z" fill="#93D3A2"/>
<path d="M17.0525 125.051C16.984 125.051 16.917 125.031 16.8597 124.994C16.8024 124.956 16.7573 124.902 16.7299 124.84L7.25612 103.189C7.21866 103.104 7.21673 103.007 7.25077 102.919C7.28481 102.832 7.35202 102.762 7.43762 102.725C7.52321 102.687 7.62019 102.685 7.7072 102.72C7.79422 102.754 7.86415 102.821 7.90161 102.907L17.3754 124.557C17.3988 124.61 17.4085 124.669 17.4036 124.727C17.3987 124.786 17.3794 124.842 17.3474 124.891C17.3154 124.94 17.2717 124.98 17.2203 125.008C17.169 125.036 17.1114 125.05 17.053 125.05L17.0525 125.051Z" fill="#222433"/>
<path d="M22.7171 125.051C22.6324 125.051 22.5507 125.021 22.4868 124.965C22.4228 124.91 22.381 124.833 22.369 124.749L17.0415 87.651C17.0286 87.5587 17.0528 87.4651 17.1088 87.3906C17.1648 87.3161 17.2479 87.2668 17.3401 87.2536C17.4323 87.2403 17.5259 87.2642 17.6006 87.3199C17.6753 87.3756 17.7248 87.4586 17.7385 87.5508L23.066 124.649C23.0726 124.695 23.0702 124.741 23.0588 124.786C23.0473 124.831 23.0272 124.873 22.9995 124.91C22.9718 124.948 22.937 124.979 22.8972 125.002C22.8574 125.026 22.8133 125.042 22.7675 125.048C22.7508 125.05 22.7339 125.051 22.7171 125.051Z" fill="#222433"/>
<path d="M23.1532 125.051C23.1017 125.051 23.0507 125.04 23.004 125.018C22.9573 124.996 22.916 124.964 22.8829 124.925C22.8499 124.885 22.8259 124.839 22.8126 124.789C22.7994 124.739 22.7972 124.687 22.8063 124.636L29.9059 85.3884C29.9254 85.2993 29.9786 85.2211 30.0545 85.1705C30.1303 85.1199 30.2229 85.1007 30.3126 85.117C30.4023 85.1332 30.4822 85.1837 30.5355 85.2578C30.5888 85.3318 30.6113 85.4237 30.5983 85.514L23.4993 124.762C23.4847 124.843 23.442 124.916 23.3787 124.969C23.3155 125.022 23.2357 125.051 23.1532 125.051Z" fill="#222433"/>
<path d="M37.3407 77.0169C37.0185 76.8881 36.6584 76.8925 36.3394 77.029C36.0204 77.1655 35.7685 77.4231 35.6389 77.7453C35.7681 77.4228 35.764 77.0622 35.6275 76.7428C35.4911 76.4233 35.2334 76.1712 34.9113 76.0419C34.5891 75.9126 34.2288 75.9167 33.9097 76.0533C33.5906 76.1899 33.3387 76.4478 33.2095 76.7702L30.7215 82.9376L30.5454 76.2886C30.5426 76.1159 30.5056 75.9455 30.4368 75.7871C30.3679 75.6288 30.2684 75.4856 30.144 75.3659C30.0197 75.2462 29.8729 75.1522 29.7121 75.0895C29.5514 75.0268 29.3798 74.9965 29.2073 75.0003C29.0348 75.0042 28.8648 75.0422 28.707 75.1121C28.5492 75.182 28.4068 75.2824 28.2879 75.4076C28.169 75.5328 28.076 75.6802 28.0143 75.8415C27.9526 76.0028 27.9233 76.1747 27.9282 76.3473C27.9254 76.1747 27.8885 76.0042 27.8196 75.8459C27.7507 75.6875 27.6512 75.5444 27.5269 75.4246C27.4025 75.3049 27.2557 75.211 27.095 75.1482C26.9342 75.0855 26.7626 75.0552 26.5901 75.0591C26.4176 75.0629 26.2476 75.1009 26.0898 75.1708C25.932 75.2407 25.7896 75.3411 25.6707 75.4663C25.5519 75.5915 25.4589 75.739 25.3972 75.9002C25.3354 76.0615 25.3062 76.2334 25.3111 76.4061L25.3345 77.2754L25.4754 83.1725C25.497 84.1929 25.8147 85.1849 26.3899 86.0276C26.9651 86.8704 27.7728 87.5273 28.7146 87.9185L28.7028 87.9302C29.0483 88.0659 29.4059 88.1682 29.7708 88.2356C30.1346 88.3029 30.5041 88.3343 30.874 88.3296V88.3179C31.8926 88.2787 32.878 87.9449 33.7111 87.357C34.5443 86.7691 35.1894 85.9522 35.5685 85.0051L37.7632 79.5309L38.0918 78.7203C38.2106 78.3942 38.1988 78.0348 38.0588 77.7173C37.9188 77.3997 37.6614 77.1488 37.3407 77.0169Z" fill="#28A745"/>
<path d="M28.034 81.7507C27.9422 81.7507 27.8539 81.7148 27.7881 81.6506C27.7223 81.5864 27.6842 81.499 27.6819 81.4071L27.5528 76.25C27.5505 76.1565 27.5854 76.066 27.6497 75.9982C27.7141 75.9305 27.8027 75.8911 27.8961 75.8888C27.9895 75.8864 28.08 75.9213 28.1477 75.9858C28.2153 76.0502 28.2547 76.1389 28.257 76.2324L28.3861 81.3895C28.3873 81.4357 28.3793 81.4818 28.3627 81.525C28.3461 81.5682 28.3212 81.6077 28.2893 81.6412C28.2574 81.6748 28.2193 81.7017 28.177 81.7205C28.1347 81.7393 28.0892 81.7495 28.0429 81.7507H28.034Z" fill="#222433"/>
<path d="M33.7495 82.7967C33.6919 82.7967 33.6352 82.7826 33.5844 82.7555C33.5335 82.7285 33.49 82.6894 33.4578 82.6416C33.4255 82.5938 33.4055 82.5389 33.3994 82.4815C33.3933 82.4242 33.4014 82.3662 33.4229 82.3128L35.3477 77.5199C35.3825 77.4331 35.4503 77.3638 35.5362 77.3271C35.5787 77.3089 35.6244 77.2993 35.6707 77.2988C35.7169 77.2984 35.7628 77.307 35.8057 77.3243C35.8486 77.3415 35.8877 77.3671 35.9208 77.3995C35.9538 77.4318 35.9801 77.4704 35.9983 77.513C36.0164 77.5556 36.026 77.6013 36.0265 77.6476C36.027 77.6939 36.0184 77.7398 36.0011 77.7828L34.0764 82.5757C34.0502 82.641 34.0051 82.6969 33.9468 82.7363C33.8885 82.7757 33.8198 82.7968 33.7495 82.7967Z" fill="#222433"/>
<path d="M33.194 149.237H9.18576L0.527344 125.137H42.0456L33.194 149.237Z" fill="white"/>
<path d="M33.1936 149.766H9.18535C9.07689 149.766 8.97108 149.732 8.88234 149.67C8.79361 149.607 8.72628 149.519 8.68955 149.417L0.0311354 125.316C0.00250209 125.236 -0.00656665 125.151 0.0046951 125.067C0.0159569 124.983 0.0472183 124.903 0.0958393 124.834C0.14446 124.764 0.209013 124.708 0.284044 124.669C0.359076 124.63 0.442384 124.609 0.526931 124.609H42.0452C42.13 124.609 42.2137 124.63 42.2889 124.669C42.3642 124.708 42.4288 124.765 42.4774 124.835C42.5259 124.905 42.557 124.985 42.5678 125.07C42.5787 125.154 42.569 125.24 42.5397 125.319L33.6881 149.42C33.6509 149.521 33.5835 149.609 33.4951 149.671C33.4066 149.732 33.3014 149.766 33.1936 149.766ZM9.55574 148.71H32.8263L41.29 125.665H1.27651L9.55574 148.71Z" fill="#222433"/>
<path d="M139.602 150H-75.6016C-75.8273 150 -76 149.745 -76 149.413C-76 149.08 -75.8273 148.826 -75.6016 148.826H139.602C139.827 148.826 140 149.08 140 149.413C140 149.745 139.827 150 139.602 150Z" fill="#222433"/>
<path d="M100.753 149.51H92.8906C92.8947 148.408 93.3101 147.352 94.0465 146.573C94.7829 145.794 95.7804 145.354 96.8218 145.35C97.8631 145.354 98.8607 145.794 99.5971 146.573C100.333 147.352 100.749 148.408 100.753 149.51Z" fill="white"/>
<path d="M101.753 149.771H93.8908C93.8252 149.771 93.7623 149.744 93.716 149.694C93.6696 149.645 93.6436 149.579 93.6436 149.509C93.6436 148.337 94.0838 147.212 94.8674 146.383C95.651 145.554 96.7138 145.088 97.8219 145.088C98.9301 145.088 99.9929 145.554 100.777 146.383C101.56 147.212 102 148.337 102 149.509C102 149.579 101.974 149.645 101.928 149.694C101.882 149.744 101.819 149.771 101.753 149.771ZM94.1463 149.248H101.498C101.435 148.261 101.021 147.337 100.338 146.661C99.6558 145.986 98.7563 145.61 97.8219 145.61C96.8875 145.61 95.9881 145.986 95.3056 146.661C94.6232 147.337 94.2087 148.261 94.1463 149.248Z" fill="#222433" stroke="#222433"/>
<path d="M87.8851 149.009C88.1553 147.989 89.2311 147.148 90.6077 147.148C91.9842 147.148 93.06 147.989 93.3302 149.009H87.8851Z" fill="white" stroke="#222433"/>
<path d="M93.8962 149.77H87.3195C87.2539 149.77 87.191 149.743 87.1447 149.694C87.0983 149.645 87.0723 149.578 87.0723 149.509C87.0723 147.787 88.6582 146.387 90.6078 146.387C92.5574 146.387 94.1434 147.787 94.1434 149.509C94.1434 149.578 94.1173 149.645 94.071 149.694C94.0246 149.743 93.9617 149.77 93.8962 149.77ZM87.5821 149.247H93.6336C93.4796 147.937 92.1814 146.91 90.6078 146.91C89.0343 146.91 87.736 147.937 87.5821 149.247Z" fill="#222433"/>
<path d="M53.5034 149.321H39.9961C40.003 147.427 40.7168 145.614 41.9819 144.275C43.2469 142.936 44.9607 142.181 46.7497 142.174C48.5388 142.181 50.2526 142.936 51.5176 144.275C52.7827 145.614 53.4964 147.427 53.5034 149.321Z" fill="white"/>
<path d="M53.5033 149.77H39.996C39.8834 149.77 39.7754 149.723 39.6957 149.639C39.616 149.554 39.5713 149.44 39.5713 149.321C39.5713 147.306 40.3276 145.374 41.6738 143.949C43.02 142.525 44.8459 141.725 46.7497 141.725C48.6535 141.725 50.4794 142.525 51.8256 143.949C53.1718 145.374 53.9281 147.306 53.9281 149.321C53.9281 149.44 53.8833 149.554 53.8037 149.639C53.724 149.723 53.616 149.77 53.5033 149.77ZM40.435 148.871H53.0644C52.9571 147.176 52.2451 145.588 51.0727 144.428C49.9003 143.267 48.355 142.622 46.7497 142.622C45.1444 142.622 43.5991 143.267 42.4267 144.428C41.2542 145.588 40.5423 147.176 40.435 148.871Z" fill="#222433"/>
<path d="M41.7233 149.321H30.4248C30.4248 146.624 32.9733 144.406 36.0741 144.406C39.1748 144.406 41.7233 146.624 41.7233 149.321Z" fill="white"/>
<path d="M41.7233 149.77H30.4248C30.3121 149.77 30.2041 149.723 30.1244 149.639C30.0448 149.554 30 149.44 30 149.321C30 146.363 32.7247 143.957 36.074 143.957C39.4234 143.957 42.1481 146.363 42.1481 149.321C42.1481 149.44 42.1033 149.554 42.0236 149.639C41.944 149.723 41.8359 149.77 41.7233 149.77ZM30.8758 148.871H41.2722C41.0077 146.62 38.7773 144.856 36.074 144.856C33.3707 144.856 31.1403 146.62 30.8758 148.871Z" fill="#222433"/>
</g>
<defs>
<clipPath id="clip0">
<rect width="150" height="150" fill="white"/>
</clipPath>
</defs>
</svg>
