<svg width="21" height="20" viewBox="0 0 21 20" fill="none" xmlns="http://www.w3.org/2000/svg">
<path d="M10.3327 0.833984C5.2806 0.833984 1.16602 4.94857 1.16602 10.0007C1.16602 15.0527 5.2806 19.1673 10.3327 19.1673C15.3848 19.1673 19.4993 15.0527 19.4993 10.0007C19.4993 4.94857 15.3848 0.833984 10.3327 0.833984ZM10.3327 2.50065C14.4831 2.50065 17.8327 5.85026 17.8327 10.0007C17.8327 14.151 14.4831 17.5007 10.3327 17.5007C6.18229 17.5007 2.83268 14.151 2.83268 10.0007C2.83268 5.85026 6.18229 2.50065 10.3327 2.50065Z" fill="#EF9AA3"/>
<line x1="6.70711" y1="6.4843" x2="13.85" y2="13.6272" stroke="#DD3646" stroke-width="2"/>
<line x1="13.8497" y1="6.70711" x2="6.70683" y2="13.85" stroke="#DD3646" stroke-width="2"/>
</svg>
