<svg width="151" height="150" viewBox="0 0 151 150" fill="none" xmlns="http://www.w3.org/2000/svg">
<g clip-path="url(#clip0)">
<path d="M70.1579 149.476H46.1496L37.4912 125.553H79.0095L70.1579 149.476Z" fill="white"/>
<path d="M70.1584 150H46.1502C46.0417 150 45.9359 149.967 45.8472 149.905C45.7585 149.843 45.6911 149.755 45.6544 149.654L36.996 125.731C36.9673 125.651 36.9583 125.567 36.9695 125.483C36.9808 125.4 37.0121 125.321 37.0607 125.252C37.1093 125.183 37.1739 125.127 37.2489 125.088C37.3239 125.05 37.4072 125.029 37.4918 125.029H79.01C79.0949 125.029 79.1785 125.05 79.2537 125.089C79.329 125.128 79.3937 125.184 79.4422 125.253C79.4908 125.323 79.5218 125.402 79.5327 125.486C79.5435 125.57 79.5339 125.655 79.5046 125.734L70.653 149.657C70.6157 149.758 70.5484 149.845 70.4599 149.906C70.3715 149.967 70.2662 150 70.1584 150ZM46.5206 148.952H69.7912L78.2548 126.077H38.2414L46.5206 148.952Z" fill="#222433"/>
<path d="M65.3046 108.355H50.2119V125.029H65.3046V108.355Z" fill="#93D3A2"/>
<path fill-rule="evenodd" clip-rule="evenodd" d="M57.0313 25C63.5101 25 62.144 30.4145 67.3718 35.1529C72.5996 39.8913 79.0257 39.9045 79.0257 45.9628C79.0257 49.9488 76.2165 52.3906 70.598 53.2882C73.0868 54.8588 74.8909 55.8795 76.0102 56.3503C82.7655 59.1881 86.3736 59.3728 85.939 65.4311C85.5835 70.4467 82.4802 72.6334 76.6291 71.991C79.908 73.6013 82.2914 74.7364 83.7794 75.3699C90.0475 78.0889 94.1429 79.2636 93.2738 84.8863C92.2203 91.7366 76.8134 87.4733 76.8134 87.4733C82.5416 90.5223 86.5887 92.5417 88.9546 93.5316C93.0067 95.2328 95.6981 95.8909 97.8289 97.1554C100.157 98.5364 101.422 101.214 100.873 103.868C100.238 106.934 97.8551 109.504 94.5649 110.4C89.8243 111.693 75.5631 113 56.5876 113C37.6122 113 24.22 112.129 19.9008 110.4C15.5816 108.671 13 106.048 13 102.612C13 96.1186 18.9784 96.6598 27.6695 92.6605C29.3945 91.8686 32.2308 90.0248 35.0305 88.8064C26.4711 92.2909 21.5725 91.125 20.3347 85.3087C19.0442 79.2504 24.2194 77.4158 32.4232 74.0632C33.4372 73.6541 34.8725 72.9545 36.7292 71.991C30.6982 71.925 27.6826 69.734 27.6826 65.4179C27.6826 60.2308 30.9352 59.0825 36.7424 56.3371C37.888 55.7959 39.7579 54.7796 42.3521 53.3146C37.177 51.8759 34.7321 49.2801 35.0173 45.5272C35.4519 39.9045 38.902 40.7756 44.9462 36.4464C50.9905 32.1171 50.5656 25 57.0313 25Z" fill="#93D3A2"/>
<path d="M70.7422 53.3947C70.7165 53.3947 70.6909 53.3922 70.6658 53.3872C69.2889 53.1155 67.9518 52.6703 66.6863 52.0623C65.4183 51.4805 64.2313 50.7355 63.1554 49.8461C63.0746 49.7792 63.0235 49.6829 63.0135 49.5784C63.0035 49.4738 63.0354 49.3696 63.1021 49.2885C63.1687 49.2075 63.2648 49.1564 63.3691 49.1463C63.4734 49.1363 63.5774 49.1682 63.6583 49.2351C64.6829 50.082 65.8135 50.7913 67.0213 51.3449C68.2284 51.9256 69.504 52.3506 70.8176 52.6099C70.9142 52.6285 71.0004 52.6826 71.0593 52.7616C71.1183 52.8405 71.1457 52.9386 71.1362 53.0368C71.1268 53.1349 71.0811 53.226 71.0082 53.2922C70.9353 53.3584 70.8404 53.395 70.742 53.3947H70.7422Z" fill="#28A745"/>
<path d="M77.7354 72.7562C77.7088 72.7561 77.6824 72.7533 77.6564 72.748C76.2579 72.4622 75.0537 72.0098 74.077 71.4031C73.131 70.8432 72.3423 70.0517 71.785 69.1027C71.7319 69.0122 71.7168 68.9042 71.7431 68.8025C71.7694 68.7009 71.8349 68.6138 71.9252 68.5606C72.0155 68.5073 72.1233 68.4922 72.2247 68.5185C72.3261 68.5449 72.413 68.6105 72.4661 68.7011C72.957 69.5365 73.6519 70.2331 74.4855 70.7252C75.3901 71.2873 76.5074 71.7051 77.8141 71.972C77.9103 71.9914 77.9958 72.046 78.054 72.1251C78.1123 72.2042 78.1391 72.3022 78.1292 72.4C78.1194 72.4978 78.0736 72.5884 78.0007 72.6543C77.9279 72.7201 77.8332 72.7564 77.7351 72.7562H77.7354Z" fill="#28A745"/>
<path d="M36.8737 72.3213C36.7765 72.3213 36.6826 72.2854 36.6102 72.2204C36.5377 72.1554 36.4917 72.0659 36.4809 71.9691C36.4702 71.8722 36.4955 71.7747 36.5519 71.6954C36.6084 71.616 36.6921 71.5603 36.7869 71.539C38.6359 71.1195 40.9218 70.1448 42.0639 69.4446C43.6435 68.5046 45.089 67.3547 46.3609 66.0261C46.3971 65.9888 46.4403 65.959 46.4879 65.9385C46.5356 65.9179 46.5868 65.907 46.6387 65.9063C46.6906 65.9056 46.7421 65.9151 46.7903 65.9344C46.8385 65.9536 46.8824 65.9822 46.9196 66.0185C46.9568 66.0547 46.9865 66.098 47.007 66.1458C47.0275 66.1935 47.0384 66.2449 47.0391 66.2969C47.0398 66.3489 47.0303 66.4005 47.0111 66.4488C46.9919 66.4971 46.9634 66.5412 46.9272 66.5784C45.6099 67.9549 44.1127 69.1462 42.4763 70.1198C41.2798 70.8536 38.8901 71.8736 36.9617 72.3108C36.9329 72.3176 36.9033 72.3211 36.8737 72.3213Z" fill="#28A745"/>
<path d="M34.8741 89.3085C34.862 89.3085 34.85 89.3085 34.8382 89.3085C34.7334 89.3074 34.6334 89.2647 34.5601 89.1896C34.4868 89.1146 34.4462 89.0134 34.4473 88.9084C34.4484 88.8034 34.4911 88.7031 34.5659 88.6296C34.6408 88.5562 34.7417 88.5155 34.8465 88.5166C34.8568 88.5166 34.8666 88.5166 34.8769 88.5166C35.4851 88.5166 36.7336 87.9864 37.227 87.7752C37.694 87.521 38.7393 86.9477 39.2101 86.3043C39.272 86.2197 39.365 86.1631 39.4686 86.1472C39.5721 86.1312 39.6778 86.1572 39.7623 86.2193C39.8467 86.2814 39.9031 86.3746 39.9191 86.4784C39.935 86.5822 39.9091 86.6881 39.8471 86.7728C39.2663 87.5667 38.1353 88.1823 37.5914 88.4781L37.5541 88.4964C36.612 88.8991 35.5602 89.3085 34.8741 89.3085Z" fill="#28A745"/>
<path d="M64.9977 113.613H53.1147C52.9789 113.613 52.8486 113.56 52.7526 113.464C52.6565 113.369 52.6025 113.24 52.6025 113.105C52.6025 112.97 52.6565 112.84 52.7526 112.745C52.8486 112.649 52.9789 112.596 53.1147 112.596H64.9977C65.1335 112.596 65.2638 112.649 65.3598 112.745C65.4559 112.84 65.5099 112.97 65.5099 113.105C65.5099 113.24 65.4559 113.369 65.3598 113.464C65.2638 113.56 65.1335 113.613 64.9977 113.613Z" fill="#28A745"/>
<path d="M148.602 150H-66.6016C-66.8273 150 -67 149.745 -67 149.413C-67 149.08 -66.8273 148.826 -66.6016 148.826H148.602C148.827 148.826 149 149.08 149 149.413C149 149.745 148.827 150 148.602 150Z" fill="#222433"/>
<path d="M74.7529 149.51H66.8906C66.8947 148.408 67.3101 147.352 68.0465 146.573C68.7829 145.794 69.7804 145.354 70.8218 145.35C71.8631 145.354 72.8607 145.794 73.5971 146.573C74.3334 147.352 74.7489 148.408 74.7529 149.51Z" fill="white"/>
<path d="M66.8908 149.846H74.7531C74.84 149.846 74.9224 149.81 74.9824 149.746C75.0424 149.683 75.0753 149.597 75.0753 149.509C75.0753 148.318 74.6282 147.175 73.831 146.331C73.0337 145.488 71.9514 145.013 70.8219 145.013C69.6925 145.013 68.6102 145.488 67.8129 146.331C67.0157 147.175 66.5686 148.318 66.5686 149.509C66.5686 149.597 66.6015 149.683 66.6615 149.746C66.7215 149.81 66.8039 149.846 66.8908 149.846ZM74.4169 149.173H67.227C67.305 148.234 67.7078 147.358 68.3584 146.715C69.0272 146.053 69.9079 145.685 70.8219 145.685C71.736 145.685 72.6167 146.053 73.2855 146.715C73.9361 147.358 74.3389 148.234 74.4169 149.173Z" fill="#222433" stroke="#222433" stroke-width="0.15"/>
<path d="M67.896 149.509H61.3193C61.3193 147.939 62.8028 146.648 64.6077 146.648C66.4125 146.648 67.896 147.939 67.896 149.509Z" fill="white"/>
<path d="M67.8962 149.845H61.3195C61.2326 149.845 61.1502 149.809 61.0902 149.745M67.8962 149.845L61.0902 149.745M67.8962 149.845C67.983 149.845 68.0654 149.809 68.1255 149.745C68.1854 149.682 68.2184 149.597 68.2184 149.509C68.2184 147.737 66.5898 146.312 64.6078 146.312C62.6259 146.312 60.9973 147.737 60.9973 149.509C60.9973 149.597 61.0302 149.682 61.0902 149.745M67.8962 149.845L61.0902 149.745M67.5476 149.172H61.6681C61.861 147.947 63.0975 146.985 64.6078 146.985C66.1182 146.985 67.3546 147.947 67.5476 149.172Z" fill="#222433" stroke="#222433" stroke-width="0.15"/>
<path d="M77.2311 149.448H86.8682C86.8632 148.09 86.354 146.79 85.4514 145.829C84.5488 144.869 83.326 144.328 82.0496 144.322C80.7732 144.328 79.5504 144.869 78.6478 145.829C77.7453 146.79 77.236 148.09 77.2311 149.448Z" fill="white"/>
<path d="M86.8678 149.846H77.2307C77.1289 149.846 77.0323 149.803 76.9618 149.728C76.8915 149.653 76.8527 149.552 76.8527 149.448C76.8527 147.985 77.3991 146.58 78.3731 145.544C79.3473 144.508 80.6695 143.925 82.0493 143.925C83.4291 143.925 84.7513 144.508 85.7255 145.544C86.6995 146.58 87.2459 147.985 87.2459 149.448C87.2459 149.552 87.2071 149.653 87.1368 149.728C87.0663 149.803 86.9697 149.846 86.8678 149.846ZM77.6244 149.051H86.4742C86.382 147.883 85.8855 146.793 85.0808 145.992C84.2578 145.173 83.1741 144.719 82.0493 144.719C80.9244 144.719 79.8407 145.173 79.0178 145.992C78.213 146.793 77.7166 147.883 77.6244 149.051Z" fill="#222433" stroke="#222433" stroke-width="0.15"/>
<path d="M85.636 149.449H93.6973C93.6973 147.514 91.8789 145.924 89.6667 145.924C87.4544 145.924 85.636 147.514 85.636 149.449Z" fill="white"/>
<path d="M93.6969 149.846H85.6357C85.5339 149.846 85.4373 149.803 85.3668 149.728C85.2964 149.653 85.2577 149.553 85.2577 149.449C85.2577 147.278 87.2439 145.527 89.6663 145.527C92.0888 145.527 94.075 147.278 94.075 149.449C94.075 149.553 94.0362 149.653 93.9659 149.728C93.8954 149.803 93.7988 149.846 93.6969 149.846ZM86.0432 149.051H93.2895C93.0618 147.522 91.5319 146.321 89.6663 146.321C87.8008 146.321 86.2709 147.522 86.0432 149.051Z" fill="#222433" stroke="#222433" stroke-width="0.15"/>
<path d="M49.5034 149.321H35.9961C36.003 147.427 36.7168 145.614 37.9819 144.275C39.2469 142.936 40.9607 142.181 42.7497 142.174C44.5388 142.181 46.2526 142.936 47.5176 144.275C48.7827 145.614 49.4964 147.427 49.5034 149.321Z" fill="white"/>
<path d="M49.5033 149.77H35.996C35.8834 149.77 35.7754 149.723 35.6957 149.639C35.616 149.554 35.5713 149.44 35.5713 149.321C35.5713 147.306 36.3276 145.374 37.6738 143.949C39.02 142.525 40.8459 141.725 42.7497 141.725C44.6535 141.725 46.4794 142.525 47.8256 143.949C49.1718 145.374 49.9281 147.306 49.9281 149.321C49.9281 149.44 49.8833 149.554 49.8037 149.639C49.724 149.723 49.616 149.77 49.5033 149.77ZM36.435 148.871H49.0644C48.9571 147.176 48.2451 145.588 47.0727 144.428C45.9003 143.267 44.355 142.622 42.7497 142.622C41.1444 142.622 39.5991 143.267 38.4267 144.428C37.2542 145.588 36.5423 147.176 36.435 148.871Z" fill="#222433"/>
<path d="M37.7233 149.321H26.4248C26.4248 146.624 28.9733 144.406 32.0741 144.406C35.1748 144.406 37.7233 146.624 37.7233 149.321Z" fill="white"/>
<path d="M37.7233 149.77H26.4248C26.3121 149.77 26.2041 149.723 26.1244 149.639C26.0448 149.554 26 149.44 26 149.321C26 146.363 28.7247 143.957 32.074 143.957C35.4234 143.957 38.1481 146.363 38.1481 149.321C38.1481 149.44 38.1033 149.554 38.0236 149.639C37.944 149.723 37.8359 149.77 37.7233 149.77ZM26.8758 148.871H37.2722C37.0077 146.62 34.7773 144.856 32.074 144.856C29.3707 144.856 27.1403 146.62 26.8758 148.871Z" fill="#222433"/>
<path d="M130.824 149.509H124.247C124.247 147.939 125.731 146.648 127.535 146.648C129.34 146.648 130.824 147.939 130.824 149.509Z" fill="white"/>
<path d="M130.824 149.77H124.247C124.182 149.77 124.119 149.743 124.072 149.694C124.026 149.645 124 149.578 124 149.509C124 147.787 125.586 146.387 127.536 146.387C129.485 146.387 131.071 147.787 131.071 149.509C131.071 149.578 131.045 149.645 130.999 149.694C130.952 149.743 130.889 149.77 130.824 149.77ZM124.51 149.247H130.561C130.407 147.937 129.109 146.91 127.536 146.91C125.962 146.91 124.664 147.937 124.51 149.247Z" fill="#222433" stroke="#222433" stroke-width="1.2"/>
<path d="M137.681 149.51H129.818C129.822 148.408 130.238 147.352 130.974 146.573C131.711 145.794 132.708 145.354 133.75 145.35C134.791 145.354 135.788 145.794 136.525 146.573C137.261 147.352 137.677 148.408 137.681 149.51Z" fill="white"/>
<path d="M137.681 149.771H129.819C129.753 149.771 129.69 149.744 129.644 149.694C129.597 149.645 129.571 149.579 129.571 149.509C129.571 148.337 130.012 147.212 130.795 146.383C131.579 145.554 132.642 145.088 133.75 145.088C134.858 145.088 135.921 145.554 136.704 146.383C137.488 147.212 137.928 148.337 137.928 149.509C137.928 149.579 137.902 149.645 137.856 149.694C137.809 149.744 137.746 149.771 137.681 149.771ZM130.074 149.248H137.425C137.363 148.261 136.948 147.337 136.266 146.661C135.584 145.986 134.684 145.61 133.75 145.61C132.815 145.61 131.916 145.986 131.233 146.661C130.551 147.337 130.136 148.261 130.074 149.248Z" fill="#222433" stroke="#222433" stroke-width="1.2"/>
</g>
<defs>
<clipPath id="clip0">
<rect width="150" height="150" fill="white" transform="translate(0.333008)"/>
</clipPath>
</defs>
</svg>
