<svg width="210" height="118" viewBox="0 0 210 118" fill="none" xmlns="http://www.w3.org/2000/svg">
<g clip-path="url(#clip0)">
<path d="M193.187 110.401C193.172 110.403 193.157 110.404 193.141 110.404L22.762 109.474C22.683 109.474 22.6075 109.442 22.5519 109.386C22.4963 109.33 22.4653 109.254 22.4657 109.175C22.4661 109.096 22.4978 109.02 22.5539 108.965C22.61 108.909 22.6859 108.878 22.7649 108.879L193.144 109.808C193.219 109.809 193.292 109.837 193.346 109.888C193.401 109.94 193.435 110.01 193.44 110.085C193.446 110.16 193.423 110.234 193.376 110.292C193.329 110.351 193.261 110.39 193.187 110.401Z" fill="#222433"/>
<path d="M110.092 77.6897V9.66406H46.0964V24.4186V77.6897H110.092Z" fill="white"/>
<path d="M110.091 78.0112H46.0962C45.9179 78.0112 45.7734 77.8671 45.7734 77.6894V9.66369C45.7734 9.4859 45.9179 9.3418 46.0962 9.3418H110.091C110.27 9.3418 110.414 9.4859 110.414 9.66369V77.6894C110.414 77.8671 110.27 78.0112 110.091 78.0112ZM46.4189 77.3675H109.769V9.98558H46.4189V77.3675Z" fill="#222433"/>
<path d="M110.091 17.5657H46.0962C45.9179 17.5657 45.7734 17.4216 45.7734 17.2438C45.7734 17.066 45.9179 16.9219 46.0962 16.9219H110.091C110.27 16.9219 110.414 17.066 110.414 17.2438C110.414 17.4216 110.27 17.5657 110.091 17.5657Z" fill="#222433"/>
<path d="M49.4871 14.7176C50.1876 14.7176 50.7555 14.1512 50.7555 13.4525C50.7555 12.7539 50.1876 12.1875 49.4871 12.1875C48.7866 12.1875 48.2188 12.7539 48.2188 13.4525C48.2188 14.1512 48.7866 14.7176 49.4871 14.7176Z" fill="#82B1FF"/>
<path d="M53.0372 14.7176C53.7377 14.7176 54.3055 14.1512 54.3055 13.4525C54.3055 12.7539 53.7377 12.1875 53.0372 12.1875C52.3367 12.1875 51.7688 12.7539 51.7688 13.4525C51.7688 14.1512 52.3367 14.7176 53.0372 14.7176Z" fill="#82B1FF"/>
<path d="M56.5875 14.7176C57.288 14.7176 57.8558 14.1512 57.8558 13.4525C57.8558 12.7539 57.288 12.1875 56.5875 12.1875C55.887 12.1875 55.3191 12.7539 55.3191 13.4525C55.3191 14.1512 55.887 14.7176 56.5875 14.7176Z" fill="#82B1FF"/>
<path d="M96.2899 66.8946H86.1476C85.9582 66.8946 85.8047 66.7416 85.8047 66.5528C85.8047 66.364 85.9582 66.2109 86.1476 66.2109H96.2899C96.4793 66.2109 96.6328 66.364 96.6328 66.5528C96.6328 66.7416 96.4793 66.8946 96.2899 66.8946Z" fill="#222433"/>
<path d="M96.2899 69.42H86.1476C85.9582 69.42 85.8047 69.267 85.8047 69.0782C85.8047 68.8894 85.9582 68.7363 86.1476 68.7363H96.2899C96.4793 68.7363 96.6328 68.8894 96.6328 69.0782C96.6328 69.267 96.4793 69.42 96.2899 69.42Z" fill="#222433"/>
<path d="M96.2899 71.9473H86.1476C85.9582 71.9473 85.8047 71.7943 85.8047 71.6055C85.8047 71.4167 85.9582 71.2637 86.1476 71.2637H96.2899C96.4793 71.2637 96.6328 71.4167 96.6328 71.6055C96.6328 71.7943 96.4793 71.9473 96.2899 71.9473Z" fill="#222433"/>
<path d="M102.591 61.8361V50.7559H81.9791V61.8361H102.591Z" fill="white"/>
<path d="M81.7031 61.8367V50.7564C81.7031 50.6827 81.7322 50.612 81.784 50.5599C81.8357 50.5078 81.906 50.4785 81.9792 50.4785H102.591C102.664 50.4785 102.735 50.5078 102.786 50.5599C102.838 50.612 102.867 50.6827 102.867 50.7564V61.8367C102.867 61.9104 102.838 61.9811 102.786 62.0332C102.735 62.0853 102.664 62.1146 102.591 62.1146H81.9792C81.906 62.1146 81.8357 62.0853 81.784 62.0332C81.7322 61.9811 81.7031 61.9104 81.7031 61.8367ZM82.2552 51.0344V61.5588H102.315V51.0344H82.2552Z" fill="#222433"/>
<path d="M125.456 23.7773L123.323 25.6219L124.425 26.7409" fill="white"/>
<path d="M124.425 27.0672C124.341 27.0672 124.257 27.0347 124.193 26.97L123.09 25.8509C123.027 25.7868 122.993 25.6996 122.997 25.6099C123.001 25.5203 123.041 25.436 123.109 25.3771L125.242 23.5326C125.378 23.415 125.584 23.4296 125.702 23.5654C125.82 23.7011 125.806 23.9066 125.67 24.0243L123.799 25.6419L124.658 26.514C124.784 26.6422 124.782 26.8481 124.654 26.974C124.591 27.0362 124.508 27.0672 124.425 27.0672Z" fill="#222433"/>
<path d="M129.259 37.2461C129.259 37.2461 129.094 34.3017 129.082 34.2977C125.578 33.1246 123.69 29.3403 124.867 25.8452C125.027 25.3692 125.24 24.918 125.498 24.4965C125.498 24.4949 125.498 24.4933 125.498 24.4916C125.55 23.9957 125.656 23.5069 125.815 23.0342C125.907 22.7646 126.026 22.0096 126.718 21.2754L133.769 25.2578L135.944 29.27L136.198 37.0941L129.259 37.2461Z" fill="white"/>
<path d="M129.258 37.5708C129.086 37.5708 128.943 37.4364 128.933 37.2636C128.882 36.3477 128.806 35.0288 128.774 34.5335C127.09 33.913 125.73 32.696 124.927 31.0864C124.092 29.4122 123.961 27.5138 124.557 25.741C124.714 25.2746 124.924 24.8203 125.181 24.3894C125.238 23.8897 125.347 23.4012 125.505 22.93C125.519 22.8908 125.532 22.8423 125.548 22.7849C125.651 22.4159 125.842 21.7289 126.48 21.0518C126.583 20.9425 126.748 20.9175 126.879 20.9915L133.93 24.9739C133.983 25.0041 134.027 25.0485 134.056 25.1023L136.231 29.1145C136.255 29.1588 136.268 29.2082 136.27 29.2586L136.524 37.0827C136.526 37.1695 136.494 37.2538 136.434 37.3169C136.375 37.38 136.292 37.4165 136.205 37.4184L129.266 37.5706C129.263 37.5708 129.261 37.5708 129.258 37.5708ZM126.789 21.6888C126.393 22.1834 126.26 22.6607 126.176 22.9595C126.156 23.0311 126.139 23.0915 126.123 23.1386C125.973 23.5865 125.871 24.0532 125.823 24.5245C125.818 24.5726 125.802 24.624 125.776 24.6653C125.527 25.0735 125.325 25.5052 125.176 25.9484C124.635 27.5564 124.754 29.2783 125.511 30.797C126.268 32.3157 127.573 33.4493 129.186 33.989C129.394 34.0586 129.406 34.2335 129.418 34.4025C129.424 34.4841 129.431 34.6003 129.44 34.7397C129.457 35.0166 129.479 35.3855 129.5 35.7543C129.526 36.1925 129.551 36.6305 129.567 36.9136L135.861 36.7756L135.62 29.3567L133.527 25.4943L126.789 21.6888Z" fill="#222433"/>
<path d="M114.063 96.765L115.35 102.461C115.145 103.131 114.842 103.348 114.842 103.348C111.689 104.163 109.765 106.214 110.016 109.478H124.087L128.297 100.193L130.678 105.181L136.861 102.163L130.541 89.3105" fill="#0D6EFD"/>
<path d="M105.938 78.6056L108.112 70.0391L123.428 72.0192L126.129 78.368L130.743 89.21L113.412 97.1726L108.656 85.3287L105.938 78.6056Z" fill="white"/>
<path d="M113.412 97.499C113.371 97.499 113.33 97.4913 113.291 97.4759C113.208 97.4429 113.143 97.3775 113.109 97.2947L108.352 85.4508L105.635 78.7284C105.609 78.6644 105.604 78.5938 105.621 78.5269L107.795 69.9604C107.836 69.8006 107.99 69.6963 108.154 69.7176L123.469 71.6978C123.584 71.7126 123.682 71.787 123.728 71.8933L131.043 89.0841C131.112 89.246 131.04 89.4331 130.88 89.5067L113.549 97.4692C113.505 97.489 113.459 97.499 113.412 97.499ZM106.28 78.5835L108.958 85.208L113.587 96.735L130.319 89.0477L123.2 72.319L108.357 70.3999L106.28 78.5835Z" fill="#222433"/>
<path d="M134.395 18.5233C132.723 17.9613 130.916 18.0469 129.305 18.7649C127.325 19.654 126.474 21.048 126.438 21.1068L126.407 21.1587L126.397 21.2182C126.378 21.3278 125.939 23.9293 126.677 26.1568C126.677 26.1568 127.807 24.83 128.348 24.7443C130.477 24.4071 132.138 25.5883 132.047 27.5605C131.975 29.1287 130.044 30.0816 130.044 30.0816C132.042 31.5429 134.061 32.3327 135.087 32.6731C135.253 32.7287 135.423 32.7554 135.591 32.7554C136.083 32.7554 136.557 32.5249 136.86 32.1117C137.501 31.243 138.635 29.362 139.043 26.5247C139.617 22.5068 138.01 19.74 134.395 18.5233Z" fill="#0D6EFD"/>
<path d="M139.881 40.9961L150.581 59.8845C151.875 62.6377 150.685 65.9153 147.925 67.2054C147.798 67.2645 147.669 67.3188 147.539 67.3683L140.619 69.7155" fill="white"/>
<path d="M140.619 70.0401C140.483 70.0401 140.356 69.9549 140.31 69.8194C140.252 69.6493 140.343 69.4645 140.514 69.4067L147.428 67.0613C147.549 67.0156 147.669 66.9646 147.786 66.91C150.376 65.6999 151.497 62.6169 150.291 60.0328L139.597 41.1553C139.508 40.9989 139.563 40.8004 139.72 40.7121C139.877 40.6237 140.076 40.6789 140.165 40.8352L150.865 59.7237C150.869 59.7309 150.873 59.7383 150.876 59.7458C152.244 62.657 150.982 66.1352 148.063 67.4992C147.929 67.5616 147.792 67.6196 147.654 67.6717C147.651 67.673 147.647 67.6743 147.643 67.6755L140.724 70.0228C140.689 70.0346 140.654 70.0401 140.619 70.0401Z" fill="#222433"/>
<path d="M89.6883 94.9316C88.1639 101.065 83.9197 102.496 83.9197 102.496C80.7705 103.296 78.6633 106.25 78.9381 109.479H90.7886L100.648 103.957L100.59 109.479H107.474L107.464 96.6151" fill="#0D6EFD"/>
<path d="M137.846 39.0508C140.24 40.6336 141.487 43.3983 141.656 45.7765C141.719 46.6633 141.721 47.4199 141.713 48.0944L140.401 70.0418L140.359 70.5329C140.544 76.601 134.594 81.9237 127.962 79.8082L126.92 79.4758L110.068 71.8831L107.913 96.658L88.9187 94.859L92.3977 58.2822C92.5041 57.1659 93.2171 53.6678 100.284 52.5834L122.463 52.0412L128.334 39.2456" fill="white"/>
<path d="M107.913 96.9824C107.903 96.9824 107.893 96.9819 107.882 96.981L88.8879 95.182C88.7086 95.165 88.577 95.0063 88.594 94.8274L92.073 58.2506C92.2441 56.4551 93.5317 53.2894 100.234 52.261C100.248 52.2588 100.262 52.2576 100.276 52.2573L122.251 51.7201L128.037 39.1094C128.112 38.9461 128.306 38.8742 128.469 38.949C128.633 39.0237 128.705 39.2169 128.63 39.3802L122.759 52.1757C122.707 52.2888 122.595 52.3626 122.471 52.3656L100.313 52.9072C94.0653 53.8717 92.8754 56.7069 92.7225 58.3122L89.2743 94.565L107.617 96.3023L109.743 71.8542C109.752 71.7491 109.812 71.655 109.903 71.6017C109.994 71.5483 110.106 71.5425 110.202 71.5858L127.037 79.1707L128.062 79.4974C130.937 80.4146 133.943 79.9204 136.31 78.1416C138.731 76.322 140.123 73.4811 140.033 70.5418C140.033 70.5292 140.033 70.5166 140.034 70.5041L140.077 70.013L141.387 48.082C141.395 47.4164 141.393 46.6791 141.331 45.7986C141.185 43.7421 140.146 40.9604 137.666 39.3211C137.516 39.2219 137.475 39.02 137.574 38.8702C137.674 38.7204 137.876 38.6796 138.026 38.7788C140.703 40.5486 141.825 43.5418 141.981 45.7527C142.046 46.6625 142.047 47.4484 142.039 48.0973C142.039 48.1025 142.039 48.1077 142.038 48.1128L140.727 70.0602L140.686 70.5412C140.775 73.6844 139.287 76.7187 136.702 78.6612C134.164 80.5689 130.942 81.0995 127.863 80.1171L126.821 79.7847C126.809 79.781 126.797 79.7765 126.786 79.7714L110.353 72.3678L108.238 96.6852C108.231 96.7716 108.189 96.8514 108.122 96.9069C108.063 96.956 107.989 96.9824 107.913 96.9824ZM141.713 48.0934H141.714H141.713Z" fill="#222433"/>
<path d="M133.359 18.5925C133.332 18.3608 133.319 18.1251 133.319 17.8863C133.319 14.5254 136.05 11.8008 139.42 11.8008C142.79 11.8008 145.521 14.5254 145.521 17.8863C145.521 21.2471 142.79 23.9717 139.42 23.9717C139.189 23.9717 138.962 23.9589 138.738 23.9341" fill="#0D6EFD"/>
<path d="M129.688 28.437C129.637 28.437 129.584 28.4248 129.536 28.3988L128.195 27.6875C128.087 27.63 128.02 27.5169 128.022 27.3947C128.024 27.2725 128.095 27.1617 128.205 27.108L130.095 26.1874C130.256 26.1085 130.452 26.1754 130.531 26.3369C130.61 26.4984 130.543 26.6931 130.381 26.772L129.066 27.4126L129.842 27.8243C130.001 27.9087 130.061 28.1057 129.977 28.2644C129.918 28.3743 129.805 28.437 129.688 28.437Z" fill="#222433"/>
<path d="M140.963 31.6951C140.655 31.6951 140.408 31.5964 140.229 31.4855C138.36 30.3321 138.384 24.5558 138.393 23.901C138.394 23.7714 138.473 23.6553 138.593 23.6053C138.713 23.5553 138.851 23.581 138.945 23.6708C139.117 23.8357 143.159 27.7385 142.812 30.1119C142.724 30.7138 142.381 31.1723 141.792 31.4749C141.48 31.6352 141.203 31.6951 140.963 31.6951ZM139.051 24.7032C139.102 26.713 139.427 30.2252 140.572 30.9322C140.738 31.0348 141.014 31.1426 141.494 30.8963C141.89 30.6928 142.11 30.4055 142.167 30.018C142.379 28.5604 140.334 26.0536 139.051 24.7032Z" fill="#222433"/>
<path d="M136.172 31.532C135.966 31.532 135.75 31.4965 135.527 31.4256C134.763 31.1828 134.499 30.6971 134.413 30.3324C133.908 28.2009 138.02 24.1296 138.491 23.6724C138.584 23.5819 138.722 23.5553 138.842 23.6044C138.962 23.6535 139.042 23.7692 139.045 23.8988C139.049 24.1368 139.142 29.7434 137.214 31.1789C136.898 31.4141 136.55 31.532 136.172 31.532ZM138.388 24.7045C136.999 26.1626 134.738 28.8766 135.048 30.1829C135.093 30.3721 135.212 30.6427 135.725 30.8057C136.149 30.9406 136.509 30.8922 136.824 30.6578C138.007 29.7769 138.337 26.5634 138.388 24.7045Z" fill="#222433"/>
<path d="M103.936 55.7406C103.752 55.6494 103.57 55.5431 103.391 55.4212C103.346 55.3897 103.302 55.3593 103.259 55.3279C101.812 54.275 100.177 53.4552 97.722 54.3661C95.9912 55.0091 93.4982 56.2377 92.9459 54.5829C92.5632 53.4357 95.4193 51.8796 97.4839 50.6575C94.0484 51.011 89.5474 51.4665 89.2995 49.9288C89.0516 48.3912 92.2871 47.7601 96.7424 47.3263C91.775 46.937 89.1016 47.4163 89.0353 45.9102C88.9266 43.4259 99.1462 43.6232 102.66 44.636C102.66 44.636 103.502 44.8529 106.574 45.4938C107.357 45.6588 108.002 45.9463 108.532 46.3153" fill="white"/>
<path d="M103.935 56.0661C103.887 56.0661 103.837 56.0551 103.79 56.0319C103.592 55.9333 103.395 55.8183 103.207 55.6899L103.164 55.66C103.13 55.6363 103.097 55.6129 103.065 55.5891C101.504 54.4535 100.016 53.862 97.8358 54.671C97.6313 54.7469 97.416 54.8313 97.1946 54.9179C95.8671 55.4373 94.3626 56.0262 93.3969 55.5753C93.0326 55.4052 92.7768 55.106 92.6366 54.6858C92.2501 53.527 94.0537 52.3136 96.0483 51.1257C92.1116 51.4891 89.2239 51.5086 88.9776 49.9805C88.9186 49.6144 89.0073 49.2754 89.2413 48.9729C89.7482 48.3173 90.9274 47.8428 93.0948 47.4658C91.7906 47.4206 90.7587 47.3829 90.0455 47.218C89.7259 47.1442 88.7534 46.9195 88.7096 45.9245C88.6969 45.6328 88.7866 45.2027 89.2866 44.8105C91.4316 43.1276 99.7378 43.4552 102.751 44.3237C102.751 44.3237 103.621 44.5455 106.641 45.1755C107.426 45.3411 108.125 45.6349 108.719 46.0489C108.867 46.1518 108.903 46.3546 108.799 46.5018C108.696 46.6491 108.493 46.6851 108.345 46.5822C107.823 46.2185 107.205 45.9594 106.507 45.8123C103.462 45.1773 102.613 44.9602 102.579 44.9512C99.3971 44.0343 91.5406 43.8698 89.6898 45.3219C89.4598 45.5025 89.3523 45.6903 89.3613 45.8961C89.3947 46.6549 90.5554 46.7269 93.1776 46.8177C94.2158 46.8536 95.3926 46.8944 96.7682 47.0021C96.9367 47.0154 97.0671 47.1548 97.0688 47.3234C97.0704 47.4921 96.9425 47.6339 96.7744 47.6503C93.9114 47.929 90.5265 48.3764 89.7579 49.3704C89.6349 49.5295 89.5917 49.6905 89.6218 49.8774C89.8219 51.1191 94.7846 50.6084 97.4507 50.3341C97.603 50.3183 97.7458 50.4105 97.7938 50.5556C97.8419 50.7007 97.7823 50.8595 97.6506 50.9374C97.4842 51.0359 97.3127 51.1366 97.1381 51.2391C95.5856 52.1502 92.9871 53.6751 93.2557 54.4805C93.3396 54.7315 93.4723 54.8922 93.6737 54.9861C94.3856 55.3185 95.8111 54.7607 96.9566 54.3124C97.1817 54.2243 97.4006 54.1387 97.6086 54.0615C100.207 53.0975 101.952 53.9743 103.452 55.0654C103.482 55.0874 103.51 55.1073 103.539 55.1273L103.579 55.156C103.739 55.2645 103.909 55.3644 104.081 55.4498C104.243 55.5298 104.308 55.7251 104.228 55.8859C104.171 55.9999 104.055 56.0661 103.935 56.0661Z" fill="#222433"/>
<path d="M136.372 48.3905L129.969 61.4799C128.938 63.5882 126.814 64.8297 124.592 64.8297C123.825 64.8297 123.046 64.6818 122.296 64.3704L106.536 57.8252C103.488 56.559 102.045 53.0677 103.315 50.0269C104.584 46.9861 108.085 45.5473 111.133 46.8136L121.692 51.1986C121.692 51.1986 121.658 51.1832 125.289 43.1882C126.017 41.5865 127.148 40.0995 128.325 39.2617" fill="white"/>
<path d="M124.593 65.1543C123.76 65.1543 122.945 64.9913 122.171 64.6699L106.411 58.1248C103.201 56.7916 101.677 53.1025 103.014 49.901C103.661 48.3501 104.876 47.1435 106.433 46.5035C107.99 45.8635 109.704 45.8666 111.259 46.5125L121.517 50.7724C121.59 50.6019 121.694 50.366 121.842 50.0331C122.251 49.1134 123.129 47.1559 124.992 43.0531C125.757 41.3689 126.933 39.8522 128.136 38.996C128.283 38.8917 128.486 38.9257 128.591 39.072C128.696 39.2182 128.661 39.4213 128.515 39.5257C127.401 40.3181 126.306 41.7371 125.587 43.3216C122.356 50.4346 122.035 51.2142 122.003 51.2949C122 51.3057 121.996 51.3164 121.991 51.3271C121.921 51.4903 121.731 51.5664 121.567 51.4981L111.008 47.1131C109.614 46.534 108.077 46.5312 106.681 47.1051C105.285 47.6789 104.196 48.7607 103.616 50.1512C102.418 53.0215 103.784 56.3289 106.662 57.5241L122.422 64.0693C123.116 64.3575 123.846 64.5037 124.593 64.5037C126.739 64.5037 128.735 63.2605 129.676 61.3365L136.079 48.2471C136.159 48.0857 136.354 48.0186 136.516 48.0974C136.678 48.1762 136.745 48.371 136.666 48.5324L130.262 61.6218C129.212 63.7678 126.987 65.1543 124.593 65.1543Z" fill="#222433"/>
<path d="M110.068 72.2077C110.022 72.2077 109.976 72.198 109.931 72.1778L108.519 71.5291C108.355 71.4539 108.283 71.2607 108.359 71.0975C108.434 70.9343 108.628 70.863 108.792 70.9381L110.204 71.5868C110.368 71.6619 110.439 71.8552 110.364 72.0184C110.309 72.1375 110.191 72.2077 110.068 72.2077Z" fill="#222433"/>
<path d="M128.291 37.2674L137.617 37.0627C138.173 37.0505 138.634 37.4905 138.647 38.0456C138.659 38.6006 138.218 39.0605 137.661 39.0727L128.335 39.2774C127.779 39.2896 127.318 38.8496 127.305 38.2945C127.293 37.7394 127.734 37.2796 128.291 37.2674Z" fill="white"/>
<path d="M128.313 39.602C127.591 39.602 126.996 39.0244 126.98 38.3008C126.963 37.5673 127.549 36.9575 128.284 36.9413L137.61 36.7367C138.345 36.7196 138.957 37.3041 138.973 38.0376C138.989 38.7711 138.404 39.3809 137.668 39.3971L128.343 39.6017C128.333 39.6019 128.323 39.602 128.313 39.602ZM128.298 37.5918C128.116 37.5958 127.947 37.6703 127.821 37.8014C127.695 37.9326 127.628 38.1048 127.632 38.2865C127.64 38.6612 127.953 38.9592 128.328 38.9513L137.654 38.7467C138.03 38.7384 138.329 38.4268 138.321 38.052C138.312 37.6773 138 37.3797 137.624 37.3872L128.298 37.5918ZM128.291 37.2665H128.292H128.291Z" fill="#222433"/>
<path d="M130.165 30.1749C130.032 30.1749 129.907 30.0935 129.858 29.9621C129.796 29.7936 129.883 29.6065 130.052 29.5443C130.964 29.2087 131.576 28.3314 131.576 27.3614C131.576 26.0788 130.53 25.0354 129.244 25.0354C128.393 25.0354 127.61 25.4977 127.199 26.242C127.113 26.3994 126.914 26.4568 126.756 26.3701C126.599 26.2835 126.541 26.0857 126.628 25.9283C127.153 24.9762 128.156 24.3848 129.244 24.3848C130.89 24.3848 132.228 25.7201 132.228 27.3614C132.228 28.6026 131.444 29.7252 130.277 30.1547C130.24 30.1684 130.202 30.1749 130.165 30.1749Z" fill="#222433"/>
<path d="M196.01 104.496L192.266 91.8972C191.793 90.3085 190.881 88.8872 189.636 87.7985C188.391 86.7097 186.863 85.9983 185.231 85.7469V85.709C184.878 85.6659 184.523 85.6443 184.167 85.6445H175.224C173.346 85.6447 171.519 86.2533 170.013 87.3798C168.507 88.5063 167.404 90.0906 166.867 91.8972L163.123 104.496C162.929 105.146 162.889 105.834 163.007 106.503C163.124 107.172 163.396 107.804 163.8 108.349C164.204 108.894 164.73 109.336 165.334 109.641C165.939 109.946 166.606 110.105 167.283 110.104H191.85C192.527 110.105 193.194 109.946 193.799 109.641C194.403 109.336 194.929 108.894 195.333 108.349C195.737 107.804 196.009 107.172 196.126 106.503C196.244 105.834 196.204 105.146 196.01 104.496Z" fill="white"/>
<path d="M191.851 110.459H167.282C166.551 110.459 165.829 110.288 165.175 109.958C164.521 109.628 163.953 109.15 163.516 108.56C163.079 107.971 162.786 107.288 162.659 106.564C162.531 105.841 162.574 105.097 162.784 104.394L166.528 91.7952C167.087 89.9154 168.235 88.2668 169.802 87.0947C171.369 85.9225 173.27 85.2892 175.224 85.2891H184.168C184.537 85.29 184.906 85.3124 185.274 85.3561C185.333 85.3632 185.389 85.3853 185.437 85.4203C187.103 85.7108 188.656 86.4609 189.922 87.5867C191.188 88.7125 192.117 90.1696 192.605 91.7952L196.349 104.394C196.559 105.098 196.602 105.841 196.474 106.564C196.347 107.288 196.054 107.971 195.617 108.561C195.18 109.15 194.612 109.628 193.958 109.958C193.304 110.288 192.582 110.459 191.851 110.459ZM167.283 109.749H191.851C192.472 109.749 193.085 109.603 193.64 109.323C194.196 109.043 194.678 108.637 195.049 108.136C195.42 107.636 195.67 107.055 195.778 106.441C195.886 105.826 195.849 105.195 195.671 104.597L191.927 91.9983C191.47 90.4761 190.594 89.1145 189.4 88.0705C188.206 87.0264 186.742 86.3425 185.177 86.0974C185.128 86.0898 185.08 86.0716 185.038 86.044C184.75 86.0142 184.461 85.9993 184.172 85.9992H175.224C173.425 86.0077 171.675 86.5949 170.232 87.6745C168.789 88.7541 167.728 90.2695 167.206 91.9984L163.462 104.597C163.284 105.195 163.247 105.826 163.355 106.441C163.463 107.055 163.712 107.636 164.084 108.136C164.455 108.637 164.937 109.043 165.493 109.323C166.048 109.603 166.661 109.749 167.282 109.749H167.283Z" fill="#222433"/>
<path d="M182.946 106.634H176.259C175.658 106.636 175.073 106.432 174.602 106.056C174.131 105.68 173.801 105.154 173.668 104.564L172.799 100.791C172.64 100.102 172.76 99.3768 173.133 98.7758C173.505 98.1748 174.1 97.7466 174.786 97.5852C174.984 97.5382 175.187 97.5149 175.391 97.5156H183.814C183.852 97.5156 183.896 97.5175 183.946 97.5213C184.323 97.5513 184.69 97.6621 185.021 97.8463C185.352 98.0304 185.64 98.2835 185.865 98.5888C186.096 98.9001 186.258 99.2575 186.34 99.637C186.422 100.016 186.422 100.409 186.34 100.788L185.482 104.759C185.48 104.771 185.477 104.783 185.473 104.794C185.299 105.33 184.961 105.796 184.507 106.126C184.053 106.457 183.507 106.634 182.946 106.634ZM175.39 98.2258C175.096 98.2258 174.806 98.2925 174.541 98.4209C174.276 98.5492 174.044 98.736 173.861 98.9673C173.678 99.1985 173.55 99.4682 173.486 99.7562C173.421 100.044 173.423 100.343 173.489 100.631L174.358 104.404C174.456 104.837 174.698 105.223 175.043 105.499C175.389 105.775 175.818 105.925 176.259 105.923H182.945C183.354 105.924 183.753 105.796 184.085 105.556C184.417 105.317 184.665 104.979 184.795 104.59L185.649 100.638C185.709 100.358 185.709 100.068 185.649 99.7873C185.588 99.507 185.469 99.2429 185.298 99.0129C185.133 98.789 184.922 98.6033 184.679 98.4681C184.437 98.333 184.168 98.2516 183.891 98.2294C183.862 98.2272 183.836 98.2258 183.814 98.2258H175.39H175.39Z" fill="#222433"/>
<path d="M185.051 93.8976H174.082C173.988 93.8976 173.898 93.8602 173.832 93.7936C173.766 93.727 173.729 93.6367 173.729 93.5426C173.729 93.4484 173.766 93.3581 173.832 93.2915C173.898 93.2249 173.988 93.1875 174.082 93.1875H185.051C185.144 93.1875 185.234 93.2249 185.301 93.2915C185.367 93.3581 185.404 93.4484 185.404 93.5426C185.404 93.6367 185.367 93.727 185.301 93.7936C185.234 93.8602 185.144 93.8976 185.051 93.8976Z" fill="#222433"/>
<path d="M174.091 92.2229C173.998 92.2229 173.908 92.1855 173.841 92.1189C173.775 92.0523 173.738 91.962 173.738 91.8678V85.4886C173.738 85.4714 173.739 85.4543 173.742 85.4373C173.749 85.3862 174.547 80.3047 179.627 80.3047C184.467 80.3047 185.381 85.4093 185.39 85.4609C185.394 85.4814 185.395 85.5022 185.395 85.523L185.342 91.8651C185.341 91.9588 185.303 92.0483 185.237 92.1143C185.171 92.1802 185.081 92.2172 184.988 92.2172L174.091 92.2231V92.2229ZM174.445 85.5163V91.5128L184.637 91.5071L184.688 85.5501C184.609 85.1274 183.734 81.0148 179.627 81.0148C175.286 81.0148 174.509 85.1227 174.445 85.5165V85.5163Z" fill="#222433"/>
<path d="M122.93 80.8158C121.266 80.8153 119.917 79.4663 119.918 77.8028V71.0175C119.918 71.0172 119.918 71.0167 119.918 71.0164C119.918 68.5824 121.893 66.6096 124.328 66.6103H138.369H138.369L141.624 53.8274C142.103 51.9466 143.797 50.6302 145.739 50.6309H156.653C158.124 50.6308 159.316 51.8225 159.316 53.2926C159.316 53.5142 159.288 53.735 159.234 53.9497L152.838 79.0694C152.576 80.0966 151.65 80.8155 150.59 80.8158" fill="white"/>
<path d="M150.59 81.1322C150.415 81.1323 150.274 80.9907 150.274 80.8159C150.273 80.6412 150.415 80.4995 150.59 80.4994C151.507 80.4991 152.305 79.8789 152.532 78.9911L158.927 53.8716C158.975 53.6826 159 53.4877 159 53.2926C159 51.9993 157.947 50.9472 156.653 50.9472H145.739C145.739 50.9472 145.738 50.9472 145.738 50.9472C143.94 50.9472 142.374 52.1634 141.931 53.9054L138.676 66.6883C138.641 66.8284 138.515 66.9266 138.37 66.9266H124.328C124.328 66.9266 124.327 66.9266 124.327 66.9266C123.234 66.9266 122.207 67.3518 121.434 68.1241C120.661 68.8965 120.235 69.9238 120.235 71.0165V77.8028C120.234 79.2893 121.443 80.4989 122.93 80.4994C123.105 80.4995 123.247 80.6412 123.247 80.8159C123.247 80.9907 123.101 81.1291 122.93 81.1322C121.094 81.1315 119.601 79.6379 119.602 77.8027V71.0174C119.602 69.7546 120.094 68.5685 120.986 67.6766C121.879 66.7849 123.065 66.2939 124.327 66.2939C124.327 66.2939 124.328 66.2939 124.328 66.2939H138.123L141.318 53.7493C141.832 51.7268 143.65 50.3145 145.738 50.3145C145.738 50.3145 145.739 50.3145 145.739 50.3145H156.653C158.296 50.3143 159.633 51.6503 159.633 53.2926C159.633 53.5404 159.602 53.7877 159.541 54.0278L153.145 79.1474C152.847 80.3157 151.796 81.1318 150.59 81.1322Z" fill="#222433"/>
<path d="M153.713 110.134C153.538 110.134 153.396 109.993 153.396 109.818V83.7282C153.396 82.2427 152.854 81.1328 152.37 81.1328H121.261C120.777 81.1328 120.235 82.2423 120.235 83.7271V109.818C120.235 109.993 120.093 110.134 119.918 110.134C119.743 110.134 119.602 109.993 119.602 109.818V83.7271C119.602 81.8873 120.315 80.5 121.261 80.5H152.37C153.316 80.5 154.029 81.8878 154.029 83.7282V109.818C154.029 109.993 153.888 110.134 153.713 110.134Z" fill="#222433"/>
<path d="M175.547 36.3791C182.792 36.3791 188.666 30.5116 188.666 23.2736C188.666 16.0355 182.792 10.168 175.547 10.168C168.301 10.168 162.427 16.0355 162.427 23.2736C162.427 30.5116 168.301 36.3791 175.547 36.3791Z" fill="white"/>
<path d="M175.547 36.7118C168.129 36.7118 162.094 30.6831 162.094 23.2729C162.094 15.8626 168.129 9.83398 175.547 9.83398C182.965 9.83398 189 15.8626 189 23.2729C189 30.6831 182.965 36.7118 175.547 36.7118ZM175.547 10.5006C168.497 10.5006 162.761 16.2302 162.761 23.2729C162.761 30.3155 168.497 36.0451 175.547 36.0451C182.597 36.0451 188.333 30.3155 188.333 23.2729C188.333 16.2302 182.597 10.5006 175.547 10.5006Z" fill="#222433"/>
<path d="M175.547 23.6067C175.497 23.6067 175.447 23.5957 175.401 23.5731C175.286 23.5174 175.213 23.4009 175.213 23.2734V14.513C175.213 14.3289 175.363 14.1797 175.547 14.1797C175.731 14.1797 175.881 14.3289 175.881 14.513V22.5878L180.768 18.7528C180.913 18.6391 181.123 18.6642 181.237 18.809C181.351 18.9537 181.326 19.1633 181.181 19.2769L175.753 23.5355C175.693 23.5826 175.62 23.6067 175.547 23.6067Z" fill="#222433"/>
<path d="M175.401 52.9355H176.811C177.454 52.9354 177.976 53.4566 177.976 54.0996C177.976 54.2806 177.934 54.4592 177.853 54.6211L176.105 58.1138L174.358 54.6211C174.07 54.0461 174.303 53.3466 174.878 53.0587C175.041 52.9775 175.22 52.9353 175.401 52.9355Z" fill="#82B1FF"/>
<path d="M181.289 57.4094V58.8171C181.29 59.4601 180.769 59.9821 180.125 59.9828C179.943 59.983 179.764 59.9408 179.602 59.8596L176.105 58.1138L179.602 56.3669C180.178 56.0796 180.879 56.3138 181.166 56.8898C181.247 57.0511 181.289 57.229 181.289 57.4094Z" fill="#82B1FF"/>
<path d="M98.782 30.9454H89.5618C89.3896 30.9454 89.25 30.8055 89.25 30.6329C89.25 30.4602 89.3896 30.3203 89.5618 30.3203H98.782C98.9542 30.3203 99.0938 30.4602 99.0938 30.6329C99.0938 30.8055 98.9542 30.9454 98.782 30.9454Z" fill="#222433"/>
<path d="M98.782 33.2559H89.5618C89.3896 33.2559 89.25 33.116 89.25 32.9434C89.25 32.7708 89.3896 32.6309 89.5618 32.6309H98.782C98.9542 32.6309 99.0938 32.7708 99.0938 32.9434C99.0938 33.116 98.9542 33.2559 98.782 33.2559Z" fill="#222433"/>
<path d="M98.782 35.5645H89.5618C89.3896 35.5645 89.25 35.4246 89.25 35.252C89.25 35.0794 89.3896 34.9395 89.5618 34.9395H98.782C98.9542 34.9395 99.0938 35.0794 99.0938 35.252C99.0938 35.4246 98.9542 35.5645 98.782 35.5645Z" fill="#222433"/>
<path d="M71.0242 66.8946H60.882C60.6926 66.8946 60.5391 66.7416 60.5391 66.5528C60.5391 66.364 60.6926 66.2109 60.882 66.2109H71.0242C71.2137 66.2109 71.3672 66.364 71.3672 66.5528C71.3672 66.7416 71.2137 66.8946 71.0242 66.8946Z" fill="#222433"/>
<path d="M71.0242 69.42H60.882C60.6926 69.42 60.5391 69.267 60.5391 69.0782C60.5391 68.8894 60.6926 68.7363 60.882 68.7363H71.0242C71.2137 68.7363 71.3672 68.8894 71.3672 69.0782C71.3672 69.267 71.2137 69.42 71.0242 69.42Z" fill="#222433"/>
<path d="M71.0242 71.9473H60.882C60.6926 71.9473 60.5391 71.7943 60.5391 71.6055C60.5391 71.4167 60.6926 71.2637 60.882 71.2637H71.0242C71.2137 71.2637 71.3672 71.4167 71.3672 71.6055C71.3672 71.7943 71.2137 71.9473 71.0242 71.9473Z" fill="#222433"/>
<path d="M76.0928 61.7541V50.6738H55.321V61.7541H76.0928Z" fill="white"/>
<path d="M55.043 61.7547V50.6744C55.043 50.6007 55.0723 50.53 55.1245 50.4779C55.1766 50.4258 55.2474 50.3965 55.3212 50.3965H76.0929C76.1667 50.3965 76.2374 50.4258 76.2896 50.4779C76.3418 50.53 76.3711 50.6007 76.3711 50.6744V61.7547C76.3711 61.8284 76.3418 61.8991 76.2896 61.9512C76.2374 62.0033 76.1667 62.0326 76.0929 62.0326H55.3212C55.2474 62.0326 55.1766 62.0033 55.1245 61.9512C55.0723 61.8991 55.043 61.8284 55.043 61.7547ZM55.5994 50.9523V61.4767H75.8147V50.9523H55.5994Z" fill="#222433"/>
<path d="M52.5 23.4355V45.2328L78.9141 45.224V23.4355H52.5Z" fill="#0D6EFD"/>
<path d="M23.3747 62.0623C23.4554 61.9935 23.5309 61.9166 23.5995 61.8305L26.1945 58.5683C26.7711 57.8434 26.6519 56.7865 25.9283 56.2073C25.2047 55.6281 24.1509 55.7462 23.5743 56.471L22.4556 57.8772L22.254 56.089C22.15 55.1669 21.3205 54.503 20.4012 54.606C19.4818 54.709 18.8209 55.5399 18.9249 56.4619L19.1265 58.2503L17.7219 57.126C16.9983 56.5469 15.9444 56.6649 15.3678 57.3897C14.7913 58.1146 14.9104 59.1715 15.634 59.7507L18.8908 62.3575C19.0189 62.46 19.1576 62.5396 19.3019 62.5989C15.6667 63.9994 13.2873 67.725 13.7455 71.7892C14.29 76.6187 18.6352 80.0966 23.4506 79.5572C28.2659 79.0178 31.7282 74.6652 31.1837 69.8357C30.7119 65.6512 27.3865 62.4836 23.3747 62.0623Z" fill="#82B1FF"/>
<path d="M26.5607 109.166C26.3705 109.188 26.1989 109.05 26.1773 108.859L21.8857 70.8768C21.8642 70.6859 22.0008 70.514 22.1911 70.4928C22.3813 70.4715 22.5529 70.609 22.5745 70.7998L26.8661 108.782C26.8876 108.973 26.7509 109.145 26.5607 109.166Z" fill="#222433"/>
<path d="M36.6466 109.478C36.7311 109.478 36.8126 109.447 36.8755 109.39C36.9385 109.333 36.9784 109.255 36.9877 109.171L38.6948 93.757C38.7039 93.6665 38.6772 93.576 38.6202 93.5052C38.5633 93.4345 38.4809 93.3891 38.3908 93.3791C38.3008 93.369 38.2104 93.3951 38.1394 93.4516C38.0684 93.5081 38.0225 93.5904 38.0116 93.6807L36.3046 109.095C36.2945 109.186 36.3209 109.277 36.3778 109.348C36.4347 109.42 36.5176 109.466 36.6082 109.476C36.6209 109.477 36.6338 109.478 36.6466 109.478Z" fill="#222433"/>
<path d="M41.8896 94.2527C42.3437 94.2515 42.7883 94.1217 43.1722 93.8781C43.5562 93.6346 43.8639 93.2872 44.0599 92.8759C44.256 92.4646 44.3325 92.0061 44.2806 91.5531C44.2287 91.1002 44.0506 90.6711 43.7666 90.3152C43.569 90.066 43.324 89.8587 43.046 89.7053C42.7679 89.5518 42.4623 89.4554 42.1468 89.4214L35.4752 88.6785C34.839 88.6084 34.2012 88.7949 33.702 89.1969C33.2028 89.5989 32.883 90.1835 32.813 90.8222C32.7444 91.4607 32.9305 92.1005 33.3307 92.6015C33.7309 93.1024 34.3125 93.4237 34.9482 93.495L41.6198 94.2376C41.7094 94.2476 41.7995 94.2526 41.8896 94.2527ZM35.2071 89.3539C35.2714 89.3539 35.3356 89.3575 35.3995 89.3647L42.0713 90.1074C42.5246 90.1593 42.939 90.3894 43.2238 90.7473C43.5086 91.1051 43.6406 91.5617 43.591 92.0171C43.5414 92.4724 43.3141 92.8895 42.959 93.1771C42.6039 93.4647 42.1498 93.5993 41.696 93.5516L35.0242 92.8087C34.6849 92.7715 34.3641 92.6339 34.1026 92.4136C33.8411 92.1932 33.6506 91.8999 33.5552 91.5707C33.4598 91.2416 33.4638 90.8915 33.5667 90.5646C33.6696 90.2378 33.8668 89.9489 34.1333 89.7346C34.4373 89.4882 34.8163 89.3539 35.2071 89.3539ZM42.3561 92.6986C42.54 92.6988 42.7182 92.6354 42.8609 92.5189C42.9856 92.4182 43.0777 92.2827 43.1257 92.1294C43.1736 91.9761 43.1752 91.8119 43.1302 91.6577C43.0852 91.5035 42.9957 91.3662 42.8729 91.2631C42.7502 91.16 42.5998 91.0958 42.4407 91.0785L34.868 90.2352C34.7623 90.2235 34.6554 90.2328 34.5533 90.2626C34.4513 90.2924 34.3561 90.3422 34.2732 90.409C34.1904 90.4759 34.1214 90.5585 34.0704 90.6521C34.0194 90.7457 33.9873 90.8485 33.976 90.9546C33.953 91.1687 34.0155 91.3831 34.1498 91.5509C34.284 91.7187 34.479 91.8263 34.6921 91.85L42.2648 92.6933C42.2951 92.6968 42.3256 92.6985 42.3561 92.6986ZM42.365 91.7645C42.3978 91.7678 42.428 91.7842 42.4488 91.8099C42.4587 91.8221 42.4661 91.8362 42.4704 91.8513C42.4748 91.8664 42.476 91.8823 42.4741 91.8979C42.4725 91.9142 42.4677 91.9301 42.4599 91.9445C42.4522 91.959 42.4417 91.9717 42.429 91.9821C42.4169 91.9921 42.4028 91.9996 42.3877 92.004C42.3726 92.0084 42.3567 92.0096 42.3411 92.0076L34.7684 91.1642C34.7524 91.1628 34.7369 91.1582 34.7227 91.1507C34.7086 91.1432 34.696 91.1329 34.6859 91.1205C34.6757 91.1081 34.6681 91.0937 34.6635 91.0783C34.659 91.0629 34.6575 91.0467 34.6592 91.0307C34.6626 90.9978 34.6788 90.9676 34.7044 90.9467C34.7165 90.9366 34.7305 90.9291 34.7457 90.9247C34.7608 90.9204 34.7766 90.9191 34.7922 90.9212L42.365 91.7645Z" fill="#222433"/>
<path d="M34.1142 100.591C34.5784 100.591 35.3199 100.382 36.3723 99.9558C37.2002 99.62 37.9014 99.2771 37.9304 99.263C37.9825 99.2376 38.0273 99.1993 38.0607 99.1519C38.0941 99.1044 38.1151 99.0492 38.1216 98.9915C38.1281 98.9337 38.12 98.8752 38.098 98.8215C38.076 98.7677 38.0408 98.7204 37.9957 98.6839C37.7355 98.4738 35.4257 96.6277 34.427 96.5163C33.8884 96.4566 33.3482 96.6139 32.9249 96.9535C32.5015 97.2931 32.2296 97.7874 32.1686 98.328C32.1124 98.867 32.2704 99.4065 32.6084 99.829C32.9463 100.252 33.4368 100.523 33.9731 100.584C34.02 100.589 34.067 100.592 34.1142 100.591ZM37.1287 98.8789C36.0465 99.3742 34.5691 99.9556 34.049 99.8977C33.8717 99.8779 33.7002 99.823 33.5443 99.7361C33.3884 99.6492 33.2512 99.5321 33.1407 99.3916C33.03 99.2544 32.9474 99.0966 32.8978 98.9272C32.8482 98.7578 32.8326 98.5802 32.8518 98.4047C32.892 98.0458 33.0726 97.7175 33.3537 97.492C33.6348 97.2665 33.9936 97.1623 34.3512 97.2022C34.8681 97.26 36.1828 98.1555 37.1287 98.8789Z" fill="#222433"/>
<path d="M41.3668 101.391C41.8327 101.392 42.2847 101.232 42.6477 100.939C42.8553 100.773 43.028 100.567 43.1558 100.333C43.2835 100.099 43.3638 99.8424 43.3919 99.5772C43.4509 99.0365 43.2941 98.4944 42.9559 98.0695C42.6178 97.6446 42.1257 97.3715 41.5875 97.3101C41.1399 97.26 40.3545 97.4656 39.1883 97.9384C38.3603 98.2741 37.6591 98.617 37.6296 98.6312C37.5776 98.6567 37.5328 98.6949 37.4995 98.7424C37.4661 98.7899 37.4452 98.8451 37.4388 98.9029C37.4323 98.9606 37.4405 99.0191 37.4625 99.0728C37.4846 99.1265 37.5198 99.1738 37.5649 99.2103C37.825 99.4204 40.1349 101.267 41.1336 101.378C41.211 101.387 41.2889 101.391 41.3668 101.391ZM41.4335 97.9921C41.4596 97.992 41.4857 97.9933 41.5116 97.996C41.8689 98.037 42.1955 98.2185 42.4198 98.5007C42.6442 98.783 42.748 99.1429 42.7086 99.5019C42.6902 99.6768 42.6373 99.8463 42.5531 100.001C42.4688 100.155 42.3549 100.291 42.2179 100.4C42.0774 100.514 41.916 100.598 41.7429 100.648C41.5699 100.698 41.3887 100.713 41.2098 100.692C40.6924 100.634 39.3777 99.7387 38.432 99.0148C39.4638 98.5424 40.8577 97.9921 41.4335 97.9921Z" fill="#222433"/>
</g>
<defs>
<clipPath id="clip0">
<rect width="210" height="118" fill="white"/>
</clipPath>
</defs>
</svg>
