<?xml version="1.0" encoding="UTF-8"?>
<svg width="19px" height="15px" viewBox="0 0 19 15" version="1.1" xmlns="http://www.w3.org/2000/svg" xmlns:xlink="http://www.w3.org/1999/xlink">
    <!-- Generator: Sketch 53.2 (72643) - https://sketchapp.com -->
    <title>nudge</title>
    <desc>Created with Sketch.</desc>
    <g id="Page-1" stroke="none" stroke-width="1" fill="none" fill-rule="evenodd">
        <g id="nudge" fill-rule="nonzero">
            <path d="M1.0429,11 C0.46834,11 0.00073,10.5579 0.00073,10.0148 L0.00073,8.5477 C0.00073,8.3243 0.08581,8.1077 0.23853,7.9331 L0.00146,3.4148 C-0.01454,3.0999 0.10181,2.8023 0.33016,2.5768 C0.55488,2.3526 0.8705,2.2241 1.1948,2.2241 C1.3919,2.2241 1.5883,2.2715 1.7643,2.3622 L4.7416,3.8926 L6.772,0.6627 C7.0309,0.2482 7.4905,0 8.0003,0 C8.5094,0 8.969,0.2475 9.2301,0.6627 L11.2605,3.8919 L14.2363,2.3616 C14.4101,2.2715 14.6072,2.2241 14.805,2.2241 C15.1294,2.2241 15.445,2.3526 15.6704,2.5768 C15.8981,2.8029 16.0152,3.1006 15.9984,3.4141 L15.7621,7.9317 C15.9148,8.107 15.9999,8.3236 15.9999,8.5477 L15.9999,10.0148 C15.9999,10.5579 15.5323,11 14.9578,11 L1.0429,11 Z" id="Path" fill="#000000" opacity="0.05"></path>
            <path d="M15.3905,8.0644 L15.6348,3.3976 C15.6465,3.179 15.565,2.9714 15.4065,2.8139 C15.2494,2.6579 15.0298,2.5685 14.8043,2.5685 C14.6676,2.5685 14.5309,2.6015 14.4095,2.6648 L11.126,4.3533 L8.9174,0.8394 C8.7225,0.5287 8.3792,0.3438 8.0003,0.3438 C7.6215,0.3438 7.2782,0.5287 7.084,0.8388 L4.8754,4.3533 L1.5905,2.6648 C1.4683,2.6022 1.3316,2.5685 1.1949,2.5685 C0.96944,2.5685 0.75054,2.6579 0.59346,2.8139 C0.43492,2.9714 0.35347,3.179 0.36511,3.3983 L0.61019,8.0658 C0.46329,8.1833 0.36511,8.3524 0.36511,8.5484 L0.36511,10.0155 C0.36511,10.3696 0.66909,10.6569 1.0436,10.6569 L14.9585,10.6569 C15.333,10.6569 15.637,10.3696 15.637,10.0155 L15.637,8.5484 C15.6363,8.3518 15.5374,8.1826 15.3905,8.0644 Z" id="Path" fill="#000000" opacity="0.07"></path>
            <path d="M1.0195,8.9378 L14.9802,8.9378 L15.2711,3.3808 C15.2893,3.0343 14.9032,2.8012 14.5832,2.9662 L10.9921,4.8128 L8.6046,1.0144 C8.3304,0.5785 7.6694,0.5785 7.3959,1.0144 L5.0084,4.8128 L1.4159,2.9662 C1.0959,2.8012 0.70973,3.0343 0.72791,3.3808 L1.0195,8.9378 Z" id="Path" fill="#EDBE00"></path>
            <path d="M14.9578,10.3125 L1.0429,10.3125 C0.86911,10.3125 0.72803,10.1791 0.72803,10.0148 L0.72803,8.5477 C0.72803,8.3834 0.86911,8.25 1.0429,8.25 L14.9578,8.25 C15.1316,8.25 15.2727,8.3834 15.2727,8.5477 L15.2727,10.0148 C15.2727,10.1791 15.1316,10.3125 14.9578,10.3125 Z" id="Path" fill="#E3A600"></path>
            <circle id="Oval" stroke="#FFFFFF" fill="#DD3646" cx="15.5" cy="11.5" r="3"></circle>
        </g>
    </g>
</svg>