<svg width="151" height="150" viewBox="0 0 151 150" fill="none" xmlns="http://www.w3.org/2000/svg">
<g clip-path="url(#clip0)">
<path d="M12.5333 75.8221C12.624 75.7606 12.7105 75.6903 12.7908 75.6097L15.831 72.5541C16.5065 71.8752 16.5065 70.7746 15.831 70.0957C15.1555 69.4168 14.0605 69.4168 13.385 70.0957L12.0744 71.4128V69.5508C12.0744 68.5907 11.3001 67.8125 10.3448 67.8125C9.38951 67.8125 8.61519 68.5907 8.61519 69.5508V71.413L7.30398 70.0951C6.62849 69.4162 5.53345 69.4162 4.85796 70.0951C4.18248 70.774 4.18248 71.8746 4.85796 72.5535L7.89817 75.6091C8.01777 75.7293 8.15087 75.827 8.29207 75.9047C4.39996 76.9261 1.52734 80.4828 1.52734 84.7147C1.52734 89.7435 5.58358 93.8202 10.5871 93.8202C15.5906 93.8202 19.6468 89.7435 19.6468 84.7147C19.6468 80.3576 16.6011 76.7174 12.5333 75.8221Z" fill="#93D3A2"/>
<path d="M10.3444 124.634C10.1466 124.634 9.98633 124.473 9.98633 124.275V84.7154C9.98633 84.5166 10.1466 84.3555 10.3444 84.3555C10.5422 84.3555 10.7025 84.5166 10.7025 84.7154V124.275C10.7025 124.473 10.5422 124.634 10.3444 124.634Z" fill="#222433"/>
<path d="M34.194 149.263H10.1858L1.52734 125.162H43.0456L34.194 149.263Z" fill="white"/>
<path d="M34.1936 149.791H10.1853C10.0769 149.791 9.97108 149.757 9.88234 149.695C9.79361 149.633 9.72628 149.544 9.68955 149.442L1.03114 125.341C1.0025 125.262 0.993433 125.176 1.0047 125.092C1.01596 125.008 1.04722 124.928 1.09584 124.859C1.14446 124.79 1.20901 124.733 1.28404 124.694C1.35908 124.655 1.44238 124.635 1.52693 124.635H43.0452C43.13 124.635 43.2137 124.655 43.2889 124.695C43.3642 124.734 43.4288 124.791 43.4774 124.861C43.5259 124.93 43.557 125.011 43.5678 125.095C43.5787 125.179 43.569 125.265 43.5397 125.345L34.6881 149.445C34.6509 149.547 34.5835 149.634 34.4951 149.696C34.4066 149.758 34.3014 149.791 34.1936 149.791ZM10.5557 148.735H33.8263L42.29 125.69H2.27651L10.5557 148.735Z" fill="#222433"/>
<path d="M36.491 56.7945C35.1976 55.1964 35.0463 52.9498 36.1138 51.1904C37.1117 49.526 37.6553 47.6254 37.6896 45.6813C37.7944 40.3105 34.0333 35.723 29.0027 34.6254L31.853 31.7539C32.5286 31.0733 32.5286 29.9701 31.853 29.2895C31.1775 28.609 30.0823 28.609 29.4068 29.2895L28.0966 30.6094V28.7426C28.0966 27.7801 27.3223 27 26.3669 27C25.4115 27 24.6371 27.7801 24.6371 28.7426V30.6101L23.3265 29.2899C22.651 28.6093 21.5558 28.6093 20.8803 29.2899C20.2047 29.9704 20.2047 31.0737 20.8803 31.7543L23.8513 34.7472C19.2028 35.9922 15.7483 40.2286 15.6776 45.3119C15.649 47.3722 16.1906 49.3999 17.2418 51.1675C18.2971 52.9366 18.1968 55.1806 16.892 56.7765C14.9812 59.1153 13.9626 62.0651 14.0199 65.0937C14.1392 71.9485 19.6962 77.531 26.5018 77.6272C33.4961 77.7286 39.2478 72.0986 39.3484 65.0524C39.3913 62.0467 38.3793 59.1222 36.491 56.7945Z" fill="#93D3A2"/>
<path d="M26.6843 125.514C26.4865 125.514 26.3262 125.352 26.3262 125.153V47.81C26.3262 47.6107 26.4865 47.4492 26.6843 47.4492C26.8821 47.4492 27.0424 47.6107 27.0424 47.81V125.153C27.0424 125.352 26.8821 125.514 26.6843 125.514Z" fill="#222433"/>
<path d="M26.7644 68.3016C26.6734 68.3016 26.5823 68.2668 26.5125 68.1973C26.3719 68.0572 26.3707 67.8287 26.5098 67.6871L30.0504 64.0817C30.1895 63.94 30.4163 63.9388 30.557 64.0789C30.6976 64.219 30.6988 64.4475 30.5597 64.5892L27.019 68.1946C26.949 68.2659 26.8567 68.3016 26.7644 68.3016Z" fill="#222433"/>
<path d="M26.604 68.3017C26.5123 68.3017 26.4206 68.2665 26.3508 68.196L22.7719 64.5906C22.632 64.4496 22.632 64.2213 22.7719 64.0803C22.9118 63.9394 23.1385 63.9394 23.2784 64.0803L26.8573 67.6857C26.9972 67.8267 26.9972 68.055 26.8573 68.196C26.7874 68.2665 26.6957 68.3017 26.604 68.3017Z" fill="#222433"/>
<path d="M26.7644 63.3181C26.6733 63.3181 26.5823 63.2833 26.5125 63.2137C26.3719 63.0736 26.3707 62.8451 26.5099 62.7034L30.0506 59.0992C30.1896 58.9576 30.4164 58.9564 30.5571 59.0966C30.6977 59.2367 30.6989 59.4652 30.5597 59.6068L27.019 63.211C26.9489 63.2824 26.8567 63.3181 26.7644 63.3181Z" fill="#222433"/>
<path d="M26.604 63.318C26.5123 63.318 26.4208 63.2827 26.3508 63.2124L22.7719 59.6082C22.632 59.4674 22.632 59.2389 22.7718 59.0979C22.9117 58.957 23.1384 58.957 23.2783 59.0978L26.8572 62.702C26.9971 62.8428 26.9971 63.0713 26.8573 63.2123C26.7874 63.2827 26.6957 63.318 26.604 63.318Z" fill="#222433"/>
<path d="M26.7644 58.3368C26.6734 58.3368 26.5823 58.302 26.5125 58.2325C26.3719 58.0924 26.3707 57.8639 26.5098 57.7222L30.0504 54.1168C30.1895 53.9752 30.4163 53.9739 30.557 54.1141C30.6976 54.2542 30.6988 54.4827 30.5597 54.6243L27.019 58.2297C26.949 58.301 26.8567 58.3368 26.7644 58.3368Z" fill="#222433"/>
<path d="M26.604 58.3369C26.5123 58.3369 26.4206 58.3016 26.3508 58.2311L22.7719 54.6257C22.632 54.4848 22.632 54.2564 22.7719 54.1155C22.9118 53.9745 23.1385 53.9745 23.2784 54.1155L26.8573 57.7209C26.9972 57.8618 26.9972 58.0902 26.8573 58.2311C26.7874 58.3016 26.6957 58.3369 26.604 58.3369Z" fill="#222433"/>
<path d="M26.7644 53.3543C26.6734 53.3543 26.5823 53.3196 26.5125 53.2501C26.3719 53.11 26.3707 52.8815 26.5098 52.7398L30.0504 49.1344C30.1895 48.9927 30.4163 48.9915 30.557 49.1316C30.6976 49.2717 30.6988 49.5002 30.5597 49.6419L27.019 53.2473C26.949 53.3186 26.8567 53.3543 26.7644 53.3543Z" fill="#222433"/>
<path d="M26.604 53.3544C26.5123 53.3544 26.4206 53.3192 26.3508 53.2487L22.7719 49.6433C22.632 49.5024 22.632 49.274 22.7719 49.1331C22.9118 48.9921 23.1385 48.9921 23.2784 49.1331L26.8573 52.7385C26.9972 52.8794 26.9972 53.1078 26.8573 53.2487C26.7874 53.3192 26.6957 53.3544 26.604 53.3544Z" fill="#222433"/>
<path d="M26.9865 93.924C28.8486 92.2788 30.0264 89.8626 30.0264 87.167C30.0264 82.2099 26.049 78.1914 21.1426 78.1914C16.2363 78.1914 12.2588 82.2099 12.2588 87.167C12.2588 89.8626 13.4366 92.2788 15.2987 93.924C13.4366 95.5693 12.2588 97.9855 12.2588 100.681C12.2588 105.638 16.2361 109.657 21.1426 109.657C26.0491 109.657 30.0264 105.638 30.0264 100.681C30.0264 97.9855 28.8486 95.5693 26.9865 93.924Z" fill="#28A745"/>
<path d="M21.1431 125.337C20.9492 125.337 20.792 125.178 20.792 124.982V100.681C20.792 100.485 20.9492 100.326 21.1431 100.326C21.3371 100.326 21.4943 100.485 21.4943 100.681V124.982C21.4943 125.178 21.3371 125.337 21.1431 125.337Z" fill="#222433"/>
<path d="M33.4564 104.483C38.55 104.483 42.6793 100.333 42.6793 95.215C42.6793 90.0966 38.55 85.9473 33.4564 85.9473C28.3627 85.9473 24.2334 90.0966 24.2334 95.215C24.2334 100.333 28.3627 104.483 33.4564 104.483Z" fill="white"/>
<path d="M33.4566 104.848C28.17 104.848 23.8691 100.526 23.8691 95.2141C23.8691 89.9018 28.17 85.5801 33.4566 85.5801C38.7432 85.5801 43.0441 89.9018 43.0441 95.2141C43.0441 100.526 38.7432 104.848 33.4566 104.848ZM33.4566 86.3127C28.5721 86.3127 24.5982 90.3059 24.5982 95.2141C24.5982 100.122 28.5721 104.116 33.4566 104.116C38.3412 104.116 42.315 100.122 42.315 95.2141C42.315 90.3059 38.3412 86.3127 33.4566 86.3127Z" fill="#222433"/>
<path d="M33.4563 125.161C33.255 125.161 33.0918 124.997 33.0918 124.795V95.214C33.0918 95.0116 33.255 94.8477 33.4563 94.8477C33.6577 94.8477 33.8209 95.0116 33.8209 95.214V124.795C33.8209 124.997 33.6577 125.161 33.4563 125.161Z" fill="#222433"/>
<path d="M140.602 150H-74.6016C-74.8273 150 -75 149.745 -75 149.413C-75 149.08 -74.8273 148.826 -74.6016 148.826H140.602C140.827 148.826 141 149.08 141 149.413C141 149.745 140.827 150 140.602 150Z" fill="#222433"/>
<path d="M100.234 146.916C100.768 147.482 101.114 148.218 101.219 149.01H94.4247C94.53 148.218 94.8751 147.482 95.4099 146.916C96.0549 146.234 96.9224 145.854 97.8218 145.85C98.7211 145.854 99.5886 146.234 100.234 146.916Z" fill="white" stroke="black"/>
<path d="M101.753 149.771H93.8908C93.8252 149.771 93.7623 149.744 93.716 149.694C93.6696 149.645 93.6436 149.579 93.6436 149.509C93.6436 148.337 94.0838 147.212 94.8674 146.383C95.651 145.554 96.7138 145.088 97.8219 145.088C98.9301 145.088 99.9929 145.554 100.777 146.383C101.56 147.212 102 148.337 102 149.509C102 149.579 101.974 149.645 101.928 149.694C101.882 149.744 101.819 149.771 101.753 149.771ZM94.1463 149.248H101.498C101.435 148.261 101.021 147.337 100.338 146.661C99.6558 145.986 98.7563 145.61 97.8219 145.61C96.8875 145.61 95.9881 145.986 95.3056 146.661C94.6232 147.337 94.2087 148.261 94.1463 149.248Z" fill="#222433"/>
<path d="M88.8851 149.009C89.1553 147.989 90.2311 147.148 91.6077 147.148C92.9842 147.148 94.06 147.989 94.3302 149.009H88.8851Z" fill="white" stroke="black"/>
<path d="M94.8962 149.77H88.3195C88.2539 149.77 88.191 149.743 88.1447 149.694C88.0983 149.645 88.0723 149.578 88.0723 149.509C88.0723 147.787 89.6582 146.387 91.6078 146.387C93.5574 146.387 95.1434 147.787 95.1434 149.509C95.1434 149.578 95.1173 149.645 95.071 149.694C95.0246 149.743 94.9617 149.77 94.8962 149.77ZM88.5821 149.247H94.6336C94.4796 147.937 93.1814 146.91 91.6078 146.91C90.0343 146.91 88.736 147.937 88.5821 149.247Z" fill="#222433"/>
<path d="M54.5034 149.321H40.9961C41.003 147.427 41.7168 145.614 42.9819 144.275C44.2469 142.936 45.9607 142.181 47.7497 142.174C49.5388 142.181 51.2526 142.936 52.5176 144.275C53.7827 145.614 54.4964 147.427 54.5034 149.321Z" fill="white"/>
<path d="M54.5033 149.77H40.996C40.8834 149.77 40.7754 149.723 40.6957 149.639C40.616 149.554 40.5713 149.44 40.5713 149.321C40.5713 147.306 41.3276 145.374 42.6738 143.949C44.02 142.525 45.8459 141.725 47.7497 141.725C49.6535 141.725 51.4794 142.525 52.8256 143.949C54.1718 145.374 54.9281 147.306 54.9281 149.321C54.9281 149.44 54.8833 149.554 54.8037 149.639C54.724 149.723 54.616 149.77 54.5033 149.77ZM41.435 148.871H54.0644C53.9571 147.176 53.2451 145.588 52.0727 144.428C50.9003 143.267 49.355 142.622 47.7497 142.622C46.1444 142.622 44.5991 143.267 43.4267 144.428C42.2542 145.588 41.5423 147.176 41.435 148.871Z" fill="#222433"/>
<path d="M42.7233 149.321H31.4248C31.4248 146.624 33.9733 144.406 37.0741 144.406C40.1748 144.406 42.7233 146.624 42.7233 149.321Z" fill="white"/>
<path d="M42.7233 149.77H31.4248C31.3121 149.77 31.2041 149.723 31.1244 149.639C31.0448 149.554 31 149.44 31 149.321C31 146.363 33.7247 143.957 37.074 143.957C40.4234 143.957 43.1481 146.363 43.1481 149.321C43.1481 149.44 43.1033 149.554 43.0236 149.639C42.944 149.723 42.8359 149.77 42.7233 149.77ZM31.8758 148.871H42.2722C42.0077 146.62 39.7773 144.856 37.074 144.856C34.3707 144.856 32.1403 146.62 31.8758 148.871Z" fill="#222433"/>
</g>
<defs>
<clipPath id="clip0">
<rect width="150" height="150" fill="white" transform="translate(0.666992)"/>
</clipPath>
</defs>
</svg>
