<svg width="224" height="122" viewBox="0 0 224 122" fill="none" xmlns="http://www.w3.org/2000/svg">
<path d="M94.229 108.907C94.1969 108.907 94.1642 108.903 94.1317 108.894C93.9301 108.841 93.8103 108.635 93.8639 108.435L105.607 64.5738C105.661 64.3736 105.867 64.2543 106.069 64.3077C106.27 64.3609 106.39 64.5664 106.337 64.7666L94.5936 108.628C94.5487 108.796 94.3959 108.907 94.229 108.907Z" fill="#222433"/>
<path d="M130.898 108.907C130.714 108.907 130.553 108.773 130.525 108.588L123.799 64.7266C123.767 64.5218 123.909 64.3304 124.115 64.2992C124.321 64.2683 124.514 64.4087 124.545 64.6135L131.271 108.475C131.303 108.68 131.161 108.871 130.955 108.902C130.936 108.905 130.917 108.907 130.898 108.907Z" fill="#222433"/>
<path d="M104.101 64.6709C104.101 64.6709 110.177 36.2254 110.315 35.4639C110.75 33.0797 111.659 30.8008 114.093 30.3205C114.397 30.2606 114.705 30.2305 115.015 30.2305H117.539H126.293H128.818C129.127 30.2305 129.435 30.2606 129.739 30.3205C132.301 30.826 133.966 33.2994 133.693 35.829L127.863 64.8977" fill="white"/>
<path d="M127.864 65.2729C127.839 65.2729 127.814 65.2705 127.79 65.2657C127.585 65.2252 127.452 65.0277 127.493 64.8245L133.319 35.7727C133.57 33.374 131.968 31.1428 129.666 30.6886C129.387 30.6336 129.102 30.6057 128.818 30.6057H115.015C114.731 30.6057 114.446 30.6336 114.167 30.6885C112.329 31.0513 111.223 32.5899 110.687 35.5307C110.549 36.289 104.718 63.5871 104.47 64.7489C104.427 64.9516 104.226 65.081 104.022 65.038C103.818 64.9949 103.688 64.7958 103.731 64.5932C103.792 64.3088 109.808 36.1445 109.944 35.3971C110.32 33.3309 111.152 30.5184 114.02 29.9526C114.347 29.8882 114.682 29.8555 115.015 29.8555H128.818C129.151 29.8555 129.486 29.8881 129.813 29.9526C132.5 30.4828 134.369 33.0816 134.068 35.869C134.067 35.8801 134.066 35.8913 134.063 35.9024L128.234 64.9711C128.198 65.1495 128.04 65.2729 127.864 65.2729Z" fill="#222433"/>
<path d="M90.0488 64.2967L128.258 64.293V64.7931C128.258 65.7655 127.465 66.5537 126.486 66.5537H88.2051L90.0488 64.2967Z" fill="#222433"/>
<path d="M92.8895 97.5465C92.8427 99.463 91.9239 101.083 89.5255 102.018L85.819 102.891C84.5107 103.225 83.3636 104.013 82.582 105.114C81.8005 106.216 81.4354 107.559 81.5518 108.905H96.1911L102.187 107.269L104.118 100.117L106.08 106.319L111.671 104.698L107.202 89.0234" fill="#82B1FF"/>
<path d="M52.211 93.4961C50.8561 95.0698 48.8471 96.0826 46.6044 96.3319C45.0159 96.5033 41.87 97.0175 40.3438 97.5005C38.584 98.0614 35.2512 99.7131 34.9086 102.487L49.2364 105.541L55.388 106.849L61.2905 101.676L59.9044 107.815L64.9659 108.906L67.0527 99.0898" fill="#82B1FF"/>
<path d="M76.7549 75.0782L67.7844 99.2761L49.4697 92.4826L60.9787 61.4445C61.4902 60.0652 62.3062 58.8193 63.3659 57.7995C64.4257 56.7797 65.7018 56.0124 67.0992 55.5547" fill="white"/>
<path d="M67.7845 99.7444C67.8799 99.7444 67.973 99.7152 68.0514 99.6606C68.1297 99.6061 68.1894 99.5289 68.2226 99.4393L77.193 75.2414C77.2144 75.1839 77.2241 75.1227 77.2218 75.0613C77.2195 75 77.2052 74.9397 77.1796 74.8839C77.154 74.8281 77.1176 74.7779 77.0727 74.7362C77.0277 74.6944 76.9749 74.662 76.9174 74.6406C76.8598 74.6193 76.7987 74.6095 76.7374 74.6118C76.676 74.6141 76.6158 74.6285 76.56 74.6541C76.5043 74.6797 76.4541 74.716 76.4124 74.761C76.3706 74.8061 76.3382 74.8588 76.3168 74.9164L67.509 98.676L50.0705 92.2076L61.4173 61.6079C61.9009 60.2928 62.6767 59.1047 63.6861 58.1332C64.6956 57.1618 65.9123 56.4324 67.2445 56C67.3624 55.9616 67.4601 55.8779 67.5163 55.7673C67.5725 55.6568 67.5825 55.5285 67.5441 55.4106C67.5057 55.2927 67.4221 55.1949 67.3116 55.1387C67.2011 55.0825 67.0729 55.0725 66.955 55.1109C65.4888 55.5867 64.1497 56.3894 63.0387 57.4584C61.9277 58.5274 61.0738 59.8348 60.5414 61.2821L49.0325 92.3202C48.9894 92.4364 48.9943 92.565 49.046 92.6776C49.0977 92.7903 49.192 92.8778 49.3081 92.9209L67.6228 99.7144C67.6745 99.7339 67.7292 99.7441 67.7845 99.7444Z" fill="#222433"/>
<path d="M120.128 28.0996C120.143 28.1152 120.159 28.1308 120.174 28.1308L120.128 28.0996Z" fill="#0D6EFD"/>
<path d="M112.31 26.293L102.638 26.6046L100.847 26.6669C99.625 26.7056 98.4245 27.0017 97.3243 27.536C96.224 28.0703 95.2488 28.8307 94.4622 29.7676L88.8556 37.3402L101.486 44.3362L106.36 38.2906C106.36 38.2906 110.051 34.6602 114.817 37.9479C119.536 41.2044 116.997 46.502 116.997 46.502L120.486 46.4709L119.754 36.9195C119.785 36.826 117.153 31.7309 115.627 28.786C115.297 28.1475 114.827 27.5918 114.253 27.1601C113.679 26.7285 113.014 26.4321 112.31 26.293Z" fill="#0D6EFD"/>
<path d="M94.4 40.7984C94.5239 40.7984 94.6427 40.7491 94.7303 40.6615C94.818 40.5738 94.8672 40.4549 94.8672 40.3309V36.9186C94.8672 36.7946 94.818 36.6757 94.7303 36.5881C94.6427 36.5004 94.5239 36.4512 94.4 36.4512C94.2761 36.4512 94.1572 36.5004 94.0696 36.5881C93.982 36.6757 93.9327 36.7946 93.9327 36.9186V40.3309C93.9327 40.4549 93.982 40.5738 94.0696 40.6615C94.1572 40.7491 94.2761 40.7984 94.4 40.7984Z" fill="#222433"/>
<path d="M116.873 46.4863H120.237L120.486 53.0928C120.626 56.7856 118.835 60.3226 115.705 62.2859C114.056 63.3147 112.151 63.8599 110.207 63.8596H106.781L92.2976 62.2859L107.653 88.5405L90.9271 98.6217L68.4854 61.3042C67.5961 59.8222 67.1156 58.1307 67.093 56.4022C67.0703 54.6738 67.5064 52.9702 68.3566 51.4654C69.2068 49.9606 70.4407 48.7083 71.9326 47.8363C73.4244 46.9644 75.1207 46.5039 76.8485 46.5019L83.187 46.5175" fill="white"/>
<path d="M90.927 99.0899C91.0119 99.0899 91.0953 99.0668 91.1681 99.0229L107.894 88.9418C108 88.8783 108.076 88.776 108.106 88.6568C108.136 88.5377 108.119 88.4114 108.057 88.3053L93.1693 62.8516L106.731 64.3252C106.747 64.3271 106.764 64.328 106.781 64.328H110.207C112.238 64.3271 114.228 63.7575 115.951 62.6837C119.185 60.6558 121.101 56.9747 120.953 53.0759L120.704 46.4694C120.699 46.3485 120.648 46.234 120.561 46.1502C120.474 46.0663 120.357 46.0194 120.237 46.0195H116.873C116.749 46.0195 116.63 46.0688 116.542 46.1564C116.455 46.2441 116.405 46.363 116.405 46.487C116.405 46.6109 116.455 46.7298 116.542 46.8175C116.63 46.9052 116.749 46.9544 116.873 46.9544H119.788L120.02 53.1109C120.155 56.6764 118.407 60.0404 115.457 61.8903C113.881 62.8715 112.063 63.392 110.207 63.3928H106.806L92.3479 61.8217C92.2618 61.8123 92.1748 61.8271 92.0966 61.8643C92.0184 61.9015 91.9521 61.9597 91.9051 62.0324C91.858 62.1051 91.8321 62.1895 91.8302 62.2761C91.8283 62.3627 91.8505 62.4481 91.8943 62.5229L107.017 88.3791L91.0864 97.9808L68.8856 61.0641C68.039 59.653 67.5816 58.0425 67.5601 56.3968C67.5386 54.7511 67.9538 53.1292 68.7633 51.6964C69.5727 50.2636 70.7476 49.0713 72.1679 48.241C73.5883 47.4107 75.2033 46.9722 76.8483 46.9701L83.1857 46.9857H83.187C83.3109 46.9859 83.4298 46.9368 83.5175 46.8492C83.6052 46.7616 83.6546 46.6428 83.6547 46.5188C83.6549 46.3949 83.6058 46.2759 83.5183 46.1881C83.4308 46.1004 83.312 46.051 83.1881 46.0508L76.8496 46.0353C75.0376 46.0337 73.2578 46.5139 71.6923 47.4267C70.1269 48.3395 68.832 49.6522 67.9403 51.2303C67.0486 52.8085 66.5921 54.5953 66.6176 56.408C66.643 58.2206 67.1495 59.994 68.0851 61.5464L90.5269 98.8638C90.5684 98.9329 90.6272 98.9901 90.6973 99.0297C90.7675 99.0694 90.8467 99.0902 90.9273 99.0902L90.927 99.0899Z" fill="#222433"/>
<path d="M105.831 39.3033C105.902 39.3034 105.972 39.2873 106.035 39.2563C106.099 39.2253 106.155 39.1802 106.199 39.1245L109.765 34.5747C109.838 34.4769 109.869 34.3544 109.853 34.2336C109.837 34.1127 109.774 34.0029 109.678 33.9277C109.582 33.8524 109.461 33.8177 109.34 33.8309C109.219 33.844 109.107 33.9041 109.03 33.9982L105.463 38.548C105.409 38.6169 105.376 38.6997 105.366 38.7868C105.357 38.874 105.373 38.962 105.411 39.0408C105.449 39.1196 105.509 39.1861 105.583 39.2326C105.657 39.2791 105.743 39.3038 105.831 39.3038V39.3033Z" fill="#222433"/>
<path d="M81.8319 45.4114C82.5638 45.536 82.5638 46.0191 83.4671 46.7981C83.5138 46.8293 98.8228 59.1074 98.9162 59.1698C99.5674 59.6808 100.313 60.0584 101.11 60.2809C101.907 60.5034 102.74 60.5666 103.562 60.4667C104.383 60.3669 105.177 60.106 105.898 59.699C106.619 59.292 107.252 58.7468 107.762 58.0946C107.762 58.0946 115.923 47.6863 115.985 47.5928C117.051 46.1671 117.507 44.3763 117.253 42.6143C116.998 40.8522 116.055 39.2634 114.63 38.1972C113.205 37.131 111.415 36.6749 109.654 36.9291C107.893 37.1833 106.305 38.1271 105.239 39.5528L101.299 44.5856C101.299 44.5856 93.4499 40.3474 90.522 38.6491C86.0835 36.0626 85.3827 35.9379 83.5606 35.5016C82.9376 35.3458 82.1278 35.2056 81.2089 35.0654C81.2089 35.0654 77.4557 34.6135 76.0852 34.3954C72.5967 33.8188 62.8008 34.8005 63.1901 37.1844C63.4237 38.6335 65.9311 37.87 70.7434 37.6674C66.5229 38.5868 63.5016 39.5684 63.9065 41.0174C64.327 42.4665 68.5786 41.5161 71.818 40.7837C69.9803 42.2016 67.4262 44.0091 67.909 45.0686C68.6254 46.5956 70.8835 45.1154 72.4565 44.3207C75.9606 42.5133 77.2376 43.9623 79.527 44.9751C80.1655 45.2244 81.8319 45.4114 81.8319 45.4114Z" fill="white"/>
<path d="M102.788 60.982C103.066 60.9819 103.343 60.9651 103.618 60.9315C104.501 60.8262 105.354 60.5468 106.129 60.1095C106.903 59.6722 107.583 59.0857 108.13 58.3838C111.754 53.7617 116.065 48.259 116.359 47.8731C116.923 47.1179 117.333 46.259 117.566 45.3452C117.798 44.4315 117.849 43.4809 117.714 42.5477C117.579 41.6145 117.262 40.7169 116.781 39.9063C116.3 39.0957 115.663 38.3879 114.909 37.8233C114.154 37.2587 113.295 36.8483 112.382 36.6157C111.469 36.383 110.519 36.3326 109.586 36.4673C108.653 36.6021 107.756 36.9193 106.946 37.4009C106.136 37.8825 105.428 38.519 104.864 39.2742L101.174 43.9871C99.623 43.1478 93.2937 39.7178 90.7552 38.2447C86.379 35.6945 85.5751 35.5024 83.8143 35.0817L83.6682 35.0468C83.1091 34.9065 82.3706 34.7697 81.2783 34.6028C81.2261 34.5963 77.5035 34.1477 76.1575 33.9329C73.0778 33.424 65.1333 34.0506 63.2002 35.9821C62.7174 36.4651 62.6767 36.943 62.7283 37.2598C62.9247 38.4775 64.0771 38.5998 66.0039 38.4751C64.703 38.9624 63.9547 39.4594 63.6147 40.0244C63.5117 40.1896 63.4443 40.3745 63.4169 40.5673C63.3895 40.7601 63.4028 40.9566 63.4559 41.1439C63.8834 42.6168 66.4163 42.3959 69.8878 41.6827C68.2965 42.9481 67.0009 44.2046 67.4832 45.263C67.5676 45.461 67.6926 45.6389 67.8504 45.7853C68.0081 45.9316 68.1948 46.043 68.3985 46.1122C69.4264 46.455 70.8155 45.7167 72.0414 45.0656C72.2577 44.9504 72.4676 44.839 72.6663 44.7384C75.3332 43.3629 76.5197 43.9768 78.1621 44.8269C78.5322 45.0182 78.915 45.2164 79.3373 45.4034L79.3565 45.4113C80.0168 45.6691 81.5307 45.8476 81.7648 45.8749C82.0207 45.9207 82.1029 46.0087 82.3659 46.3253C82.6056 46.6246 82.8718 46.9016 83.1613 47.1529C83.1691 47.1594 83.1769 47.1658 83.1848 47.1717C83.3124 47.2716 86.0473 49.4634 88.9416 51.7838C96.7631 58.0522 98.3995 59.3618 98.6277 59.5384C99.8129 60.4739 101.279 60.9824 102.788 60.982ZM115.606 47.3208C115.427 47.5589 110.162 54.2776 107.395 57.8071C106.44 59.0243 105.041 59.8127 103.505 59.9994C101.97 60.1861 100.423 59.7558 99.2047 58.8029C99.2008 58.7997 99.1968 58.7969 99.1927 58.7937C98.9794 58.6298 93.7399 54.4309 89.5267 51.0538C84.7828 47.252 83.9398 46.5767 83.7723 46.445C83.522 46.2274 83.2921 45.9875 83.0853 45.7283C82.7984 45.3828 82.5276 45.0566 81.9104 44.9515C81.9017 44.9501 81.8928 44.9489 81.8841 44.9478C81.4401 44.8979 80.1891 44.7287 79.706 44.5441C79.3135 44.37 78.9467 44.1803 78.5921 43.9967C76.9169 43.1302 75.3346 42.3111 72.2424 43.9062C72.0418 44.0076 71.8261 44.1221 71.6039 44.2403C70.6497 44.7473 69.3423 45.4425 68.6949 45.2255C68.6121 45.1966 68.5367 45.1498 68.474 45.0886C68.4113 45.0273 68.3629 44.9531 68.332 44.871C68.05 44.2519 70.4366 42.4291 71.5838 41.5531C71.761 41.4177 71.9353 41.2846 72.1035 41.1548C72.1876 41.0898 72.247 40.9979 72.2719 40.8945C72.2968 40.7911 72.2857 40.6823 72.2404 40.586C72.1952 40.4898 72.1184 40.4118 72.0229 40.3651C71.9274 40.3184 71.8188 40.3056 71.7151 40.329C70.1812 40.6759 68.2722 41.1081 66.7602 41.2545C64.6857 41.4571 64.3951 41.0253 64.3553 40.8882C64.3369 40.8241 64.3329 40.7568 64.3434 40.6909C64.3539 40.6251 64.3788 40.5623 64.4162 40.5071C65.0959 39.3773 69.2711 38.4678 70.8428 38.1255C70.9571 38.1007 71.058 38.0338 71.1254 37.9382C71.1929 37.8425 71.222 37.725 71.2071 37.609C71.1921 37.4929 71.1342 37.3866 71.0447 37.3112C70.9552 37.2358 70.8407 37.1967 70.7238 37.2017C69.4019 37.2573 68.2755 37.353 67.282 37.4374C64.8985 37.64 63.7485 37.7107 63.652 37.1113C63.642 37.0502 63.616 36.891 63.8614 36.6457C65.395 35.1141 72.92 34.347 76.0089 34.8578C77.3752 35.0759 80.9994 35.5122 81.1529 35.5307C82.2007 35.6909 82.9127 35.8229 83.4471 35.9564L83.5983 35.9926C85.2669 36.391 86.0286 36.5728 90.2866 39.0543C93.188 40.7371 100.998 44.9559 101.077 44.9981C101.174 45.0505 101.286 45.0669 101.394 45.0443C101.502 45.0218 101.599 44.9618 101.667 44.875L105.607 39.8422C106.096 39.1822 106.711 38.6252 107.416 38.2032C108.12 37.7813 108.902 37.5027 109.714 37.3834C110.527 37.264 111.355 37.3063 112.151 37.5079C112.948 37.7094 113.696 38.0662 114.355 38.5578C115.013 39.0494 115.568 39.6661 115.987 40.3727C116.407 41.0792 116.683 41.8616 116.799 42.675C116.916 43.4885 116.871 44.317 116.667 45.113C116.463 45.9091 116.104 46.657 115.611 47.314C115.609 47.3157 115.607 47.3184 115.606 47.3208Z" fill="#222433"/>
<path d="M107.233 19.4712C107.181 15.3753 110.457 12.0125 114.551 11.96C118.645 11.9075 122.006 15.1853 122.058 19.2811C122.111 23.3769 118.835 26.7398 114.741 26.7923C110.647 26.8448 107.286 23.567 107.233 19.4712Z" fill="white"/>
<path d="M114.646 27.2606C116.205 27.2606 117.728 26.7982 119.024 25.9318C120.32 25.0655 121.33 23.8342 121.927 22.3935C122.523 20.9529 122.679 19.3676 122.375 17.8383C122.071 16.3089 121.32 14.904 120.218 13.8014C119.116 12.6988 117.712 11.9479 116.183 11.6437C114.655 11.3395 113.07 11.4956 111.63 12.0923C110.19 12.6891 108.96 13.6996 108.094 14.9962C107.228 16.2927 106.766 17.817 106.766 19.3764C106.768 21.4667 107.599 23.4707 109.076 24.9487C110.554 26.4268 112.557 27.2582 114.646 27.2606ZM114.646 12.4271C116.02 12.4271 117.363 12.8346 118.505 13.5982C119.647 14.3618 120.538 15.4472 121.063 16.717C121.589 17.9868 121.726 19.3841 121.458 20.7321C121.19 22.0802 120.529 23.3184 119.558 24.2903C118.586 25.2622 117.349 25.924 116.001 26.1922C114.654 26.4603 113.257 26.3227 111.988 25.7967C110.719 25.2707 109.634 24.38 108.871 23.2372C108.108 22.0944 107.7 20.7508 107.7 19.3764C107.702 17.534 108.435 15.7676 109.737 14.4649C111.039 13.1621 112.805 12.4293 114.646 12.4272V12.4271Z" fill="#222433"/>
<path d="M111.266 16.7113C111.284 17.3229 111.232 17.9346 111.11 18.5343C111.01 19.0129 110.87 19.4821 110.69 19.9367L111.593 25.172L111.764 26.4185C111.848 26.9251 111.837 27.4427 111.733 27.9455C111.537 28.8806 111.021 29.7181 110.274 30.3139C109.528 30.9097 108.597 31.2265 107.642 31.2099C106.687 31.1933 105.768 30.8443 105.042 30.2229C104.316 29.6016 103.83 28.7467 103.666 27.8053L103.588 27.3378L103.152 24.9227C102.666 24.9094 102.182 24.8573 101.704 24.7669C100.681 24.555 99.7096 24.1433 98.8457 23.5554C97.9819 22.9675 97.2424 22.215 96.6696 21.3408C96.0968 20.4667 95.7019 19.4882 95.5075 18.4612C95.3131 17.4342 95.323 16.3789 95.5366 15.3557C95.7338 14.4157 96.0978 13.5185 96.6112 12.7069C96.4686 11.7599 96.4896 10.7954 96.6735 9.8555C96.7399 9.52278 96.8284 9.19484 96.9383 8.87387L98.6825 6.42759L99.944 5.67969" fill="white"/>
<path d="M107.723 31.6815C108.771 31.6763 109.785 31.3125 110.598 30.6506C111.411 29.9887 111.973 29.0685 112.191 28.0429C112.306 27.4846 112.318 26.9099 112.226 26.3472L112.056 25.1091C112.056 25.104 112.055 25.0985 112.054 25.0935L111.172 19.9828C111.576 18.937 111.767 17.8208 111.733 16.7001C111.731 16.6387 111.717 16.5783 111.693 16.5222C111.668 16.4661 111.632 16.4154 111.587 16.3731C111.543 16.3308 111.49 16.2977 111.433 16.2757C111.376 16.2536 111.315 16.2431 111.253 16.2447C111.192 16.2463 111.132 16.2599 111.076 16.2849C111.02 16.3098 110.969 16.3456 110.927 16.3901C110.884 16.4346 110.851 16.487 110.829 16.5443C110.807 16.6016 110.797 16.6627 110.798 16.7241C110.815 17.3002 110.766 17.8764 110.652 18.4413C110.558 18.8956 110.424 19.3407 110.252 19.7717C110.223 19.8499 110.215 19.9347 110.229 20.0171L111.131 25.2445L111.301 26.4831C111.376 26.9352 111.368 27.3973 111.276 27.8464C111.103 28.6759 110.646 29.419 109.984 29.9477C109.322 30.4765 108.497 30.7578 107.65 30.7433C106.803 30.7287 105.988 30.4192 105.345 29.8681C104.701 29.3169 104.27 28.5586 104.125 27.7237L104.048 27.2618L103.611 24.8405C103.592 24.7352 103.538 24.6396 103.457 24.5697C103.376 24.4998 103.273 24.4598 103.166 24.4564C102.705 24.4441 102.245 24.3947 101.792 24.3088C100.83 24.1086 99.9166 23.7207 99.1044 23.1671C98.2922 22.6136 97.597 21.9054 97.0586 21.0829C96.5201 20.2604 96.1489 19.3399 95.9663 18.3738C95.7836 17.4077 95.793 16.4151 95.994 15.4527C96.1802 14.5674 96.523 13.7226 97.0063 12.9581C97.0666 12.8631 97.0906 12.7496 97.0739 12.6384C96.9387 11.7443 96.9585 10.8337 97.1326 9.94637C97.1903 9.65581 97.2664 9.36921 97.3605 9.08831L99.0058 6.78008L100.182 6.0825C100.288 6.01879 100.364 5.91594 100.394 5.79635C100.424 5.67676 100.406 5.55013 100.343 5.44404C100.28 5.33795 100.178 5.26098 100.059 5.22992C99.9393 5.19886 99.8126 5.21621 99.706 5.27819L98.4445 6.0261C98.3886 6.05933 98.3402 6.10385 98.3024 6.15682L96.5581 8.6031C96.5314 8.64106 96.5104 8.68274 96.4958 8.72682C96.3793 9.06751 96.2857 9.41559 96.2155 9.76875C96.0323 10.7029 96.0021 11.6607 96.1261 12.6046C95.6313 13.4243 95.2779 14.3215 95.0806 15.2585C94.8541 16.342 94.8434 17.4595 95.0491 18.5471C95.2548 19.6347 95.6728 20.671 96.2794 21.5967C96.8859 22.5225 97.6689 23.3194 98.5837 23.942C99.4985 24.5646 100.527 25.0005 101.61 25.2249C101.99 25.2978 102.374 25.3468 102.759 25.3715L103.206 27.8823C103.393 28.9455 103.948 29.9089 104.774 30.6036C105.6 31.2982 106.644 31.6796 107.723 31.6809L107.723 31.6815Z" fill="#222433"/>
<path d="M105.862 12.8309C104.819 12.3313 103.903 11.6014 103.183 10.6962C102.311 9.63667 99.5236 6.5983 99.5236 6.5983L96.9539 8.81086C97.5924 6.98783 98.4646 5.41411 100.1 4.41691C101.039 3.85373 102.08 3.48153 103.164 3.32161C104.247 3.1617 105.351 3.21722 106.413 3.48499C107.475 3.75276 108.474 4.22753 109.352 4.88208C110.23 5.53664 110.971 6.35812 111.531 7.29946C112.404 8.77476 112.806 10.4818 112.683 12.192C112.627 12.551 112.5 12.8953 112.31 13.2048" fill="white"/>
<path d="M112.309 13.673C112.383 13.6732 112.457 13.6556 112.523 13.6218C112.589 13.588 112.646 13.539 112.689 13.4787C112.924 13.1093 113.079 12.695 113.145 12.2621C113.147 12.2503 113.149 12.2386 113.15 12.2267C113.281 10.4216 112.856 8.61949 111.934 7.06276C111.342 6.06829 110.56 5.2004 109.633 4.50883C108.705 3.81726 107.65 3.31561 106.529 3.03263C105.407 2.74965 104.241 2.6909 103.096 2.85975C101.952 3.02859 100.852 3.42172 99.86 4.0166C97.9194 5.19969 97.0522 7.1173 96.5131 8.65705C96.4791 8.75419 96.478 8.85985 96.5102 8.95762C96.5423 9.0554 96.6058 9.13983 96.6908 9.19781C96.7758 9.25579 96.8776 9.28408 96.9803 9.27829C97.083 9.27249 97.1809 9.23295 97.2589 9.16578L99.485 7.24927C100.233 8.06729 102.139 10.163 102.823 10.9943C103.588 11.9544 104.561 12.7282 105.669 13.2573C105.782 13.3086 105.91 13.313 106.026 13.2695C106.142 13.226 106.236 13.1381 106.288 13.0252C106.339 12.9123 106.343 12.7837 106.3 12.6676C106.256 12.5515 106.168 12.4574 106.056 12.4061C105.077 11.9357 104.218 11.2492 103.543 10.3984C102.674 9.34279 99.9821 6.40741 99.8676 6.28307C99.7856 6.19365 99.672 6.13967 99.5509 6.13254C99.4298 6.12542 99.3106 6.16571 99.2187 6.24489L98.2081 7.11511C98.7033 6.17316 99.4401 5.37995 100.343 4.81686C101.229 4.28584 102.212 3.935 103.234 3.78443C104.257 3.63386 105.299 3.68653 106.301 3.9394C107.302 4.19228 108.245 4.6404 109.073 5.25812C109.902 5.87583 110.601 6.651 111.129 7.53924C111.952 8.92607 112.332 10.5307 112.219 12.1393C112.175 12.4198 112.077 12.689 111.931 12.9326C111.881 13.0024 111.851 13.0847 111.844 13.1704C111.838 13.2562 111.855 13.3421 111.894 13.4186C111.933 13.4952 111.993 13.5595 112.066 13.6044C112.14 13.6493 112.224 13.6731 112.31 13.6732L112.309 13.673Z" fill="#222433"/>
<path d="M105.613 14.3909C105.564 13.7389 105.702 13.0864 106.011 12.5106C106.321 11.9347 106.789 11.4596 107.36 11.1415C107.931 10.8233 108.581 10.6755 109.233 10.7154C109.885 10.7553 110.512 10.9813 111.04 11.3667C111.568 11.7521 111.975 12.2807 112.212 12.89C112.449 13.4993 112.507 14.1638 112.378 14.8048C112.249 15.4459 111.94 16.0367 111.486 16.5073C111.033 16.9779 110.454 17.3087 109.818 17.4604" fill="white"/>
<path d="M109.818 17.9274C109.854 17.9275 109.89 17.9232 109.926 17.9147C110.624 17.7496 111.261 17.3935 111.768 16.8863C112.131 16.5286 112.419 16.1018 112.614 15.6311C112.809 15.1603 112.908 14.6553 112.904 14.1457C112.904 13.1158 112.496 12.128 111.77 11.3977C111.414 11.0354 110.989 10.7476 110.521 10.5512C110.052 10.3549 109.549 10.2538 109.041 10.2539H109.029C108.495 10.2547 107.966 10.3656 107.476 10.5795C106.986 10.7935 106.546 11.106 106.181 11.4977C105.817 11.8894 105.538 12.3518 105.36 12.8562C105.182 13.3606 105.11 13.8962 105.148 14.4297C105.152 14.4917 105.168 14.5522 105.196 14.6078C105.223 14.6634 105.262 14.713 105.309 14.7536C105.355 14.7942 105.41 14.825 105.469 14.8442C105.528 14.8635 105.59 14.8708 105.652 14.8657C105.714 14.8607 105.774 14.8433 105.829 14.8147C105.884 14.7861 105.933 14.7468 105.973 14.6991C106.013 14.6514 106.042 14.5963 106.061 14.5369C106.079 14.4775 106.085 14.4152 106.079 14.3534C106.052 13.9487 106.108 13.5427 106.244 13.1605C106.379 12.7784 106.592 12.4282 106.869 12.1316C107.145 11.8351 107.48 11.5985 107.852 11.4364C108.223 11.2744 108.624 11.1904 109.03 11.1896H109.038C109.423 11.1894 109.804 11.266 110.159 11.4147C110.514 11.5634 110.836 11.7813 111.106 12.0557C111.658 12.6117 111.969 13.3637 111.97 14.1479C111.97 14.8088 111.746 15.4504 111.337 15.9688C110.927 16.4873 110.354 16.8524 109.712 17.005C109.6 17.0313 109.502 17.0977 109.436 17.1915C109.37 17.2854 109.341 17.4002 109.355 17.514C109.368 17.6279 109.423 17.7329 109.508 17.8092C109.594 17.8854 109.704 17.9275 109.819 17.9274H109.818Z" fill="#222433"/>
<path d="M107.809 15.1538C107.826 15.1538 107.844 15.1528 107.862 15.1508L110.603 14.8392C110.664 14.833 110.724 14.8147 110.778 14.7852C110.833 14.7558 110.881 14.7158 110.92 14.6676C110.959 14.6194 110.988 14.564 111.005 14.5045C111.022 14.4451 111.027 14.3828 111.02 14.3212C111.013 14.2597 110.994 14.2002 110.964 14.1461C110.934 14.092 110.893 14.0445 110.845 14.0063C110.796 13.9681 110.74 13.9399 110.68 13.9234C110.621 13.907 110.558 13.9025 110.497 13.9104L108.984 14.0818L109.9 13.0673C109.942 13.0218 109.974 12.9686 109.995 12.9105C110.016 12.8525 110.026 12.7909 110.023 12.7292C110.02 12.6675 110.005 12.607 109.979 12.5511C109.952 12.4953 109.915 12.4452 109.869 12.4038C109.823 12.3624 109.77 12.3305 109.712 12.3099C109.654 12.2893 109.592 12.2805 109.53 12.2839C109.469 12.2873 109.408 12.3029 109.353 12.3298C109.297 12.3567 109.247 12.3944 109.206 12.4406L107.462 14.3727C107.402 14.4398 107.362 14.523 107.348 14.6123C107.333 14.7016 107.345 14.7931 107.382 14.8757C107.419 14.9583 107.478 15.0286 107.554 15.0779C107.63 15.1272 107.718 15.1534 107.809 15.1535V15.1538Z" fill="#222433"/>
<path d="M97.8725 17.7718C97.9698 17.7719 98.0647 17.7416 98.1439 17.6851C98.2232 17.6287 98.2828 17.5489 98.3146 17.4569C98.3463 17.3649 98.3486 17.2652 98.321 17.1719C98.2934 17.0785 98.2374 16.9961 98.1608 16.9362L96.9468 15.9857L98.7929 13.5016C98.8309 13.4524 98.8588 13.3962 98.8748 13.3361C98.8908 13.2761 98.8947 13.2134 98.8863 13.1518C98.8778 13.0903 98.8572 13.031 98.8255 12.9775C98.7939 12.924 98.7519 12.8774 98.7021 12.8403C98.6522 12.8032 98.5955 12.7765 98.5351 12.7616C98.4748 12.7467 98.4122 12.7441 98.3508 12.7537C98.2894 12.7634 98.2306 12.7852 98.1778 12.8179C98.1249 12.8506 98.0791 12.8935 98.043 12.9441L95.925 15.7954C95.8523 15.8933 95.8207 16.0158 95.837 16.1366C95.8533 16.2575 95.9161 16.3672 96.0121 16.4424L97.585 17.6733C97.6671 17.7374 97.7684 17.7721 97.8725 17.7718Z" fill="#222433"/>
<path d="M100.479 14.7234C100.248 14.4921 100.248 14.1172 100.479 13.886C100.71 13.6548 101.085 13.6548 101.316 13.886C101.547 14.1172 101.547 14.4921 101.316 14.7234C101.085 14.9546 100.71 14.9546 100.479 14.7234Z" fill="#222433"/>
<path d="M96.1611 14.2175C95.93 13.9863 95.93 13.6114 96.1611 13.3802C96.3922 13.1489 96.7669 13.1489 96.998 13.3802C97.2291 13.6114 97.2291 13.9863 96.998 14.2175C96.7669 14.4487 96.3922 14.4487 96.1611 14.2175Z" fill="#222433"/>
<path d="M98.4623 20.2576C99.0149 20.2582 99.5472 20.0486 99.9511 19.6713C99.9552 19.6674 99.9594 19.6635 99.9633 19.6594L100.088 19.5348C100.103 19.5193 100.118 19.5027 100.131 19.4852L100.178 19.4229C100.214 19.3738 100.241 19.3179 100.256 19.2585C100.272 19.199 100.275 19.1371 100.266 19.0763C100.249 18.9536 100.183 18.8429 100.084 18.7685C99.985 18.6941 99.8604 18.6622 99.7377 18.6797C99.615 18.6972 99.5044 18.7628 99.43 18.862L99.3643 18.9368L99.3082 18.9929C99.0678 19.2155 98.7493 19.3341 98.4219 19.3229C98.0946 19.3117 97.7849 19.1716 97.5602 18.933L97.3422 18.6993C97.2577 18.6087 97.1406 18.5553 97.0167 18.5511C96.8929 18.5468 96.7724 18.5919 96.6818 18.6765C96.5912 18.7611 96.5379 18.8782 96.5336 19.0021C96.5293 19.126 96.5744 19.2466 96.659 19.3372L96.877 19.5709C97.0798 19.7884 97.3252 19.9617 97.598 20.0798C97.8708 20.198 98.165 20.2585 98.4623 20.2576Z" fill="#222433"/>
<path d="M103.245 25.3894C104.708 25.3669 106.141 24.977 107.413 24.2556C107.521 24.1949 107.6 24.0941 107.634 23.9752C107.667 23.8562 107.652 23.7289 107.592 23.6209C107.532 23.5129 107.432 23.4332 107.313 23.399C107.194 23.3649 107.067 23.3792 106.959 23.4388C105.787 24.1066 104.461 24.4563 103.112 24.4533C102.988 24.4506 102.868 24.4972 102.779 24.583C102.689 24.6687 102.637 24.7866 102.635 24.9105C102.632 25.0345 102.679 25.1545 102.764 25.2441C102.85 25.3336 102.968 25.3855 103.092 25.3882C103.143 25.3894 103.194 25.3894 103.245 25.3894Z" fill="#222433"/>
<path d="M121.669 18.9238C123.537 19.4184 125.217 20.4562 126.496 21.9058C127.774 23.3555 128.595 25.1519 128.853 27.068C129.111 28.9841 128.795 30.9337 127.946 32.6704C127.097 34.407 125.752 35.8527 124.081 36.8246C122.411 37.7965 120.49 38.2509 118.561 38.1304C116.632 38.01 114.783 37.32 113.246 36.1478C111.709 34.9755 110.554 33.3737 109.927 31.5448C109.301 29.716 109.23 27.7422 109.724 25.8731C110.086 24.4922 110.751 23.2094 111.671 22.118" fill="white"/>
<path d="M119.191 38.6237C121.676 38.6174 124.074 37.7076 125.938 36.0636C127.802 34.4197 129.005 32.1538 129.323 29.6881C129.641 27.2225 129.052 24.7253 127.666 22.6619C126.28 20.5985 124.191 19.1096 121.79 18.4727C121.67 18.4409 121.542 18.4579 121.435 18.5202C121.328 18.5824 121.25 18.6847 121.218 18.8045C121.186 18.9244 121.203 19.0519 121.265 19.1592C121.328 19.2664 121.43 19.3446 121.55 19.3764C123.329 19.8472 124.928 20.8352 126.146 22.2156C127.364 23.596 128.145 25.3067 128.392 27.1314C128.638 28.9561 128.337 30.8128 127.529 32.4667C126.72 34.1206 125.439 35.4974 123.848 36.4231C122.257 37.3487 120.428 37.7815 118.591 37.6668C116.754 37.5522 114.993 36.8951 113.529 35.7788C112.066 34.6624 110.966 33.137 110.369 31.3953C109.772 29.6536 109.705 27.7739 110.176 25.994C110.52 24.679 111.153 23.4575 112.029 22.4192C112.069 22.3721 112.099 22.3177 112.117 22.2592C112.135 22.2006 112.142 22.139 112.137 22.0778C112.131 22.0166 112.114 21.9571 112.086 21.9027C112.057 21.8482 112.018 21.7999 111.971 21.7605C111.924 21.721 111.87 21.6912 111.811 21.6728C111.753 21.6544 111.691 21.6477 111.63 21.6531C111.569 21.6584 111.51 21.6758 111.455 21.7042C111.401 21.7326 111.352 21.7714 111.313 21.8185C110.348 22.9623 109.651 24.3077 109.273 25.7561C108.929 27.0563 108.844 28.4116 109.024 29.7446C109.203 31.0776 109.644 32.3621 110.319 33.5248C110.995 34.6875 111.894 35.7056 112.963 36.5209C114.032 37.3363 115.251 37.9329 116.551 38.2767C117.412 38.5064 118.3 38.6231 119.191 38.6237Z" fill="#222433"/>
<path d="M82.1347 47.4392H75.2761H41.6732L38.5459 26.9802C38.5219 26.8227 38.5098 26.6637 38.5098 26.5044C38.5102 24.7628 39.9293 23.3512 41.6798 23.3516H68.8702C70.4374 23.3506 71.7699 24.4895 72.0054 26.0312L74.9367 45.2179H81.9096L82.1347 47.4392Z" fill="white"/>
<path d="M82.1349 47.832H41.6734C41.4784 47.832 41.3125 47.6903 41.2832 47.4984L38.1559 27.0394C38.1289 26.8631 38.1152 26.6831 38.1152 26.5044C38.1154 25.5573 38.4862 24.6668 39.1596 23.9972C39.8327 23.3277 40.7276 22.959 41.6793 22.959C41.6796 22.959 41.6797 22.959 41.68 22.959H68.8703C68.8709 22.959 68.8717 22.959 68.8724 22.959C70.6473 22.959 72.1289 24.2259 72.3957 25.9723L75.2762 44.8252H81.9098C82.1125 44.8252 82.2822 44.9779 82.3025 45.1785L82.5275 47.3998C82.5386 47.5103 82.5023 47.6202 82.4275 47.7026C82.3527 47.785 82.2464 47.832 82.1349 47.832ZM42.0126 47.0466H81.6985L81.553 45.6107H74.937C74.7419 45.6107 74.5761 45.469 74.5468 45.277L71.6154 26.0903C71.4078 24.7308 70.2541 23.7444 68.8723 23.7444C68.8717 23.7444 68.8713 23.7444 68.8707 23.7444H41.68C41.6798 23.7444 41.6796 23.7444 41.6794 23.7444C40.9385 23.7444 40.2418 24.0313 39.7177 24.5526C39.1935 25.0739 38.9048 25.7671 38.9046 26.5045C38.9046 26.6437 38.9153 26.7837 38.9363 26.9211L42.0126 47.0466Z" fill="#222433"/>
<path d="M57.6648 38.4524C58.5019 37.6444 58.3849 36.1733 57.4033 35.1665C56.4218 34.1598 54.9475 33.9986 54.1104 34.8066C53.2733 35.6146 53.3904 37.0857 54.3719 38.0924C55.3534 39.0992 56.8277 39.2603 57.6648 38.4524Z" fill="#82B1FF"/>
<path d="M4.75803 48.2573C4.63961 48.2573 4.52604 48.2103 4.4423 48.1266C4.35857 48.0429 4.31152 47.9294 4.31152 47.811C4.31152 47.6926 4.35857 47.5791 4.4423 47.4954C4.52604 47.4117 4.63961 47.3647 4.75803 47.3647L82.3308 47.3398C82.4492 47.3398 82.5628 47.3869 82.6465 47.4706C82.7302 47.5543 82.7773 47.6678 82.7773 47.7862C82.7773 47.9045 82.7302 48.0181 82.6465 48.1018C82.5628 48.1855 82.4492 48.2325 82.3308 48.2325L4.75803 48.2573Z" fill="#222433"/>
<path d="M44.3659 109.4C44.2475 109.4 44.1339 109.353 44.0502 109.269C43.9665 109.185 43.9194 109.072 43.9194 108.953V48.0791C43.9194 47.9608 43.9665 47.8472 44.0502 47.7635C44.1339 47.6798 44.2475 47.6328 44.3659 47.6328C44.4844 47.6328 44.5979 47.6798 44.6817 47.7635C44.7654 47.8472 44.8124 47.9608 44.8124 48.0791V108.953C44.8124 109.072 44.7654 109.185 44.6817 109.269C44.5979 109.353 44.4844 109.4 44.3659 109.4Z" fill="#222433"/>
<path d="M208.529 109.198C208.512 109.201 208.494 109.203 208.477 109.203L14.6904 110.022C14.6006 110.022 14.5143 109.974 14.4504 109.889C14.3866 109.803 14.3504 109.686 14.35 109.565C14.3495 109.443 14.3847 109.326 14.4478 109.24C14.511 109.154 14.5969 109.105 14.6867 109.105L208.473 108.286C208.559 108.285 208.641 108.329 208.704 108.407C208.767 108.485 208.806 108.592 208.813 108.708C208.82 108.823 208.795 108.938 208.742 109.028C208.689 109.119 208.613 109.18 208.529 109.198Z" fill="#222433"/>
<path d="M189.196 35.9492H175.967C169.64 35.9492 164.516 41.0916 164.516 47.4423C164.516 53.793 169.64 58.9354 175.967 58.9354H189.196C189.342 58.9354 189.475 58.9354 189.621 58.9206C190.634 58.8764 191.618 59.3037 192.279 60.0847L195.626 64.0041C195.876 64.2988 196.316 64.3283 196.61 64.0778C196.757 63.9452 196.86 63.7536 196.86 63.5473V57.3588C196.86 56.5336 197.168 55.7379 197.711 55.1338C199.605 53.0268 200.647 50.2861 200.647 47.457C200.647 41.1064 195.524 35.9492 189.196 35.9492Z" fill="white"/>
<path d="M196.155 64.6075C196.125 64.6075 196.096 64.6075 196.081 64.6075C195.802 64.5927 195.538 64.4601 195.347 64.2391L192 60.3197C191.412 59.6271 190.546 59.2588 189.636 59.2882C189.489 59.303 189.357 59.303 189.196 59.303H175.967C169.449 59.303 164.148 53.9837 164.148 47.4415C164.148 40.8993 169.449 35.5801 175.967 35.5801H189.196C192.352 35.5801 195.318 36.8178 197.549 39.0575C199.781 41.2971 201.014 44.2736 201 47.4415C201 50.3737 199.928 53.1881 197.975 55.3688C197.491 55.914 197.212 56.6213 197.212 57.358V63.5466C197.212 63.856 197.08 64.1507 196.845 64.357C196.654 64.5191 196.404 64.6075 196.155 64.6075ZM189.753 58.5515C190.84 58.5515 191.838 59.0083 192.558 59.8334L195.905 63.7529C195.964 63.8265 196.037 63.856 196.14 63.8707C196.228 63.8855 196.316 63.856 196.39 63.7971C196.463 63.7381 196.507 63.635 196.507 63.5466V57.358C196.507 56.4444 196.845 55.5604 197.461 54.8826C199.297 52.8344 200.31 50.1969 200.31 47.4563C200.31 44.4798 199.164 41.695 197.065 39.5879C194.965 37.4809 192.191 36.3315 189.225 36.3315V35.9632V36.3315H175.967C169.86 36.3168 164.883 41.3119 164.883 47.4415C164.883 53.5712 169.86 58.5662 175.967 58.5662H189.196C189.342 58.5662 189.46 58.5662 189.592 58.5662C189.636 58.5515 189.695 58.5515 189.753 58.5515Z" fill="#222433"/>
<path d="M143.885 11.3496H157.268C163.671 11.3496 168.855 16.5304 168.855 22.9285C168.855 29.3265 163.671 34.5073 157.268 34.5073H143.885C143.736 34.5073 143.602 34.5073 143.454 34.4925C142.429 34.4479 141.434 34.8784 140.765 35.6652L137.378 39.6139C137.126 39.9108 136.68 39.9405 136.383 39.6881C136.235 39.5545 136.131 39.3615 136.131 39.1537V32.9189C136.131 32.0876 135.819 31.286 135.269 30.6774C133.353 28.5546 132.298 25.7935 132.298 22.9433C132.298 16.5452 137.482 11.3496 143.885 11.3496Z" fill="white"/>
<path d="M136.843 40.2225C136.873 40.2225 136.903 40.2225 136.918 40.2225C137.2 40.2077 137.467 40.0741 137.66 39.8514L141.047 35.9027C141.641 35.205 142.518 34.8339 143.439 34.8636C143.587 34.8784 143.721 34.8784 143.884 34.8784H157.268C163.864 34.8784 169.226 29.5195 169.226 22.9285C169.226 16.3374 163.864 10.9785 157.268 10.9785H143.884C140.691 10.9785 137.69 12.2255 135.432 14.4819C133.174 16.7382 131.926 19.7369 131.941 22.9285C131.941 25.8826 133.026 28.7179 135.001 30.9149C135.492 31.4642 135.774 32.1767 135.774 32.9189V39.1537C135.774 39.4654 135.907 39.7623 136.145 39.9702C136.338 40.1335 136.591 40.2225 136.843 40.2225ZM143.32 34.1214C142.221 34.1214 141.211 34.5816 140.483 35.4129L137.096 39.3615C137.036 39.4358 136.962 39.4654 136.858 39.4803C136.769 39.4951 136.68 39.4654 136.606 39.4061C136.531 39.3467 136.487 39.2428 136.487 39.1537V32.9189C136.487 31.9986 136.145 31.1079 135.521 30.425C133.664 28.3616 132.639 25.7044 132.639 22.9433C132.639 19.9447 133.798 17.1391 135.922 15.0163C138.047 12.8935 140.854 11.7356 143.855 11.7356V11.3645V11.7356H157.268C163.448 11.7207 168.483 16.7531 168.483 22.9285C168.483 29.1039 163.448 34.1362 157.268 34.1362H143.884C143.736 34.1362 143.617 34.1362 143.483 34.1362C143.439 34.1214 143.379 34.1214 143.32 34.1214Z" fill="#222433"/>
<path d="M159.259 109.317C159.189 109.324 159.118 109.304 159.062 109.26C159.006 109.217 158.97 109.153 158.96 109.082L154.801 79.8103C154.791 79.7381 154.809 79.6648 154.853 79.6066C154.896 79.5483 154.961 79.5098 155.033 79.4996C155.105 79.4894 155.178 79.5083 155.236 79.5521C155.294 79.5959 155.332 79.661 155.342 79.7332L159.501 109.005C159.506 109.041 159.504 109.077 159.495 109.112C159.486 109.147 159.471 109.18 159.449 109.209C159.428 109.237 159.401 109.262 159.37 109.28C159.339 109.298 159.305 109.31 159.269 109.316L159.259 109.317Z" fill="#222433"/>
<path d="M155.678 84.1245C155.633 84.1292 155.587 84.1227 155.545 84.1055C155.503 84.0882 155.467 84.0608 155.438 84.0257L153.418 81.5583C153.372 81.502 153.35 81.4297 153.357 81.3571C153.364 81.2846 153.4 81.2179 153.456 81.1717C153.512 81.1254 153.584 81.1035 153.656 81.1106C153.728 81.1177 153.794 81.1533 153.84 81.2096L155.574 83.3283L156.651 80.8051C156.665 80.7715 156.685 80.741 156.711 80.7154C156.737 80.6898 156.767 80.6696 156.801 80.6559C156.834 80.6422 156.87 80.6353 156.906 80.6357C156.942 80.636 156.978 80.6436 157.011 80.658C157.045 80.6724 157.075 80.6932 157.1 80.7193C157.125 80.7455 157.145 80.7764 157.158 80.8103C157.171 80.8441 157.178 80.8803 157.177 80.9166C157.176 80.953 157.168 80.9888 157.153 81.0221L155.9 83.9598C155.882 84.0031 155.852 84.0409 155.815 84.0695C155.778 84.0982 155.734 84.1167 155.687 84.1233L155.678 84.1245Z" fill="#222433"/>
<path d="M156.065 86.8625C156.02 86.8673 155.974 86.8607 155.932 86.8433C155.89 86.8259 155.853 86.7982 155.824 86.7627L152.902 83.1608C152.879 83.1328 152.862 83.1006 152.852 83.066C152.841 83.0314 152.838 82.995 152.841 82.959C152.845 82.9231 152.856 82.8881 152.873 82.8563C152.89 82.8245 152.913 82.7963 152.941 82.7735C152.968 82.7507 153.001 82.7336 153.035 82.7233C153.07 82.713 153.106 82.7096 153.142 82.7133C153.177 82.7171 153.212 82.7279 153.244 82.7452C153.275 82.7625 153.303 82.7859 153.326 82.814L155.961 86.063L157.593 82.2019C157.606 82.1676 157.626 82.1363 157.652 82.1099C157.677 82.0835 157.708 82.0625 157.741 82.0482C157.775 82.0339 157.811 82.0266 157.848 82.0266C157.885 82.0267 157.921 82.0342 157.955 82.0486C157.988 82.0631 158.019 82.0842 158.044 82.1107C158.07 82.1372 158.09 82.1685 158.103 82.2029C158.116 82.2373 158.122 82.274 158.121 82.3108C158.12 82.3476 158.111 82.3837 158.096 82.4171L156.287 86.6975C156.269 86.741 156.24 86.779 156.202 86.8078C156.165 86.8366 156.121 86.8552 156.074 86.8618L156.065 86.8625Z" fill="#222433"/>
<path d="M156.512 89.9917C156.467 89.9965 156.422 89.9899 156.38 89.9727C156.338 89.9554 156.301 89.928 156.272 89.8929L152.487 85.2687C152.443 85.2123 152.422 85.1405 152.429 85.0689C152.437 84.9972 152.472 84.9314 152.527 84.8857C152.583 84.84 152.654 84.8179 152.725 84.8243C152.797 84.8308 152.863 84.8651 152.909 84.92L156.409 89.1956L158.58 84.1096C158.594 84.076 158.614 84.0455 158.64 84.0198C158.665 83.9942 158.696 83.974 158.729 83.9603C158.763 83.9466 158.799 83.9397 158.835 83.9401C158.871 83.9405 158.907 83.948 158.94 83.9624C158.973 83.9768 159.003 83.9976 159.029 84.0238C159.054 84.0499 159.074 84.0808 159.087 84.1147C159.1 84.1485 159.106 84.1847 159.106 84.2211C159.105 84.2574 159.097 84.2932 159.082 84.3265L156.735 89.827C156.716 89.8703 156.687 89.908 156.65 89.9367C156.613 89.9653 156.569 89.9838 156.522 89.9904L156.512 89.9917Z" fill="#222433"/>
<path d="M156.939 93.0063C156.894 93.011 156.849 93.0044 156.807 92.9872C156.765 92.97 156.728 92.9426 156.7 92.9075L152.228 87.4481C152.204 87.4203 152.186 87.3881 152.175 87.3534C152.164 87.3186 152.16 87.282 152.163 87.2457C152.167 87.2094 152.177 87.1741 152.194 87.1419C152.211 87.1097 152.234 87.0812 152.262 87.058C152.29 87.0349 152.322 87.0176 152.357 87.0071C152.392 86.9967 152.428 86.9933 152.464 86.9971C152.5 87.001 152.535 87.012 152.567 87.0295C152.599 87.0471 152.627 87.0708 152.649 87.0994L156.836 92.2105L159.438 86.129C159.466 86.0621 159.52 86.0094 159.588 85.9825C159.655 85.9556 159.73 85.9566 159.797 85.9855C159.863 86.0143 159.916 86.0685 159.943 86.1363C159.97 86.204 159.969 86.2796 159.94 86.3465L157.161 92.8418C157.143 92.8851 157.114 92.9228 157.076 92.9514C157.039 92.98 156.995 92.9985 156.949 93.005C156.946 93.0056 156.942 93.0059 156.939 93.0063Z" fill="#222433"/>
<path d="M196.696 87.4911L193.78 89.7661L191.495 86.8721C191.14 86.4237 190.877 85.9099 190.722 85.3602C190.567 84.8105 190.522 84.2357 190.591 83.6685C190.659 83.1012 190.839 82.5528 191.121 82.0544C191.402 81.556 191.78 81.1174 192.232 80.7637L192.243 80.7552L195.159 78.4802L197.444 81.3742C197.799 81.8227 198.062 82.3364 198.217 82.8861C198.372 83.4358 198.417 84.0107 198.348 84.5779C198.28 85.1451 198.1 85.6936 197.818 86.192C197.537 86.6904 197.159 87.129 196.707 87.4827L196.696 87.4911Z" fill="white"/>
<path d="M193.814 90.0314C193.768 90.0373 193.721 90.0311 193.678 90.0135C193.635 89.996 193.597 89.9676 193.568 89.9313L191.284 87.0373C190.522 86.0758 190.177 84.8524 190.323 83.6364C190.47 82.4203 191.097 81.3112 192.065 80.5529L192.077 80.5443L194.993 78.2691C195.049 78.2252 195.121 78.2053 195.192 78.2138C195.263 78.2222 195.327 78.2583 195.371 78.3142L197.656 81.2082C198.418 82.1697 198.763 83.393 198.616 84.6091C198.47 85.8251 197.843 86.9342 196.874 87.6925L196.863 87.7011L193.947 89.9763C193.908 90.0062 193.863 90.0253 193.814 90.0314ZM195.113 78.856L192.4 80.9722C191.976 81.304 191.621 81.7156 191.357 82.1833C191.092 82.6511 190.923 83.1659 190.859 83.6983C190.794 84.2308 190.836 84.7704 190.982 85.2864C191.128 85.8024 191.374 86.2846 191.708 86.7055L193.826 89.3892L196.541 87.2716C197.398 86.6013 197.951 85.6208 198.081 84.5459C198.21 83.4709 197.905 82.3896 197.232 81.5397L195.113 78.856Z" fill="#222433"/>
<path d="M190.53 116.913C190.508 116.915 190.486 116.915 190.464 116.913C190.428 116.909 190.394 116.898 190.364 116.88C190.333 116.863 190.306 116.84 190.284 116.812C190.262 116.785 190.246 116.753 190.236 116.719C190.227 116.685 190.224 116.65 190.228 116.615L194.15 84.518C194.158 84.4475 194.195 84.3831 194.251 84.3392C194.307 84.2953 194.379 84.2754 194.45 84.2838C194.521 84.2923 194.586 84.3284 194.63 84.3843C194.674 84.4402 194.694 84.5112 194.685 84.5818L190.764 116.678C190.757 116.738 190.73 116.793 190.687 116.835C190.645 116.878 190.59 116.905 190.53 116.913Z" fill="#222433"/>
<path d="M195.193 78.7453C195.171 78.7481 195.149 78.7482 195.127 78.7455C195.092 78.7414 195.058 78.7303 195.027 78.7131C194.996 78.6959 194.969 78.6728 194.947 78.6451C194.925 78.6174 194.909 78.5857 194.9 78.5519C194.89 78.518 194.887 78.4826 194.892 78.4476L195.247 75.5358C195.256 75.4653 195.292 75.401 195.349 75.3571C195.405 75.3131 195.477 75.2932 195.548 75.3017C195.618 75.3101 195.683 75.3463 195.727 75.4021C195.771 75.458 195.791 75.529 195.783 75.5996L195.427 78.5114C195.42 78.5706 195.393 78.6259 195.35 78.6682C195.308 78.7106 195.253 78.7378 195.193 78.7453Z" fill="#222433"/>
<path d="M195.192 78.7434C195.129 78.7513 195.066 78.7369 195.013 78.7028C194.96 78.6687 194.92 78.6171 194.901 78.557L194.033 75.7629C194.022 75.7291 194.018 75.6935 194.021 75.658C194.024 75.6226 194.034 75.5881 194.05 75.5565C194.066 75.5249 194.089 75.4968 194.116 75.474C194.144 75.4511 194.176 75.4339 194.21 75.4234C194.244 75.4128 194.28 75.4091 194.316 75.4125C194.351 75.4159 194.386 75.4263 194.417 75.4431C194.449 75.46 194.477 75.4828 194.499 75.5105C194.522 75.5381 194.538 75.5699 194.548 75.604L195.417 78.3981C195.428 78.4355 195.432 78.475 195.426 78.5138C195.421 78.5526 195.407 78.5897 195.386 78.6227C195.364 78.6556 195.336 78.6834 195.302 78.7043C195.269 78.7252 195.231 78.7385 195.192 78.7434Z" fill="#222433"/>
<path d="M195.193 78.7446C195.142 78.751 195.091 78.7431 195.045 78.7219C194.999 78.7008 194.96 78.6672 194.933 78.625C194.905 78.5828 194.89 78.5337 194.89 78.4834C194.889 78.433 194.902 78.3835 194.929 78.3404L196.456 75.8315C196.495 75.7733 196.554 75.7321 196.622 75.7166C196.691 75.7011 196.762 75.7125 196.822 75.7484C196.882 75.7844 196.925 75.842 196.943 75.9092C196.961 75.9763 196.951 76.0478 196.917 76.1084L195.39 78.6173C195.369 78.6519 195.34 78.6814 195.306 78.7035C195.272 78.7255 195.233 78.7396 195.193 78.7446Z" fill="#222433"/>
<path d="M193.792 93.9998C194.964 93.8516 195.795 92.7874 195.648 91.6228C195.501 90.4582 194.431 89.6343 193.259 89.7825C192.087 89.9307 191.256 90.9949 191.403 92.1594C191.55 93.324 192.62 94.1479 193.792 93.9998Z" fill="white"/>
<path d="M193.825 94.2649C193.353 94.3247 192.873 94.2438 192.447 94.0326C192.021 93.8214 191.668 93.4893 191.432 93.0783C191.196 92.6673 191.088 92.1959 191.122 91.7237C191.156 91.2514 191.331 90.7996 191.623 90.4253C191.915 90.051 192.312 89.771 192.764 89.6208C193.217 89.4706 193.703 89.4569 194.162 89.5814C194.622 89.7059 195.034 89.963 195.346 90.3203C195.658 90.6775 195.856 91.1189 195.915 91.5885C195.994 92.2181 195.818 92.8534 195.426 93.3551C195.035 93.8569 194.459 94.1841 193.825 94.2649ZM193.292 90.0478C192.925 90.0942 192.58 90.2476 192.301 90.4886C192.021 90.7297 191.82 91.0475 191.722 91.402C191.624 91.7565 191.634 92.1316 191.751 92.4801C191.868 92.8285 192.086 93.1345 192.378 93.3594C192.67 93.5843 193.023 93.7181 193.392 93.7437C193.761 93.7693 194.129 93.6857 194.45 93.5034C194.771 93.321 195.031 93.0482 195.197 92.7194C195.362 92.3906 195.426 92.0206 195.38 91.6561C195.318 91.1676 195.063 90.7239 194.672 90.4223C194.28 90.1208 193.784 89.986 193.292 90.0476L193.292 90.0478Z" fill="#222433"/>
<path d="M170.962 83.4798C172.416 83.6306 173.718 82.5729 173.869 81.1173C174.02 79.6617 172.963 78.3594 171.509 78.2086C170.054 78.0578 168.753 79.1155 168.602 80.5711C168.451 82.0267 169.507 83.329 170.962 83.4798Z" fill="white"/>
<path d="M170.934 83.7506C170.36 83.691 169.816 83.4624 169.372 83.0937C168.927 82.7249 168.602 82.2326 168.438 81.6789C168.273 81.1252 168.276 80.5351 168.447 79.9831C168.617 79.4311 168.947 78.9421 169.395 78.5778C169.844 78.2136 170.39 77.9905 170.964 77.9368C171.539 77.8831 172.117 78.0012 172.625 78.2761C173.132 78.551 173.547 78.9704 173.816 79.4813C174.086 79.9921 174.198 80.5715 174.138 81.1462C174.058 81.9164 173.675 82.6231 173.074 83.1114C172.473 83.5996 171.704 83.8295 170.934 83.7506ZM171.481 78.4794C171.013 78.4309 170.542 78.5223 170.126 78.7419C169.71 78.9616 169.369 79.2996 169.145 79.7134C168.921 80.1271 168.825 80.5979 168.869 81.0663C168.913 81.5346 169.094 81.9795 169.39 82.3446C169.687 82.7098 170.084 82.9788 170.533 83.1176C170.983 83.2564 171.463 83.2589 171.913 83.1246C172.364 82.9903 172.764 82.7254 173.064 82.3633C173.364 82.0012 173.551 81.5582 173.599 81.0903C173.663 80.463 173.476 79.8358 173.079 79.3464C172.682 78.8569 172.107 78.5451 171.481 78.4794Z" fill="#222433"/>
<path d="M173.165 89.3919C174.62 89.5427 175.921 88.485 176.072 87.0294C176.223 85.5738 175.166 84.2715 173.712 84.1207C172.257 83.9699 170.956 85.0276 170.805 86.4832C170.654 87.9388 171.711 89.2411 173.165 89.3919Z" fill="white"/>
<path d="M173.137 89.6607C172.563 89.6012 172.019 89.3726 171.575 89.0038C171.131 88.6351 170.806 88.1427 170.641 87.589C170.476 87.0354 170.479 86.4452 170.65 85.8932C170.82 85.3412 171.15 84.8522 171.599 84.488C172.047 84.1238 172.593 83.9007 173.167 83.847C173.742 83.7933 174.32 83.9113 174.828 84.1862C175.335 84.4611 175.75 84.8806 176.02 85.3914C176.289 85.9023 176.401 86.4817 176.341 87.0563C176.261 87.8266 175.878 88.5333 175.277 89.0216C174.677 89.5098 173.907 89.7397 173.137 89.6607ZM173.684 84.3896C173.216 84.3411 172.745 84.4325 172.329 84.6521C171.913 84.8717 171.572 85.2098 171.348 85.6235C171.125 86.0372 171.028 86.5081 171.072 86.9764C171.116 87.4448 171.297 87.8897 171.593 88.2548C171.89 88.6199 172.287 88.8889 172.737 89.0278C173.186 89.1666 173.666 89.169 174.116 89.0347C174.567 88.9005 174.967 88.6355 175.268 88.2734C175.568 87.9113 175.754 87.4683 175.802 87.0004C175.867 86.3731 175.68 85.746 175.282 85.2565C174.885 84.7671 174.31 84.4553 173.684 84.3896Z" fill="#222433"/>
<path d="M167.893 88.9915C169.347 89.1423 170.648 88.0846 170.799 86.629C170.95 85.1734 169.894 83.8712 168.439 83.7203C166.985 83.5695 165.683 84.6273 165.532 86.0828C165.381 87.5384 166.438 88.8407 167.893 88.9915Z" fill="white"/>
<path d="M167.865 89.2603C167.29 89.2008 166.747 88.9722 166.302 88.6034C165.858 88.2347 165.533 87.7423 165.368 87.1887C165.204 86.635 165.207 86.0448 165.377 85.4928C165.548 84.9409 165.878 84.4518 166.326 84.0876C166.774 83.7234 167.32 83.5003 167.895 83.4466C168.47 83.3929 169.048 83.5109 169.555 83.7858C170.063 84.0608 170.478 84.4802 170.747 84.991C171.017 85.5019 171.129 86.0813 171.069 86.6559C170.988 87.4262 170.606 88.1329 170.005 88.6212C169.404 89.1094 168.634 89.3393 167.865 89.2603ZM168.411 83.9892C167.944 83.9407 167.472 84.0321 167.057 84.2517C166.641 84.4713 166.3 84.8094 166.076 85.2231C165.852 85.6369 165.756 86.1077 165.8 86.576C165.843 87.0444 166.025 87.4893 166.321 87.8544C166.617 88.2195 167.015 88.4885 167.464 88.6274C167.913 88.7662 168.393 88.7686 168.844 88.6344C169.294 88.5001 169.695 88.2352 169.995 87.873C170.295 87.5109 170.481 87.0679 170.53 86.6C170.594 85.9727 170.407 85.3456 170.01 84.8561C169.613 84.3667 169.038 84.0549 168.411 83.9892Z" fill="#222433"/>
<path d="M172.72 95.263C174.174 95.4138 175.476 94.3561 175.627 92.9005C175.777 91.4449 174.721 90.1426 173.266 89.9918C171.812 89.841 170.51 90.8987 170.36 92.3543C170.209 93.8099 171.265 95.1122 172.72 95.263Z" fill="white"/>
<path d="M172.692 95.5338C172.118 95.4742 171.574 95.2456 171.13 94.8769C170.685 94.5081 170.36 94.0158 170.196 93.4621C170.031 92.9084 170.034 92.3183 170.204 91.7663C170.375 91.2143 170.705 90.7253 171.153 90.361C171.601 89.9968 172.147 89.7737 172.722 89.72C173.297 89.6663 173.875 89.7844 174.382 90.0593C174.89 90.3342 175.305 90.7536 175.574 91.2645C175.844 91.7753 175.956 92.3547 175.896 92.9294C175.815 93.6996 175.433 94.4064 174.832 94.8946C174.231 95.3829 173.462 95.6127 172.692 95.5338ZM173.238 90.2626C172.771 90.2141 172.299 90.3055 171.884 90.5251C171.468 90.7448 171.127 91.0828 170.903 91.4966C170.679 91.9103 170.583 92.3811 170.627 92.8495C170.67 93.3178 170.852 93.7627 171.148 94.1278C171.444 94.493 171.842 94.762 172.291 94.9008C172.74 95.0396 173.22 95.0421 173.671 94.9078C174.122 94.7735 174.522 94.5086 174.822 94.1465C175.122 93.7844 175.308 93.3414 175.357 92.8735C175.421 92.2462 175.234 91.619 174.837 91.1296C174.44 90.6401 173.865 90.3283 173.238 90.2626Z" fill="#222433"/>
<path d="M167.439 94.8548C168.893 95.0056 170.195 93.9479 170.346 92.4923C170.497 91.0367 169.44 89.7344 167.986 89.5836C166.531 89.4328 165.23 90.4905 165.079 91.9461C164.928 93.4017 165.985 94.704 167.439 94.8548Z" fill="white"/>
<path d="M167.411 95.1236C166.837 95.0641 166.293 94.8355 165.849 94.4667C165.405 94.098 165.079 93.6056 164.915 93.0519C164.75 92.4983 164.753 91.9081 164.924 91.3561C165.094 90.8041 165.424 90.3151 165.872 89.9509C166.321 89.5866 166.867 89.3636 167.441 89.3099C168.016 89.2561 168.594 89.3742 169.102 89.6491C169.609 89.924 170.024 90.3434 170.294 90.8543C170.563 91.3652 170.675 91.9446 170.615 92.5192C170.535 93.2894 170.152 93.9962 169.551 94.4844C168.95 94.9727 168.181 95.2026 167.411 95.1236ZM167.958 89.8525C167.49 89.804 167.019 89.8953 166.603 90.115C166.187 90.3346 165.846 90.6727 165.622 91.0864C165.398 91.5001 165.302 91.971 165.346 92.4393C165.39 92.9077 165.571 93.3526 165.867 93.7177C166.164 94.0828 166.561 94.3518 167.01 94.4906C167.46 94.6295 167.94 94.6319 168.39 94.4976C168.841 94.3634 169.241 94.0984 169.541 93.7363C169.842 93.3742 170.028 92.9312 170.076 92.4633C170.14 91.836 169.954 91.2089 169.556 90.7194C169.159 90.2299 168.584 89.9182 167.958 89.8525Z" fill="#222433"/>
<path d="M168.144 121.256C168.074 121.249 168.009 121.215 167.964 121.16C167.919 121.106 167.896 121.036 167.902 120.966L170.873 82.0684C170.875 82.0328 170.885 81.9982 170.901 81.9664C170.917 81.9346 170.939 81.9062 170.966 81.883C171.021 81.8361 171.092 81.8129 171.164 81.8183C171.235 81.8238 171.302 81.8575 171.349 81.9121C171.396 81.9668 171.419 82.0378 171.414 82.1095L168.443 121.007C168.44 121.043 168.43 121.077 168.414 121.109C168.398 121.141 168.376 121.169 168.349 121.192C168.322 121.216 168.29 121.233 168.257 121.244C168.223 121.256 168.187 121.26 168.152 121.257L168.144 121.256Z" fill="#222433"/>
<path d="M183.866 100.177C185.21 100.177 186.299 99.0691 186.299 97.702C186.299 96.3348 185.21 95.2266 183.866 95.2266C182.523 95.2266 181.434 96.3348 181.434 97.702C181.434 99.0691 182.523 100.177 183.866 100.177Z" fill="white"/>
<path d="M183.866 100.454C182.376 100.454 181.163 99.2193 181.163 97.7016C181.163 96.1839 182.376 94.9492 183.866 94.9492C185.357 94.9492 186.57 96.1839 186.57 97.7016C186.57 99.2193 185.357 100.454 183.866 100.454ZM183.866 95.5032C182.675 95.5032 181.706 96.4893 181.706 97.7016C181.706 98.9139 182.675 99.9 183.866 99.9C185.058 99.9 186.027 98.9138 186.027 97.7016C186.027 96.4894 185.058 95.5032 183.866 95.5032Z" fill="#222433"/>
<path d="M186.534 118.376C186.4 118.376 186.283 118.275 186.265 118.136L183.597 97.7375C183.577 97.5859 183.682 97.4466 183.83 97.4263C183.979 97.4059 184.116 97.5127 184.136 97.6643L186.803 118.063C186.823 118.214 186.719 118.354 186.57 118.374C186.558 118.375 186.546 118.376 186.534 118.376Z" fill="#222433"/>
<path d="M59.3282 15.7117L59.303 14.4969C59.2913 13.9422 59.7265 13.4829 60.2753 13.4709C60.4297 13.4676 60.5829 13.5007 60.7225 13.5677L63.7342 15.01L60.7861 16.5797C60.2999 16.8384 59.6984 16.6497 59.4424 16.1581C59.3707 16.0202 59.3316 15.8674 59.3282 15.7117Z" fill="white"/>
<path d="M60.3242 17.0013C60.195 17.0013 60.0651 16.9816 59.9381 16.9417C59.6071 16.8379 59.3359 16.6099 59.1745 16.2998C59.0814 16.121 59.0299 15.9196 59.0255 15.7176C59.0255 15.7175 59.0255 15.7174 59.0255 15.7174L59.0003 14.5027C58.9929 14.1528 59.1208 13.8208 59.3603 13.568C59.5999 13.3151 59.9225 13.1718 60.2686 13.1644C60.4702 13.16 60.671 13.2036 60.8522 13.2906L63.8637 14.7326C63.9673 14.7822 64.0343 14.8868 64.0367 15.0026C64.0392 15.1185 63.9766 15.2258 63.8751 15.2799L60.9271 16.8496C60.738 16.9503 60.532 17.0013 60.3242 17.0013ZM59.6308 15.7045C59.6331 15.8122 59.6606 15.9195 59.7103 16.0148C59.7965 16.1802 59.941 16.3018 60.1176 16.3572C60.2943 16.4125 60.4815 16.3951 60.6452 16.3081L63.0576 15.0237L60.5929 13.8435C60.4963 13.797 60.3899 13.774 60.2817 13.776C60.0971 13.78 59.9252 13.8564 59.7975 13.9912C59.6697 14.126 59.6016 14.303 59.6056 14.4895L59.6308 15.7045Z" fill="#222433"/>
<path d="M63.0426 10.553L64.2443 10.5275C64.7937 10.5177 65.2469 10.9599 65.2566 11.5152C65.2593 11.6698 65.2267 11.8229 65.1614 11.9626L63.7338 15.0082L62.181 12.0248C61.9262 11.5327 62.1143 10.925 62.6011 10.6674C62.7376 10.5952 62.8887 10.5561 63.0426 10.553Z" fill="white"/>
<path d="M63.7341 15.3154C63.6219 15.3154 63.5187 15.2526 63.4663 15.1519L61.9136 12.1685C61.5815 11.5271 61.8273 10.7329 62.4612 10.3976C62.6381 10.3039 62.8372 10.2523 63.0367 10.2484L64.2384 10.2229C64.9547 10.2103 65.547 10.7879 65.5597 11.5111C65.5632 11.7116 65.5202 11.9133 65.4356 12.0946L64.0076 15.1404C63.9585 15.2452 63.8551 15.3129 63.7405 15.3153C63.7384 15.3154 63.7362 15.3154 63.7341 15.3154ZM64.2625 10.8345C64.2584 10.8345 64.2542 10.8345 64.2501 10.8346L63.0494 10.8601C63.0493 10.8601 63.0492 10.8601 63.0491 10.8601C62.9426 10.8623 62.8365 10.8898 62.742 10.9398C62.4038 11.1187 62.2728 11.5423 62.4497 11.8842L63.7202 14.3252L64.8884 11.8329C64.9334 11.7365 64.9563 11.6289 64.9545 11.5219C64.9477 11.1403 64.6384 10.8345 64.2625 10.8345ZM63.043 10.5542H63.044H63.043Z" fill="#222433"/>
<path d="M176.229 109.361C176.169 109.344 176.117 109.307 176.081 109.255C176.045 109.204 176.028 109.142 176.032 109.078L176.32 104.204C176.322 104.167 176.331 104.132 176.347 104.099C176.363 104.066 176.385 104.036 176.412 104.011C176.439 103.987 176.47 103.968 176.504 103.956C176.538 103.944 176.574 103.938 176.61 103.94C176.683 103.944 176.751 103.977 176.799 104.032C176.848 104.087 176.872 104.159 176.868 104.233L176.58 109.107C176.577 109.149 176.566 109.189 176.546 109.226C176.526 109.263 176.498 109.295 176.464 109.319C176.43 109.343 176.392 109.36 176.351 109.367C176.311 109.374 176.269 109.372 176.229 109.361Z" fill="#222433"/>
<path d="M176.281 104.167C177.043 104.384 177.84 103.931 178.061 103.156C178.281 102.381 177.842 101.576 177.079 101.36C176.317 101.143 175.519 101.595 175.299 102.371C175.079 103.146 175.518 103.95 176.281 104.167Z" fill="white"/>
<path d="M176.205 104.435C175.879 104.342 175.589 104.154 175.371 103.893C175.153 103.633 175.016 103.311 174.978 102.971C174.941 102.63 175.004 102.284 175.16 101.978C175.315 101.672 175.557 101.418 175.853 101.25C176.15 101.081 176.488 101.005 176.826 101.032C177.163 101.058 177.484 101.185 177.749 101.397C178.013 101.609 178.209 101.897 178.312 102.223C178.414 102.549 178.419 102.9 178.325 103.231C178.198 103.674 177.904 104.049 177.506 104.275C177.109 104.501 176.641 104.558 176.205 104.435ZM177.003 101.627C176.782 101.564 176.547 101.57 176.328 101.642C176.109 101.715 175.915 101.851 175.772 102.035C175.628 102.218 175.541 102.44 175.521 102.673C175.502 102.905 175.551 103.138 175.662 103.341C175.773 103.544 175.941 103.709 176.145 103.815C176.35 103.92 176.581 103.961 176.809 103.934C177.038 103.906 177.254 103.81 177.429 103.658C177.605 103.506 177.733 103.305 177.797 103.081C177.882 102.779 177.847 102.457 177.698 102.185C177.549 101.912 177.299 101.712 177.003 101.627Z" fill="#222433"/>
<path d="M23.3983 102.086C24.4448 102.429 25.5713 101.857 25.9144 100.808C26.2575 99.76 25.6871 98.6326 24.6406 98.2901C23.594 97.9476 22.4675 98.5197 22.1244 99.568C21.7814 100.616 22.3517 101.744 23.3983 102.086Z" fill="white"/>
<path d="M23.3288 102.299C22.1672 101.919 21.532 100.663 21.9129 99.4991C22.2937 98.3354 23.5485 97.6979 24.7101 98.0781C25.8717 98.4582 26.5069 99.7142 26.1261 100.878C25.7453 102.042 24.4904 102.679 23.3288 102.299ZM24.5711 98.5029C23.643 98.1991 22.6403 98.7081 22.3362 99.6376C22.032 100.567 22.5397 101.57 23.4678 101.874C24.396 102.178 25.3986 101.669 25.7028 100.739C26.007 99.81 25.4993 98.8066 24.5711 98.5029Z" fill="#222433"/>
<path d="M20.9096 116.721C20.8052 116.687 20.7396 116.58 20.7604 116.468L23.8006 100.147C23.8232 100.026 23.9396 99.9459 24.0605 99.9683C24.1813 99.9904 24.2611 100.107 24.2385 100.229L21.1983 116.549C21.1757 116.671 21.0594 116.751 20.9384 116.729C20.9286 116.727 20.919 116.724 20.9096 116.721Z" fill="#222433"/>
<path d="M191.944 38.7734H173.655V55.9735H191.944V38.7734Z" fill="white"/>
<path d="M188.807 41.2656L181.39 49.2165L176.423 44.4974L174.441 46.6069L181.658 53.4625L191.043 43.3886L188.807 41.2656Z" fill="#82B1FF"/>
<path d="M19.4947 104.282C20.0565 104.162 20.414 103.605 20.2932 103.039C20.1724 102.473 19.6191 102.111 19.0573 102.23C18.4955 102.35 18.138 102.906 18.2588 103.473C18.3795 104.039 18.9329 104.401 19.4947 104.282Z" fill="white"/>
<path d="M19.5363 104.478C19.2967 104.529 19.0472 104.507 18.8193 104.415C18.5914 104.324 18.3954 104.166 18.2561 103.962C18.1168 103.759 18.0405 103.518 18.0367 103.271C18.0329 103.024 18.1019 102.782 18.2349 102.575C18.3679 102.368 18.559 102.206 18.784 102.108C19.0089 102.011 19.2577 101.983 19.4988 102.029C19.7399 102.074 19.9626 102.19 20.1385 102.363C20.3145 102.535 20.4359 102.756 20.4875 102.998C20.5562 103.322 20.4946 103.659 20.3163 103.937C20.138 104.214 19.8575 104.409 19.5363 104.478ZM19.0989 102.427C18.9362 102.461 18.7875 102.544 18.6716 102.664C18.5557 102.784 18.4779 102.936 18.4479 103.101C18.418 103.266 18.4372 103.436 18.5033 103.59C18.5694 103.744 18.6793 103.875 18.8191 103.967C18.9589 104.058 19.1224 104.106 19.2888 104.104C19.4553 104.102 19.6172 104.05 19.7542 103.955C19.8912 103.861 19.997 103.727 20.0583 103.571C20.1196 103.415 20.1337 103.245 20.0987 103.081C20.0516 102.861 19.9198 102.668 19.7324 102.546C19.5449 102.423 19.3171 102.38 19.0989 102.427Z" fill="#222433"/>
<path d="M16.6201 105.953C17.0638 105.858 17.3462 105.419 17.2508 104.971C17.1554 104.524 16.7183 104.238 16.2746 104.333C15.8309 104.427 15.5485 104.867 15.6439 105.314C15.7393 105.761 16.1764 106.047 16.6201 105.953Z" fill="white"/>
<path d="M16.6617 106.149C16.4644 106.191 16.2589 106.173 16.0712 106.098C15.8836 106.022 15.7222 105.892 15.6075 105.724C15.4927 105.557 15.4298 105.359 15.4267 105.155C15.4236 104.952 15.4804 104.752 15.5899 104.582C15.6995 104.411 15.8568 104.278 16.0421 104.198C16.2274 104.118 16.4323 104.095 16.6308 104.132C16.8294 104.169 17.0127 104.265 17.1577 104.407C17.3026 104.549 17.4026 104.731 17.445 104.93C17.5016 105.197 17.4509 105.475 17.304 105.703C17.1572 105.932 16.9262 106.092 16.6617 106.149ZM16.3163 104.529C16.1958 104.554 16.0857 104.616 16 104.704C15.9142 104.793 15.8566 104.906 15.8344 105.028C15.8122 105.15 15.8265 105.276 15.8754 105.39C15.9243 105.504 16.0056 105.601 16.1091 105.669C16.2126 105.737 16.3336 105.772 16.4568 105.77C16.58 105.769 16.6999 105.731 16.8013 105.66C16.9026 105.59 16.981 105.491 17.0264 105.376C17.0717 105.261 17.0821 105.134 17.0562 105.013C17.0213 104.85 16.9238 104.708 16.7851 104.617C16.6464 104.526 16.4778 104.495 16.3163 104.529Z" fill="#222433"/>
<path d="M18.9458 109.077C18.9157 109.083 18.8845 109.082 18.8546 109.074C18.8248 109.067 18.7972 109.052 18.7739 109.032C18.7506 109.011 18.7323 108.986 18.7204 108.957C18.7085 108.928 18.7034 108.897 18.7055 108.867L19.0775 103.242C19.079 103.215 19.0857 103.189 19.0972 103.166C19.1086 103.142 19.1247 103.121 19.1444 103.103C19.1641 103.086 19.187 103.072 19.2118 103.064C19.2367 103.056 19.263 103.052 19.2892 103.054C19.3154 103.056 19.341 103.063 19.3645 103.075C19.388 103.087 19.4089 103.103 19.4261 103.123C19.4433 103.143 19.4565 103.166 19.4647 103.191C19.473 103.217 19.4762 103.243 19.4742 103.269L19.1022 108.894C19.0994 108.938 19.0826 108.979 19.0543 109.012C19.0261 109.045 18.988 109.067 18.9458 109.077Z" fill="#222433"/>
<path d="M18.9457 109.077C18.9066 109.085 18.866 109.081 18.829 109.066C18.792 109.051 18.7604 109.025 18.7383 108.991L16.2816 105.253C16.2524 105.209 16.2418 105.155 16.2522 105.103C16.2626 105.051 16.2931 105.005 16.337 104.976C16.3809 104.946 16.4346 104.936 16.4864 104.947C16.5381 104.957 16.5835 104.988 16.6128 105.032L19.0695 108.77C19.0874 108.797 19.0985 108.829 19.1018 108.861C19.105 108.894 19.1003 108.926 19.0881 108.957C19.0759 108.987 19.0566 109.014 19.0318 109.034C19.007 109.055 18.9774 109.07 18.9457 109.077L18.9457 109.077Z" fill="#222433"/>
<path d="M143.079 55H144.381C144.976 54.9999 145.458 55.4821 145.459 56.077C145.459 56.2446 145.42 56.4098 145.345 56.5595L143.729 59.7912L142.114 56.5595C141.848 56.0276 142.063 55.3804 142.595 55.114C142.745 55.0388 142.911 54.9998 143.079 55Z" fill="#82B1FF"/>
<path d="M148.521 59.1406V60.4431C148.521 61.0381 148.04 61.521 147.445 61.5217C147.277 61.5219 147.111 61.4829 146.961 61.4077L143.729 59.7924L146.961 58.176C147.494 57.9103 148.141 58.1269 148.407 58.6599C148.482 58.8092 148.521 58.9737 148.521 59.1406Z" fill="#82B1FF"/>
<path d="M151.369 27.4842H148.73C148.724 27.0601 148.72 26.8067 148.72 26.7121C148.72 25.7644 148.861 24.985 149.143 24.374C149.427 23.7591 149.995 23.0732 150.842 22.3045C151.69 21.5392 152.198 21.0392 152.36 20.801C152.614 20.4376 152.748 20.0051 152.746 19.5627C152.746 18.9359 152.52 18.3981 152.069 17.9493C151.617 17.5016 151.01 17.2786 150.243 17.2786C149.506 17.2786 148.887 17.5123 148.389 17.9797C147.894 18.446 147.552 19.1572 147.364 20.1134L144.698 19.7451C144.773 18.3733 145.298 17.2099 146.274 16.2549C147.251 15.2987 148.53 14.8223 150.121 14.8223C151.788 14.8223 153.117 15.3066 154.105 16.2751C155.09 17.2415 155.583 18.3683 155.584 19.6556C155.584 20.3651 155.401 21.0392 155.04 21.6727C154.677 22.3062 153.902 23.1706 152.717 24.2659C152.101 24.8335 151.722 25.288 151.573 25.6343C151.421 25.9789 151.353 26.5939 151.369 27.4842Z" fill="#0D6EFD"/>
<path d="M151.366 28.3066H148.759V30.7157H151.366V28.3066Z" fill="#0D6EFD"/>
</svg>
