<svg xmlns="http://www.w3.org/2000/svg" width="17" height="12" viewBox="0 0 17 12">
    <g fill="none" fill-rule="evenodd" stroke="#009DAB" stroke-linecap="round" stroke-linejoin="round">
        <g stroke-width="1.5">
            <path d="M1.625 11l3.75-9.816M9.375 11l-3.75-9.816M7 7H3.5"/>
        </g>
        <path stroke-width="1.35" d="M11.265 6.117c.286-.31.597-.544.934-.704.337-.16.714-.246 1.13-.26.3-.011.568.031.804.126.236.096.437.233.602.412.166.179.293.398.384.657.09.259.14.545.151.859l.126 3.587"/>
        <path stroke-width="1.215" d="M14.615 8.031c-1.829-.425-3.205.5-3.257 1.492-.052.992.68 1.494 1.581 1.312.602-.122 1.27-.49 2.003-1.103"/>
    </g>
</svg>
