<?xml version="1.0" encoding="UTF-8"?>
<svg width="14px" height="16px" viewBox="0 0 14 16" version="1.1" xmlns="http://www.w3.org/2000/svg" xmlns:xlink="http://www.w3.org/1999/xlink">
    <!-- Generator: Sketch 48.2 (47327) - http://www.bohemiancoding.com/sketch -->
    <title>Group 51</title>
    <desc>Created with Sketch.</desc>
    <defs></defs>
    <g id="//-1-task-icons-copy" stroke="none" stroke-width="1" fill="none" fill-rule="evenodd" transform="translate(-709.000000, -824.000000)" stroke-linecap="round" stroke-linejoin="round">
        <g id="Group-51" transform="translate(710.000000, 825.000000)" stroke="#FF001F" stroke-width="1.5">
            <polyline id="Shape" points="0 2.66666667 1.33333333 2.66666667 12 2.66666667"></polyline>
            <path d="M10.6666667,2.66666667 L10.6666667,12 C10.6666667,12.7363797 10.069713,13.3333333 9.33333333,13.3333333 L2.66666667,13.3333333 C1.930287,13.3333333 1.33333333,12.7363797 1.33333333,12 L1.33333333,2.66666667 M3.33333333,2.66666667 L3.33333333,1.33333333 C3.33333333,0.596953667 3.930287,0 4.66666667,0 L7.33333333,0 C8.069713,0 8.66666667,0.596953667 8.66666667,1.33333333 L8.66666667,2.66666667" id="Shape"></path>
            <path d="M4.66666667,6 L4.66666667,10" id="Shape"></path>
            <path d="M7.33333333,6 L7.33333333,10" id="Shape"></path>
        </g>
    </g>
</svg>