<svg width="16" height="16" viewBox="0 0 16 16" fill="none" xmlns="http://www.w3.org/2000/svg">
<path fill-rule="evenodd" clip-rule="evenodd" d="M1.5 2.85714C1.5 2.10761 2.10761 1.5 2.85714 1.5C3.4301 1.5 3.92013 1.85505 4.11921 2.35714H5.42857C7.12487 2.35714 8.5 3.73227 8.5 5.42857V10.5714C8.5 11.7154 9.42741 12.6429 10.5714 12.6429H11.8808C12.0799 12.1408 12.5699 11.7857 13.1429 11.7857C13.8924 11.7857 14.5 12.3933 14.5 13.1429C14.5 13.8924 13.8924 14.5 13.1429 14.5C12.5699 14.5 12.0799 14.1449 11.8808 13.6429H10.5714C8.87513 13.6429 7.5 12.2677 7.5 10.5714V5.42857C7.5 4.28455 6.57259 3.35714 5.42857 3.35714H4.11921C3.92013 3.85923 3.4301 4.21429 2.85714 4.21429C2.10761 4.21429 1.5 3.60667 1.5 2.85714ZM2.85714 2.5C2.6599 2.5 2.5 2.6599 2.5 2.85714C2.5 3.05439 2.6599 3.21429 2.85714 3.21429C3.05439 3.21429 3.21429 3.05439 3.21429 2.85714C3.21429 2.6599 3.05439 2.5 2.85714 2.5ZM13.1429 12.7857C12.9456 12.7857 12.7857 12.9456 12.7857 13.1429C12.7857 13.3401 12.9456 13.5 13.1429 13.5C13.3401 13.5 13.5 13.3401 13.5 13.1429C13.5 12.9456 13.3401 12.7857 13.1429 12.7857Z" fill="#439BA9"/>
</svg>
