<?xml version="1.0" encoding="UTF-8"?>
<svg width="12px" height="12px" viewBox="0 0 12 12" version="1.1" xmlns="http://www.w3.org/2000/svg" xmlns:xlink="http://www.w3.org/1999/xlink">
    <!-- Generator: Sketch 53.2 (72643) - https://sketchapp.com -->
    <title>connections-green</title>
    <desc>Created with Sketch.</desc>
    <g id="Page-1" stroke="none" stroke-width="1" fill="none" fill-rule="evenodd">
        <g id="connections-green" transform="translate(-2.000000, -2.000000)" fill-rule="nonzero">
            <polygon id="Path" fill-opacity="0" fill="#D8D8D8" points="0 0 16 0 16 16 0 16"></polygon>
            <path d="M10.963,2.492 C11.163,2.692 11.174,3.011 10.996,3.224 L10.963,3.261 L8.64,5.584 L8.58,5.634 L10.522,7.574 C10.527,7.566 10.532,7.559 10.539,7.552 L10.572,7.516 L12.895,5.193 C13.107,4.981 13.451,4.981 13.663,5.193 C13.863,5.393 13.875,5.711 13.697,5.924 L13.663,5.961 L11.34,8.284 L11.282,8.331 L12.681,9.728 C12.825,9.872 12.875,10.083 12.816,10.273 L12.777,10.366 C12.539,10.816 12.234,11.231 11.867,11.599 C9.957,13.507 6.918,13.596 4.904,11.865 L3.261,13.508 C3.048,13.72 2.705,13.72 2.492,13.508 C2.292,13.308 2.281,12.989 2.459,12.776 L2.492,12.739 L4.159,11.074 C2.629,9.064 2.782,6.184 4.617,4.349 C4.982,3.984 5.395,3.68 5.843,3.443 C6.053,3.331 6.313,3.37 6.481,3.538 L7.819,4.876 L7.839,4.852 L7.872,4.815 L10.195,2.492 C10.407,2.28 10.751,2.28 10.963,2.492 L10.963,2.492 Z M6.012,4.605 L5.967,4.635 C5.802,4.748 5.644,4.874 5.495,5.012 L5.385,5.118 C3.808,6.695 3.808,9.253 5.385,10.83 C6.963,12.408 9.521,12.408 11.098,10.83 C11.28,10.65 11.442,10.454 11.583,10.246 L11.614,10.198 L6.012,4.605 Z" id="Shape" fill="#009DAB"></path>
        </g>
    </g>
</svg>