<?xml version="1.0" encoding="UTF-8"?>
<svg width="197px" height="218px" viewBox="0 0 197 218" version="1.1" xmlns="http://www.w3.org/2000/svg" xmlns:xlink="http://www.w3.org/1999/xlink">
    <!-- Generator: Sketch 49.1 (51147) - http://www.bohemiancoding.com/sketch -->
    <title>dotes</title>
    <desc>Created with Sketch.</desc>
    <defs>
        <polygon id="path-1" points="0 0.0695910137 213.84377 0.0695910137 213.84377 213.992367 0 213.992367"></polygon>
    </defs>
    <g id="dotes" stroke="none" stroke-width="1" fill="none" fill-rule="evenodd">
        <g id="Page-1-Copy-5" transform="translate(2.000000, 2.000000)">
            <g id="Group-3">
                <mask id="mask-2" fill="white">
                    <use xlink:href="#path-1"></use>
                </mask>
                <g id="Clip-2"></g>
                <path d="M106.061188,0.948003584 C106.061188,0.460866488 106.452493,0.0694170361 106.948146,0.0694170361 C107.435103,0.0694170361 107.826408,0.460866488 107.826408,0.948003584 C107.826408,1.43514068 107.426407,1.83528901 106.93945,1.83528901 C106.452493,1.83528901 106.061188,1.43514068 106.061188,0.948003584 L106.061188,0.948003584 Z M106.93945,1.83528901 L106.93945,1.83528901 L106.948146,1.83528901 L106.93945,1.83528901 Z M99.6611793,1.19157213 C99.6350923,0.704435036 100.00031,0.295587831 100.487267,0.260792324 C100.974225,0.234695694 101.391616,0.600048515 101.417703,1.08718561 C101.452486,1.57432271 101.078573,1.99186879 100.591615,2.0266643 L100.539441,2.0266643 C100.078571,2.0266643 99.6872663,1.66131147 99.6611793,1.19157213 L99.6611793,1.19157213 Z M113.295981,2.0266643 C112.809023,1.99186879 112.43511,1.57432271 112.469892,1.08718561 C112.495979,0.608747392 112.913371,0.234695694 113.400328,0.260792324 C113.887286,0.295587831 114.252504,0.713133912 114.226417,1.20027101 C114.20033,1.66131147 113.809025,2.0266643 113.348155,2.0266643 L113.295981,2.0266643 Z M93.2872576,1.82659013 C93.2263879,1.33945304 93.5742145,0.9045092 94.0611717,0.843617063 C94.5394332,0.782724926 94.9829121,1.13067999 95.0350861,1.60911821 C95.0959557,2.09625531 94.7568248,2.53119914 94.2698676,2.59209128 C94.235085,2.60079016 94.2003023,2.60079016 94.1655197,2.60079016 C93.7220408,2.60079016 93.3394316,2.27023284 93.2872576,1.82659013 L93.2872576,1.82659013 Z M119.617728,2.60079016 C119.139467,2.53989802 118.79164,2.10495419 118.85251,1.61781709 C118.904684,1.13067999 119.348163,0.791423803 119.826424,0.85231594 C120.313381,0.9045092 120.661208,1.34815191 120.600338,1.82659013 C120.548164,2.27893172 120.165555,2.60948903 119.730772,2.60948903 C119.687294,2.60948903 119.652511,2.60079016 119.617728,2.60079016 L119.617728,2.60079016 Z M86.9655098,2.83565983 C86.8785532,2.35722161 87.1915971,1.89618114 87.6698586,1.80919238 C88.1481202,1.72220361 88.6089903,2.03536317 88.695947,2.52250027 C88.7829036,2.99223961 88.4698597,3.45328008 87.9915982,3.54026884 C87.9394242,3.5576666 87.8872502,3.5576666 87.8263806,3.5576666 C87.4089887,3.5576666 87.0437708,3.26190479 86.9655098,2.83565983 L86.9655098,2.83565983 Z M125.895998,3.54896772 C125.417736,3.46197895 125.104692,3.00963736 125.191649,2.53119914 C125.278606,2.04406205 125.739476,1.73090249 126.217737,1.81789125 C126.695999,1.90488002 127.009043,2.36592049 126.922086,2.84435871 C126.843825,3.27060366 126.478607,3.56636547 126.061215,3.56636547 C126.009041,3.56636547 125.948172,3.56636547 125.895998,3.54896772 L125.895998,3.54896772 Z M80.7133274,4.2274801 C80.6002838,3.74904188 80.8872407,3.27930254 81.3568065,3.15751827 C81.8350681,3.04443287 82.3133296,3.3314958 82.4263732,3.80123514 C82.5394169,4.27967336 82.2524599,4.75811158 81.7828941,4.87119698 C81.7133288,4.88859473 81.6350678,4.89729361 81.5655025,4.89729361 C81.1741976,4.89729361 80.8089797,4.62762843 80.7133274,4.2274801 L80.7133274,4.2274801 Z M132.113397,4.87989586 L132.113397,4.88859473 C131.635136,4.76681046 131.348179,4.28837224 131.461223,3.8186329 C131.582962,3.34019468 132.061223,3.05313175 132.530789,3.17491602 C133.000355,3.28800142 133.287312,3.76643964 133.174268,4.23617898 C133.078616,4.63632731 132.722094,4.90599249 132.322093,4.90599249 C132.252528,4.90599249 132.182963,4.89729361 132.113397,4.87989586 L132.113397,4.87989586 Z M74.5567973,5.99335207 C74.408971,5.52361273 74.6698409,5.03647564 75.1394068,4.88859473 C75.600277,4.74071383 76.0959298,5.00168013 76.2437561,5.47141947 C76.3828867,5.93245994 76.1220168,6.42829591 75.6611466,6.57617681 C75.57419,6.60227344 75.4872333,6.61097232 75.4002767,6.61097232 C75.0263631,6.61097232 74.6785366,6.36740377 74.5567973,5.99335207 L74.5567973,5.99335207 Z M138.226449,6.58487569 C137.765579,6.44569366 137.504709,5.94985769 137.652535,5.48881722 C137.791666,5.01907788 138.287319,4.75811158 138.756885,4.90599249 C139.217755,5.05387339 139.478625,5.54101048 139.330799,6.01074983 C139.217755,6.38480153 138.869928,6.62837007 138.487319,6.62837007 C138.400363,6.62837007 138.313406,6.6196712 138.226449,6.58487569 L138.226449,6.58487569 Z M68.5220064,8.12457687 C68.3480932,7.67223528 68.5828761,7.16770043 69.0350506,6.99372289 C69.4872252,6.81974536 70.0002693,7.04591616 70.1741826,7.50695662 C70.3394002,7.95929821 70.113313,8.47253194 69.6611384,8.63781059 C69.5567905,8.68130498 69.4524425,8.69870273 69.3480945,8.69870273 C68.9915723,8.69870273 68.6524414,8.48123081 68.5220064,8.12457687 L68.5220064,8.12457687 Z M144.235153,8.66390722 C143.782979,8.48992969 143.548196,7.97669596 143.722109,7.52435437 C143.896022,7.07201279 144.409066,6.83714311 144.861241,7.01112065 C145.313415,7.18509818 145.548198,7.68963303 145.374285,8.1506735 C145.235154,8.49862857 144.904719,8.71610048 144.548197,8.71610048 C144.443849,8.71610048 144.339501,8.69870273 144.235153,8.66390722 L144.235153,8.66390722 Z M62.6263462,10.6298534 C62.426346,10.1862106 62.6263462,9.66427804 63.0698251,9.46420388 C63.513304,9.26412972 64.0350438,9.46420388 64.2350441,9.90784659 C64.4350444,10.3427904 64.2350441,10.8734219 63.7915652,11.0734961 C63.6785216,11.1256893 63.5480866,11.1430871 63.435043,11.1430871 C63.0959121,11.1430871 62.7741725,10.9517118 62.6263462,10.6298534 L62.6263462,10.6298534 Z M150.104726,11.0908938 C149.661247,10.8908197 149.461247,10.3688871 149.661247,9.92524435 C149.861248,9.48160163 150.382988,9.29022635 150.826466,9.49030051 L150.826466,9.48160163 C151.269945,9.69037467 151.469946,10.2123073 151.269945,10.65595 C151.122119,10.9778084 150.800379,11.1691837 150.461249,11.1691837 C150.348205,11.1691837 150.21777,11.1430871 150.104726,11.0908938 L150.104726,11.0908938 Z M56.8959036,13.4830849 C56.6698164,13.0481411 56.835034,12.5175096 57.2611215,12.2913388 L57.2698172,12.2913388 C57.6959047,12.065168 58.2263402,12.2304467 58.4524275,12.6566916 C58.6785148,13.0916355 58.5132972,13.6222669 58.0872096,13.8484377 C57.9567747,13.9180288 57.817644,13.9528243 57.6785134,13.9528243 C57.3567738,13.9528243 57.0524256,13.7788467 56.8959036,13.4830849 L56.8959036,13.4830849 Z M155.817778,13.8832332 C155.382994,13.6570625 155.217777,13.1177321 155.443864,12.6914871 C155.669951,12.2565433 156.200387,12.0912646 156.63517,12.3174354 C157.061258,12.5436062 157.235171,13.0742377 157.000388,13.5091815 C156.843866,13.8136422 156.539518,13.9789209 156.226474,13.9789209 C156.087343,13.9789209 155.948213,13.9528243 155.817778,13.8832332 L155.817778,13.8832332 Z M51.34807,16.6755727 C51.0958957,16.2580266 51.2263307,15.7186962 51.6437226,15.4664288 C52.0611144,15.2141614 52.6002456,15.3446445 52.8524199,15.7621906 C53.1045941,16.1797367 52.9741592,16.7190671 52.5567673,16.9713345 C52.4176367,17.0583232 52.2611147,17.1018176 52.1045928,17.1018176 C51.8002445,17.1018176 51.5132876,16.9452378 51.34807,16.6755727 L51.34807,16.6755727 Z M161.34822,17.00613 C160.930828,16.7538626 160.791697,16.2145322 161.052567,15.7969861 C161.304742,15.37944 161.843873,15.2489569 162.261265,15.5012243 C162.678657,15.7534917 162.809091,16.2928221 162.556917,16.7103682 C162.3917,16.9887322 162.096047,17.1366131 161.800394,17.1366131 C161.643873,17.1366131 161.487351,17.0931188 161.34822,17.00613 L161.34822,17.00613 Z M46.0002366,20.1986177 C45.730671,19.7984694 45.8263233,19.2504402 46.2263239,18.9720761 C46.6263244,18.6937121 47.1741513,18.7980986 47.4524125,19.1982469 C47.7306738,19.5983952 47.6263258,20.1464245 47.2263252,20.4247885 C47.078499,20.5291751 46.9045857,20.5813683 46.7306724,20.5813683 C46.4524111,20.5813683 46.1741499,20.4508852 46.0002366,20.1986177 L46.0002366,20.1986177 Z M166.678662,20.4682829 C166.269966,20.1899189 166.174313,19.6418896 166.452575,19.2417413 C166.730836,18.841593 167.278663,18.7459053 167.678663,19.0242694 C168.078664,19.2939346 168.174316,19.8419638 167.904751,20.2421121 C167.730837,20.4943795 167.452576,20.6248627 167.174315,20.6248627 C167.000402,20.6248627 166.826488,20.5726694 166.678662,20.4682829 L166.678662,20.4682829 Z M40.8871862,24.0435212 C40.5828379,23.6607707 40.6524032,23.1040426 41.0350125,22.8082807 C41.4176217,22.5038201 41.9741442,22.5734111 42.2697967,22.9561617 C42.574145,23.3389122 42.5045797,23.8956403 42.1219705,24.1914021 C41.9567528,24.3218853 41.7654482,24.3827774 41.5741436,24.3827774 C41.3132737,24.3827774 41.0610994,24.269692 40.8871862,24.0435212 L40.8871862,24.0435212 Z M171.783017,24.2435954 C171.400408,23.9478336 171.339538,23.3911055 171.63519,23.0083549 C171.939539,22.6256043 172.496061,22.5560133 172.87867,22.860474 C173.26128,23.1649347 173.322149,23.7129639 173.026497,24.0957145 C172.852583,24.3218853 172.591714,24.4349707 172.330844,24.4349707 C172.139539,24.4349707 171.948234,24.3740786 171.783017,24.2435954 L171.783017,24.2435954 Z M36.000223,28.1928854 C35.6784834,27.8275326 35.7132661,27.2708045 36.078484,26.9489461 C36.4350062,26.6270876 36.9915287,26.6531843 37.3219639,27.0185371 C37.6437035,27.3838899 37.6089208,27.940618 37.2437029,28.2624764 C37.0784853,28.4190562 36.8697894,28.4886472 36.6610935,28.4886472 C36.4176149,28.4886472 36.1741363,28.3842607 36.000223,28.1928854 L36.000223,28.1928854 Z M176.661284,28.3233686 C176.296066,28.0015101 176.261284,27.444782 176.591719,27.0794292 C176.913459,26.7140764 177.469981,26.6792809 177.835199,27.0098382 C178.200417,27.3316966 178.226504,27.8884247 177.904764,28.2537776 C177.730851,28.4451529 177.487372,28.5495394 177.243894,28.5495394 C177.035198,28.5495394 176.826502,28.4712495 176.661284,28.3233686 L176.661284,28.3233686 Z M31.3741297,32.6206137 C31.0263032,32.2726586 31.0263032,31.7159305 31.3741297,31.3766743 C31.7219563,31.0287192 32.2784788,31.0287192 32.6176097,31.3766743 C32.9654362,31.7159305 32.9654362,32.2726586 32.6176097,32.6206137 C32.4523921,32.7945912 32.2263048,32.88158 32.0002175,32.88158 C31.7741303,32.88158 31.548043,32.7945912 31.3741297,32.6206137 L31.3741297,32.6206137 Z M181.287378,32.6815058 C180.939551,32.3422496 180.939551,31.7768226 181.287378,31.4375664 C181.626508,31.0896114 182.183031,31.0896114 182.530858,31.4375664 C182.878684,31.7768226 182.869988,32.3422496 182.530858,32.6815058 C182.356944,32.8554833 182.130857,32.9424721 181.90477,32.9424721 C181.678682,32.9424721 181.452595,32.8554833 181.287378,32.6815058 L181.287378,32.6815058 Z M27.017602,37.3180071 C26.6523842,36.9961487 26.6176015,36.4394205 26.9480367,36.0740677 C27.2697763,35.7087149 27.8262988,35.6739194 28.1915167,35.9957778 C28.5480389,36.3263352 28.5828216,36.8830633 28.261082,37.2397172 C28.0871687,37.4397914 27.8436901,37.535479 27.6002115,37.535479 C27.3915156,37.535479 27.1828197,37.465888 27.017602,37.3180071 L27.017602,37.3180071 Z M185.643905,37.3093082 C185.31347,36.9439554 185.348253,36.3872273 185.713471,36.0653688 C186.078688,35.7435104 186.635211,35.7783059 186.95695,36.1349599 L186.95695,36.1436587 C187.27869,36.5003127 187.243907,37.0570408 186.887385,37.3875981 C186.713472,37.535479 186.504776,37.60507 186.29608,37.60507 C186.052601,37.60507 185.817819,37.5006835 185.643905,37.3093082 L185.643905,37.3093082 Z M22.9480313,42.2676679 C22.5654221,41.9632073 22.4958568,41.415178 22.800205,41.0324274 C23.0958576,40.6496769 23.6523801,40.5800859 24.0349893,40.8845465 C24.4175985,41.1803084 24.4871638,41.7370365 24.1828156,42.119787 C24.0089023,42.3459578 23.7480324,42.4590432 23.4871624,42.4590432 C23.2958578,42.4590432 23.1045532,42.3981511 22.9480313,42.2676679 L22.9480313,42.2676679 Z M189.713476,42.1893781 C189.409128,41.7979286 189.478693,41.2498994 189.861302,40.9454387 C190.243911,40.6496769 190.791738,40.710569 191.096087,41.0933196 C191.400435,41.4760702 191.330869,42.0327983 190.94826,42.337259 C190.783043,42.4590432 190.591738,42.5199354 190.400433,42.5199354 C190.139564,42.5199354 189.887389,42.40685 189.713476,42.1893781 L189.713476,42.1893781 Z M19.1828088,47.4521985 C18.7828082,47.1738344 18.6784602,46.6258052 18.9567215,46.2256568 C19.2349827,45.8255085 19.7828096,45.7298209 20.1828101,46.0081849 C20.5828107,46.286549 20.678463,46.8345782 20.4088974,47.2347265 C20.2349841,47.4782951 19.9567229,47.6087782 19.6784616,47.6087782 C19.5045483,47.6087782 19.330635,47.556585 19.1828088,47.4521985 L19.1828088,47.4521985 Z M193.478699,47.2956187 C193.200437,46.8954703 193.304785,46.3474411 193.704786,46.0690771 C194.104786,45.790713 194.652613,45.8864007 194.930874,46.2952479 C195.209136,46.6953962 195.104788,47.2434254 194.704787,47.5217895 C194.548265,47.626176 194.374352,47.6783693 194.200439,47.6783693 C193.922177,47.6783693 193.652612,47.5391872 193.478699,47.2956187 L193.478699,47.2956187 Z M15.7393258,52.8628998 C15.3219339,52.6106323 15.1828033,52.0626031 15.4436732,51.6537559 C15.6958475,51.2362098 16.2349787,51.0970278 16.6523705,51.3492952 C17.0697624,51.6015626 17.2001974,52.1495919 16.9480231,52.567138 C16.7828055,52.8368031 16.4871529,52.984684 16.1915003,52.984684 C16.0349784,52.984684 15.8784564,52.9498885 15.7393258,52.8628998 L15.7393258,52.8628998 Z M196.930877,52.6193312 C196.678703,52.210484 196.817833,51.6624548 197.22653,51.4101874 C197.643922,51.1579199 198.191748,51.297102 198.443923,51.714648 L198.443923,51.7059492 C198.696097,52.1234953 198.556966,52.6715245 198.139574,52.9237919 C198.000444,53.0107807 197.843922,53.0455762 197.6874,53.0455762 C197.391747,53.0455762 197.096095,52.8976953 196.930877,52.6193312 L196.930877,52.6193312 Z M12.6262781,58.4649764 C12.1914949,58.2388056 12.0262773,57.7081741 12.2610602,57.2732303 C12.4871475,56.8469853 13.017583,56.6817066 13.4436705,56.9078774 C13.8784537,57.1340482 14.0436713,57.6646797 13.8175841,58.0996235 C13.6610621,58.3953854 13.3567139,58.5693629 13.0349743,58.5693629 C12.8958437,58.5693629 12.756713,58.5345674 12.6262781,58.4649764 L12.6262781,58.4649764 Z M200.052621,58.1518168 C199.826533,57.716873 199.991751,57.1862415 200.426534,56.9600707 C200.852622,56.7338999 201.391753,56.8991786 201.61784,57.3341224 C201.843927,57.7603674 201.67871,58.2909988 201.243926,58.5258685 C201.113492,58.5867606 200.974361,58.6215562 200.83523,58.6215562 C200.522186,58.6215562 200.209142,58.4562775 200.052621,58.1518168 L200.052621,58.1518168 Z M9.86105692,64.2497294 C9.41757805,64.0496552 9.22627345,63.5277226 9.42627372,63.0840799 C9.62627399,62.6404372 10.1480138,62.440363 10.5914927,62.6404372 C11.0349716,62.8405114 11.2262762,63.362444 11.0262759,63.8060867 C10.8784496,64.136644 10.5654057,64.3280193 10.2262748,64.3280193 C10.1045355,64.3280193 9.98279622,64.3019226 9.86105692,64.2497294 L9.86105692,64.2497294 Z M202.835233,63.8582799 C202.635233,63.4146372 202.835233,62.8927046 203.278712,62.6926304 C203.722191,62.4925563 204.243931,62.6926304 204.443931,63.1362732 C204.643931,63.5799159 204.443931,64.1018485 204.000452,64.3019226 C203.887408,64.3541159 203.765669,64.3802125 203.64393,64.3802125 C203.304799,64.3802125 202.983059,64.1888372 202.835233,63.8582799 L202.835233,63.8582799 Z M7.46105365,70.1910622 C7.00018345,70.0170846 6.77409619,69.5038509 6.94800947,69.0515093 C7.12192275,68.5991677 7.62627126,68.3642981 8.08714146,68.5382756 C8.53931599,68.7122531 8.76540325,69.2254869 8.60018564,69.6778284 C8.46105501,70.0257835 8.13061978,70.2432554 7.77409755,70.2432554 C7.66974958,70.2432554 7.56540162,70.2258577 7.46105365,70.1910622 L7.46105365,70.1910622 Z M205.261323,69.7300217 C205.096106,69.2689812 205.322193,68.7644464 205.774367,68.5904689 C206.235238,68.4164913 206.739586,68.651361 206.913499,69.1037026 C207.087413,69.5560442 206.85263,70.0692779 206.400455,70.2432554 C206.296107,70.2780509 206.191759,70.2954487 206.087411,70.2954487 C205.730889,70.2954487 205.400454,70.0779768 205.261323,69.7300217 L205.261323,69.7300217 Z M5.4175726,76.2628781 C4.95670241,76.1149972 4.69583249,75.6278601 4.84365878,75.1581208 C4.9827894,74.6970803 5.47844225,74.436114 5.94800811,74.5839949 C6.4088783,74.7231769 6.66974822,75.2190129 6.52192193,75.6887523 C6.40018264,76.0628039 6.06105174,76.3063725 5.67844252,76.3063725 C5.59148588,76.3063725 5.50452924,76.2889747 5.4175726,76.2628781 L5.4175726,76.2628781 Z M207.330891,75.7322466 C207.191761,75.2712062 207.452631,74.7753702 207.913501,74.6274893 C208.383067,74.4883073 208.870024,74.7405747 209.01785,75.210314 C209.165676,75.6713545 208.904806,76.1671905 208.435241,76.3150714 C208.348284,76.341168 208.261327,76.3498669 208.174371,76.3498669 C207.800457,76.3498669 207.452631,76.1149972 207.330891,75.7322466 L207.330891,75.7322466 Z M3.74800511,82.4477795 C3.27843925,82.3346941 2.99148234,81.8562558 3.10452597,81.3865165 C3.22626527,80.9080783 3.69583112,80.6210153 4.17409265,80.7341007 C4.6436585,80.855885 4.93061542,81.3343232 4.81757178,81.8040626 C4.72191948,82.2042109 4.35670159,82.4738761 3.96539671,82.4738761 C3.8958314,82.4738761 3.81757042,82.4651772 3.74800511,82.4477795 L3.74800511,82.4477795 Z M209.035241,81.8562558 C208.922198,81.3778176 209.209155,80.8993794 209.678721,80.786294 C210.156982,80.6732086 210.635244,80.9602715 210.748287,81.4300109 C210.861331,81.9084491 210.574374,82.3781884 210.104808,82.4999727 C210.035243,82.5173705 209.956982,82.5260693 209.887417,82.5260693 C209.496112,82.5260693 209.130894,82.2564042 209.035241,81.8562558 L209.035241,81.8562558 Z M2.46104683,88.7283684 C1.98278531,88.6413797 1.66104574,88.1803392 1.74800238,87.701901 C1.83495902,87.2234628 2.29582922,86.9016043 2.77409074,86.997292 C3.25235226,87.0842807 3.57409183,87.5366223 3.48713519,88.0150605 C3.40887421,88.4413055 3.03496066,88.7457662 2.61756879,88.7457662 C2.5653948,88.7457662 2.51322082,88.7370673 2.46104683,88.7283684 L2.46104683,88.7283684 Z M210.365678,88.0672538 C210.278721,87.5888156 210.591765,87.1277751 211.078723,87.0407864 C211.556984,86.9537976 212.009159,87.2669571 212.096115,87.7453954 C212.191767,88.2238336 211.870028,88.6848741 211.391766,88.7718628 C211.339592,88.7805617 211.287418,88.7892606 211.235244,88.7892606 C210.817853,88.7892606 210.443939,88.4934988 210.365678,88.0672538 L210.365678,88.0672538 Z M1.54800211,95.0698496 C1.06104492,95.0089574 0.721914028,94.5740136 0.782783676,94.0868765 C0.83495766,93.6084383 1.27843653,93.2604832 1.75669805,93.3213753 C2.24365523,93.3822675 2.59148179,93.8172113 2.53061215,94.3043484 C2.47843816,94.7479911 2.09582894,95.0785484 1.65235008,95.0785484 C1.61756742,95.0785484 1.58278477,95.0785484 1.54800211,95.0698496 L1.54800211,95.0698496 Z M211.313505,94.3478428 C211.261331,93.8607057 211.600462,93.4257619 212.08742,93.3648697 C212.574377,93.3039776 213.00916,93.6519327 213.07003,94.1390697 L213.07003,94.1303709 C213.130899,94.617508 212.783073,95.0524518 212.296115,95.1133439 C212.261333,95.1220428 212.22655,95.1220428 212.191767,95.1220428 C211.748289,95.1220428 211.374375,94.7914855 211.313505,94.3478428 L211.313505,94.3478428 Z M1.0175666,101.454825 C0.530609419,101.428728 0.16539153,101.011182 0.191478522,100.524045 C0.226261178,100.036908 0.643653051,99.6628565 1.13061024,99.697652 C1.61756742,99.7237486 1.98278531,100.141295 1.95669832,100.628432 C1.92191566,101.098171 1.53930645,101.454825 1.06974059,101.454825 L1.0175666,101.454825 Z M211.887419,100.671926 C211.861332,100.184789 212.22655,99.767243 212.713507,99.7411463 C213.200465,99.7150497 213.617856,100.080403 213.652639,100.56754 C213.678726,101.054677 213.313508,101.472223 212.826551,101.498319 C212.80916,101.507018 212.791768,101.507018 212.774377,101.507018 C212.304811,101.507018 211.922202,101.141665 211.887419,100.671926 L211.887419,100.671926 Z M0.00017391328,106.978612 C0.00017391328,106.491475 0.391478794,106.100025 0.87843598,106.100025 C1.36539317,106.100025 1.75669805,106.491475 1.75669805,106.978612 C1.75669805,107.465749 1.36539317,107.865897 0.87843598,107.865897 C0.391478794,107.857198 0.00017391328,107.465749 0.00017391328,106.978612 L0.00017391328,106.978612 Z M212.078724,107.022106 C212.078724,106.534969 212.478724,106.14352 212.965682,106.14352 C213.452639,106.14352 213.843944,106.534969 213.843944,107.022106 C213.843944,107.509243 213.452639,107.909392 212.965682,107.909392 C212.478724,107.909392 212.078724,107.509243 212.078724,107.022106 L212.078724,107.022106 Z M0.191478522,113.441877 C0.156695866,112.95474 0.530609419,112.537194 1.0175666,112.502398 C1.50452379,112.476302 1.92191566,112.841655 1.94800266,113.328792 C1.97408965,113.815929 1.60887176,114.233475 1.12191457,114.26827 L1.06974059,114.26827 C0.608870395,114.26827 0.217565514,113.902918 0.191478522,113.441877 L0.191478522,113.441877 Z M212.722203,114.311765 C212.235246,114.276969 211.861332,113.868122 211.896115,113.380985 C211.922202,112.893848 212.339594,112.519796 212.826551,112.545893 C213.313508,112.580688 213.678726,112.998234 213.652639,113.485372 C213.617856,113.955111 213.235247,114.311765 212.774377,114.311765 L212.722203,114.311765 Z M0.765392348,119.870347 C0.704522699,119.38321 1.05234926,118.948266 1.53930645,118.887374 C2.01756797,118.835181 2.46104683,119.174437 2.51322082,119.661574 C2.57409047,120.140012 2.2262639,120.583655 1.74800238,120.644547 L1.64365441,120.644547 C1.20017555,120.644547 0.817566332,120.31399 0.765392348,119.870347 L0.765392348,119.870347 Z M212.08742,120.688041 C211.609158,120.627149 211.261331,120.192205 211.322201,119.705068 C211.374375,119.217931 211.817854,118.878675 212.296115,118.939567 C212.783073,118.99176 213.130899,119.435403 213.07003,119.92254 C213.017856,120.366183 212.635246,120.69674 212.200463,120.69674 C212.165681,120.69674 212.122202,120.688041 212.08742,120.688041 L212.08742,120.688041 Z M1.73061105,126.255323 L1.73061105,126.255323 C1.64365441,125.776884 1.96539398,125.324543 2.4436555,125.228855 C2.92191703,125.141866 3.37409156,125.463725 3.46974386,125.942163 C3.54800484,126.420601 3.23496093,126.881642 2.75669941,126.96863 C2.70452543,126.977329 2.65235144,126.986028 2.60017746,126.986028 C2.18278558,126.986028 1.80887203,126.681568 1.73061105,126.255323 L1.73061105,126.255323 Z M211.078723,127.012125 C210.600461,126.925136 210.278721,126.464096 210.365678,125.985657 C210.452635,125.507219 210.913505,125.19406 211.391766,125.281048 C211.870028,125.368037 212.191767,125.829078 212.104811,126.307516 C212.02655,126.733761 211.652636,127.029523 211.235244,127.029523 C211.18307,127.029523 211.130896,127.020824 211.078723,127.012125 L211.078723,127.012125 Z M3.07843898,132.570707 C2.96539535,132.100968 3.25235226,131.622529 3.72191812,131.509444 C4.20017964,131.396359 4.67844116,131.683422 4.79148479,132.153161 C4.90452842,132.6229 4.61757151,133.101339 4.14800565,133.223123 C4.07844034,133.240521 4.00017937,133.249219 3.93930972,133.249219 C3.53930917,133.249219 3.17409128,132.979554 3.07843898,132.570707 L3.07843898,132.570707 Z M209.687416,133.266617 C209.209155,133.153532 208.922198,132.675094 209.035241,132.205354 C209.156981,131.726916 209.635242,131.439853 210.104808,131.561637 C210.58307,131.674723 210.870027,132.153161 210.748287,132.6229 C210.652635,133.023049 210.287417,133.292714 209.896112,133.292714 C209.826547,133.292714 209.756982,133.284015 209.687416,133.266617 L209.687416,133.266617 Z M4.80887612,138.799103 C4.66104983,138.329363 4.92191975,137.842226 5.38278995,137.694345 C5.8523558,137.555163 6.34800865,137.807431 6.48713928,138.27717 C6.63496557,138.738211 6.37409564,139.234047 5.91322545,139.381927 C5.82626881,139.408024 5.73061651,139.416723 5.65235553,139.416723 C5.26974631,139.416723 4.92191975,139.173154 4.80887612,138.799103 L4.80887612,138.799103 Z M207.913501,139.425422 C207.452631,139.28624 207.191761,138.790404 207.339587,138.320665 L207.339587,138.329363 C207.478718,137.859624 207.97437,137.598658 208.443936,137.746539 C208.904806,137.885721 209.165676,138.381557 209.01785,138.851296 C208.904806,139.225348 208.55698,139.468916 208.174371,139.468916 C208.087414,139.468916 208.000457,139.460217 207.913501,139.425422 L207.913501,139.425422 Z M6.90453115,144.905714 C6.73931353,144.453373 6.9654008,143.940139 7.41757533,143.766161 C7.87844552,143.600883 8.38279404,143.827053 8.55670732,144.279395 C8.7306206,144.740436 8.49583767,145.24497 8.04366314,145.418948 C7.93931517,145.453743 7.8349672,145.47984 7.73061923,145.47984 C7.37409701,145.47984 7.04366178,145.262368 6.90453115,144.905714 L6.90453115,144.905714 Z M205.783063,145.471141 C205.322193,145.297164 205.096106,144.792629 205.270019,144.331588 C205.435237,143.879247 205.948281,143.644377 206.400455,143.818355 C206.861325,143.992332 207.087413,144.505566 206.913499,144.957907 C206.783064,145.314561 206.443934,145.532033 206.087411,145.532033 C205.983063,145.532033 205.878715,145.505937 205.783063,145.471141 L205.783063,145.471141 Z M9.37409973,150.873144 C9.17409946,150.429501 9.37409973,149.907568 9.8175786,149.707494 C10.2610575,149.50742 10.7827973,149.707494 10.9827976,150.151137 C11.1827979,150.59478 10.9827976,151.116712 10.5393187,151.316786 C10.4262751,151.36898 10.2958401,151.395076 10.1741008,151.395076 C9.84366559,151.395076 9.52192602,151.203701 9.37409973,150.873144 L9.37409973,150.873144 Z M203.278712,151.36898 C202.835233,151.168905 202.635233,150.646973 202.835233,150.20333 C203.035233,149.759687 203.556973,149.559613 204.000452,149.759687 C204.443931,149.959762 204.643931,150.481694 204.443931,150.925337 C204.296105,151.255894 203.974365,151.447269 203.635234,151.447269 C203.513495,151.447269 203.391756,151.421173 203.278712,151.36898 L203.278712,151.36898 Z M12.2001905,156.683993 L12.2001905,156.683993 C11.9741033,156.249049 12.1393209,155.718418 12.5741041,155.492247 C13.0001916,155.266076 13.5306271,155.431355 13.7567144,155.8576 C13.9828017,156.292544 13.8175841,156.823175 13.3914965,157.049346 C13.2610616,157.118937 13.1219309,157.153733 12.9828003,157.153733 C12.6610607,157.153733 12.3567125,156.979755 12.2001905,156.683993 L12.2001905,156.683993 Z M200.417838,157.110238 C199.991751,156.884067 199.826533,156.344737 200.052621,155.918492 C200.278708,155.483548 200.809143,155.31827 201.243926,155.54444 C201.670014,155.77931 201.835232,156.309942 201.609144,156.736187 C201.452622,157.040647 201.148274,157.205926 200.83523,157.205926 C200.6961,157.205926 200.548273,157.179829 200.417838,157.110238 L200.417838,157.110238 Z M15.3741079,162.303468 C15.1219337,161.885922 15.2523686,161.346591 15.6697605,161.094324 C16.0871524,160.842056 16.6262835,160.972539 16.8784578,161.390086 C17.130632,161.807632 17.0001971,162.346962 16.5828052,162.599229 C16.4436746,162.686218 16.278457,162.729713 16.121935,162.729713 C15.8262824,162.729713 15.5393255,162.581832 15.3741079,162.303468 L15.3741079,162.303468 Z M197.22653,162.660122 C196.809138,162.407854 196.670007,161.868524 196.930877,161.450978 C197.183051,161.033432 197.722183,160.902948 198.139574,161.155216 C198.556966,161.407483 198.687401,161.946814 198.435227,162.36436 C198.270009,162.642724 197.974357,162.790605 197.678704,162.790605 C197.522182,162.790605 197.36566,162.74711 197.22653,162.660122 L197.22653,162.660122 Z M18.8784605,167.722868 L18.8784605,167.722868 C18.6001993,167.322719 18.7045472,166.77469 19.1045478,166.496326 C19.5045483,166.217962 20.0523752,166.322349 20.3306364,166.722497 C20.6088977,167.122645 20.5045497,167.670675 20.1045491,167.949039 C19.9567229,168.053425 19.7828096,168.105618 19.6088963,168.105618 C19.3219394,168.105618 19.0523738,167.975135 18.8784605,167.722868 L18.8784605,167.722868 Z M193.69609,168.009931 C193.29609,167.731567 193.191742,167.183537 193.470003,166.783389 C193.748264,166.383241 194.296091,166.287553 194.696091,166.557218 C195.096092,166.835582 195.191744,167.39231 194.922179,167.792459 L194.922179,167.78376 C194.748265,168.036027 194.470004,168.166511 194.191743,168.166511 C194.01783,168.166511 193.843916,168.114317 193.69609,168.009931 L193.69609,168.009931 Z M22.7045527,172.924796 C22.4089001,172.542046 22.4697698,171.985317 22.8610746,171.680857 C23.2436839,171.385095 23.7915107,171.445987 24.0958589,171.837436 C24.3915115,172.220187 24.3306419,172.768216 23.9480326,173.072677 C23.782815,173.194461 23.5915104,173.255353 23.4002058,173.255353 C23.1393359,173.255353 22.878466,173.142268 22.7045527,172.924796 L22.7045527,172.924796 Z M189.843911,173.142268 C189.461302,172.837807 189.391736,172.281079 189.696085,171.898329 C189.991737,171.515578 190.54826,171.445987 190.930869,171.750448 C191.313478,172.054908 191.383043,172.602938 191.078695,172.985688 C190.904782,173.211859 190.652608,173.324944 190.391738,173.324944 C190.200433,173.324944 190.009129,173.264052 189.843911,173.142268 L189.843911,173.142268 Z M26.8436888,177.883156 C26.5219492,177.517803 26.5567319,176.961075 26.9219497,176.639216 C27.2871676,176.317358 27.8436901,176.352154 28.1654297,176.717506 C28.4871693,177.07416 28.4523866,177.639587 28.0871687,177.961446 C27.9219511,178.109327 27.7132552,178.178918 27.5045592,178.178918 C27.2610806,178.178918 27.017602,178.074531 26.8436888,177.883156 L26.8436888,177.883156 Z M185.696079,178.022338 C185.330861,177.700479 185.296079,177.143751 185.617818,176.778398 C185.948253,176.413046 186.504776,176.37825 186.861298,176.700109 C187.226516,177.030666 187.261299,177.587394 186.939559,177.944048 C186.765646,178.144122 186.522167,178.248509 186.278689,178.248509 C186.069993,178.248509 185.861297,178.170219 185.696079,178.022338 L185.696079,178.022338 Z M31.2697818,182.589248 C30.9219552,182.241293 30.9219552,181.684565 31.2697818,181.33661 C31.6176083,180.997354 32.1741308,180.997354 32.5132617,181.33661 C32.8610883,181.684565 32.8610883,182.241293 32.5132617,182.589248 C32.3480441,182.754527 32.1219568,182.841516 31.8958696,182.841516 C31.6697823,182.841516 31.443695,182.754527 31.2697818,182.589248 L31.2697818,182.589248 Z M181.18303,182.72843 C180.835203,182.389174 180.835203,181.823747 181.18303,181.484491 C181.191725,181.475792 181.209117,181.458394 181.226508,181.449695 C181.235204,181.432298 181.252595,181.4149 181.261291,181.406201 C181.609117,181.058246 182.16564,181.058246 182.513466,181.406201 C182.852597,181.745457 182.852597,182.302185 182.513466,182.65014 C182.496075,182.667538 182.478684,182.676237 182.469988,182.693635 C182.452597,182.702333 182.443901,182.719731 182.42651,182.737129 C182.252596,182.902408 182.026509,182.989396 181.800422,182.989396 C181.574334,182.989396 181.348247,182.902408 181.18303,182.72843 L181.18303,182.72843 Z M35.9654403,187.016976 C35.6002224,186.695118 35.5654398,186.13839 35.895875,185.773037 C36.2176146,185.407684 36.7741371,185.381588 37.139355,185.703446 C37.4958772,186.025304 37.5306599,186.582033 37.2089203,186.947385 C37.035007,187.147459 36.7915284,187.243147 36.5480498,187.243147 C36.3393539,187.243147 36.1306579,187.173556 35.9654403,187.016976 L35.9654403,187.016976 Z M176.478675,187.086567 C176.156936,186.721215 176.191718,186.155788 176.556936,185.833929 C176.922154,185.512071 177.478677,185.546866 177.800416,185.912219 C178.122156,186.277572 178.087373,186.8343 177.722155,187.156158 C177.556938,187.304039 177.348242,187.382329 177.139546,187.382329 C176.896067,187.382329 176.652589,187.277943 176.478675,187.086567 L176.478675,187.086567 Z M40.9219688,191.166341 C40.5393596,190.870579 40.4697943,190.313851 40.7741425,189.9311 C41.0697951,189.548349 41.6263176,189.478758 42.0089268,189.783219 C42.391536,190.08768 42.4611014,190.635709 42.1567531,191.01846 C41.9828398,191.24463 41.7219699,191.357716 41.4611,191.357716 C41.2697954,191.357716 41.0784908,191.296824 40.9219688,191.166341 L40.9219688,191.166341 Z M171.522147,191.140244 C171.226494,190.757493 171.29606,190.209464 171.678669,189.905003 C172.061278,189.609242 172.609105,189.670134 172.913453,190.052884 C173.209106,190.435635 173.148236,190.992363 172.765627,191.296824 C172.600409,191.418608 172.409105,191.4795 172.2178,191.4795 C171.95693,191.4795 171.69606,191.366415 171.522147,191.140244 L171.522147,191.140244 Z M46.1132802,195.011244 L46.1132802,195.011244 C45.7132797,194.73288 45.6176274,194.184851 45.8958886,193.784702 C46.1741499,193.384554 46.7219767,193.288866 47.1219773,193.558532 C47.5219778,193.836896 47.6176301,194.393624 47.3393689,194.785073 C47.1654556,195.037341 46.89589,195.167824 46.6176288,195.167824 C46.4437155,195.167824 46.2698022,195.115631 46.1132802,195.011244 L46.1132802,195.011244 Z M166.339531,194.898159 C166.06127,194.49801 166.165618,193.949981 166.565618,193.671617 C166.965619,193.393253 167.513446,193.497639 167.791707,193.897788 C168.069968,194.297936 167.96562,194.845965 167.56562,195.124329 C167.409098,195.228716 167.235184,195.280909 167.069967,195.280909 C166.78301,195.280909 166.513444,195.150426 166.339531,194.898159 L166.339531,194.898159 Z M51.5306789,198.534289 L51.5306789,198.534289 C51.1132871,198.282022 50.9828521,197.733992 51.2350264,197.325145 C51.4872006,196.907599 52.0350275,196.768417 52.4524193,197.020685 C52.8611155,197.281651 53.0002462,197.820981 52.7393762,198.238527 C52.5741586,198.508192 52.2872017,198.656073 51.9915491,198.656073 C51.8350272,198.656073 51.6785052,198.621278 51.5306789,198.534289 L51.5306789,198.534289 Z M160.939524,198.334215 C160.687349,197.916669 160.817784,197.377339 161.235176,197.125071 C161.652568,196.872804 162.191699,197.003287 162.443874,197.420833 C162.696048,197.838379 162.565613,198.377709 162.148221,198.629977 C162.000395,198.716966 161.843873,198.76046 161.696046,198.76046 C161.391698,198.76046 161.104741,198.60388 160.939524,198.334215 L160.939524,198.334215 Z M57.1567736,201.718078 L57.1567736,201.718078 C56.7219904,201.491907 56.5567727,200.961276 56.78286,200.526332 C57.0089473,200.091388 57.5480784,199.926109 57.974166,200.160979 C58.4089492,200.38715 58.5741668,200.917781 58.3480795,201.344026 C58.1828619,201.648487 57.8785137,201.822465 57.5654698,201.822465 C57.4263391,201.822465 57.2872085,201.787669 57.1567736,201.718078 L57.1567736,201.718078 Z M155.33082,201.431015 C155.113429,200.996071 155.269951,200.46544 155.704734,200.239269 C156.139517,200.013098 156.669953,200.178377 156.89604,200.613321 C157.122127,201.039566 156.95691,201.578896 156.522126,201.805067 C156.391691,201.874658 156.252561,201.900754 156.11343,201.900754 C155.800386,201.900754 155.496038,201.726777 155.33082,201.431015 L155.33082,201.431015 Z M62.9567815,204.553912 C62.5133026,204.353838 62.321998,203.831905 62.5219983,203.388262 C62.7219985,202.94462 63.2437384,202.744545 63.6872172,202.94462 C64.1306961,203.144694 64.3220007,203.666626 64.1220004,204.110269 C63.9741742,204.440826 63.6611303,204.632202 63.3219994,204.632202 C63.2002601,204.632202 63.0785208,204.606105 62.9567815,204.553912 L62.9567815,204.553912 Z M149.5569,204.17986 C149.356899,203.736217 149.5569,203.214285 150.000378,203.014211 C150.443857,202.822835 150.965597,203.014211 151.165597,203.457853 C151.365598,203.901496 151.165597,204.423429 150.722118,204.623503 C150.600379,204.675696 150.47864,204.701793 150.356901,204.701793 C150.026465,204.701793 149.704726,204.510417 149.5569,204.17986 L149.5569,204.17986 Z M68.922007,207.033092 C68.4698325,206.859114 68.2437452,206.34588 68.4176585,205.893539 C68.5915718,205.441197 69.0959203,205.215026 69.5567905,205.380305 C70.008965,205.554283 70.2350523,206.067516 70.061139,206.519858 C69.930704,206.876512 69.5915731,207.085285 69.2350509,207.085285 C69.1307029,207.085285 69.026355,207.067887 68.922007,207.033092 L68.922007,207.033092 Z M143.617761,206.58075 C143.443848,206.128408 143.669935,205.615175 144.130805,205.441197 C144.58298,205.275919 145.096024,205.502089 145.261241,205.954431 C145.435155,206.415471 145.209067,206.920006 144.756893,207.093114 C144.652545,207.128779 144.548197,207.154876 144.443849,207.154876 C144.087327,207.154876 143.748196,206.937404 143.617761,206.58075 L143.617761,206.58075 Z M75.0350588,209.13822 C74.5654929,208.999038 74.304623,208.503202 74.4524493,208.033462 C74.6002756,207.572422 75.0872328,207.310586 75.5567986,207.459337 C76.0176688,207.598519 76.2785388,208.094355 76.1394081,208.564094 C76.0176688,208.938146 75.6698423,209.181714 75.2959287,209.181714 C75.2089721,209.181714 75.1220154,209.173015 75.0350588,209.13822 L75.0350588,209.13822 Z M137.548187,208.607588 C137.400361,208.145678 137.661231,207.650712 138.122101,207.51153 C138.591667,207.363649 139.08732,207.624615 139.226451,208.085656 C139.374277,208.555395 139.113407,209.050361 138.643841,209.190413 C138.556885,209.21651 138.469928,209.233038 138.382971,209.233038 C138.009058,209.233038 137.661231,208.990339 137.548187,208.607588 L137.548187,208.607588 Z M81.2524586,210.877995 C80.7828927,210.76491 80.4959358,210.286472 80.6089794,209.808033 C80.7220231,209.338294 81.2002846,209.050361 81.6785461,209.164316 C82.148112,209.286101 82.4350689,209.75584 82.3220253,210.234278 C82.2176773,210.634427 81.8611551,210.904092 81.4698502,210.904092 C81.3915892,210.904092 81.3220239,210.895393 81.2524586,210.877995 L81.2524586,210.877995 Z M131.356875,210.269074 C131.243831,209.799334 131.530788,209.320896 132.00905,209.207811 C132.478615,209.086027 132.956877,209.381788 133.069921,209.851528 C133.19166,210.320397 132.896007,210.799705 132.426441,210.92149 C132.356876,210.938887 132.287311,210.947586 132.217745,210.947586 C131.817745,210.947586 131.461223,210.677921 131.356875,210.269074 L131.356875,210.269074 Z M87.5655107,212.23502 C87.0872491,212.148031 86.7742052,211.686991 86.8611619,211.208552 C86.9481185,210.730114 87.4089887,210.416955 87.8872502,210.503943 C88.3655118,210.590932 88.6785557,211.051973 88.591599,211.530411 C88.513338,211.947957 88.1481202,212.252418 87.7307283,212.252418 C87.6785543,212.252418 87.6176846,212.243719 87.5655107,212.23502 L87.5655107,212.23502 Z M125.087301,211.556508 C125.000344,211.078069 125.313388,210.617029 125.79165,210.53004 C126.269911,210.443051 126.730781,210.755341 126.817738,211.243348 C126.904695,211.721786 126.591651,212.174128 126.113389,212.269815 C126.061215,212.277644 126.000346,212.277644 125.948172,212.277644 C125.53078,212.277644 125.165562,211.982752 125.087301,211.556508 L125.087301,211.556508 Z M93.9568237,213.209294 C93.4698665,213.147532 93.12204,212.712588 93.1829096,212.226321 C93.2437793,211.739184 93.6785625,211.399928 94.1655197,211.46082 C94.6524768,211.513013 94.9916077,211.956656 94.9394338,212.443793 C94.8785641,212.887436 94.4959549,213.217993 94.0611717,213.217993 C94.026389,213.217993 93.9916064,213.217993 93.9568237,213.209294 L93.9568237,213.209294 Z M118.748162,212.461191 C118.687292,211.974054 119.026423,211.53911 119.51338,211.478218 C120.000337,211.417326 120.435121,211.765281 120.49599,212.243719 C120.548164,212.730856 120.209033,213.174499 119.722076,213.226692 C119.687294,213.235391 119.652511,213.235391 119.617728,213.235391 C119.182945,213.235391 118.800336,212.904833 118.748162,212.461191 L118.748162,212.461191 Z M100.382919,213.792119 C99.8959623,213.766022 99.5307444,213.348476 99.5568314,212.861339 C99.591614,212.374202 100.009006,212.008849 100.487267,212.034946 C100.974225,212.060172 101.348138,212.487287 101.322051,212.964856 C101.287268,213.435465 100.904659,213.799948 100.435093,213.799948 C100.417702,213.799948 100.400311,213.799948 100.382919,213.792119 L100.382919,213.792119 Z M112.365544,212.974424 C112.330762,212.487287 112.704675,212.069741 113.191633,212.043645 C113.67859,212.017548 114.087286,212.382901 114.122069,212.870038 C114.148156,213.357175 113.782938,213.774721 113.295981,213.809517 L113.243807,213.809517 C112.782936,213.809517 112.391631,213.444164 112.365544,212.974424 L112.365544,212.974424 Z M106.835102,213.992193 C106.348145,213.992193 105.95684,213.600744 105.95684,213.113606 C105.95684,212.626469 106.356841,212.23502 106.843798,212.23502 C107.330755,212.23502 107.72206,212.626469 107.72206,213.113606 C107.72206,213.600744 107.322059,213.992193 106.835102,213.992193 L106.835102,213.992193 Z" id="Fill-1" fill="#5BC7DB" mask="url(#mask-2)"></path>
            </g>
            <path d="M103.209414,75.9732477 C103.165842,75.4840588 103.523136,75.0560185 104.002433,75.0036054 C104.490445,74.9599278 104.917456,75.318084 104.969743,75.8072729 C105.013315,76.2964618 104.656021,76.7245022 104.168009,76.7681797 C104.141865,76.7769153 104.115722,76.7769153 104.080864,76.7769153 C103.636425,76.7769153 103.252987,76.4274946 103.209414,75.9732477 L103.209414,75.9732477 Z M110.381446,76.8293284 C109.893434,76.7769153 109.544854,76.3401394 109.605856,75.8509505 C109.658143,75.3617616 110.093868,75.0123409 110.581879,75.0734895 C111.061177,75.1259026 111.409757,75.5626784 111.35747,76.0518674 C111.305183,76.4973787 110.921745,76.8380639 110.477305,76.8380639 C110.451162,76.8380639 110.416304,76.8293284 110.381446,76.8293284 L110.381446,76.8293284 Z M96.9698336,77.3971369 C96.8304016,76.925419 97.0918365,76.4362301 97.5537049,76.2877263 C98.0242878,76.1479581 98.5122997,76.4100236 98.6604462,76.8730059 C98.7998782,77.3447238 98.5384432,77.8339128 98.0765748,77.9824165 C97.9894298,78.0086231 97.9022849,78.0173586 97.8151399,78.0173586 C97.4404165,78.0173586 97.0918365,77.7727641 96.9698336,77.3971369 L96.9698336,77.3971369 Z M116.446737,78.1571269 C115.984868,77.9998876 115.732148,77.5019631 115.889009,77.0389808 C116.037155,76.5759984 116.542596,76.3226684 117.004465,76.4711722 C117.466333,76.6284115 117.719053,77.1263359 117.562192,77.5893183 C117.440189,77.9649455 117.091609,78.2008045 116.725601,78.2008045 C116.629741,78.2008045 116.542596,78.1833334 116.446737,78.1571269 L116.446737,78.1571269 Z M91.1572634,80.070205 C90.9219719,79.6421647 91.0788329,79.1092982 91.5058433,78.8734392 C91.9328537,78.6288448 92.4731526,78.7860841 92.708444,79.2141244 C92.9437355,79.6421647 92.7868745,80.1837667 92.3598641,80.4196257 C92.2291466,80.4895098 92.0810002,80.5331874 91.9328537,80.5331874 C91.6278463,80.5331874 91.3228389,80.3672126 91.1572634,80.070205 L91.1572634,80.070205 Z M122.119875,80.6991622 C121.692864,80.4545677 121.553432,79.9129657 121.797438,79.4936609 C122.041444,79.0656206 122.581743,78.9258523 123.000039,79.1704468 C123.42705,79.4150413 123.566482,79.9566433 123.322476,80.3759481 C123.1569,80.6642201 122.860607,80.8214594 122.5556,80.8214594 C122.407453,80.8214594 122.259307,80.7777819 122.119875,80.6991622 L122.119875,80.6991622 Z M86.0244241,83.8876258 C85.7019876,83.5207341 85.7455601,82.961661 86.111569,82.6384469 C86.477578,82.3239683 87.0353058,82.3589104 87.3577423,82.7345376 C87.6801787,83.1014293 87.6366062,83.6605023 87.2618828,83.9837164 C87.0963073,84.1234847 86.8958739,84.1933688 86.6867259,84.1933688 C86.44272,84.1933688 86.198714,84.0885426 86.0244241,83.8876258 L86.0244241,83.8876258 Z M127.139426,84.3593437 C126.782131,84.027394 126.747273,83.468321 127.078424,83.1101648 C127.400861,82.7432731 127.958589,82.7170665 128.324597,83.0402807 C128.681892,83.3634948 128.71675,83.9225678 128.394313,84.2894595 C128.220023,84.4816409 127.976018,84.5864671 127.732012,84.5864671 C127.522864,84.5864671 127.313716,84.5078474 127.139426,84.3593437 L127.139426,84.3593437 Z M81.75432,88.6659533 C81.3708821,88.3689458 81.3011661,87.8098727 81.5974591,87.42551 C81.893752,87.0411473 82.4514799,86.9625276 82.8349178,87.2595352 C83.2183557,87.5565427 83.2967862,88.1156158 82.9917787,88.4999785 L83.0004932,88.4999785 C82.8262033,88.727102 82.5560538,88.8493992 82.2946189,88.8493992 C82.1028999,88.8493992 81.9198955,88.7882506 81.75432,88.6659533 L81.75432,88.6659533 Z M131.331099,88.9629609 L131.331099,88.9629609 C131.043521,88.5698627 131.121951,88.0107896 131.514104,87.7225176 C131.906256,87.4342455 132.455269,87.5128652 132.751562,87.9059634 C133.039141,88.2990616 132.96071,88.8581347 132.568558,89.1464068 C132.402983,89.2599685 132.219978,89.3211171 132.036974,89.3211171 C131.766824,89.3211171 131.505389,89.1988199 131.331099,88.9629609 L131.331099,88.9629609 Z M78.5560993,94.2130064 C78.1116599,94.003354 77.9286554,93.4704875 78.1465178,93.0337116 C78.3556658,92.5969358 78.8872502,92.4047545 79.3229751,92.6231424 C79.7587,92.8327948 79.9504189,93.3656613 79.7325565,93.8024371 C79.58441,94.1169157 79.2619736,94.3003616 78.9395372,94.3003616 C78.8088197,94.3003616 78.6781022,94.274155 78.5560993,94.2130064 L78.5560993,94.2130064 Z M134.494462,94.3178326 C134.285314,93.8723212 134.485748,93.3481902 134.921472,93.1472734 C135.365912,92.9463565 135.888782,93.1385378 136.09793,93.5840492 C136.298363,94.0295605 136.106644,94.5536915 135.662205,94.7546084 C135.540202,94.8070215 135.418199,94.8332281 135.296196,94.8332281 C134.95633,94.8332281 134.642609,94.6410467 134.494462,94.3178326 L134.494462,94.3178326 Z M76.5604792,100.301661 C76.0898963,100.1881 75.7936034,99.7076463 75.9156064,99.2359284 C76.0288948,98.755475 76.5081922,98.467203 76.9874896,98.5895002 C77.4580725,98.7030619 77.7456509,99.1835153 77.6323625,99.6552332 C77.5277885,100.065803 77.1704941,100.327868 76.7696272,100.327868 C76.6999112,100.327868 76.6301952,100.319132 76.5604792,100.301661 L76.5604792,100.301661 Z M136.481368,100.214306 C136.376794,99.7425884 136.673087,99.2708705 137.152384,99.1573088 C137.622967,99.0524826 138.102264,99.3494901 138.206838,99.8299436 C138.311412,100.301661 138.015119,100.773379 137.544536,100.886941 C137.47482,100.895677 137.413819,100.904412 137.344103,100.904412 C136.943236,100.904412 136.577227,100.624876 136.481368,100.214306 L136.481368,100.214306 Z M75.8458904,106.678589 C75.3578785,106.652382 74.9831551,106.241813 75.0005841,105.761359 C75.0180131,105.27217 75.4275945,104.887808 75.9156064,104.905279 C76.4036182,104.92275 76.7783417,105.333319 76.7609127,105.822508 C76.7434837,106.302961 76.3513313,106.678589 75.8807484,106.678589 L75.8458904,106.678589 Z M137.230814,106.399052 C137.2221,105.909863 137.614252,105.508029 138.102264,105.499294 C138.590276,105.490558 138.991143,105.874921 138.999858,106.36411 C139.008572,106.853299 138.61642,107.255133 138.137122,107.263868 C138.128408,107.272604 138.119693,107.272604 138.119693,107.272604 C137.631681,107.272604 137.239529,106.879505 137.230814,106.399052 L137.230814,106.399052 Z M75.4275945,112.330468 C75.3404495,111.850014 75.6716004,111.395768 76.1508978,111.317148 C76.6301952,111.229793 77.0833491,111.553007 77.1704941,112.042196 L77.1704941,112.03346 C77.2489246,112.522649 76.9264881,112.976896 76.4471907,113.055516 C76.3949037,113.064251 76.3426168,113.072987 76.2990443,113.072987 C75.8720339,113.072987 75.4973105,112.767244 75.4275945,112.330468 L75.4275945,112.330468 Z M137.413819,113.640795 C136.934521,113.544705 136.6208,113.081722 136.707945,112.601269 L136.716659,112.601269 C136.803804,112.120815 137.265672,111.806337 137.74497,111.902428 C138.224267,111.989783 138.537989,112.452765 138.450844,112.933218 C138.372414,113.361259 137.99769,113.658266 137.579394,113.658266 C137.527107,113.658266 137.466106,113.649531 137.413819,113.640795 L137.413819,113.640795 Z M77.1879231,118.681188 C77.0049186,118.226942 77.2314956,117.711546 77.6846495,117.536836 C78.1378034,117.35339 78.6519587,117.580513 78.8262487,118.03476 C79.0092532,118.489007 78.7826762,119.004403 78.3295223,119.187848 C78.2249483,119.22279 78.1116599,119.248997 78.0070859,119.248997 C77.6497915,119.248997 77.3186405,119.030609 77.1879231,118.681188 L77.1879231,118.681188 Z M135.418199,119.72945 C134.965045,119.537269 134.747182,119.021874 134.938901,118.567627 C135.121906,118.122115 135.644776,117.903727 136.089215,118.095909 C136.542369,118.279355 136.751517,118.79475 136.568513,119.248997 C136.429081,119.589682 136.09793,119.799335 135.758064,119.799335 C135.644776,119.799335 135.522773,119.773128 135.418199,119.72945 L135.418199,119.72945 Z M80.2031394,124.54272 C79.9417044,124.132151 80.0549929,123.581813 80.4645743,123.311012 C80.8654412,123.040211 81.4144546,123.162508 81.684604,123.564342 C81.9547535,123.974911 81.841465,124.525249 81.4318836,124.79605 C81.2837371,124.892141 81.1094472,124.935818 80.9438717,124.935818 C80.6562933,124.935818 80.3774293,124.79605 80.2031394,124.54272 L80.2031394,124.54272 Z M132.211264,125.276503 C131.810397,124.996967 131.705823,124.446629 131.975972,124.044796 C132.254836,123.634226 132.803849,123.538136 133.204716,123.808937 C133.605583,124.088473 133.710157,124.638811 133.440008,125.040644 C133.265718,125.293974 132.986854,125.425007 132.70799,125.425007 C132.5337,125.425007 132.35941,125.38133 132.211264,125.276503 L132.211264,125.276503 Z M84.3599549,129.644262 C84.011375,129.303577 84.011375,128.735768 84.3599549,128.395083 C84.6998204,128.045662 85.2662627,128.045662 85.6061282,128.395083 C85.9547081,128.735768 85.9547081,129.303577 85.6061282,129.644262 C85.4318382,129.818972 85.2052612,129.906327 84.9786843,129.906327 C84.7608218,129.906327 84.5342449,129.818972 84.3599549,129.644262 L84.3599549,129.644262 Z M127.94116,130.046095 C127.601294,129.696675 127.610009,129.137602 127.967303,128.796917 C128.315883,128.456231 128.873611,128.464967 129.213476,128.823123 C129.553342,129.172544 129.544627,129.731617 129.187333,130.072302 C129.021757,130.238277 128.79518,130.316896 128.577318,130.316896 C128.350741,130.316896 128.115449,130.229541 127.94116,130.046095 L127.94116,130.046095 Z M87.0265913,132.037793 C86.6431534,131.73205 86.5821519,131.181713 86.8871594,130.79735 C87.1921668,130.412987 87.7498947,130.351839 88.1246181,130.657582 C88.508056,130.963325 88.5690575,131.522398 88.26405,131.906761 C88.0897601,132.125148 87.8370396,132.23871 87.5756047,132.23871 C87.3838857,132.23871 87.1921668,132.168826 87.0265913,132.037793 L87.0265913,132.037793 Z M122.799606,133.863516 C122.538171,133.444211 122.660174,132.902609 123.07847,132.640544 C123.488051,132.378478 124.037064,132.500776 124.298499,132.92008 C124.55122,133.33065 124.429217,133.880987 124.019635,134.134317 C123.871489,134.230408 123.705913,134.274086 123.549053,134.274086 C123.25276,134.274086 122.965181,134.125582 122.799606,133.863516 L122.799606,133.863516 Z M92.5515831,135.61062 C92.1158582,135.383496 91.9415682,134.85063 92.1594307,134.413854 C92.3860076,133.985813 92.917592,133.802368 93.3533169,134.029491 C93.7890418,134.247879 93.9633318,134.780745 93.7367548,135.217521 C93.5798938,135.523264 93.2748864,135.70671 92.95245,135.70671 C92.813018,135.70671 92.6823005,135.671768 92.5515831,135.61062 L92.5515831,135.61062 Z M116.987036,136.527849 C116.812746,136.073602 117.048037,135.566942 117.509905,135.392232 C117.963059,135.226257 118.4685,135.45338 118.64279,135.916363 C118.808366,136.37061 118.581789,136.886005 118.11992,137.05198 C118.024061,137.095657 117.919487,137.113128 117.814913,137.113128 C117.457618,137.113128 117.117753,136.886005 116.987036,136.527849 L116.987036,136.527849 Z M98.6953042,137.960474 L98.6953042,137.960474 C98.2247213,137.829441 97.9458573,137.348987 98.0678603,136.877269 C98.1985778,136.405552 98.6778752,136.126015 99.1484581,136.248312 C99.619041,136.37061 99.8979049,136.859798 99.7759019,137.331516 C99.671328,137.724615 99.3140335,137.98668 98.9218811,137.98668 C98.8521651,137.98668 98.7737347,137.977945 98.6953042,137.960474 L98.6953042,137.960474 Z M110.747455,137.951738 C110.677739,137.462549 111.00889,137.017038 111.488187,136.947154 C111.976199,136.868534 112.420639,137.209219 112.490355,137.689673 C112.568785,138.170126 112.237634,138.624373 111.749622,138.694257 C111.70605,138.702992 111.662477,138.702992 111.618905,138.702992 C111.191894,138.702992 110.817171,138.388514 110.747455,137.951738 L110.747455,137.951738 Z M105.187605,139 C104.699593,138.973793 104.32487,138.554489 104.351013,138.0653 C104.377157,137.576111 104.795453,137.209219 105.283465,137.235426 C105.771477,137.261632 106.1462,137.680937 106.120056,138.170126 C106.093913,138.633108 105.701761,139 105.239892,139 L105.187605,139 Z" id="Fill-4" fill="#5BC7DB"></path>
            <path d="M104.417863,37.9156699 C104.400431,37.4276242 104.775226,37.0180143 105.263332,37.0005841 C105.751439,36.9831539 106.161099,37.3579033 106.178531,37.8459491 C106.20468,38.3339949 105.821168,38.7436047 105.333062,38.7610349 L105.298197,38.7610349 C104.827523,38.7610349 104.435295,38.3950006 104.417863,37.9156699 L104.417863,37.9156699 Z M111.695873,38.8133255 L111.695873,38.8133255 C111.207767,38.7871802 110.832971,38.3688553 110.85912,37.8808095 C110.885269,37.3927637 111.303645,37.0180143 111.791751,37.0441596 C112.271141,37.07902 112.645937,37.4886299 112.619788,37.9766756 C112.59364,38.4472912 112.210128,38.8133255 111.739454,38.8133255 L111.695873,38.8133255 Z M98.0027545,38.5518725 C97.9417413,38.0638267 98.2816723,37.6193564 98.7697784,37.5583507 C99.2491683,37.4886299 99.6936935,37.837234 99.7634229,38.3165647 C99.8244362,38.7958953 99.4845051,39.2403656 98.9963991,39.3100864 C98.9615343,39.3100864 98.9266696,39.3188015 98.8830887,39.3188015 C98.4472797,39.3188015 98.0637678,38.9963427 98.0027545,38.5518725 L98.0027545,38.5518725 Z M118.015104,39.4495281 L118.015104,39.4495281 C117.535714,39.3798072 117.204499,38.9266219 117.274228,38.4472912 C117.343958,37.9592454 117.797199,37.6280715 118.276589,37.6977924 C118.755979,37.7762283 119.09591,38.2206985 119.026181,38.7000292 C118.956451,39.1444995 118.581655,39.4582432 118.145846,39.4582432 C118.110982,39.4582432 118.067401,39.4582432 118.015104,39.4495281 L118.015104,39.4495281 Z M91.6835241,39.7719869 C91.5702137,39.2926562 91.8665638,38.8220406 92.3459537,38.7174594 C92.8253436,38.6041631 93.2960174,38.9004766 93.4006115,39.3798072 C93.5139219,39.8504228 93.2175717,40.3297535 92.7381818,40.4343347 C92.6771686,40.4517649 92.6074391,40.46048 92.5464259,40.46048 C92.1454816,40.46048 91.779402,40.1815967 91.6835241,39.7719869 L91.6835241,39.7719869 Z M124.255889,40.6696425 C123.785215,40.5563462 123.497581,40.0770155 123.610891,39.6063999 C123.724202,39.1270693 124.203592,38.8394709 124.674265,38.9614823 L124.674265,38.9527672 C125.153655,39.0747786 125.441289,39.5453942 125.327979,40.0247249 C125.223385,40.4256196 124.866021,40.6957878 124.465077,40.6957878 C124.395348,40.6957878 124.325618,40.6870727 124.255889,40.6696425 L124.255889,40.6696425 Z M85.5037525,41.5760132 C85.3468612,41.1141128 85.5996304,40.6086368 86.061588,40.46048 C86.5235455,40.3036082 87.029084,40.5563462 87.177259,41.0269617 C87.3254341,41.4888622 87.081381,41.9856231 86.6107073,42.1424949 C86.5235455,42.1686402 86.4276675,42.1860704 86.3405057,42.1860704 C85.96571,42.1860704 85.625779,41.9507627 85.5037525,41.5760132 L85.5037525,41.5760132 Z M130.357215,42.4736688 L130.357215,42.4736688 C129.895257,42.316797 129.651204,41.811321 129.808095,41.3494205 C129.973703,40.8875201 130.470525,40.6434972 130.932482,40.800369 C131.39444,40.965956 131.638493,41.471432 131.481602,41.9246173 C131.350859,42.2906517 131.010928,42.5259595 130.644849,42.5259595 C130.548971,42.5259595 130.453093,42.5085293 130.357215,42.4736688 L130.357215,42.4736688 Z M79.5070206,43.9465213 C79.3152647,43.502051 79.5157368,42.9791448 79.9689782,42.7874126 C80.4135034,42.5869652 80.9364742,42.7961277 81.1282301,43.2405979 C81.3287023,43.6850682 81.1195139,44.2079744 80.6749888,44.4084217 C80.5529622,44.4519972 80.4396519,44.4781425 80.3176254,44.4781425 C79.9776944,44.4781425 79.6551957,44.2776952 79.5070206,43.9465213 L79.5070206,43.9465213 Z M136.258068,44.8354618 L136.258068,44.8354618 C135.813543,44.6350144 135.613071,44.1121082 135.813543,43.667638 C136.022732,43.2231677 136.545702,43.0227203 136.990228,43.2318828 C137.434753,43.4323302 137.626509,43.9552364 137.426037,44.3997066 C137.277862,44.7221654 136.955363,44.9138977 136.615432,44.9138977 C136.493405,44.9138977 136.371379,44.8877524 136.258068,44.8354618 L136.258068,44.8354618 Z M73.7717742,46.8660808 C73.5277212,46.4477558 73.6846124,45.9074195 74.1117052,45.6721117 C74.5387981,45.4368039 75.0792012,45.5849606 75.3145381,46.0120007 C75.5498749,46.4390407 75.3929837,46.9793771 74.9658909,47.2146849 C74.8351482,47.2931208 74.6869731,47.3279813 74.5387981,47.3279813 C74.2337318,47.3279813 73.9286655,47.1623943 73.7717742,46.8660808 L73.7717742,46.8660808 Z M141.906153,47.7463062 L141.906153,47.7463062 C141.47906,47.5022833 141.339601,46.9619469 141.583654,46.5349069 C141.827707,46.1165819 142.368111,45.9684252 142.786487,46.2124481 C143.21358,46.4564709 143.353039,46.9968073 143.108986,47.4151323 C142.952095,47.7027307 142.655745,47.8596025 142.350678,47.8596025 C142.193787,47.8596025 142.045612,47.8247421 141.906153,47.7463062 L141.906153,47.7463062 Z M68.3241617,50.3172616 C68.0539602,49.9163669 68.1498381,49.3673154 68.5594986,49.0884321 C68.9604429,48.8182639 69.5095622,48.91413 69.78848,49.3237399 C70.0586816,49.7246346 69.9540874,50.2736861 69.5531431,50.5525694 C69.3962519,50.6571506 69.2219283,50.7007261 69.0563209,50.7007261 C68.7774031,50.7007261 68.4984853,50.5699996 68.3241617,50.3172616 L68.3241617,50.3172616 Z M147.266604,51.1626266 L147.266604,51.1626266 C146.865659,50.8837433 146.769781,50.3346918 147.048699,49.9337971 C147.336333,49.5329023 147.885453,49.4370362 148.286397,49.7159195 C148.678625,50.0035179 148.774503,50.5525694 148.495585,50.9534641 C148.321262,51.197487 148.05106,51.3282136 147.772142,51.3282136 C147.597819,51.3282136 147.423495,51.275923 147.266604,51.1626266 L147.266604,51.1626266 Z M63.2251965,54.2564882 C62.9201302,53.8817388 62.9724272,53.3239722 63.347223,53.0189436 C63.7220187,52.7051999 64.2798542,52.7574905 64.5849205,53.1322399 C64.898703,53.5069893 64.8464059,54.0647559 64.4716102,54.3784996 C64.3060028,54.5092262 64.1055306,54.578947 63.9050585,54.578947 C63.6522893,54.578947 63.3995201,54.4743658 63.2251965,54.2564882 L63.2251965,54.2564882 Z M152.287123,55.0669928 C151.912328,54.744534 151.877463,54.1867674 152.191245,53.8207331 C152.505028,53.4459836 153.062863,53.4024081 153.437659,53.7161518 C153.803739,54.0386106 153.84732,54.5963772 153.533537,54.9624116 C153.359214,55.171574 153.106444,55.2761553 152.862391,55.2761553 C152.661919,55.2761553 152.452731,55.2064344 152.287123,55.0669928 L152.287123,55.0669928 Z M58.5184593,58.6576153 C58.1785283,58.3177262 58.1785283,57.7599596 58.5184593,57.4113555 C58.8671065,57.0714665 59.424942,57.0714665 59.7735892,57.4113555 C60.1135202,57.7599596 60.1135202,58.3177262 59.7735892,58.6576153 C59.5992656,58.8319173 59.3726449,58.9190684 59.1460242,58.9190684 C58.9194036,58.9190684 58.6927829,58.8319173 58.5184593,58.6576153 L58.5184593,58.6576153 Z M156.932847,59.4071141 C156.592916,59.05851 156.601633,58.5007434 156.95028,58.1608544 C157.298927,57.8122503 157.856762,57.8209654 158.196693,58.1695695 C158.536624,58.5181736 158.527908,59.0846553 158.179261,59.4245443 C158.013654,59.5901313 157.787033,59.6685672 157.569128,59.6685672 C157.333792,59.6685672 157.107171,59.5814162 156.932847,59.4071141 L156.932847,59.4071141 Z M54.2475311,63.4770673 C53.8727353,63.1633236 53.8204383,62.605557 54.1342207,62.2308075 C54.439287,61.8560581 54.9971226,61.8037675 55.3719183,62.1175112 C55.746714,62.4312549 55.7990111,62.9890215 55.4852286,63.3637709 C55.310905,63.5729334 55.0581358,63.6775146 54.8053666,63.6775146 C54.6048945,63.6775146 54.4044223,63.6165089 54.2475311,63.4770673 L54.2475311,63.4770673 Z M161.160195,64.1655604 C160.846412,63.7820959 160.907425,63.2243293 161.290937,62.9193007 C161.665733,62.6142721 162.223569,62.6752778 162.528635,63.0500272 C162.842417,63.4334917 162.781404,63.9912583 162.397892,64.296287 C162.232285,64.4270135 162.040529,64.4880192 161.848773,64.4880192 C161.587287,64.4880192 161.334518,64.3747229 161.160195,64.1655604 L161.160195,64.1655604 Z M50.4211281,68.6625536 C50.0201838,68.3836703 49.9155896,67.8346188 50.1945074,67.4337241 C50.4734252,67.0328293 51.0225445,66.9282481 51.4234888,67.2071314 C51.8244331,67.4772996 51.9290272,68.0350662 51.6501095,68.4359609 C51.484502,68.6799838 51.2055843,68.8194255 50.9179503,68.8194255 C50.7523429,68.8194255 50.5780193,68.7671348 50.4211281,68.6625536 L50.4211281,68.6625536 Z M164.916868,69.290041 C164.646667,68.8891463 164.759977,68.3400948 165.169637,68.0699266 C165.570582,67.7997584 166.119701,67.9130547 166.389903,68.3139495 C166.660104,68.7235593 166.546794,69.2726108 166.14585,69.542779 C165.988958,69.6386451 165.823351,69.6909358 165.657743,69.6909358 C165.37011,69.6909358 165.091192,69.5514941 164.916868,69.290041 L164.916868,69.290041 Z M47.1002635,74.1792138 C46.6731707,73.9439061 46.5249956,73.4035697 46.7603325,72.9765296 C46.9956694,72.5494896 47.5360725,72.3926177 47.9631653,72.6366406 C48.3902581,72.8719484 48.5384332,73.4122848 48.3030963,73.8393248 C48.1374889,74.1269232 47.8411388,74.2925102 47.5273563,74.2925102 C47.3878975,74.2925102 47.2397224,74.2489347 47.1002635,74.1792138 L47.1002635,74.1792138 Z M168.17672,74.7456955 C167.950099,74.3186555 168.10699,73.7870342 168.542799,73.5604415 C168.969892,73.3251337 169.501579,73.4907207 169.736916,73.9177608 C169.963536,74.3448008 169.806645,74.8851372 169.370836,75.1117299 C169.240093,75.1814507 169.100635,75.2163111 168.961176,75.2163111 C168.647393,75.2163111 168.342327,75.0507242 168.17672,74.7456955 L168.17672,74.7456955 Z M44.3023697,79.9834725 C43.8578446,79.7830251 43.6573724,79.2601189 43.8491284,78.8156487 C44.0496005,78.3711784 44.5725713,78.162016 45.0170965,78.3624633 C45.4616217,78.5629107 45.6620938,79.0771018 45.4703379,79.5302871 C45.3221628,79.852746 44.9996641,80.0531933 44.6597331,80.0531933 C44.5464228,80.0531933 44.4243963,80.027048 44.3023697,79.9834725 L44.3023697,79.9834725 Z M170.9136,80.4889485 C170.721844,80.0357631 170.939749,79.521572 171.384274,79.3298398 C171.837515,79.1468226 172.35177,79.3559851 172.543526,79.8091704 C172.735282,80.2536407 172.517377,80.7765469 172.072852,80.959564 C171.959542,81.0118547 171.846231,81.0292849 171.732921,81.0292849 C171.384274,81.0292849 171.053059,80.8288375 170.9136,80.4889485 L170.9136,80.4889485 Z M42.0710277,86.0143238 C41.6003539,85.857452 41.3563009,85.3606911 41.504476,84.8987906 C41.6613672,84.4368902 42.1581895,84.1841522 42.620147,84.341024 C43.0908207,84.4891808 43.3348738,84.9946568 43.1866987,85.4565572 C43.0646722,85.8225916 42.716025,86.0578993 42.3499454,86.0578993 C42.2540674,86.0578993 42.1581895,86.0491842 42.0710277,86.0143238 L42.0710277,86.0143238 Z M173.101361,86.4587941 C172.953186,85.9968936 173.214672,85.5001328 173.676629,85.351976 C174.147303,85.2038192 174.644125,85.4652723 174.783584,85.9358879 C174.931759,86.3977884 174.670274,86.8945492 174.208316,87.042706 C174.121154,87.0688513 174.033992,87.0775664 173.946831,87.0775664 C173.572035,87.0775664 173.223388,86.8422586 173.101361,86.4587941 L173.101361,86.4587941 Z M40.4062373,92.2369074 C39.9268474,92.1236111 39.6304973,91.6529955 39.7438076,91.1736649 C39.857118,90.7030493 40.3277917,90.4067358 40.7984654,90.511317 C41.2778553,90.6246134 41.5742054,91.103944 41.4608951,91.5745596 C41.3650171,91.9841694 41.0076537,92.2630527 40.5979933,92.2630527 C40.53698,92.2630527 40.4672506,92.2543376 40.4062373,92.2369074 L40.4062373,92.2369074 Z M174.722571,92.6116569 L174.722571,92.6116569 C174.626693,92.1323262 174.923043,91.6617106 175.402433,91.5571294 C175.881823,91.4612633 176.352496,91.7575768 176.448374,92.2369074 L176.45709,92.2369074 C176.552968,92.7162381 176.247902,93.1868537 175.777228,93.2914349 C175.716215,93.30015 175.655202,93.3088651 175.594189,93.3088651 C175.184528,93.3088651 174.818449,93.0212667 174.722571,92.6116569 L174.722571,92.6116569 Z M39.325431,98.5902176 C38.8460411,98.5204968 38.5061101,98.0760265 38.5758395,97.5966958 C38.6368528,97.1086501 39.0813779,96.768761 39.569484,96.8384819 C40.0488739,96.8994876 40.3888049,97.3439578 40.3190755,97.8320036 C40.2667784,98.2764739 39.8832665,98.5902176 39.4474575,98.5902176 L39.325431,98.5902176 Z M175.768512,98.877816 C175.716215,98.3984853 176.056146,97.9540151 176.544252,97.9017244 C177.032358,97.8407187 177.468167,98.1893228 177.529181,98.6686535 C177.581478,99.1566993 177.23283,99.5924544 176.753441,99.6534602 C176.718576,99.6534602 176.683711,99.6621753 176.648846,99.6621753 C176.204321,99.6621753 175.820809,99.3310013 175.768512,98.877816 L175.768512,98.877816 Z M38.8460411,105.004533 C38.3666512,104.987103 37.9831393,104.577493 38.0005716,104.089448 C38.018004,103.601402 38.4363806,103.226652 38.9244867,103.244083 C39.4125928,103.261513 39.7873885,103.671123 39.7699562,104.159168 C39.7438076,104.638499 39.3602957,105.004533 38.889622,105.004533 L38.8460411,105.004533 Z M176.23047,105.222411 C176.221754,104.734365 176.605266,104.324755 177.093372,104.31604 C177.581478,104.307325 177.982422,104.69079 177.999854,105.178836 C178.008571,105.666881 177.625059,106.067776 177.136953,106.076491 L177.110804,106.076491 C176.64013,106.076491 176.239186,105.701742 176.23047,105.222411 L176.23047,105.222411 Z M38.0441525,110.608345 C38.018004,110.129014 38.3927997,109.710689 38.8809058,109.684544 C39.3602957,109.658398 39.7786723,110.033148 39.8048209,110.521194 C39.8309694,111.009239 39.4561737,111.418849 38.9680676,111.444995 C38.9506352,111.45371 38.9419191,111.45371 38.9244867,111.45371 C38.453813,111.45371 38.0615849,111.087675 38.0441525,110.608345 L38.0441525,110.608345 Z M176.927764,112.516952 C176.439658,112.482092 176.064862,112.063767 176.099727,111.575721 C176.134592,111.087675 176.552968,110.721641 177.041075,110.756501 C177.529181,110.791362 177.89526,111.209687 177.860395,111.697733 L177.869112,111.697733 C177.834247,112.159633 177.442019,112.516952 176.980061,112.516952 L176.927764,112.516952 Z M38.6804337,117.101097 L38.6804337,117.101097 C38.6107042,116.621766 38.9506352,116.16858 39.4300251,116.09886 C39.909415,116.029139 40.3626564,116.360313 40.4323858,116.848359 C40.5021153,117.327689 40.1709004,117.780875 39.6827944,117.850595 C39.6392135,117.850595 39.5956326,117.85931 39.5607678,117.85931 C39.1249588,117.85931 38.7501631,117.545567 38.6804337,117.101097 L38.6804337,117.101097 Z M176.117159,118.905123 C175.629053,118.826687 175.306555,118.373502 175.385,117.894171 C175.463446,117.41484 175.916687,117.083666 176.396077,117.162102 C176.875467,117.240538 177.206682,117.693724 177.128236,118.173054 C177.058507,118.608809 176.683711,118.913838 176.256618,118.913838 C176.204321,118.913838 176.16074,118.913838 176.117159,118.905123 L176.117159,118.905123 Z M39.9268474,123.506697 C39.8048209,123.027367 40.101171,122.556751 40.5718447,122.43474 C41.0512346,122.321443 41.5219083,122.617757 41.6439348,123.088372 C41.7572452,123.558988 41.4608951,124.038319 40.9902214,124.151615 C40.9204919,124.169045 40.8507625,124.17776 40.781033,124.17776 C40.3800888,124.17776 40.0227254,123.907592 39.9268474,123.506697 L39.9268474,123.506697 Z M174.713854,125.188712 C174.234465,125.066701 173.955547,124.58737 174.077573,124.116755 C174.1996,123.646139 174.67899,123.358541 175.149663,123.480552 C175.629053,123.602563 175.907971,124.090609 175.785945,124.561225 C175.68135,124.953404 175.323987,125.223573 174.931759,125.223573 C174.86203,125.223573 174.783584,125.206142 174.713854,125.188712 L174.713854,125.188712 Z M41.7572452,129.764141 C41.5916378,129.302241 41.844407,128.80548 42.2976483,128.639893 C42.7596059,128.483021 43.2651443,128.727044 43.4220356,129.188944 C43.5789268,129.650845 43.3348738,130.156321 42.8729162,130.313193 C42.7770382,130.348053 42.6811603,130.365483 42.5852823,130.365483 C42.2192027,130.365483 41.8792717,130.130176 41.7572452,129.764141 L41.7572452,129.764141 Z M172.726565,131.31543 C172.264608,131.149843 172.029271,130.644367 172.194878,130.182466 C172.360486,129.729281 172.866024,129.493973 173.327982,129.65956 C173.781223,129.825147 174.025276,130.330623 173.859669,130.783808 C173.728926,131.149843 173.388995,131.36772 173.022916,131.36772 C172.927038,131.36772 172.822443,131.35029 172.726565,131.31543 L172.726565,131.31543 Z M44.1541947,135.829853 C43.9537225,135.385383 44.1541947,134.862477 44.5987199,134.662029 C45.043245,134.461582 45.5662158,134.662029 45.766688,135.097784 C45.9671601,135.542255 45.7754042,136.073876 45.330879,136.274323 C45.2088525,136.326614 45.0868259,136.352759 44.9647994,136.352759 C44.6248684,136.352759 44.3023697,136.152312 44.1541947,135.829853 L44.1541947,135.829853 Z M170.172725,137.232985 C169.7282,137.023822 169.54516,136.492201 169.754348,136.056446 C169.963536,135.611975 170.486507,135.420243 170.931032,135.629406 C171.366841,135.838568 171.558597,136.370189 171.349409,136.805945 C171.201234,137.128403 170.878735,137.311421 170.556237,137.311421 C170.425494,137.311421 170.294751,137.285275 170.172725,137.232985 L170.172725,137.232985 Z M47.1176959,141.642827 C46.882359,141.224502 47.0305341,140.67545 47.4489107,140.440143 C47.8760035,140.19612 48.4164067,140.344276 48.6517435,140.771316 C48.8957966,141.189641 48.7476215,141.729978 48.3292449,141.974001 C48.189786,142.052437 48.0328948,142.087297 47.8847197,142.087297 C47.5796534,142.087297 47.2833033,141.930425 47.1176959,141.642827 L47.1176959,141.642827 Z M167.078481,142.880371 C166.660104,142.627633 166.520645,142.087297 166.773415,141.668972 C167.017468,141.250647 167.557871,141.111206 167.984964,141.355228 C168.40334,141.607966 168.542799,142.148303 168.29003,142.566628 C168.124422,142.845511 167.828072,143.002383 167.531722,143.002383 C167.374831,143.002383 167.226656,142.958807 167.078481,142.880371 L167.078481,142.880371 Z M50.612884,147.150772 C50.3339663,146.758592 50.4298443,146.200826 50.8307885,145.921942 C51.2317328,145.643059 51.7808522,145.738925 52.0597699,146.13982 C52.3386877,146.540715 52.2428097,147.089766 51.8418654,147.36865 C51.6936904,147.481946 51.5106506,147.534236 51.336327,147.534236 C51.0574092,147.534236 50.7872076,147.40351 50.612884,147.150772 L50.612884,147.150772 Z M163.478698,148.214015 C163.08647,147.926416 162.999309,147.377365 163.286943,146.985185 L163.278226,146.985185 C163.56586,146.58429 164.123696,146.497139 164.515924,146.784738 C164.908152,147.072336 164.995314,147.621388 164.716396,148.013567 C164.542072,148.25759 164.271871,148.379601 163.992953,148.379601 C163.81863,148.379601 163.63559,148.327311 163.478698,148.214015 L163.478698,148.214015 Z M54.6136106,152.310113 C54.291112,151.944079 54.3346929,151.386312 54.7094886,151.072568 C55.0755682,150.75011 55.6334037,150.793685 55.9559024,151.168434 C56.2696848,151.543184 56.2261039,152.092235 55.8513082,152.414694 C55.6857008,152.554136 55.4852286,152.623857 55.2847565,152.623857 C55.0319873,152.623857 54.7879342,152.519275 54.6136106,152.310113 L54.6136106,152.310113 Z M159.399526,153.199053 C159.033447,152.876595 158.998582,152.318828 159.321081,151.952794 C159.634863,151.586759 160.201415,151.551899 160.567494,151.865643 C160.933574,152.188102 160.968439,152.745868 160.64594,153.120618 C160.471616,153.31235 160.227563,153.416931 159.98351,153.416931 C159.774322,153.416931 159.565134,153.34721 159.399526,153.199053 L159.399526,153.199053 Z M59.0675786,157.077274 C58.7189314,156.737385 58.7102152,156.179619 59.0501463,155.831015 C59.3900773,155.48241 59.956629,155.473695 60.3052762,155.813584 L60.29656,155.813584 C60.6539234,156.153473 60.6539234,156.71124 60.3227085,157.059844 C60.1483849,157.242861 59.9130481,157.330012 59.6864274,157.330012 C59.4598067,157.330012 59.2419022,157.242861 59.0675786,157.077274 L59.0675786,157.077274 Z M154.884545,157.791913 C154.544614,157.434594 154.562046,156.876827 154.910694,156.536938 L154.91941,156.536938 C155.268057,156.205764 155.825892,156.214479 156.165824,156.571798 C156.497038,156.929118 156.488322,157.486884 156.130959,157.818058 C155.956635,157.983645 155.738731,158.062081 155.520826,158.062081 C155.285489,158.062081 155.058869,157.97493 154.884545,157.791913 L154.884545,157.791913 Z M63.9486394,161.408681 C63.5651275,161.103652 63.5128304,160.545885 63.8178967,160.162421 C64.122963,159.787671 64.6807985,159.726666 65.0555943,160.031694 C65.4391062,160.345438 65.4914033,160.89449 65.186337,161.277954 C65.0120134,161.487117 64.7592441,161.600413 64.4977587,161.600413 C64.3060028,161.600413 64.1055306,161.539407 63.9486394,161.408681 L63.9486394,161.408681 Z M149.951187,161.940302 C149.654837,161.556837 149.71585,160.999071 150.099362,160.702757 C150.482874,160.397729 151.04071,160.467449 151.345776,160.850914 C151.642126,161.234379 151.581113,161.78343 151.197601,162.088459 C151.031993,162.219185 150.840238,162.280191 150.648482,162.280191 C150.386996,162.280191 150.125511,162.158179 149.951187,161.940302 L149.951187,161.940302 Z M66.1974138,163.151701 L66.1974138,163.151701 C65.8051857,162.864103 65.7267401,162.306336 66.0143741,161.922872 C66.3107242,161.521977 66.8598435,161.443541 67.2520716,161.739855 C67.6442997,162.027453 67.7227453,162.58522 67.4351114,162.968684 C67.2607878,163.203992 66.9905862,163.326003 66.7203846,163.326003 C66.5373448,163.326003 66.3543051,163.273713 66.1974138,163.151701 L66.1974138,163.151701 Z M144.660466,165.60936 C144.390264,165.19975 144.512291,164.659414 144.921951,164.389246 C145.331612,164.127793 145.880731,164.241089 146.142217,164.659414 C146.403702,165.069024 146.290392,165.60936 145.880731,165.879528 C145.732556,165.975395 145.566949,166.01897 145.401341,166.01897 C145.113707,166.01897 144.826073,165.870813 144.660466,165.60936 L144.660466,165.60936 Z M71.6014454,166.803329 C71.1830688,166.550591 71.0523261,166.010255 71.3050953,165.59193 C71.5578645,165.173605 72.1069839,165.042879 72.5166443,165.295617 C72.9350209,165.548355 73.0657636,166.097406 72.8129944,166.507016 C72.647387,166.785899 72.3597531,166.934056 72.063403,166.934056 C71.9065117,166.934056 71.7409043,166.89048 71.6014454,166.803329 L71.6014454,166.803329 Z M139.047246,168.772943 C138.820625,168.337188 138.986233,167.805566 139.422042,167.578974 C139.857851,167.352381 140.389538,167.526683 140.616158,167.962438 C140.834063,168.389478 140.668456,168.921099 140.232647,169.147692 C140.101904,169.217413 139.962445,169.243558 139.831702,169.243558 C139.509204,169.243558 139.204137,169.077971 139.047246,168.772943 L139.047246,168.772943 Z M77.3192595,169.940767 C76.8834505,169.722889 76.7004107,169.191268 76.909599,168.755512 C77.1275035,168.319757 77.6591905,168.13674 78.0949995,168.354618 C78.5308085,168.56378 78.7138483,169.095402 78.50466,169.531157 C78.3477687,169.8449 78.0339862,170.027918 77.7027714,170.027918 C77.5807449,170.027918 77.441286,170.001772 77.3192595,169.940767 L77.3192595,169.940767 Z M133.155108,171.387474 C132.972069,170.934288 133.189973,170.420097 133.643214,170.23708 C134.096456,170.054063 134.61071,170.27194 134.79375,170.725126 C134.97679,171.178311 134.758885,171.692502 134.305644,171.875519 C134.20105,171.919095 134.08774,171.94524 133.974429,171.94524 C133.625782,171.94524 133.294567,171.736078 133.155108,171.387474 L133.155108,171.387474 Z M83.3072751,172.520437 C82.8540338,172.346135 82.6186969,171.840659 82.7930205,171.387474 C82.9673441,170.925573 83.4728825,170.69898 83.9348401,170.864567 C84.3880814,171.038869 84.6147021,171.553061 84.4490947,172.006246 C84.3096358,172.363565 83.978421,172.581443 83.6210576,172.581443 C83.5164634,172.581443 83.4118693,172.564013 83.3072751,172.520437 L83.3072751,172.520437 Z M127.053782,173.444238 C126.914324,172.982337 127.175809,172.485577 127.646483,172.346135 C128.10844,172.206693 128.605262,172.476862 128.744721,172.938762 C128.88418,173.409378 128.622695,173.897423 128.152021,174.036865 C128.064859,174.06301 127.986414,174.08044 127.899252,174.08044 C127.51574,174.08044 127.167093,173.827702 127.053782,173.444238 L127.053782,173.444238 Z M89.5131953,174.533626 C89.0425215,174.402899 88.7636038,173.923569 88.8943465,173.452953 C89.0250892,172.982337 89.5044791,172.703454 89.9751528,172.834181 C90.4458265,172.956192 90.7247443,173.444238 90.5940016,173.914854 C90.4894074,174.307033 90.132044,174.568486 89.7485321,174.568486 C89.6700865,174.568486 89.5916409,174.559771 89.5131953,174.533626 L89.5131953,174.533626 Z M120.786849,174.934521 C120.690971,174.45519 120.996037,173.984574 121.475427,173.888708 C121.954817,173.792842 122.425491,174.106586 122.521369,174.585916 C122.608531,175.065247 122.303464,175.527148 121.824074,175.623014 C121.763061,175.631729 121.710764,175.640444 121.649751,175.640444 C121.24009,175.640444 120.874011,175.352846 120.786849,174.934521 L120.786849,174.934521 Z M95.8760066,175.954188 C95.3966167,175.875752 95.0741181,175.413851 95.1612799,174.934521 C95.2397255,174.45519 95.701683,174.132731 96.1810729,174.219882 C96.6604628,174.298318 96.9829615,174.760219 96.8957997,175.239549 C96.8260703,175.666589 96.4512745,175.971618 96.0328979,175.971618 C95.9806008,175.971618 95.9283037,175.962903 95.8760066,175.954188 L95.8760066,175.954188 Z M114.406605,175.823461 C114.354308,175.34413 114.702955,174.908375 115.191061,174.856085 C115.679168,174.803794 116.114977,175.152398 116.158557,175.640444 C116.210855,176.12849 115.862207,176.55553 115.374101,176.60782 C115.347953,176.616535 115.313088,176.616535 115.286939,176.616535 C114.833698,176.616535 114.450186,176.276646 114.406605,175.823461 L114.406605,175.823461 Z M102.352128,176.782122 L102.343412,176.782122 C101.864022,176.738547 101.497943,176.311507 101.532807,175.832176 C101.576388,175.34413 102.003481,174.978096 102.491587,175.021672 C102.970977,175.056532 103.337057,175.483572 103.302192,175.971618 C103.258611,176.433518 102.875099,176.782122 102.421858,176.782122 L102.352128,176.782122 Z M107.974064,176.12849 C107.965348,175.640444 108.357576,175.239549 108.845682,175.230834 C109.333789,175.222119 109.734733,175.614299 109.734733,176.102344 C109.743449,176.59039 109.351221,176.991285 108.863115,177 L108.854399,177 C108.375009,177 107.974064,176.60782 107.974064,176.12849 L107.974064,176.12849 Z" id="Fill-6" fill="#5BC7DB"></path>
        </g>
    </g>
</svg>