<?xml version="1.0" encoding="UTF-8"?>
<svg width="43px" height="43px" viewBox="0 0 43 43" version="1.1" xmlns="http://www.w3.org/2000/svg" xmlns:xlink="http://www.w3.org/1999/xlink">
    <!-- Generator: sketchtool 41.2 (35397) - http://www.bohemiancoding.com/sketch -->
    <title>2B6B0797-859B-4B39-9C35-A4D01D1A75D4</title>
    <desc>Created with sketchtool.</desc>
    <defs>
        <linearGradient x1="53.2688488%" y1="97.3091838%" x2="49.8575006%" y2="0.837037738%" id="linearGradient-1">
            <stop stop-color="#CFD0D2" offset="0%"></stop>
            <stop stop-color="#F4F4F5" offset="100%"></stop>
        </linearGradient>
        <linearGradient x1="78.6075338%" y1="8.15334449%" x2="32.1601915%" y2="72.4287123%" id="linearGradient-2">
            <stop stop-color="#5BC7DA" offset="0.05772783%"></stop>
            <stop stop-color="#099EAB" offset="100%"></stop>
        </linearGradient>
        <linearGradient x1="38.3860414%" y1="99.6438746%" x2="36.1554476%" y2="31.4814815%" id="linearGradient-3">
            <stop stop-color="#D8D8D8" offset="0%"></stop>
            <stop stop-color="#F9F9F9" offset="100%"></stop>
        </linearGradient>
    </defs>
    <g id="Symbols" stroke="none" stroke-width="1" fill="none" fill-rule="evenodd">
        <g id="Icons/Email">
            <g id="Email-Icon" transform="translate(0.000000, 2.000000)">
                <g id="Group" transform="translate(0.501842, 0.025711)">
                    <g transform="translate(0.851543, 0.787700)" id="Shape">
                        <path d="M39.2204186,12.00831 L19.6152548,0.0723189536 L0.275821125,12.0234465 L34.0470906,35.6364258 L36.4941622,35.6364258 C36.4941622,35.6364258 39.215373,35.6162437 39.2237822,33.1052624 L39.2204186,12.00831 Z" fill="url(#linearGradient-1)"></path>
                        <path d="M7.11416683,1.71547285 L32.5939842,1.71547285 C33.9327258,1.71547285 35.0124646,2.79352981 35.0124646,4.13395321 L35.0124646,14.9902054 L19.1107039,25.9490496 L4.69736831,15.7386225 L4.69736831,4.13395321 C4.69736831,2.79521165 5.77542527,1.71547285 7.11584867,1.71547285" fill="url(#linearGradient-2)"></path>
                        <path d="M0.269093781,12.00831 L34.1917285,35.6212892 L2.99198648,35.6212892 C2.99198648,35.6212892 0.270775617,35.6011072 0.262366436,33.0901259 L0.269093781,12.00831 Z" fill="url(#linearGradient-3)"></path>
                    </g>
                    <path d="M20.6258581,6.95065548 C22.4644306,6.95065548 24.0114607,7.58437486 25.2669484,8.85181363 C26.5224361,10.1192524 27.15018,11.6494567 27.15018,13.4424265 C27.15018,14.4513455 26.9316018,15.2865027 26.4944455,15.9478982 C26.0686113,16.6092937 25.4465284,16.9399914 24.628197,16.9399914 C23.787536,16.9399914 23.1597921,16.5308257 22.7449654,15.7124943 C22.1955323,16.5308257 21.4108524,16.9399914 20.3909259,16.9399914 C19.4716397,16.9399914 18.6981246,16.6204585 18.0703808,15.9813926 C17.4426369,15.3313191 17.128765,14.5073267 17.128765,13.5094152 C17.128765,12.5228258 17.4426369,11.7044944 18.0703808,11.0544209 C18.6981246,10.4043475 19.4491528,10.0793108 20.3234654,10.0793108 C21.1867705,10.0793108 21.9041471,10.4100085 22.4755953,11.071404 L22.5430558,11.071404 L22.5430558,10.3147147 L23.7535699,10.3147147 L23.7535699,14.703418 C23.7535699,14.9949604 23.8320379,15.2583549 23.9889738,15.4936016 C24.1572318,15.7291628 24.4094616,15.8469434 24.7456631,15.8469434 C25.5416649,15.8469434 25.9396659,15.0454378 25.9396659,13.4424265 C25.9396659,11.9626996 25.4240416,10.7128729 24.392793,9.69294638 C23.3615445,8.67270535 22.1060567,8.16258483 20.6263298,8.16258483 C19.1466029,8.16258483 17.8911152,8.67270535 16.8598667,9.69294638 C15.8286181,10.7131874 15.3129938,11.9630141 15.3129938,13.4424265 C15.3129938,14.9221534 15.8286181,16.1719801 16.8598667,17.1919067 C17.8911152,18.2121477 19.1466029,18.7222682 20.6263298,18.7222682 C21.4223317,18.7222682 22.1342046,18.5653322 22.7619484,18.2514603 L23.2327563,19.3949857 C22.4480765,19.7538313 21.5792677,19.9332541 20.6263298,19.9332541 C18.7654278,19.9332541 17.2015719,19.3055102 15.9347622,18.0500225 C14.6673234,16.7825837 14.033604,15.2468756 14.033604,13.4428983 C14.033604,11.6492994 14.6673234,10.1190951 15.9347622,8.85228538 C17.2125795,7.58484661 18.7764353,6.95112723 20.6263298,6.95112723 M19.0624739,15.0727994 C19.4659786,15.4652965 19.9479513,15.6615451 20.508392,15.6615451 C21.0688327,15.6615451 21.5453016,15.4652965 21.9377987,15.0727994 C22.3413034,14.6803022 22.5430558,14.1590169 22.5430558,13.5089435 C22.5430558,12.85887 22.3413034,12.3375847 21.9377987,11.9450876 C21.5453016,11.5525904 21.0688327,11.3563418 20.508392,11.3563418 C19.9479513,11.3563418 19.4659786,11.5525904 19.0624739,11.9450876 C18.6699768,12.3375847 18.4737282,12.85887 18.4737282,13.5089435 C18.4737282,14.1590169 18.6699768,14.6803022 19.0624739,15.0727994" id="Shape" fill-opacity="0.849" fill="#FFFFFF"></path>
                </g>
            </g>
        </g>
    </g>
</svg>