<svg xmlns="http://www.w3.org/2000/svg" width="237" height="154" viewBox="0 0 237 154">
    <g fill="none" fill-rule="evenodd">
        <g fill="#E5E8EC" transform="translate(52)">
            <path d="M73.224 32.903c-.57 0-1.035.463-1.035 1.031a1.034 1.034 0 0 0 2.07 0c0-.568-.465-1.031-1.035-1.031m0 4.37a3.347 3.347 0 0 1-3.349-3.339 3.347 3.347 0 0 1 3.349-3.339 3.347 3.347 0 0 1 3.349 3.34 3.347 3.347 0 0 1-3.35 3.339"/>
            <ellipse cx="102.214" cy="28.876" rx="3.471" ry="3.415"/>
            <path d="M40.82 2.835c-.57 0-1.035.463-1.035 1.031a1.034 1.034 0 0 0 2.07 0c0-.568-.465-1.031-1.035-1.031m0 4.37a3.348 3.348 0 0 1-3.35-3.339 3.348 3.348 0 0 1 3.35-3.34 3.347 3.347 0 0 1 3.349 3.34 3.347 3.347 0 0 1-3.349 3.34M130.363 15.542c-.57 0-1.034.463-1.034 1.032a1.034 1.034 0 0 0 2.07 0c0-.569-.465-1.032-1.036-1.032m0 4.371a3.347 3.347 0 0 1-3.349-3.34 3.347 3.347 0 0 1 3.35-3.338 3.348 3.348 0 0 1 3.349 3.339 3.348 3.348 0 0 1-3.35 3.339M96.881 15.489h3.995v-1.813H96.88z"/>
            <path d="M98.305 16.574h1.147V12.59h-1.147zM20.508 21.57h3.995v-1.252h-3.995z"/>
            <path d="M21.608 22.936h1.795v-3.983h-1.795zM109.555 39.848c0-.604.49-1.093 1.096-1.093a1.094 1.094 0 1 1 0 2.186c-.606 0-1.096-.49-1.096-1.093M61.244 12.28c0-.605.49-1.094 1.096-1.094a1.094 1.094 0 1 1 0 2.186c-.605 0-1.096-.489-1.096-1.093M130.363 55.45h3.995v-2.308h-3.995z"/>
            <path d="M131.203 56.287h2.314v-3.983h-2.314zM3.412 41.935c-.57 0-1.035.463-1.035 1.031a1.035 1.035 0 0 0 2.07 0c0-.568-.465-1.031-1.035-1.031m0 4.37a3.348 3.348 0 0 1-3.349-3.339 3.347 3.347 0 0 1 3.349-3.34 3.347 3.347 0 0 1 3.349 3.34c0 1.84-1.502 3.34-3.349 3.34M7.916 6.376c0-.604.49-1.093 1.096-1.093a1.094 1.094 0 1 1 0 2.186c-.606 0-1.096-.49-1.096-1.093"/>
        </g>
        <path fill="#E5E8EC" d="M219.157 91.333h-4.038c-1.252 0-2.266-1.268-2.266-2.833 0-1.565 1.014-2.833 2.266-2.833h8.615c1.251 0 2.266-1.269 2.266-2.834 0-1.564-1.015-2.833-2.266-2.833H197.05c-1.251 0-2.266 1.269-2.266 2.833 0 1.565 1.015 2.834 2.266 2.834h2.809c1.251 0 2.266 1.268 2.266 2.833 0 1.565-1.015 2.833-2.266 2.833h-10.592c-1.251 0-2.266 1.269-2.266 2.834 0 1.565 1.015 2.833 2.266 2.833H219.157c1.252 0 2.266-1.268 2.266-2.833 0-1.565-1.014-2.834-2.266-2.834zM6.942 60.333h4.098c1.27 0 2.299-1.268 2.299-2.833 0-1.565-1.03-2.833-2.3-2.833H2.3C1.029 54.667 0 53.398 0 51.833 0 50.27 1.03 49 2.299 49h27.073c1.27 0 2.299 1.269 2.299 2.833 0 1.565-1.03 2.834-2.3 2.834h-2.848c-1.27 0-2.3 1.268-2.3 2.833 0 1.565 1.03 2.833 2.3 2.833H49.7c1.27 0 2.299 1.269 2.299 2.834C52 64.732 50.97 66 49.7 66H6.943c-1.27 0-2.299-1.268-2.299-2.833 0-1.565 1.03-2.834 2.3-2.834z"/>
        <g fill="#8A959F" fill-rule="nonzero">
            <path d="M29.15 154h179.715v-1.541H29.15zM236.753 152.459h-20.947V154h20.947zM22.348 152.459H1.4V154h20.947z"/>
            <path d="M52.765 153.615v-26.197h-1.542v26.197z"/>
            <path d="M52.288 140.106c-5.325 0-9.64-4.312-9.64-9.631 0-3.502 3.019-8.871 9.042-16.257l.598-.733.598.733c6.022 7.386 9.042 12.755 9.042 16.257 0 5.319-4.316 9.63-9.64 9.63zm-8.098-9.631c0 4.468 3.625 8.09 8.098 8.09 4.472 0 8.098-3.622 8.098-8.09 0-2.918-2.695-7.81-8.098-14.544-5.404 6.734-8.098 11.626-8.098 14.544z"/>
            <path d="M48.114 132.04l3.401 3.404 1.09-1.09-3.401-3.405zM183.877 153.451v-36.657h-1.543v36.657z"/>
            <path d="M183.399 133.967c-7.454 0-13.497-6.037-13.497-13.483 0-7.447 6.043-13.484 13.497-13.484s13.496 6.037 13.496 13.484c0 7.446-6.042 13.483-13.496 13.483zm0-1.54c6.602 0 11.954-5.348 11.954-11.943 0-6.596-5.352-11.943-11.954-11.943s-11.955 5.347-11.955 11.943c0 6.595 5.353 11.942 11.955 11.942z"/>
            <path d="M183.592 129.856l6.875-6.868-1.091-1.09-6.875 6.868zM177.876 120.675l4.557 4.56 1.09-1.09-4.557-4.561z"/>
        </g>
        <g fill="#8A959F">
            <path fill-rule="nonzero" d="M74.536 56.546v60.298h82.928V56.546H74.536zM159 55v63.39H73V55h86z"/>
            <path fill-rule="nonzero" d="M158.616 65.823H73.4v1.546h85.217zM125.184 104.37c-4.798-4.798-12.603-4.772-17.433.059l-.547.546 1.086 1.086.547-.546c4.226-4.227 11.056-4.25 15.254-.052l.543.543 1.093-1.093-.543-.543zM99.398 151.849l1.31 1.31-20.063.068 1.32-1.32c4.83-4.83 12.635-4.856 17.433-.058zm-14.751-.176l12.07-.04c-3.626-2.447-8.428-2.431-12.07.04zM133.184 151.849l1.31 1.31-20.064.068 1.32-1.32c4.83-4.83 12.636-4.856 17.434-.058zm-14.752-.176l12.07-.04c-3.625-2.447-8.427-2.431-12.07.04z"/>
            <path fill-rule="nonzero" d="M103.455 116.893c-10.413 6.012-12.178 22.235-4.104 36.22l.386.669 1.33-.768-.386-.67c-7.69-13.317-6.028-28.583 3.547-34.112l.665-.383-.773-1.34-.665.384zM137.323 116.893c-10.414 6.012-12.178 22.235-4.105 36.22l.387.669 1.33-.768-.387-.67c-7.689-13.317-6.028-28.583 3.548-34.112l.665-.383-.773-1.34-.665.384z"/>
            <g transform="translate(78.375 60.411)">
                <ellipse cx="1.536" cy="1.546" rx="1.536" ry="1.546"/>
                <ellipse cx="6.143" cy="1.546" rx="1.536" ry="1.546"/>
                <ellipse cx="10.75" cy="1.546" rx="1.536" ry="1.546"/>
            </g>
            <g transform="translate(97.34 77.191)">
                <path fill-rule="nonzero" d="M5.223 15.688c-2.857 0-4.99-3.516-4.99-7.73 0-4.215 2.133-7.731 4.99-7.731s4.991 3.516 4.991 7.73c0 4.215-2.134 7.73-4.99 7.73zm0-1.546c1.808 0 3.456-2.714 3.456-6.185 0-3.47-1.648-6.184-3.456-6.184S1.768 4.487 1.768 7.957s1.647 6.185 3.455 6.185zM32.098 15.688c-2.857 0-4.99-3.516-4.99-7.73 0-4.215 2.133-7.731 4.99-7.731s4.991 3.516 4.991 7.73c0 4.215-2.134 7.73-4.99 7.73zm0-1.546c1.808 0 3.456-2.714 3.456-6.185 0-3.47-1.648-6.184-3.456-6.184s-3.455 2.714-3.455 6.184 1.647 6.185 3.455 6.185z"/>
                <ellipse cx="5.223" cy="11.823" rx="1.92" ry="3.092"/>
                <ellipse cx="32.098" cy="11.823" rx="1.92" ry="3.092"/>
            </g>
        </g>
    </g>
</svg>
