<svg xmlns="http://www.w3.org/2000/svg" width="279" height="196" viewBox="0 0 279 196">
    <g fill="none" fill-rule="evenodd">
        <g fill="#8A959F" opacity=".5" transform="translate(61)">
            <path d="M86.242 54.428a1.223 1.223 0 0 0 0 2.446 1.223 1.223 0 1 0 0-2.446m0 5.182c-2.176 0-3.945-1.776-3.945-3.96 0-2.183 1.77-3.959 3.945-3.959s3.944 1.776 3.944 3.96c0 2.183-1.77 3.96-3.944 3.96" opacity=".3"/>
            <ellipse cx="120.386" cy="49.653" opacity=".3" rx="4.089" ry="4.049"/>
            <ellipse cx="19.534" cy="6.785" opacity=".3" rx="4.089" ry="4.049"/>
            <path d="M48.077 18.775a1.223 1.223 0 0 0 0 2.446 1.223 1.223 0 1 0 0-2.446m0 5.183c-2.176 0-3.945-1.776-3.945-3.96 0-2.183 1.769-3.959 3.945-3.959 2.175 0 3.944 1.776 3.944 3.96 0 2.183-1.769 3.959-3.944 3.959M153.539 33.843a1.223 1.223 0 0 0 0 2.446 1.222 1.222 0 0 0 0-2.446m0 5.182c-2.175 0-3.944-1.775-3.944-3.959 0-2.183 1.769-3.96 3.944-3.96 2.176 0 3.945 1.777 3.945 3.96 0 2.184-1.77 3.96-3.945 3.96M114.105 33.78h4.704v-2.15h-4.704z" opacity=".3"/>
            <path d="M115.782 35.066h1.35v-4.723h-1.35zM87.57 3.314h4.705V1.41H87.57z" opacity=".3"/>
            <path d="M89.228 4.723h1.389V0h-1.39zM24.153 40.991h4.706v-1.485h-4.706z" opacity=".3"/>
            <path d="M25.45 42.61h2.113v-4.723H25.45zM129.031 62.663c0-.716.578-1.296 1.291-1.296s1.29.58 1.29 1.296c0 .716-.577 1.296-1.29 1.296-.713 0-1.29-.58-1.29-1.296M72.132 29.974c0-.716.578-1.296 1.29-1.296.713 0 1.291.58 1.291 1.296 0 .716-.578 1.296-1.29 1.296-.713 0-1.291-.58-1.291-1.296M153.539 81.161h4.705v-2.736h-4.705z" opacity=".3"/>
            <path d="M154.528 82.154h2.726v-4.722h-2.726zM4.019 65.137a1.223 1.223 0 0 0 0 2.446 1.223 1.223 0 0 0 0-2.446m0 5.182c-2.176 0-3.945-1.777-3.945-3.96S1.844 62.4 4.02 62.4s3.944 1.776 3.944 3.96c0 2.182-1.77 3.96-3.944 3.96M9.323 22.974c0-.716.578-1.296 1.29-1.296.713 0 1.291.58 1.291 1.296 0 .716-.578 1.296-1.29 1.296-.713 0-1.291-.58-1.291-1.296" opacity=".3"/>
        </g>
        <path fill="#8A959F" d="M257.93 122.333h-4.764c-1.477 0-2.673-1.492-2.673-3.333 0-1.84 1.196-3.333 2.673-3.333h10.161c1.476 0 2.673-1.493 2.673-3.334 0-1.84-1.197-3.333-2.673-3.333h-31.474c-1.476 0-2.673 1.493-2.673 3.333 0 1.841 1.197 3.334 2.673 3.334h3.312c1.477 0 2.673 1.492 2.673 3.333 0 1.84-1.196 3.333-2.673 3.333h-12.492c-1.476 0-2.673 1.493-2.673 3.334 0 1.84 1.197 3.333 2.673 3.333h35.256c1.476 0 2.673-1.492 2.673-3.333 0-1.841-1.197-3.334-2.673-3.334zM8.144 86.333h4.806c1.49 0 2.697-1.492 2.697-3.333 0-1.84-1.207-3.333-2.697-3.333H2.697C1.207 79.667 0 78.174 0 76.333 0 74.493 1.208 73 2.697 73h31.759c1.489 0 2.697 1.493 2.697 3.333 0 1.841-1.208 3.334-2.697 3.334h-3.343c-1.49 0-2.697 1.492-2.697 3.333 0 1.84 1.208 3.333 2.697 3.333h27.19c1.49 0 2.697 1.493 2.697 3.334C61 91.507 59.792 93 58.303 93H8.144c-1.49 0-2.697-1.492-2.697-3.333 0-1.841 1.207-3.334 2.697-3.334z" opacity=".2"/>
        <g fill="#26344A" fill-rule="nonzero">
            <path d="M34.16 196h211.698v-1.803H34.16zM278.709 194.197h-24.675V196h24.675zM26.147 194.197H1.472V196h24.675z"/>
            <path d="M61.978 195.55v-30.657h-1.817v30.656z"/>
            <path d="M61.415 179.74c-6.272 0-11.356-5.045-11.356-11.27 0-4.097 3.557-10.38 10.652-19.023l.704-.858.704.858c7.095 8.642 10.652 14.926 10.652 19.023 0 6.225-5.084 11.27-11.356 11.27zm-9.54-11.27c0 5.229 4.272 9.467 9.54 9.467 5.268 0 9.54-4.238 9.54-9.467 0-3.414-3.174-9.14-9.54-17.02-6.365 7.88-9.54 13.606-9.54 17.02z"/>
            <path d="M56.496 170.303l4.01 3.98 1.285-1.275-4.01-3.98zM216.422 195.358V152.46h-1.817v42.897z"/>
            <path d="M215.86 172.557c-8.781 0-15.9-7.064-15.9-15.778 0-8.715 7.119-15.779 15.9-15.779 8.78 0 15.898 7.064 15.898 15.779 0 8.714-7.118 15.778-15.899 15.778zm0-1.803c7.777 0 14.081-6.257 14.081-13.975 0-7.719-6.304-13.976-14.082-13.976-7.777 0-14.081 6.257-14.081 13.976 0 7.718 6.304 13.975 14.081 13.975z"/>
            <path d="M216.087 167.746l8.098-8.037-1.285-1.275-8.098 8.037zM209.35 157.004l5.374 5.333 1.285-1.276-5.373-5.332z"/>
        </g>
        <g fill="#26344A">
            <path fill-rule="nonzero" d="M87.821 81.816v70.808h98.358V81.816H87.82zM188 80v74.44H86V80h102z"/>
            <path fill-rule="nonzero" d="M187.545 92.71H86.473v1.815h101.072zM147.856 138.008c-5.69-5.672-14.917-5.672-20.607 0l-.644.642 1.288 1.284.644-.642c4.979-4.963 13.052-4.963 18.031 0l.644.642 1.288-1.284-.644-.642zM117.25 193.774l1.555 1.555-23.679-.038 1.55-1.55c5.672-5.672 14.883-5.658 20.574.033zm-17.41-.294l14.245.023c-4.294-2.909-9.96-2.918-14.245-.023zM157.321 193.774l1.555 1.555-23.678-.038 1.55-1.55c5.672-5.672 14.883-5.658 20.573.033zm-17.41-.294l14.245.023c-4.293-2.909-9.96-2.918-14.245-.023z"/>
            <path fill-rule="nonzero" d="M122.181 152.64c-12.35 7.108-14.496 26.197-4.985 42.619l.456.786 1.577-.908-.455-.786c-9.058-15.64-7.04-33.602 4.318-40.138l.788-.454-.91-1.572-.789.454zM162.35 152.64c-12.35 7.108-14.497 26.197-4.985 42.619l.455.786 1.578-.908-.456-.786c-9.058-15.64-7.039-33.602 4.318-40.138l.789-.454-.91-1.572-.79.454z"/>
            <g transform="translate(92.375 86.355)">
                <ellipse cx="1.821" cy="1.816" rx="1.821" ry="1.816"/>
                <ellipse cx="7.286" cy="1.816" rx="1.821" ry="1.816"/>
                <ellipse cx="12.75" cy="1.816" rx="1.821" ry="1.816"/>
            </g>
            <g transform="translate(115.143 106.326)">
                <path fill-rule="nonzero" d="M5.92 18.156C2.53 18.156 0 14.027 0 9.078 0 4.128 2.531 0 5.92 0c3.388 0 5.92 4.129 5.92 9.078 0 4.95-2.532 9.078-5.92 9.078zm0-1.816c2.144 0 4.098-3.187 4.098-7.262 0-4.075-1.954-7.262-4.098-7.262-2.145 0-4.099 3.187-4.099 7.262 0 4.075 1.954 7.262 4.099 7.262zM37.795 18.156c-3.389 0-5.92-4.129-5.92-9.078 0-4.95 2.531-9.078 5.92-9.078 3.388 0 5.92 4.129 5.92 9.078 0 4.95-2.532 9.078-5.92 9.078zm0-1.816c2.144 0 4.098-3.187 4.098-7.262 0-4.075-1.954-7.262-4.098-7.262-2.145 0-4.099 3.187-4.099 7.262 0 4.075 1.954 7.262 4.099 7.262z"/>
                <ellipse cx="5.92" cy="13.617" rx="2.277" ry="3.631"/>
                <ellipse cx="37.795" cy="13.617" rx="2.277" ry="3.631"/>
            </g>
        </g>
    </g>
</svg>
