<?xml version="1.0" encoding="UTF-8"?>
<svg width="16px" height="19px" viewBox="0 0 16 19" version="1.1" xmlns="http://www.w3.org/2000/svg" xmlns:xlink="http://www.w3.org/1999/xlink">
    <!-- Generator: Sketch 48.2 (47327) - http://www.bohemiancoding.com/sketch -->
    <title>excludechilds</title>
    <desc>Created with Sketch.</desc>
    <defs></defs>
    <g id="Page-1" stroke="none" stroke-width="1" fill="none" fill-rule="evenodd">
        <g id="excludechilds" fill="#FFFFFF">
            <polygon id="Shape" points="0 0 11.536 0 11.536 5.116 0 5.116"></polygon>
            <polygon id="Shape" points="2 4 2 14.962 2.696 14.962 2.696 4"></polygon>
            <path d="M2,9.73 L4.947,9.73 L4.947,9 L2,9 L2,9.73 Z M2,15.73 L5.159,15.73 L5.159,15 L2,15 L2,15.73 Z M5.696,11.385 L14.528,11.385 L14.528,7.731 L5.696,7.731 L5.696,11.385 Z M5,7 L15.224,7 L15.224,12.116 L5,12.116 L5,7 Z" id="Shape"></path>
            <path d="M5.696,13.73 L5.696,17.385 L14.528,17.385 L14.528,13.731 L5.696,13.731 L5.696,13.73 Z M5,13 L15.224,13 L15.224,18.116 L5,18.116 L5,13 Z" id="Shape"></path>
        </g>
    </g>
</svg>