<?xml version="1.0" encoding="UTF-8"?>
<svg width="16px" height="19px" viewBox="0 0 16 19" version="1.1" xmlns="http://www.w3.org/2000/svg" xmlns:xlink="http://www.w3.org/1999/xlink">
    <!-- Generator: Sketch 53.2 (72643) - https://sketchapp.com -->
    <title>icinactive</title>
    <desc>Created with Sketch.</desc>
    <g id="Page-1" stroke="none" stroke-width="1" fill="none" fill-rule="evenodd">
        <g id="icinactive" fill="#0D6EFD">
            <polygon id="Path" points="0 0 11.536 0 11.536 5.116 5.24365234 5.116 0 5.116"></polygon>
            <polygon id="Path" points="2 5 2 15 2.696 15 2.696 5"></polygon>
            <path d="M2,9.73 L5,9.73 L5,9 L2,9 L2,9.73 Z M2,15.73 L5,15.73 L5,15 L2,15 L2,15.73 Z M5,7 L15.224,7 L15.224,12.116 L5,12.116 L5,7 Z M5,13 L15.224,13 L15.224,18.116 L5,18.116 L5,13 Z" id="Shape"></path>
        </g>
    </g>
</svg>