<?xml version="1.0" encoding="utf-8"?>
<!-- Generator: Adobe Illustrator 19.1.0, SVG Export Plug-In . SVG Version: 6.00 Build 0)  -->
<svg version="1.1" id="Layer_1" xmlns="http://www.w3.org/2000/svg" xmlns:xlink="http://www.w3.org/1999/xlink" x="0px" y="0px"
	 viewBox="0 0 50 50" style="enable-background:new 0 0 50 50;" xml:space="preserve">
<style type="text/css">
	.st0{fill:#099EAB;}
	.st1{fill:url(#SVGID_1_);}
	.st2{fill:url(#SVGID_2_);}
</style>
<g>
	<g>
		<path class="st0" d="M48.8,17.3C44.6,4.2,30.5-3,17.3,1.2C4.2,5.4-3,19.5,1.2,32.7C5.4,45.8,19.5,53,32.7,48.8
			C45.8,44.6,53,30.5,48.8,17.3z M13,28.8c-2.1-6.6,1.5-13.7,8.1-15.8s13.7,1.5,15.8,8.1c2.1,6.6-1.5,13.7-8.1,15.8
			C22.2,39.1,15.2,35.4,13,28.8z"/>
	</g>
	
		<linearGradient id="SVGID_1_" gradientUnits="userSpaceOnUse" x1="-4980.5874" y1="1083.7186" x2="-4935.8105" y2="1100.0162" gradientTransform="matrix(0.4565 -0.8897 0.8897 0.4565 1321.2189 -4878.7158)">
		<stop  offset="0" style="stop-color:#5BC7DA"/>
		<stop  offset="0.2165" style="stop-color:#59C3D7"/>
		<stop  offset="0.3701" style="stop-color:#50BCCE"/>
		<stop  offset="0.5041" style="stop-color:#3EB0C1"/>
		<stop  offset="0.6263" style="stop-color:#1AA1AF"/>
		<stop  offset="0.65" style="stop-color:#099EAB"/>
	</linearGradient>
	<path class="st1" d="M36.2,30.7c-6.4,12.4-26.7,15.6-35,1.9C5.4,45.8,19.5,53,32.7,48.8C45.8,44.6,53,30.5,48.8,17.3"/>
	
		<linearGradient id="SVGID_2_" gradientUnits="userSpaceOnUse" x1="-237.301" y1="-2178.0464" x2="-192.5239" y2="-2161.7488" gradientTransform="matrix(-0.4565 0.8897 -0.8897 -0.4565 -2007.7284 -780.5253)">
		<stop  offset="5.772783e-04" style="stop-color:#5BC7DA"/>
		<stop  offset="0.2169" style="stop-color:#59C3D7"/>
		<stop  offset="0.3703" style="stop-color:#50BCCE"/>
		<stop  offset="0.5042" style="stop-color:#3EB0C1"/>
		<stop  offset="0.6263" style="stop-color:#1AA1AF"/>
		<stop  offset="0.65" style="stop-color:#099EAB"/>
	</linearGradient>
	<path class="st2" d="M13.8,19.3c6.4-12.4,26.7-15.6,35-1.9C44.6,4.2,30.5-3,17.3,1.2C4.2,5.4-3,19.5,1.2,32.7"/>
</g>
</svg>
