<?xml version="1.0" encoding="UTF-8"?>
<svg width="35px" height="35px" viewBox="0 0 35 35" version="1.1" xmlns="http://www.w3.org/2000/svg" xmlns:xlink="http://www.w3.org/1999/xlink">
    <!-- Generator: Sketch 52.3 (67297) - http://www.bohemiancoding.com/sketch -->
    <title>mattermost</title>
    <desc>Created with Sketch.</desc>
    <g id="mattermost" stroke="none" stroke-width="1" fill="none" fill-rule="evenodd">
        <rect id="Rectangle" fill="#212020" x="0" y="0" width="35" height="35" rx="4"></rect>
        <path d="M21.8966702,15.0146807 C21.8966702,15.0146807 21.9380553,16.8540723 20.6765435,18.1036902 C19.4148695,19.3533081 17.8652858,19.2390948 16.8572774,18.8939935 C15.8491067,18.5488922 14.5496182,17.687862 14.2980623,15.9205101 C14.0466688,14.1529941 15.1845125,12.7171232 15.1845125,12.7171232 L17.6640412,9.59939625 L19.1081337,7.81875227 L20.3477358,6.26702713 C20.3477358,6.26702713 20.9165764,5.49657984 21.0787082,5.3375674 C21.1108424,5.30606029 21.1437881,5.28538376 21.1760847,5.2694661 L21.1996172,5.25732273 L21.2038369,5.25568174 C21.2720004,5.22597972 21.3505507,5.21957984 21.4263421,5.24550757 C21.5005104,5.270943 21.5579625,5.32247025 21.5943164,5.38597676 L21.6019442,5.39828423 L21.6085983,5.41239678 C21.6262884,5.44620129 21.6410571,5.48476468 21.6480358,5.53235354 C21.6811437,5.7583186 21.67027,6.71977773 21.67027,6.71977773 L21.722691,8.713587 L21.8001053,11.0150829 L21.8966702,15.0146807 Z M25.1063272,6.57272382 C29.6922234,9.94743062 31.7954074,16.0717891 29.8830393,21.7998473 C27.5293183,28.8492348 19.9850458,32.6294315 13.0324809,30.2430961 C6.07991604,27.8565967 2.3518018,20.2074254 4.70536105,13.1580379 C6.62096601,7.42062608 11.9748197,3.84916395 17.6496132,4.0048944 L15.8306301,6.18397204 C12.464079,6.80115036 9.55733139,9.13218416 8.41486304,12.5541516 C6.71499832,17.6453395 9.5641289,23.2235748 14.7786335,25.0132442 C19.9929762,26.8030778 25.5981762,24.1267786 27.2980408,19.0355907 C28.4367868,15.6249461 27.53385,11.9960491 25.2463237,9.433635 L25.1063272,6.57272382 Z" id="Shape" fill="#FFFFFF" fill-rule="nonzero"></path>
    </g>
</svg>