<?xml version="1.0" encoding="UTF-8"?>
<svg width="49px" height="50px" viewBox="0 0 49 50" version="1.1" xmlns="http://www.w3.org/2000/svg" xmlns:xlink="http://www.w3.org/1999/xlink">
    <!-- Generator: Sketch 52.3 (67297) - http://www.bohemiancoding.com/sketch -->
    <title>skypeIcon</title>
    <desc>Created with Sketch.</desc>
    <g id="Page-1" stroke="none" stroke-width="1" fill="none" fill-rule="evenodd">
        <path d="M46.4842642,29.8125386 C48.161343,32.0000334 48.9998832,34.4791947 48.9998832,37.2500209 C48.9998832,39.4375156 48.4530095,41.479178 47.3592621,43.3750063 C46.2655147,45.2708345 44.770726,46.7656232 42.8748978,47.8593706 C40.9790695,48.953118 38.9374072,49.4999917 36.7499124,49.4999917 C33.9790862,49.4999917 31.4999249,48.6614514 29.3124301,46.9843727 C27.7082667,47.2760392 26.104105,47.4218716 24.4999416,47.4218716 C20.4166185,47.4218716 16.6614181,46.4192693 13.2343434,44.4140663 C9.80726884,42.4088633 7.09112837,39.6927228 5.08592537,36.2656482 C3.08072238,32.8385736 2.07812005,29.0833731 2.07812005,25.0000501 C2.07812005,23.4688037 2.22395247,21.8646403 2.515619,20.1875615 C0.838540224,18.0000668 0,15.5209054 0,12.7500793 C0,10.5625845 0.546873696,8.52092213 1.64062109,6.62509388 C2.73436848,4.72926562 4.22915714,3.23447696 6.1249854,2.14072957 C8.02081365,1.04698218 10.062476,0.50010848 12.2499708,0.50010848 C15.020797,0.50010848 17.4999583,1.3386487 19.6874531,3.01572748 C21.2916165,2.72406096 22.8957782,2.57822853 24.4999416,2.57822853 C28.5832646,2.57822853 32.3384651,3.58083086 35.7655397,5.58603385 C39.1926143,7.59123685 41.9087548,10.3073773 43.9139578,13.7344519 C45.9191608,17.1615265 46.9217631,20.916727 46.9217631,25.0000501 C46.9217631,26.5312964 46.7759307,28.1354598 46.4842642,29.8125386 Z M25.15619,39.7656399 C28.4374322,39.7656399 31.2447177,39.0000167 33.5780449,37.4687703 C36.1301216,35.7187745 37.4061608,33.3489879 37.4061608,30.3594123 C37.4061608,27.880251 36.3124134,25.875048 34.1249186,24.3438016 C32.5936723,23.3229713 30.3697198,22.4844311 27.4530595,21.8281826 L25.7030637,21.5000584 C23.4426519,20.916727 21.9843226,20.4792281 21.3280741,20.1875615 C20.3801592,19.7500626 19.9062025,19.0938141 19.9062025,18.2188162 C19.9062025,16.6146528 21.4374489,15.812572 24.4999416,15.812572 C25.7395214,15.812572 26.8332688,16.0313215 27.7811838,16.4688204 C28.2915998,16.7604869 28.9478482,17.2344436 29.7499291,17.890692 C30.2603451,18.4740234 30.697844,18.838607 31.0624259,18.9844394 C31.5728419,19.2761059 32.1197156,19.4219384 32.703047,19.4219384 C33.7238774,19.4219384 34.5441879,19.0938141 35.1639787,18.4375657 C35.7837694,17.7813173 36.0936639,16.9427771 36.0936639,15.9219467 C36.0936639,14.1719509 34.8176248,12.7136216 32.2655481,11.5469571 C29.8593038,10.4532098 27.070248,9.90633605 23.8983805,9.90633605 C20.7265131,9.90633605 18.046832,10.5625845 15.8593372,11.8750814 C13.3072605,13.4792448 12.0312213,15.7761143 12.0312213,18.7656899 C12.0312213,20.8073523 12.5416373,22.4479734 13.5624677,23.6875532 C14.3645485,24.7813006 15.6770454,25.6562985 17.4999583,26.3125469 C18.5937057,26.7500459 20.4530762,27.2604619 23.07807,27.8437933 L25.2655648,28.390667 C26.8697282,28.7552489 27.8905585,29.0833731 28.3280575,29.3750396 C29.1301383,29.8125386 29.5311796,30.468787 29.5311796,31.3437849 C29.5311796,32.2187829 29.0936806,32.9297187 28.2186827,33.4765924 C27.3436848,34.0234661 26.19525,34.2969029 24.7733784,34.2969029 C23.3515068,34.2969029 22.0936973,33.9687787 20.9999499,33.3125302 C20.3437015,32.9479483 19.5416206,32.2916999 18.5937057,31.3437849 C17.9374572,30.6146195 17.4270412,30.1406628 17.0624593,29.9219133 C16.4791279,29.5573314 15.8593372,29.3750396 15.2030888,29.3750396 C14.1822584,29.3750396 13.3984056,29.6849342 12.8515319,30.3047249 C12.3046582,30.9245157 12.0312213,31.7083669 12.0312213,32.6562818 C12.0312213,33.9687787 12.6145527,35.1719008 13.7812171,36.2656482 C14.9478816,37.3593956 16.5520433,38.2161638 18.5937057,38.8359546 C20.635368,39.4557453 22.8228628,39.7656399 25.15619,39.7656399 Z" id="skypeIcon" fill="#00AFF0"></path>
    </g>
</svg>