<?xml version="1.0" encoding="UTF-8"?>
<svg width="252px" height="270px" viewBox="0 0 252 270" version="1.1" xmlns="http://www.w3.org/2000/svg" xmlns:xlink="http://www.w3.org/1999/xlink">
    <!-- Generator: Sketch 49.1 (51147) - http://www.bohemiancoding.com/sketch -->
    <title>stroke </title>
    <desc>Created with Sketch.</desc>
    <defs></defs>
    <g id="stroke-" stroke="none" stroke-width="1" fill="none" fill-rule="evenodd" stroke-dasharray="1" stroke-linecap="round">
        <g id="Stroke-1-+-Stroke-3-+-Stroke-5" transform="translate(-38.000000, -19.000000)" stroke="#5BC7DB">
            <path d="M245.648528,244.968768 C301.881289,188.931261 301.881289,98.2415921 245.648528,42.2040844 C189.415534,-13.8336565 98.4096397,-13.8336565 42.1768793,42.2038513 C-14.0558811,98.241359 -14.0558811,188.931028 42.1771133,244.968535 C98.4098736,301.006276 189.415768,301.006276 245.648528,244.968768 L245.648528,244.968768 Z" id="Stroke-1"></path>
            <path d="M111.771817,173.284958 C95.2992,156.869537 95.2992,130.303036 111.771817,113.887615 C128.244435,97.4721943 154.903502,97.4721943 171.37612,113.887615 C187.848737,130.303036 187.848737,156.869537 171.37612,173.284958 C154.903502,189.700379 128.244435,189.700379 111.771817,173.284958 L111.771817,173.284958 Z" id="Stroke-3"></path>
            <path d="M83.7682742,216.106943 C43.5439623,183.68014 37.3256422,125.004843 69.865431,84.9201992 C102.405454,44.835555 161.285194,38.6388263 201.509506,71.0656297 C241.733818,103.492433 247.952138,162.16773 215.412349,202.252374 C182.87256,242.337018 123.992586,248.533747 83.7682742,216.106943 L83.7682742,216.106943 Z" id="Stroke-5"></path>
        </g>
    </g>
</svg>