<?xml version="1.0" encoding="UTF-8"?>
<svg width="43px" height="43px" viewBox="0 0 43 43" version="1.1" xmlns="http://www.w3.org/2000/svg" xmlns:xlink="http://www.w3.org/1999/xlink">
    <!-- Generator: sketchtool 41.2 (35397) - http://www.bohemiancoding.com/sketch -->
    <title>705FC17E-E990-4764-B462-6BC97B9D736F</title>
    <desc>Created with sketchtool.</desc>
    <defs></defs>
    <g id="Symbols" stroke="none" stroke-width="1" fill="none" fill-rule="evenodd">
        <g id="Icons/Twitter" fill="#1DA1F2">
            <g id="Twitter" transform="translate(0.000000, 4.000000)">
                <g id="Group" transform="translate(0.820000, 0.140000)">
                    <path d="M13.5229821,34.9464705 C29.7502085,34.9464705 38.6242475,21.5029508 38.6242475,9.84520515 C38.6242475,9.46336175 38.61647,9.08324986 38.5993424,8.70485507 C40.321916,7.45957489 41.8191035,5.90556472 43,4.13652866 C41.4192667,4.83915054 39.7181928,5.31214403 37.9337174,5.52542398 C39.7551319,4.43322458 41.1534784,2.70549969 41.8131875,0.645856886 C40.1086505,1.65635741 38.2210053,2.39079597 36.2111437,2.787314 C34.6012632,1.07253222 32.3093082,0 29.7714773,0 C24.8995578,0 20.9488067,3.95089531 20.9488067,8.82093904 C20.9488067,9.51322952 21.0262057,10.1866176 21.1775694,10.8325322 C13.8453045,10.4635886 7.34359192,6.95306206 2.99228266,1.61507509 C2.23462731,2.91882293 1.79775043,4.43326786 1.79775043,6.04920872 C1.79775043,9.10995855 3.35525249,11.8119952 5.723683,13.3927285 C4.27627674,13.3480091 2.91660081,12.9506859 1.72820105,12.2893464 C1.72690242,12.3263605 1.72690242,12.3624468 1.72690242,12.4020062 C1.72690242,16.6745314 4.76788407,20.2417507 8.8046339,21.0500819 C8.06331255,21.2521791 7.28334946,21.3605434 6.47833704,21.3605434 C5.91074485,21.3605434 5.35775514,21.3046788 4.82026254,21.2014456 C5.94341286,24.7067631 9.20028617,27.2575804 13.0615753,27.3288613 C10.0420934,29.6955603 6.23837726,31.1051617 2.10437373,31.1051617 C1.39315197,31.1051617 0.690544526,31.0647076 0,30.9830405 C3.90443286,33.4856638 8.54057713,34.9459121 13.5234582,34.9459121" id="Shape"></path>
                </g>
            </g>
        </g>
    </g>
</svg>