<?xml version="1.0" encoding="utf-8"?>
<!-- Generator: Adobe Illustrator 20.0.0, SVG Export Plug-In . SVG Version: 6.00 Build 0)  -->
<svg version="1.1" id="Layer_1" xmlns="http://www.w3.org/2000/svg" xmlns:xlink="http://www.w3.org/1999/xlink" x="0px" y="0px"
	 viewBox="0 0 96 77.5" style="enable-background:new 0 0 96 77.5;" xml:space="preserve">
<style type="text/css">
	.st0{fill:#009DAB;}
</style>
<g>
	<g>
		<path class="st0" d="M63.8,52.1v-0.4H8.6c-2.5,0-4.5-2-4.5-4.5V8.5C4.2,6,6.2,4,8.6,4h72.1c2.5,0,4.5,2,4.5,4.5V11h3.1V8.5
			c0-4.1-3.4-7.5-7.5-7.5H8.6c-4.1,0-7.5,3.4-7.5,7.5v48c0,4.1,3.4,7.5,7.5,7.5h33v6.4H18.5l-3.1,3.1v3.1h58.4v-3.1l-3.1-3.1H47.8
			V64h33c2.7,0,5.1-1.5,6.4-3.7H72C67.5,60.3,63.8,56.6,63.8,52.1z"/>
		<path class="st0" d="M89.7,14.1H72c-2.8,0-5.2,2.3-5.2,5.2v32.8c0,2.8,2.3,5.2,5.2,5.2h17.7c2.8,0,5.2-2.3,5.2-5.2V19.3
			C94.9,16.4,92.6,14.1,89.7,14.1z M80.9,54.9c-1,0-1.8-0.8-1.8-1.8c0-1,0.8-1.8,1.8-1.8c1,0,1.8,0.8,1.8,1.8
			C82.7,54.1,81.9,54.9,80.9,54.9z M92.8,45.8c0,1.7-1.4,3.1-3.1,3.1H72c-1.7,0-3.1-1.4-3.1-3.1V19.3c0-1.7,1.4-3,3.1-3h17.7
			c1.7,0,3.1,1.4,3.1,3V45.8z"/>
		<polygon class="st0" points="63.8,32.6 43,22.2 43,29.5 34.1,29.5 34.1,35.7 43,35.7 43,43 		"/>
	</g>
</g>
</svg>
