<?xml version="1.0" encoding="UTF-8"?>
<svg width="512px" height="512px" viewBox="0 0 512 512" version="1.1" xmlns="http://www.w3.org/2000/svg" xmlns:xlink="http://www.w3.org/1999/xlink">
    <!-- Generator: Sketch 50.2 (55047) - http://www.bohemiancoding.com/sketch -->
    <title>weChat</title>
    <desc>Created with Sketch.</desc>
    <defs>
        <linearGradient x1="50.0555556%" y1="94.1503497%" x2="50.0555556%" y2="0.436538462%" id="linearGradient-1">
            <stop stop-color="#78D431" offset="0%"></stop>
            <stop stop-color="#9EEE69" offset="100%"></stop>
            <stop stop-color="#9EEE69" offset="100%"></stop>
        </linearGradient>
        <linearGradient x1="50.0888889%" y1="93.5351252%" x2="50.0888889%" y2="-0.0360587002%" id="linearGradient-2">
            <stop stop-color="#E4E6E6" offset="0%"></stop>
            <stop stop-color="#F5F5FF" offset="100%"></stop>
        </linearGradient>
    </defs>
    <g id="weChat" stroke="none" stroke-width="1" fill="none" fill-rule="evenodd">
        <g id="Full-Emblem-2" transform="translate(8.000000, 56.000000)">
            <g id="symbol">
                <path d="M0,149.111599 C0,193.845078 24.3781223,234.712702 62.0534022,261.773696 C65.3776916,263.982756 67.0398363,267.296348 67.0398363,271.714469 C67.0398363,272.818999 66.4857881,274.475795 66.4857881,275.580325 C63.7155469,286.625629 58.7291128,304.85038 58.1750646,305.402645 C57.6210164,307.059441 57.0669681,308.163971 57.0669681,309.820766 C57.0669681,313.134358 59.8372093,315.895683 63.1614987,315.895683 C64.2695952,315.895683 65.3776916,315.343418 66.4857881,314.791153 L105.823213,292.148281 C108.593454,290.491485 111.917743,289.386955 115.242033,289.386955 C116.904177,289.386955 119.12037,289.386955 120.782515,289.93922 C139.066107,295.461872 159.011843,298.223198 179.511628,298.223198 C278.686262,298.223198 359.023256,231.399111 359.023256,149.111599 C359.023256,66.8240869 278.686262,0 179.511628,0 C80.336994,3.92408012e-14 0,66.8240869 0,149.111599" id="XMLID_140_" fill="url(#linearGradient-1)"></path>
                <path d="M346.767442,385.976788 C363.90155,385.976788 380.482946,383.751127 395.406202,379.299805 C396.511628,378.74339 398.169767,378.74339 399.827907,378.74339 C402.591473,378.74339 405.355039,379.856221 407.565891,380.969051 L440.175969,399.88717 C441.281395,400.443585 441.834109,401 442.939535,401 C445.703101,401 447.913953,398.774339 447.913953,395.992263 C447.913953,394.879432 447.36124,393.766602 447.36124,392.097356 C447.36124,391.540941 442.939535,376.517729 440.728682,367.05867 C440.175969,365.94584 440.175969,364.833009 440.175969,363.720179 C440.175969,360.381687 441.834109,357.599611 444.597674,355.37395 C476.102326,332.560925 496,298.619595 496,260.783358 C496,191.787868 429.121705,135.589928 346.767442,135.589928 C264.413178,135.589928 197.534884,191.231453 197.534884,260.783358 C197.534884,329.778849 264.413178,385.976788 346.767442,385.976788 Z" id="XMLID_137_" fill="url(#linearGradient-2)"></path>
                <path d="M142.744186,100.971223 C142.744186,113.852602 132.550568,124.05036 119.674419,124.05036 C106.798269,124.05036 96.6046512,113.852602 96.6046512,100.971223 C96.6046512,88.0898444 106.798269,77.8920863 119.674419,77.8920863 C132.550568,77.8920863 142.744186,88.0898444 142.744186,100.971223" id="XMLID_135_" fill="#187E28"></path>
                <path d="M262.418605,100.971223 C262.418605,113.852602 252.224986,124.05036 239.348837,124.05036 C226.472688,124.05036 216.27907,113.852602 216.27907,100.971223 C216.27907,88.0898444 226.472688,77.8920863 239.348837,77.8920863 C252.224986,77.8920863 262.418605,88.0898444 262.418605,100.971223" id="XMLID_134_" fill="#187E28"></path>
                <path d="M377.767442,222.136691 C377.767442,233.355715 386.739018,242.330935 397.953488,242.330935 C409.167959,242.330935 418.139535,233.355715 418.139535,222.136691 C418.139535,210.917666 409.167959,201.942446 397.953488,201.942446 C386.739018,201.942446 377.767442,210.917666 377.767442,222.136691" id="XMLID_133_" fill="#858C8C"></path>
                <path d="M278.27907,222.136691 C278.27907,233.355715 287.250646,242.330935 298.465116,242.330935 C309.679587,242.330935 318.651163,233.355715 318.651163,222.136691 C318.651163,210.917666 309.679587,201.942446 298.465116,201.942446 C287.250646,201.942446 278.27907,210.917666 278.27907,222.136691" id="XMLID_132_" fill="#858C8C"></path>
            </g>
        </g>
    </g>
</svg>