<?xml version="1.0" encoding="UTF-8"?>
<svg width="43px" height="43px" viewBox="0 0 43 43" version="1.1" xmlns="http://www.w3.org/2000/svg" xmlns:xlink="http://www.w3.org/1999/xlink">
    <!-- Generator: sketchtool 41.2 (35397) - http://www.bohemiancoding.com/sketch -->
    <title>3ECD0A4B-8848-490B-866F-C33FF0AACE64</title>
    <desc>Created with sketchtool.</desc>
    <defs>
        <linearGradient x1="-1380.60714%" y1="97.6428571%" x2="-1380.60714%" y2="1.21428571%" id="linearGradient-1">
            <stop stop-color="#197CF1" offset="0%"></stop>
            <stop stop-color="#20BCFA" offset="100%"></stop>
        </linearGradient>
        <linearGradient x1="78.6075338%" y1="8.15334449%" x2="32.1601915%" y2="72.4287123%" id="linearGradient-2">
            <stop stop-color="#5BC7DA" offset="0.05772783%"></stop>
            <stop stop-color="#099EAB" offset="100%"></stop>
        </linearGradient>
    </defs>
    <g id="Symbols" stroke="none" stroke-width="1" fill="none" fill-rule="evenodd">
        <g id="Icons/SDK">
            <g id="Group" transform="translate(0.022515, 0.261145)">
                <ellipse id="Oval" fill="url(#linearGradient-1)" cx="21.4801818" cy="20.8192649" rx="20.6398452" ry="20.6398452"></ellipse>
                <ellipse id="Oval" fill="url(#linearGradient-2)" cx="21.4801818" cy="20.8192649" rx="20.6398452" ry="20.6398452"></ellipse>
            </g>
            <path d="M32.9284478,20.4836443 L29.4564963,17.0102184 C29.1262554,16.6799776 29.2294557,16.3261482 29.6850111,16.2244222 C29.6850111,16.2244222 30.0609549,16.1389134 30.5253561,15.6759865 C31.5205014,14.6808412 31.5205014,13.06502 30.5253561,12.0713489 C29.5287365,11.0762036 27.9158638,11.0762036 26.9192442,12.0713489 C26.4548431,12.5357501 26.3708086,12.9116939 26.3708086,12.9116939 C26.2676083,13.3687236 25.9137788,13.4704496 25.583538,13.1387345 L22.1115865,9.66678294 C21.7813457,9.33654211 21.2402814,9.33654211 20.9100406,9.66678294 L17.4380891,13.1387345 C17.1078483,13.4704496 17.2110485,13.824279 17.6666039,13.926005 C17.6666039,13.926005 18.044022,14.0115138 18.5069489,14.4744407 C19.50062,15.469586 19.5020942,17.0854072 18.5069489,18.0805525 C17.5118036,19.0756979 15.8959824,19.0742236 14.900837,18.0805525 C14.4379102,17.6161514 14.3524014,17.2402076 14.3524014,17.2402076 C14.2506754,16.7831779 13.8953717,16.6814519 13.5651308,17.0116927 L10.0931793,20.4836443 C9.76293847,20.8138851 9.76293847,21.3549493 10.0931793,21.6851901 L13.5651308,25.1571417 C13.8953717,25.4873825 13.7921714,25.8412119 13.336616,25.9444122 C13.336616,25.9444122 12.9606722,26.029921 12.496271,26.4928479 C11.5011257,27.4879932 11.5011257,29.1023401 12.496271,30.0974854 C13.4914164,31.0926308 15.1057633,31.0926308 16.1023829,30.0974854 C16.566784,29.6330843 16.6508185,29.2571405 16.6508185,29.2571405 C16.7540188,28.8001108 17.1078483,28.6983848 17.4380891,29.0300999 L20.9100406,32.5020515 C21.2402814,32.8322923 21.7813457,32.8322923 22.1115865,32.5020515 L25.5850123,29.0300999 C25.9152531,28.6998591 25.8120529,28.3445553 25.3564974,28.2428294 C25.3564974,28.2428294 24.9790794,28.1573206 24.5161525,27.6943937 C23.5195329,26.6992484 23.5210071,25.0834272 24.5161525,24.0882818 C25.5112978,23.0931365 27.1256447,23.0916622 28.1222644,24.0882818 C28.5866655,24.552683 28.6707,24.9286268 28.6707,24.9286268 C28.7739003,25.3856565 29.1277297,25.4888568 29.4579706,25.1571417 L32.9299221,21.6837158 C33.2601629,21.353475 33.2601629,20.8124108 32.9299221,20.48217" id="Shape" fill-opacity="0.851" fill="#FFFFFF"></path>
        </g>
    </g>
</svg>