<?xml version="1.0" encoding="UTF-8"?>
<svg width="20px" height="20px" viewBox="0 0 20 20" version="1.1" xmlns="http://www.w3.org/2000/svg" xmlns:xlink="http://www.w3.org/1999/xlink">
    <!-- Generator: Sketch 53.2 (72643) - https://sketchapp.com -->
    <title>menu-green</title>
    <desc>Created with Sketch.</desc>
    <g id="Page-1" stroke="none" stroke-width="1" fill="none" fill-rule="evenodd">
        <g id="menu-green" fill="#009DAB" fill-rule="nonzero">
            <path d="M2.26948936,4.53902128 L17.7021277,4.53902128 C18.9539149,4.53902128 19.971617,3.52085106 19.971617,2.26953191 C19.971617,1.01821277 18.9539149,0 17.7021277,0 L2.26948936,0 C1.01774468,0 0,1.01817021 0,2.26948936 C0,3.52080851 1.01774468,4.53902128 2.26948936,4.53902128 Z" id="Path"></path>
            <path d="M17.7021277,7.71629787 L2.26948936,7.71629787 C1.01774468,7.71629787 0,8.73446809 0,9.98582979 C0,11.2371915 1.01774468,12.2553191 2.26948936,12.2553191 L17.7021277,12.2553191 C18.9539149,12.2553191 19.971617,11.2371489 19.971617,9.98582979 C19.971617,8.73451064 18.9539149,7.71629787 17.7021277,7.71629787 Z" id="Path"></path>
            <path d="M17.7021277,15.4326383 L2.26948936,15.4326383 C1.01774468,15.4326383 0,16.4508085 0,17.7021277 C0,18.9534468 1.01774468,19.971617 2.26948936,19.971617 L17.7021277,19.971617 C18.9539149,19.971617 19.971617,18.9534468 19.971617,17.7021277 C19.971617,16.4508085 18.9539149,15.4326383 17.7021277,15.4326383 Z" id="Path"></path>
        </g>
    </g>
</svg>