<svg width="16" height="16" viewBox="0 0 16 16" fill="none" xmlns="http://www.w3.org/2000/svg">
<path d="M9.62442 1.77734C9.9036 1.77734 10.1329 1.99115 10.1575 2.26399L10.1597 2.31273V3.12483C10.1597 3.42051 9.92002 3.66021 9.62442 3.66021C9.34523 3.66021 9.11597 3.4464 9.09136 3.17356L9.08917 3.12483V2.31273C9.08917 2.01704 9.32881 1.77734 9.62442 1.77734Z" fill="#5F6368"/>
<path d="M7.56574 8.43534C7.35678 8.22619 7.01788 8.22608 6.80879 8.43509L1.93424 13.3077L1.89951 13.3459C1.72585 13.5562 1.73732 13.868 1.93399 14.0649C2.14295 14.274 2.48185 14.2741 2.69094 14.0651L7.56549 9.19248L7.60022 9.1543C7.77388 8.94404 7.76241 8.63218 7.56574 8.43534Z" fill="#5F6368"/>
<path d="M10.1575 9.57769C10.1329 9.30484 9.9036 9.09104 9.62442 9.09104C9.32881 9.09104 9.08917 9.33074 9.08917 9.62642V10.4385L9.09136 10.4873C9.11597 10.7601 9.34523 10.9739 9.62442 10.9739C9.92002 10.9739 10.1597 10.7342 10.1597 10.4385V9.62642L10.1575 9.57769Z" fill="#5F6368"/>
<path d="M6.90996 6.37589C6.90996 6.08021 6.67032 5.84051 6.37472 5.84051H5.56229L5.51357 5.8427C5.2408 5.86731 5.02705 6.09663 5.02705 6.37589C5.02705 6.67157 5.26668 6.91127 5.56229 6.91127H6.37472L6.42343 6.90908C6.69621 6.88447 6.90996 6.65515 6.90996 6.37589Z" fill="#5F6368"/>
<path d="M13.6865 5.84051C13.9822 5.84051 14.2218 6.08021 14.2218 6.37589C14.2218 6.65515 14.008 6.88447 13.7353 6.90908L13.6865 6.91127H12.8741C12.5785 6.91127 12.3389 6.67157 12.3389 6.37589C12.3389 6.09663 12.5526 5.86731 12.8254 5.8427L12.8741 5.84051H13.6865Z" fill="#5F6368"/>
<path d="M13.2527 2.74691C13.0438 2.53776 12.7049 2.53765 12.4958 2.74666L11.6833 3.55877L11.6486 3.59695C11.475 3.80721 11.4864 4.11906 11.6831 4.31591C11.8921 4.52506 12.2309 4.52517 12.44 4.31616L13.2525 3.50405L13.2872 3.46587C13.4609 3.25561 13.4494 2.94375 13.2527 2.74691Z" fill="#5F6368"/>
<path d="M5.99612 2.74691C6.19278 2.55006 6.50455 2.53839 6.71487 2.71195L6.75307 2.74666L7.56549 3.55877C7.77459 3.76778 7.7747 4.10676 7.56574 4.31591C7.36907 4.51275 7.0573 4.52443 6.84698 4.35087L6.80879 4.31616L5.99636 3.50405C5.78727 3.29504 5.78716 2.95606 5.99612 2.74691Z" fill="#5F6368"/>
<path d="M12.4019 8.40038C12.1915 8.22682 11.8798 8.23849 11.6831 8.43534C11.4741 8.64449 11.4742 8.98347 11.6833 9.19248L12.4958 10.0046L12.534 10.0393C12.7443 10.2129 13.0561 10.2012 13.2527 10.0043C13.4617 9.79519 13.4616 9.45621 13.2525 9.2472L12.44 8.43509L12.4019 8.40038Z" fill="#5F6368"/>
</svg>
