<?xml version="1.0" encoding="UTF-8"?>
<svg width="12px" height="12px" viewBox="0 0 12 12" version="1.1" xmlns="http://www.w3.org/2000/svg" xmlns:xlink="http://www.w3.org/1999/xlink">
    <!-- Generator: Sketch 53.2 (72643) - https://sketchapp.com -->
    <title>clone-green</title>
    <desc>Created with Sketch.</desc>
    <g id="Page-1" stroke="none" stroke-width="1" fill="none" fill-rule="evenodd">
        <g id="clone-green" transform="translate(-2.000000, -2.000000)" fill-rule="nonzero">
            <polygon id="Path" fill-opacity="0" fill="#D8D8D8" points="0 0 16 0 16 16 0 16"></polygon>
            <path d="M4.796,2.285 C4.986,1.905 5.529,1.905 5.72,2.285 L8.462,7.77 C8.534,7.916 8.534,8.087 8.462,8.232 L5.72,13.715 C5.53,14.095 4.987,14.095 4.796,13.715 L2.054,8.23 C1.982,8.085 1.982,7.914 2.054,7.768 L4.796,2.285 Z M11.181,2.245 L11.203,2.285 L13.945,7.769 C14.01,7.899 14.017,8.048 13.967,8.181 L13.945,8.231 L11.203,13.715 C11.076,13.97 10.766,14.073 10.511,13.945 C10.271,13.825 10.165,13.542 10.261,13.295 L10.281,13.253 L12.905,8 L10.28,2.747 C10.153,2.492 10.256,2.182 10.511,2.055 C10.751,1.935 11.041,2.02 11.181,2.245 L11.181,2.245 Z M8.439,2.245 L8.462,2.285 L11.203,7.769 C11.268,7.899 11.275,8.048 11.225,8.181 L11.203,8.231 L8.462,13.715 C8.334,13.97 8.024,14.073 7.769,13.945 C7.529,13.825 7.423,13.542 7.519,13.295 L7.539,13.253 L10.163,8 L7.538,2.747 C7.411,2.492 7.514,2.182 7.769,2.055 C8.009,1.935 8.299,2.02 8.439,2.245 Z M5.258,3.67 L3.093,8 L5.258,12.328 L7.422,8 L5.258,3.67 Z" id="Shape" fill="#009DAB"></path>
        </g>
    </g>
</svg>