<svg width="16" height="16" viewBox="0 0 16 16" fill="none" xmlns="http://www.w3.org/2000/svg">
<path d="M13.1543 4.43359L7.084 10.5002C6.91786 10.6662 6.64859 10.6662 6.48251 10.5001L4.42969 8.44727C4.23445 8.25202 4.23445 7.93548 4.42969 7.74023C4.62493 7.54499 4.94148 7.54499 5.13672 7.74023L6.7832 9.38672L12.5215 3.65234C11.334 2.38672 9.6543 1.59375 7.78321 1.59375C4.19336 1.59375 1.2832 4.50391 1.2832 8.09375C1.2832 11.6836 4.19336 14.5938 7.78321 14.5938C11.373 14.5938 14.2832 11.6836 14.2832 8.09375C14.2832 6.73438 13.8652 5.47656 13.1543 4.43359Z" fill="#0D6EFD"/>
</svg>
