<svg xmlns="http://www.w3.org/2000/svg" width="200" height="113" viewBox="0 0 200 113">
    <defs>
        <linearGradient id="a" x1="50.005%" x2="50.005%" y1="100.027%" y2="-.01%">
            <stop offset="0%" stop-color="gray" stop-opacity=".25"/>
            <stop offset="54%" stop-color="gray" stop-opacity=".12"/>
            <stop offset="100%" stop-color="gray" stop-opacity=".1"/>
        </linearGradient>
        <linearGradient id="b" x1="50.945%" x2="49.022%" y1="100.245%" y2="-.814%">
            <stop offset="0%" stop-color="gray" stop-opacity=".25"/>
            <stop offset="54%" stop-color="gray" stop-opacity=".12"/>
            <stop offset="100%" stop-color="gray" stop-opacity=".1"/>
        </linearGradient>
        <linearGradient id="c" x1="50.006%" x2="50.006%" y1="99.984%" y2="-.001%">
            <stop offset="0%" stop-color="gray" stop-opacity=".25"/>
            <stop offset="54%" stop-color="gray" stop-opacity=".12"/>
            <stop offset="100%" stop-color="gray" stop-opacity=".1"/>
        </linearGradient>
    </defs>
    <g fill="none" fill-rule="nonzero">
        <path fill="#009688" d="M115.242 23.788c-12.59.096-24.684-2.737-36.25-5.894-11.565-3.156-23.036-6.701-35.379-8.148-7.939-.936-16.974-.789-23.216 2.834-6.005 3.483-7.78 9.19-8.657 14.458-.66 3.965-.983 8.124 1.341 11.733 1.614 2.503 4.393 4.557 6.349 6.942 6.807 8.297 2.587 18.974-4.164 27.547-3.162 4.016-6.863 7.881-9.272 12.133-2.409 4.251-3.412 9.054-1.03 13.215 2.363 4.125 7.747 7.096 13.537 9.114 11.76 4.099 25.474 4.906 38.829 5.167 29.56.574 59.198-1.176 88.754-2.925 10.938-.646 21.926-1.298 32.646-3.038 5.953-.965 12.086-2.379 16.324-5.42 5.381-3.862 6.527-10.119 2.67-14.586-6.472-7.492-23.665-8.8-28.291-16.923-2.546-4.47-.28-9.63 3.025-13.978 7.106-9.327 19.276-17.714 19.563-28.1.197-7.13-6.05-14.044-15.423-17.082-9.829-3.189-23.27-2.266-30.22 3.83-7.145 6.265-20.016 9.038-31.136 9.12z" opacity=".1"/>
        <path fill="#009688" d="M164.865 97.65s-2.263-1.694-4.505-.49c0 0 .69 1.51 3.53 1.366l.975-.875zM165.616 98.536s.759 2.152-1.14 3.616c0 0-1.144-.887-.011-3.06l1.151-.556zM167.568 95.744s-.145-2.348-4.505-1.57c0 0-.02 1.516 1.511 2.234 1.53.717 2.23.112 2.994-.664zM168.266 95.824s2.306.685.25 5.424c0 0-1.52-.314-1.796-2.2-.275-1.886.547-2.539 1.546-3.224zM171.168 92.352s.268-3.157-4.494-2.833c0 0-.34 2.852 3.654 3.593l.84-.76zM173.874 88.631s-.652-3.632-5.406-2.55c0 0-.018 3.14 4.63 3.415l.776-.865zM176.577 84.267s-1.188-3.841-6.307-2.693c0 0 1.219 3.455 5.966 3.401l.34-.708zM178.378 80.683s-1.027-3.884-5.405-2.722c0 0 1.461 3.69 5.115 3.38l.29-.658zM180.18 77.057s-.876-4.728-5.405-3.682c0 0 1.314 4.301 5.07 4.369l.335-.687zM181.982 71.603s-1.008-4.984-5.405-3.54c0 0 1.724 4.709 5.095 4.222l.31-.682zM182.883 67.78s-1.444-4.622-4.505-4.498c0 0 1.477 4.885 4.241 5.422l.264-.923zM183.784 63.273s-1.741-5.842-4.505-5.392c0 0 1.207 4.466 4.406 6.303l.099-.91zM183.784 58.4s-1.689-4.87-4.505-5.064c0 0 1.148 4.791 4.447 6.328l.058-1.264zM182.883 53.365s-1.915-5.332-3.604-5.453c0 0 .832 5.25 3.44 6.328l.164-.875zM183.784 49.31s-1.108-5.466-2.703-5.918c0 0 .218 4.47 2.542 6.328l.16-.41zM184.685 44.091s-1.283-4.528-2.703-5.219c0 0 .282 5.34 2.375 6.328l.328-1.109zM185.233 40.228l.353-7.684s-3.604 5.8-.619 9.04l.266-1.356z"/>
        <path fill="#009688" d="M186.678 32.65s2.02-6.094 2.511-6.434c0 0-3.964 3.954-3.577 9.04l1.066-2.606zM170.957 92.22s3.006-.46 2.915 4.487c0 0-2.716.514-3.602-3.575l.687-.913zM173.774 88.592s4.019-.011 3.684 4.497c0 0-3.371.54-4.485-3.645l.801-.852zM176.898 85.242s3.649-1.395 5.985 2.206c0 0-3.372 1.161-6.306-1.624l.32-.582zM178.689 80.783s3.778-1.562 5.996 2.142c0 0-3.934 1.151-6.307-1.555l.31-.587zM179.459 76.377s3.907-3.049 7.027.034c0 0-3.993 2.507-7.207.645l.18-.68zM182.105 71.817s3.46-3.027 6.183.139c0 0-3.884 2.486-6.306.496l.123-.635zM181.982 67.68s2.897-4.322 6.306-3.355c0 0-3.004 4.576-6.275 4.372l-.031-1.016zM182.953 63.283s2.742-5.346 5.335-4.414c0 0-1.976 4.108-5.405 5.315l.07-.901zM183.183 58.331s3.101-4.605 6.006-4.044c0 0-2.536 4.67-6.306 5.377l.3-1.333zM183.784 53.458s1.987-4.609 3.603-4.642c0 0-.955 4.577-3.47 5.424l-.133-.782zM183.784 49.283s2.571-4.978 4.504-4.987c0 0-1.315 4.256-4.419 5.424l-.085-.437zM184.685 44.156s1.478-3.934 2.702-4.38c0 0-.739 4.796-2.54 5.424l-.162-1.044z"/>
        <path fill="#009688" d="M186.158 40.275l3.932-6.827s-1.007 6.736-4.504 8.136l.572-1.31zM188.553 32.752s4.962-3.29 5.14-3.824c0 0-2.522 4.61-7.207 5.424l2.067-1.6zM188.424 31.64s5.633-5.43 7.071-5.424c0 0-4.646.213-7.207 5.136l.136.288z"/>
        <path fill="#444053" d="M184.685 45.172l.203.028c1.047-8.571 2.575-13.64 4.301-14.261l-.067-.203c-1.83.664-3.365 5.655-4.437 14.436zM182.883 65.06l.308.028a62.04 62.04 0 0 0 .146-2.393c.294-6.971.748-13.374 1.348-18.173l-.177-.226c-.6 4.808-1.183 11.404-1.477 18.386a58.164 58.164 0 0 1-.148 2.379z"/>
        <path fill="#444053" d="M159.626 102.152c.055-.023 5.526-2.452 11.205-8.244a44.811 44.811 0 0 0 8.19-11.539c2.625-5.313 4.225-11.842 4.763-18.185l-.325.15C182.255 78.573 175.73 88.3 170.545 93.6c-5.623 5.74-11.032 8.143-11.086 8.166l.167.387z"/>
        <path fill="#FFF" d="M171.171 5.565V98.06c0 2.75-2.627 4.996-5.872 4.996H41.007c-3.244 0-5.872-2.237-5.872-4.996V5.565C35.135 2.81 37.763 0 41.007 0l124.285.305c3.244 0 5.88 2.514 5.88 5.26z"/>
        <path fill="#3F3D56" d="M171.171 5.12v3.92H35.135V5.12c0-1.359.585-2.662 1.625-3.622S39.21-.002 40.68 0h124.953c3.059 0 5.538 2.293 5.538 5.12z"/>
        <ellipse cx="42.342" cy="5.424" fill="#FA5959" opacity=".8" rx="1.802" ry="1.808"/>
        <ellipse cx="47.748" cy="5.424" fill="#FED253" opacity=".8" rx="1.802" ry="1.808"/>
        <ellipse cx="54.054" cy="5.424" fill="#8CCF4D" opacity=".8" rx="1.802" ry="1.808"/>
        <path fill="#009688" d="M116.11 34.102v9.643c0 .288-.553.517-1.238.517H88.746c-.683 0-1.238-.233-1.238-.517v-9.643c0-.287.551-.58 1.238-.58h26.126c.686-.002 1.238.291 1.238.58z" opacity=".2"/>
        <path fill="#009688" d="M100 36.16h13.514v1H100z"/>
        <path fill="#009688" d="M93.243 35.256c-1.392 0-2.619.997-3.02 2.451-.4 1.455.12 3.024 1.281 3.862v-.228c.001-.395.272-.728.631-.776.22.438.64.71 1.098.71.457 0 .878-.272 1.097-.71.36.048.63.38.631.776v.243c1.171-.83 1.702-2.403 1.305-3.864-.397-1.46-1.626-2.463-3.023-2.464zm1.238 4.365c-.043.717-.588 1.275-1.247 1.275-.66 0-1.205-.558-1.248-1.275a1.62 1.62 0 0 1-.03-1.167c.135-.377.405-.679.748-.835a.495.495 0 0 1-.068-.247c0-.12.044-.237.123-.322a.4.4 0 0 1 .296-.132h.029c-.218.016-.387.214-.387.452 0 .08.02.158.055.227h.012a.537.537 0 0 1 0-.09.47.47 0 0 1 .08-.265.42.42 0 0 1 .397-.32h.03a.408.408 0 0 0-.318.203.38.38 0 0 1 .23-.075c.23 0 .416.203.416.454v.051c.6.175 1.016.768 1.017 1.445-.005.215-.05.426-.135.62zM100 37.968h13.514v1H100z" opacity=".2"/>
        <path fill="#009688" d="M100 38.872h13.514v1H100zM100 40.68h13.514v1H100zM84.683 53.934v9.642c0 .286-.538.517-1.207.517H58.01c-.665 0-1.207-.234-1.207-.517v-9.642c0-.288.538-.58 1.207-.58h25.47c.665 0 1.203.292 1.203.58z" opacity=".2"/>
        <path fill="#009688" d="M69.369 56.048h13.514v1H69.369z"/>
        <path fill="#009688" d="M62.612 55.144c-1.391 0-2.618.996-3.019 2.45-.4 1.456.12 3.026 1.282 3.863v-.23c0-.395.271-.727.63-.773.22.437.64.71 1.097.71.457 0 .877-.273 1.097-.71.359.046.63.378.63.773v.245c1.172-.83 1.703-2.402 1.307-3.864-.397-1.462-1.627-2.465-3.024-2.464zm1.235 4.363c-.042.718-.587 1.276-1.246 1.276-.658 0-1.203-.558-1.246-1.276a1.627 1.627 0 0 1-.123-.62c0-.603.331-1.147.84-1.38a.481.481 0 0 1-.066-.245c0-.252.186-.456.416-.457h.032a.416.416 0 0 0-.34.239.491.491 0 0 0 .006.44h.014a.65.65 0 0 1 .477-.675h.015a.413.413 0 0 0-.318.204.389.389 0 0 1 .228-.076c.231 0 .418.204.418.456v.051c.392.113.718.41.89.81.172.4.172.864.002 1.265l.001-.012zM69.369 57.856h13.514v1H69.369z" opacity=".2"/>
        <path fill="#009688" d="M69.369 58.76h13.514v1H69.369z" opacity=".2"/>
        <path fill="#009688" d="M69.369 59.664h13.514v1H69.369zM78.22 22.364v9.643c0 .286-.553.516-1.239.516H50.858c-.68 0-1.238-.234-1.238-.516v-9.643c0-.287.554-.58 1.238-.58h26.127c.682 0 1.234.293 1.234.58z" opacity=".2"/>
        <path fill="#009688" d="M62.162 24.408h13.514v1H62.162z"/>
        <path fill="#009688" d="M62.162 26.216h13.514v1H62.162z" opacity=".2"/>
        <path fill="#009688" d="M62.162 27.12h13.514v1H62.162z" opacity=".2"/>
        <path fill="#009688" d="M62.162 28.024h13.514v1H62.162zM55.394 23.504c-1.39.007-2.612 1.005-3.01 2.458-.397 1.453.123 3.02 1.281 3.857v-.583c.001-.395.272-.728.631-.775.22.437.64.71 1.098.71.457 0 .878-.273 1.098-.71.36.047.631.38.631.775v.596c1.173-.832 1.703-2.407 1.304-3.869-.4-1.462-1.634-2.463-3.033-2.459zm1.383 4.202a.23.23 0 0 1-.041.059.164.164 0 0 1-.092.034h-.064c-.18.648-.766 1.055-1.38.957-.614-.097-1.07-.67-1.073-1.346 0-.235.056-.467.164-.671l-.014-.01a.484.484 0 0 1 .042-.632.79.79 0 0 1 .26-.103c.273-.089.507-.284.656-.55.004.07.004.14 0 .208a.27.27 0 0 1 .195-.097.266.266 0 0 1 .201.082.85.85 0 0 0 .112.14c.044.025.091.04.14.043l.315.044c.13.003.256.053.358.141a.635.635 0 0 1 .12.23c.092.233.161.477.205.726.044.252.01.513-.095.742l-.009.003zM122.483 68.454v9.643c0 .288-.538.517-1.207.517H95.808c-.665 0-1.207-.233-1.207-.517v-9.643c0-.287.538-.578 1.207-.578h25.472c.665-.009 1.203.282 1.203.578z" opacity=".2"/>
        <path fill="#009688" d="M107.207 71.416h13.514v1h-13.514z"/>
        <path fill="#009688" d="M107.207 72.32h13.514v1h-13.514zM107.207 74.128h13.514v1h-13.514z" opacity=".2"/>
        <path fill="#009688" d="M107.207 75.032h13.514v1h-13.514zM99.55 70.512c-1.392 0-2.62.997-3.02 2.451-.4 1.455.12 3.024 1.28 3.862v-.583c.002-.394.273-.726.631-.773.22.437.64.71 1.098.71.457 0 .878-.273 1.098-.71.359.046.63.378.63.773v.598c1.171-.83 1.702-2.403 1.305-3.864-.396-1.46-1.626-2.463-3.023-2.464zm1.382 4.2a.21.21 0 0 1-.041.06.164.164 0 0 1-.092.035h-.066c-.134.507-.523.884-1 .969-.477.085-.956-.137-1.231-.57a1.471 1.471 0 0 1-.055-1.46h-.014a.484.484 0 0 1 .041-.631.79.79 0 0 1 .26-.104c.273-.088.507-.282.656-.547.005.07.005.139 0 .208.05-.06.121-.095.195-.098a.266.266 0 0 1 .201.083c.033.05.07.096.113.137a.31.31 0 0 0 .14.045l.314.044c.13.003.256.052.358.141a.635.635 0 0 1 .12.23c.092.233.161.477.205.727.041.249.007.506-.099.731h-.005z" opacity=".2"/>
        <path fill="url(#a)" d="M91.89 101.988L88.015 96.3s-.072-1.41-.326-1.738c-.255-.33-.055-1.06-.055-1.06s.272-.403.037-.44c-.235-.038-.037-.934-.037-.934l-.018-1.43s.218-1.374.037-1.703a.542.542 0 0 1 .018-.585s.217-.787 0-.989c-.217-.202-.164-1.43-.11-2.396.055-.966-.38-1.518-.38-1.665 0-.146-1.43-1.572-1.43-1.7 0-.13-.907-.658-1.451-.805-.544-.147-.814-.256-.797-.33.018-.072-.851-.357-.851-.357s-.76-.055-1.052-.438c-.291-.383-1.174-.497-1.201-.499l-.016-.077-.016-.082a5.29 5.29 0 0 0 .239-.468c.319.001.63-.097.892-.281a1.23 1.23 0 0 0 .433-.878 1.956 1.956 0 0 0-.21-.975c-.16-.329-.393-.67-.313-1.028.035-.154.127-.29.177-.44.07-.295.023-.607-.131-.867-.136-.265-.327-.5-.48-.757a2.96 2.96 0 0 1-.382-1.073 1.669 1.669 0 0 0-.142-.583 1.11 1.11 0 0 0-.318-.325 3.153 3.153 0 0 0-1.943-.597c-.493.018-.986.152-1.475.09a5.354 5.354 0 0 1-.86-.226c-.609-.179-1.31-.258-1.838.095-.528.352-.74 1.044-1.1 1.586-.317.477-.78.88-1.022 1.387v-.03a1.777 1.777 0 0 0-.134.37c-.067.405-.04.82.08 1.213.027.21.132.4.292.536.177.116.424.09.635.127a4.161 4.161 0 0 0-.115.975c0 1.854 1.202 3.488 2.957 4.018v.11c0 .106-.006.21-.017.315 0 0-1.822-.379-2.31-.121-.487.257-1.45.456-1.59.602-.14.147-.507.038-.833.895-.327.856-.363 1.738-.778 2.145-.415.408-.634.678-.653.971-.02.294.054.358-.108.456-.163.099-.4.476-.327.623a.522.522 0 0 1-.2.549.613.613 0 0 0-.252.549s-.11.402-.363.493c-.252.091-.416.696-.416.696l-.822.957-1.629-1.824a.681.681 0 0 0-.968-.05l-.802.72a1.576 1.576 0 0 0-.8.483 2.103 2.103 0 0 0-.414.624l-.438.399a1.134 1.134 0 0 0-.113 1.243l1.044 1.167v.011c-.37.031-.722.176-1.009.415-1.556 1.391-1.576 2.672-1.34 3.256.238.585 2.211 2.836 2.211 2.836s1.147 1.51 2.802 2.313l-.012.012a1.56 1.56 0 0 0-.097.115l-.027.035a.256.256 0 0 0-.025.036l-.03.043-.023.036-.031.053-.02.034-.037.072-.012.023a3.41 3.41 0 0 0-.044.1l-.016.038c0 .023-.018.048-.029.071l-.016.049c0 .023-.015.046-.023.071l-.015.052a2.53 2.53 0 0 0-.022.08c0 .017-.008.033-.012.049s-.02.087-.028.132a.452.452 0 0 0 0 .052.815.815 0 0 0-.016.095c0 .021 0 .043-.009.066-.009.023-.009.059-.012.091-.004.032 0 .045 0 .07v.347c-.037 2.146.086 2.451.086 2.451.164.404.533.684.961.73.104.008.209.002.311-.016.942-.166 3.152-.549 3.931-.402.468.087 1.336-.043 1.953-.161l.162-.032.113.357.354-.1.303.179.193.11c.353 1.227 1.81.809 1.81.809l.344.202 3.496.091c.392.24.806.442 1.237.601a1.1 1.1 0 0 0 .176.04c.324.026.65.032.974.017.268 0 .475-.018.475-.018s-.035-.96-.086-2.036a28.189 28.189 0 0 0 3.238-.269c1.867-.332 2.65-2.05 2.933-2.968.084.375.143.756.176 1.14.077.334.174.664.29.986.102.26.236.507.4.733 1.376-.475.542-1.189.252-1.5-.29-.311.2-.567.2-.567s.381-.257.353-.495c-.028-.238-.055-.494 1.179-.476 1.233.018 1.15-1.014 1.15-1.014zm-19.13-11.68c.016.105.188 1.232.343 1.528.045.198.058.401.04.603-.729-.059-1.489-.091-1.489-.091a.18.18 0 0 1 .04.095l-.116-.027-.167-.041 1.346-2.07.003.003zm-2.664 4.291l1.263.204.106.016c-.035.2-.057.402-.065.605 0 .018.028.04.069.068-.016.1-.024.2-.025.302.021.102.611.32 1.29.502l-.028.104c-.6-.318-1.541-.467-1.65-.703-.11-.236-3.315-1.371-3.315-1.371s-.118-.063-.32-.161l.845.16.231-.023c.526.133 1.06.232 1.6.295v.002z"/>
        <path fill="#65617D" d="M88.276 102.75s-.496 3.095-3.01 3.553c-2.515.458-10.908.36-10.908.36s-4.799-.72-6.534-4.905c-1.736-4.185-2.853-5.86-1.365-5.933 1.488-.072 9.51 2.802 9.97 2.838.46.036 12.29-6.367 11.847 4.087z"/>
        <path fill="#000" d="M88.276 102.75s-.496 3.095-3.01 3.553c-2.515.458-10.908.36-10.908.36s-4.799-.72-6.534-4.905c-1.736-4.185-2.853-5.86-1.365-5.933 1.488-.072 9.51 2.802 9.97 2.838.46.036 12.29-6.367 11.847 4.087z" opacity=".05"/>
        <path fill="#3F3D56" d="M64.956 105.93c.164.406.538.69.975.74.106.006.212 0 .316-.019.959-.164 3.21-.54 4.003-.402.477.089 1.361-.043 1.997-.16.417-.077.726-.151.726-.151s-.737-2.435-.83-2.507c-.092-.072-3.327-2.003-3.327-2.003l-2.558-.18a1.347 1.347 0 0 0-.866.506c-.27.324-.503.856-.517 1.727-.046 2.145.081 2.45.081 2.45z"/>
        <path fill="#000" d="M64.98 105.933c.211.406.697.69 1.263.739a10.789 10.789 0 0 1-.899-1.006l.017-1.776c-.137-.99.347-1.97 1.306-2.642 0 0-1.746.092-1.793 2.234-.047 2.143.106 2.451.106 2.451z" opacity=".05"/>
        <path fill="#000" d="M76.183 102.152l2.253-1.804 3.546-3.576-.96-.044c-.145.093-.547.389-.563.747-.017.437-.957.03-1.447.28-.49.25-2.883 3.384-3.299 3.365-.416-.02-.75-.218-.924.086a.176.176 0 0 1-.014.02l1.408.926zM65.766 101.724l.245.11c1.725.717 3.838 2.22 3.997 2.495.096.168 1.326.894 2.275 1.439.397-.072.69-.141.69-.141s-.7-2.274-.788-2.341c-.088-.067-3.16-1.87-3.16-1.87l-2.431-.168a1.285 1.285 0 0 0-.828.476z" opacity=".1"/>
        <path fill="#65617D" d="M60.472 96.737c.237.573 2.231 2.779 2.231 2.779s1.26 1.615 3.059 2.368c1.799.754 4.005 2.331 4.169 2.62.106.176 1.534 1.026 2.54 1.607l.227.129.498.284.265.148s.611-.482 1.221-.967c.61-.485 1.202-.96 1.211-.987.018-.054.256-.663.2-.705-.029-.018-.153-.267-.385-.555a2.582 2.582 0 0 0-.93-.755 2.613 2.613 0 0 1-1.208-1.235s-.08-.057-.201-.133a2.471 2.471 0 0 0-.822-.352c-.403-.05-1.152-.856-1.152-.856a2.23 2.23 0 0 1-.72-.736c-.192-.394-3.028-2.294-3.29-2.47l6.88 4.32 1.646 1.037 2.36-1.81 3.711-3.588-1.225-.053c-1.8-.078-5.008-.198-5.412-.108-.33.075-.67.097-1.006.063 0 0-.914.041-1.517-.271-.603-.313-1.556-.46-1.666-.69-.11-.232-3.347-1.345-3.347-1.345s-4.406-2.294-5.979-.932c-1.572 1.363-1.6 2.619-1.358 3.193z"/>
        <path fill="#EE8E9E" d="M74.775 83.18l.532 1.887.685 4.249 2.522.18.731-1.294.728-1.288s.454-1.718.781-3.379c.29-1.469.476-2.896.17-3.05-.28-.138-.462-.633-.582-1.165a11.028 11.028 0 0 1-.21-1.564c.001 0-5.285-.294-4.547 2.033.132.396.2.815.2 1.236-.001.105-.007.21-.018.315a2.679 2.679 0 0 1-.992 1.84z"/>
        <path fill="#E3E8F4" d="M72.973 82.834l.21 3.107.474 2.644.533 1.223.474 6.7s4.58.496 5.694 0a.485.485 0 0 0 .202-.147c1.345-1.899.904-7.397.904-7.397l.518-3.556-.342-1.842-.826-.082-.638-.063s-.143.164-.35.42c-.56.7-1.599 2.062-1.53 2.633.095.78-.114 1.572-.437 1.703-.324.13-.589.338-.645.125a.902.902 0 0 1-.058-.567c.058-.302-.247-1.223-.247-1.223s-.512-1.083-.474-1.544c.037-.46-.057-.993-.21-1.117s-.36-.25-.187-.818c.174-.567-.747-1.673-.747-1.673l-2.318 1.474z"/>
        <path fill="#000" d="M80.188 90.826l.173 5.33 1.019.572a.442.442 0 0 0 .187-.15c1.25-1.906.84-7.427.84-7.427l.476-3.566-.318-1.85-.767-.082c.297-1.43.491-2.817.174-2.968-.287-.135-.476-.616-.597-1.133l-.552 3.77s.047.338.062.688c.023.223.008.448-.045.665-.123.321-.034.891-.034.891-.318.567-.478 1.615-.554 2.631-.104 1.347-.064 2.63-.064 2.63z" opacity=".1"/>
        <path fill="#3F3D56" d="M80.423 78.648s.91.116 1.2.504c.288.388 1.05.444 1.05.444s.868.297.848.364c-.02.068.255.182.798.334.542.15 1.447.684 1.447.815 0 .131 1.423 1.57 1.423 1.72 0 .15.433.703.38 1.684-.054.981-.11 2.219.108 2.423.217.203 0 .999 0 .999a.557.557 0 0 0-.018.592c.178.333-.037 1.72-.037 1.72l.02 1.443s-.2.91.035.943c.235.033-.036.444-.036.444s-.199.741.054 1.074c.253.333.326 1.757.326 1.757l3.87 5.754s.054 1.053-1.176 1.035c-1.23-.018-1.212.24-1.175.48.038.241-.343.501-.343.501s-.49.259-.2.574c.29.315 1.122 1.035-.252 1.516a3.369 3.369 0 0 1-.399-.739 8.766 8.766 0 0 1-.29-1s-.126-1.406-.379-1.59c-.253-.184-.217-1.074-.217-1.074s.356-.728-.144-1.018c-.5-.29-7.85-4.458-7.85-4.458l-.179-5.531s-.126-4.089.634-5.461c0 0-.091-.592.035-.925.127-.333-.017-1.407-.017-1.407l.484-3.917z"/>
        <path fill="#000" d="M76.056 81.566s-1.839-.368-2.34-.12c-.5.248-1.462.444-1.608.587-.145.143-.512.035-.842.873-.329.839-.36 1.686-.786 2.078-.426.391-.64.657-.658.94-.018.283.055.349-.11.443-.166.095-.401.463-.33.605.073.141 3.804 3.267 3.804 3.267s.18 1.19.347 1.492c.168.302-.18 4.457-.548 4.74-.37.283 2.475.256 2.475.256s.13-2.725.24-2.868c.11-.144-.074-3.054-.074-3.054s-.018-2.486.22-3.145c.237-.659.21-2.84.21-2.84s.21-1.31.466-1.617c.255-.305-.466-1.637-.466-1.637z" opacity=".1"/>
        <path fill="#3F3D56" d="M76.062 81.565s-1.84-.367-2.342-.119c-.5.248-1.464.444-1.61.585-.146.142-.513.037-.841.874-.328.837-.36 1.687-.787 2.077-.427.39-.641.657-.66.942-.017.284.055.35-.11.443-.163.095-.403.462-.329.605.074.143 3.808 3.267 3.808 3.267s.18 1.19.348 1.49c.167.3-.18 4.457-.55 4.741-.37.285 2.471.257 2.471.257s.128-2.725.238-2.867c.11-.141-.074-3.053-.074-3.053s-.018-2.486.22-3.145c.238-.659.213-2.84.213-2.84s.209-1.31.464-1.617c.256-.305-.459-1.64-.459-1.64z"/>
        <path fill="#000" d="M75.742 80.253c.125.311.188.64.188.97 1.634.433 3.39-.184 4.25-1.494a7.288 7.288 0 0 1-.159-1.072s-4.973-.23-4.279 1.596z" opacity=".1"/>
        <path fill="#EE8E9E" d="M72.973 76.396a4.062 4.062 0 0 0 3.85 4.055 4.058 4.058 0 0 0 4.236-3.645 4.065 4.065 0 0 0-3.405-4.436 4.055 4.055 0 0 0-4.681 4.026z"/>
        <path fill="#3F3D56" d="M70.201 85.88l-.969.33a.578.578 0 0 1-.194.571.672.672 0 0 0-.246.572s-.106.427-.347.524c-.24.098-.404.736-.404.736l-.811 1.027s-.3.27-.246.406c.054.135-.317.174-.317.174l.194 3.45 1.673.346 1.04-.116.846-.347.74-.486.334-.953 1.479-2.478-2.772-3.756z"/>
        <path fill="#EE8E9E" d="M66.219 91.308s-2.019-2.923-3.525-1.344c-1.506 1.578.612 4.133 1.109 4.05.496-.083 2.864-.216 2.864-.216l-.448-2.49z"/>
        <path fill="#000" d="M72.973 75.687c.113.01.219.06.3.14.138.153.145.422.326.517.067.03.141.038.213.026.475-.072.75-.63 1.206-.784.267-.07.549-.045.8.072a.608.608 0 0 1 .264.183c.153.206.046.508.116.757.099.346.495.483.84.527.344.044.73.072.958.34a.943.943 0 0 1 .176.72.597.597 0 0 0 0 .267c.095.278.559.238.68.017.088-.16.062-.293.27-.337a.85.85 0 0 1 .437.079c.364.131.748.193 1.133.183a4.4 4.4 0 0 0-.533-4.507c-.996-1.27-2.605-1.833-4.136-1.447-1.531.386-2.714 1.652-3.041 3.256l-.009-.01z" opacity=".1"/>
        <path fill="#3F3D56" d="M78.175 79.365a.557.557 0 0 1 0-.256.885.885 0 0 0-.173-.689c-.226-.257-.607-.282-.944-.326-.338-.044-.73-.175-.827-.505-.069-.238.037-.526-.114-.726a.58.58 0 0 0-.26-.175 1.199 1.199 0 0 0-.788-.07c-.45.147-.72.682-1.188.75a.372.372 0 0 1-.21-.024c-.173-.092-.185-.351-.32-.495-.215-.23-.62-.082-.882-.252a.815.815 0 0 1-.284-.526 2.585 2.585 0 0 1-.078-1.182c.153-.663.738-1.117 1.112-1.684.347-.526.544-1.194 1.067-1.545.523-.35 1.195-.27 1.786-.093.272.1.552.174.837.223.474.06.952-.072 1.432-.087a3.043 3.043 0 0 1 1.891.582c.124.082.23.19.309.315.08.18.127.372.138.568.056.369.182.722.371 1.042.149.25.334.479.468.738.15.254.195.557.126.844-.045.147-.133.279-.173.43-.078.35.149.68.303 1 .15.294.22.621.206.951-.018.332-.17.64-.422.854-.262.184-.574.28-.892.274a3.14 3.14 0 0 1-1.138-.176.857.857 0 0 0-.43-.075c-.206.042-.173.175-.267.323-.105.22-.563.259-.656-.008z"/>
        <path fill="#000" d="M75.6 102.152l2.48-1.802 3.902-3.57-1.288-.052a.763.763 0 0 0-.272.486c-.02.438-1.054.032-1.593.281-.539.25-3.172 3.379-3.63 3.358-.457-.021-.826-.216-1.017.086l-.015.02a.556.556 0 0 1-.293.162l1.727 1.031z" opacity=".1"/>
        <path fill="#65617D" d="M71.171 102.39l1.153 3.7.175.582.55-.152 1.21-.334 5.387-1.49a4.648 4.648 0 0 0 1.94-.53 5.83 5.83 0 0 1 3.348-.736c.712.067 1.504-.241 2.162-1.466 0 0 1.492-4.44-2.274-5.71-3.766-1.27-3.95.675-3.95.675l-.05.032c-.147.093-.557.39-.573.749-.017.437-.974.03-1.472.28-.499.25-2.93 3.404-3.354 3.384-.423-.02-.764-.218-.94.087a.176.176 0 0 1-.015.019c-.13.176-.524.226-.788.233h-.247l-.033.01-.273.081-1.956.587z"/>
        <path fill="#000" d="M71.171 94.82l.636.1.265-2.586s-.29-.043-.656-.126c.096.359-.124 1.755-.245 2.611zM86.115 84.129s1.605-.49 1.21 4.31c-.396 4.801-3.367 7.838-3.367 7.838s-3.42 1.581-4.956 1.327c-1.535-.254-2.655-.31-2.655-.31a3.775 3.775 0 0 0-1.554-.436c-.863-.036-2.676-.6-2.718-.782-.043-.182.45-2.854.243-3.054 0 0 2.417.104 2.658.288.241.184.586.052.85 0 .263-.052 1.053-.778 2.624-.143 0 0 .535.055.743-.091a.71.71 0 0 1 .54-.036c.133-.048.259-.116.374-.2.052-.072.467 0 .467 0 .05.025.107.025.158 0a.191.191 0 0 0 .1-.128c.054-.148.136-.284.241-.399 0 0 .467-2.764 1.347-3.8a.611.611 0 0 0 .19-.528c-.07-.292 1.433-4.443 3.505-3.856zM72.973 101.329l2.473 2.631.016-.016c.019-.049.262-.609.205-.648-.057-.039-.486-.856-1.349-1.201a2.477 2.477 0 0 1-1.058-.847l-.287.081z" opacity=".1"/>
        <path fill="#000" d="M73.921 106.55l.242.122s.56-.394 1.117-.79c.557-.396 1.098-.784 1.106-.806.017-.044.234-.542.183-.576-.026-.015-.14-.218-.352-.453-1.496-.367-.543.544-.416.585 0 0-1.822-.366-1.922 1.373-.014.183 0 .366.042.546z" opacity=".1"/>
        <path fill="#3F3D56" d="M74.95 107.631l.362.179 3.666.08c.411.214.846.392 1.297.533.061.016.124.027.187.035.34.022.682.028 1.023.016.28 0 .497-.016.497-.016s-.174-3.94-.305-4.354c-.061-.199-.374-.159-.673-.056a4.669 4.669 0 0 0-.656.284s-1.557.127-1.806.242c-.248.115-.95-.065-1.387 0-.437.065-1.215-.438-1.215-.438-2.127-.599-.934.518-.78.567 0 0-2.068-.405-2.183 1.516-.114 1.92 1.973 1.412 1.973 1.412z"/>
        <path fill="#565387" d="M80.182 106.112c.04.817.817 1.832 1.282 2.368.292 0 .518-.016.518-.016s-.181-3.947-.317-4.362c-.064-.2-.39-.16-.7-.056-.384.589-.816 1.407-.783 2.066z"/>
        <path fill="#000" d="M80.182 106.112c.04.817.817 1.832 1.282 2.368.292 0 .518-.016.518-.016s-.181-3.947-.317-4.362c-.064-.2-.39-.16-.7-.056-.384.589-.816 1.407-.783 2.066z" opacity=".1"/>
        <path fill="#000" d="M79.349 106.217c.281.788.277 1.672.726 2.206.069.016.138.027.21.035.38.022.76.028 1.141.016.314 0 .556-.016.556-.016s-.194-3.942-.34-4.357c-.07-.199-.418-.159-.752-.055-.255.078-.5.173-.733.283 0 0-1.17.88-.808 1.888z" opacity=".05"/>
        <path fill="#000" d="M67.568 96.728s1.462.596 2.702 2.712l-2.702-2.712z" opacity=".1"/>
        <g fill="#000" opacity=".1">
            <path d="M81.668 74.552l-.01.041a1.355 1.355 0 0 1-.059.16 1.19 1.19 0 0 1 .069-.201zM72.25 73.63c.029-.13.072-.255.128-.374a1.651 1.651 0 0 0-.024.099c-.065.42-.039.853.077 1.26.024.22.125.42.28.562.258.187.658.024.868.267.135.155.142.432.316.528a.315.315 0 0 0 .209.026c.46-.071.727-.642 1.172-.799.258-.073.532-.047.775.073.1.035.19.1.258.187.15.21.045.52.113.774.096.352.48.492.813.539.334.047.71.071.933.348.151.207.213.474.171.735a.66.66 0 0 0 0 .271c.093.286.544.243.661.019.086-.165.06-.3.262-.346a.805.805 0 0 1 .425.08c.361.137.741.2 1.123.187.314.005.621-.097.88-.291.111-.1.203-.222.27-.361-.058.253-.19.48-.374.645a1.4 1.4 0 0 1-.88.292 2.88 2.88 0 0 1-1.123-.187.79.79 0 0 0-.425-.08c-.202.044-.171.186-.262.343-.118.227-.569.268-.661-.017a.668.668 0 0 1 0-.273.986.986 0 0 0-.17-.735c-.225-.275-.599-.3-.934-.348-.335-.046-.717-.187-.813-.538-.068-.255.036-.561-.113-.775a.572.572 0 0 0-.256-.187 1.1 1.1 0 0 0-.778-.074c-.444.157-.71.727-1.172.8a.346.346 0 0 1-.208-.026c-.17-.097-.181-.374-.316-.527-.21-.245-.61-.088-.868-.27a.891.891 0 0 1-.28-.56 2.973 2.973 0 0 1-.077-1.267z"/>
        </g>
        <path fill="#000" d="M81.917 88.518c-.398.427-.855.823-1.204 1.276-.381.443-.567.974-.528 1.51.364-.298.53-.71.761-1.083.39-.633.971-1.169 1.46-1.75.095-.11.696-.752.392-.782-.25-.026-.738.682-.88.829z" opacity=".1"/>
        <path fill="#FFF" d="M72.937 81.507l3.617 6.686c.108.198-.186.557-.657.802l-18.055 9.332c-.47.243-.941.28-1.048.08l-3.617-6.684c-.108-.2.163-.6.634-.843l18.055-9.333c.472-.245.964-.24 1.07-.04z"/>
        <path fill="#009688" d="M72.927 80.724l3.588 6.964c.107.206-.185.58-.652.835l-17.905 9.722c-.467.253-.934.291-1.04.083l-3.587-6.963c-.107-.207.162-.625.629-.878l17.905-9.722c.469-.255.957-.25 1.062-.041z" opacity=".2"/>
        <path fill="#009688" d="M62.92 89.296l9.39-4.992.175.333-9.39 4.991z"/>
        <path fill="#009688" d="M63.347 90.11l9.39-4.992.175.332-9.39 4.992zM63.774 90.92l9.39-4.992.175.332-9.39 4.992zM64.202 91.733l9.39-4.991.175.332-9.39 4.992zM57.957 91.568a2.268 2.268 0 0 0 .834 4.256l-.177-.338a.517.517 0 0 1 .158-.663.889.889 0 0 0 .911.045.898.898 0 0 0 .476-.782.513.513 0 0 1 .634.24l.182.347a2.274 2.274 0 0 0-.356-2.688 2.243 2.243 0 0 0-2.665-.417h.003zm2.162 1.979a.122.122 0 0 1-.008.048.134.134 0 0 1-.048.05l-.04.023a.902.902 0 0 1-.333.898.89.89 0 0 1-.95.086.9.9 0 0 1-.486-.824h-.011a.302.302 0 0 1-.167-.383.575.575 0 0 1 .132-.147.833.833 0 0 0 .247-.539.96.96 0 0 1 .059.123.2.2 0 0 1 .244-.142.667.667 0 0 0 .114.043c.036 0 .07-.007.103-.02l.211-.082a.316.316 0 0 1 .416.057c.13.105.248.223.352.353.103.13.16.29.165.456z" opacity=".2"/>
        <path fill="#EE8E9E" d="M64.865 92.246c-.018 2.004 5.08 2.43 5.08 2.43l1.302.168.583.076.242-1.96s-.266-.032-.6-.095c-.493-.094-1.132-.256-1.266-.483-.225-.38-5.323-2.142-5.341-.136z"/>
        <path fill="#3F3D56" d="M86.115 84.127s1.605-.49 1.21 4.311c-.396 4.802-3.367 7.838-3.367 7.838s-3.418 1.582-4.954 1.328c-1.535-.254-2.658-.31-2.658-.31a3.773 3.773 0 0 0-1.554-.436c-.863-.036-2.675-.6-2.717-.782-.043-.182.45-2.863.243-3.055 0 0 2.416.104 2.658.288.24.185.585.052.849 0 .263-.052 1.053-.78 2.624-.143 0 0 .535.056.742-.091a.71.71 0 0 1 .54-.036c.133-.048.259-.115.374-.2.052-.072.467 0 .467 0 .05.026.108.027.158.002a.19.19 0 0 0 .1-.13 1.22 1.22 0 0 1 .241-.4s.467-2.763 1.347-3.801a.606.606 0 0 0 .19-.526c-.066-.292 1.437-4.433 3.507-3.857z"/>
        <path fill="#FFF" d="M155.856 24.09v9.74c0 .29-.539.522-1.209.522h-25.51c-.667 0-1.21-.235-1.21-.522v-9.74c0-.29.54-.586 1.21-.586h25.514c.666.005 1.205.296 1.205.586z"/>
        <path fill="#009688" d="M152.226 26.046v9.492c0 .281-.54.508-1.206.508h-25.468c-.666 0-1.207-.23-1.207-.508v-9.492c0-.283.538-.571 1.207-.571h25.471c.664 0 1.203.288 1.203.57z" opacity=".1"/>
        <path fill="#FFF" d="M155.856 24.09v9.74c0 .29-.539.522-1.209.522h-25.51c-.667 0-1.21-.235-1.21-.522v-9.74c0-.29.54-.586 1.21-.586h25.514c.666.005 1.205.296 1.205.586z"/>
        <path fill="#009688" d="M155.707 24.206v9.492c0 .283-.552.508-1.238.508h-26.133c-.683 0-1.238-.229-1.238-.508v-9.492c0-.283.552-.571 1.238-.571h26.137c.682.005 1.234.288 1.234.57z" opacity=".2"/>
        <path fill="#009688" d="M140.541 27.12h13.514v1h-13.514z"/>
        <path fill="#009688" d="M140.541 28.024h13.514v1h-13.514z" opacity=".2"/>
        <path fill="#009688" d="M140.541 28.928h13.514v1h-13.514zM140.541 30.736h13.514v1h-13.514zM132.888 26.216c-1.393-.003-2.622.992-3.024 2.448-.402 1.456.12 3.027 1.281 3.865v-.583c.002-.394.272-.726.63-.775.22.438.64.71 1.097.71.457 0 .878-.272 1.097-.71.359.049.629.38.63.775v.598c1.171-.83 1.703-2.4 1.308-3.861-.395-1.462-1.624-2.465-3.02-2.467zm1.382 4.2a.136.136 0 0 1-.133.092.364.364 0 0 1-.064 0c-.177.65-.764 1.06-1.379.962-.614-.098-1.07-.673-1.07-1.35 0-.236.055-.468.162-.672l-.014-.01a.486.486 0 0 1 .042-.631.804.804 0 0 1 .259-.104c.273-.087.507-.282.656-.547.005.07.005.139 0 .208.05-.06.12-.095.195-.098a.265.265 0 0 1 .2.083c.04.043.066.103.114.137a.28.28 0 0 0 .14.044l.313.045c.224-.025.429.137.477.377.093.233.162.476.205.726a1.24 1.24 0 0 1-.1.74l-.003-.003z" opacity=".2"/>
        <path fill="url(#b)" d="M163.952 106.301c-.244-.9-.403-1.687-.403-1.687s.01-.988-.452-1.711l-.01-.247-.07-1.827c.111-.336.251-.66.417-.972.3-.585-.1-2.672-.1-2.672s-1.309-2.912-1.088-4.8c.221-1.887-2.77-8.237-2.77-8.237a8.414 8.414 0 0 1 .188-1.85c.024-.128.03-.258.02-.388v-.047.014c-.089-1.236-1.137-3.517-1.137-3.517l-.039-4.427s.516-2.632-.619-6.092a32.556 32.556 0 0 1-.826-2.925c-.02-.085-.039-.166-.054-.245 2.049-.4 3.612-.72 3.612-.72s-1.386-5.037-2.228-5.9c-.842-.864-1.591-3.633-1.591-3.633s-.556-3.578.083-4.654c.638-1.076.663-2.907.663-2.907s1.506-1.207 1.681-1.724c.175-.516.455-1.674.432-2.277-.023-.603-.237-1.139-.177-1.46.06-.32-.511-1.509-.274-2.092.06-.178.089-.367.083-.555v-.024a7.887 7.887 0 0 0-.193-1.486 4.133 4.133 0 0 0-1.566-.775l-.04-.135-.1-.36a1.943 1.943 0 0 0-.156-.086v-.13l-.033-.516.198-1.171c.401-2.039-2.26-2.237-2.26-2.237a1.388 1.388 0 0 0-.774-.638c-.542-.18.024 3.042.282 3.238.193.148.81 1.137 1.107 1.62l.05.078a1.22 1.22 0 0 0-.117.135l.127.697.02.107c-.168.228-.3.48-.394.749 0 0 .504.522.43 1.13-.075.608.2 1.353.213 1.392-.03-.032-.385-.394-.721-.288-.336.106-1.279.432-1.279.432s-.707.155-.634.311c.072.157-.451.878-.451.878l-1.98-1.766a4.677 4.677 0 0 1-.258-.964c.205-.06.407-.133.602-.222.198-.076.375-.2.516-.36.177-.24.209-.558.276-.849.13-.572.435-1.088.647-1.635.353-.92.443-1.92.26-2.89a1.937 1.937 0 0 0-.325-.833c-.329-.424-.9-.58-1.324-.912-.425-.33-.708-.852-1.2-1.095-.441-.22-.968-.18-1.453-.07a7.683 7.683 0 0 0-2.67 1.106c-.27.18-.57.385-.884.338-.276-.04-.485-.255-.67-.462v-.027l-.023-.024a3.488 3.488 0 0 0-.24 1.465c0 .077 0 .155.017.232v.08a.441.441 0 0 1 0 .07c0 .034-.003.07-.01.104a.75.75 0 0 1-.177.268c-.056.07-.106.144-.149.223 0-.027.014-.054.023-.081-.117.185-.178.4-.177.62a.618.618 0 0 0 .16.434c.099.091.206.173.321.243-.03.214-.042.431-.033.648a3.77 3.77 0 0 0 1.92 3.135c.025.054.048.108.072.164.27.644.481 1.398.427 2.105 0 .052-.011.104-.018.155-.007.05-.046.055-.066.084 0 0-3.152.155-3.92-.5-.767-.655-1.81 1.743-1.81 1.743s-1.122.268-1.357.054c-.235-.214-1.552.03-1.552.03a2.811 2.811 0 0 0-1.997-.656 5.813 5.813 0 0 0-1.478-.76l-.037-.012a1.597 1.597 0 0 0-.707-.064s-1.6-1.243-2.08-1.925c-.479-.682-2.73-3.194-2.74-3.206l-.013-.124-.039-.378a1.313 1.313 0 0 1-.193.025l-.047-.13a6.977 6.977 0 0 0-.499-1.05s-.018-.479.115-.603-.127-1.867-.127-1.867-1.523-3.27-2.68-.738c0 0-2.3 1.698-.25 3.489 0 0 .808.36.932.665.08.198.37.749.565 1.114l.087.164-.021.02.04.31.016.121c-.364.23-.61.455-.542.615.121.271.208.556.258.85 0 0 2.878 3.39 3.29 4.873 0 0 7.533 4.165 9.968 4.388l-.318 2.238c-.04.605-.05 1.211-.028 1.817.049.477-.191 2.652-.191 2.652s-.301 3.197-.639 3.657c-.338.46-.203 2.364-.203 2.364-.05.918-.178 1.829-.382 2.724-.31 1.222 0 2.708 0 2.708s-1.12 2.91 1.747.854c0 0 1.44-.147 3.098-.27v.17c0 .217.01.453.018.701.038 1.64.115 3.9.252 5.608.246 3.017 1.376 8.954 1.376 8.954l.113 3.004a4.198 4.198 0 0 0-.051.862 5.646 5.646 0 0 0 .902 2.984l.302 1.994s.58 1.3.62 2.089c.001.064-.004.128-.015.192a1.354 1.354 0 0 0-.014.308c0 .91.626 3.067.626 3.067s.115 2.193.442 2.308c.281.097-.32 1.28-.5 1.62a.655.655 0 0 1-.015-.064 1.215 1.215 0 0 1-.037.069c-.06.18-.087.37-.08.56a.799.799 0 0 0 .388.757c.628.36.969.662.454.81-.19.038-.38.086-.566.145 0-.025-.02-.05-.03-.074a.361.361 0 0 0-.198.392c.016.26.092.513.221.738.563 1.157.938 1.589.938 1.589l.245-.038c-.033.097-.078.19-.132.277-.09.141-.211.259-.354.343-.13.091-.28.152-.435.18a1.232 1.232 0 0 0-.898.49c-.306.435-.486 1.022.177 1.504l2.34.72s3.993.37 3.748-.53c-.246-.9-.403-1.687-.403-1.687a3.649 3.649 0 0 0-.384-1.596 1.983 1.983 0 0 0-.149-.232l.14-.021s.214-2.015.587-2.413c.087-.09.104-.158.081-.21.036-.112-.067-.18-.2-.202 0 .025-.015.052-.024.08a1.949 1.949 0 0 0-.387-.03s-.177-1.043.236-1.439a.408.408 0 0 0 .07-.315 1.731 1.731 0 0 0-.06-.424.11.11 0 0 0-.013.025c-.25-.945-1.022-2.43-1.022-2.43s-.067-.954.177-1.345c.244-.39-.23-5.184-.23-5.184s.01-2.327-.322-3.395c-.332-1.069.267-2.368.267-2.368s0-.025-.01-.07v-.016l-.052-.36v.023a57.778 57.778 0 0 0-.353-2.232c-.158-.72-.128-4.232-.128-4.232l.53-1.518 1.132 2.537 1.23 3.393s.57.703.611 1.439v.108a2.014 2.014 0 0 0 0 .23c-.002.434.13.857.38 1.21 0 0 .354 1.618.82 2.007.468.389.5 1.19.5 1.19s.638 2.34.912 2.737c.23.34.277 1.297.286 1.59v.087s.11.838.133 1.545v.234c.006.193-.01.385-.046.574V95.081a6.15 6.15 0 0 0-.11 1.471c.018.848.177 1.844.708 2.413.91.984 1.455.834 1.455.834s-.371 1.289-.884 1.564a.373.373 0 0 0-.055.038c0-.024-.01-.049-.014-.072a.623.623 0 0 0-.135.478c-.016.562.366 1.457.708 1.862.126.117.28.2.445.241a.868.868 0 0 1-.078.056 1.66 1.66 0 0 1-.176.092.855.855 0 0 1-.262.079 1.24 1.24 0 0 0-.898.49c-.304.435-.487 1.02.176 1.503l2.342.72s3.985.35 3.732-.549z"/>
        <path fill="#2D293D" d="M149.532 108.407l-2.256-.706c-.632-.475-.458-1.05-.164-1.478.205-.277.52-.452.864-.478.15-.028.294-.088.419-.177a.987.987 0 0 0 .34-.337c.153-.264.23-.566.221-.872 0 0 2.415-.812 3.112-.12.123.126.229.269.313.424.239.488.365 1.024.371 1.567 0 0 .155.773.39 1.656.237.882-3.61.52-3.61.52zM160.339 106.594l-2.251-.707c-.633-.473-.46-1.05-.166-1.476.204-.279.52-.454.863-.479a.875.875 0 0 0 .252-.08c.06-.025.119-.055.175-.09.61-.367.56-1.21.56-1.21s2.414-.813 3.108-.12c.093.093.176.197.246.309.446.707.437 1.683.437 1.683s.155.778.39 1.66c.236.882-3.614.51-3.614.51z"/>
        <path fill="#000" d="M151.042 103.454c.122.18.226.382.31.603l-3.604.807c.15-.377.227-.806.219-1.242 0 0 2.386-1.153 3.075-.168zM163.04 102.941l.023.924c-.463 1.293-2.887 1.158-3.604.566.054-.035.105-.076.155-.121.535-.493.492-1.622.492-1.622s2.117-1.09 2.726-.161c.08.125.149.264.208.414z" opacity=".1"/>
        <path fill="#65617D" d="M162.95 98.966c-.165.309-.303.63-.413.961l.097 2.492c-.604 1.068-3.97.843-4.444.293-.474-.55-1.016-2.009-.509-2.281.507-.272.875-1.545.875-1.545s-.547.146-1.458-.827c-.912-.974-.74-3.218-.6-3.759.14-.54-.093-2.33-.093-2.33s-.017-1.26-.29-1.658c-.274-.398-.912-2.707-.912-2.707s-.03-.786-.498-1.18c-.467-.393-.82-1.985-.82-1.985a2.028 2.028 0 0 1-.376-1.34c.066-.79-.613-1.616-.613-1.616l-1.23-3.357-1.133-2.51-.52 1.503s-.025 3.467.134 4.186c.158.719.426 2.63.426 2.63s-.596 1.283-.262 2.342c.333 1.059.326 3.36.326 3.36s.476 4.739.234 5.127c-.243.388-.183 1.33-.183 1.33s1.432 2.718 1.027 3.112c-.405.393-.235 1.423-.235 1.423s.911-.033.532.356c-.38.39-.585 2.387-.585 2.387l-3.88.587s-.376-.427-.938-1.573c-.561-1.146.057-1.041.57-1.187.515-.146.183-.447-.453-.803-.636-.356-.306-1.217-.306-1.217s.873-1.577.547-1.69c-.327-.115-.445-2.284-.445-2.284s-.746-2.555-.613-3.255c.133-.7-.609-2.34-.609-2.34l-.303-1.974a5.348 5.348 0 0 1-.857-3.717l-.113-3.063s-1.136-5.873-1.382-8.866c-.159-1.911-.239-4.524-.275-6.155-.02-.915-.028-1.522-.028-1.522l13.871-1.938c.049.678.16 1.35.332 2.01.172.74.432 1.699.83 2.893 1.136 3.424.625 6.027.625 6.027l.044 4.378s1.34 2.88 1.121 3.897a8.265 8.265 0 0 0-.182 1.835s2.992 6.284 2.775 8.15c-.217 1.868 1.094 4.75 1.094 4.75s.4 2.072.099 2.65z"/>
        <path fill="#000" d="M154.955 84.122l3.604-.954s-1.971 3.328-3.604.954z" opacity=".05"/>
        <path fill="#000" d="M158.29 77.744s.185 1.935-.632 2.712c.005 0 1.494-.416.632-2.712zM157.658 74.128s-3.138 2.885-4.335 2.704c-1.197-.181 4.335-2.704 4.335-2.704zM149.55 84.072s-2.665.95-2.703 2.388c-.038 1.44 2.703-2.388 2.703-2.388z" opacity=".1"/>
        <path fill="#000" d="M150.825 97.632s-2.853 1.127-2.026 1.708c.827.581 2.183 1.004 2.183 1.004s.928.022-.157-2.712z" opacity=".05"/>
        <g fill="#000" opacity=".05">
            <path d="M146.919 100.287a.754.754 0 0 1-.36-.535l-.036.069s-.318.879.302 1.242c.072.042.139.082.202.122.112-.026.23-.046.346-.08.494-.14.157-.454-.454-.818zM151.742 99.85c.1-.1.087-.347.011-.661-.143.29-.206.614-.18.937a.746.746 0 0 1 .17-.276zM150.553 83.897a4.39 4.39 0 0 0-.209 1.192 4.66 4.66 0 0 1 .261-.823l-.052-.369zM159.095 81.878c.022-.116.03-.234.022-.352a9.176 9.176 0 0 0-.08.66c.019-.1.037-.203.058-.308zM150.9 95.315c.063-.233.086-.475.066-.715-.107.29-.157.598-.148.908a.877.877 0 0 1 .081-.193zM151.919 101.34a12.728 12.728 0 0 0-.36 1.998l-3.835.6s-.369-.436-.924-1.604a4.421 4.421 0 0 1-.12-.28c-.228.117-.309.364.02 1.056.556 1.167.927 1.603.927 1.603l3.834-.599s.21-2.034.577-2.434c.178-.205.054-.303-.12-.34zM146.609 95.77s.117 2.217.44 2.333c.147-.373.241-.727.097-.776-.324-.116-.44-2.332-.44-2.332s-.738-2.607-.605-3.32c.133-.711-.602-2.387-.602-2.387l-.3-2.014a5.6 5.6 0 0 1-.848-3.794l-.119-3.115s-1.122-5.993-1.365-9.047c-.157-1.95-.236-4.619-.272-6.282 0-.302-.011-.569-.017-.794l-.11.016s0 .618.03 1.553c.035 1.664.115 4.332.27 6.282.245 3.046 1.367 9.048 1.367 9.048l.12 3.114a5.6 5.6 0 0 0 .846 3.794l.299 2.014s.735 1.674.602 2.388c-.134.714.607 3.32.607 3.32zM158.229 102.648a3.77 3.77 0 0 1-.667-1.5c-.38.364.124 1.744.57 2.276.468.561 3.794.786 4.39-.298l-.023-.612c-.827.897-3.827.668-4.27.134zM162.933 98.835a6.26 6.26 0 0 0-.409.98l.017.45c.066-.166.162-.39.295-.655.091-.256.128-.53.108-.8l-.01.025zM158.306 99.523c.113-.252.208-.51.285-.776 0 0-.54.15-1.441-.844-.655-.726-.745-2.134-.69-3.06-.14.545-.307 2.842.592 3.835.593.65 1.025.81 1.254.845zM156.373 92.467c.08.63.126 1.265.137 1.9.011-.1.03-.2.054-.3.139-.544-.092-2.375-.092-2.375s-.018-1.286-.288-1.694c-.27-.409-.901-2.763-.901-2.763s-.03-.802-.494-1.202c-.463-.4-.81-2.027-.81-2.027a2.126 2.126 0 0 1-.372-1.369c.065-.806-.605-1.647-.605-1.647l-1.218-3.427-1.12-2.56-.514 1.53v.489l.42-1.244 1.118 2.56 1.215 3.426s.67.84.605 1.647c-.037.486.094.97.371 1.37 0 0 .348 1.634.811 2.026.463.392.492 1.202.492 1.202s.632 2.36.9 2.762c.27.402.291 1.696.291 1.696z"/>
        </g>
        <path fill="#FFCDD3" d="M157.624 34.18l-.161 1.031.028.455.02.336-1.097.158-.133-.238c-.243-.429-.746-1.302-.908-1.425-.209-.173-.676-3.002-.234-2.851.27.098.497.299.636.564 0 0 2.177.177 1.849 1.97z"/>
        <path fill="#000" d="M156.757 35.929l-1.607.231-.195-.347c.428-.557 1.17-.718 1.771-.383l.03.499z" opacity=".1"/>
        <path fill="#DCE6F2" d="M157.658 37.39l-1.639.578-.044-.316-.12-.851s.621-1.159 1.594-.36l.095.439.114.51z"/>
        <path fill="#FFCDD3" d="M128.829 35.121l-1.523 1.039s-.065-.139-.15-.332c-.16-.347-.398-.884-.466-1.074-.101-.293-.763-.64-.763-.64-1.688-1.732.2-3.358.2-3.358.947-2.435 2.197.713 2.197.713s.216 1.678.106 1.798c-.109.119-.092.578-.092.578.16.324.296.663.408 1.013.054.16.083.263.083.263z"/>
        <path fill="#000" d="M129.73 35.616l-2.461 1.448s-.104-.193-.242-.463c.341-.31 1.56-1.376 1.974-1.344a3.2 3.2 0 0 0 .596 0c.087.214.133.36.133.36z" opacity=".1"/>
        <path fill="#DCE6F2" d="M129.73 35.971l-2.577 1.093-.074-.44-.052-.305s1.472-1.067 1.924-1.042a3.1 3.1 0 0 0 .675-.021l.05.368.054.347z"/>
        <path fill="#FFCDD3" d="M153.153 42.446s-9.68 1.418-7.886.782c1.25-.445 1.72-1.24 1.792-2.1.056-.725-.166-1.496-.449-2.157a9.307 9.307 0 0 0-.936-1.658s7.275-4.215 5.924-.578a5.517 5.517 0 0 0-.354 1.713c-.022.58.066 1.16.26 1.71.32.895.89 1.687 1.65 2.288z"/>
        <path fill="#000" d="M151.205 36.626a5.317 5.317 0 0 0-.314 1.587c-.6.55-1.282.541-2.156.575-.678.026-1.41.219-1.959-.087a8.742 8.742 0 0 0-.83-1.536s6.45-3.91 5.259-.54z" opacity=".1"/>
        <ellipse cx="148.649" cy="35.708" fill="#FFCDD3" rx="3.604" ry="4.068"/>
        <path fill="#000" d="M153.153 41.773s-9.68 1.071-7.886.591c1.25-.337 1.72-.936 1.792-1.588.465-.396 1.422-.695 2.04-.862a3.933 3.933 0 0 1 1.76-.07c.229.042.45.109.653.198.317.676.885 1.275 1.641 1.73zM157.658 36.611l-1.755.453-.047-.248c.368-.518 1.04-.762 1.68-.612l.122.407zM129.73 35.684l-2.627 1.38-.076-.557c.852-.482 1.74-.9 2.657-1.251l.046.428zM156.757 64.855c-3.622.54-8.782 1.256-9.62 1.09-.692-.14-2.87-.058-4.767.047-.02-.717-.028-1.193-.028-1.193l14.073-1.519c.05.532.165 1.059.342 1.575z" opacity=".1"/>
        <path fill="#3F3D56" d="M160.36 63.795s-11.412 2.392-12.66 2.067c-1.248-.324-7.561.32-7.561.32-2.774 2-1.694-.837-1.694-.837s-.307-1.448 0-2.642c.196-.874.318-1.762.366-2.655 0 0-.134-1.86.193-2.307.328-.447.614-3.566.614-3.566s.23-2.122.177-2.587c-.053-.465.027-1.771.027-1.771l.319-2.187c-2.36-.221-9.665-4.293-9.665-4.293-.402-1.445-3.187-4.757-3.187-4.757a3.54 3.54 0 0 0-.25-.83c-.208-.49 2.571-1.59 2.571-1.59s2.196 2.457 2.656 3.131c.46.674 2.016 1.882 2.016 1.882.233-.034.47-.013.693.061l.035.01c.511.179.994.43 1.432.745.705-.044 1.4.186 1.937.64 0 0 1.277-.235 1.503-.026.227.209 1.316-.049 1.316-.049s1.005-2.34 1.75-1.699c.746.64 3.802.491 3.802.491.386-.55 1.361-.974 1.974-1.195a2.711 2.711 0 0 1 1.63-.09c.234.057.456.153.657.285l1.923 1.729s.506-.702.437-.857c-.07-.154.616-.302.616-.302s.896-.314 1.24-.42c.343-.108.668.252.699.282-.015-.039-.278-.781-.21-1.359.07-.577-.419-1.102-.419-1.102.993-2.71 3.551-.57 3.551-.57s.34 1.448.11 2.016c-.23.569.319 1.727.268 2.04-.052.312.157.833.177 1.423.02.59-.247 1.718-.415 2.222-.168.504-1.628 1.678-1.628 1.678s-.025 1.773-.643 2.822c-.618 1.05-.074 4.541-.074 4.541s.732 2.706 1.549 3.545c.816.84 2.168 5.76 2.168 5.76z"/>
        <path fill="#000" d="M142.293 43.392s-.413-.988-.761-1.067c-.34-.1-.67-.22-.991-.36l.19-.381s1.276.268 1.493.595c.217.328.069 1.213.069 1.213zM136.036 41.616c-.049.388-2.703.872-2.703.872l1.293-1.808.033.013c.492.22.955.53 1.377.923z" opacity=".1"/>
        <ellipse cx="128.378" cy="37.516" fill="#575988" rx="1" ry="1"/>
        <ellipse cx="128.378" cy="38.42" fill="#575988" rx="1" ry="1"/>
        <ellipse cx="128.378" cy="39.324" fill="#575988" rx="1" ry="1"/>
        <ellipse cx="128.378" cy="39.324" fill="#575988" rx="1" ry="1"/>
        <ellipse cx="159.009" cy="38.42" fill="#575988" rx="1" ry="1"/>
        <ellipse cx="159.009" cy="38.42" fill="#575988" rx="1" ry="1"/>
        <ellipse cx="159.009" cy="39.324" fill="#575988" rx="1" ry="1"/>
        <path fill="#000" d="M143.243 53.336c-.03-.032 7.347 7.782 12.613 2.933-.002 0-8.586 1.363-12.613-2.933zM139.64 57.856s3.997-.05 4.459 1.231l.045 1.354a.685.685 0 0 1-.743.033c-.41-.228-2.87-1.518-3.7-.806l-.061-1.812z" opacity=".1"/>
        <path fill="#656691" d="M139.64 56.952s3.996-.051 4.459 1.231l.045 1.355a.688.688 0 0 1-.744.032c-.41-.229-2.871-1.512-3.7-.806l-.06-1.812z"/>
        <path fill="#000" d="M141.441 47.912a14.46 14.46 0 0 0 1.787 2.908 11.415 11.415 0 0 0 2.718 2.516s-4.41-4.813-4.505-5.424zM139.64 42.488s.829 2.737 2.702 3.616l-2.702-3.616zM138.787 43.393c-.023-.056-.569 2.39 2.654 3.615.006 0-1.36-.373-2.654-3.615zM156.758 39.782c-.043 0 1.402 1.22 1.8 1.802 0 0-.969-1.933-1.8-1.802z" opacity=".1"/>
        <path fill="#2D293D" d="M147.42 38.306a.585.585 0 0 0 .661.556c1.133.027 2.312.032 3.347-.445.192-.075.361-.196.495-.353.176-.235.201-.545.266-.833.125-.56.418-1.06.624-1.603a5.321 5.321 0 0 0 .25-2.848 1.899 1.899 0 0 0-.314-.818c-.317-.418-.87-.57-1.278-.897-.41-.326-.686-.839-1.158-1.077-.426-.215-.935-.176-1.409-.07a7.347 7.347 0 0 0-2.572 1.084c-.262.176-.55.376-.861.33-.273-.04-.478-.262-.66-.468a3.47 3.47 0 0 0-.216 1.63.708.708 0 0 1 0 .243.749.749 0 0 1-.163.263c-.266.336-.421.857-.133 1.173.126.14.312.21.436.353.218.252.162.63.176.964a.49.49 0 0 0 .095.327.48.48 0 0 0 .461.091c.156-.053.32-.075.485-.065.176.05.33.16.437.31.551.638.782 1.362 1.032 2.153z"/>
        <g fill="#000" opacity=".1">
            <path d="M152.19 38.44c-.134.17-.305.302-.497.384-1.029.52-2.206.515-3.34.485a.55.55 0 0 1-.453-.142.66.66 0 0 1-.21-.462c-.248-.864-.48-1.653-1.029-2.355a.817.817 0 0 0-.435-.338c-.165-.01-.33.014-.487.071a.45.45 0 0 1-.461-.1.58.58 0 0 1-.096-.356c0-.363.05-.77-.176-1.05-.122-.154-.31-.23-.435-.385a.86.86 0 0 1-.1-.81c-.186.353-.256.797-.015 1.087.125.15.314.227.436.385.218.275.163.687.176 1.052a.566.566 0 0 0 .095.354c.127.12.302.158.462.1.156-.058.321-.082.486-.071a.826.826 0 0 1 .436.338c.548.704.779 1.491 1.029 2.355a.868.868 0 0 0 .308.534.737.737 0 0 0 .353.072c1.133.028 2.313.032 3.349-.487.192-.083.362-.215.497-.385.066-.101.116-.215.148-.334a.555.555 0 0 1-.04.057zM144.766 32.846a.594.594 0 0 0 .106-.21.79.79 0 0 0 0-.265 4.097 4.097 0 0 1 .123-1.472l-.022-.026a4.096 4.096 0 0 0-.215 1.775c.008.065.01.132.008.198z"/>
        </g>
        <path fill="#000" d="M146.847 41.291s4.157.966 4.504-.611M155.856 38.875s2.192-.101 2.703.901" opacity=".1"/>
        <path fill="#FFF" d="M27.928 30.418v9.74c0 .29-.54.522-1.209.522H1.21C.542 40.68 0 40.445 0 40.158v-9.74c0-.29.539-.586 1.209-.586h25.514c.664 0 1.205.296 1.205.586z"/>
        <path fill="#009688" d="M28.778 30.518v9.492c0 .284-.554.509-1.239.509H1.411c-.682 0-1.238-.229-1.238-.509v-9.492c0-.283.552-.57 1.238-.57h26.132c.681 0 1.235.287 1.235.57z" opacity=".2"/>
        <path fill="#009688" d="M12.613 33.448h13.514v1H12.613z"/>
        <path fill="#009688" d="M5.856 32.544c-1.392 0-2.619.997-3.02 2.451-.4 1.455.12 3.024 1.28 3.862v-.23c.002-.395.273-.727.632-.774.22.438.64.71 1.097.71.458 0 .878-.272 1.098-.71.36.047.63.38.63.774v.245c1.172-.83 1.703-2.403 1.306-3.864-.397-1.46-1.627-2.463-3.023-2.464zm1.236 4.363c-.05.711-.593 1.262-1.247 1.262-.654 0-1.197-.55-1.246-1.262a1.62 1.62 0 0 1-.03-1.167c.135-.377.405-.679.747-.835a.476.476 0 0 1 .055-.567.4.4 0 0 1 .296-.132h.03c-.219.017-.388.215-.388.454 0 .08.02.157.056.225h.012a.498.498 0 0 1 0-.089.48.48 0 0 1 .078-.264.422.422 0 0 1 .399-.32h.03a.413.413 0 0 0-.319.203.387.387 0 0 1 .427-.022c.135.079.22.232.22.4v.05c.39.114.713.409.885.807.172.398.175.858.007 1.259l-.012-.002zM12.613 34.352h13.514v1H12.613z" opacity=".2"/>
        <path fill="#009688" d="M12.613 35.256h13.514v1H12.613zM12.613 37.064h13.514v1H12.613z" opacity=".2"/>
        <path fill="url(#c)" d="M45.945 61.485a10.99 10.99 0 0 1-.176-1.645c0-.66-.878-1.25-.878-1.25s-.545-1.286-.904-1.473c-.358-.188-1.486-1.872-1.486-1.872a1.541 1.541 0 0 0-.34-.908c-.336-.45-.643-.922-.919-1.413-.15-.189-.075-.321-.302-1.418a3.111 3.111 0 0 0-.042-.166c0-.025-.016-.046-.023-.07a1.877 1.877 0 0 0 .429-1.918.79.79 0 0 0-.216-.34c-.257-.212-.666-.124-.929-.326l.28-1.261c.068-.307.103-.7-.164-.866a1.322 1.322 0 0 0-.312-.108c-.46-.148-.718-.64-.836-1.112a3.88 3.88 0 0 1-.091-1.394c.05-.446.175-.882.228-1.33a3.725 3.725 0 0 0-.556-2.369 1.829 1.829 0 0 0-.736-.705c-.283-.129-.61-.145-.878-.315-.565-.357-.537-1.23-.986-1.732-.45-.502-1.248-.497-1.905-.325-.656.171-1.307.466-1.981.39-.434-.049-.841-.25-1.275-.295a1.253 1.253 0 0 0-.373.017l.008-.016c-.323.06-.618.241-.693.552a.866.866 0 0 0-.021.225c0 .179.042.368.046.536a.528.528 0 0 1-.123.38c-.086.095-.214.145-.299.242a.397.397 0 0 0-.11.284c0 .275.337.516.563.627a4.1 4.1 0 0 0-1.164 2.895c.007 1.643.973 3.125 2.458 3.77a5.366 5.366 0 0 1-.253.684 1.12 1.12 0 0 0-.953.108c-.434.302-1.28.284-1.506.227-.227-.058-2.579-.358-2.766-.284-.188.073-.566-.265-.81.189-.244.454-.35.7-.602.813-.25.112-.677.473-.621.548.056.075-.621.536-.621.536s-.583.623-.922.7c-.339.077-1.053.548-1.053.548l-.829.661s-.62.095-.433-.34c.188-.433-.339-.983-.339-.983s-1.053-2.174-1.053-2.626c0-.452-.865-2.363-.865-2.363l-.107-.01c-.016-.047-.032-.094-.05-.142-.158-.455-.363-1.013-.526-1.341-.299-.624-.492-.695-.492-.695s-3.65-2.79-6.022-1.94c-2.371.85 4.328 3.383 4.93 3.65.211.09.362.39.47.739a3.14 3.14 0 0 0-1.291 1.195s1.448 3.268 1.485 4.081c.037.813.999 3.081.999 3.081s.35 1.683 2.296 1.588c0 0 2.671.498 3.254 0 .583-.498 1.111-.893 1.394-.948.208-.07.392-.202.526-.379 0 0-.877 5.67-1.316 6.162-.439.493-4.273 6.86-2.9 7.993 1.09.86 2.24 1.637 3.444 2.322.118.06.467-.536.967-.955v.326c.009 2.265.298 5.716.711 6.488.602 1.134.351 3.327.351 3.327.32.153.666.237 1.018.249.018.073.039.15.06.23.332 1.275.869 3.247 1.142 3.772.416.795.717 3.308.717 3.308s.244 2.476.15 2.817c-.036.13.123 1.158.373 2.461-.153 1.772-.44 5.19-.488 6.43V99.212a1.429 1.429 0 0 0 0 .232.74.74 0 0 1-.025.357 5.794 5.794 0 0 1-.409.99c-.009.032-.11.246-.175.48-.15.066-.336.232-.44.634-.187.738-.47 2.78-.47 2.78s-.112 1.25-.338 1.53c-.227.28-.451 2.06 1.148 2.287 1.599.226 2.295-.865 2.295-.865l-.056-4.948a.717.717 0 0 0 .083-.135v-.011c.01-.025.023-.048.033-.077.01-.028 0-.023.014-.036.014-.012.016-.039.023-.06v-.022c.156-.474.202-.978.135-1.473v-.065-.037-.034a.35.35 0 0 1 0-.043v-.03c0-.032 0-.066.01-.1a.067.067 0 0 1 0-.02v-.059a.14.14 0 0 0 0-.027c0-.02.01-.04.013-.062v-.015c.014-.073.033-.146.053-.223v-.016l.02-.075c.025-.08.052-.159.078-.237v-.016l.026-.074v-.009c.027-.075.055-.148.083-.218v-.02l.026-.062v-.018l.058-.139.444 1.395s.244 1.04.112 1.284c-.131.245.151 1.268.34 1.286l-.176 1.286c-.097.711-.156 1.427-.176 2.144l-.033.203c-.121.658.175 1.68.175 1.68 1.487 1.786 3.256.139 3.256.139s.208-.947 0-1.135c-.207-.187-.112-.87-.112-.87s.093-1.682.112-2.91c.02-1.23-.988-2.31-.988-2.31l-.056.051c-.176-.48-.391-1.043-.351-1.294.075-.435-.207-5.027-.207-5.027.103-1.228.125-2.462.065-3.693l.07-.613c.114-.988.205-1.833.242-2.274v-.052c.009-.12.014-.203.013-.244 0-.147 0-.33.014-.524.036-.536.117-1.121.117-1.121l.395-2.439s.3-1.19.734-1.852l.05-.084a1.5 1.5 0 0 0 .053-.094v-.015l.053-.101v-.015c.061-.121.126-.262.193-.416l.016-.034.05-.118.02-.046.051-.118c0-.016.012-.03.02-.047.019-.048.038-.096.059-.144l.028-.07c.016-.036.03-.071.044-.109l.039-.093.026-.07.042-.105c0-.016.014-.032.02-.048.106-.273.212-.536.303-.79l.084-.22c.964.06 1.619.115 1.619.115s.302-2.211.207-3.667c-.065-.993.116-2.243.237-2.934l.037-.206.026.022c.472.376.81-.87.81-.87s-.127-1.167-.298-2.576c0-.046-.012-.095-.017-.141.272.059.547.102.823.129 0 0 .151-.015.351-.041.568.33 1.167.603 1.787.814l.997-1.89c.188-.39.408-.762.658-1.114.302-.379 1.375-1.588 1.355-1.815-.019-.227.351-1.53.734-2.117.383-.585.606-1.775.585-1.872zm-4.178 1.43c-.395.17-.772 1.114-.79 1.398-.017.284-.433 1.53-.867 1.683-.397.139-1.158.85-1.28.964a6.087 6.087 0 0 0-.412.054c-.165-1.194-.328-2.18-.434-2.38-.3-.568.332-2.38.332-2.38s.063-1.833.458-2.269c.395-.436.302-1.53.302-1.53s.093-.454.132-.661c.038-.208.56 0 .563 0 0 0 1.017.566 1.168 1.416.15.85 1.26 2.322 1.26 2.322s-.176.509 0 .775c.175.266-.035.445-.43.615l-.002-.008z"/>
        <path fill="#4C4981" d="M15.315 46.998c.564-1.286 1.629-1.978 2.703-1.757v2.671h-1.166l-.923-.33-.614-.584z"/>
        <path fill="#000" d="M15.315 46.998c.564-1.286 1.629-1.978 2.703-1.757v2.671h-1.166l-.923-.33-.614-.584z" opacity=".1"/>
        <path fill="#AE6E79" d="M18.018 45.795l-1.704 1.213s-.015-.245-.058-.576c-.085-.626-.276-1.567-.688-1.749-.627-.278-7.603-2.94-5.13-3.834 2.475-.893 6.267 2.038 6.267 2.038s.197.067.508.724c.165.344.371.931.545 1.409.15.432.26.775.26.775z"/>
        <path fill="#4C4981" d="M30.98 47.115l.143-.107.409.715-.334 1.093-.567-.35.132-.873z"/>
        <path fill="#444053" d="M28.654 101.249s-.47-.055-.659.673c-.189.728-.47 2.75-.47 2.75s-.113 1.24-.34 1.514c-.225.275-.45 2.038 1.149 2.263 1.598.225 2.297-.855 2.297-.855l-.057-4.905-1.92-1.44zM34.313 101.248s.766 1.103.752 2.372a115.564 115.564 0 0 1-.087 2.993s-.07.699.087.893c.158.195 0 1.165 0 1.165s-1.346 1.695-2.477-.142c0 0-.221-1.05-.136-1.727.085-.677.343-3.724.343-3.724l1.518-1.83z"/>
        <path fill="#AE6E79" d="M36.937 78.783s-.985 2.852-1.404 3.501c-.42.649-.709 1.847-.709 1.847l-.383 2.43c-.075.542-.118 1.09-.127 1.637.017.546-.947 8.508-.947 8.508l-1.53 2.015s-.675 1.411-.566 1.996c.109.585-.072 1.524-.291 1.806 0 0-.037 1.845-.092 2.26-.055.415.202 1.581 0 1.782-.202.202-2.877.113-2.951-.226-.074-.339.33-1.977.33-1.977l.236-1.58s.472-.867.364-1.149c-.109-.281.2-.94.219-.998.019-.057.517-.979.419-1.335-.098-.357.564-7.945.564-7.945l1.876-13.611 4.992 1.04z"/>
        <path fill="#000" d="M36.937 78.78s-.148.427-.355.99c-.325.892-.792 2.108-1.05 2.51-.418.66-.71 1.845-.71 1.845l-.381 2.43a13.755 13.755 0 0 0-.128 1.636c0 .216-.14 1.592-.32 3.175-.275 2.423-.627 5.335-.627 5.335l-1.532 2.015s-.078.162-.172.397c-.192.462-.463 1.212-.39 1.604.108.585-.073 1.526-.292 1.808 0 0-.036 1.847-.091 2.258-.055.412.202 1.583 0 1.783-.202.2-2.878.114-2.952-.227-.074-.34.328-1.975.328-1.975l.238-1.582s.473-.867.364-1.148c-.109-.282.2-.942.219-.999.019-.057.518-.978.42-1.337-.072-.272.292-4.73.468-6.844l.095-1.099 1.615-11.709.13-.945.132-.957 4.99 1.036z" opacity=".1"/>
        <path fill="#AE6E79" d="M35.135 107.223c.018.202-2.637.495-3.01.275-.374-.22 0-2.951 0-2.951l.176-1.246c-.187-.02-.467-1.009-.336-1.248.13-.24-.114-1.246-.114-1.246l-.44-1.354-.27-.826c-.435-.946-1.062-3.645-1.463-5.658-.248-1.265-.405-2.256-.37-2.39.094-.33-.15-2.73-.15-2.73s-.298-2.43-.709-3.208c-.273-.51-.806-2.43-1.137-3.66-.168-.633-.285-1.088-.285-1.088s2.834-.233 4.541-.314c.79-.037 1.343-.042 1.277.022-.065.065-.08.4-.076.884 0 1.258.186 3.47.375 4.064.262.825.532 3.298.411 3.538-.12.24-.074 1.832-.074 1.832a8.08 8.08 0 0 1 .328 1.991c.059 1.194.037 2.391-.066 3.582 0 0 .282 4.454.205 4.876-.076.421.599 1.735.599 1.997s.17 1.998.17 1.998.4 2.659.418 2.86zM36.937 52.053l-.331.346-.215.22-1.26 1.274-3.248.347-1.726-.44-.427-.108s0-.826.078-1.818c.11-1.27.373-2.814 1-3.234.313-.234.562-.536.727-.882.126-.238.231-.485.315-.74.013-.033.022-.064.033-.095.142-.444.245-.898.306-1.359 0 0 .415-.218.99-.473 1.505-.669 4.104-1.59 3.2.473A7.535 7.535 0 0 0 36 46.63c-.302 1.15-.101 1.847.124 2.232.039.066.083.13.131.19.061.08.135.151.219.21l.375 2.262.03.187.057.342z"/>
        <path fill="#000" d="M35.858 45.423c-.163.348.08-.285 0 0-.654.412-2.196 1.585-3.064 1.585-.584 0-.76-.094-1.262-.294.152-.42.26-.853.323-1.29 0 0 5.196-2.537 4.003 0z" opacity=".1"/>
        <path fill="#AE6E79" d="M36.937 42.936a4.062 4.062 0 0 1-4.056 4.072 4.06 4.06 0 0 1-4.052-4.068 4.06 4.06 0 0 1 4.052-4.068 4.06 4.06 0 0 1 4.052 4.068l.004-.004z"/>
        <path fill="#000" d="M37.838 60.752l-.569 1.521s-.466.022-1.19.045c-2.434.08-7.824.177-8.066-.459a1.571 1.571 0 0 1-.083-.504c-.033-.978.414-2.48.414-2.48s.257-3.002.257-3.132c0-.13-.221-2.242-.221-2.242l.44-1.688 1.231-.889s.551.864.882.938c.33.075.772.49.772.49s1.081.674 1.43.298c.35-.377 3.068-2.026 3.068-2.026l1.433 1.613.202 8.515z" opacity=".1"/>
        <path fill="#FFF" d="M37.838 61.66l-.569 1.522s-.466.021-1.19.043h-.07l-1.056.028c-1.94.045-4.617.057-6.013-.15-.522-.08-.87-.179-.927-.339a1.267 1.267 0 0 1-.066-.279 2.285 2.285 0 0 1-.017-.226c-.033-.977.414-2.488.414-2.488s.257-3.004.257-3.136c0-.131-.221-2.234-.221-2.234l.44-1.69.847-.605.384-.276c.13.198.27.387.423.567.117.163.276.291.459.37.33.076.772.489.772.489s1.081.677 1.43.3c.269-.288 1.914-1.32 2.682-1.792l.386-.236.193.219 1.24 1.397.202 8.516z"/>
        <path fill="#000" d="M18.018 45.905l-1.743 1.103s-.015-.222-.059-.523c.861-.327 1.385-1.052 1.536-1.285.154.393.266.705.266.705z" opacity=".1"/>
        <path fill="#3F3D56" d="M24.214 49.489l-.355-.09s-.582.595-.919.666c-.337.072-1.048.524-1.048.524l-.825.63s-.62.09-.431-.324c.188-.415-.337-.937-.337-.937s-1.049-2.074-1.049-2.505c0-.432-.862-2.253-.862-2.253s-1.088 2.036-3.073 1.387c0 0 1.443 3.118 1.48 3.893.037.775.993 2.939.993 2.939s.355 1.604 2.285 1.513c0 0 2.661.477 3.242 0 .58-.476 1.105-.853 1.387-.904.208-.067.39-.193.523-.36v-2.144l-1.011-2.035z"/>
        <path fill="#000" d="M20.584 52.432s.469 1.632.178 1.808l-.178-1.808zM36.036 62.324c-2.69.071-8.65.158-8.917-.405a1.146 1.146 0 0 1-.092-.447l8.82.381.189.471zM36.937 78.009s-.14.483-.334 1.118a52.263 52.263 0 0 0-3.396-.157c-.423 0-.836 0-1.225.016-.674.001-1.345.094-2.003.276a4.344 4.344 0 0 1-1.79.284c-.154-.735-.261-1.262-.261-1.262s2.603-.27 4.17-.364l.126-1.08 4.713 1.169z" opacity=".1"/>
        <path fill="#65617D" d="M39.64 71.72l-.33.66s-.047.197-.106.51c-.125.67-.313 1.885-.247 2.85.1 1.413-.214 3.56-.214 3.56s-7.17-.569-9.274 0c-2.103.568-3.137 0-3.137 0s.253-2.13-.369-3.23c-.428-.754-.727-4.102-.738-6.3 0-1.017.054-1.787.185-1.942.428-.497 2.26-5.452 2.26-5.452l.417.02 1.107.056 6.346.315.994.049.105.304 3 8.6z"/>
        <path fill="#4C4981" d="M42.289 70.013l.053.499s-2.838-.817-2.697-1.822c.14-1.005 0-.886 0-.886l2.283.172.36 2.037z"/>
        <path fill="#000" d="M42.289 70.013l.053.499s-2.838-.817-2.697-1.822c.14-1.005 0-.886 0-.886l2.283.172.36 2.037zM22.17 52.852c.363.23.792.395 1.253.484a.962.962 0 0 1-.37-.129c-.255-.135-.497-.28-.742-.423-.196-.115-.445-.31-.69-.352.163.154.347.295.548.42z" opacity=".1"/>
        <path fill="#000" d="M22.28 53.323c.077.13.139.28.183.441.038.185.056.377.053.57.02.275-.003.551-.066.81l-.386-1.388c-.065-.237-.14-.473-.212-.702-.035-.097-.253-.498-.228-.583.072-.243.585.719.656.852zM36.087 59.54c.318-.074.616-.347.85-.78-.478.118-.928.49-1.399.675-.436.202-.893.119-1.304-.236.536.533 1.272.55 1.853.34zM35.135 56.043a.346.346 0 0 1-.28-.077c-.414-.26-.822-.531-1.225-.816a7.454 7.454 0 0 1-1.198-.91c.823.817 1.588 1.508 2.703 1.803z" opacity=".1"/>
        <path fill="#000" d="M35.557 59.848c.254.01.508-.006.757-.046a1.08 1.08 0 0 0 .623-.317.441.441 0 0 0-.265.032c-.77.25-1.614.329-2.438.226.394.13.902.104 1.323.105zM32.432 69.057c-.368.27-.746.448-1.129.534-.298.032-.596.019-.893-.04l-1.448-.221-.724-.113c-.086 0-.435 0-.263-.4.087-.197.57-.073.694-.08.241 0 .48-.029.72-.033.478 0 .959 0 1.437.072.538.051 1.073.145 1.606.281z" opacity=".1"/>
        <path fill="#000" d="M30.63 69.568c-.2-.01-.458.147-.664.179-.231.036-.463.049-.696.037a3.138 3.138 0 0 1-1.342-.356c.903.058 1.803.094 2.703.14zM27.537 70.595c.107.04.213.091.317.155.61.321 1.26.04 1.876-.238-.155.422-.441.611-.713.721a1.894 1.894 0 0 1-1.39.092c-.146-.052-.503-.147-.583-.422-.11-.406.357-.348.493-.308zM30.674 71.826c.19.047.378.107.562.18.714.212 1.455-.082 2.171-.282a8.268 8.268 0 0 1 2.629-.298c-.158 0-.409.17-.564.228-.203.074-.408.142-.614.213-.405.123-.815.221-1.228.294-.834.148-1.678.193-2.519.134-.384-.026-1.044.023-1.381-.213.284-.208.615-.298.944-.256zM31.246 48.78s.038 1.687-.248 2.456c-.088.24-.228.681-.379 1.178-.167.55-.348 1.165-.489 1.642-.14.477-.231.807-.231.807s-.642 5.041-.809 7.442v.125a5.28 5.28 0 0 1-.047.421c-.37 2.386-2.5 6.063-3.216 6.358a2.16 2.16 0 0 0-.602.399c0-1.015.052-1.783.18-1.938.417-.496 2.201-5.441 2.201-5.441l.406.02a2.108 2.108 0 0 1-.018-.22c-.034-.954.428-2.429.428-2.429s.266-2.931.266-3.06c0-.128-.229-2.18-.229-2.18l.455-1.648.875-.592c.108-1.271.368-2.817.986-3.237a2.38 2.38 0 0 0 .72-.883c.123.016-.101-.088-.101-.088l-.148.867z" opacity=".1"/>
        <path fill="#3F3D56" d="M31.532 47.97a1.106 1.106 0 0 0-.936.107c-.425.293-1.255.276-1.478.22-.222-.056-2.53-.35-2.713-.276-.184.073-.555-.258-.794.183-.24.442-.35.683-.591.795-.242.112-.666.461-.61.534.055.074-.609.524-.609.524l1.346 4.366s-.874 5.533-1.292 6.012c-.418.478-4.196 6.696-2.843 7.803a27.27 27.27 0 0 0 3.378 2.27c.149.074.684-.922 1.424-1.236.74-.315 3.028-4.473 3.179-6.827.15-2.354.793-7.618.793-7.618s.794-2.878 1.072-3.652.233-2.475.233-2.475l.44-.73z"/>
        <path fill="#000" d="M39.64 71.107l-.287.685s-.04.204-.091.528a.252.252 0 0 1-.146-.07c-.423-.382-2.91-3.254-3.027-5.806a51.775 51.775 0 0 1-.019-4.223l.018-.395s1.921-2.627 1.707-3.559c-.215-.931-.727-5.919-.727-5.919l-.076-.654-.128-1.104-.302-2.678.32.083a.947.947 0 0 0 .192.22l.33 2.351 1.142 1.416.186 8.62-.524 1.543s-.43.022-1.095.043h-.066l2.593 8.92z" opacity=".1"/>
        <path fill="#3F3D56" d="M39.996 56.988s-.523-.209-.552 0c-.03.209-.13.665-.13.665s.091 1.104-.294 1.542c-.385.438-.447 2.282-.447 2.282s-.619 1.827-.326 2.398c.106.207.272 1.247.437 2.49.105.776.21 1.632.303 2.412.174 1.421.291 2.594.291 2.594s-.33 1.261-.79.876c-.46-.386-3.167-3.257-3.295-5.803a47.74 47.74 0 0 1-.025-4.115c.014-.326.025-.51.025-.51s2.09-2.624 1.859-3.556c-.232-.93-.791-5.917-.791-5.917l-.098-.77-.103-.828-.022-.18-.333-2.656c.059.013 2.124.495 2.395.776.272.281 1.95.685 1.95.685.518.146.918.57 1.045 1.11.016.052.028.108.04.165.222 1.105.149 1.236.297 1.427.148.191-1.436 4.913-1.436 4.913z"/>
        <path fill="#000" d="M39.64 69.608c-.739-.17-1.826-.577-1.802-1.468.024-.837.868-1.137 1.506-1.244.11.873.204 1.835.296 2.712z" opacity=".1"/>
        <path fill="#AE6E79" d="M41.437 69.2c-.026.071-.137.132-.284.191a6.172 6.172 0 0 1-1.08.217s-2.267-.22-2.235-1.486c.023-.91 1.047-1.142 1.623-1.205.225-.025.383-.02.383-.02s1.692 2.043 1.593 2.304z"/>
        <path fill="#000" d="M42.337 68.497c-.034.077-.176.143-.364.207-.759-1.06-1.816-2.418-2.333-2.538 0 0 .06-.06.156-.151.29-.027.491-.023.491-.023s2.177 2.222 2.05 2.505z" opacity=".1"/>
        <path fill="#3F3D56" d="M41.307 53.336l.779.11c.28.484.592.95.932 1.395.21.253.33.566.342.892 0 0 1.142 1.654 1.502 1.84.36.187.912 1.45.912 1.45s.9.576.9 1.232c.016.542.073 1.082.171 1.615.018.094-.133 1.246-.514 1.822-.382.575-.76 1.858-.74 2.081.02.224-1.066 1.408-1.37 1.785a7.473 7.473 0 0 0-.664 1.096l-1.008 1.858s-2.13-3.065-2.91-3.232c0 0 .875-.819 1.313-.967.437-.147.855-1.376.875-1.654.02-.278.398-1.208.797-1.376.4-.167.609-.334.438-.594-.171-.26 0-.762 0-.762s-1.122-1.45-1.275-2.288c-.153-.838-1.177-1.394-1.177-1.394l-.59-1.407 1.287-3.502z"/>
        <path fill="#000" d="M44.102 59.384a3.172 3.172 0 0 1 1.844-.624c-.432.068-.89.15-1.206.421a2.517 2.517 0 0 0-.333.387c-.11.139-.99 1.14-1.131.983-.21-.24.649-1.032.826-1.167zM42.342 57.856a.6.6 0 0 0 .495-.343c.085-.192.137-.396.155-.604.052-.348.124-.693.217-1.032a.643.643 0 0 0 .034-.216.6.6 0 0 0-.064-.208 1.466 1.466 0 0 0-.152-.309c-.13.143-.165.464-.22.644-.063.232-.124.464-.183.696-.028.122-.27 1.372-.282 1.372zM41.441 51.661c-.074.102-.159.195-.253.277-.293.253-.693.467-.735.865.011.13-.004.262-.043.386-.095.173-.331.16-.52.125a.882.882 0 0 1-.438-.171c-.196-.185-.215-.498-.364-.722a.903.903 0 0 0-.742-.354c-.281-.01-.56.057-.84.072-.18.01-.36-.004-.537-.039a2.182 2.182 0 0 1-.712-.26 2.357 2.357 0 0 1-.52-.382c-.274-.269-.5-.636-.478-1.035.039-.239.091-.475.156-.708.112-.688-.318-1.34-.784-1.832-.185-.194-.383-.386-.568-.585a2.926 2.926 0 0 1-.671-1.015 3.281 3.281 0 0 1-.12-1.27c.043-.434.056-.87.037-1.307-.139-1.55-1.387-2.736-2.625-3.384l-.053-.03c1.01-1.206 2.577-1.697 4.04-1.266 1.464.432 2.57 1.71 2.853 3.299.283 1.588-.306 3.21-1.52 4.181a2.237 2.237 0 0 0-.036.146c-.288 1.225-.097 1.967.117 2.377.06.012 2.113.507 2.384.795.27.288 1.94.7 1.94.7.512.153.907.587 1.032 1.137z" opacity=".1"/>
        <path fill="#444053" d="M29.839 39.177c.081-.095.206-.144.29-.237.259-.285 0-.75.095-1.125.103-.418.609-.6 1.033-.554.424.045.82.24 1.242.287.657.076 1.293-.212 1.934-.38.642-.169 1.415-.176 1.858.317.443.493.41 1.34.96 1.7.253.165.573.176.847.307.3.157.55.398.718.693.434.69.625 1.509.54 2.322-.045.438-.173.867-.222 1.305-.052.457-.022.92.089 1.365.116.462.367.946.817 1.092.105.022.207.057.304.105.259.161.226.547.16.847l-.278 1.237c.257.199.655.113.905.321.099.09.171.206.21.334.245.712.031 1.502-.538 1.99-.294.242-.696.443-.737.824a.885.885 0 0 1-.044.365c-.095.165-.332.153-.521.12a.895.895 0 0 1-.438-.164c-.198-.175-.216-.473-.365-.686a.924.924 0 0 0-.744-.337c-.283-.008-.561.055-.843.069a2.466 2.466 0 0 1-1.774-.648c-.296-.24-.472-.6-.481-.982.04-.228.092-.454.156-.676.113-.652-.318-1.274-.784-1.74-.465-.467-1.015-.9-1.242-1.523-.285-.772 0-1.632-.085-2.457-.14-1.474-1.39-2.602-2.63-3.216-.283-.139-.756-.505-.432-.875z"/>
        <path fill="#000" d="M39.235 51.898c-.188-.178-.204-.479-.347-.696a.872.872 0 0 0-.715-.34c-.27-.008-.536.056-.806.07a2.294 2.294 0 0 1-1.7-.648c-.264-.26-.48-.615-.46-.997a6.93 6.93 0 0 1 .15-.683c.108-.664-.305-1.292-.753-1.766-.448-.475-.97-.913-1.19-1.544-.272-.781 0-1.654-.08-2.49-.134-1.494-1.332-2.64-2.521-3.262-.278-.146-.731-.516-.421-.89.078-.096.196-.144.278-.238.248-.288 0-.761.091-1.142a.623.623 0 0 1 .09-.208.772.772 0 0 0-.648.546c-.088.38.157.854-.091 1.142-.08.094-.2.142-.278.238-.31.377.143.747.423.89 1.193.624 2.386 1.768 2.519 3.262.073.828-.192 1.702.081 2.49.218.631.743 1.067 1.19 1.543.449.477.86 1.103.752 1.767a7.045 7.045 0 0 0-.15.683c-.02.382.196.738.46.997.464.45 1.075.686 1.7.657.27-.014.537-.079.808-.07a.869.869 0 0 1 .713.34c.143.217.166.525.35.696a.83.83 0 0 0 .419.165c.18.036.406.048.5-.121a.444.444 0 0 0 .04-.22.78.78 0 0 1-.404-.171z" opacity=".1"/>
    </g>
</svg>
