<svg xmlns="http://www.w3.org/2000/svg" width="31" height="15" viewBox="0 0 31 15">
    <g fill="none" fill-rule="evenodd" stroke="#8A959F" stroke-linecap="round" stroke-linejoin="round" stroke-width="1.5">
        <path d="M3.045 9.193L1.513 7.669l1.532-1.523M6.185 1H4.609c-.84 0-1.52.697-1.52 1.558v3.288M6.185 14.153H4.609c-.84 0-1.52-.698-1.52-1.558V9.306"/>
        <g>
            <path d="M28.122 9.193l1.532-1.524-1.532-1.523M24.982 1h1.576c.84 0 1.52.697 1.52 1.558v3.288M24.982 14.153h1.576c.84 0 1.52-.698 1.52-1.558V9.306"/>
            <g transform="matrix(-1 0 0 1 19.7 2.794)">
                <circle cx="4.2" cy="2.333" r="2.333"/>
                <path d="M8.4 9.333C8.4 6.241 7.035 5.6 4.2 5.6S0 6.24 0 9.333"/>
            </g>
        </g>
    </g>
</svg>
