<svg id="Layer_1" data-name="Layer 1" xmlns="http://www.w3.org/2000/svg" viewBox="0 0 382.46 390.3"><defs><style>.cls-1{fill:#fff;}.cls-2{fill:#ea4335;}.cls-3{fill:#fbbc05;}.cls-4{fill:#4285f4;}.cls-5{fill:#34a853;}</style></defs><title>new-google-favicon</title><path class="cls-1" d="M140.1,15.58C92.58,31.84,52.09,67.4,29.54,112.4a193.19,193.19,0,0,0-17,49.09A195.27,195.27,0,0,0,153.32,388.61c32.52,8.71,67.14,8.5,99.87,1,29.58-6.82,57.59-21,79.94-41.54,23.6-21.71,40.49-50.25,49.41-81,9.76-33.46,11-69.24,4.93-103.64H203.88v76.16H310.26a91.9,91.9,0,0,1-39,60.32,111.77,111.77,0,0,1-43,17c-15.32,2.62-31.26,2.94-46.58-.1a115.52,115.52,0,0,1-43.43-18.78,120.65,120.65,0,0,1-44.69-59.9,118.41,118.41,0,0,1,0-75.95,121.87,121.87,0,0,1,28.32-46.05,114.74,114.74,0,0,1,115.6-30.11,105.05,105.05,0,0,1,42.07,24.76L315.4,75c6.29-6.4,12.9-12.59,19-19.2a190.27,190.27,0,0,0-62.84-38.92A196.94,196.94,0,0,0,140.1,15.58Z" transform="translate(-8.71 -4.9)"/><path class="cls-2" d="M140.1,15.58a197.59,197.59,0,0,1,131.44,1.15,189.62,189.62,0,0,1,62.84,38.92c-6.08,6.61-12.69,12.8-19,19.2l-35.88,35.88A106.27,106.27,0,0,0,237.45,86a115.2,115.2,0,0,0-57.28-2.31,116.6,116.6,0,0,0-58.33,32.42,121.07,121.07,0,0,0-28.32,46.05c-21.3-16.57-42.59-33-64-49.62C52.09,67.4,92.58,31.84,140.1,15.58Z" transform="translate(-8.71 -4.9)"/><path class="cls-3" d="M12.65,161.39a194.61,194.61,0,0,1,17-49.09c21.3,16.57,42.59,33,64,49.62a117.7,117.7,0,0,0,0,75.95q-31.94,24.86-63.89,49.62A194.15,194.15,0,0,1,12.65,161.39Z" transform="translate(-8.71 -4.9)"/><path class="cls-4" d="M203.88,163.39H387.46c6.08,34.3,4.72,70.08-4.93,103.64-8.92,30.74-25.81,59.27-49.41,81l-62-48.15a91.9,91.9,0,0,0,39-60.32H203.78Q203.94,201.47,203.88,163.39Z" transform="translate(-8.71 -4.9)"/><path class="cls-5" d="M29.54,287.59Q61.48,262.89,93.42,238a121.26,121.26,0,0,0,44.69,59.9,116.24,116.24,0,0,0,43.43,18.78c15.32,3.15,31.16,2.73,46.58.1a111.77,111.77,0,0,0,43-17l62,48.15c-22.34,20.67-50.35,34.72-79.94,41.54-32.73,7.45-67.35,7.66-99.87-1a192.8,192.8,0,0,1-70.91-35.77A196.44,196.44,0,0,1,29.54,287.59Z" transform="translate(-8.71 -4.9)"/></svg>