<?xml version="1.0" encoding="utf-8"?>
<!-- Generator: Adobe Illustrator 19.1.0, SVG Export Plug-In . SVG Version: 6.00 Build 0)  -->
<svg version="1.1" id="Layer_1" xmlns="http://www.w3.org/2000/svg" xmlns:xlink="http://www.w3.org/1999/xlink" x="0px" y="0px"
	 viewBox="0 0 170.6 47.8" style="enable-background:new 0 0 170.6 47.8;" xml:space="preserve">
<style type="text/css">
	.st0{fill:#099EAB;}
	.st1{fill:url(#SVGID_1_);}
	.st2{fill:url(#SVGID_2_);}
	.st3{fill:#222222;}
</style>
<g>
	<g>
		<g>
			<path class="st0" d="M86.9,16.6C82.8,4,69.4-2.9,56.8,1.2c-12.6,4-19.5,17.5-15.4,30.1c4,12.6,17.5,19.5,30.1,15.4
				C84,42.6,90.9,29.2,86.9,16.6z M52.7,27.6c-2-6.3,1.4-13.1,7.8-15.1s13.1,1.4,15.1,7.8s-1.4,13.1-7.8,15.1
				C61.5,37.4,54.7,33.9,52.7,27.6z"/>
		</g>
		
			<linearGradient id="SVGID_1_" gradientUnits="userSpaceOnUse" x1="-4928.9067" y1="1064.3186" x2="-4886.061" y2="1079.9132" gradientTransform="matrix(0.4565 -0.8897 0.8897 0.4565 1354.569 -4825.918)">
			<stop  offset="0" style="stop-color:#5BC7DA"/>
			<stop  offset="0.2165" style="stop-color:#59C3D7"/>
			<stop  offset="0.3701" style="stop-color:#50BCCE"/>
			<stop  offset="0.5041" style="stop-color:#3EB0C1"/>
			<stop  offset="0.6263" style="stop-color:#1AA1AF"/>
			<stop  offset="0.65" style="stop-color:#099EAB"/>
		</linearGradient>
		<path class="st1" d="M74.8,29.4c-6.1,11.9-25.5,14.9-33.5,1.8c4,12.6,17.5,19.5,30.1,15.4c12.6-4,19.5-17.5,15.4-30.1"/>
		
			<linearGradient id="SVGID_2_" gradientUnits="userSpaceOnUse" x1="-166.9568" y1="-2160.2935" x2="-124.1109" y2="-2144.699" gradientTransform="matrix(-0.4565 0.8897 -0.8897 -0.4565 -1921.2927 -835.1228)">
			<stop  offset="5.772783e-04" style="stop-color:#5BC7DA"/>
			<stop  offset="0.2169" style="stop-color:#59C3D7"/>
			<stop  offset="0.3703" style="stop-color:#50BCCE"/>
			<stop  offset="0.5042" style="stop-color:#3EB0C1"/>
			<stop  offset="0.6263" style="stop-color:#1AA1AF"/>
			<stop  offset="0.65" style="stop-color:#099EAB"/>
		</linearGradient>
		<path class="st2" d="M53.4,18.4c6.1-11.9,25.5-14.9,33.5-1.8C82.8,4,69.4-2.9,56.8,1.2c-12.6,4-19.5,17.5-15.4,30.1"/>
	</g>
	<g>
		<polygon class="st3" points="0,2.8 9,2.8 9,23.5 27.4,2.8 38.1,2.8 21.7,21.4 39.7,45 28.6,45 15.6,28.2 9,35.7 9,45 0,45 		"/>
		<path class="st3" d="M104.7,31.9V45h-9V2.8h18c9.8,0,16.8,5.7,16.8,14.5c0,5.8-3.1,10.3-8,12.7l10.7,15h-10.7l-9.3-13.1H104.7z
			 M113.4,23.7c4.5,0,8.2-2.5,8.2-6.3c0-3.9-3.7-6.3-8.2-6.3h-8.7v12.7H113.4z"/>
		<path class="st3" d="M148.3,20.1H168v8.1h-19.7v8.6h22.3V45h-31.3V2.8h31.3v8.1h-22.3V20.1z"/>
	</g>
</g>
</svg>
