<?xml version="1.0" encoding="UTF-8"?>
<svg width="863px" height="148px" viewBox="0 0 863 148" version="1.1" xmlns="http://www.w3.org/2000/svg" xmlns:xlink="http://www.w3.org/1999/xlink">
    <!-- Generator: Sketch 52.3 (67297) - http://www.bohemiancoding.com/sketch -->
    <title>mattermost</title>
    <desc>Created with Sketch.</desc>
    <g id="mattermost" stroke="none" stroke-width="1" fill="none" fill-rule="evenodd">
        <g transform="translate(17.000000, 5.000000)" fill-rule="nonzero" id="Shape">
            <path d="M317.608092,68.8003355 C317.608092,66.7021814 317.26059,64.9949667 316.566417,63.6812082 C315.873906,62.3708052 314.919522,61.340604 313.705758,60.5989933 C312.491995,59.854027 310.995574,59.3498324 309.21899,59.0889264 C307.440743,58.8263424 305.467961,58.6954696 303.299813,58.6954696 C298.617678,58.6954696 293.632933,59.6132549 288.343085,61.4505034 C287.12849,59.1753354 286.218998,57.0310401 285.612948,55.0192951 C285.006066,53.0075505 284.700962,50.6015103 284.700962,47.8003357 C288.516836,46.4882552 292.331047,45.5260067 296.146921,44.9135906 C299.961132,44.3011745 303.518457,43.9941275 306.811414,43.9941275 C315.829845,43.9941275 322.874663,46.181208 327.94753,50.557886 C333.019566,54.9328861 335.555999,61.9312082 335.555999,71.5562083 L335.555999,110.930369 C332.520759,111.892617 328.835406,112.81208 324.499942,113.68708 C320.166141,114.562081 315.266193,115 309.803425,115 C305.381501,115 301.327031,114.605705 297.641679,113.817953 C293.957158,113.03104 290.791396,111.717282 288.149382,109.880034 C285.50321,108.044463 283.466415,105.681208 282.034008,102.793624 C280.604925,99.9052016 279.889138,96.3624163 279.889138,92.1619128 C279.889138,87.9630872 280.777845,84.4412753 282.555261,81.5973155 C284.332677,78.7541947 286.631346,76.4781877 289.447942,74.7726509 C292.267033,73.0662752 295.409518,71.8414431 298.87872,71.0973154 C302.347092,70.3531881 305.814632,69.9815437 309.283003,69.9815437 C311.797822,69.9815437 314.57202,70.114094 317.608092,70.375 L317.608092,68.8003355 Z M317.608092,82.3196309 C316.566417,82.1442954 315.439944,81.9899328 314.224518,81.8598995 C313.010754,81.7290268 311.929175,81.6635906 310.973959,81.6635906 C306.724954,81.6635906 303.364658,82.4278523 300.893069,83.9597315 C298.422312,85.4907718 297.186933,87.9630872 297.186933,91.3750002 C297.186933,93.6510068 297.664125,95.3993288 298.617678,96.6258388 C299.571231,97.8498323 300.720981,98.7466442 302.064434,99.3145974 C303.408719,99.8842282 304.837801,100.23406 306.355837,100.365772 C307.874705,100.495805 309.196543,100.563758 310.322184,100.563758 C311.624071,100.563758 312.925125,100.45302 314.224518,100.23406 C315.526404,100.0151 316.652877,99.8196311 317.608092,99.6434566 L317.608092,82.3196309 Z M347.869051,59.7441276 L339.414272,59.7441276 L338.762497,57.1191276 L363.08599,25.7508389 L366.077169,25.7508389 L366.077169,45.5687919 L381.81453,45.5687919 C382.073078,46.8825505 382.247661,48.0629193 382.335783,49.1124163 C382.420581,50.1635908 382.46381,51.2567115 382.46381,52.3951341 C382.46381,53.6191276 382.420581,54.8003354 382.335783,55.9379194 C382.247661,57.0763424 382.073078,58.3447986 381.81453,59.7441276 L366.077169,59.7441276 L366.077169,86.3884227 C366.077169,89.0998322 366.294981,91.2869127 366.728943,92.9505033 C367.160412,94.6107383 367.78974,95.9244968 368.612771,96.8875838 C369.438297,97.8498323 370.455863,98.5058726 371.669627,98.8557046 C372.883391,99.2072146 374.315798,99.3817116 375.96103,99.3817116 C377.262916,99.3817116 378.540693,99.2718122 379.79935,99.0528524 C381.055512,98.8347317 382.161201,98.6375838 383.114754,98.4630873 C383.723298,100.123322 384.154766,101.852349 384.415809,103.646812 C384.676851,105.440436 384.805709,107.03859 384.805709,108.437919 C384.805709,109.400168 384.784926,110.208893 384.740865,110.865772 C384.697635,111.520973 384.633621,112.157718 384.545498,112.768456 C380.557536,113.732383 376.439885,114.211409 372.19088,114.211409 C364.299753,114.211409 358.272502,112.353188 354.11162,108.635906 C349.949907,104.916108 347.869051,98.8557046 347.869051,90.456376 L347.869051,59.7441276 Z M396.665678,59.7441276 L388.212561,59.7441276 L387.560787,57.1191276 L411.883448,25.7508389 L414.874627,25.7508389 L414.874627,45.5687919 L430.611988,45.5687919 C430.871368,46.8825505 431.04595,48.0629193 431.133242,49.1124163 C431.218039,50.1635908 431.2621,51.2567115 431.2621,52.3951341 C431.2621,53.6191276 431.218039,54.8003354 431.133242,55.9379194 C431.04595,57.0763424 430.871368,58.3447986 430.611988,59.7441276 L414.874627,59.7441276 L414.874627,86.3884227 C414.874627,89.0998322 415.093271,91.2869127 415.52557,92.9505033 C415.959532,94.6107383 416.588029,95.9244968 417.411061,96.8875838 C418.235755,97.8498323 419.25249,98.5058726 420.467917,98.8557046 C421.680849,99.2072146 423.113256,99.3817116 424.758488,99.3817116 C426.059543,99.3817116 427.338152,99.2718122 428.596808,99.0528524 C429.853802,98.8347317 430.95949,98.6375838 431.913043,98.4630873 C432.519925,100.123322 432.953056,101.852349 433.212435,103.646812 C433.474309,105.440436 433.603999,107.03859 433.603999,108.437919 C433.603999,109.400168 433.582384,110.208893 433.538323,110.865772 C433.495924,111.520973 433.431079,112.157718 433.343788,112.768456 C429.354994,113.732383 425.238174,114.211409 420.987507,114.211409 C413.098043,114.211409 407.070792,112.353188 402.909079,108.635906 C398.747366,104.916108 396.665678,98.8557046 396.665678,90.456376 L396.665678,59.7441276 Z M482.100511,72.214765 C481.927592,68.012584 480.777842,64.6233223 478.653754,62.0419465 C476.529666,59.4605703 473.560103,58.1686241 469.74423,58.1686241 C465.408766,58.1686241 462.114147,59.3942951 459.859537,61.8439597 C457.605761,64.2944632 456.262307,67.750839 455.829177,72.214765 L482.100511,72.214765 Z M455.697824,85.2063759 C456.045327,90.456376 457.865972,94.2625838 461.160592,96.6258388 C464.455213,98.9882548 468.790678,100.169463 474.167818,100.169463 C477.115764,100.169463 480.126899,99.8842282 483.206201,99.3145974 C486.284668,98.7466442 489.210172,97.9370803 491.986034,96.8875838 C492.939587,98.6375838 493.762619,100.737416 494.456791,103.187919 C495.150133,105.635906 495.540034,108.262584 495.627327,111.06208 C488.863503,113.68708 481.232585,115 472.734579,115 C466.49284,115 461.139809,114.125 456.67216,112.374161 C452.207838,110.625 448.565715,108.19547 445.748287,105.091443 C442.930028,101.984899 440.84834,98.2877518 439.504886,93.9991613 C438.161432,89.7122482 437.490537,85.0318794 437.490537,79.9580538 C437.490537,74.9697988 438.183047,70.2885905 439.570562,65.9135905 C440.956414,61.5369129 443.016487,57.7323826 445.748287,54.4958056 C448.479255,51.2567115 451.860335,48.6979866 455.89319,46.8162754 C459.925214,44.9354027 464.628963,43.9941275 470.004442,43.9941275 C474.686575,43.9941275 478.84912,44.8255034 482.490412,46.4882552 C486.132535,48.1501678 489.231788,50.4261743 491.789838,53.3145973 C494.347887,56.1996644 496.27827,59.6359062 497.578491,63.6166106 C498.879548,67.5973154 499.529661,71.864094 499.529661,76.4127516 C499.529661,78.0755036 499.464816,79.7172817 499.334295,81.3347315 C499.204604,82.9521813 499.050806,84.2441274 498.879548,85.2063759 L455.697824,85.2063759 Z M506.582791,45.5687919 C507.883012,45.3078859 509.118393,45.1098994 510.288924,44.9798658 C511.461121,44.8464765 512.738069,44.7818792 514.126413,44.7818792 C515.427469,44.7818792 516.706909,44.8708054 517.962241,45.0436242 C519.220895,45.2189597 520.456275,45.4387584 521.668379,45.7013423 C521.930251,46.1392617 522.168846,46.7726511 522.384998,47.6040269 C522.601976,48.4354026 522.796511,49.3104027 522.970261,50.2298659 C523.144015,51.1484901 523.294487,52.0654364 523.425008,52.9857382 C523.555529,53.9052014 523.662772,54.6677851 523.750895,55.2835571 C525.658,52.569631 528.000732,50.1409394 530.774099,47.9983221 C533.549126,45.8540269 537.017499,44.7818792 541.178379,44.7818792 C542.047136,44.7818792 543.043917,44.8255034 544.170394,44.9135906 C545.296865,45.0008389 546.120728,45.1317114 546.64115,45.3078859 C546.8149,46.181208 546.945421,47.1879193 547.031052,48.3255033 C547.120005,49.4630873 547.162404,50.6442955 547.162404,51.8699665 C547.162404,53.3573826 547.095893,54.9756713 546.967037,56.7256713 C546.836517,58.4756714 546.597917,60.1375839 546.250418,61.7130874 C545.296865,61.5369129 544.235239,61.4505034 543.065534,61.4505034 L540.919833,61.4505034 C539.444197,61.4505034 537.798133,61.604027 535.975824,61.9093958 C534.15601,62.216443 532.421824,63.0251679 530.774099,64.338926 C529.125543,65.6510069 527.761303,67.6199662 526.676398,70.2458053 C525.593155,72.8691273 525.049455,76.5444633 525.049455,81.2701344 L525.049455,113.557047 C523.490683,113.817953 521.930251,113.993289 520.368153,114.080537 C518.808551,114.168624 517.291347,114.211409 515.816541,114.211409 C514.341735,114.211409 512.846973,114.168624 511.328939,114.080537 C509.811735,113.993289 508.229685,113.817953 506.582791,113.557047 L506.582791,45.5687919 Z M555.82003,45.5687919 C557.032964,45.3078859 558.247558,45.1098994 559.460487,44.9798658 C560.675082,44.8464765 562.018537,44.7818792 563.493343,44.7818792 C564.967318,44.7818792 566.267544,44.8464765 567.394846,44.9798658 C568.522148,45.1098994 569.692684,45.3078859 570.906448,45.5687919 C571.165829,46.0067114 571.406085,46.6417784 571.622237,47.4731541 C571.838384,48.3036914 572.034581,49.1803689 572.207505,50.0973156 C572.381254,51.0167784 572.531726,51.9127518 572.662247,52.7877518 C572.794433,53.6627518 572.901677,54.4068791 572.988134,55.0192951 C573.679814,53.7080536 574.5918,52.3951341 575.719937,51.081376 C576.846409,49.770973 578.189859,48.5906042 579.750296,47.5385907 C581.310729,46.4882552 583.066532,45.6350671 585.018527,44.9798658 C586.968866,44.3221476 589.159461,43.9941275 591.586984,43.9941275 C602.077726,43.9941275 608.797491,48.020134 611.746272,56.0704696 C613.479623,52.8322146 615.929599,50.0117451 619.093697,47.6040269 C622.259461,45.1971477 626.269869,43.9941275 631.126587,43.9941275 C638.75584,43.9941275 644.369914,46.1182886 647.967973,50.3615772 C651.567698,54.6040269 653.366729,61.2323826 653.366729,70.2458053 L653.366729,113.425335 C650.24586,113.950503 647.165727,114.211409 644.132149,114.211409 C641.096906,114.211409 638.018435,113.950503 634.897565,113.425335 L634.897565,75.0998321 C634.897565,70.375 634.311471,66.7449662 633.140105,64.2080537 C631.971231,61.6703021 629.608552,60.4010069 626.053717,60.4010069 C624.57808,60.4010069 623.127383,60.6208052 621.697471,61.0570471 C620.265063,61.4932887 618.964842,62.3028525 617.795137,63.4848993 C616.624601,64.6661076 615.671053,66.3296981 614.932817,68.4731544 C614.195412,70.6149331 613.827127,73.3951343 613.827127,76.8070468 L613.827127,113.425335 C610.705427,113.950503 607.626955,114.211409 604.592547,114.211409 C601.558139,114.211409 598.478837,113.950503 595.357136,113.425335 L595.357136,75.0998321 C595.357136,70.375 594.772699,66.7449662 593.601333,64.2080537 C592.430802,61.6703021 590.06895,60.4010069 586.514119,60.4010069 C585.041805,60.4010069 583.566168,60.6208052 582.091362,61.0570471 C580.619053,61.4932887 579.295549,62.3473153 578.125018,63.6166106 C576.953652,64.8842283 576.021711,66.6560402 575.329205,68.9320468 C574.635028,71.2063758 574.287529,74.1820468 574.287529,77.8565438 L574.287529,113.425335 C571.165829,113.950503 568.089849,114.211409 565.05378,114.211409 C562.018537,114.211409 558.941731,113.950503 555.82003,113.425335 L555.82003,45.5687919 Z M690.980101,100.824664 C695.835988,100.824664 699.325973,99.0100672 701.449231,95.3775169 C703.574146,91.7474831 704.636607,86.5184564 704.636607,79.6946309 C704.636607,72.8691273 703.574146,67.6417786 701.449231,64.0100673 C699.325973,60.377517 695.835988,58.5629194 690.980101,58.5629194 C686.211506,58.5629194 682.76475,60.377517 680.640666,64.0100673 C678.514916,67.6417786 677.452455,72.8691273 677.452455,79.6946309 C677.452455,86.5184564 678.514916,91.7474831 680.640666,95.3775169 C682.76475,99.0100672 686.211506,100.824664 690.980101,100.824664 Z M690.980101,115 C685.517334,115 680.769521,114.102349 676.738332,112.308725 C672.706307,110.51594 669.367624,108.021812 666.723118,104.827181 C664.078607,101.633389 662.084214,97.8934565 660.74159,93.6057045 C659.396474,89.317953 658.724744,84.6820469 658.724744,79.6946309 C658.724744,74.7072148 659.396474,70.025168 660.74159,65.6510069 C662.084214,61.2760069 664.078607,57.491611 666.723118,54.2978187 C669.367624,51.1031879 672.706307,48.5906042 676.738332,46.7508388 C680.769521,44.9135906 685.517334,43.9941275 690.980101,43.9941275 C696.442868,43.9941275 701.210632,44.9135906 705.286716,46.7508388 C709.361138,48.5906042 712.742219,51.1031879 715.43245,54.2978187 C718.12019,57.491611 720.113757,61.2760069 721.415644,65.6510069 C722.715866,70.025168 723.365148,74.7072148 723.365148,79.6946309 C723.365148,84.6820469 722.715866,89.317953 721.415644,93.6057045 C720.113757,97.8934565 718.12019,101.633389 715.43245,104.827181 C712.742219,108.021812 709.361138,110.51594 705.286716,112.308725 C701.210632,114.102349 696.442868,115 690.980101,115 Z M747.07677,83.8942954 C742.220053,82.4932884 738.426623,80.4161073 735.696485,77.659396 C732.964687,74.9043622 731.59879,70.7692953 731.59879,65.2558727 C731.59879,58.6057046 733.962303,53.4018458 738.6885,49.6392618 C743.413031,45.8758389 749.852628,43.9941275 758.002304,43.9941275 C761.384215,43.9941275 764.721237,44.3011745 768.016687,44.9135906 C771.312137,45.5260067 774.649989,46.443792 778.03107,47.670302 C777.857316,49.943792 777.424186,52.3062081 776.729183,54.7575506 C776.037503,57.2063756 775.21364,59.3498324 774.260088,61.1895974 C772.178402,60.3137584 769.881395,59.5478188 767.365744,58.8909395 C764.852589,58.2357382 762.207247,57.9077181 759.43305,57.9077181 C756.484269,57.9077181 754.188092,58.3666105 752.538706,59.2852348 C750.891812,60.204698 750.06795,61.6703021 750.06795,63.6812082 C750.06795,65.6065437 750.653217,66.9630875 751.823748,67.750839 C752.994284,68.5377515 754.664456,69.2835572 756.830942,69.9815437 L764.244874,72.214765 C766.673233,72.9135905 768.862166,73.7659397 770.813331,74.7726509 C772.763665,75.7793622 774.433837,77.0260066 775.820525,78.5125841 C777.208038,80.0000001 778.291282,81.8380871 779.07108,84.0251677 C779.852545,86.2130872 780.243277,88.8808725 780.243277,92.0302015 C780.243277,95.2692955 779.570721,98.2877518 778.226436,101.087248 C776.882982,103.887584 774.930982,106.315436 772.373768,108.370805 C769.815719,110.428691 766.715631,112.04698 763.073508,113.227349 C759.43305,114.409396 755.313734,115 750.718063,115 C748.636372,115 746.730928,114.933725 744.996746,114.802852 C743.261728,114.670302 741.593217,114.452181 739.988721,114.146812 C738.385055,113.839765 736.802176,113.46896 735.241743,113.03104 C733.680475,112.59396 731.989522,112.025168 730.168873,111.324664 C730.343458,108.961409 730.754972,106.577181 731.404254,104.17198 C732.054367,101.766778 732.900672,99.4244968 733.940686,97.1493288 C736.802176,98.2877518 739.512362,99.1401005 742.070411,99.7088927 C744.628456,100.278523 747.294583,100.563758 750.06795,100.563758 C751.283375,100.563758 752.605213,100.45302 754.034294,100.23406 C755.465871,100.0151 756.78854,99.6216442 758.002304,99.0528524 C759.216898,98.4840602 760.236131,97.7399329 761.059159,96.8221477 C761.883026,95.9035234 762.292878,94.7005033 762.292878,93.2114093 C762.292878,91.1132552 761.665213,89.6031879 760.40822,88.6845636 C759.150392,87.7667783 757.394593,86.954698 755.141645,86.2558724 L747.07677,83.8942954 Z M792.06251,59.7441276 L783.610225,59.7441276 L782.957621,57.1191276 L807.279449,25.7508389 L810.270629,25.7508389 L810.270629,45.5687919 L826.008821,45.5687919 C826.269032,46.8825505 826.441951,48.0629193 826.530074,49.1124163 C826.615705,50.1635908 826.659764,51.2567115 826.659764,52.3951341 C826.659764,53.6191276 826.615705,54.8003354 826.530074,55.9379194 C826.441951,57.0763424 826.269032,58.3447986 826.008821,59.7441276 L810.270629,59.7441276 L810.270629,86.3884227 C810.270629,89.0998322 810.489272,91.2869127 810.921572,92.9505033 C811.356363,94.6107383 811.984029,95.9244968 812.807061,96.8875838 C813.632589,97.8498323 814.650987,98.5058726 815.863916,98.8557046 C817.07685,99.2072146 818.510088,99.3817116 820.156152,99.3817116 C821.457209,99.3817116 822.734983,99.2718122 823.993641,99.0528524 C825.249803,98.8347317 826.355494,98.6375838 827.309047,98.4630873 C827.916757,100.123322 828.350722,101.852349 828.609268,103.646812 C828.87114,105.440436 829,107.03859 829,108.437919 C829,109.400168 828.978383,110.208893 828.935155,110.865772 C828.891926,111.520973 828.827912,112.157718 828.739789,112.768456 C824.752658,113.732383 820.634177,114.211409 816.385169,114.211409 C808.494044,114.211409 802.467626,112.353188 798.305081,108.635906 C794.144196,104.916108 792.06251,98.8557046 792.06251,90.456376 L792.06251,59.7441276 Z M178.944732,24.7927852 C182.703243,24.2651007 186.318762,24 189.793784,24 C193.457522,24 197.074704,24.2651007 200.643668,24.7927852 L223.892232,73.4865773 L247.844944,24.7927852 C250.757146,24.2651007 253.996066,24 257.566693,24 C261.136488,24 264.563292,24.2651007 267.852093,24.7927852 L272.642303,114.208054 C269.07417,114.736577 265.692259,115 262.499063,115 C259.303372,115 256.158394,114.736577 253.05914,114.208054 L250.521875,49.5595637 L229.950243,94.2416109 C228.634223,94.4177854 227.273312,94.5738255 225.863351,94.7038592 C224.454221,94.8364095 223.046754,94.9018456 221.636792,94.9018456 C220.414715,94.9018456 219.195132,94.8582214 217.974718,94.7701344 C216.753472,94.6820469 215.485671,94.5050334 214.169652,94.2416109 L195.00798,48.6333895 L193.035199,114.208054 C190.029886,114.736577 187.117685,115 184.298594,115 C181.29245,115 178.191533,114.736577 175,114.208054 L178.944732,24.7927852 Z" fill="#222C3B"></path>
            <path d="M91.541865,56.3844177 C91.541865,56.3844177 91.7535506,65.8003077 85.3008897,72.1971321 C78.8473992,78.5939565 70.9212443,78.009296 65.7652592,76.2427139 C60.6084436,74.4761322 53.9615309,70.0684973 52.6748173,61.0213801 C51.3889338,51.973423 57.2090294,44.623165 57.2090294,44.623165 L69.8918737,28.6634452 L77.2784388,19.5482854 L83.6190311,11.6049668 C83.6190311,11.6049668 86.5286636,7.6610285 87.3579711,6.84703996 C87.5223385,6.6857543 87.6908565,6.5799106 87.856054,6.49842772 L87.9764237,6.43626553 L87.9980075,6.42786524 C88.3466654,6.27581992 88.7484517,6.24305876 89.1361262,6.37578344 C89.5154991,6.505988 89.8093679,6.76975725 89.9953186,7.09484863 L90.0343352,7.15785088 L90.0683706,7.23009337 C90.1588559,7.40313948 90.2343982,7.60054637 90.2700944,7.84415491 C90.4394424,9.00087552 90.3838232,13.9226081 90.3838232,13.9226081 L90.6519576,24.1289661 L91.0479332,35.9103793 L91.541865,56.3844177 Z M107.959332,13.1698356 C131.416292,30.4450415 142.174125,61.7957813 132.39232,91.1178498 C120.352985,127.203836 81.7638637,146.554754 46.2013402,134.339045 C10.6388167,122.122497 -8.43057036,82.9662036 3.60793743,46.8802179 C13.4062992,17.5102679 40.7913794,-0.772133384 69.8180743,0.0250545749 L60.5139356,11.1798058 C43.2939519,14.3391566 28.4258733,26.2717752 22.5821224,43.7889096 C13.8872766,69.8508239 28.4606427,98.4059454 55.1329492,107.567307 C81.8044279,116.729508 110.47515,103.029467 119.169996,76.9675533 C124.994706,59.5083807 120.376165,40.9319694 108.675417,27.8149093 L107.959332,13.1698356 Z" fill="#0058CC"></path>
        </g>
    </g>
</svg>