<svg xmlns="http://www.w3.org/2000/svg" xmlns:xlink="http://www.w3.org/1999/xlink" width="555" height="262" viewBox="0 0 555 262">
    <defs>
        <path id="a" d="M8.447 16.47s16.373 4.901 39.3-2.453c22.927-7.355 70.412 10.622 70.412 10.622s37.662 0 93.339-23.697c0 0-25.381 24.514-7.37 39.224 18.012 14.71 1.639 35.954-19.65 44.126-21.288 8.172-22.923 24.514-21.288 40.041 1.635 15.528 0 .818 0 .818s-63.862-11.44-80.239 27.79L1.897 25.46s-4.912-9.804 6.55-8.99z"/>
        <path id="c" d="M8.076 11.2h9.048c2.808 0 3.826.292 4.853.841a5.724 5.724 0 0 1 2.382 2.382c.549 1.027.841 2.045.841 4.853v14.648c0 2.808-.292 3.826-.841 4.853a5.724 5.724 0 0 1-2.382 2.382c-1.027.549-2.045.841-4.853.841H8.076c-2.808 0-3.826-.292-4.853-.841A5.724 5.724 0 0 1 .84 38.777C.292 37.75 0 36.732 0 33.924V19.276c0-2.808.292-3.826.841-4.853a5.724 5.724 0 0 1 2.382-2.382c1.027-.549 2.045-.841 4.853-.841zm80.8 0h9.048c2.808 0 3.826.292 4.853.841a5.724 5.724 0 0 1 2.382 2.382c.549 1.027.841 2.045.841 4.853v14.648c0 2.808-.292 3.826-.841 4.853a5.724 5.724 0 0 1-2.382 2.382c-1.027.549-2.045.841-4.853.841h-9.048c-2.808 0-3.826-.292-4.853-.841a5.724 5.724 0 0 1-2.382-2.382c-.549-1.027-.841-2.045-.841-4.853V19.276c0-2.808.292-3.826.841-4.853a5.724 5.724 0 0 1 2.382-2.382c1.027-.549 2.045-.841 4.853-.841z"/>
        <path id="d" d="M0 62.409c0-.015.01.128 0 .7.128.335.28 1.05.697 2.104.577 2.143 1.94 4.598 4.185 7.013 6.76 7.292 19.646 11.92 40.447 11.92 20.8 0 33.687-4.628 40.447-11.92 2.246-2.415 3.608-4.87 4.185-7.013.417-1.053.569-1.77.697-2.103-.01-.573 0-.716 0-.701V35.06c0 .073-.02-.351 0-.701-.182-1.485-.369-2.816-.697-4.208-.828-4.2-2.367-8.352-4.882-11.92C78.303 6.776 65.73 0 45.329 0S12.355 6.775 5.579 18.232C3.064 21.8 1.525 25.952.697 30.152.37 31.544.182 32.875 0 34.36c.02.318 0 .927 0 .701v27.348z"/>
        <path id="f" d="M0 1.558c0 8.108 4.515 12.466 13.947 12.466 9.428 0 13.948-4.444 13.948-12.466 0-.509-.576-1.558-2.092-1.558H2.093C.661 0 0 .971 0 1.558z"/>
    </defs>
    <g fill="none" fill-rule="evenodd">
        <rect width="52" height="21" x="298" y="206" fill="#EDEFF2" fill-rule="nonzero" rx="3.536" transform="rotate(-180 324 216.5)"/>
        <g fill-rule="nonzero" opacity=".7" transform="translate(0 39)">
            <path fill="#009688" d="M180.65 56.145zM183.038 60.064zM182.052 59.37zM180.701 56.805zM131.034 82.888a1.008 1.008 0 0 1-.188-.224 1.076 1.076 0 0 1-.124-.368 8.904 8.904 0 0 0 0 .911c.134.423.202.863.204 1.307.002-.432.069-.862.196-1.275-.04-.1-.07-.202-.092-.307 0 0 .004-.028.004-.044z"/>
            <path fill="#8A959F" d="M191.778 0h-42.845a4.43 4.43 0 0 0-4.437 4.422A4.43 4.43 0 0 0 140.06 0H97.214a4.43 4.43 0 0 0-4.437 4.422v11.674a4.428 4.428 0 0 0 3.086 4.21H62.648a4.444 4.444 0 0 0-3.138 1.3 4.415 4.415 0 0 0-1.295 3.13V36.41c0 1.45.713 2.806 1.908 3.632H29.925a4.43 4.43 0 0 0-4.436 4.422v11.673a4.43 4.43 0 0 0 4.436 4.423h31.372a4.428 4.428 0 0 0-3.082 4.223v11.673c0 1.449.713 2.806 1.908 3.631H31.937a4.43 4.43 0 0 0-4.436 4.423v11.673a4.43 4.43 0 0 0 4.436 4.422h29.36a4.428 4.428 0 0 0-3.082 4.223v11.673a4.43 4.43 0 0 0 4.437 4.423H88.16a4.414 4.414 0 0 0-1.907 3.631v11.674a4.43 4.43 0 0 0 4.424 4.426H56.04a4.43 4.43 0 0 0-4.436 4.422v11.674a4.43 4.43 0 0 0 4.436 4.422h42.842a4.43 4.43 0 0 0 4.436-4.422 4.43 4.43 0 0 0 4.437 4.422h42.85a4.43 4.43 0 0 0 4.436-4.422v-11.67a4.42 4.42 0 0 0-2.404-3.923h-9.226a4.42 4.42 0 0 1-2.048-.499h-7.83a4.444 4.444 0 0 0 3.138-1.297 4.415 4.415 0 0 0 1.298-3.13c0 1.926 1.005-11.185 1.005-11.185a4.43 4.43 0 0 1 4.437-4.423l16.331-.5a4.461 4.461 0 0 0 1.174-1.198 4.383 4.383 0 0 1-.352-1.713v-11.678a4.385 4.385 0 0 1 .733-2.433 4.442 4.442 0 0 0-1.683-1.997h-23.248a4.419 4.419 0 0 1-2.405-.711h-6.112a4.428 4.428 0 0 0 3.09-4.215l-.156-11.585c0-.524-.028-.983-.048-1.395a4.431 4.431 0 0 0-1.704-2.325h3.816l-.084.064c2.164-.124 26.879-1.57 28.89-3.196a3.465 3.465 0 0 1-.027-.927 4.42 4.42 0 0 1-.056-.67V64.49c0-.144 0-.288.02-.428a4.435 4.435 0 0 0-3.03-3.495h5.402a4.42 4.42 0 0 1 2.048-.5h12.252a4.417 4.417 0 0 0 2.404-3.923V44.468c0-1.449-.713-2.806-1.908-3.631l-12.736-.8c-2.156 0-3.587-.798-2.449 0h-3.815a4.41 4.41 0 0 0 1.908-3.595 4.429 4.429 0 0 1-.08-.799V23.946v-.028a4.435 4.435 0 0 0-3.01-3.396h4.64a4.417 4.417 0 0 1 2.806-1.003H194.6a4.39 4.39 0 0 0 1.63-3.423V4.426a4.415 4.415 0 0 0-1.303-3.135A4.444 4.444 0 0 0 191.778 0zM79.12 40.837a4.414 4.414 0 0 0-1.907 3.631c0-1.449-.713-2.806-1.908-3.631h3.815zm-1.907 15.308c0 1.926 1.25 3.63 3.09 4.215h-6.18a4.428 4.428 0 0 0 3.085-4.215h.005zm3.915 24.737a4.414 4.414 0 0 0-1.908 3.632c0-1.45-.713-2.806-1.907-3.632h3.815zm-4.998 19.52a4.428 4.428 0 0 0 3.09-4.215c.001 1.925 1.25 3.63 3.09 4.215h-6.18zm54.709-59.565a4.414 4.414 0 0 0-1.908 3.631c0-1.449-.713-2.806-1.907-3.631h3.815zM103.321 145.08a4.43 4.43 0 0 0-4.436-4.422h8.877a4.444 4.444 0 0 0-3.14 1.294 4.415 4.415 0 0 0-1.3 3.128zm4.701-24.948a4.414 4.414 0 0 0 1.908-3.632c0 1.45.713 2.806 1.908 3.632h-3.816zm1.892-15.305a4.428 4.428 0 0 0-3.074-4.223h6.18a4.428 4.428 0 0 0-3.106 4.223zm-1.908-24.737a4.414 4.414 0 0 0 1.908-3.631c0 1.449.713 2.806 1.908 3.631h-3.816zm1.908-15.308c0-1.926-1.25-3.63-3.09-4.215h6.18a4.428 4.428 0 0 0-3.09 4.215zm-1.908-24.737a4.414 4.414 0 0 0 1.908-3.632c0 1.45.713 2.806 1.908 3.632h-3.816zm1.908-15.31c0-1.924-1.25-3.628-3.09-4.214h6.18a4.428 4.428 0 0 0-3.09 4.215zm15.91 35.62a4.428 4.428 0 0 0 3.09-4.215c.001 1.926 1.25 3.63 3.09 4.215h-6.18zm15.582-40.05a4.428 4.428 0 0 0 3.09-4.214c0 1.925 1.25 3.629 3.09 4.214h-6.18z" opacity=".3"/>
            <path fill="#009688" d="M182.108 41.196l.064-.056-.064.056zM181.815 41.48l-.064.072.064-.072zM181.443 41.951l.032-.044-.032.044zM180.85 57.42zM181.314 58.47zM181.05 57.971zM180.773 43.457c0-.056.028-.108.04-.16a1.862 1.862 0 0 0-.04.16zM180.922 42.958c0-.044.032-.088.048-.132l-.048.132zM180.681 43.957c0-.052 0-.104.024-.152l-.024.152z"/>
            <rect width="51.719" height="20.522" x="93.278" y=".004" fill="#E5E8EC" opacity=".1" rx="3.536" transform="rotate(-180 119.138 10.265)"/>
            <rect width="51.719" height="20.522" x="109.846" y="20.027" fill="#E5E8EC" opacity=".1" rx="3.536" transform="rotate(-180 135.705 30.288)"/>
            <rect width="51.719" height="20.522" x="77.708" y="40.046" fill="#E5E8EC" opacity=".1" rx="3.536" transform="rotate(-180 103.568 50.307)"/>
            <rect width="51.719" height="20.522" x="58.127" y="60.568" fill="#E5E8EC" opacity=".1" rx="3.536" transform="rotate(-180 83.986 70.829)"/>
            <rect width="51.719" height="20.522" x="79.215" y="80.591" fill="#E5E8EC" opacity=".1" rx="3.536" transform="rotate(-180 105.075 90.852)"/>
            <rect width="51.719" height="20.522" x="58.127" y="100.613" fill="#E5E8EC" opacity=".1" rx="3.536" transform="rotate(-180 83.986 110.875)"/>
            <rect width="51.719" height="20.522" x="34.73" y="120.656" fill="#E5E8EC" rx="3.536" transform="rotate(-180 60.59 130.917)"/>
            <rect width="51.719" height="20.522" y="140.703" fill="#E5E8EC" rx="3.536" transform="rotate(-180 25.86 150.964)"/>
            <rect width="51.719" height="20.522" x="6.941" y="100.246" fill="#E5E8EC" rx="3.536" transform="rotate(-180 32.8 110.507)"/>
            <rect width="51.719" height="20.522" x="6.941" y="60.524" fill="#E5E8EC" rx="3.536" transform="rotate(-180 32.8 70.785)"/>
            <rect width="51.719" height="20.522" x="8.773" y="20.071" fill="#E5E8EC" rx="3.536" transform="rotate(-180 34.632 30.332)"/>
            <rect width="51.719" height="20.522" x="8.773" y="20.071" fill="#E5E8EC" opacity=".1" rx="3.536" transform="rotate(-180 34.632 30.332)"/>
            <rect width="51.719" height="20.522" x="41.676" y=".028" fill="#E5E8EC" rx="3.536" transform="rotate(-180 67.535 10.29)"/>
            <rect width="51.719" height="20.522" x="86.75" y="120.632" fill="#E5E8EC" opacity=".1" rx="3.536" transform="rotate(-180 112.61 130.893)"/>
            <rect width="51.719" height="20.522" x="51.603" y="140.659" fill="#E5E8EC" opacity=".1" rx="3.536" transform="rotate(-180 77.462 150.92)"/>
        </g>
        <g fill-rule="nonzero" opacity=".7" transform="matrix(1 0 0 -1 375 202)">
            <path fill="#8A959F" d="M159.603 120.724H134.12a4.444 4.444 0 0 0 1.906-3.65v-11.731a4.438 4.438 0 0 0-4.432-4.444h-29.322a4.447 4.447 0 0 0 3.086-4.236V84.928c0-1.456-.712-2.82-1.905-3.65h28.153a4.438 4.438 0 0 0 4.432-4.444V65.1a4.438 4.438 0 0 0-4.432-4.444H100.27a4.447 4.447 0 0 0 3.087-4.236V44.684c0-1.456-.713-2.82-1.906-3.65h30.159a4.438 4.438 0 0 0 4.432-4.444V24.855a4.45 4.45 0 0 0-1.302-3.155 4.426 4.426 0 0 0-3.15-1.297h-15.786a4.447 4.447 0 0 0 3.087-4.236V4.444A4.438 4.438 0 0 0 114.459 0H71.656a4.438 4.438 0 0 0-4.432 4.444 4.45 4.45 0 0 0-1.298-3.142A4.426 4.426 0 0 0 62.792 0H19.986a4.431 4.431 0 0 0-4.004 2.573c.057.286.085.577.084.868v11.743a4.427 4.427 0 0 1-.4 1.867 4.439 4.439 0 0 0 1.541 2.577h10.994c1.023 0 2.014.356 2.803 1.008h4.804a4.447 4.447 0 0 0-3.087 4.235 4.468 4.468 0 0 0-.112-.855v11.78c-.001.373-.05.746-.144 1.108.072.075.136.157.192.244.024-.185.036-.371.036-.558.003.258.029.514.076.767.06.142.093.293.1.446.28.988.893 1.85 1.734 2.437h-3.811l.096-.076c-.353 0-.713-.029-1.065-.033a.983.983 0 0 1-.369-.076 4.417 4.417 0 0 1-1.273.189l-26.267.803a4.444 4.444 0 0 0-1.906 3.65v11.73a4.447 4.447 0 0 0 3.087 4.236l25.086.209c.441 0 .88.066 1.301.196.28.024.558.073.83.145h.063a4.397 4.397 0 0 0-.764-.33h6.173a4.447 4.447 0 0 0-3.087 4.236c0-.258-.023-.516-.068-.77a.987.987 0 0 1-.096.12c.056.283.084.57.084.859v11.731c0 .546.08.402.08-.209 0 1.457.712 2.82 1.906 3.65l15.65.502c.537 0 1.068.1 1.57.293h3.767a4.462 4.462 0 0 0-1.534 1.879c.411.686.629 1.471.629 2.272v11.719c0 .612-.127 1.218-.372 1.779a4.446 4.446 0 0 0 2.454 1.955H52.65a4.395 4.395 0 0 1-2.402.714h-15.53a4.44 4.44 0 0 0-2.03 3.734c0-1.566-.58 13.875-.58 13.875 0 1.385 24.157 2.007 24.157 2.007.614 0 1.22.129 1.782.378.253-.054.51-.075.769-.064h-.024 3.811a4.444 4.444 0 0 0-1.906 3.649c0-.212-.017-.424-.048-.634-.02.048-.044.096-.068.14.076.327.115.66.116.996v11.241a4.438 4.438 0 0 0 4.432 4.444h-6.806a4.394 4.394 0 0 1-2.046.502h-27.8a4.446 4.446 0 0 0-2.403 3.943v11.73a4.45 4.45 0 0 0 1.298 3.143A4.426 4.426 0 0 0 30.507 162h42.815a4.426 4.426 0 0 0 3.134-1.302 4.45 4.45 0 0 0 1.298-3.142 4.45 4.45 0 0 0 1.298 3.142A4.426 4.426 0 0 0 82.186 162h42.802a4.426 4.426 0 0 0 3.134-1.302 4.45 4.45 0 0 0 1.298-3.142v-11.76a4.438 4.438 0 0 0-4.432-4.444h34.611a4.426 4.426 0 0 0 3.134-1.301 4.45 4.45 0 0 0 1.298-3.143v-11.72a4.45 4.45 0 0 0-1.29-3.153 4.426 4.426 0 0 0-3.138-1.31zM53.576 41.034a4.444 4.444 0 0 0-1.906 3.65c0-1.456-.712-2.82-1.905-3.65h3.811zm-4.992 19.62a4.447 4.447 0 0 0 3.086-4.235 4.447 4.447 0 0 0 3.087 4.236h-6.173zm15.55-40.251a4.447 4.447 0 0 0 3.086-4.236 4.447 4.447 0 0 0 3.087 4.236h-6.174zm13.612 125.385a4.45 4.45 0 0 0-1.298-3.143 4.426 4.426 0 0 0-3.134-1.302h8.868a4.426 4.426 0 0 0-3.134 1.306 4.45 4.45 0 0 0-1.294 3.147l-.008-.008zm4.696-25.073a4.444 4.444 0 0 0 1.906-3.649c0 1.456.712 2.82 1.905 3.65h-3.811zm1.906-15.384c-.001-1.93-1.243-3.64-3.075-4.232h6.185a4.447 4.447 0 0 0-3.102 4.244l-.008-.012zm-1.906-24.86a4.444 4.444 0 0 0 1.906-3.649c0 1.456.712 2.82 1.905 3.65h-3.811zm1.906-15.384a4.447 4.447 0 0 0-3.087-4.235h6.197a4.447 4.447 0 0 0-3.102 4.247l-.008-.012zm-1.906-24.86a4.444 4.444 0 0 0 1.906-3.649c0 1.457.712 2.82 1.905 3.65h-3.811zm1.906-15.384a4.447 4.447 0 0 0-3.087-4.235h6.197a4.447 4.447 0 0 0-3.102 4.247l-.008-.012zm29.934 96.675a4.444 4.444 0 0 0-1.905 3.65c0-1.456-.712-2.82-1.906-3.65h3.811zm-6.341 19.83a4.426 4.426 0 0 0 3.134-1.302 4.45 4.45 0 0 0 1.298-3.143 4.45 4.45 0 0 0 1.298 3.143 4.426 4.426 0 0 0 3.134 1.301h-8.864z" opacity=".3"/>
            <rect width="51.666" height="20.624" x="15.554" fill="#E5E8EC" opacity=".1" rx="3.536" transform="rotate(-180 41.387 10.312)"/>
            <rect width="51.666" height="20.624" x="84.28" y="20.122" fill="#E5E8EC" opacity=".1" rx="3.536" transform="rotate(-180 110.113 30.434)"/>
            <rect width="51.666" height="20.624" y="40.24" fill="#E5E8EC" opacity=".1" rx="3.536" transform="rotate(-180 25.833 50.552)"/>
            <rect width="51.666" height="20.624" x="84.28" y="60.864" fill="#E5E8EC" opacity=".1" rx="3.536" transform="rotate(-180 110.113 71.175)"/>
            <rect width="51.666" height="20.624" x="84.28" y="101.107" fill="#E5E8EC" opacity=".1" rx="3.536" transform="rotate(-180 110.113 111.42)"/>
            <path fill="#E5E8EC" d="M109.142 121.23H63.929a3.228 3.228 0 0 0-3.098 2.328c.012.183 0 .366-.037.546a2.297 2.297 0 0 1-.092.31v14.203a3.231 3.231 0 0 0 3.227 3.236h45.213a3.231 3.231 0 0 0 3.227-3.236v-14.152a3.231 3.231 0 0 0-3.227-3.236z" opacity=".1"/>
            <rect width="51.666" height="20.624" x="26.087" y="141.351" fill="#E5E8EC" opacity=".1" rx="3.536" transform="rotate(-180 51.92 151.663)"/>
            <rect width="51.666" height="20.624" x="104.237" y="80.965" fill="#E5E8EC" rx="3.536" transform="rotate(-180 130.07 91.277)"/>
            <rect width="51.666" height="20.624" x="102.047" y="40.312" fill="#E5E8EC" rx="3.536" transform="rotate(-180 127.88 50.624)"/>
            <rect width="51.666" height="20.624" x="127.979" y="141.03" fill="#E5E8EC" rx="3.536" transform="rotate(-180 153.812 151.342)"/>
        </g>
        <rect width="37" height="21" x="215" y="198" fill="#EDEFF2" fill-rule="nonzero" rx="3.536" transform="rotate(-180 233.5 208.5)"/>
        <g transform="translate(266.15 80.058)">
            <mask id="b" fill="#fff">
                <use xlink:href="#a"/>
            </mask>
            <use fill="#009DAB" fill-rule="nonzero" xlink:href="#a"/>
            <path fill="#000" fill-rule="nonzero" d="M-32.848-7.606l199.955 142 12.045-34.904z" mask="url(#b)" opacity=".1"/>
        </g>
        <path fill="#000" fill-rule="nonzero" d="M279.773 107.942s16.366 4.848 39.281-2.425c22.916-7.272 70.371 10.506 70.371 10.506s30.453 0 77.067-17.05c3.686-9.624 12.133-17.695 12.133-17.695-55.663 23.43-93.293 23.43-93.293 23.43s-47.466-17.774-70.378-10.502-39.281 2.425-39.281 2.425c-11.456-.808-6.547 8.89-6.547 8.89l3.37 5.243c.701-1.767 2.66-3.147 7.277-2.822zM470 151.964c-4.471 4.61-10.929 8.74-19.372 12.386-14.5-9.235-36.045-20.41-64.636-33.525L470 151.964z" opacity=".1"/>
        <g>
            <g transform="translate(180)">
                <path fill="#009688" fill-rule="nonzero" d="M1.144 8.94c0 .066 0 .126.03.19l-.03-.19zM1.008 8.305c0 .065.035.135.05.2a2.34 2.34 0 0 0-.05-.2zM1.073 25.61c0 .11-.055.221-.085.326.035-.105.06-.215.085-.325zM1.164 25.085c0 .115-.03.235-.056.35a2.83 2.83 0 0 0 .056-.35zM33.588 134.267zM30.83 130.933zM32.071 131.814zM31.46 131.328zM33.302 133.526zM33.738 134.953zM33.818 135.849zM1.214 24.404c0 .176 0 .35-.025.5.015-.154.025-.324.025-.5z"/>
                <path fill="#8A959F" fill-rule="nonzero" d="M92.116 84.158h20.193v11.784H92.116z"/>
                <use fill="#60686E" transform="translate(48 16.327)" xlink:href="#c"/>
                <g transform="translate(55.671 .854)">
                    <mask id="e" fill="#fff">
                        <use xlink:href="#d"/>
                    </mask>
                    <use fill="#E1E6E8" transform="matrix(1 0 0 -1 0 84.146)" xlink:href="#d"/>
                    <g mask="url(#e)">
                        <g transform="translate(-2.79 -1.402)">
                            <path fill="#8A959F" d="M0 0h96.237v86.951H0z"/>
                            <circle cx="48.5" cy="34.5" r="18" fill="#FFF"/>
                            <circle cx="48.5" cy="34.5" r="11" fill="#26344A"/>
                        </g>
                    </g>
                </g>
                <use fill="#FFF" transform="translate(87.053 60.561)" xlink:href="#f"/>
                <path fill="#8A959F" fill-rule="nonzero" d="M60.147 92.573h84.135v67.331H60.147z"/>
                <ellipse cx="102.115" cy="247.526" fill="#E5E8EC" fill-rule="nonzero" rx="82" ry="14"/>
                <rect width="87.503" height="8.415" x="58.466" y="159.371" fill="#60686E" fill-rule="nonzero" rx="4.208"/>
                <rect width="31.974" height="11.784" x="60" y="238.702" fill="#60686E" fill-rule="nonzero" rx="5.892"/>
                <rect width="22" height="15" x="11.974" y="173" fill="#60686E" fill-rule="nonzero" rx="5.892"/>
                <rect width="22" height="15" x="174" y="46" fill="#60686E" fill-rule="nonzero" rx="5.892"/>
                <path fill="#8A959F" fill-rule="nonzero" d="M74 204.284V239.5h15.144v-72H74v24.35zM114 191.85V239.501h15.149v-72H114z"/>
                <rect width="31.974" height="11.784" x="112" y="238.702" fill="#60686E" fill-rule="nonzero" rx="5.892"/>
                <path fill="#A6B1BC" fill-rule="nonzero" d="M60.687 107.721v15.57c-9.25-.928-17.027 2.585-20.185 5.38a26.472 26.472 0 0 0-6.67 9.782c-1.948 4.716-2.894 9.957-3.279 14.913a85.29 85.29 0 0 0 .931 20.025h-16.82c-.716-9.307-.5-17.286.44-24.145 1.041-7.729 2.963-14.016 5.4-19.133 4.875-10.227 11.81-15.779 17.901-18.792 7.237-3.6 22.282-3.6 22.282-3.6z"/>
                <path fill="#000" fill-rule="nonzero" d="M74 103h57.211v43.763H74z" opacity=".3"/>
                <g stroke="#FFF" stroke-width="3" opacity=".2" transform="translate(83 117)">
                    <ellipse cx="4.5" cy="7.5" rx="4.5" ry="6.5"/>
                    <ellipse cx="26.5" cy="7.5" rx="4.5" ry="6.5"/>
                    <path d="M15.5.54v13.736M37.5.54v13.736"/>
                </g>
                <g fill="#A6B1BC" fill-rule="nonzero">
                    <path d="M143.748 125v-15.569c4.162-.72 20.041-2.582 23.205-5.381a26.472 26.472 0 0 0 6.661-9.767c1.947-4.716 2.893-9.957 3.278-14.913a85.29 85.29 0 0 0-.93-20.024h16.824c.716 9.306.5 17.286-.44 24.144-1.041 7.73-2.963 14.017-5.4 19.133-4.874 10.227-11.81 15.779-17.901 18.793C161.793 125 143.748 125 143.748 125z"/>
                </g>
                <path fill="#000" fill-rule="nonzero" d="M92.116 84.158h20.193v1.397H92.116z" opacity=".1"/>
            </g>
        </g>
    </g>
</svg>
