<svg xmlns="http://www.w3.org/2000/svg" width="313" height="239" viewBox="0 0 313 239">
    <defs>
        <linearGradient id="a" x1="49.999%" x2="49.999%" y1="100%" y2="0%">
            <stop offset="0%" stop-color="gray" stop-opacity=".25"/>
            <stop offset="54%" stop-color="gray" stop-opacity=".12"/>
            <stop offset="100%" stop-color="gray" stop-opacity=".1"/>
        </linearGradient>
        <linearGradient id="b" x1="50.014%" x2="50.014%" y1="99.998%" y2="-.009%">
            <stop offset="0%" stop-color="gray" stop-opacity=".25"/>
            <stop offset="54%" stop-color="gray" stop-opacity=".12"/>
            <stop offset="100%" stop-color="gray" stop-opacity=".1"/>
        </linearGradient>
    </defs>
    <g fill="none" fill-rule="evenodd">
        <path fill="#009DAB" fill-rule="nonzero" d="M305.199 163.557c-.28.204-.538.403-.813.596a27.403 27.403 0 0 1-3.175 1.937c-5.766 3.04-12.876 4.525-19.8 5.533-15.53 2.264-31.384 2.704-47.171 3.136-42.657 1.17-85.418 2.34-127.971-.359-16.813-1.065-33.996-2.847-49.231-8.31a88.238 88.238 0 0 1-6.423-2.584c-4.245-1.908-8.322-4.23-11.713-7.004-3.186-2.6-5.77-5.587-7.313-8.983-3.22-7.072-1.516-15.015 2.16-21.947a68.202 68.202 0 0 1 5.153-8.061c2.839-3.903 5.969-7.694 8.824-11.594 10.16-13.864 16.79-31.404 7.412-45.623-2.696-4.086-6.59-7.672-8.788-11.936-2.802-5.456-2.586-11.513-1.695-17.397.116-.747.238-1.487.367-2.22 1.522-8.724 4.385-18.125 13.215-23.572C67.408-.49 80.433-.205 91.815 1.807c17.701 3.16 34.03 9.74 50.531 15.68 16.502 5.94 33.766 11.367 51.902 11.95 16.014.515 34.693-3.343 45.322-13.371 10.323-9.74 29.728-10.482 43.713-4.598 9.6 4.038 16.763 11.311 19.783 19.493a25.442 25.442 0 0 1 1.315 5.077 23.41 23.41 0 0 1 .235 4.788c-.042.79-.123 1.572-.235 2.345-2.337 16.145-19.159 28.88-29.384 43.3-4.996 7.044-8.524 15.506-5.088 23.102 5.24 11.575 23.462 15.69 34.466 24.303a25.89 25.89 0 0 1 5.408 5.548c5.338 7.666 3.368 18.019-4.584 24.133z" opacity=".1"/>
        <path stroke="#535461" stroke-width=".56" d="M72.293 91.302s-12.89-22.841-32.315-29.42c-8.151-2.762-15.266-7.957-20.13-15.057a66.683 66.683 0 0 1-5.94-10.68"/>
        <path fill="#009688" fill-rule="nonzero" d="M1.692 31.916c2.214 2.138 12.52 4.38 12.52 4.38s-2.521-10.233-4.74-12.382a5.585 5.585 0 0 0-7.78 8.013v-.01zM7.524 50.434c3.023.6 12.89-3.136 12.89-3.136s-7.692-7.217-10.719-7.817a5.585 5.585 0 0 0-2.171 10.953zM28.75 70.478c2.914-1.008 9.527-9.21 9.527-9.21S28 58.919 25.087 59.928a5.584 5.584 0 1 0 3.643 10.551h.02zM48.225 82.02c3.043-.505 10.956-7.468 10.956-7.468S49.45 70.498 46.406 71a5.584 5.584 0 1 0 1.819 11.02zM29 39.302c0 3.082-5.577 12.028-5.577 12.028s-5.587-8.94-5.59-12.022a5.584 5.584 0 1 1 11.166 0v-.006zM51.607 53.107c-.922 2.942-8.922 9.806-8.922 9.806S40.03 52.7 40.94 49.745a5.585 5.585 0 0 1 10.649 3.337l.02.025zM71.738 69.512c-.41 3.057-7.134 11.174-7.134 11.174S60.26 71.08 60.68 68.024a5.585 5.585 0 0 1 11.068 1.488h-.011z"/>
        <path fill="#009DAB" fill-rule="nonzero" d="M1.692 31.916c2.214 2.138 12.52 4.38 12.52 4.38s-2.521-10.233-4.74-12.382a5.585 5.585 0 0 0-7.78 8.013v-.01zM7.524 50.434c3.023.6 12.89-3.136 12.89-3.136s-7.692-7.217-10.719-7.817a5.585 5.585 0 0 0-2.171 10.953zM28.75 70.478c2.914-1.008 9.527-9.21 9.527-9.21S28 58.919 25.087 59.928a5.584 5.584 0 1 0 3.643 10.551h.02z" opacity=".25"/>
        <path fill="#000" fill-rule="nonzero" d="M48.225 82.02c3.043-.505 10.956-7.468 10.956-7.468S49.45 70.498 46.406 71a5.584 5.584 0 1 0 1.819 11.02z" opacity=".25"/>
        <path fill="#009DAB" fill-rule="nonzero" d="M29 39.302c0 3.082-5.577 12.028-5.577 12.028s-5.587-8.94-5.59-12.022a5.584 5.584 0 1 1 11.166 0v-.006z" opacity=".25"/>
        <path fill="#000" fill-rule="nonzero" d="M51.607 53.107c-.922 2.942-8.922 9.806-8.922 9.806S40.03 52.7 40.94 49.745a5.585 5.585 0 0 1 10.649 3.337l.02.025zM71.738 69.512c-.41 3.057-7.134 11.174-7.134 11.174S60.26 71.08 60.68 68.024a5.585 5.585 0 0 1 11.068 1.488h-.011z" opacity=".25"/>
        <path stroke="#535461" stroke-width=".56" d="M71.55 90.848S69.028 64.74 53.93 50.854C47.6 45.026 43.2 37.405 41.63 28.932a66.73 66.73 0 0 1-1.099-12.174"/>
        <path fill="#009DAB" fill-rule="nonzero" d="M31.073 7.952c1.155 2.86 9.676 9.067 9.676 9.067s1.835-10.381.684-13.242a5.589 5.589 0 0 0-10.368 4.175h.008zM28.89 27.243c2.522 1.773 13.05 2.353 13.05 2.353s-4.083-9.711-6.605-11.485a5.589 5.589 0 0 0-6.445 9.132zM40.186 54.163c3.082.26 12.452-4.556 12.452-4.556s-8.443-6.312-11.516-6.57a5.585 5.585 0 1 0-.936 11.126z"/>
        <path fill="#009688" fill-rule="nonzero" d="M53.31 72.61c2.988.774 13.045-2.387 13.045-2.387s-7.255-7.649-10.24-8.422a5.585 5.585 0 0 0-2.801 10.81h-.003z"/>
        <path fill="#009DAB" fill-rule="nonzero" d="M53.045 25.769c-1.247 2.819-9.973 8.733-9.973 8.733s-1.485-10.434-.238-13.255a5.585 5.585 0 1 1 10.21 4.522z"/>
        <path fill="#009688" fill-rule="nonzero" d="M68.12 47.534c-2.034 2.317-12.13 5.351-12.13 5.351s1.703-10.4 3.74-12.717a5.583 5.583 0 0 1 8.39 7.366zM79.89 70.703c-1.615 2.628-11.052 7.324-11.052 7.324s-.079-10.541 1.535-13.17a5.59 5.59 0 0 1 9.527 5.846h-.01z"/>
        <ellipse cx="136.79" cy="234.848" fill="#009DAB" fill-rule="nonzero" opacity=".1" rx="31.252" ry="4.068"/>
        <g>
            <path fill="url(#a)" fill-rule="nonzero" d="M266.793 137.2V.15H.21v129.186c3.405 2.841 7.499 5.231 11.77 7.196a86.275 86.275 0 0 0 6.444 2.659h245.188l3.18-1.993z" transform="translate(38.11 26.898)"/>
            <path fill="#FFF" fill-rule="nonzero" d="M304.434 164.282V31.101H38.95v125.552c3.39 2.763 7.468 5.085 11.713 7.005a94.757 94.757 0 0 0 6.422 2.583H301.26l3.175-1.959z"/>
            <path fill="#46455B" fill-rule="nonzero" d="M256.397 153.588c0 16.52 10.364 29.888 23.173 29.888"/>
            <path fill="#009DAB" fill-rule="nonzero" d="M279.57 183.476c0-16.706 11.567-30.224 25.86-30.224M264.793 155.086c0 15.692 6.61 28.39 14.777 28.39"/>
            <path fill="#46455B" fill-rule="nonzero" d="M279.57 183.476c0-21.346 13.37-38.619 29.89-38.619"/>
            <path fill="#A8A8A8" fill-rule="nonzero" d="M274.695 183.687s3.286-.102 4.277-.807c.99-.705 5.055-1.547 5.3-.416.247 1.13 4.94 5.625 1.23 5.655-3.71.03-8.622-.578-9.61-1.18-.989-.602-1.197-3.252-1.197-3.252z"/>
            <path fill="#000" fill-rule="nonzero" d="M285.568 187.725c-3.71.03-8.622-.578-9.61-1.18-.753-.458-1.053-2.104-1.153-2.863l-.11.005s.208 2.65 1.197 3.252c.988.602 5.9 1.21 9.61 1.18 1.07-.009 1.44-.39 1.42-.954-.149.34-.557.554-1.354.56z" opacity=".2"/>
            <path stroke="#3F3D56" stroke-width=".5" d="M270.89 187.852h20.737"/>
            <path fill="#5A5773" fill-rule="nonzero" d="M38.905 27.439h265.481v7.044H38.906z"/>
        </g>
        <g fill="#FFF" fill-rule="nonzero" transform="translate(42.312 29.14)">
            <ellipse cx="1.894" cy="1.821" rx="1.821" ry="1.821"/>
            <ellipse cx="6.798" cy="1.821" rx="1.821" ry="1.821"/>
            <ellipse cx="11.702" cy="1.821" rx="1.821" ry="1.821"/>
        </g>
        <g fill-rule="nonzero">
            <path fill="#009DAB" d="M149.828 49.873h43.854v27.554h-43.854z"/>
            <path fill="#5A5773" d="M89.108 49.873h43.854v27.554H89.108zM210.548 49.873h43.854v27.554h-43.854zM89.108 89.265h43.854v27.554H89.108zM149.828 89.265h43.854v27.554h-43.854zM210.548 89.265h43.854v27.554h-43.854zM89.108 128.653h43.854v27.554H89.108zM149.828 128.653h43.854v27.554h-43.854zM210.548 128.653h43.854v27.554h-43.854z" opacity=".2"/>
        </g>
        <g fill-rule="nonzero" transform="translate(118.811 56.598)">
            <path fill="url(#b)" d="M46.367 62.409S38.49 48.013 39.82 45.671c1.328-2.343 2.306-5.733 2.306-5.733s2.908-1.99 2.908-2.802 2.304-2.693 3.517-3.51c1.213-.819.605-4.683 0-5.15-.605-.468-1.566-2.108-1.566-2.108s.84-2.34 0-3.042c-.841-.704.123-1.401 0-2.107-.124-.706 0-3.276 0-3.276-.984-1.367-2.074-2.006-3.1-2.241l-.09-.37-.518-2.183s2.522-4.833-1.569-7.363a6.837 6.837 0 0 0-.905-.476s0-.118-.022-.317c-.056-.723-.227-2.522-.594-3.701-.213-.678-.49-1.135-.841-1.031a.56.56 0 0 0-.23.131 2.555 2.555 0 0 0-.434.513.115.115 0 0 1-.02.03 8.786 8.786 0 0 0-.964 2.677 15.454 15.454 0 0 0-.28 1.68 9.246 9.246 0 0 0-.468 1.04c-.496 1.286-1.076 3.514-.02 5.161.897 1.401 2.105 3.326 2.982 4.727l.028.045.053.087-.092.059v.215l.081 1.18.678 10.193a4.33 4.33 0 0 0-.622-.132 5.652 5.652 0 0 0-.905-.058c-.591-2.323-2.214-4.483-2.522-6.91a6.407 6.407 0 0 1-.048-.731c.026-1.527.407-3.06.376-4.584 0-.28 0-.56-.028-.84 0-.076-.014-.155-.023-.233a6.89 6.89 0 0 0-3.746-5.22c-.703-.35-1.466-.583-2.15-.967-1.58-.885-2.591-2.482-4.026-3.578-1.068-.815-2.662-1.252-3.853-.84-.631.095-1.257.224-1.875.386a16.912 16.912 0 0 0-4.29 1.782c-.182.11-.364.222-.538.35a2.37 2.37 0 0 0-.865 1.012 2.65 2.65 0 0 0-.135 1.09c0 .266 0 .538.017.804-.079 4.483-4.91 7.952-5.307 12.328 0 .104-.017.208-.023.312v.829c.07 1.92 1.068 3.707 1.25 5.618.017.17.025.339.028.51a8.472 8.472 0 0 1-.496 2.572 7.53 7.53 0 0 0-1.74.706c-1.469.944-4.12 2.575-5.086 5.693a8.338 8.338 0 0 0-.367 2.5 52.183 52.183 0 0 1-.818 8.923 16.678 16.678 0 0 1-.516 2.194.515.515 0 0 0-.017.216l-.583 7.565-.103 1.331-.146 1.894s.042.115.104.308c.091.288.168.58.23.874.162.642.188 1.31.075 1.962a1.35 1.35 0 0 1-.409.72.303.303 0 0 0-.048.053c-.165.233-.314.925-.442 1.928-.05.392-.098.84-.146 1.305-.28 2.984-.454 7.45-.56 11.144-.101 3.642-.138 6.52-.138 6.52.472.304.977.554 1.505.745a14.717 14.717 0 0 0-1.034 4.155c-.235 2.754.535 5.814 4.377 7.388.245.103.497.189.754.258.84.224 1.46.163 1.916-.117 0 .165.02.325.028.484.04.684.073 1.309.09 1.833.12 3.278.933 9.01.933 9.01s.28 2.343.037 3.043c-.244.7 0 3.511 0 3.511s.84 1.401 0 2.107c-.841.706-1.09 4.203-.841 4.682a.157.157 0 0 1 .014.053c.185 1.163-.86 18.44-.86 18.44s-.99 2.644-1.777 5.39c-.768 2.673-1.345 5.442-.633 5.96.353.258 1.174.451 2.216.6 0 .114-.017.23-.028.347-.1 1.236-.26 2.566-.49 2.903-.334.476-.684 4.169-.855 6.164l-.017.221c-.359.851-.66 1.726-.902 2.617 0 0-2.682 6.725-1.774 8.47.085.157.198.297.334.412a.757.757 0 0 0 .087.078c1.291 1.034 4.528 1.25 5.702 1.298l-.045 1.664v.062h1.527v-.042c0-.21.034-1.174.084-2.463 0-.23.017-.47.028-.717 0-.194.02-.39.029-.592.45-1.195.675-2.463.664-3.74.001-1.466.2-2.924.588-4.337.192-.728.452-1.437.776-2.116 0 0 .477-2.522-.187-4.306a3.11 3.11 0 0 0-.56-.97v-.18-.204-.176a16.163 16.163 0 0 1 .358-3.592.398.398 0 0 1 0-.056c.022-.098.047-.19.073-.28l.016-.062.496.017c1.522.042 2.64.042 2.64.042s1.213-6.204 1.093-8.893v-.365c-.042-2.673.734-6.307.734-6.307l.978-9.484s-.485-1.642 0-2.802c.3-.723.92-2.065 1.35-2.99l.43-.91.039-.079a1.813 1.813 0 0 1-.432-.215c-.395-.264-.748-.78.434-1.538 1.819-1.172 1.214-4.097 1.214-4.097s-.535-1.053.095-1.99c.63-.935 0-4.446 0-4.446a14.7 14.7 0 0 0 1.244-2.928c.451-1.4 1.592-8.251 2.13-11.555.176-1.084.28-1.784.28-1.784l.017.17.017.185.15 1.561.02.207.28 2.95s.561 7.756.21 10.796v.056a3.592 3.592 0 0 1-.204.922c-.644 1.457-.526 7.246-.493 8.526v.258c0 .07-.457 1.143-.342 1.978.024.212.1.414.222.589.168.272.243.591.215.91v.028c-.003.135-.014.27-.033.404a7.693 7.693 0 0 1-.426 1.586s-.65 1.709-.404 2.603c.03.115.085.223.16.316a.748.748 0 0 1 .093.367c.227 1.886-.36 10.21-.707 14.766-.14 1.799-.24 3.01-.24 3.01l-.962 9.946.096.067c.109.079.313.213.588.376v.022l-.042.3c-.137.958-.322 2.073-.524 2.925-.017.064-.03.126-.048.185a2.682 2.682 0 0 0-1.028.412c-2.04 3.623-1.138 6.495 0 7.33.322.235.54.893.687 1.711l.28 3.612v.415c0 .112.018.224.053.33l.087 1.096.118 1.524h.93v-1.846h.05c1.469.05 3.836.112 4.868.03h.028c.109 0 .201-.02.28-.03a.703.703 0 0 0 .162-.045c.547-.263 1.909-4.124.681-5.001-1.227-.877-1.499-3.363-1.499-3.363a25.167 25.167 0 0 0-.322-.927v-.19c-.034-1.203-.02-2.506.146-3.212.185-.776.28-2.406.32-3.835v-.356c.212-.054.42-.122.624-.205l.045-.02a4.402 4.402 0 0 0 1.045-.619l3.43-15.197.361-1.768 2.06-10.056s-.726-3.51 0-4.093c.266-.213.339-1.121.322-2.172-.028-1.838-.322-4.15-.322-4.15s.97-1.52 1.457-2.457c.488-.936 0-3.393 0-3.393l.956-5.626s1.092-6.671 3.757-12.289c1.962-4.133.712-15.293-.56-21.233a38.82 38.82 0 0 0-.101-.45v-.023c.6-.297 1.334-.656 2.118-1.031l.297-.14c.995-.468 2.049-.95 2.993-1.35l.062-.026a20.9 20.9 0 0 1 2.082-.779c.208-.064.422-.108.639-.132 1.684-.109-3.408-9.002-3.408-9.002zM8.451 81.448h.505c-.06.109-.115.221-.171.333-.034.067-.068.132-.098.2-.185.383-.356.775-.496 1.16a51.232 51.232 0 0 1 .26-1.693zM7.09 88.752a.207.207 0 0 0 0-.039l-.042-.132c-.03-.09-.058-.179-.086-.28a9.77 9.77 0 0 0 .53-.176h.036v.092c-.014.132-.031.263-.048.392a.28.28 0 0 1 0 .05c0 .107-.025.208-.036.309l-.073.586a22.87 22.87 0 0 0-.163-.522c-.056-.092-.087-.187-.118-.28z"/>
            <path fill="#EFB7B9" d="M43.461 17.5l-3.026 1.07-1.098-1.82a479.69 479.69 0 0 0-2.867-4.71c-1.519-2.45.468-6.181.468-6.181s.359-3.746 1.636-4.9c1.278-1.155 1.634 4.9 1.634 4.9 5.13 2.33 2.382 7.814 2.382 7.814l.499 2.174.372 1.654z"/>
            <path fill="#000" d="M43.461 17.5l-3.026 1.07-1.098-1.82v-.16s1.734-1.19 3.757-.743l.367 1.654z" opacity=".1"/>
            <path fill="#FF6484" d="M38.574 29.773l1.516-1.284-.759-11.549s3.923-2.684 6.826 1.516c0 0-.118 2.566 0 3.267.118.7-.815 1.4 0 2.099.815.697 0 3.034 0 3.034s.922 1.633 1.505 2.099c.583.465 1.168 4.317 0 5.133-1.169.815-3.36 2.684-3.36 3.5 0 .815-2.802 2.801-2.802 2.801l-2.46-3.253-.466-7.363z"/>
            <path fill="#EFB7B9" d="M5.79 99.881c-5.655-2.398-4.4-8.257-3.335-11.207.212-.598.462-1.182.748-1.749l3.172-1.924s.647 1.65 1.34 3.863c1.605 5.15 3.452 13.3-1.926 11.017zM13.562 153.338a9.526 9.526 0 0 0-.84 2.36 17.037 17.037 0 0 0-.365 4.015c.023.933.101 1.543.101 1.543l-6.299 4.332s.037-.507.098-1.252c.163-1.984.502-5.666.821-6.142.222-.33.376-1.659.474-2.892.098-1.232.137-2.314.137-2.314s7.58-2.841 5.873.35zM28.439 156.446s0 1.204-.045 2.605-.129 3.054-.305 3.825c-.163.706-.174 2.003-.143 3.2.042 1.4.143 2.661.143 2.661s-6.431-6.08-5.775-6.562c.176-.129.35-.647.51-1.336.196-.84.372-1.961.504-2.914.157-1.135.255-2.048.255-2.048l4.856.569z"/>
            <path fill="#000" d="M13.562 153.338a9.526 9.526 0 0 0-.84 2.36 51.486 51.486 0 0 1-5.156-.396c.095-1.204.137-2.314.137-2.314s7.566-2.841 5.86.35zM28.439 156.446s0 1.204-.045 2.605c-2.006.513-4.069-.512-5.066-1.12a75.63 75.63 0 0 0 .255-2.049l4.856.564z" opacity=".1"/>
            <path fill="#444053" d="M41.606 96.85c-2.566 5.603-3.617 12.25-3.617 12.25l-.933 5.603s.468 2.449 0 3.382c-.468.933-1.401 2.452-1.401 2.452s.7 5.716 0 6.298c-.701.583 0 4.083 0 4.083l-2.335 11.768-3.267 15.163c-3.15 2.57-7.342-.697-7.342-.697l.925-9.916s1.401-17.372.818-18.084c-.582-.711.233-2.916.233-2.916s.818-2.102.235-2.917.115-2.567.115-2.567-.232-7.116.468-8.75c.7-1.633 0-11.737 0-11.737l-.28-3.146-.163-1.743-.014-.171s-.106.698-.28 1.78c-.515 3.291-1.614 10.114-2.048 11.518a14.998 14.998 0 0 1-1.197 2.916s.606 3.5 0 4.433c-.605.933-.092 1.984-.092 1.984s.583 2.916-1.169 4.082c-1.751 1.166 0 1.751 0 1.751s-1.283 2.802-1.748 3.965c-.465 1.163 0 2.802 0 2.802l-.933 9.448s-.819 3.964-.7 6.648c.117 2.685-1.052 8.866-1.052 8.866s-8.983 0-10.368-1.051c-1.384-1.05 2.312-11.3 2.312-11.3s1.051-17.966.816-18.43c-.236-.466 0-3.968.818-4.666.818-.698 0-2.101 0-2.101s-.233-2.802 0-3.5c.232-.698-.037-3.034-.037-3.034s-.781-5.716-.896-8.983c-.115-3.267-.7-10.614-.7-10.614s.61-4.544.702-6.707c.034-.796.39-1.79.841-2.727a24.322 24.322 0 0 1 1.737-3.048s27.644-8.17 28.804-7.358c.308.216.756 1.681 1.2 3.802 1.232 5.926 2.437 17.05.548 21.169z"/>
            <ellipse cx="24.575" cy="17.501" fill="#A1616A" rx="8.051" ry="8.05"/>
            <path fill="#000" d="M41.057 75.687c-.927.476-1.55.804-1.55.804s-13.066 6.184-16.782 5.834c-2.875-.28-10.213-.12-13.41-.042a24.322 24.322 0 0 1 1.737-3.049s27.646-8.167 28.806-7.355c.308.222.756 1.681 1.2 3.808z" opacity=".1"/>
            <path fill="#FF6484" d="M18.973 30.356s-7.456 1.176-9.216 2.33c-1.76 1.155-5.246 3.385-5.246 8.168 0 4.783-.815 9.683-1.283 11.082-.468 1.398 7.35 12.714 7.35 12.714L7.776 81.8s11.209-.35 14.941 0c3.732.351 16.793-5.833 16.793-5.833s7.7-4.082 9.334-4.203c1.634-.12-3.267-8.982-3.267-8.982s-7.585-14.346-6.302-16.68c1.283-2.334 2.225-5.716 2.225-5.716L40.099 28.49s-2.1-.7-3.85.583c-1.752 1.284-7.7.583-7.7.583l-9.576.7z"/>
            <path fill="#000" d="M6.316 51.12l-2.925.816-.81 10.977s1.05 2.917 0 3.85c-1.051.933-1.284 20.882-1.284 20.882s3.385 2.45 7.35.583c0 0-.582-2.216 1.169-10.266s1.748-12.132 1.748-12.132 0-10.033.819-11.667c.818-1.633 0-5.716 0-5.716s-1.634-2.216-1.52-3.031c.116-.816-4.547 5.704-4.547 5.704z" opacity=".1"/>
            <path fill="#000" d="M7.714 88.873a7.452 7.452 0 0 1-5.26-.19c.213-.599.463-1.183.749-1.75l3.172-1.924s.658 1.65 1.34 3.864z" opacity=".1"/>
            <path fill="#FF6484" d="M6.14 51.12l-2.918.816-.815 10.977s1.05 2.917 0 3.85c-1.05.933-1.283 20.882-1.283 20.882s3.387 2.447 7.35.572c0 0-.583-2.216 1.165-10.266 1.749-8.05 1.752-12.132 1.752-12.132s0-10.034.815-11.667c.816-1.634 0-5.716 0-5.716s-1.633-2.216-1.516-3.032c.118-.815-4.55 5.716-4.55 5.716z"/>
            <path fill="#000" d="M36.008 52.869s-1.516 13.065-5.952 15.516c0 0 9.917-2.799 5.952-15.516zM13.725 54.037s5.48 2.681 4.203 4.547c-1.278 1.866-4.203-4.547-4.203-4.547zM13.725 59.403s3.5 3.617 2.802 4.9c-.698 1.283-2.802-4.9-2.802-4.9zM41.957 29.422s1.373 2.332 1.504 3.85c.132 1.519-1.504-3.85-1.504-3.85zM41.957 26.273s.689-.585 2.449 0c1.76.586-2.45 0-2.45 0zM35.22 94.457c-2.89.41-5.838.032-8.532-1.093l-1.471 3.766-.163-1.743c.241-1.463.709-3.029 1.634-3.424 0 0 3.239 2.58 8.532 2.494zM11.287 99.357s7.176 1.488 9.188 1.225l-9.188-1.225zM12.032 101.237s3.063-.131 4.593.482l-4.593-.482zM12.383 102.507c1.397.296 2.816.484 4.242.56l-4.242-.56zM12.206 118.561c.132-.086 6.126-1.487 6.871-.482l-6.87.482zM12.206 120.4s5.207-.614 5.338 0c.132.613-5.338 0-5.338 0zM12.206 122.06s5.557-1.148 6.213-.868c.655.28-6.213.869-6.213.869zM12.47 161.26l-6.3 4.33s.037-.506.098-1.252c1.401-3.446 3.226-5.264 3.226-5.264 1.42-.37 2.317-.028 2.875.641.022.93.1 1.544.1 1.544z" opacity=".1"/>
            <path fill="#444053" d="M13.083 165.151a15.63 15.63 0 0 0-1.314 6.444 9.994 9.994 0 0 1-1.334 5.187 5.11 5.11 0 0 1-.443.633s-4.376-.037-5.91-1.306a1.516 1.516 0 0 1-.411-.504c-.877-1.749 1.706-8.442 1.706-8.442 1.357-5.161 4.111-7.918 4.111-7.918 4.907-1.27 3.595 5.906 3.595 5.906z"/>
            <path fill="#000" d="M10.435 176.768a5.11 5.11 0 0 1-.443.633s-4.376-.037-5.91-1.306c.755-2.494 3.159-10.039 4.285-8.756 1.06 1.205 1.796 7.002 2.068 9.429z" opacity=".1"/>
            <path fill="#444053" d="M9.836 167.807L9.53 179.11h1.468s.239-9.916.894-11.303c.656-1.387-2.056 0-2.056 0z"/>
            <path fill="#000" d="M28.089 168.737s-6.431-6.08-5.775-6.562c.176-.129.35-.647.51-1.336 1.235-.216 3.362.3 5.122 5.237.042 1.4.143 2.661.143 2.661z" opacity=".1"/>
            <path fill="#444053" d="M29.05 175.518a.653.653 0 0 1-.154.045c-.757.131-3.545.056-5.106 0a1.104 1.104 0 0 1-1.067-1.101c0-.42 0-.933-.034-1.48-.073-1.726-.28-3.78-.9-4.242-1.095-.84-1.961-3.693 0-7.304 0 0 3.761-2.872 6.473 5.76 0 0 .264 2.463 1.444 3.337 1.18.875-.13 4.736-.656 4.985z"/>
            <path fill="#000" d="M28.89 175.563c-.756.131-3.545.056-5.105 0a1.104 1.104 0 0 1-1.068-1.101c0-.42 0-.933-.034-1.48.474-2.09 1.155-4.242 2.032-4.732.006-.003 2.66-.303 4.175 7.313z" opacity=".1"/>
            <path fill="#444053" d="M22.266 167.995l.706 9.406h.897v-10.207z"/>
            <path fill="#000" d="M24.457 4.674c-2.542.189-5.002.98-7.179 2.305-.56.34-1.12.751-1.353 1.36-.202.526-.118 1.12-.11 1.68.076 4.825-5.304 8.476-5.136 13.298.067 1.914 1.028 3.696 1.205 5.604.294 3.183-1.589 6.11-3.393 8.747a7.247 7.247 0 0 0 5.113-1.695 38.772 38.772 0 0 1 .715 19.543h2.58c.256-.018.512.013.755.093.226.107.429.259.596.445 2.413 2.402 4.03 5.952 3.108 9.23l5.492-2.06c1.314-.493 2.648-.994 3.791-1.807 1.144-.812 2.102-1.992 2.343-3.376.149-.84.101-1.844.793-2.331a4.316 4.316 0 0 1 1.082-.401c1.507-.532 2.174-2.275 2.482-3.844.376-1.925.494-3.892.35-5.848-.243-3.278-1.213-6.606-.414-9.806.451-1.796 1.454-3.469 1.536-5.324.131-3.057-2.259-5.69-2.615-8.73-.25-2.119.516-4.262.266-6.38a6.853 6.853 0 0 0-3.606-5.203c-.675-.348-1.401-.58-2.068-.964-1.522-.883-2.494-2.471-3.875-3.564-1.382-1.093-3.682-1.505-4.722-.084l2.264-.888z" opacity=".1"/>
            <path fill="#925978" d="M24.457 4.323c-2.542.19-5.002.98-7.179 2.306-.56.34-1.12.751-1.353 1.36-.202.526-.118 1.12-.11 1.68.076 4.825-5.304 8.476-5.136 13.3.067 1.912 1.028 3.694 1.205 5.605.294 3.182-1.589 6.11-3.393 8.75a7.286 7.286 0 0 0 5.113-1.695 38.758 38.758 0 0 1 .715 19.537h2.58c.256-.018.512.015.755.095.226.106.43.257.596.443 2.413 2.404 4.03 5.951 3.108 9.23l5.492-2.06c1.314-.493 2.648-.995 3.791-1.807 1.144-.813 2.102-1.992 2.343-3.376.149-.84.101-1.844.793-2.332a4.316 4.316 0 0 1 1.082-.4c1.507-.533 2.174-2.275 2.482-3.844.38-1.927.5-3.895.36-5.853-.245-3.279-1.214-6.607-.416-9.807.452-1.796 1.455-3.469 1.536-5.324.132-3.056-2.259-5.69-2.614-8.73-.25-2.118.515-4.26.266-6.38a6.859 6.859 0 0 0-3.607-5.203c-.675-.348-1.4-.58-2.068-.961-1.521-.886-2.493-2.474-3.875-3.567-1.381-1.093-3.682-1.505-4.722-.084l2.256-.883z"/>
            <g fill="#000" opacity=".1">
                <path d="M15.81 8.504a3.115 3.115 0 0 0-.017.325 6.15 6.15 0 0 0 .017-.325zM36.176 19.72c.1-1.485.431-2.976.308-4.455-.092 1.485-.423 2.975-.308 4.455zM11.884 27.103c-.163-1.738-.972-3.363-1.163-5.097a6.388 6.388 0 0 0-.042.958c.067 1.891 1.006 3.66 1.197 5.542.046-.466.049-.936.008-1.403zM37.297 34.004a12.013 12.013 0 0 0-.28 3.48c.027-.681.121-1.358.28-2.02.45-1.797 1.454-3.47 1.535-5.324.013-.33-.002-.66-.045-.986-.218 1.667-1.09 3.219-1.49 4.85zM13.604 34.155a7.286 7.286 0 0 1-4.136 1.681c-.319.499-.65.986-.977 1.468a7.286 7.286 0 0 0 5.113-1.695 38.662 38.662 0 0 1 1.631 10.493 38.75 38.75 0 0 0-1.63-11.947zM37.35 49.646c-.308 1.57-.975 3.312-2.483 3.842-.377.084-.741.22-1.081.403-.693.488-.645 1.496-.794 2.331-.24 1.385-1.196 2.561-2.342 3.363-1.146.801-2.477 1.317-3.791 1.81l-5.24 1.961a7.231 7.231 0 0 1-.253 1.555l5.493-2.06c1.314-.492 2.648-.994 3.79-1.807 1.144-.812 2.103-1.992 2.343-3.376.149-.84.101-1.843.794-2.331a4.316 4.316 0 0 1 1.081-.4c1.508-.533 2.175-2.276 2.483-3.845a21.97 21.97 0 0 0 .395-4.96 21.937 21.937 0 0 1-.395 3.514zM18.259 54.228a1.852 1.852 0 0 0-.597-.446 2.004 2.004 0 0 0-.754-.095h-2.29c-.089.487-.184.975-.28 1.46h2.581c.255-.018.512.014.754.095.227.105.43.256.597.442 1.765 1.76 3.102 4.13 3.332 6.562.283-2.908-1.225-5.9-3.343-8.018z"/>
            </g>
            <path fill="#000" d="M5.456 63.776s2.085-.874 2.55 0c.465.874-2.55 0-2.55 0zM6.193 65.275s2.085-.874 2.553 0c.467.874-2.553 0-2.553 0z" opacity=".1"/>
        </g>
        <g fill="#009DAB" fill-rule="nonzero" opacity=".1">
            <path d="M231.797 8.747s-10.663-.641-9.404 6.829c0 0-.25 1.32.947 1.919 0 0 .02-.56 1.092-.367.383.064.771.083 1.158.056a2.402 2.402 0 0 0 1.412-.586s2.996-1.235 4.161-6.133c0 0 .863-1.07.84-1.345l-1.798.77s.614 1.298.129 2.377c0 0-.056-2.332-.404-2.276-.07 0-.933.449-.933.449s1.057 2.26.258 3.906c0 0 .303-2.785-.588-3.74l-1.273.753s1.236 2.334.398 4.239c0 0 .216-2.922-.664-4.06l-1.149.894s1.163 2.29.463 3.87c0 0-.093-3.405-.704-3.66 0 0-1.003.885-1.154 1.25 0 0 .793 1.68.3 2.55 0 0-.303-2.265-.56-2.276 0 0-1.001 1.502-1.105 2.522a5.466 5.466 0 0 1 .86-2.676 2.99 2.99 0 0 0-1.53.796s.155-1.062 1.777-1.157c0 0 .827-1.138 1.048-1.208 0 0-1.614-.134-2.592.3 0 0 .86-1.003 2.889-.56l1.12-.925s-2.123-.28-3.025.03c0 0 1.036-.885 3.331-.24l1.233-.737s-1.81-.392-2.889-.25c0 0 1.138-.613 3.25.051l.883-.395s-1.328-.26-1.714-.303c-.387-.042-.41-.148-.41-.148a4.585 4.585 0 0 1 2.492.28s1.885-.68 1.855-.799zM216.6 2.69s-8.966 5.802-3.527 11.073c0 0 .58 1.21 1.9.986 0 0-.314-.46.664-.944.346-.175.67-.39.966-.642.4-.338.678-.798.793-1.308 0 0 1.682-2.774-.28-7.408 0 0 .062-1.373-.129-1.575l-.992 1.681s1.264.68 1.513 1.835c0 0-1.426-1.84-1.68-1.591-.051.05-.488.916-.488.916s2.194 1.194 2.521 2.99c0 0-1.4-2.424-2.692-2.662l-.583 1.345s2.382 1.149 2.836 3.18c0 0-1.561-2.483-2.943-2.878l-.392 1.401s2.298 1.166 2.665 2.858c0 0-2.09-2.684-2.735-2.521 0 0-.28 1.305-.19 1.68 0 0 1.63.875 1.754 1.878 0 0-1.587-1.645-1.791-1.508 0 0 .084 1.802.608 2.693a5.472 5.472 0 0 1-.891-2.664c-.4.43-.665.967-.762 1.546 0 0-.505-.947.748-1.984 0 0 0-1.4.126-1.594 0 0-1.379.84-1.911 1.777 0 0 .1-1.317 2.003-2.152l.365-1.415s-1.883 1.025-2.419 1.818c0 0 .312-1.328 2.54-2.168l.56-1.326s-1.682.76-2.477 1.513c0 0 .56-1.17 2.65-1.885l.477-.841s-1.225.577-1.561.773c-.336.196-.418.124-.418.124a4.593 4.593 0 0 1 2.172-1.253s1.096-1.67 1-1.748zM202.954 9.45s-5.36 9.247 1.877 11.469c0 0 1.068.815 2.141 0 0 0-.484-.264.166-1.14.225-.314.414-.652.56-1.01a2.42 2.42 0 0 0 .115-1.526s.238-3.234-3.615-6.475c0 0-.56-1.25-.84-1.342l-.121 1.96s1.435.034 2.183.95c0 0-2.107-.994-2.214-.66-.022.067-.02 1.036-.02 1.036s2.52.076 3.64 1.527c0 0-2.353-1.521-3.606-1.151l.09 1.462s2.642-.056 3.968 1.55c0 0-2.522-1.505-3.923-1.23l.28 1.426s2.578 0 3.67 1.339c0 0-3.082-1.446-3.583-1.017 0 0 .339 1.294.597 1.594 0 0 1.85.04 2.415.877 0 0-2.16-.748-2.28-.53 0 0 .893 1.567 1.765 2.122a5.472 5.472 0 0 1-2.004-1.962 3 3 0 0 0 .022 1.723s-.88-.613-.235-2.107c0 0-.644-1.25-.608-1.476 0 0-.84 1.381-.897 2.449 0 0-.51-1.22.807-2.825l-.316-1.429s-1.214 1.768-1.331 2.718c0 0-.325-1.325 1.28-3.082l-.106-1.432s-1.16 1.443-1.519 2.472c0 0-.04-1.295 1.505-2.883l.042-.967s-.84 1.067-1.04 1.4c-.199.334-.316.287-.316.287a4.612 4.612 0 0 1 1.367-2.105s.202-1.986.084-2.011z"/>
        </g>
    </g>
</svg>
