<svg xmlns="http://www.w3.org/2000/svg" width="19" height="18" viewBox="0 0 19 18">
    <g fill="none" fill-rule="evenodd">
        <g fill="#FFF">
            <g>
                <path d="M17.233 7.579c-.977 0-1.768.771-1.768 1.722 0 .952.791 1.723 1.768 1.723.976 0 1.767-.771 1.767-1.723 0-.95-.791-1.722-1.767-1.722zm-15.907.43C.593 8.01 0 8.589 0 9.302c0 .714.593 1.292 1.326 1.292.732 0 1.325-.578 1.325-1.292 0-.713-.593-1.291-1.325-1.291zm7.688 8.269c-.488 0-.884.385-.884.86 0 .476.396.862.884.862s.884-.386.884-.861c0-.476-.396-.861-.884-.861zM9.279 0c-.878 0-1.59.694-1.59 1.55 0 .856.712 1.55 1.59 1.55.879 0 1.59-.694 1.59-1.55C10.87.694 10.159 0 9.28 0zm5.656 12.66c-1.22 0-2.21.964-2.21 2.153 0 1.19.99 2.154 2.21 2.154s2.21-.964 2.21-2.154c0-1.189-.99-2.153-2.21-2.153zM3.623 2.24c-.878 0-1.59.693-1.59 1.55 0 .856.712 1.55 1.59 1.55.879 0 1.591-.694 1.591-1.55 0-.857-.712-1.55-1.59-1.55zm0 11.54c-.379 0-.729.197-.918.517-.19.32-.19.713 0 1.033.19.32.54.517.918.517.38 0 .73-.197.919-.517.19-.32.19-.714 0-1.033-.19-.32-.54-.517-.919-.517zM14.935 2.24c-.879 0-1.59.693-1.59 1.55 0 .856.711 1.55 1.59 1.55.878 0 1.59-.694 1.59-1.55 0-.857-.712-1.55-1.59-1.55z" transform="translate(-1191 -16) translate(1191 16)"/>
            </g>
        </g>
    </g>
</svg>
