<svg width="48" height="48" viewBox="0 0 48 48" fill="none" xmlns="http://www.w3.org/2000/svg">
<path d="M43.875 45.75C45.7387 45.75 47.25 44.2387 47.25 42.375C47.25 40.5113 45.7387 39 43.875 39C42.0113 39 40.5 40.5113 40.5 42.375C40.5 44.2387 42.0113 45.75 43.875 45.75Z" fill="url(#paint0_radial)"/>
<path d="M0 18C0 15.9292 1.67925 14.25 3.75 14.25H7.5C9.57075 14.25 11.25 12.5715 11.25 10.5C11.25 8.4285 9.5715 6.75 7.5 6.75H7.0755C5.64 6.75 4.5 5.61 4.5 4.20375V4.125C4.5 2.67525 5.67525 1.5 7.125 1.5H39.375C40.8195 1.5 41.9925 2.667 42 4.11225V4.125C42.0075 5.5725 40.8352 6.75 39.3877 6.75H39C37.3433 6.75 36 8.09325 36 9.75C36 11.4067 37.3433 12.75 39 12.75H44.25C46.3208 12.75 48 14.4292 48 16.5C48 18.5707 46.3208 20.25 44.25 20.25H43.5C41.8433 20.25 40.5 21.5933 40.5 23.25C40.5 24.9067 41.8433 26.25 43.5 26.25H43.875C46.1535 26.25 48 28.0965 48 30.375C48 32.6535 46.1535 34.5 43.875 34.5H33.75C32.5073 34.5 31.5 35.5073 31.5 36.75C31.5 37.9927 32.5073 39 33.75 39H34.875C36.7388 39 38.25 40.5112 38.25 42.375C38.25 44.2388 36.7388 45.75 34.875 45.75H23.25H6.75C5.09325 45.75 3.75 44.4067 3.75 42.75C3.75 41.0933 5.09325 39.75 6.75 39.75H7.875C9.32475 39.75 10.5 38.5747 10.5 37.125C10.5 35.6753 9.32475 34.5 7.875 34.5H3C1.34325 34.5 0 33.1567 0 31.5C0 29.8433 1.34325 28.5 3 28.5H4.125C5.98875 28.5 7.5 26.9888 7.5 25.125C7.5 23.2612 5.98875 21.75 4.125 21.75H3.75C1.67925 21.75 0 20.0707 0 18Z" fill="url(#paint1_radial)"/>
<path d="M21.8788 4.65231L4.65206 21.8791C3.48056 23.0506 3.48056 24.9503 4.65206 26.1218L21.8781 43.3478C23.0496 44.5193 24.9493 44.5193 26.1208 43.3478L43.3468 26.1218C44.5183 24.9503 44.5183 23.0506 43.3468 21.8791L26.1208 4.65231C24.9493 3.48081 23.0503 3.48081 21.8788 4.65231Z" fill="url(#paint2_linear)"/>
<path d="M16.8562 26.1525L23.0377 32.5935C23.5574 33.1358 24.4409 33.1358 24.9614 32.5935L31.1429 26.1525C31.9282 25.335 31.3312 24 30.1814 24H26.2499V17.25C26.2499 16.0125 25.2374 15 23.9999 15C22.7624 15 21.7499 16.0125 21.7499 17.25V24H17.8184C16.6679 24 16.0717 25.3343 16.8562 26.1525Z" fill="white"/>
<defs>
<radialGradient id="paint0_radial" cx="0" cy="0" r="1" gradientUnits="userSpaceOnUse" gradientTransform="translate(21 24) rotate(180) scale(20.1563)">
<stop stop-color="#AFEEFF"/>
<stop offset="0.193" stop-color="#BBF1FF"/>
<stop offset="0.703" stop-color="#D7F8FF"/>
<stop offset="1" stop-color="#E1FAFF"/>
</radialGradient>
<radialGradient id="paint1_radial" cx="0" cy="0" r="1" gradientUnits="userSpaceOnUse" gradientTransform="translate(24 23.625) rotate(180) scale(23.0812)">
<stop stop-color="#AFEEFF"/>
<stop offset="0.193" stop-color="#BBF1FF"/>
<stop offset="0.703" stop-color="#D7F8FF"/>
<stop offset="1" stop-color="#E1FAFF"/>
</radialGradient>
<linearGradient id="paint2_linear" x1="23.9998" y1="-1.72944" x2="23.9998" y2="45.1381" gradientUnits="userSpaceOnUse">
<stop stop-color="#42D778"/>
<stop offset="0.428" stop-color="#3DCA76"/>
<stop offset="1" stop-color="#34B171"/>
</linearGradient>
</defs>
</svg>
