<svg width="48" height="48" viewBox="0 0 48 48" fill="none" xmlns="http://www.w3.org/2000/svg">
<g clip-path="url(#clip0)">
<path d="M41.5906 34.251C41.9656 34.9245 42.7186 35.2537 43.4896 35.25C44.8021 35.244 45.8544 36.3623 45.7411 37.6965C45.6414 38.8785 44.5756 39.75 43.3891 39.75H36.0001V40.5H19.5001H13.5001H5.25013C3.96763 40.5 2.93563 39.4268 3.00313 38.1292C3.06688 36.912 4.15888 36 5.37763 36H6.00013C6.91138 36 7.63213 35.1878 7.47988 34.248C7.35988 33.5108 6.66688 33 5.91988 33H2.25013C0.967633 33 -0.0643671 31.9268 0.00313295 30.6292C0.066883 29.412 1.15888 28.5 2.37763 28.5H7.12513C8.16088 28.5 9.00013 27.6607 9.00013 26.625C9.00013 25.5893 8.16088 24.75 7.12513 24.75C6.08938 24.75 5.25013 23.9107 5.25013 22.875C5.25013 21.8392 6.08938 21 7.12513 21H13.5001V15.75H7.87513C6.37888 15.75 5.17438 14.4975 5.25388 12.984C5.32813 11.5642 6.60238 10.5 8.02363 10.5H13.5001V7.5H31.5001H36.0001H42.3751C43.8714 7.5 45.0759 8.7525 44.9964 10.266C44.9221 11.6858 43.6479 12.75 42.2266 12.75H40.1251C38.6289 12.75 37.4244 14.0025 37.5039 15.516C37.5781 16.9358 38.8524 18 40.2736 18H42.0001C43.3329 18 44.3956 19.1595 44.2336 20.5245C44.0994 21.6562 43.0741 22.4535 41.9356 22.5007C41.0379 22.5382 40.3441 23.3655 40.5301 24.3053C40.6711 25.0163 41.3424 25.5 42.0669 25.5H45.3751C46.8714 25.5 48.0759 26.7525 47.9964 28.266C47.9221 29.6857 46.6479 30.75 45.2266 30.75H43.5001C41.8561 30.75 40.6246 32.5125 41.5906 34.251ZM1.87513 24.75C2.91088 24.75 3.75013 23.9107 3.75013 22.875C3.75013 21.8392 2.91088 21 1.87513 21C0.839383 21 0.000132949 21.8392 0.000132949 22.875C0.000132949 23.9107 0.839383 24.75 1.87513 24.75Z" fill="url(#paint0_radial)"/>
<path d="M37.5 43.5H12C10.7573 43.5 9.75 42.4927 9.75 41.25V6.75C9.75 5.50725 10.7573 4.5 12 4.5H27.5677C28.1647 4.5 28.737 4.737 29.1585 5.15925L39.0907 15.0915C39.513 15.513 39.75 16.0852 39.75 16.6823V41.25C39.75 42.4927 38.7428 43.5 37.5 43.5Z" fill="url(#paint1_linear)"/>
<path d="M39.0907 15.0915L29.1585 5.15923C28.9672 4.96798 28.7415 4.82023 28.5 4.70923V13.5C28.5 14.7427 29.5072 15.75 30.75 15.75H39.5407C39.4305 15.5085 39.2827 15.2827 39.0907 15.0915Z" fill="url(#paint2_linear)"/>
<path d="M30.75 15.75C29.5073 15.75 28.5 14.7427 28.5 13.5V15.75C28.5 16.9927 29.5073 18 30.75 18H39.75V16.6823C39.75 16.3568 39.6735 16.041 39.5408 15.75H30.75Z" fill="url(#paint3_linear)"/>
<path d="M24 16.5H15.75C14.9212 16.5 14.25 15.8288 14.25 15C14.25 14.1712 14.9212 13.5 15.75 13.5H24C24.8287 13.5 25.5 14.1712 25.5 15C25.5 15.8288 24.8287 16.5 24 16.5ZM28.5 36.75H15.75C14.9212 36.75 14.25 36.0788 14.25 35.25C14.25 34.4212 14.9212 33.75 15.75 33.75H28.5C29.3287 33.75 30 34.4212 30 35.25C30 36.0788 29.3287 36.75 28.5 36.75ZM27.75 27.75H34.5C35.3288 27.75 36 28.4213 36 29.25C36 30.0788 35.3288 30.75 34.5 30.75H27.75C26.9213 30.75 26.25 30.0788 26.25 29.25C26.25 28.4213 26.9213 27.75 27.75 27.75ZM15.75 27.75H22.5C23.3287 27.75 24 28.4213 24 29.25C24 30.0788 23.3287 30.75 22.5 30.75H15.75C14.9212 30.75 14.25 30.0788 14.25 29.25C14.25 28.4213 14.9212 27.75 15.75 27.75ZM15.75 21.75H27.75C28.5787 21.75 29.25 22.4213 29.25 23.25C29.25 24.0787 28.5787 24.75 27.75 24.75H15.75C14.9212 24.75 14.25 24.0787 14.25 23.25C14.25 22.4213 14.9212 21.75 15.75 21.75ZM33 21.75H34.5C35.3288 21.75 36 22.4213 36 23.25C36 24.0787 35.3288 24.75 34.5 24.75H33C32.1712 24.75 31.5 24.0787 31.5 23.25C31.5 22.4213 32.1712 21.75 33 21.75Z" fill="#F1FCFF"/>
</g>
<defs>
<radialGradient id="paint0_radial" cx="0" cy="0" r="1" gradientUnits="userSpaceOnUse" gradientTransform="translate(24.0001 24) scale(24.7515)">
<stop stop-color="#F2E0BB"/>
<stop offset="0.011" stop-color="#F2E0BC"/>
<stop offset="0.362" stop-color="#F9EDD2"/>
<stop offset="0.699" stop-color="#FEF4DF"/>
<stop offset="1" stop-color="#FFF7E4"/>
</radialGradient>
<linearGradient id="paint1_linear" x1="24.75" y1="43.5" x2="24.75" y2="4.5" gradientUnits="userSpaceOnUse">
<stop stop-color="#41BFEC"/>
<stop offset="0.232" stop-color="#4CC5EF"/>
<stop offset="0.644" stop-color="#6BD4F6"/>
<stop offset="1" stop-color="#8AE4FD"/>
</linearGradient>
<linearGradient id="paint2_linear" x1="29.1592" y1="15.0907" x2="34.8405" y2="9.40948" gradientUnits="userSpaceOnUse">
<stop stop-color="#C6EFFD"/>
<stop offset="0.375" stop-color="#B7ECFD"/>
<stop offset="1" stop-color="#95E6FD"/>
</linearGradient>
<linearGradient id="paint3_linear" x1="34.125" y1="18.0622" x2="34.125" y2="13.5622" gradientUnits="userSpaceOnUse">
<stop stop-color="#42C6EE"/>
<stop offset="0.48" stop-color="#3BC3ED"/>
<stop offset="1" stop-color="#2EBEEA"/>
</linearGradient>
<clipPath id="clip0">
<rect width="48" height="48" fill="white"/>
</clipPath>
</defs>
</svg>
