<svg width="48" height="48" viewBox="0 0 48 48" fill="none" xmlns="http://www.w3.org/2000/svg">
<g clip-path="url(#clip0)">
<path d="M35.6314 30.5618C35.7252 31.5405 36.6214 32.25 37.6047 32.25H45.3747C47.0044 32.25 48.2959 33.7537 47.9382 35.4368C47.6779 36.6615 46.5334 37.5 45.2817 37.5H44.2497C43.2147 37.5 42.4197 38.55 42.8847 39.645C43.1217 40.2023 43.7194 40.4842 44.3247 40.5C46.0909 40.545 47.4844 42.129 47.2137 43.9545C47.0044 45.3667 45.5352 46.5 44.1072 46.5H2.99966C1.24466 46.5 -0.166094 44.9767 0.0146559 43.1917C0.172156 41.6348 1.57766 40.5 3.14216 40.5H3.66716C4.41641 40.5 5.10941 39.9862 5.22866 39.2467C5.38016 38.3047 4.66166 37.5 3.74966 37.5C2.36141 37.5 1.25816 36.231 1.54541 34.7977C1.75841 33.729 2.76416 33 3.85391 33H16.4997V27H2.99966C1.24466 27 -0.166094 25.4768 0.0146559 23.6917C0.172156 22.1348 1.57766 21 3.14216 21H6.37466C7.86716 21 8.99966 12.75 8.99966 12.75H4.49966C2.74466 12.75 1.33391 11.2267 1.51466 9.44175C1.67216 7.88475 3.07766 6.75 4.64216 6.75H15.7497C16.5784 6.75 17.2497 6.07875 17.2497 5.25C17.2497 4.42125 16.5784 3.75 15.7497 3.75H11.6247C10.5252 3.75 9.64916 2.8095 9.75641 1.68825C9.85016 0.7095 10.7464 0 11.7297 0H36.3747C37.4742 0 38.3502 0.9405 38.2429 2.06175C38.1492 3.0405 37.2529 3.75 36.2697 3.75H32.2497C31.4209 3.75 30.7497 4.42125 30.7497 5.25C30.7497 6.07875 31.4209 6.75 32.2497 6.75H44.6247C45.7242 6.75 46.6002 7.6905 46.4929 8.81175C46.3992 9.7905 45.5029 10.5 44.5197 10.5H40.4997C39.5877 10.5 38.8692 11.3048 39.0207 12.2467C39.1399 12.9862 39.8329 13.5 40.5822 13.5H45.3747C46.0947 13.5 46.7547 13.7925 47.2272 14.2725C47.6854 14.7233 47.9727 15.3458 47.9982 16.0275C48.0537 17.5238 46.7254 18.75 45.2277 18.75H31.4997L41.9997 24H45.7497C47.1379 24 48.2412 25.269 47.9539 26.7023C47.7402 27.771 46.7352 28.5 45.6454 28.5H37.4997C36.4002 28.5 35.5242 29.4405 35.6314 30.5618Z" fill="url(#paint0_radial)"/>
<path d="M40.5 16.5L24 7.5L7.5 16.5V39C7.5 40.6567 8.84325 42 10.5 42H37.5C39.1567 42 40.5 40.6567 40.5 39V16.5Z" fill="url(#paint1_linear)"/>
<path d="M34.5 42H24.75V28.5C24.75 27.6712 25.4212 27 26.25 27H33C33.8287 27 34.5 27.6712 34.5 28.5V42Z" fill="white"/>
<path d="M18.75 34.5H14.25C13.4212 34.5 12.75 33.8288 12.75 33V28.5C12.75 27.6712 13.4212 27 14.25 27H18.75C19.5788 27 20.25 27.6712 20.25 28.5V33C20.25 33.8288 19.5788 34.5 18.75 34.5Z" fill="white"/>
<path d="M21.0017 11.25H27.0017V21.162C27.0017 22.7295 25.7312 24 24.1637 24H23.839C22.2715 24 21.001 22.7295 21.001 21.162V11.25H21.0017Z" fill="#FFDA76"/>
<path d="M27.0017 11.25H33.0017V21.162C33.0017 22.7295 31.7312 24 30.1637 24H29.839C28.2715 24 27.001 22.7295 27.001 21.162L27.0017 11.25Z" fill="#62DE8F"/>
<path d="M33.0017 11.25H39.0017V21.162C39.0017 22.7295 37.7312 24 36.1637 24H35.839C34.2715 24 33.001 22.7295 33.001 21.162L33.0017 11.25Z" fill="#FFDA76"/>
<path d="M15.0017 11.25H21.0017V21.162C21.0017 22.7295 19.7312 24 18.1637 24H17.839C16.2715 24 15.001 22.7295 15.001 21.162V11.25H15.0017Z" fill="#62DE8F"/>
<path d="M9.00024 11.25V21C9.00024 22.5675 7.58124 24 5.99049 24H5.65599C5.54199 24 5.43549 23.9925 5.32074 23.9775C3.82149 23.8125 2.86974 22.41 3.01449 21C3.04524 20.7 3.12849 20.4075 3.25824 20.1225L6.75024 11.25H9.00024Z" fill="#62DE8F"/>
<path d="M39.002 11.25H41.2505L44.741 20.1255C45.515 21.7673 44.4867 23.7727 42.6275 23.9813C42.515 23.9932 42.4002 24 42.284 24H41.9472C40.3205 24 39.002 22.7295 39.002 21.162V11.25Z" fill="#62DE8F"/>
<path d="M41.252 11.25H6.75195V9.05025C6.75195 7.77975 7.7817 6.75 9.0522 6.75H38.951C40.2215 6.75 41.2512 7.77975 41.2512 9.05025L41.252 11.25Z" fill="#62DE8F"/>
<path d="M17.9936 18.93C18.1076 20.055 17.2174 21 16.0984 21H3.01465C3.0454 20.7 3.12865 20.4075 3.2584 20.1225L6.7504 11.25H11.9126C12.8336 11.25 13.5716 12.06 13.4119 13.005C13.2904 13.74 12.5899 14.25 11.8286 14.25C11.0374 14.25 10.3901 14.8875 10.3901 15.6675V15.75C10.3901 16.575 11.0749 17.25 11.9126 17.25H15.9926C16.9819 17.25 17.8946 17.955 17.9936 18.93Z" fill="#62DE8F"/>
<path d="M18.002 14.25C17.1732 14.25 16.502 13.5788 16.502 12.75C16.502 11.9212 17.1732 11.25 18.002 11.25C18.8307 11.25 19.502 11.9212 19.502 12.75C19.502 13.5788 18.83 14.25 18.002 14.25Z" fill="#62DE8F"/>
<path d="M9.00173 11.25H15.0017V21.162C15.0017 22.7295 13.7312 24 12.1637 24H11.839C10.2715 24 9.00098 22.7295 9.00098 21.162V11.25H9.00173Z" fill="#FFDA76"/>
<path d="M12.001 11.25H9.00098V21H15.001V17.25H12.001C11.1767 17.25 10.501 16.5743 10.501 15.75V15.6675C10.501 14.8875 11.1377 14.25 11.9185 14.25C12.6685 14.25 13.3585 13.74 13.4785 13.005C13.636 12.06 12.9085 11.25 12.001 11.25Z" fill="url(#paint2_linear)"/>
</g>
<defs>
<radialGradient id="paint0_radial" cx="0" cy="0" r="1" gradientUnits="userSpaceOnUse" gradientTransform="translate(23.9997 23.25) scale(23.628)">
<stop stop-color="#AFEEFF"/>
<stop offset="0.193" stop-color="#BBF1FF"/>
<stop offset="0.703" stop-color="#D7F8FF"/>
<stop offset="1" stop-color="#E1FAFF"/>
</radialGradient>
<linearGradient id="paint1_linear" x1="24" y1="44.4113" x2="24" y2="9.91125" gradientUnits="userSpaceOnUse">
<stop stop-color="#FF9757"/>
<stop offset="1" stop-color="#FFB65B"/>
</linearGradient>
<linearGradient id="paint2_linear" x1="12.0049" y1="-12449.1" x2="12.0049" y2="-12319.8" gradientUnits="userSpaceOnUse">
<stop stop-color="#FFE191"/>
<stop offset="0.335" stop-color="#FFE691"/>
<stop offset="1" stop-color="#FFEB8F"/>
</linearGradient>
<clipPath id="clip0">
<rect width="48" height="48" fill="white"/>
</clipPath>
</defs>
</svg>
