<svg width="490" height="129" viewBox="0 0 490 129" fill="none" xmlns="http://www.w3.org/2000/svg">
<mask id="mask0" mask-type="alpha" maskUnits="userSpaceOnUse" x="-70" y="31" width="1366" height="251">
<path d="M-69.5 32H1295.5V281H-69.5V32Z" fill="#F8F9FA" stroke="#E4E5E7"/>
</mask>
<g mask="url(#mask0)">
</g>
<g clip-path="url(#clip0)">
<rect width="1366" height="1366" transform="translate(-70 -834.5)" fill="#094BED"/>
<path fill-rule="evenodd" clip-rule="evenodd" d="M178.588 67.0601C178.588 187.215 275.993 284.62 396.148 284.62C516.303 284.62 613.708 187.215 613.708 67.0601H615.708C615.708 188.32 517.408 286.62 396.148 286.62C274.888 286.62 176.588 188.32 176.588 67.0601H178.588Z" fill="url(#paint0_linear)" style="mix-blend-mode:screen"/>
<path fill-rule="evenodd" clip-rule="evenodd" d="M178.588 -151.5C178.588 89.3625 373.845 284.62 614.708 284.62C855.57 284.62 1050.83 89.3625 1050.83 -151.5H1052.83C1052.83 90.4671 856.675 286.62 614.708 286.62C372.741 286.62 176.588 90.4671 176.588 -151.5H178.588Z" fill="#2F32AD"/>
<path fill-rule="evenodd" clip-rule="evenodd" d="M613 285.62C371.585 285.62 175.88 89.9149 175.88 -151.5H190.212C190.212 81.9995 379.5 271.288 613 271.288C846.499 271.288 1035.79 81.9995 1035.79 -151.5H1050.12C1050.12 89.9149 854.415 285.62 613 285.62ZM613 142.302C450.737 142.302 319.198 10.7625 319.198 -151.5H333.53C333.53 2.84708 458.653 127.97 613 127.97C767.347 127.97 892.47 2.84708 892.47 -151.5H906.802C906.802 10.7625 775.262 142.302 613 142.302ZM613 -1.01607C529.89 -1.01607 462.516 -68.3899 462.516 -151.5H476.848C476.848 -76.3053 537.805 -15.3479 613 -15.3479C688.195 -15.3479 749.152 -76.3053 749.152 -151.5H763.484C763.484 -68.3899 696.11 -1.01607 613 -1.01607Z" fill="url(#paint1_linear)" style="mix-blend-mode:color-burn"/>
<path fill-rule="evenodd" clip-rule="evenodd" d="M354.815 70.6431C253.025 52.0013 175.88 -37.1572 175.88 -144.334H183.046C183.046 -27.5842 277.69 67.0601 394.44 67.0601C511.19 67.0601 605.834 -27.5842 605.834 -144.334H613C613 -37.1572 535.855 52.0013 434.064 70.6431C535.855 89.2848 613 178.443 613 285.62H605.834C605.834 168.87 511.19 74.226 394.44 74.226C277.69 74.226 183.046 168.87 183.046 285.62H175.88C175.88 178.443 253.025 89.2848 354.815 70.6431ZM394.44 2.567C313.309 2.567 247.539 -63.2027 247.539 -144.334H254.705C254.705 -67.1604 317.266 -4.59891 394.44 -4.59891C471.613 -4.59891 534.175 -67.1604 534.175 -144.334H541.341C541.341 -63.2027 475.571 2.567 394.44 2.567ZM394.44 -69.092C352.885 -69.092 319.198 -102.779 319.198 -144.334H326.364C326.364 -106.737 356.843 -76.2579 394.44 -76.2579C432.037 -76.2579 462.516 -106.737 462.516 -144.334H469.682C469.682 -102.779 435.995 -69.092 394.44 -69.092ZM394.44 145.885C317.266 145.885 254.705 208.447 254.705 285.62H247.539C247.539 204.489 313.309 138.719 394.44 138.719C475.571 138.719 541.341 204.489 541.341 285.62H534.175C534.175 208.447 471.613 145.885 394.44 145.885ZM394.44 217.544C356.843 217.544 326.364 248.024 326.364 285.62H319.198C319.198 244.065 352.885 210.378 394.44 210.378C435.995 210.378 469.682 244.065 469.682 285.62H462.516C462.516 248.024 432.037 217.544 394.44 217.544Z" fill="url(#paint2_linear)" style="mix-blend-mode:color-dodge"/>
<path fill-rule="evenodd" clip-rule="evenodd" d="M178.588 -151.5C178.588 89.3625 373.845 284.62 614.708 284.62C855.57 284.62 1050.83 89.3625 1050.83 -151.5H1052.83C1052.83 90.4671 856.675 286.62 614.708 286.62C372.741 286.62 176.588 90.4671 176.588 -151.5H178.588Z" fill="#0934ED" style="mix-blend-mode:color-burn"/>
<path fill-rule="evenodd" clip-rule="evenodd" d="M613 285.62C371.585 285.62 175.88 89.9149 175.88 -151.5H190.212C190.212 81.9995 379.5 271.288 613 271.288C846.499 271.288 1035.79 81.9995 1035.79 -151.5H1050.12C1050.12 89.9149 854.415 285.62 613 285.62ZM613 142.302C450.737 142.302 319.198 10.7625 319.198 -151.5H333.53C333.53 2.84708 458.653 127.97 613 127.97C767.347 127.97 892.47 2.84708 892.47 -151.5H906.802C906.802 10.7625 775.262 142.302 613 142.302ZM613 -1.01607C529.89 -1.01607 462.516 -68.3899 462.516 -151.5H476.848C476.848 -76.3053 537.805 -15.3479 613 -15.3479C688.195 -15.3479 749.152 -76.3053 749.152 -151.5H763.484C763.484 -68.3899 696.11 -1.01607 613 -1.01607Z" fill="#2F56AD" style="mix-blend-mode:multiply"/>
</g>
<path d="M-0.5 -0.5H491.5V130.5H-0.5V-0.5Z" fill="url(#paint3_linear)" stroke="#E4E5E7"/>
<defs>
<linearGradient id="paint0_linear" x1="176.588" y1="176.84" x2="615.708" y2="176.84" gradientUnits="userSpaceOnUse">
<stop stop-color="#422FAD"/>
<stop offset="1" stop-color="#2F38AD"/>
</linearGradient>
<linearGradient id="paint1_linear" x1="175.88" y1="67.06" x2="1050.12" y2="67.06" gradientUnits="userSpaceOnUse">
<stop stop-color="#0993ED"/>
<stop offset="1" stop-color="#09BDED"/>
</linearGradient>
<linearGradient id="paint2_linear" x1="175.88" y1="70.6431" x2="613" y2="70.6431" gradientUnits="userSpaceOnUse">
<stop stop-color="#0956ED"/>
<stop offset="1" stop-color="#0980ED"/>
</linearGradient>
<linearGradient id="paint3_linear" x1="19.4967" y1="116.744" x2="391.655" y2="-134.853" gradientUnits="userSpaceOnUse">
<stop offset="0.27031" stop-color="white" stop-opacity="0.96"/>
<stop offset="0.658344" stop-color="white" stop-opacity="0.85"/>
</linearGradient>
<clipPath id="clip0">
<rect width="1366" height="1366" fill="white" transform="translate(-70 -834.5)"/>
</clipPath>
</defs>
</svg>
