<?xml version="1.0" encoding="UTF-8"?>
<svg width="8px" height="8px" viewBox="0 0 8 8" version="1.1" xmlns="http://www.w3.org/2000/svg" xmlns:xlink="http://www.w3.org/1999/xlink">
    <!-- Generator: Sketch 52.3 (67297) - http://www.bohemiancoding.com/sketch -->
    <title>closed-arrow-green</title>
    <desc>Created with Sketch.</desc>
    <defs>
        <path d="M7.51339286,3.75 L4.20089286,7.05803571 C4.14434496,7.11458362 4.07738134,7.14285714 4,7.14285714 C3.92261866,7.14285714 3.85565504,7.11458362 3.79910714,7.05803571 L0.486607143,3.75 C0.430059241,3.6934521 0.401785714,3.62574444 0.401785714,3.546875 C0.401785714,3.46800556 0.430059241,3.4002979 0.486607143,3.34375 L1.22767857,2.60714286 C1.28422647,2.55059496 1.35119009,2.52232143 1.42857143,2.52232143 C1.50595277,2.52232143 1.57291638,2.55059496 1.62946429,2.60714286 L4,4.97767857 L6.37053571,2.60714286 C6.42708362,2.55059496 6.49404723,2.52232143 6.57142857,2.52232143 C6.64880991,2.52232143 6.71577353,2.55059496 6.77232143,2.60714286 L7.51339286,3.34375 C7.56994076,3.4002979 7.59821429,3.46800556 7.59821429,3.546875 C7.59821429,3.62574444 7.56994076,3.6934521 7.51339286,3.75 Z" id="path-1"></path>
    </defs>
    <g id="closed-arrow-green" stroke="none" stroke-width="1" fill="none" fill-rule="evenodd">
        <g id="ï¸">
            <use fill="#000000" xlink:href="#path-1"></use>
            <use fill="#B8E986" xlink:href="#path-1"></use>
        </g>
    </g>
</svg>