<?xml version="1.0" encoding="UTF-8"?>
<svg width="8px" height="8px" viewBox="0 0 8 8" version="1.1" xmlns="http://www.w3.org/2000/svg" xmlns:xlink="http://www.w3.org/1999/xlink">
    <!-- Generator: Sketch 52.3 (67297) - http://www.bohemiancoding.com/sketch -->
    <title>closed-arrow-white</title>
    <desc>Created with Sketch.</desc>
    <defs>
        <path d="M7.11160714,3.22767857 L3.79910714,6.53571429 C3.74255924,6.59226219 3.67559562,6.62053571 3.59821429,6.62053571 C3.52083295,6.62053571 3.45386933,6.59226219 3.39732143,6.53571429 L0.0848214286,3.22767857 C0.0282735268,3.17113067 0,3.10342301 0,3.02455357 C0,2.94568413 0.0282735268,2.87797647 0.0848214286,2.82142857 L0.825892857,2.08482143 C0.882440759,2.02827353 0.949404375,2 1.02678571,2 C1.10416705,2 1.17113067,2.02827353 1.22767857,2.08482143 L3.59821429,4.45535714 L5.96875,2.08482143 C6.0252979,2.02827353 6.09226152,2 6.16964286,2 C6.2470242,2 6.31398781,2.02827353 6.37053571,2.08482143 L7.11160714,2.82142857 C7.16815504,2.87797647 7.19642857,2.94568413 7.19642857,3.02455357 C7.19642857,3.10342301 7.16815504,3.17113067 7.11160714,3.22767857 Z" id="path-1"></path>
    </defs>
    <g id="closed-arrow-white" stroke="none" stroke-width="1" fill="none" fill-rule="evenodd">
        <g id="ï¸" transform="translate(3.598214, 4.310268) rotate(-89.000000) translate(-3.598214, -4.310268) ">
            <use fill="#000000" xlink:href="#path-1"></use>
            <use fill="#FFFFFF" xlink:href="#path-1"></use>
        </g>
    </g>
</svg>