<?xml version="1.0" encoding="UTF-8"?>
<svg width="10px" height="10px" viewBox="0 0 10 10" version="1.1" xmlns="http://www.w3.org/2000/svg" xmlns:xlink="http://www.w3.org/1999/xlink">
    <!-- Generator: Sketch 52.3 (67297) - http://www.bohemiancoding.com/sketch -->
    <title>maximize</title>
    <desc>Created with Sketch.</desc>
    <g id="Page-1" stroke="none" stroke-width="1" fill="none" fill-rule="evenodd">
        <path d="M9.06247839,0.875019372 C9.32289434,0.875019372 9.54424818,0.966165087 9.72653931,1.14845622 C9.90883044,1.33074735 9.99997616,1.55210119 9.99997616,1.81251714 L9.99997616,8.68750075 C9.99997616,8.94791669 9.90883044,9.16927053 9.72653931,9.35156166 C9.54424818,9.53385279 9.32289434,9.62499851 9.06247839,9.62499851 L0.937497765,9.62499851 C0.677081818,9.62499851 0.455727981,9.53385279 0.273436848,9.35156166 C0.0911457154,9.16927053 0,8.94791669 0,8.68750075 L0,1.81251714 C0,1.55210119 0.0911457154,1.33074735 0.273436848,1.14845622 C0.455727981,0.966165087 0.677081818,0.875019372 0.937497765,0.875019372 L9.06247839,0.875019372 Z M9.06247839,8.57031352 L9.06247839,4.00001192 L0.937497765,4.00001192 L0.937497765,8.57031352 C0.937497765,8.59635503 0.950518666,8.62239683 0.976560172,8.64843834 C1.00260168,8.67447984 1.02864348,8.68750075 1.05468499,8.68750075 L8.94529117,8.68750075 C8.97133268,8.68750075 8.99737448,8.67447984 9.02341599,8.64843834 C9.04945749,8.62239683 9.06247839,8.59635503 9.06247839,8.57031352 Z" id="maximize" fill="#787D8F"></path>
    </g>
</svg>