<svg xmlns="http://www.w3.org/2000/svg" xmlns:xlink="http://www.w3.org/1999/xlink" width="40" height="45" viewBox="0 0 40 45">
    <defs>
        <path id="a" d="M8.009 25H0V0h40v25h-8.225"/>
    </defs>
    <g fill="none" fill-rule="evenodd">
        <g transform="matrix(1 0 0 -1 0 45)">
            <use fill="#FFF" xlink:href="#a"/>
            <path stroke="#009DAB" d="M39.5 24.5V.5H.5v24h39z"/>
        </g>
        <g transform="matrix(1 0 0 -1 9 38)">
            <rect width="19.412" height="19" x="1.588" y="18" fill="#DAF9FB" stroke="#009DAB" stroke-dasharray="2" rx="9.5"/>
            <rect width="9.059" height="8.867" x="6.765" y="23.067" fill="#009DAB" rx="4.433"/>
            <g stroke="#009DAB">
                <path stroke-linecap="square" d="M11.475 14.747V1.269"/>
                <path d="M7.917 4.375L11.35.942l3.33 3.331"/>
            </g>
            <g stroke="#009DAB">
                <path stroke-linecap="square" d="M18.438 15.114v-6.74"/>
                <path d="M15.82 9.918l2.41-2.41 2.672 2.673"/>
            </g>
            <g stroke="#009DAB">
                <path stroke-linecap="square" d="M2.908 15.114v-6.74"/>
                <path d="M.29 9.918l2.41-2.41 2.673 2.673"/>
            </g>
        </g>
    </g>
</svg>
