<?xml version="1.0" encoding="UTF-8"?>
<svg width="38px" height="52px" viewBox="0 0 38 52" version="1.1" xmlns="http://www.w3.org/2000/svg" xmlns:xlink="http://www.w3.org/1999/xlink">
    <!-- Generator: sketchtool 48.2 (47327) - http://www.bohemiancoding.com/sketch -->
    <title>18E2A583-C228-4905-8558-978FC05BC6AD</title>
    <desc>Created with sketchtool.</desc>
    <defs>
        <rect id="path-1" x="0" y="20" width="18" height="18"></rect>
        <rect id="path-2" x="6" y="26" width="18" height="18"></rect>
        <rect id="path-3" x="12" y="32" width="18" height="18"></rect>
    </defs>
    <g id="(1.2-SB)-New-bot" stroke="none" stroke-width="1" fill="none" fill-rule="evenodd" transform="translate(-1006.000000, -209.000000)">
        <g id="Group" transform="translate(986.000000, 65.000000)">
            <g id="Icons/TaskType-Copy-3" transform="translate(0.000000, 120.000000)">
                <g id="Template" transform="translate(20.000000, 25.000000)">
                    <g id="Rectangle-10-Copy-5">
                        <use fill="#FFFFFF" fill-rule="evenodd" xlink:href="#path-1"></use>
                        <rect stroke="#009DAB" stroke-width="1" x="0.5" y="20.5" width="17" height="17"></rect>
                    </g>
                    <g id="Rectangle-10-Copy-6">
                        <use fill="#DAF9FB" fill-rule="evenodd" xlink:href="#path-2"></use>
                        <rect stroke="#009DAB" stroke-width="1" x="6.5" y="26.5" width="17" height="17"></rect>
                        <rect stroke="#FFFFFF" stroke-width="1" x="5.5" y="25.5" width="19" height="19"></rect>
                    </g>
                    <rect id="Rectangle-10-Copy-7" stroke="#009DAB" fill="#DAF9FB" stroke-dasharray="2" x="19" y="0" width="14" height="14" rx="7"></rect>
                    <g id="Rectangle-10-Copy-8">
                        <use fill="#FFFFFF" fill-rule="evenodd" xlink:href="#path-3"></use>
                        <rect stroke="#009DAB" stroke-width="1" x="12.5" y="32.5" width="17" height="17"></rect>
                        <rect stroke="#FFFFFF" stroke-width="1" x="11.5" y="31.5" width="19" height="19"></rect>
                    </g>
                    <rect id="Rectangle-10-Copy-8" fill="#009DAB" x="17" y="37" width="8" height="8"></rect>
                    <g id="Group-2" transform="translate(31.533210, 21.320816) scale(1, -1) rotate(89.000000) translate(-31.533210, -21.320816) translate(25.033210, 14.820816)">
                        <g id="Group-Copy" transform="translate(5.877776, 6.809433) rotate(12.000000) translate(-5.877776, -6.809433) translate(1.377776, 2.309433)" stroke="#009DAB">
                            <path d="M8.4,7.81597009e-14 C3.7608081,7.81597009e-14 1.13686838e-13,3.88019884 1.13686838e-13,8.66666667" id="Oval"></path>
                        </g>
                        <polyline id="Rectangle-10-Copy-9" fill="#009DAB" transform="translate(9.968039, 3.062263) rotate(-223.000000) translate(-9.968039, -3.062263) " points="7.86803933 5.22892947 7.86803933 0.895596134 7.86803933 0.895596134 12.0680393 0.895596134"></polyline>
                    </g>
                </g>
            </g>
        </g>
    </g>
</svg>