<svg xmlns="http://www.w3.org/2000/svg" width="16" height="16" viewBox="0 0 16 16">
    <g fill="none" fill-rule="evenodd">
        <g>
            <g>
                <g>
                    <g>
                        <g>
                            <path fill="#D8D8D8" fill-opacity="0" d="M0 0H16V16H0z" transform="translate(-544 -262) translate(532 258) translate(12 4)"/>
                            <path fill="#8A959F" d="M7.133 5.831c.949.068 1.821.545 2.391 1.306.172.23.125.555-.105.727-.23.172-.555.125-.727-.105-.389-.52-.985-.846-1.633-.892-.617-.044-1.224.169-1.677.586l-.067.065-1.649 1.648c-.848.879-.836 2.276.028 3.14.843.843 2.196.874 3.07.09l.062-.057.944-.943c.203-.203.532-.203.734 0 .191.19.202.493.034.697l-.034.037-.95.95c-1.286 1.242-3.33 1.224-4.595-.04-1.241-1.242-1.28-3.235-.1-4.53l.067-.072L4.58 6.783c.672-.672 1.604-1.02 2.552-.952zm5.917-2.87c1.242 1.24 1.281 3.234.1 4.53l-.066.07-1.655 1.656c-.673.672-1.604 1.02-2.553.952-.949-.068-1.82-.545-2.39-1.306-.172-.23-.125-.555.104-.727.23-.172.555-.125.727.105.39.52.985.846 1.633.892.618.044 1.224-.169 1.677-.586l.067-.065 1.649-1.648c.849-.879.837-2.276-.027-3.14-.844-.843-2.196-.874-3.072-.09l-.062.058-.95.943c-.203.203-.531.202-.733-.002-.19-.191-.201-.494-.032-.697l.034-.037.954-.949c1.286-1.242 3.33-1.224 4.595.04z" transform="translate(-544 -262) translate(532 258) translate(12 4)"/>
                        </g>
                    </g>
                </g>
            </g>
        </g>
    </g>
</svg>
