<?xml version="1.0" encoding="UTF-8"?>
<svg width="43px" height="43px" viewBox="0 0 43 43" version="1.1" xmlns="http://www.w3.org/2000/svg" xmlns:xlink="http://www.w3.org/1999/xlink">
    <!-- Generator: sketchtool 41.2 (35397) - http://www.bohemiancoding.com/sketch -->
    <title>3CFC785D-7A69-483F-988C-0DB4F2CDD597</title>
    <desc>Created with sketchtool.</desc>
    <defs></defs>
    <g id="Symbols" stroke="none" stroke-width="1" fill="none" fill-rule="evenodd">
        <g id="Icons/Slack">
            <g id="Slack_Mark">
                <g id="Layer_1">
                    <g id="Group">
                        <path d="M27.7227642,2.83170732 C27.0585366,0.83902439 24.9260163,-0.244715447 22.9333333,0.384552846 C20.9406504,1.04878049 19.8569106,3.18130081 20.4861789,5.17398374 L30.3097561,35.3788618 C30.9739837,37.2317073 33.001626,38.2804878 34.9243902,37.7211382 C36.9520325,37.1268293 38.1756098,34.9943089 37.5113821,33.0365854 C37.5113821,32.9666667 27.7227642,2.83170732 27.7227642,2.83170732 Z" id="Shape" fill="#ECB32D"></path>
                        <path d="M12.5154472,7.76097561 C11.8512195,5.76829268 9.71869919,4.68455285 7.72601626,5.31382114 C5.73333333,5.97804878 4.6495935,8.11056911 5.27886179,10.103252 L15.102439,40.3081301 C15.7666667,42.1609756 17.7943089,43.2097561 19.7170732,42.6504065 C21.7447154,42.0560976 22.9682927,39.9235772 22.304065,37.9658537 C22.304065,37.895935 12.5154472,7.76097561 12.5154472,7.76097561 Z" id="Shape" fill="#63C1A0"></path>
                        <path d="M40.098374,27.8276423 C42.0910569,27.1634146 43.1747967,25.0308943 42.5455285,23.0382114 C41.8813008,21.0455285 39.7487805,19.9617886 37.7560976,20.5910569 L7.51626016,30.4495935 C5.66341463,31.1138211 4.61463415,33.1414634 5.17398374,35.0642276 C5.76829268,37.0918699 7.90081301,38.3154472 9.85853659,37.6512195 C9.92845528,37.6512195 40.098374,27.8276423 40.098374,27.8276423 Z" id="Shape" fill="#E01A59"></path>
                        <path d="M13.8089431,36.3926829 C15.7666667,35.7634146 18.3186992,34.9243902 21.0455285,34.0504065 C20.4162602,32.0926829 19.5772358,29.5406504 18.703252,26.8138211 L11.4666667,29.1560976 L13.8089431,36.3926829 Z" id="Shape" fill="#331433"></path>
                        <path d="M29.0512195,31.4284553 C31.7780488,30.5544715 34.3300813,29.7154472 36.2878049,29.0861789 C35.6585366,27.1284553 34.8195122,24.5764228 33.9455285,21.8495935 L26.7089431,24.1918699 L29.0512195,31.4284553 Z" id="Shape" fill="#D62027"></path>
                        <path d="M35.1341463,12.6203252 C37.1268293,11.9560976 38.2105691,9.82357724 37.5813008,7.83089431 C36.9170732,5.83821138 34.7845528,4.75447154 32.7918699,5.38373984 L2.58699187,15.2073171 C0.734146341,15.8715447 -0.314634146,17.899187 0.244715447,19.8219512 C0.83902439,21.8495935 2.97154472,23.0731707 4.92926829,22.4089431 C4.99918699,22.4089431 35.1341463,12.6203252 35.1341463,12.6203252 Z" id="Shape" fill="#89D3DF"></path>
                        <path d="M8.8796748,21.1504065 C10.8373984,20.5211382 13.3894309,19.6821138 16.1162602,18.8081301 C15.2422764,16.0813008 14.403252,13.5292683 13.7739837,11.5715447 L6.53739837,13.9138211 L8.8796748,21.1504065 Z" id="Shape" fill="#258B74"></path>
                        <path d="M24.0869919,16.2211382 C26.8138211,15.3471545 29.3658537,14.5081301 31.3235772,13.8788618 C30.4495935,11.1520325 29.6105691,8.6 28.9813008,6.64227642 L21.7447154,8.98455285 L24.0869919,16.2211382 Z" id="Shape" fill="#819C3C"></path>
                    </g>
                </g>
            </g>
        </g>
    </g>
</svg>