<?xml version="1.0" encoding="UTF-8"?>
<svg width="43px" height="43px" viewBox="0 0 43 43" version="1.1" xmlns="http://www.w3.org/2000/svg" xmlns:xlink="http://www.w3.org/1999/xlink">
    <!-- Generator: sketchtool 41.2 (35397) - http://www.bohemiancoding.com/sketch -->
    <title>1DD73B10-139D-40C7-8B56-60C3C9C35425</title>
    <desc>Created with sketchtool.</desc>
    <defs>
        <linearGradient x1="78.6075338%" y1="8.15334449%" x2="32.1601915%" y2="72.4287123%" id="linearGradient-1">
            <stop stop-color="#5BC7DA" offset="0.05772783%"></stop>
            <stop stop-color="#099EAB" offset="100%"></stop>
        </linearGradient>
    </defs>
    <g id="Symbols" stroke="none" stroke-width="1" fill="none" fill-rule="evenodd">
        <g id="Icons/SMS">
            <g id="sms_protocol" transform="translate(0.000000, 2.000000)">
                <g id="Group" transform="translate(0.369800, 0.172000)">
                    <path d="M35.9083463,5.703606 C32.0164843,2.53637435 26.8480464,0.791774394 21.3592541,0.791774394 C15.8672341,0.791774394 10.6996031,2.53637435 6.81016198,5.703606 C2.88440861,8.89908048 0.72181477,13.1564854 0.72181477,17.6938977 C0.72181477,22.023927 2.69235737,26.0997709 6.28565228,29.2403736 C6.22109724,29.3864294 6.16945321,29.5397476 6.13636875,29.7003282 L4.95581846,35.5070541 C4.81541124,36.1969861 5.00423474,36.6085245 5.18660272,36.8328532 C5.39802048,37.0910734 5.71111242,37.2339014 6.06858596,37.2339014 C6.33891019,37.2339014 6.62860093,37.1540145 6.93120268,36.9974686 L13.7974381,33.4299957 C16.1746775,34.1949729 18.7302501,34.596828 21.360868,34.596828 C26.852888,34.596828 32.020519,32.8522281 35.9099601,29.6849964 C39.8357135,26.4903289 41.9983073,22.2321171 41.9983073,17.6947047 C41.9983073,13.1572923 39.8365204,8.89908048 35.9099601,5.70441294" id="Shape" fill="url(#linearGradient-1)"></path>
                    <g transform="translate(7.223260, 13.656748)" id="Shape" fill-opacity="0.853" fill="#FFFFFF">
                        <path d="M3.77975246,8.44885844 C2.89578896,8.44885844 2.16274606,8.23325759 1.58062376,7.80205588 C1.00928149,7.37085417 0.588859831,6.83185204 0.319358764,6.18504948 L1.64530401,5.6352673 C2.06572568,6.62703123 2.78259851,7.12291319 3.79592252,7.12291319 C4.25946436,7.12291319 4.63676585,7.02050279 4.927827,6.81568198 C5.2296682,6.61086117 5.3805888,6.3413601 5.3805888,6.00717878 C5.3805888,5.48973673 5.01945737,5.13938534 4.29719451,4.95612462 L2.69635817,4.56804308 C2.18969617,4.43868257 1.70998427,4.19613161 1.25722248,3.8403902 C0.804460684,3.47386875 0.578079788,2.98337681 0.578079788,2.36891438 C0.578079788,1.6682116 0.885311004,1.10225936 1.49977344,0.671057656 C2.12501591,0.229075907 2.86344883,0.008085032 3.7150722,0.008085032 C4.41577498,0.008085032 5.04101745,0.169785672 5.59079963,0.493186952 C6.1405818,0.805808189 6.53405336,1.25856998 6.7712143,1.85147233 L5.47760918,2.38508444 C5.18654803,1.68438167 4.58286564,1.33403028 3.66656201,1.33403028 C3.22458026,1.33403028 2.85266879,1.42566064 2.5508276,1.60892137 C2.2489864,1.79218209 2.0980658,2.04012307 2.0980658,2.35274431 C2.0980658,2.8055061 2.44841719,3.11273732 3.14911996,3.27443796 L4.71761617,3.64634943 C5.46143912,3.81883011 6.01122129,4.11528129 6.3669627,4.53570295 C6.72270411,4.95612462 6.90057481,5.43044649 6.90057481,5.95866858 C6.90057481,6.6701514 6.60951366,7.26305375 6.02739136,7.73737562 C5.44526905,8.2116975 4.69605609,8.44885844 3.77975246,8.44885844"></path>
                        <path d="M8.10120206,8.19013742 L8.10120206,0.266806056 L9.5241677,0.266806056 L9.5241677,1.36637041 L9.58884795,1.36637041 C9.81522885,0.989068915 10.1601902,0.671057656 10.623732,0.412336632 C11.0980539,0.142835565 11.5669858,0.008085032 12.0305276,0.008085032 C13.2594525,0.008085032 14.0949058,0.514747037 14.5368875,1.52807105 C15.1836901,0.514747037 16.1053837,0.008085032 17.3019685,0.008085032 C18.2398322,0.008085032 18.945925,0.309926227 19.4202469,0.913608616 C19.8945687,1.50651096 20.1317297,2.31501416 20.1317297,3.33911822 L20.1317297,8.19013742 L18.6440838,8.19013742 L18.6440838,3.56549911 C18.6440838,2.76777595 18.4985532,2.20182371 18.2074921,1.86764239 C17.9164309,1.53346107 17.4744492,1.36637041 16.8815468,1.36637041 C16.2994245,1.36637041 15.8143226,1.61431139 15.4262411,2.11019335 C15.0489396,2.60607531 14.8602888,3.17202755 14.8602888,3.80805007 L14.8602888,8.19013742 L13.3726429,8.19013742 L13.3726429,3.56549911 C13.3726429,2.76777595 13.2271124,2.20182371 12.9360512,1.86764239 C12.64499,1.53346107 12.2030083,1.36637041 11.610106,1.36637041 C11.0279836,1.36637041 10.5428817,1.61431139 10.1548002,2.11019335 C9.7774987,2.60607531 9.58884795,3.17202755 9.58884795,3.80805007 L9.58884795,8.19013742 L8.10120206,8.19013742"></path>
                        <path d="M24.7159428,8.44885844 C23.8319793,8.44885844 23.0989364,8.23325759 22.5168141,7.80205588 C21.9454719,7.37085417 21.5250502,6.83185204 21.2555491,6.18504948 L22.5814944,5.6352673 C23.001916,6.62703123 23.7187889,7.12291319 24.7321129,7.12291319 C25.1956547,7.12291319 25.5729562,7.02050279 25.8640174,6.81568198 C26.1658586,6.61086117 26.3167792,6.3413601 26.3167792,6.00717878 C26.3167792,5.48973673 25.9556477,5.13938534 25.2333849,4.95612462 L23.6325485,4.56804308 C23.1258865,4.43868257 22.6461746,4.19613161 22.1934128,3.8403902 C21.740651,3.47386875 21.5142702,2.98337681 21.5142702,2.36891438 C21.5142702,1.6682116 21.8215014,1.10225936 22.4359638,0.671057656 C23.0612063,0.229075907 23.7996392,0.008085032 24.6512626,0.008085032 C25.3519653,0.008085032 25.9772078,0.169785672 26.52699,0.493186952 C27.0767722,0.805808189 27.4702437,1.25856998 27.7074047,1.85147233 L26.4137995,2.38508444 C26.1227384,1.68438167 25.519056,1.33403028 24.6027524,1.33403028 C24.1607706,1.33403028 23.7888592,1.42566064 23.487018,1.60892137 C23.1851768,1.79218209 23.0342562,2.04012307 23.0342562,2.35274431 C23.0342562,2.8055061 23.3846076,3.11273732 24.0853103,3.27443796 L25.6538065,3.64634943 C26.3976295,3.81883011 26.9474117,4.11528129 27.3031531,4.53570295 C27.6588945,4.95612462 27.8367652,5.43044649 27.8367652,5.95866858 C27.8367652,6.6701514 27.545704,7.26305375 26.9635817,7.73737562 C26.3814594,8.2116975 25.6322465,8.44885844 24.7159428,8.44885844"></path>
                    </g>
                </g>
            </g>
        </g>
    </g>
</svg>