<?xml version="1.0" encoding="UTF-8"?>
<svg width="43px" height="43px" viewBox="0 0 43 43" version="1.1" xmlns="http://www.w3.org/2000/svg" xmlns:xlink="http://www.w3.org/1999/xlink">
    <!-- Generator: sketchtool 41.2 (35397) - http://www.bohemiancoding.com/sketch -->
    <title>AFE04B62-3A19-4331-AD15-B02828DD54F9</title>
    <desc>Created with sketchtool.</desc>
    <defs></defs>
    <g id="Symbols" stroke="none" stroke-width="1" fill="none" fill-rule="evenodd">
        <g id="Icons/CiscoSpark">
            <g id="spark">
                <g id="Artboard-1">
                    <g id="Layer_1">
                        <rect id="Rectangle-path" x="0" y="0" width="43" height="43"></rect>
                        <path d="M40.6089648,18.5891016 L30.4527344,18.3627637 L32.5943359,16.189668 C33.4761719,15.2939746 33.7701172,13.6281445 33.2418555,12.4842773 L31.5756055,8.86833008 C31.0494434,7.72614258 29.9047363,7.53255859 29.0321387,8.43833008 L25.6488281,11.9492969 L25.703418,5.4825 C25.713916,4.22483398 24.7850488,3.62014648 23.639082,4.13875 L19.8560059,5.84951172 C18.7100391,6.36769531 17.7563965,7.820625 17.7383398,9.07829102 L17.6921484,12.1554785 L10.5925293,4.23491211 C9.75268555,3.29848633 8.64745117,3.47149414 8.13514648,4.62040039 L6.58899414,8.08727539 C6.07626953,9.23576172 6.34753906,10.9389648 7.19074219,11.8720313 L12.7001172,17.9680371 L10.0882031,17.9100879 C8.83095703,17.882373 7.33477539,18.7759668 6.76326172,19.8958984 L5.01680664,23.3191016 C4.44529297,24.4390332 5.00588867,25.3922559 6.26271484,25.4367676 L12.4410254,25.655127 L6.90183594,31.4025977 C6.02923828,32.3083691 6.29546875,33.3636328 7.49266602,33.7478613 L11.2421484,34.9509375 C12.4393457,35.335166 14.1396094,34.9165039 15.0239648,34.0208105 L17.399043,31.610459 L17.2839844,39.2715137 C17.2650879,40.5287598 18.2359473,41.2657227 19.4423828,40.909209 L23.2258789,39.7888574 C24.4318945,39.4319238 25.4271094,38.1091699 25.4376074,36.8531836 L25.4795996,32.1080664 L28.9939258,35.996543 C29.8371289,36.9296094 31.0641406,36.8153906 31.7208984,35.7445898 L33.4119238,32.981084 C34.0682617,31.9081836 33.9187695,30.2646094 33.0797656,29.3277637 L30.3574121,26.2871094 L37.1924805,26.5285645 C38.4497266,26.5730762 39.8833398,25.6639453 40.3788477,24.5079004 L41.9921875,20.7416211 C42.489375,19.5855762 41.8662109,18.6168164 40.6089648,18.5891016 Z" id="Shape" fill="#FFFFFF"></path>
                        <path d="M40.3788477,24.5087402 C39.8829199,25.6647852 38.4497266,26.573916 37.1924805,26.5294043 L6.26229492,25.4376074 C5.00546875,25.3930957 4.44487305,24.440293 5.01638672,23.3199414 L6.7628418,19.8967383 C7.33435547,18.7768066 8.83053711,17.8811133 10.0877832,17.9109277 L40.6085449,18.5903613 C41.865791,18.6180762 42.4889551,19.5868359 41.9942871,20.7428809 L40.3788477,24.5087402 Z" id="Shape" fill="#0C99D5"></path>
                        <path d="M25.4376074,36.8527637 C25.4266895,38.1104297 24.4297949,39.4315039 23.2258789,39.7884375 L19.4423828,40.9087891 C18.2363672,41.2657227 17.2650879,40.5308594 17.2839844,39.2710937 L17.7387598,9.07871094 C17.7576563,7.82146484 18.710459,6.36853516 19.8564258,5.84993164 L23.639502,4.13916992 C24.7854688,3.62098633 25.7143359,4.22609375 25.7038379,5.48291992 L25.4376074,36.8527637 Z" id="Shape" fill="#D0D1D0"></path>
                        <path d="M31.7187988,35.7403906 C31.0624609,36.813291 29.8350293,36.9270898 28.9918262,35.9923437 L7.19032227,11.8716113 C6.34711914,10.9385449 6.07626953,9.23576172 6.58857422,8.08685547 L8.13514648,4.61914062 C8.64787109,3.4706543 9.75352539,3.29722656 10.5925293,4.23365234 L33.0780859,29.3235645 C33.9179297,30.2599902 34.067002,31.9039844 33.4102441,32.9768848 L31.7187988,35.7403906 Z" id="Shape" fill="#A9DFF3"></path>
                        <path d="M33.2414355,12.4842773 C33.7680176,13.6264648 33.4761719,15.2939746 32.593916,16.189668 L15.0239648,34.0203906 C14.1421289,34.916084 12.4393457,35.3347461 11.2421484,34.9505176 L7.49266602,33.7474414 C6.29546875,33.3632129 6.02923828,32.3079492 6.90183594,31.4021777 L29.0317187,8.43791016 C29.9043164,7.53213867 31.0473437,7.72404297 31.5751855,8.86791016 L33.2414355,12.4842773 Z" id="Shape" fill="#74BE45"></path>
                    </g>
                </g>
            </g>
        </g>
    </g>
</svg>