<?xml version="1.0" encoding="UTF-8"?>
<svg width="22px" height="21px" viewBox="0 0 22 21" version="1.1" xmlns="http://www.w3.org/2000/svg" xmlns:xlink="http://www.w3.org/1999/xlink">
    <!-- Generator: Sketch 48.2 (47327) - http://www.bohemiancoding.com/sketch -->
    <title>Group</title>
    <desc>Created with Sketch.</desc>
    <defs></defs>
    <g id="4.11-clear-winner" stroke="none" stroke-width="1" fill="none" fill-rule="evenodd" transform="translate(-148.000000, -165.000000)" stroke-linecap="round" stroke-linejoin="round">
        <g id="Group-2" transform="translate(130.000000, 86.000000)" stroke="#EC7D01" stroke-width="2">
            <g id="Group" transform="translate(19.000000, 80.000000)">
                <path d="M14.2857143,9.99720618 C14.2857143,12.3628059 12.3671429,14.2801267 10,14.2801267 C7.63285714,14.2801267 5.71428571,12.3628059 5.71428571,9.99720618 C5.71428571,7.63160644 7.63285714,5.71428571 10,5.71428571 C12.3671429,5.71428571 14.2857143,7.63160644 14.2857143,9.99720618 Z" id="Stroke-283"></path>
                <polyline id="Rectangle-3" points="12 14 12 19 8 19 8 14 8 14"></polyline>
                <path d="M10,1.42764016 L10,0" id="Stroke-284"></path>
                <path d="M18.5714286,10 L20,10" id="Stroke-286"></path>
                <path d="M1.42857143,10 L0,10" id="Stroke-287"></path>
                <path d="M2.85714286,2.85621159 L1.42857143,1.42857143" id="Stroke-288"></path>
                <path d="M18.5714286,1.42857143 L17.1428571,2.85621159" id="Stroke-289"></path>
            </g>
        </g>
    </g>
</svg>