<svg width="20" height="20" viewBox="0 0 20 20" fill="none" xmlns="http://www.w3.org/2000/svg">
<path d="M10.011 19.25C7.2535 19.25 4.9975 18.4165 3.304 16.773C1.6095 15.128 0.75 12.949 0.75 10.296C0.75 7.56649 1.6495 5.26849 3.423 3.46649C5.1975 1.66399 7.4925 0.749992 10.245 0.749992C17.368 0.749992 19.25 6.14099 19.25 8.99149C19.25 10.7805 18.792 12.2725 17.888 13.4265C16.9405 14.6365 15.801 15.25 14.5 15.25C13.0545 15.25 12.166 14.5695 11.891 13.2685C11.2425 14.569 10.1865 15.25 8.797 15.25C6.347 15.25 5.25 13.0425 5.25 10.855C5.25 9.05399 5.659 7.65699 6.5005 6.58449C7.4565 5.36699 8.66 4.74999 10.078 4.74999C11.061 4.74999 11.7565 5.27699 12.16 5.77099C12.177 5.52399 12.1985 5.24599 12.2235 4.97649L12.245 4.74999H14.1375L14.114 5.02149C13.7735 8.94299 13.5955 11.2965 13.5915 11.4185C13.5915 13.0275 14.108 13.25 14.6665 13.25C16.618 13.25 17.2495 10.3865 17.2495 8.99999C17.2495 7.11949 16.628 5.59399 15.349 4.33549C14.2205 3.22399 12.6675 2.74999 10.156 2.74999C7.779 2.74999 6.1485 3.35199 4.869 4.70199C3.463 6.18499 2.75 8.04499 2.75 10.23C2.75 12.3775 3.426 14.146 4.7585 15.4855C5.9725 16.7055 7.6265 17.2495 10.123 17.2495C11.8095 17.2495 13.5495 16.8935 14.896 16.2725L15.2505 16.109V18.15L15.1175 18.2205C13.8315 18.904 12.1135 19.25 10.011 19.25ZM10.024 6.74999C9.203 6.74999 8.555 7.11999 8.0425 7.88199C7.5165 8.66399 7.25 9.65499 7.25 10.8265C7.25 11.594 7.421 12.2005 7.759 12.6295C8.087 13.047 8.514 13.25 9.0635 13.25C9.88 13.25 10.5115 12.864 10.995 12.07C11.496 11.2475 11.75 10.1315 11.75 8.75299C11.75 7.38649 11.2015 6.74999 10.024 6.74999Z" fill="#EF9AA3"/>
<path d="M10.245 1.00001C16.9685 1.00001 19 6.03151 19 8.99151C19 10.731 18.564 12.158 17.691 13.2725C16.8185 14.387 15.7545 15 14.5 15C12.8735 15 12.0565 14.0745 12.0495 12.335H11.994C11.452 14.0745 10.386 15 8.797 15C6.3125 15 5.5 12.604 5.5 10.855C5.5 9.20351 5.8395 7.83151 6.6975 6.73851C7.555 5.64651 8.6815 5.00001 10.078 5.00001C11.4295 5.00001 12.1985 6.11601 12.317 6.52501H12.3615C12.3765 6.32051 12.413 5.63601 12.473 5.00001H13.8655C13.516 9.02701 13.342 11.3415 13.342 11.414C13.342 12.927 13.7835 13.5 14.6675 13.5C16.854 13.5 17.5 10.3595 17.5 9.00001C17.5 6.99051 16.817 5.42851 15.5245 4.15701C14.232 2.88551 12.4435 2.50001 10.156 2.50001C7.9505 2.50001 6.128 3.01001 4.687 4.53001C3.246 6.05001 2.5 7.95001 2.5 10.23C2.5 12.4735 3.211 14.2845 4.581 15.662C5.951 17.0395 7.7985 17.5 10.1225 17.5C11.9565 17.5 13.7005 17.099 15 16.5V18C13.6665 18.7085 11.934 19 10.011 19C7.3085 19 5.1305 18.198 3.478 16.594C1.8255 14.99 1 12.8905 1 10.296C1 7.62101 1.867 5.40351 3.601 3.64201C5.3345 1.88101 7.5495 1.00001 10.245 1.00001ZM9.0635 13.5C9.9655 13.5 10.681 13.067 11.2085 12.2C11.7365 11.3335 12 10.184 12 8.75251C12 7.25101 11.341 6.50001 10.024 6.50001C9.122 6.50001 8.392 6.91451 7.835 7.74201C7.2785 8.57051 7 9.59851 7 10.8265C7 11.6545 7.187 12.3075 7.562 12.7845C7.9375 13.2615 8.437 13.5 9.0635 13.5ZM10.245 0.500008C7.423 0.500008 5.068 1.43901 3.2445 3.29101C1.4235 5.14151 0.5 7.49801 0.5 10.296C0.5 13.019 1.385 15.2585 3.13 16.9525C4.8715 18.643 7.1865 19.5 10.011 19.5C12.155 19.5 13.9125 19.144 15.2345 18.4415L15.5 18.3005V18V16.5V15.719L14.7905 16.046C13.4755 16.6525 11.774 17 10.1225 17C7.6985 17 6.0985 16.4785 4.9355 15.3095C3.651 14.018 3 12.3095 3 10.23C3 8.11101 3.6895 6.30851 5.05 4.87351C6.2785 3.57801 7.853 3.00001 10.156 3.00001C12.5955 3.00001 14.096 3.45251 15.174 4.51351C16.4025 5.72251 17 7.19051 17 9.00001C17 10.253 16.4125 13 14.667 13C14.3385 13 13.8415 13 13.8415 11.414C13.8475 11.2795 14.0245 8.94701 14.363 5.04301L14.4105 4.50001H13.8655H12.473H12.0175L11.975 4.95351C11.967 5.03701 11.9595 5.12151 11.9525 5.20551C11.4875 4.81201 10.8515 4.50001 10.078 4.50001C8.6005 4.50001 7.2955 5.16751 6.304 6.43001C5.4265 7.54801 5 8.99551 5 10.855C5 13.167 6.174 15.5 8.797 15.5C9.7615 15.5 10.966 15.1875 11.822 13.894C12.248 14.9405 13.163 15.5 14.5 15.5C15.8815 15.5 17.0875 14.854 18.085 13.5805C19.024 12.3815 19.5 10.8375 19.5 8.99151C19.5 5.57801 17.0355 0.500008 10.245 0.500008ZM9.0635 13C8.589 13 8.237 12.8335 7.9555 12.4755C7.653 12.091 7.5 11.536 7.5 10.8265C7.5 9.70551 7.7525 8.76151 8.25 8.02101C8.712 7.33401 9.2925 7.00001 10.024 7.00001C10.754 7.00001 11.5 7.20801 11.5 8.75251C11.5 10.085 11.2585 11.157 10.7815 11.9395C10.347 12.6535 9.785 13 9.0635 13Z" fill="#59141C"/>
</svg>
