<svg width="24" height="24" viewBox="0 0 24 24" fill="none" xmlns="http://www.w3.org/2000/svg">
<path d="M11.6996 22.5002C11.3596 22.5007 11.0266 22.404 10.7397 22.2216C10.4528 22.0392 10.224 21.7787 10.0802 21.4706L9.99856 21.3002H1.19956C0.960955 21.2999 0.732205 21.205 0.563485 21.0363C0.394766 20.8676 0.299851 20.6388 0.299561 20.4002V17.1002H23.0996V20.4002C23.0993 20.6388 23.0044 20.8676 22.8356 21.0363C22.6669 21.205 22.4382 21.2999 22.1996 21.3002H13.4006L13.319 21.4706C13.1751 21.7787 12.9463 22.0392 12.6594 22.2216C12.3726 22.404 12.0395 22.5007 11.6996 22.5002Z" fill="#B893F2"/>
<path d="M22.8 17.3999V20.3999C22.7997 20.559 22.7364 20.7114 22.624 20.8239C22.5115 20.9364 22.3591 20.9997 22.2 20.9999H13.212L13.0488 21.3413C12.9289 21.5979 12.7384 21.815 12.4994 21.9671C12.2605 22.1191 11.9832 22.1999 11.7 22.1999C11.4168 22.1999 11.1395 22.1191 10.9006 21.9671C10.6616 21.815 10.4711 21.5979 10.3512 21.3413L10.188 20.9999H1.2C1.04095 20.9997 0.88849 20.9364 0.776025 20.8239C0.66356 20.7114 0.600262 20.559 0.6 20.3999V17.3999H22.8ZM23.4 16.7999H4.54042e-08V20.3999C-4.33121e-05 20.5575 0.030966 20.7136 0.0912563 20.8592C0.151547 21.0048 0.239936 21.1371 0.351375 21.2486C0.462814 21.36 0.595118 21.4484 0.740729 21.5087C0.886339 21.569 1.0424 21.6 1.2 21.5999H9.81C9.97864 21.9587 10.2459 22.2621 10.5806 22.4746C10.9153 22.6871 11.3036 22.7999 11.7 22.7999C12.0964 22.7999 12.4847 22.6871 12.8194 22.4746C13.1541 22.2621 13.4214 21.9587 13.59 21.5999H22.2C22.3576 21.6 22.5137 21.569 22.6593 21.5087C22.8049 21.4484 22.9372 21.36 23.0486 21.2486C23.1601 21.1371 23.2485 21.0048 23.3087 20.8592C23.369 20.7136 23.4 20.5575 23.4 20.3999V16.7999Z" fill="#381472"/>
<path d="M11.7004 20.7002V4.20022C11.701 3.64345 11.9225 3.10966 12.3162 2.71597C12.7099 2.32227 13.2437 2.10083 13.8004 2.10022H23.1004V19.5002H13.2004C12.8548 19.5006 12.5198 19.6202 12.252 19.8388C11.9843 20.0574 11.8001 20.3616 11.7304 20.7002H11.7004Z" fill="#F1E9FB"/>
<path d="M22.8001 2.39993V19.1999H13.2001C12.7571 19.1995 12.3296 19.3633 12.0001 19.6595V4.19993C12.0007 3.72272 12.1906 3.26522 12.528 2.92778C12.8654 2.59034 13.3229 2.40051 13.8001 2.39993H22.8001ZM23.4001 1.79993H13.8001C13.1636 1.79996 12.5532 2.05282 12.1031 2.5029C11.653 2.95298 11.4002 3.56342 11.4001 4.19993V20.9999H12.0001C12.0001 20.8423 12.0311 20.6863 12.0914 20.5407C12.1517 20.395 12.2401 20.2627 12.3515 20.1513C12.463 20.0399 12.5953 19.9515 12.7409 19.8912C12.8865 19.8309 13.0425 19.7999 13.2001 19.7999H23.4001V1.79993Z" fill="#381472"/>
<path d="M11.6696 20.7002C11.5999 20.3616 11.4157 20.0574 11.148 19.8388C10.8802 19.6202 10.5452 19.5006 10.1996 19.5002H0.299561V2.10022H9.59956C10.1563 2.10083 10.6901 2.32227 11.0838 2.71597C11.4775 3.10966 11.6989 3.64345 11.6996 4.20022V20.7002H11.6696Z" fill="#F1E9FB"/>
<path d="M20.2747 10.8001C20.2738 10.5709 20.2448 10.3426 20.1883 10.1205L20.8495 9.44527L20.3351 8.55447L19.4207 8.78928C19.0899 8.46885 18.6851 8.23512 18.2423 8.10888L17.9891 7.20007H16.9607L16.7071 8.10927C16.2642 8.23552 15.8594 8.46925 15.5287 8.78967L14.6143 8.55487L14.0999 9.44568L14.7611 10.1209C14.6459 10.5665 14.6459 11.0341 14.7611 11.4797L14.0999 12.1549L14.6143 13.0457L15.5287 12.8109C15.8594 13.1313 16.2642 13.365 16.7071 13.4913L16.9603 14.4001H17.9887L18.2423 13.4909C18.6851 13.3646 19.0899 13.1309 19.4207 12.8105L20.3351 13.0453L20.8495 12.1545L20.1883 11.4793C20.2448 11.2573 20.2738 11.0292 20.2747 10.8001ZM18.6747 10.8001C18.6747 11.0374 18.6043 11.2694 18.4724 11.4668C18.3406 11.6641 18.1531 11.8179 17.9339 11.9087C17.7146 11.9996 17.4733 12.0233 17.2405 11.977C17.0078 11.9307 16.794 11.8164 16.6261 11.6486C16.4583 11.4808 16.344 11.267 16.2977 11.0342C16.2514 10.8014 16.2752 10.5601 16.366 10.3409C16.4568 10.1216 16.6106 9.93417 16.808 9.80231C17.0053 9.67045 17.2373 9.60007 17.4747 9.60007C17.6322 9.60006 17.7883 9.6311 17.9339 9.6914C18.0795 9.7517 18.2118 9.84009 18.3232 9.95152C18.4346 10.063 18.523 10.1952 18.5833 10.3408C18.6436 10.4864 18.6747 10.6425 18.6747 10.8001Z" fill="#381472"/>
<path d="M9.6 2.39993C10.0772 2.40051 10.5347 2.59034 10.8722 2.92778C11.2096 3.26522 11.3994 3.72272 11.4 4.19993V19.6595C11.0706 19.3633 10.6431 19.1995 10.2 19.1999H0.6V2.39993H9.6ZM9.6 1.79993H0V19.7999H10.2C10.3576 19.7999 10.5137 19.8309 10.6593 19.8912C10.8049 19.9515 10.9372 20.0399 11.0486 20.1513C11.1601 20.2627 11.2485 20.395 11.3087 20.5407C11.369 20.6863 11.4 20.8423 11.4 20.9999H12V4.19993C12 3.56342 11.7471 2.95298 11.297 2.5029C10.8469 2.05282 10.2365 1.79996 9.6 1.79993Z" fill="#381472"/>
<path d="M0.599854 19.7999H10.1999V20.3999H0.599854V19.7999Z" fill="#B893F2"/>
</svg>
