<svg width="24" height="24" viewBox="0 0 24 24" fill="none" xmlns="http://www.w3.org/2000/svg">
<path d="M3.8176 22.5C3.532 22.5 3.2998 22.2624 3.2998 21.969V2.031C3.2998 1.7376 3.5326 1.5 3.8176 1.5H9.9238C9.9076 1.6008 9.8998 1.7004 9.8998 1.8C9.8998 2.958 10.8418 3.9 11.9998 3.9C13.1578 3.9 14.0998 2.958 14.0998 1.8C14.0998 1.7004 14.092 1.6008 14.0758 1.5H20.182C20.4676 1.5 20.6998 1.7376 20.6998 2.031V21.969C20.6998 22.2618 20.467 22.5 20.182 22.5H3.8176Z" fill="#B893F2"/>
<path d="M20.1816 1.8C20.3022 1.8 20.4 1.9038 20.4 2.031V21.9696C20.4 22.0962 20.3022 22.2 20.1816 22.2H3.8184C3.6978 22.2 3.6 22.0962 3.6 21.969V2.031C3.6 1.9038 3.6978 1.8 3.8184 1.8H9.6C9.6 3.1236 10.6764 4.2 12 4.2C13.3236 4.2 14.4 3.1236 14.4 1.8H20.1816ZM20.1816 1.2H13.6896C13.7568 1.3884 13.8 1.5882 13.8 1.8C13.8 2.7942 12.9942 3.6 12 3.6C11.0058 3.6 10.2 2.7942 10.2 1.8C10.2 1.5882 10.2432 1.3884 10.3104 1.2H3.8184C3.3666 1.2 3 1.572 3 2.031V21.9696C3 22.428 3.3666 22.8 3.8184 22.8H20.1822C20.6334 22.8 21 22.428 21 21.969V2.031C21 1.572 20.6334 1.2 20.1816 1.2Z" fill="#381472"/>
<path d="M4.7998 3H19.1998V21H4.7998V3Z" fill="#F1E9FB"/>
<path d="M7.7998 12.5706L10.6192 15.39L16.1998 9.80998" stroke="#381472" stroke-width="1.8" stroke-miterlimit="10"/>
<path d="M12.0002 0.6C12.662 0.6 13.2002 1.1382 13.2002 1.8C13.2002 2.4618 12.662 3 12.0002 3C11.3384 3 10.8002 2.4618 10.8002 1.8C10.8002 1.1382 11.3384 0.6 12.0002 0.6ZM12.0002 0C11.006 0 10.2002 0.8058 10.2002 1.8C10.2002 2.7942 11.006 3.6 12.0002 3.6C12.9944 3.6 13.8002 2.7942 13.8002 1.8C13.8002 0.8058 12.9944 0 12.0002 0Z" fill="#381472"/>
<path d="M8.99961 4.5C8.50341 4.5 8.09961 4.0962 8.09961 3.6V1.5H10.5212L10.544 1.4364C10.5146 1.5528 10.4996 1.6746 10.4996 1.8C10.4996 2.6274 11.1722 3.3 11.9996 3.3C12.827 3.3 13.4996 2.6274 13.4996 1.8C13.4996 1.6746 13.4846 1.5528 13.4552 1.4364L13.478 1.5H15.8996V3.6C15.8996 4.0962 15.4958 4.5 14.9996 4.5H8.99961ZM11.9972 0.300003C11.9984 0.300003 12.0008 0.300003 12.002 0.300003C12.0008 0.300003 11.9984 0.300003 11.9972 0.300003Z" fill="#7027E5"/>
<path d="M15.5998 1.8V3.6C15.5998 3.9306 15.3304 4.2 14.9998 4.2H8.9998C8.6692 4.2 8.3998 3.9306 8.3998 3.6V1.8H10.1998C10.1998 2.7924 11.0074 3.6 11.9998 3.6C12.9922 3.6 13.7998 2.7924 13.7998 1.8H15.5998ZM11.9998 0C11.2174 0 10.558 0.5022 10.3102 1.2H7.7998V3.6C7.7998 4.263 8.3368 4.8 8.9998 4.8H14.9998C15.6628 4.8 16.1998 4.263 16.1998 3.6V1.2H13.6894C13.4416 0.5022 12.7822 0 11.9998 0ZM11.9998 3C11.338 3 10.7998 2.4618 10.7998 1.8C10.7998 1.1382 11.338 0.6 11.9998 0.6C12.6616 0.6 13.1998 1.1382 13.1998 1.8C13.1998 2.4618 12.6616 3 11.9998 3Z" fill="#381472"/>
</svg>
