<svg width="24" height="24" viewBox="0 0 24 24" fill="none" xmlns="http://www.w3.org/2000/svg">
<path d="M4.84118 6.45675L2.83958 5.78955L0.977783 2.68635L2.68598 0.978149L5.78918 2.83995L6.45638 4.84155L13.3756 11.7607L11.7604 13.3759L4.84118 6.45675Z" fill="#85B7FE"/>
<path d="M2.73285 1.35525L5.54025 3.03945L6.14985 4.86885L6.19485 5.00325L6.29505 5.10345L12.9515 11.7599L11.7599 12.9515L5.10345 6.29445L5.00325 6.19425L4.86885 6.14985L3.04005 5.54025L1.35525 2.73285L2.73285 1.35525ZM2.63985 0.599854L0.599854 2.63985L2.63925 6.03945L4.67865 6.71925L11.7599 13.7999L13.7999 11.7599L6.71925 4.67925L6.03945 2.63925L2.63985 0.599854Z" fill="#07377F"/>
<path d="M20.7206 23.1002C20.0804 23.1002 19.4798 22.85 19.0298 22.3952L11.2244 14.5262L14.6072 11.1782L22.4114 19.0466C22.859 19.4978 23.1032 20.0966 23.1002 20.7326C23.0966 21.368 22.8464 21.9644 22.3946 22.4114C21.9464 22.8554 21.3518 23.1002 20.7206 23.1002Z" fill="#0D6EFD"/>
<path d="M14.6049 11.6015L22.1985 19.2569C22.5891 19.6517 22.8033 20.1749 22.8003 20.7305C22.7973 21.2861 22.5789 21.8069 22.1841 22.1981C21.7917 22.5863 21.2721 22.7999 20.7207 22.7999C20.1615 22.7999 19.6365 22.5809 19.2423 22.1831L11.6493 14.5283L14.6049 11.6015ZM14.6085 10.7531L10.8003 14.5241L18.8163 22.6055C19.3407 23.1347 20.0307 23.3999 20.7207 23.3999C21.4023 23.3999 22.0839 23.1419 22.6059 22.6241C23.6577 21.5825 23.6661 19.8863 22.6245 18.8345L14.6085 10.7531Z" fill="#07377F"/>
<path d="M3.86119 23.1001C3.06499 23.1001 2.31799 22.7881 1.75759 22.2223C1.20079 21.6607 0.895989 20.9149 0.900189 20.1241C0.904389 19.3333 1.21579 18.5911 1.77799 18.0355L12.2096 7.68127L16.376 11.8897L5.94379 22.2433C5.38639 22.7959 4.64659 23.1001 3.86119 23.1001ZM3.90079 18.9001C3.24139 18.9001 2.70319 19.4359 2.70019 20.0941C2.69719 20.7559 3.23299 21.2971 3.89419 21.3001C4.55839 21.3001 5.09719 20.7643 5.10019 20.1061C5.10319 19.4443 4.56739 18.9031 3.90619 18.9001H3.90079Z" fill="#E7F1FF"/>
<path d="M12.2074 8.10547L15.952 11.8873L5.73282 22.0297C5.23182 22.5265 4.56642 22.8001 3.86082 22.8001C3.14502 22.8001 2.47362 22.5199 1.96962 22.0117C0.937019 20.9689 0.945419 19.2811 1.98882 18.2479L12.2074 8.10547ZM3.89862 21.6001H3.89982C4.72302 21.6001 5.39562 20.9305 5.39982 20.1073C5.40402 19.2805 4.73442 18.6043 3.89982 18.6001C3.07662 18.6001 2.40402 19.2697 2.39982 20.0929C2.39802 20.4937 2.55222 20.8711 2.83422 21.1555C3.11622 21.4399 3.49182 21.5983 3.89322 21.6001H3.89862ZM12.211 7.25647L1.56642 17.8219C0.286619 19.0891 0.276419 21.1537 1.54362 22.4335C2.18142 23.0773 3.02082 23.4001 3.86082 23.4001C4.69002 23.4001 5.51922 23.0857 6.15522 22.4563L16.7998 11.8915L12.211 7.25647ZM3.89982 21.0001C3.89802 21.0001 3.89682 21.0001 3.89502 21.0001C3.39822 20.9977 2.99742 20.5927 2.99982 20.0959C3.00222 19.6003 3.40482 19.2001 3.89982 19.2001C3.90162 19.2001 3.90282 19.2001 3.90462 19.2001C4.40142 19.2025 4.80222 19.6075 4.79982 20.1043C4.79742 20.5999 4.39482 21.0001 3.89982 21.0001Z" fill="#07377F"/>
<path d="M18.3317 12.316C16.6955 12.3154 15.0143 11.5642 13.7171 10.2544C11.3819 7.89579 11.0237 4.45179 12.9167 2.57679C13.9295 1.57419 15.6953 0.900391 17.3105 0.900391C17.9519 0.900391 18.5387 1.00119 19.0601 1.20039L15.2309 4.99479L16.1945 7.79619L18.9875 8.78799L22.8155 4.99359C23.5781 7.04739 22.7279 9.79959 21.3851 11.1298C20.6021 11.9062 19.5461 12.316 18.3317 12.316Z" fill="#E7F1FF"/>
<path d="M17.311 1.19985C17.7328 1.19985 18.1288 1.24605 18.4954 1.33665L15.154 4.64805L14.8864 4.91385L15.0088 5.27025L15.8638 7.75665L15.958 8.03025L16.2304 8.12685L18.709 9.00765L19.0642 9.13365L19.3318 8.86845L22.6708 5.55945C23.1046 7.40805 22.3456 9.75645 21.1732 10.9169C20.4472 11.6357 19.4638 12.0161 18.3304 12.0161C16.774 12.0161 15.1696 11.2973 13.9282 10.0433C12.8374 8.94165 12.1612 7.56765 12.0238 6.17445C11.8912 4.82745 12.2824 3.62565 13.126 2.79045C14.0884 1.83885 15.7696 1.19985 17.311 1.19985ZM17.311 0.599854C15.5716 0.599854 13.753 1.32645 12.7054 2.36385C10.6906 4.35885 11.0482 7.98585 13.5028 10.4651C14.9038 11.8799 16.6852 12.6155 18.331 12.6155C19.5694 12.6155 20.731 12.1991 21.5956 11.3429C23.1262 9.82725 24.0028 6.65205 22.9162 4.47165L18.9094 8.44245L16.4308 7.56165L15.5758 5.07525L19.5826 1.10445C18.898 0.754653 18.1126 0.599854 17.311 0.599854Z" fill="#07377F"/>
<path d="M20.7004 20.7L15.8914 15.891" stroke="#07377F" stroke-width="0.6" stroke-miterlimit="10" stroke-linecap="round"/>
</svg>
