<svg width="20" height="20" viewBox="0 0 20 20" fill="none" xmlns="http://www.w3.org/2000/svg">
<path d="M17.292 5.41668C17.1005 5.41668 16.9108 5.4544 16.7339 5.52768C16.557 5.60097 16.3962 5.70839 16.2608 5.84381C16.1254 5.97923 16.018 6.14 15.9447 6.31693C15.8714 6.49386 15.8337 6.6835 15.8337 6.87501C15.8337 7.06652 15.8714 7.25616 15.9447 7.43309C16.018 7.61002 16.1254 7.77079 16.2608 7.90621C16.3962 8.04163 16.557 8.14904 16.7339 8.22233C16.9108 8.29562 17.1005 8.33334 17.292 8.33334C17.4835 8.33334 17.6731 8.29562 17.8501 8.22233C18.027 8.14904 18.1878 8.04163 18.3232 7.90621C18.4586 7.77079 18.566 7.61002 18.6393 7.43309C18.7126 7.25616 18.7503 7.06652 18.7503 6.87501C18.7503 6.6835 18.7126 6.49386 18.6393 6.31693C18.566 6.14 18.4586 5.97923 18.3232 5.84381C18.1878 5.70839 18.027 5.60097 17.8501 5.52768C17.6731 5.4544 17.4835 5.41668 17.292 5.41668ZM1.66699 16.6667L11.2503 18.3333V1.66668L1.66699 3.33334V16.6667Z" fill="#5C6BC0"/>
<path d="M8.75033 6.77917V7.91667L7.08783 7.99167L7.07949 12.9333L5.83783 12.8958V8.03751L4.16699 8.10417V7.05834L8.75033 6.77917Z" fill="white"/>
<path d="M14.9997 5.83334C14.9997 6.75418 14.2538 7.50001 13.333 7.50001C12.833 7.50001 12.3872 7.27918 12.083 6.93334V4.73334C12.3872 4.38751 12.833 4.16668 13.333 4.16668C14.2538 4.16668 14.9997 4.91251 14.9997 5.83334ZM15.833 9.58334V14.1667C15.833 14.1667 16.4859 14.1667 17.2913 14.1667C18.0255 14.1667 18.6268 13.6225 18.7288 12.9167H18.7497V9.58334H15.833ZM12.083 8.33334V15.4167C12.083 15.4167 12.7359 15.4167 13.5413 15.4167C14.2755 15.4167 14.8768 14.8725 14.9788 14.1667H14.9997V8.33334H12.083Z" fill="#5C6BC0"/>
</svg>
