<svg width="20" height="20" viewBox="0 0 20 20" fill="none" xmlns="http://www.w3.org/2000/svg">
<path d="M3.18101 18.75C2.94301 18.75 2.74951 18.552 2.74951 18.3075V1.6925C2.74951 1.448 2.94351 1.25 3.18101 1.25H8.26951C8.25601 1.334 8.24951 1.417 8.24951 1.5C8.24951 2.465 9.03451 3.25 9.99951 3.25C10.9645 3.25 11.7495 2.465 11.7495 1.5C11.7495 1.417 11.743 1.334 11.7295 1.25H16.818C17.056 1.25 17.2495 1.448 17.2495 1.6925V18.3075C17.2495 18.5515 17.0555 18.75 16.818 18.75H3.18101Z" fill="#FFED96"/>
<path d="M16.818 1.49988C16.9185 1.49988 17 1.58638 17 1.69238V18.3079C17 18.4134 16.9185 18.4999 16.818 18.4999H3.182C3.0815 18.4999 3 18.4134 3 18.3074V1.69238C3 1.58638 3.0815 1.49988 3.182 1.49988H8C8 2.60288 8.897 3.49988 10 3.49988C11.103 3.49988 12 2.60288 12 1.49988H16.818ZM16.818 0.999878H11.408C11.464 1.15688 11.5 1.32338 11.5 1.49988C11.5 2.32838 10.8285 2.99988 10 2.99988C9.1715 2.99988 8.5 2.32838 8.5 1.49988C8.5 1.32338 8.536 1.15688 8.592 0.999878H3.182C2.8055 0.999878 2.5 1.30988 2.5 1.69238V18.3079C2.5 18.6899 2.8055 18.9999 3.182 18.9999H16.8185C17.1945 18.9999 17.5 18.6899 17.5 18.3074V1.69238C17.5 1.30988 17.1945 0.999878 16.818 0.999878Z" fill="#806D16"/>
<path d="M3.99951 2.5H15.9995V17.5H3.99951V2.5Z" fill="#FFFBEA"/>
<path d="M10.0005 0.5C10.552 0.5 11.0005 0.9485 11.0005 1.5C11.0005 2.0515 10.552 2.5 10.0005 2.5C9.44899 2.5 9.00049 2.0515 9.00049 1.5C9.00049 0.9485 9.44899 0.5 10.0005 0.5ZM10.0005 0C9.17199 0 8.50049 0.6715 8.50049 1.5C8.50049 2.3285 9.17199 3 10.0005 3C10.829 3 11.5005 2.3285 11.5005 1.5C11.5005 0.6715 10.829 0 10.0005 0Z" fill="#806D16"/>
<path d="M7.5 3.75012C7.0865 3.75012 6.75 3.41362 6.75 3.00012V1.25012H8.768L8.787 1.19712C8.7625 1.29412 8.75 1.39562 8.75 1.50012C8.75 2.18962 9.3105 2.75012 10 2.75012C10.6895 2.75012 11.25 2.18962 11.25 1.50012C11.25 1.39562 11.2375 1.29412 11.213 1.19712L11.232 1.25012H13.25V3.00012C13.25 3.41362 12.9135 3.75012 12.5 3.75012H7.5ZM9.998 0.250122C9.999 0.250122 10.001 0.250122 10.002 0.250122C10.001 0.250122 9.999 0.250122 9.998 0.250122Z" fill="#FFDA2D"/>
<path d="M12.9995 1.5V3C12.9995 3.2755 12.775 3.5 12.4995 3.5H7.49951C7.22401 3.5 6.99951 3.2755 6.99951 3V1.5H8.49951C8.49951 2.327 9.17251 3 9.99951 3C10.8265 3 11.4995 2.327 11.4995 1.5H12.9995ZM9.99951 0C9.34751 0 8.79801 0.4185 8.59151 1H6.49951V3C6.49951 3.5525 6.94701 4 7.49951 4H12.4995C13.052 4 13.4995 3.5525 13.4995 3V1H11.4075C11.201 0.4185 10.6515 0 9.99951 0ZM9.99951 2.5C9.44801 2.5 8.99951 2.0515 8.99951 1.5C8.99951 0.9485 9.44801 0.5 9.99951 0.5C10.551 0.5 10.9995 0.9485 10.9995 1.5C10.9995 2.0515 10.551 2.5 9.99951 2.5Z" fill="#806D16"/>
<path d="M11.25 8.24988L12.1875 9.18738L14.25 7.24988M11.75 11.7499L13.75 13.7499L11.75 11.7499ZM13.75 11.7499L11.75 13.7499L13.75 11.7499Z" stroke="#806D16" stroke-width="0.5" stroke-miterlimit="10" stroke-linecap="round"/>
<path d="M9.75049 8.5H6.25049C6.11299 8.5 6.00049 8.3875 6.00049 8.25C6.00049 8.1125 6.11299 8 6.25049 8H9.75049C9.88799 8 10.0005 8.1125 10.0005 8.25C10.0005 8.3875 9.88799 8.5 9.75049 8.5Z" fill="#FFDA2D"/>
<path d="M9.75049 8H6.25049C6.11299 8 6.00049 8.1125 6.00049 8.25C6.00049 8.3875 6.11299 8.5 6.25049 8.5H9.75049C9.88799 8.5 10.0005 8.3875 10.0005 8.25C10.0005 8.1125 9.88799 8 9.75049 8Z" fill="#806D16"/>
<path d="M9.75049 13H6.25049C6.11299 13 6.00049 12.8875 6.00049 12.75C6.00049 12.6125 6.11299 12.5 6.25049 12.5H9.75049C9.88799 12.5 10.0005 12.6125 10.0005 12.75C10.0005 12.8875 9.88799 13 9.75049 13Z" fill="#FFDA2D"/>
<path d="M9.75049 12.5H6.25049C6.11299 12.5 6.00049 12.6125 6.00049 12.75C6.00049 12.8875 6.11299 13 6.25049 13H9.75049C9.88799 13 10.0005 12.8875 10.0005 12.75C10.0005 12.6125 9.88799 12.5 9.75049 12.5Z" fill="#806D16"/>
</svg>
