<svg width="20" height="20" viewBox="0 0 20 20" fill="none" xmlns="http://www.w3.org/2000/svg">
<g clip-path="url(#clip0_522_4292)">
<path d="M6.8915 3.32398L12.5 3.32098L14.0545 7.64748L16.25 9.49998V18.321H4.75C3.56 18.321 2.75 17.261 2.75 16.071C2.75 14.881 3.465 13.896 4.655 13.896C5.7485 13.896 6.671 14.7105 6.81 15.7665V3.44598" fill="white"/>
<path d="M6.74947 15.571C6.70897 14.3715 5.95697 13.821 4.74947 13.821C3.51347 13.821 2.66797 14.8145 2.66797 16.051V3.4865C2.66797 2.2505 3.66797 1.25 4.90447 1.25C6.14047 1.25 6.74947 2.3345 6.74947 3.571C6.74947 4.1525 6.74947 15.571 6.74947 15.571Z" fill="#93D3A2"/>
<path d="M16.25 9.24998V18.321H5C3.81 18.321 2.75 17.241 2.75 16.051C2.75 14.861 3.56 13.821 4.75 13.821C5.8435 13.821 6.75 14.821 6.75 15.821V3.32098" stroke="#28A745" stroke-width="0.5" stroke-miterlimit="10"/>
<path d="M6.75 3.32098H12.25" stroke="#28A745" stroke-width="0.5" stroke-miterlimit="10"/>
<path d="M6.75 3.32098C6.75 2.13098 5.94 1.32098 4.75 1.32098C3.56 1.32098 2.75 2.25548 2.75 3.44598V16.071" stroke="#28A745" stroke-width="0.5" stroke-miterlimit="10"/>
<path d="M15.7273 3.25C14.7623 3.25 13.9773 4.035 13.9773 5C13.9773 5.965 14.7623 6.75 15.7273 6.75C16.6923 6.75 17.4773 5.965 17.4773 5C17.4773 4.035 16.6923 3.25 15.7273 3.25ZM15.1893 9.25L15.0093 8.1705L14.8558 8.128C14.3278 7.9815 13.8428 7.702 13.4523 7.3195L13.3388 7.208L12.3158 7.5915L11.7773 6.6595L12.6223 5.9635L12.5828 5.8095C12.5128 5.536 12.4773 5.2635 12.4773 5C12.4773 4.7365 12.5128 4.464 12.5833 4.191L12.6228 4.037L11.7778 3.341L12.3163 2.409L13.3393 2.7925L13.4523 2.6805C13.8423 2.2985 14.3273 2.019 14.8558 1.872L15.0093 1.8295L15.1893 0.75H16.2653L16.4453 1.8295L16.5988 1.872C17.1273 2.019 17.6123 2.2985 18.0023 2.6805L18.1158 2.792L19.1388 2.4085L19.6773 3.3405L18.8323 4.0365L18.8718 4.1905C18.9418 4.464 18.9773 4.7365 18.9773 5C18.9773 5.2635 18.9418 5.536 18.8713 5.809L18.8318 5.963L19.6768 6.659L19.1383 7.591L18.1153 7.2075L18.0018 7.319C17.6118 7.7015 17.1263 7.981 16.5983 8.1275L16.4448 8.17L16.2648 9.2495L15.1893 9.25Z" fill="#93D3A2"/>
<path d="M15.7276 7C16.8306 7 17.7276 6.103 17.7276 5C17.7276 3.897 16.8306 3 15.7276 3C14.6246 3 13.7276 3.897 13.7276 5C13.7276 6.103 14.6246 7 15.7276 7ZM15.7276 6.5C14.8991 6.5 14.2276 5.8285 14.2276 5C14.2276 4.1715 14.8991 3.5 15.7276 3.5C16.5561 3.5 17.2276 4.1715 17.2276 5C17.2276 5.8285 16.5561 6.5 15.7276 6.5ZM16.0541 1L16.1731 1.713L16.2256 2.027L16.5326 2.1125C17.0201 2.248 17.4681 2.506 17.8276 2.859L18.0551 3.082L18.3531 2.9705L19.0291 2.7175L19.3556 3.283L18.7966 3.743L18.5506 3.945L18.6296 4.253C18.6946 4.5065 18.7276 4.758 18.7276 5C18.7276 5.242 18.6946 5.4935 18.6296 5.747L18.5506 6.055L18.7961 6.257L19.3551 6.717L19.0286 7.2825L18.3526 7.0295L18.0546 6.918L17.8271 7.141C17.4676 7.4935 17.0196 7.752 16.5321 7.8875L16.2251 7.973L16.1726 8.287L16.0541 9H15.4011L15.2821 8.287L15.2296 7.973L14.9226 7.8875C14.4351 7.752 13.9871 7.494 13.6276 7.141L13.4001 6.918L13.1026 7.0295L12.4266 7.2825L12.1001 6.717L12.6591 6.257L12.9046 6.055L12.8256 5.747C12.7606 5.4935 12.7276 5.242 12.7276 5C12.7276 4.758 12.7606 4.5065 12.8256 4.253L12.9046 3.945L12.6591 3.743L12.1001 3.283L12.4266 2.7175L13.1026 2.9705L13.4006 3.082L13.6281 2.859C13.9876 2.5065 14.4356 2.248 14.9231 2.1125L15.2301 2.027L15.2826 1.713L15.4011 1H16.0541ZM16.4776 0.5H14.9776L14.7891 1.631C14.2116 1.7915 13.6941 2.094 13.2781 2.502L12.2056 2.1005L11.4556 3.3995L12.3416 4.129C12.2696 4.408 12.2276 4.6985 12.2276 5C12.2276 5.3015 12.2696 5.592 12.3411 5.871L11.4551 6.6L12.2051 7.899L13.2776 7.497C13.6936 7.905 14.2111 8.2075 14.7886 8.368L14.9776 9.5H16.4776L16.6661 8.369C17.2436 8.2085 17.7611 7.906 18.1771 7.498L19.2496 7.9L19.9996 6.601L19.1136 5.872C19.1856 5.592 19.2276 5.3015 19.2276 5C19.2276 4.6985 19.1856 4.408 19.1141 4.129L20.0001 3.3995L19.2501 2.1005L18.1776 2.5025C17.7616 2.0945 17.2441 1.792 16.6666 1.6315L16.4776 0.5Z" fill="#28A745"/>
</g>
<defs>
<clipPath id="clip0_522_4292">
<rect width="20" height="20" fill="white"/>
</clipPath>
</defs>
</svg>
