<svg width="20" height="20" viewBox="0 0 20 20" fill="none" xmlns="http://www.w3.org/2000/svg">
<path d="M1.77344 18.7245C1.88594 17.5015 2.24294 14.9925 2.92144 14.295C3.34044 13.864 3.89694 13.6265 4.48794 13.6265C5.07944 13.6265 5.63594 13.864 6.05494 14.295C6.92444 15.1895 6.92444 16.6445 6.05494 17.539C5.37994 18.234 2.96094 18.6055 1.77344 18.7245Z" fill="#7027E5"/>
<path d="M4.4885 13.8765C5.012 13.8765 5.5045 14.087 5.876 14.469C6.652 15.2675 6.652 16.5665 5.876 17.3645C5.3495 17.906 3.4495 18.283 2.052 18.4435C2.204 16.9965 2.569 15.0165 3.1015 14.469C3.4725 14.087 3.965 13.8765 4.4885 13.8765ZM4.4885 13.3765C3.8565 13.3765 3.2245 13.6245 2.7425 14.1205C1.778 15.113 1.5 19 1.5 19C1.5 19 5.27 18.7055 6.2345 17.7135C7.199 16.7215 7.199 15.113 6.2345 14.121C5.752 13.6245 5.1205 13.3765 4.4885 13.3765Z" fill="#381472"/>
<path d="M4.94327 16.6509C4.62177 16.9814 3.38727 17.0624 3.38727 17.0624C3.38727 17.0624 3.45777 15.7839 3.77927 15.4534C4.10077 15.1229 4.62177 15.1229 4.94327 15.4534C5.26477 15.7839 5.26427 16.3204 4.94327 16.6509Z" fill="#F1E9FB"/>
<path d="M6.68916 17.847C6.53716 17.847 6.39466 17.7855 6.28666 17.674L2.79416 14.081C2.56666 13.847 2.56666 13.4665 2.79416 13.2325L4.94316 11.022L9.25066 15.453L7.09216 17.6735C6.98366 17.7855 6.84066 17.847 6.68916 17.847Z" fill="#B893F2"/>
<path d="M4.94358 11.3808L8.90208 15.4538L6.91258 17.5003C6.85208 17.5623 6.77258 17.5968 6.68908 17.5968C6.60558 17.5968 6.52608 17.5623 6.46558 17.5003L2.97358 13.9078C2.84158 13.7723 2.84158 13.5428 2.97358 13.4073L4.94358 11.3808ZM4.94358 10.6633L2.61558 13.0583C2.29408 13.3888 2.29408 13.9253 2.61558 14.2558L6.10758 17.8483C6.26808 18.0138 6.47908 18.0963 6.68958 18.0963C6.90008 18.0963 7.11108 18.0138 7.27158 17.8483L9.59958 15.4533L4.94358 10.6633Z" fill="#381472"/>
<path d="M9.22468 17.1043L3.34818 11.0583L1.28418 9.99634L3.33618 7.88534C3.59968 7.61434 3.94918 7.46484 4.32018 7.46484C4.41168 7.46484 4.50318 7.47484 4.59268 7.49284L6.56318 7.89884L12.2782 13.7778L12.6732 15.8098C12.7657 16.2858 12.6222 16.7753 12.2892 17.1173L10.2507 19.2148L9.22468 17.1043Z" fill="#B893F2"/>
<path d="M4.3206 7.71545C4.3946 7.71545 4.4696 7.72295 4.5426 7.73795L6.4381 8.12795L12.0471 13.899L12.4281 15.858C12.5051 16.254 12.3861 16.66 12.1101 16.944L10.3196 18.786L9.4671 17.032L9.4321 16.9595L9.3761 16.902L3.5556 10.9135L3.4986 10.855L3.4256 10.8175L1.6981 9.92895L3.5151 8.05995C3.7311 7.83795 4.0171 7.71545 4.3206 7.71545ZM4.3206 7.21545C3.8886 7.21545 3.4686 7.39095 3.1566 7.71145L0.869598 10.0645L3.1976 11.262L9.0171 17.25L10.1811 19.645L12.4681 17.292C12.8571 16.8915 13.0261 16.3175 12.9181 15.7625L12.5086 13.6575L6.6886 7.66945L4.6426 7.24845C4.5361 7.22645 4.4276 7.21545 4.3206 7.21545Z" fill="#381472"/>
<path d="M2.96393 11.861L12.1064 2.4545C12.8614 1.6775 14.6169 1.25 17.0489 1.25C17.7779 1.25 18.3804 1.2895 18.6804 1.3135C18.7599 2.3035 19.0129 6.607 17.5679 8.094L8.43543 17.4895L2.96393 11.861Z" fill="#F1E9FB"/>
<path d="M17.0503 1.5C17.6273 1.5 18.1238 1.525 18.4503 1.547C18.5738 3.2275 18.5673 6.707 17.3888 7.9195L8.43578 17.1315L3.31278 11.861L12.2863 2.629C12.9938 1.901 14.6858 1.5 17.0503 1.5ZM17.0503 1C15.3578 1 12.9703 1.2075 11.9273 2.2805C10.2263 4.031 2.61578 11.861 2.61578 11.861L8.43578 17.849C8.43578 17.849 16.0168 10.049 17.7478 8.2685C19.4788 6.488 18.9118 1.083 18.9118 1.083C18.9118 1.083 18.1198 1 17.0503 1Z" fill="#381472"/>
<path d="M10.2501 8.25C9.85224 8.25 9.47071 8.40804 9.1894 8.68934C8.9081 8.97064 8.75006 9.35218 8.75006 9.75C8.75006 10.1478 8.9081 10.5294 9.1894 10.8107C9.47071 11.092 9.85224 11.25 10.2501 11.25C10.6479 11.25 11.0294 11.092 11.3107 10.8107C11.592 10.5294 11.7501 10.1478 11.7501 9.75C11.7501 9.35218 11.592 8.97064 11.3107 8.68934C11.0294 8.40804 10.6479 8.25 10.2501 8.25Z" fill="#B893F2"/>
<path d="M10.2501 8.5C10.9396 8.5 11.5001 9.0605 11.5001 9.75C11.5001 10.4395 10.9396 11 10.2501 11C9.56056 11 9.00006 10.4395 9.00006 9.75C9.00006 9.0605 9.56056 8.5 10.2501 8.5ZM10.2501 8C9.28356 8 8.50006 8.7835 8.50006 9.75C8.50006 10.7165 9.28356 11.5 10.2501 11.5C11.2166 11.5 12.0001 10.7165 12.0001 9.75C12.0001 8.7835 11.2166 8 10.2501 8Z" fill="#381472"/>
<path d="M14.25 4.25C13.8522 4.25 13.4706 4.40804 13.1893 4.68934C12.908 4.97064 12.75 5.35218 12.75 5.75C12.75 6.14782 12.908 6.52936 13.1893 6.81066C13.4706 7.09196 13.8522 7.25 14.25 7.25C14.6478 7.25 15.0294 7.09196 15.3107 6.81066C15.592 6.52936 15.75 6.14782 15.75 5.75C15.75 5.35218 15.592 4.97064 15.3107 4.68934C15.0294 4.40804 14.6478 4.25 14.25 4.25Z" fill="#B893F2"/>
<path d="M14.25 4.5C14.9395 4.5 15.5 5.0605 15.5 5.75C15.5 6.4395 14.9395 7 14.25 7C13.5605 7 13 6.4395 13 5.75C13 5.0605 13.5605 4.5 14.25 4.5ZM14.25 4C13.2835 4 12.5 4.7835 12.5 5.75C12.5 6.7165 13.2835 7.5 14.25 7.5C15.2165 7.5 16 6.7165 16 5.75C16 4.7835 15.2165 4 14.25 4Z" fill="#381472"/>
</svg>
