<svg width="20" height="20" viewBox="0 0 20 20" fill="none" xmlns="http://www.w3.org/2000/svg">
<path d="M10 18.75C5.1755 18.75 1.25 14.8245 1.25 10C1.25 5.1755 5.1755 1.25 10 1.25C14.8245 1.25 18.75 5.1755 18.75 10C18.75 14.8245 14.8245 18.75 10 18.75Z" fill="#E7F1FF"/>
<path d="M10.0001 1.50073C14.6871 1.50073 18.5001 5.31373 18.5001 10.0007C18.5001 14.6877 14.6871 18.5007 10.0001 18.5007C5.31306 18.5007 1.50006 14.6877 1.50006 10.0007C1.50006 5.31373 5.31306 1.50073 10.0001 1.50073ZM10.0001 1.00073C5.02956 1.00073 1.00006 5.03023 1.00006 10.0007C1.00006 14.9712 5.02956 19.0007 10.0001 19.0007C14.9706 19.0007 19.0001 14.9712 19.0001 10.0007C19.0001 5.03023 14.9706 1.00073 10.0001 1.00073Z" fill="#07377F"/>
<path d="M7.5 6.00073V14.0007L14.5 10.0007L7.5 6.00073Z" fill="#0D6EFD"/>
</svg>
