<svg width="20" height="20" viewBox="0 0 20 20" fill="none" xmlns="http://www.w3.org/2000/svg">
<path d="M13.7503 3.33334C13.7503 2.41292 13.0041 1.66667 12.0837 1.66667C11.1632 1.66667 10.417 2.41292 10.417 3.33334C10.417 3.85584 10.417 7.39209 10.417 7.91667C10.417 8.83709 11.1632 9.58334 12.0837 9.58334C13.0041 9.58334 13.7503 8.83709 13.7503 7.91667C13.7503 7.39209 13.7503 3.85584 13.7503 3.33334Z" fill="#33D375"/>
<path d="M17.9163 7.91667C17.9163 8.83708 17.1701 9.58333 16.2497 9.58333C15.7518 9.58333 14.583 9.58333 14.583 9.58333C14.583 9.58333 14.583 8.33917 14.583 7.91667C14.583 6.99625 15.3293 6.25 16.2497 6.25C17.1701 6.25 17.9163 6.99625 17.9163 7.91667Z" fill="#33D375"/>
<path d="M3.33366 5.83333C2.41324 5.83333 1.66699 6.57958 1.66699 7.49999C1.66699 8.42041 2.41324 9.16666 3.33366 9.16666C3.85616 9.16666 7.39241 9.16666 7.91699 9.16666C8.83741 9.16666 9.58366 8.42041 9.58366 7.49999C9.58366 6.57958 8.83741 5.83333 7.91699 5.83333C7.39241 5.83333 3.85616 5.83333 3.33366 5.83333Z" fill="#40C4FF"/>
<path d="M7.91667 1.66667C8.83708 1.66667 9.58333 2.41292 9.58333 3.33334C9.58333 3.83126 9.58333 5.00001 9.58333 5.00001C9.58333 5.00001 8.33917 5.00001 7.91667 5.00001C6.99625 5.00001 6.25 4.25376 6.25 3.33334C6.25 2.41292 6.99625 1.66667 7.91667 1.66667Z" fill="#40C4FF"/>
<path d="M5.83301 16.2525C5.83301 17.1717 6.57926 17.9167 7.49967 17.9167C8.42009 17.9167 9.16634 17.1717 9.16634 16.2525C9.16634 15.7308 9.16634 12.1996 9.16634 11.6758C9.16634 10.7567 8.42009 10.0117 7.49967 10.0117C6.57926 10.0117 5.83301 10.7567 5.83301 11.6758C5.83301 12.1996 5.83301 15.7308 5.83301 16.2525Z" fill="#E91E63"/>
<path d="M1.66699 11.6758C1.66699 10.7567 2.41324 10.0117 3.33366 10.0117C3.83158 10.0117 5.00033 10.0117 5.00033 10.0117C5.00033 10.0117 5.00033 11.2538 5.00033 11.6758C5.00033 12.595 4.25408 13.34 3.33366 13.34C2.41324 13.34 1.66699 12.595 1.66699 11.6758Z" fill="#E91E63"/>
<path d="M16.25 13.75C17.1704 13.75 17.9167 13.0038 17.9167 12.0833C17.9167 11.1629 17.1704 10.4167 16.25 10.4167C15.7275 10.4167 12.1912 10.4167 11.6667 10.4167C10.7462 10.4167 10 11.1629 10 12.0833C10 13.0038 10.7462 13.75 11.6667 13.75C12.1908 13.75 15.7275 13.75 16.25 13.75Z" fill="#FFC107"/>
<path d="M11.6667 17.9167C10.7462 17.9167 10 17.1704 10 16.25C10 15.7521 10 14.5833 10 14.5833C10 14.5833 11.2442 14.5833 11.6667 14.5833C12.5871 14.5833 13.3333 15.3296 13.3333 16.25C13.3333 17.1704 12.5871 17.9167 11.6667 17.9167Z" fill="#FFC107"/>
</svg>
