<svg width="20" height="20" viewBox="0 0 20 20" fill="none" xmlns="http://www.w3.org/2000/svg">
<path d="M9.75 18.75C9.1705 18.75 8.6535 18.4215 8.4005 17.892L8.3325 17.75H1C0.5865 17.75 0.25 17.4135 0.25 17V14.25H19.25V17C19.25 17.4135 18.9135 17.75 18.5 17.75H11.1675L11.0995 17.892C10.8465 18.4215 10.3295 18.75 9.75 18.75Z" fill="#93D3A2"/>
<path d="M19 14.5V17C19 17.2755 18.7755 17.5 18.5 17.5H11.325H11.01L10.874 17.7845C10.663 18.226 10.2325 18.5 9.75 18.5C9.2675 18.5 8.837 18.226 8.626 17.7845L8.49 17.5H8.175H1C0.7245 17.5 0.5 17.2755 0.5 17V14.5H19ZM19.5 14H0V17C0 17.5525 0.4475 18 1 18H8.175C8.4565 18.5895 9.053 19 9.75 19C10.447 19 11.0435 18.5895 11.325 18H18.5C19.0525 18 19.5 17.5525 19.5 17V14Z" fill="#28A745"/>
<path d="M9.75 17.25V3.5C9.75 2.535 10.535 1.75 11.5 1.75H19.25V16.25H11C10.3965 16.25 9.891 16.68 9.775 17.25H9.75Z" fill="white"/>
<path d="M19 2V16H11C10.616 16 10.2655 16.145 10 16.383V3.5C10 2.673 10.673 2 11.5 2H19ZM19.5 1.5H11.5C10.3955 1.5 9.5 2.3955 9.5 3.5V17.5H10C10 16.9475 10.4475 16.5 11 16.5H19.5V1.5Z" fill="#28A745"/>
<path d="M9.725 17.25C9.609 16.68 9.1035 16.25 8.5 16.25H0.25V1.75H8C8.965 1.75 9.75 2.535 9.75 3.5V17.25H9.725Z" fill="white"/>
<path d="M8 2C8.827 2 9.5 2.673 9.5 3.5V16.383C9.2345 16.145 8.884 16 8.5 16H0.5V2H8ZM8 1.5H0V16.5H8.5C9.0525 16.5 9.5 16.9475 9.5 17.5H10V3.5C10 2.3955 9.1045 1.5 8 1.5Z" fill="#28A745"/>
<path d="M0.5 16.5H8.5V17H0.5V16.5Z" fill="#93D3A2"/>
<path d="M14.75 5C14.5511 5 14.3603 5.07902 14.2197 5.21967C14.079 5.36032 14 5.55109 14 5.75C14 5.94891 14.079 6.13968 14.2197 6.28033C14.3603 6.42098 14.5511 6.5 14.75 6.5C14.9489 6.5 15.1397 6.42098 15.2803 6.28033C15.421 6.13968 15.5 5.94891 15.5 5.75C15.5 5.55109 15.421 5.36032 15.2803 5.21967C15.1397 5.07902 14.9489 5 14.75 5Z" fill="#28A745"/>
<path d="M15.5 12V7.5H13.5V8H14V12H13.5V12.5H16V12H15.5Z" fill="#28A745"/>
</svg>
