<svg width="20" height="20" viewBox="0 0 20 20" fill="none" xmlns="http://www.w3.org/2000/svg">
<path d="M0.75 13.25H6.75V19.25H0.75V13.25Z" fill="#0D6EFD"/>
<path d="M6.5 13.5V19H1V13.5H6.5ZM7 13H0.5V19.5H7V13Z" fill="#07377F"/>
<path d="M12.9053 3.75006L16.2498 0.405388L19.5945 3.74994L16.2499 7.09462L12.9053 3.75006Z" fill="#F3F8FF"/>
<path d="M16.2503 0.759014L19.2413 3.75001L16.2503 6.74101L13.2593 3.75001L16.2503 0.759014ZM16.2503 0.0515137L12.5518 3.75001L16.2503 7.44851L19.9488 3.75001L16.2503 0.0515137Z" fill="#07377F"/>
<path d="M3.75 0.75C2.95435 0.75 2.19129 1.06607 1.62868 1.62868C1.06607 2.19129 0.75 2.95435 0.75 3.75C0.75 4.54565 1.06607 5.30871 1.62868 5.87132C2.19129 6.43393 2.95435 6.75 3.75 6.75C4.54565 6.75 5.30871 6.43393 5.87132 5.87132C6.43393 5.30871 6.75 4.54565 6.75 3.75C6.75 2.95435 6.43393 2.19129 5.87132 1.62868C5.30871 1.06607 4.54565 0.75 3.75 0.75Z" fill="#E7F1FF"/>
<path d="M3.75 1C5.2665 1 6.5 2.2335 6.5 3.75C6.5 5.2665 5.2665 6.5 3.75 6.5C2.2335 6.5 1 5.2665 1 3.75C1 2.2335 2.2335 1 3.75 1ZM3.75 0.5C1.955 0.5 0.5 1.955 0.5 3.75C0.5 5.545 1.955 7 3.75 7C5.545 7 7 5.545 7 3.75C7 1.955 5.545 0.5 3.75 0.5Z" fill="#07377F"/>
<path d="M16.25 13.25C15.4544 13.25 14.6913 13.5661 14.1287 14.1287C13.5661 14.6913 13.25 15.4544 13.25 16.25C13.25 17.0456 13.5661 17.8087 14.1287 18.3713C14.6913 18.9339 15.4544 19.25 16.25 19.25C17.0456 19.25 17.8087 18.9339 18.3713 18.3713C18.9339 17.8087 19.25 17.0456 19.25 16.25C19.25 15.4544 18.9339 14.6913 18.3713 14.1287C17.8087 13.5661 17.0456 13.25 16.25 13.25Z" fill="#85B7FE"/>
<path d="M16.25 13.5C17.7665 13.5 19 14.7335 19 16.25C19 17.7665 17.7665 19 16.25 19C14.7335 19 13.5 17.7665 13.5 16.25C13.5 14.7335 14.7335 13.5 16.25 13.5ZM16.25 13C14.455 13 13 14.455 13 16.25C13 18.045 14.455 19.5 16.25 19.5C18.045 19.5 19.5 18.045 19.5 16.25C19.5 14.455 18.045 13 16.25 13ZM3.75 8.5C3.612 8.5 3.5 8.612 3.5 8.75V11.75C3.5 11.888 3.612 12 3.75 12C3.888 12 4 11.888 4 11.75V8.75C4 8.612 3.888 8.5 3.75 8.5Z" fill="#07377F"/>
<path d="M3.75 7.8L2.75 9H4.75L3.75 7.8ZM11 3.75C11 3.612 10.888 3.5 10.75 3.5H8.25C8.112 3.5 8 3.612 8 3.75C8 3.888 8.112 4 8.25 4H10.75C10.888 4 11 3.888 11 3.75Z" fill="#07377F"/>
<path d="M11.7 3.75L10.5 2.75V4.75L11.7 3.75ZM16.25 11.5C16.388 11.5 16.5 11.388 16.5 11.25V8.25C16.5 8.112 16.388 8 16.25 8C16.112 8 16 8.112 16 8.25V11.25C16 11.388 16.112 11.5 16.25 11.5Z" fill="#07377F"/>
<path d="M16.25 12.2L17.25 11H15.25L16.25 12.2Z" fill="#07377F"/>
</svg>
