<svg width="20" height="20" viewBox="0 0 20 20" fill="none" xmlns="http://www.w3.org/2000/svg">
<path d="M10.0002 19.25C4.89968 19.25 0.750183 15.1005 0.750183 10C0.750183 4.8995 4.89968 0.75 10.0002 0.75C15.1007 0.75 19.2502 4.8995 19.2502 10C19.2502 15.1005 15.1007 19.25 10.0002 19.25Z" fill="#F1E9FB"/>
<path d="M9.99982 1C14.9623 1 18.9998 5.0375 18.9998 10C18.9998 14.9625 14.9623 19 9.99982 19C5.03732 19 0.999817 14.9625 0.999817 10C0.999817 5.0375 5.03732 1 9.99982 1ZM9.99982 0.5C4.75332 0.5 0.499817 4.7535 0.499817 10C0.499817 15.2465 4.75332 19.5 9.99982 19.5C15.2463 19.5 19.4998 15.2465 19.4998 10C19.4998 4.7535 15.2463 0.5 9.99982 0.5Z" fill="#381472"/>
<path d="M1.53041 6H18.4999L17.9884 5.5H2.04141L1.53041 6ZM18.4694 14H1.49991L2.01141 14.5H17.9584L18.4694 14Z" fill="#381472"/>
<path d="M4.29199 13.75C5.26649 16.9855 7.45599 19.25 9.99999 19.25C12.544 19.25 14.734 16.9855 15.7085 13.75M15.7085 6.25C14.734 3.0145 12.544 0.75 9.99999 0.75C7.45599 0.75 5.26599 3.0145 4.29199 6.25H15.7085Z" stroke="#381472" stroke-width="0.5" stroke-miterlimit="10" stroke-linecap="round"/>
<path d="M12.0473 6.25C11.6638 2.885 10.7978 0.75 9.99983 0.75C9.20183 0.75 8.33583 2.885 7.95233 6.25M7.95233 13.75C8.33583 17.115 9.20183 19.25 9.99983 19.25C10.7978 19.25 11.6638 17.115 12.0473 13.75H7.95233Z" stroke="#381472" stroke-width="0.5" stroke-miterlimit="10" stroke-linecap="round"/>
<path d="M6.14468 8H6.94118L6.01518 12H5.14018L4.55868 9.434C4.52768 9.3 4.50918 9.15 4.50268 8.9845H4.49268C4.47818 9.1665 4.45668 9.3165 4.42918 9.4335L3.83268 12H2.92168L2.00018 8H2.86268L3.35618 10.664C3.37768 10.7775 3.39268 10.93 3.40268 11.1215H3.41718C3.42368 10.9785 3.44718 10.822 3.48818 10.653L4.12368 8H4.96918L5.54368 10.686C5.56518 10.7845 5.58368 10.928 5.59968 11.1155H5.60968C5.61618 10.9685 5.63318 10.82 5.66118 10.669L6.14468 8Z" fill="#381472"/>
<path d="M11.1902 10.6695C11.1627 10.82 11.1457 10.969 11.1387 11.116H11.1287C11.1122 10.9285 11.0937 10.785 11.0727 10.6865L10.4987 8H9.65318L9.01768 10.6525C8.97668 10.822 8.95368 10.978 8.94668 11.121H8.93218C8.92218 10.9295 8.90718 10.777 8.88568 10.6635L8.39268 8H7.53018L8.45168 12H9.36318L9.95968 9.434C9.98718 9.317 10.0087 9.167 10.0232 8.985H10.0332C10.0397 9.1505 10.0582 9.3 10.0892 9.434L10.6697 12H11.5447L12.4707 8H11.6742L11.1902 10.6695Z" fill="#381472"/>
<path d="M17.2038 8L16.7198 10.6695C16.6923 10.82 16.6753 10.969 16.6683 11.116H16.6583C16.6418 10.9285 16.6233 10.785 16.6023 10.6865L16.0283 8H15.1828L14.5473 10.6525C14.5063 10.822 14.4833 10.978 14.4763 11.121H14.4618C14.4518 10.9295 14.4368 10.777 14.4153 10.6635L13.9218 8H13.0593L13.9808 12H14.8923L15.4888 9.434C15.5163 9.317 15.5378 9.167 15.5523 8.985H15.5623C15.5688 9.1505 15.5873 9.3 15.6183 9.434L16.1993 12H17.0743L18.0003 8H17.2038Z" fill="#381472"/>
</svg>
