<?xml version="1.0" standalone="no"?>
<!DOCTYPE svg PUBLIC "-//W3C//DTD SVG 1.1//EN" "http://www.w3.org/Graphics/SVG/1.1/DTD/svg11.dtd" >
<svg xmlns="http://www.w3.org/2000/svg">
<metadata>Generated by IcoMoon</metadata>
<defs>
<font id="builder" horiz-adv-x="1024">
<font-face units-per-em="1024" ascent="960" descent="-64" />
<missing-glyph horiz-adv-x="1024" />
<glyph unicode="&#x20;" horiz-adv-x="512" d="" />
<glyph unicode="&#xe900;" glyph-name="bot-tasks" d="M775.616 536.128c48.64 0 88.128-39.424 88.128-88.128v-310.016c0-48.768-39.424-88.192-88.128-88.192h-516.8c-48.64 0-88.128 39.424-88.128 88.192v310.016c0 48.64 39.424 88.128 88.128 88.128zM775.616 463.168h-516.8c-8.384 0-15.168-6.784-15.168-15.168v-310.016c0-8.448 6.784-15.232 15.168-15.232h516.8c8.384 0 15.168 6.784 15.168 15.232v310.016c0 8.384-6.784 15.168-15.168 15.168zM672.256 358.4c20.16 0 36.48-16.32 36.48-36.48 0-19.008-14.592-34.688-33.152-36.352l-3.328-0.128h-310.080c-20.16 0-36.48 16.32-36.48 36.48 0 19.008 14.592 34.624 33.152 36.288l3.392 0.192h310.080zM672.256 697.28c20.16 0 36.48-16.32 36.48-36.48 0-19.008-14.592-34.624-33.152-36.288l-3.328-0.192h-310.080c-20.16 0-36.48 16.384-36.48 36.48 0 19.072 14.592 34.688 33.152 36.352l3.328 0.128h310.080zM620.544 846.272c20.16 0 36.48-16.32 36.48-36.48 0-19.008-14.528-34.624-33.152-36.288l-3.328-0.192h-206.72c-20.096 0-36.48 16.32-36.48 36.48 0 19.072 14.592 34.688 33.216 36.352l3.264 0.128h206.72z" />
<glyph unicode="&#xe901;" glyph-name="bot-version" d="M874.866 894.356c50.097 0 91.018-39.303 93.601-88.757l0.134-4.978v-705.247c0-50.097-39.306-91.018-88.757-93.609l-4.978-0.126h-528.194c-50.099 0-91.018 39.306-93.605 88.757l-0.13 4.978-0.007 7.467-34.213-0.032c-49.249 0-89.483 38.596-92.111 87.189l-0.136 5.062-0.004 8.935-34.217-0.008c-49.249 0-89.483 38.593-92.111 87.187l-0.136 5.061v303.525c0 49.248 38.593 89.483 87.187 92.11l5.061 0.137 34.217 0.011 0.004 8.916c0 49.249 38.593 89.483 87.186 92.111l5.062 0.136 34.213 0.019 0.007 7.421c0 50.098 39.303 91.017 88.757 93.605l4.978 0.13h528.194zM874.866 811.036h-528.194c-5.033 0-9.233-3.571-10.203-8.316l-0.212-2.098v-705.247c0-5.033 3.57-9.232 8.316-10.201l2.099-0.213h528.194c5.033 0 9.232 3.568 10.201 8.31l0.213 2.103v705.247c0 5.033-3.568 9.232-8.318 10.203l-2.095 0.212zM252.93 709.879l-34.213-0.019c-4.314 0-7.914-3.059-8.746-7.128l-0.182-1.799v-505.873c0-4.314 3.060-7.913 7.129-8.746l1.799-0.182 34.213 0.027v523.72zM126.465 287.315v321.382l-34.217-0.011c-4.314 0-7.913-3.060-8.746-7.128l-0.181-1.799v-303.525c0-4.314 3.060-7.913 7.128-8.746l1.799-0.181 34.217 0.007z" />
<glyph unicode="&#xe902;" glyph-name="bot-versions" d="M800.512 810.688c40.96 0 74.176-33.28 74.176-74.24v-576.96c0-40.96-33.28-74.176-74.24-74.176h-288.448c-40.96 0-74.24 33.28-74.24 74.24v576.896c0 40.96 33.28 74.176 74.24 74.176zM800.512 744.768h-288.512c-4.544 0-8.256-3.712-8.256-8.32v-576.96c0-4.48 3.712-8.192 8.256-8.192h288.512c4.48 0 8.192 3.648 8.192 8.192v577.024c0 4.48-3.648 8.192-8.192 8.192zM408.576 728.256v-65.92h-40.96c-3.84 0-7.168-2.816-7.936-6.592l-0.192-1.664v-412.16c0-3.968 2.816-7.296 6.528-8.064l1.6-0.128h41.344v-65.92h-41.344c-39.616 0-71.872 31.104-73.92 70.208l-0.128 3.904v412.16c0 39.616 31.040 72 70.144 74.048l3.904 0.128h40.96zM264.704 625.216v-65.92h-45.568c-1.088 0-3.2-2.176-3.712-6.144l-0.128-2.112v-206.080c0-4.544 1.92-7.36 3.2-8.064l0.64-0.192h44.544v-65.92h-44.544c-38.080 0-67.776 31.744-69.76 70.208v210.048c0 38.848 28.352 71.872 65.92 74.048l3.84 0.128h45.568z" />
<glyph unicode="&#xe903;" glyph-name="botKit" d="M896 691.773v-487.556l-416-208-416 208v487.556l416 208 416-208zM128 635.55v-391.774l320-160v377.228l-320 174.546zM512 461.005v-377.229l320 160v391.775l-320-174.545zM778.214 679.114l-298.214 149.106-298.212-149.107 298.212-162.661 298.215 162.662z" />
<glyph unicode="&#xe904;" glyph-name="button" d="M782.528 371.84c42.752 0 77.44-34.624 77.44-77.44v-152.96c0-42.752-34.688-77.44-77.44-77.44h-555.776c-42.752 0-77.44 34.688-77.44 77.44v152.96c0 42.816 34.688 77.44 77.44 77.44zM782.528 303.040h-555.776c-4.736 0-8.576-3.84-8.576-8.576v-153.024c0-4.8 3.84-8.64 8.576-8.64h555.776c4.8 0 8.64 3.84 8.64 8.64v152.96c0 4.8-3.84 8.64-8.64 8.64zM782.528 832c42.752 0 77.44-34.688 77.44-77.44v-152.96c0-42.816-34.688-77.44-77.44-77.44h-555.776c-42.752 0-77.44 34.624-77.44 77.44v152.96c0 42.752 34.688 77.44 77.44 77.44zM782.528 763.2h-555.776c-4.736 0-8.576-3.84-8.576-8.64v-152.96c0-4.8 3.84-8.64 8.576-8.64h555.776c4.8 0 8.64 3.84 8.64 8.576v153.024c0 4.8-3.84 8.64-8.64 8.64z" />
<glyph unicode="&#xe905;" glyph-name="calendar-1" d="M676.48 832c17.28 0 31.36-13.184 32.896-30.080l0.128-2.944v-90.816h173.44c16.192 0 29.696-11.712 32.512-27.136l0.512-5.952v-578.048c0-16.192-11.712-29.696-27.136-32.512l-5.888-0.512h-743.232c-16.256 0-29.696 11.712-32.512 27.072l-0.512 5.952v578.048c0 16.256 11.648 29.696 27.072 32.512l5.952 0.576h173.376v90.816c0 18.24 14.848 33.024 33.088 33.024 17.216 0 31.36-13.184 32.896-30.080l0.128-2.944v-90.816h264.256v90.816c0 18.24 14.72 33.024 33.024 33.024zM313.088 642.112h-140.352v-512h677.12v512h-140.352v-49.6c0-18.24-14.784-33.024-33.024-33.024-17.28 0-31.36 13.184-32.896 30.080l-0.128 2.944v49.6h-264.32v-49.6c0-18.24-14.72-33.024-32.96-33.024-17.28 0-31.36 13.184-32.896 30.080l-0.192 2.944v49.6zM389.248 313.088c27.584 0 49.92-22.4 49.92-49.92s-22.336-49.92-49.92-49.92c-27.52 0-49.92 22.4-49.92 49.92s22.4 49.92 49.92 49.92zM638.848 313.088c27.52 0 49.92-22.4 49.92-49.92s-22.4-49.92-49.92-49.92c-27.52 0-49.92 22.4-49.92 49.92s22.4 49.92 49.92 49.92zM389.248 487.808c27.584 0 49.92-22.4 49.92-49.92 0-27.584-22.336-49.92-49.92-49.92-27.52 0-49.92 22.336-49.92 49.92 0 27.52 22.4 49.92 49.92 49.92zM638.848 487.808c27.52 0 49.92-22.4 49.92-49.92 0-27.584-22.4-49.92-49.92-49.92s-49.92 22.336-49.92 49.92c0 27.52 22.4 49.92 49.92 49.92z" />
<glyph unicode="&#xe906;" glyph-name="calendar" d="M750.848 846.208c17.92 0 32.576-13.696 34.112-31.104l0.192-3.136-0.064-46.592h66.88c17.024 0 31.168-12.48 33.792-28.736l0.448-5.568v-647.040c0-18.944-15.36-34.24-34.24-34.24h-647.040c-18.944 0-34.24 15.36-34.24 34.24v647.040c0 18.944 15.36 34.24 34.24 34.24l66.816 0.064v46.592c0 18.944 15.36 34.24 34.304 34.24 17.856 0 32.512-13.696 34.112-31.104l0.128-3.136v-46.592h376.32v46.592c0 18.944 15.36 34.24 34.24 34.24zM817.728 514.88h-578.56v-396.608h578.56v396.608zM817.728 696.832h-578.56v-113.472h578.56v113.472z" />
<glyph unicode="&#xe907;" glyph-name="carousal" d="M618.496 725.312c41.344 0 74.88-33.472 74.88-74.88v-417.152c0-41.344-33.536-74.88-74.88-74.88h-220.8c-41.344 0-74.88 33.536-74.88 74.88v417.216c0 41.344 33.536 74.88 74.88 74.88zM618.496 658.752h-220.8c-4.608 0-8.32-3.648-8.32-8.32v-417.152c0-4.608 3.712-8.32 8.32-8.32h220.8c4.608 0 8.32 3.712 8.32 8.32v417.216c0 4.608-3.712 8.32-8.32 8.32zM238.272 634.624c18.368 0 33.28-14.912 33.28-33.28s-14.912-33.28-33.28-33.28c-14.4 0-27.456-3.648-36.16-9.344-4.928-3.264-7.040-6.016-7.488-7.552l-0.064-0.64v-228.352c0-1.408 1.92-4.352 7.552-8.128 7.744-5.12 18.88-8.512 31.36-9.216l4.8-0.128c18.368 0 33.28-14.912 33.28-33.28s-14.912-33.28-33.28-33.28c-57.088 0-107.392 32.128-110.144 79.872l-0.128 4.16v228.416c0 50.048 51.584 84.032 110.272 84.032zM785.728 634.624c58.688 0 110.272-33.984 110.272-84.032v-228.416l-0.128-4.16c-2.752-47.744-53.12-79.872-110.080-79.872-18.432 0-33.28 14.912-33.28 33.28s14.848 33.28 33.28 33.28l4.672 0.128c12.544 0.64 23.68 4.096 31.36 9.216 5.76 3.776 7.68 6.72 7.68 8.128v228.416c-0.64 2.112-2.688 4.864-7.68 8.128-8.64 5.76-21.696 9.344-36.096 9.344-18.368 0-33.28 14.912-33.28 33.28s14.912 33.28 33.28 33.28z" />
<glyph unicode="&#xe908;" glyph-name="carrot-up" d="M549.311 227.892c-19.395-19.341-50.131-20.479-70.859-3.413l-3.764 3.413-459.234 437.476c-20.607 20.55-20.607 53.869 0 74.419 19.394 19.341 50.13 20.479 70.859 3.413l3.764-3.413 421.922-400.258 421.922 400.258c19.395 19.341 50.13 20.479 70.859 3.413l3.764-3.413c19.398-19.342 20.534-49.993 3.423-70.665l-3.423-3.754-459.233-437.476z" />
<glyph unicode="&#xe909;" glyph-name="carrot-down" d="M488.192 196.608c12.352-12.416 32-13.12 45.248-2.176l2.368 2.176 421.44 421.376c13.184 13.184 13.184 34.56 0 47.68-12.416 12.416-32 13.12-45.312 2.176l-2.368-2.176-397.568-397.504-397.568 397.504c-12.416 12.416-32 13.12-45.248 2.176l-2.432-2.176c-12.352-12.352-13.12-32-2.176-45.248l2.176-2.432 421.44-421.376z" />
<glyph unicode="&#xe90a;" glyph-name="carrot-right" d="M718.208 483.52c12.608-12.544 13.312-32.512 2.24-45.952l-2.24-2.496-363.968-363.968c-13.376-13.376-35.072-13.376-48.448 0-12.608 12.608-13.312 32.576-2.24 46.080l2.24 2.368 339.712 339.776-339.712 339.712c-12.608 12.608-13.312 32.576-2.24 46.080l2.24 2.368c12.608 12.608 32.576 13.376 46.016 2.24l2.432-2.24 363.968-363.968z" />
<glyph unicode="&#xe90b;" glyph-name="carrot-up1" d="M488.192 665.664c12.352 12.416 32 13.12 45.248 2.176l2.368-2.176 421.44-421.376c13.184-13.184 13.184-34.56 0-47.68-12.416-12.416-32-13.12-45.312-2.176l-2.368 2.176-397.568 397.568-397.568-397.568c-12.416-12.416-32-13.12-45.248-2.176l-2.432 2.176c-12.352 12.416-13.12 32-2.176 45.248l2.176 2.432 421.44 421.312z" />
<glyph unicode="&#xe90c;" glyph-name="change-logs" d="M512 960c282.77 0 512-229.23 512-512 0-279.94-224.666-507.414-503.533-511.934l-9.543-0.066c-15.683 0.037-31.282 0.775-46.765 2.209l-15.443 1.668c-20.788 2.567-35.561 21.497-32.997 42.284s21.496 35.562 42.284 32.995c13.132-1.616 26.378-2.648 39.714-3.072l14.284-0.234c240.881 0 436.151 195.269 436.151 436.151 0 238.231-191.005 431.851-428.227 436.078l-8.305 0.070c-29.307-0.025-58.22-2.935-86.457-8.637-20.531-4.146-40.537 9.137-44.682 29.669s9.137 40.537 29.669 44.682c28.538 5.763 57.646 9.095 87.097 9.929l14.754 0.209zM202.178 87.172c12.348 16.918 36.074 20.626 52.993 8.28 23.543-17.189 48.747-31.978 75.242-44.127 19.040-8.733 27.396-31.247 18.665-50.286s-31.244-27.392-50.284-18.666c-31.119 14.277-60.709 31.642-88.34 51.807-16.919 12.347-20.625 36.074-8.276 52.992zM66.788 280.364c18.945 8.933 41.546 0.816 50.479-18.13 12.429-26.361 27.484-51.407 44.913-74.769 12.525-16.786 9.070-40.55-7.719-53.072-16.788-12.529-40.552-9.070-53.077 7.717-20.454 27.414-38.129 56.817-52.726 87.776-8.933 18.946-0.816 41.546 18.129 50.479zM485.663 722.963c19.782 0 36.027-15.146 37.77-34.474l0.155-3.452 0.003-245.949 209.659-117.35c17.203-9.627 23.998-30.664 16.208-48.345l-1.631-3.272c-9.626-17.203-30.665-23.995-48.346-16.207l-3.272 1.633-229.069 128.194c-10.984 6.147-18.136 17.296-19.251 29.689l-0.153 3.407v268.201c0 20.946 16.98 37.926 37.926 37.926zM37.681 515.295l3.455-0.056c20.907-1.279 36.819-19.263 35.54-40.17-0.539-8.824-0.815-17.69-0.824-26.55-0.001-20.86 1.39-41.078 4.165-61.074 2.88-20.747-11.605-39.9-32.352-42.779s-39.9 11.605-42.779 32.352c-3.256 23.459-4.885 47.162-4.885 71.543 0.011 10.418 0.334 20.8 0.966 31.138 1.207 19.745 17.316 35.035 36.715 35.596zM80.437 723.604c11.289 17.644 34.743 22.795 52.386 11.505s22.795-34.743 11.505-52.386c-15.7-24.537-28.909-50.589-39.404-77.793-7.539-19.542-29.493-29.273-49.035-21.734s-29.273 29.493-21.733 49.035c12.33 31.962 27.845 62.563 46.28 91.372zM265.907 897.081c18.36 10.081 41.417 3.369 51.498-14.991s3.37-41.416-14.991-51.498c-25.549-14.028-49.638-30.596-71.901-49.426-15.993-13.526-39.923-11.527-53.449 4.465s-11.528 39.923 4.465 53.45c26.119 22.091 54.387 41.533 84.378 58z" />
<glyph unicode="&#xe90d;" glyph-name="channels" d="M824 846.208c47.616 0 86.208-38.592 86.208-86.272v-467.904c0-47.68-38.592-86.272-86.208-86.272h-189.76l-93.824-140.736c-12.928-19.456-40.832-20.288-55.104-2.56l-1.92 2.56-93.76 140.8-189.696-0.064c-46.208 0-83.84 36.288-86.144 81.92l-0.064 4.352v467.904c0 47.68 38.592 86.272 86.208 86.272zM824 777.728h-624c-9.792 0-17.728-7.936-17.728-17.792v-467.904c0-9.856 7.936-17.728 17.728-17.728h208c11.52 0 22.144-5.76 28.48-15.232l75.52-113.216 75.52 113.216c5.696 8.576 14.912 14.080 25.088 15.040l3.392 0.192h208c9.792 0 17.728 7.872 17.728 17.728v467.904c0 9.856-7.936 17.728-17.728 17.728zM362.112 597.632c23.68 0 42.88-19.136 42.88-42.816s-19.2-42.816-42.88-42.816c-23.68 0-42.816 19.2-42.816 42.88s19.2 42.752 42.88 42.752zM518.144 597.632c23.68 0 42.816-19.136 42.816-42.816s-19.2-42.816-42.88-42.816c-23.68 0-42.752 19.2-42.752 42.88s19.136 42.752 42.816 42.752zM674.112 597.632c23.68 0 42.816-19.136 42.816-42.816s-19.2-42.816-42.88-42.816c-23.68 0-42.752 19.2-42.752 42.88s19.136 42.752 42.816 42.752z" />
<glyph unicode="&#xe90e;" glyph-name="check-list" d="M160 768c-17.728 0-32-14.272-32-32v-128c0-17.728 14.272-32 32-32h128c17.728 0 32 14.272 32 32v128c0 17.728-14.272 32-32 32h-128zM448 704v-64h448v64h-448zM160 512c-17.728 0-32-14.272-32-32v-128c0-17.728 14.272-32 32-32h128c17.728 0 32 14.272 32 32v128c0 17.728-14.272 32-32 32h-128zM448 448v-64h448v64h-448zM160 256c-17.728 0-32-14.272-32-32v-128c0-17.728 14.272-32 32-32h128c17.728 0 32 14.272 32 32v128c0 17.728-14.272 32-32 32h-128zM192 192h64v-64h-64v64zM448 192v-64h448v64h-448z" />
<glyph unicode="&#xe90f;" glyph-name="check" d="M908.8 778.56c12.8 13.76 34.112 14.4 47.68 1.536 12.8-12.096 14.080-31.872 3.648-45.568l-2.112-2.56-570.88-614.528c-12.16-13.12-32.256-14.336-45.824-3.2l-2.432 2.24-272 270.528c-13.12 13.184-13.312 34.752-0.32 48.192 12.352 12.608 32 13.504 45.312 2.56l2.368-2.176 247.36-246.144 547.2 589.12z" />
<glyph unicode="&#xe910;" glyph-name="checkbox" d="M224 832c-52.736 0-96-43.264-96-96v-576c0-52.736 43.264-96 96-96h576c52.736 0 96 43.264 96 96v576c0 52.736-43.264 96-96 96h-576zM224 768h576c17.984 0 32-14.016 32-32v-576c0-17.984-14.016-32-32-32h-576c-17.984 0-32 14.016-32 32v576c0 17.984 14.016 32 32 32zM721.28 638.528l-273.28-273.28-145.472 145.28-45.056-45.056 190.528-190.72 318.72 318.72-45.44 45.056z" />
<glyph unicode="&#xe911;" glyph-name="clone" d="M306.944 813.76c12.16 24.32 46.912 24.32 59.136 0l175.488-351.040c4.608-9.344 4.608-20.288 0-29.568l-175.488-350.912c-12.16-24.32-46.912-24.32-59.136 0l-175.488 351.040c-4.608 9.28-4.608 20.224 0 29.568zM715.584 816.32l1.408-2.56 175.488-350.976c4.16-8.32 4.608-17.856 1.408-26.368l-1.408-3.2-175.488-350.976c-8.128-16.32-27.968-22.912-44.288-14.72-15.36 7.68-22.144 25.792-16 41.6l1.28 2.688 167.936 336.192-168 336.192c-8.128 16.32-1.536 36.16 14.784 44.288 15.36 7.68 33.92 2.24 42.88-12.16zM540.096 816.32l1.472-2.56 175.424-350.976c4.16-8.32 4.608-17.856 1.408-26.368l-1.408-3.2-175.424-350.976c-8.192-16.32-28.032-22.912-44.352-14.72-15.36 7.68-22.144 25.792-16 41.6l1.28 2.688 167.936 336.192-168 336.192c-8.128 16.32-1.536 36.16 14.784 44.288 15.36 7.68 33.92 2.24 42.88-12.16zM336.512 725.12l-138.56-277.12 138.56-276.992 138.496 276.992-138.496 277.12z" />
<glyph unicode="&#xe912;" glyph-name="close" d="M854.208 838.4c13.44 11.136 33.408 10.368 45.952-2.24 13.44-13.376 13.44-35.008 0-48.384l-339.712-339.776 339.712-339.776c13.44-13.376 13.44-35.008 0-48.384-12.544-12.608-32.512-13.376-45.952-2.24l-2.432 2.24-339.84 339.712-342.144-341.952c-13.44-11.136-33.408-10.368-45.952 2.24-13.44 13.376-13.44 35.008 0 48.384l339.712 339.84-339.712 339.712c-13.44 13.376-13.44 35.008 0 48.384 12.544 12.608 32.512 13.376 45.952 2.24l2.432-2.24 339.776-339.712 339.776 339.712z" />
<glyph unicode="&#xe913;" glyph-name="collapse" d="M564.032 199.168l46.4-46.4 285.568 285.632-285.568 285.568-46.4-46.336 206.4-206.464h-576.832v360.832h-65.6v-787.2h65.6v360.768h576.832z" />
<glyph unicode="&#xe914;" glyph-name="columns" d="M216.64 832c-48.704 0-88.64-39.936-88.64-88.64v-590.72c0-48.704 39.936-88.64 88.64-88.64h590.72c48.704 0 88.64 39.936 88.64 88.64v590.72c0 48.704-39.936 88.64-88.64 88.64h-590.72zM216.64 772.928h265.792v-649.856h-265.792c-16.64 0-29.568 12.928-29.568 29.568v590.72c0 16.64 12.928 29.568 29.568 29.568zM541.568 772.928h265.792c16.64 0 29.568-12.928 29.568-29.568v-590.72c0-16.64-12.928-29.568-29.568-29.568h-265.792v649.856z" />
<glyph unicode="&#xe915;" glyph-name="comments" d="M784.896 832h-545.92c-61.184 0-110.976-49.728-110.976-111.040v-623.872l0.128-2.88c2.24-27.52 36.16-40.576 56.256-20.48l146.304 146.304h454.208c61.312 0 111.040 49.728 111.040 111.040v389.888c0 61.312-49.728 111.040-111.040 111.040zM238.976 765.952h545.92c24.832 0 44.992-20.16 44.992-44.992v-389.888c0-24.832-20.16-44.992-44.992-44.992l-471.168-0.128c-7.552-0.768-14.72-4.096-20.096-9.536l-99.584-99.584v544.128c0 24.832 20.16 44.992 44.992 44.992z" />
<glyph unicode="&#xe916;" glyph-name="connections" d="M701.632 800.512c12.8-12.8 13.504-33.216 2.112-46.848l-2.112-2.368-148.672-148.672-3.84-3.2 124.288-124.16c0.32 0.512 0.64 0.96 1.088 1.408l2.112 2.304 148.672 148.672c13.568 13.568 35.584 13.568 49.152 0 12.8-12.8 13.568-33.152 2.176-46.784l-2.176-2.368-148.672-148.672-3.712-3.008 89.536-89.408c9.216-9.216 12.416-22.72 8.64-34.88l-2.496-5.952c-15.232-28.8-34.752-55.36-58.24-78.912-122.24-122.112-316.736-127.808-445.632-17.024l-105.152-105.152c-13.632-13.568-35.584-13.568-49.216 0-12.8 12.8-13.504 33.216-2.112 46.848l2.112 2.368 106.688 106.56c-97.92 128.64-88.128 312.96 29.312 430.4 23.36 23.36 49.792 42.816 78.464 57.984 13.44 7.168 30.080 4.672 40.832-6.080l85.632-85.632 1.28 1.536 2.112 2.368 148.672 148.672c13.568 13.568 35.584 13.568 49.152 0zM384.768 665.28l-2.88-1.92c-10.56-7.232-20.672-15.296-30.208-24.128l-7.040-6.784c-100.928-100.928-100.928-264.64 0-365.568 100.992-100.992 264.704-100.992 365.632 0 11.648 11.52 22.016 24.064 31.040 37.376l1.984 3.072-358.528 357.952z" />
<glyph unicode="&#xe917;" glyph-name="content-variable" d="M340.928 767.424c15.36 2.88 30.912-5.504 36.672-20.48l214.528-561.536 0.896-2.816c4.608-16.192-3.84-33.408-19.84-39.552-16.96-6.4-35.904 2.048-42.368 18.944l-191.040 500.032-86.592-226.688 146.816-0.128c16.704-1.536 29.824-15.552 29.824-32.64 0-18.176-14.72-32.832-32.832-32.832h-168.896l-79.36-207.744c-6.4-16.896-25.344-25.408-42.24-18.944-16 6.144-24.512 23.36-19.904 39.552l0.896 2.816 78.592 205.632c-1.344 3.584-2.112 7.424-2.112 11.52 0 12.544 7.040 23.424 17.472 28.928l120.576 315.392c5.888 15.424 22.144 23.872 37.76 20.352zM786.496 540.992c21.568 0.768 41.408-2.368 59.392-9.6 17.92-7.232 33.536-17.92 46.336-31.744 12.544-13.632 22.144-30.080 28.8-49.024 5.44-15.808 8.832-32.768 10.048-50.944l0.384-7.872 7.168-205.184c0.64-18.048-13.504-33.28-31.616-33.92-17.088-0.64-31.616 12.032-33.728 28.672l-0.192 3.008-0.512 14.976c-35.264-25.472-68.736-41.6-100.8-48-73.92-14.912-133.696 31.936-129.664 108.928 4.48 86.208 111.872 142.208 226.496 115.52l-2.304 0.512-0.384 13.184c-0.512 14.784-2.88 27.904-6.912 39.552-3.712 10.688-8.704 19.264-15.040 26.112-6.080 6.592-13.504 11.712-22.592 15.36s-19.84 5.312-32.64 4.864c-19.456-0.64-36.608-4.608-51.712-11.776-15.36-7.296-29.76-18.112-43.392-32.832-12.288-13.312-33.024-14.080-46.336-1.856-13.312 12.352-14.080 33.088-1.856 46.4 19.2 20.672 40.32 36.608 63.488 47.616 23.488 11.072 49.408 17.088 77.568 18.048zM853.696 311.872c-78.912 18.432-144-15.552-146.112-55.040-1.664-32.64 17.92-47.872 51.2-41.152 28.352 5.696 61.888 24.192 100.032 56.064 3.328 2.816 7.040 4.8 10.944 6.080l-1.088 34.112c-4.8-1.088-9.856-1.216-14.976 0z" />
<glyph unicode="&#xe918;" glyph-name="content-variables" d="M316.521 813.076c17.472 3.277 35.325-6.29 41.894-23.485l245.151-641.685 1.075-3.242c5.209-18.465-4.45-38.183-22.719-45.163-19.343-7.39-41.016 2.3-48.405 21.644l-218.308 571.445-98.962-259.072 167.758-0.157c19.108-1.724 34.081-17.784 34.081-37.341 0-20.707-16.786-37.494-37.494-37.494l-193.017 0.020-90.653-237.401c-7.39-19.344-29.062-29.034-48.406-21.644-18.269 6.979-27.927 26.698-22.719 45.163l1.075 3.242 89.767 235.026c-1.518 4.074-2.347 8.484-2.347 13.087 0 14.351 8.063 26.819 19.906 33.121l137.825 360.451c6.735 17.629 25.332 27.24 43.219 23.211l1.28 0.273zM825.702 554.282c24.635 0.86 47.36-2.73 67.899-10.998 20.546-8.275 38.312-20.404 52.926-36.234 14.402-15.603 25.359-34.398 32.9-56.058 6.29-18.044 10.108-37.473 11.527-58.222l0.468-8.973 8.185-234.478c0.724-20.694-15.47-38.057-36.162-38.78-19.544-0.682-36.118 13.722-38.51 32.758l-0.271 3.405-0.556 17.119c-40.316-29.060-78.577-47.465-115.178-54.851-84.534-17.058-152.828 36.5-148.244 124.477 5.134 98.521 127.889 162.533 258.851 132.083l-2.582 0.551-0.475 15.098c-0.592 16.866-3.248 31.882-7.863 45.145-4.257 12.225-9.999 22.071-17.196 29.867-6.985 7.568-15.47 13.36-25.834 17.532-10.372 4.178-22.704 6.126-37.266 5.617-22.243-0.777-41.852-5.309-59.121-13.488-17.554-8.31-34.063-20.735-49.591-37.533-14.056-15.206-37.777-16.138-52.982-2.082s-16.139 37.777-2.083 52.982c21.847 23.635 46.058 41.857 72.561 54.407 26.792 12.682 56.422 19.531 88.598 20.654zM902.554 292.49c-90.214 20.976-164.63-17.828-166.978-62.946-1.946-37.262 20.378-54.767 58.522-47.069 32.358 6.528 70.7 27.647 114.256 64.099 3.818 3.196 8.090 5.503 12.559 6.941l-1.302 38.985c-5.435-1.281-11.249-1.36-17.057-0.010z" />
<glyph unicode="&#xe919;" glyph-name="copy" d="M862.976 832c17.28 0 31.36-13.184 32.896-30.080l0.128-2.944v-482.56c0-17.28-13.184-31.36-30.080-32.896l-2.944-0.192-186.368 0.064v-186.368c0-16.192-11.648-29.696-27.072-32.512l-5.952-0.512h-482.56c-18.24 0-33.024 14.784-33.024 33.024v482.56c0 18.304 14.784 33.088 33.024 33.088h186.304v186.24c0 17.28 13.248 31.424 30.080 32.96l3.008 0.128h482.56zM610.56 546.56h-416.512v-416.512h416.512v416.512zM829.952 765.952h-416.512l-0.064-153.28h230.208c16.256 0 29.76-11.712 32.512-27.136l0.576-5.952-0.064-230.144h153.344v416.512z" />
<glyph unicode="&#xe91a;" glyph-name="crrot-left" d="M305.792 483.52c-12.608-12.544-13.312-32.512-2.24-45.952l2.24-2.496 363.968-363.968c13.376-13.376 35.072-13.376 48.448 0 12.608 12.608 13.312 32.576 2.24 46.080l-2.24 2.368-339.712 339.776 339.712 339.712c12.608 12.608 13.312 32.576 2.24 46.080l-2.24 2.368c-12.608 12.608-32.576 13.376-46.016 2.24l-2.432-2.24-363.968-363.968z" />
<glyph unicode="&#xe91b;" glyph-name="currency" d="M217.984 768c-41.472 0-76.736-26.752-89.984-64h768c-13.248 37.248-48.512 64-89.984 64h-588.032zM160 640c-52.736 0-96-43.264-96-96v-320c0-52.736 43.264-96 96-96h704c52.736 0 96 43.264 96 96v320c0 52.736-43.264 96-96 96h-704zM192 576h640c0-35.008 28.992-64 64-64v-256c-35.008 0-64-28.992-64-64h-640c0 35.008-28.992 64-64 64v256c35.008 0 64 28.992 64 64zM512 512c-70.272 0-128-57.728-128-128s57.728-128 128-128c70.272 0 128 57.728 128 128s-57.728 128-128 128zM256 448c-35.2 0-64-28.8-64-64s28.8-64 64-64 64 28.8 64 64-28.8 64-64 64zM512 448c35.776 0 64-28.224 64-64s-28.224-64-64-64c-35.776 0-64 28.224-64 64s28.224 64 64 64zM768 448c-35.2 0-64-28.8-64-64s28.8-64 64-64 64 28.8 64 64-28.8 64-64 64z" />
<glyph unicode="&#xe91c;" glyph-name="dark-mode" d="M273.856 781.952c-91.52-73.216-145.856-183.424-145.856-302.4 0-214.4 175.104-388.096 391.040-388.096 175.104 0 327.488 115.2 375.552 279.808 9.024 30.976-27.136 55.232-52.352 35.072-57.344-45.888-128.64-71.296-203.904-71.296-179.52 0-324.928 144.256-324.928 322.048 0 30.72 4.288 60.928 12.8 89.792 9.024 30.976-27.136 55.232-52.352 35.072zM247.296 656.384v0.704c0-214.4 175.168-388.096 391.040-388.096l9.344 0.128c46.592 1.088 91.84 10.24 134.016 26.816l6.016 2.432-1.664-2.432c-59.264-84.544-157.824-138.432-267.008-138.432-179.584 0-324.992 144.256-324.992 322.048 0 61.12 17.28 119.36 48.448 169.344l4.8 7.488z" />
<glyph unicode="&#xe91d;" glyph-name="dashboard" d="M148.032 846.208c17.92 0 32.512-13.696 34.112-31.104l0.128-3.136v-675.968c0-9.024 6.784-16.448 15.552-17.6l2.176-0.128h675.968c18.944 0 34.24-15.36 34.24-34.24 0-17.92-13.696-32.512-31.104-34.112l-3.136-0.128h-675.968c-46.144 0-83.84 36.288-86.144 81.92l-0.064 4.288v675.968c0 18.944 15.36 34.24 34.24 34.24zM564.032 482.048c17.856 0 32.512-13.696 34.048-31.168l0.192-3.136v-208c0-18.944-15.36-34.304-34.304-34.304-17.856 0-32.512 13.696-34.112 31.168l-0.128 3.136v208c0 18.944 15.36 34.304 34.24 34.304zM772.032 586.048c17.792 0 32.512-13.632 34.048-31.104l0.128-3.136v-311.936c0-18.944-15.36-34.304-34.24-34.304-17.92 0-32.512 13.696-34.112 31.168l-0.128 3.136v311.936c0 18.944 15.36 34.24 34.24 34.24zM356.032 742.208c17.856 0 32.512-13.696 34.112-31.168l0.128-3.136v-467.968c0-18.88-15.36-34.24-34.24-34.24-17.92 0-32.576 13.696-34.112 31.168l-0.192 3.072v467.968c0 18.944 15.36 34.24 34.304 34.24z" />
<glyph unicode="&#xe91e;" glyph-name="data" d="M233.664 832c-58.048 0-105.664-43.264-105.664-96v-576c0-52.736 47.616-96 105.664-96h556.672c58.048 0 105.664 43.264 105.664 96v576c0 52.736-47.616 96-105.664 96h-556.672zM233.664 768h556.672c19.84 0 35.2-14.016 35.2-32v-160h-339.456v-64h339.456v-192h-339.456v-64h339.456v-96c0-17.984-15.36-32-35.2-32h-556.672c-19.84 0-35.2 14.016-35.2 32v96h217.152v64h-217.152v192h217.152v64h-217.152v160c0 17.984 15.36 32 35.2 32z" />
<glyph unicode="&#xe91f;" glyph-name="date-time" d="M153.472 832c-49.024 0-89.472-40.192-89.472-89.024v-474.88c0-48.768 40.448-88.96 89.472-88.96h285.76c36.8-103.936 135.488-179.136 252.288-179.136 147.904 0 268.48 119.936 268.48 267.072 0 63.488-23.296 121.152-60.736 167.040v308.928c0 48.832-40.384 89.024-89.472 89.024h-656.32zM153.472 772.672h656.32c16.768 0 29.824-12.992 29.824-29.696v-29.696h-715.968v29.76c0 16.64 13.056 29.696 29.824 29.696zM123.648 653.952h716.032v-164.416c-34.88 23.104-75.648 37.76-119.296 42.432v3.264h-358.144v-59.328h163.84c-21.696-17.088-41.408-36.544-56.96-59.392h-106.88v-59.328h77.504c-10.24-28.288-16.768-58.368-16.768-90.112 0-9.792 1.856-19.072 2.88-28.608h-272.384c-16.768 0-29.824 12.992-29.824 29.696v385.792zM243.008 535.232v-59.328h59.648v59.328h-59.648zM691.52 474.816c115.648 0 208.832-92.672 208.832-207.744s-93.184-207.744-208.832-207.744c-115.712 0-208.832 92.672-208.832 207.744s93.12 207.808 208.832 207.808zM243.008 416.576v-59.392h59.648v59.328h-59.648zM661.696 415.488v-178.048h119.296v59.328h-59.648v118.72h-59.648z" />
<glyph unicode="&#xe920;" glyph-name="debug" d="M512 832c91.392 0 163.52-83.2 167.808-185.408 26.56-23.872 48.96-52.992 66.368-85.76 1.792 0.512 3.776 0.896 5.76 1.088l3.072 0.128h57.792l21.568 37.44c9.088 15.808 29.248 21.248 45.056 12.16 14.912-8.576 20.608-27.008 13.632-42.304l-1.472-2.816-31.104-54.016c-5.376-9.28-14.848-15.36-25.408-16.384l-3.2-0.192-59.264 0.064c10.048-33.92 15.36-70.080 15.36-107.328 0-54.208-11.264-105.536-31.36-150.656h75.264l3.2-0.128c10.56-1.024 20.032-7.040 25.408-16.384l31.104-54.016 1.472-2.816c6.976-15.36 1.28-33.664-13.632-42.24-15.808-9.152-35.968-3.712-45.056 12.16l-21.568 37.376h-57.792l-3.008 0.192c-10.048 0.896-18.816 6.272-24.192 14.080-50.176-74.24-127.808-122.24-215.808-122.24s-165.632 47.936-215.936 122.24c-5.248-7.808-14.016-13.184-24-14.080l-3.008-0.192h-57.856l-21.568-37.44c-9.088-15.808-29.248-21.248-45.056-12.16-14.912 8.64-20.608 27.008-13.632 42.304l1.472 2.816 31.104 54.016c5.376 9.344 14.848 15.36 25.408 16.384l3.2 0.192h75.264c-20.096 45.056-31.36 96.384-31.36 150.592 0 37.248 5.312 73.408 15.36 107.328h-59.264l-3.2 0.128c-10.56 1.024-20.032 7.040-25.408 16.384l-31.104 54.016-1.472 2.816c-6.976 15.36-1.28 33.728 13.632 42.24 15.808 9.152 35.968 3.712 45.056-12.16l21.568-37.376h57.856l3.008-0.128c1.984-0.192 3.968-0.576 5.824-1.088 17.28 32.768 39.68 61.888 66.304 85.76l-0.192-9.6c0 106.496 73.728 195.008 168 195.008zM395.712 603.84l-2.048-1.728c-56.448-47.616-91.584-126.528-91.584-213.44 0-144 95.424-258.56 209.92-258.56s209.92 114.56 209.92 258.56c0 85.632-34.112 163.648-89.28 211.52l-2.304 1.92-234.624 1.728zM512 765.952c-46.208 0-86.976-40.192-98.56-96.128l197.504-1.536c-11.264 56.832-52.288 97.664-98.944 97.664z" />
<glyph unicode="&#xe921;" glyph-name="delete-1" d="M589.76 832c55.552 0 100.864-43.84 103.232-98.88l0.064-4.48v-36.928h142.272c18.304 0 33.152-14.912 33.152-33.216 0-17.28-13.248-31.488-30.080-33.024l-3.072-0.128h-36.992v-457.984c0-55.616-43.84-100.928-98.88-103.296l-4.48-0.064h-350.784c-55.616 0-100.928 43.84-103.232 98.88l-0.128 4.48v457.92h-36.992c-18.304 0-33.152 14.848-33.152 33.152 0 17.28 13.248 31.488 30.080 33.024l3.072 0.128 142.208 0.064v36.928c0 55.616 43.904 100.928 98.88 103.296l4.48 0.128h140.352zM731.968 625.344h-424.832v-457.984c0-19.456 14.976-35.392 33.984-36.928l3.072-0.128h350.784c19.456 0 35.392 14.976 36.928 33.984l0.128 3.072-0.064 457.984zM449.408 516.224c17.28 0 31.488-13.248 33.024-30.080l0.128-3.072v-210.496c0-18.304-14.848-33.152-33.152-33.152-17.28 0-31.488 13.248-33.024 30.080l-0.128 3.072v210.624c0 18.24 14.848 33.088 33.152 33.088zM589.76 516.224c17.28 0 31.488-13.248 33.024-30.080l0.128-3.072v-210.496c0-18.304-14.848-33.152-33.152-33.152-17.28 0-31.488 13.248-33.024 30.080l-0.128 3.072v210.624c0 18.24 14.848 33.088 33.152 33.088zM589.76 765.696h-140.352c-19.392 0-35.328-14.976-36.864-33.984l-0.128-3.072v-36.928h214.336v36.928c0 19.456-14.976 35.392-33.92 36.928l-3.072 0.128z" />
<glyph unicode="&#xe922;" glyph-name="dropdown-down" d="M512 229.312c12.992 0 24.256 4.8 33.728 14.272l336 336c9.536 9.472 14.272 20.736 14.272 33.728s-4.736 24.32-14.272 33.792c-9.472 9.472-20.736 14.208-33.728 14.208h-672c-12.992 0-24.256-4.736-33.728-14.208-9.536-9.536-14.272-20.8-14.272-33.792s4.736-24.256 14.272-33.728l336-336c9.472-9.472 20.736-14.272 33.728-14.272z" />
<glyph unicode="&#xe923;" glyph-name="dropdown-up" d="M512 661.312c12.992 0 24.256-4.736 33.728-14.208l336-336c9.536-9.536 14.272-20.8 14.272-33.792s-4.736-24.256-14.272-33.728c-9.472-9.472-20.736-14.272-33.728-14.272h-672c-12.992 0-24.256 4.8-33.728 14.272-9.536 9.472-14.272 20.736-14.272 33.728s4.736 24.32 14.272 33.792l336 336c9.472 9.472 20.736 14.208 33.728 14.208z" />
<glyph unicode="&#xe924;" glyph-name="dropdown" d="M535.962 895.891c-14.806 12.19-36.76 11.377-50.613-2.438l-257.326-259.63c-12.223-14.765-11.409-36.659 2.445-50.474l2.689-2.438c14.806-12.19 36.76-11.377 50.613 2.438l228.23 230.364 228.23-230.364 2.689-2.438c14.806-12.19 36.76-11.377 50.613 2.438 14.719 14.678 14.719 38.478 0 53.156l-254.881 256.948-2.689 2.438zM488.038 0.102c14.806-12.186 36.76-11.374 50.613 2.443l257.326 259.631c12.223 14.766 11.408 36.66-2.445 50.476l-2.689 2.438c-14.806 12.19-36.76 11.377-50.613-2.438l-228.23-230.366-228.23 230.366-2.689 2.438c-14.806 12.19-36.76 11.377-50.614-2.438-14.719-14.679-14.719-38.478 0-53.157l254.881-256.949 2.689-2.443z" />
<glyph unicode="&#xe925;" glyph-name="duplicate" d="M842.304 586.304c29.632 0 53.696-24 53.696-53.632v-414.976c0-29.632-24.064-53.696-53.696-53.696h-414.976c-29.632 0-53.632 24.064-53.632 53.696v414.976c0 29.632 24 53.632 53.632 53.632zM829.952 520.256h-390.272v-390.208h390.208v390.272zM547.072 832c55.552 0 100.8-43.84 103.168-98.752l0.064-4.48v-35.072c0-18.24-14.72-33.024-33.024-33.024-17.28 0-31.36 13.184-32.896 30.016l-0.128 3.008v35.072c0 19.52-15.040 35.52-34.112 37.056l-3.072 0.128h-315.84c-19.52 0-35.52-15.040-37.056-34.112l-0.128-3.072v-315.84c0-19.52 15.040-35.52 34.112-37.12l3.072-0.064h35.072c18.24 0 33.024-14.784 33.024-33.024 0-17.28-13.184-31.36-30.016-32.896l-3.008-0.128h-35.072c-55.488 0-100.8 43.776-103.168 98.752l-0.064 4.48v315.84c0 55.488 43.84 100.8 98.752 103.232h320.32z" />
<glyph unicode="&#xe926;" glyph-name="edit" d="M390.086 879.936c0 22.467-18.213 40.679-40.68 40.679l-252.093-0.125c-54.185-2.661-97.313-47.393-97.313-102.259v-740.462l0.125-5.112c2.664-54.201 47.454-97.272 102.299-97.272l746.054 0.126c54.185 2.662 97.319 47.395 97.319 102.258v308.526l-0.173 3.703c-1.867 20.731-19.291 36.977-40.511 36.977-22.465 0-40.676-18.213-40.676-40.68v-308.526l-0.165-2.639c-1.3-10.374-10.145-18.385-20.905-18.385l-743.587 0.165c-10.398 1.292-18.421 10.13-18.421 20.858v740.462l0.164 2.64c1.298 10.374 10.149 18.386 20.902 18.386l250.685 0.166c20.731 1.87 36.977 19.294 36.977 40.513zM752.869 908.71l-370.473-370.231c-7.634-7.63-11.924-17.981-11.924-28.774v-123.411c0-22.467 18.213-40.679 40.68-40.679h123.49c10.784 0 21.127 4.282 28.755 11.905l370.475 370.231c15.896 15.888 15.896 41.659 0 57.548l-123.494 123.41c-15.88 15.874-41.625 15.874-57.509 0zM781.603 822.451l65.954-65.9-329.76-329.554h-65.976v65.875l329.782 329.578z" />
<glyph unicode="&#xe927;" glyph-name="end" d="M862.976 832h-701.952c-18.24 0-33.024-14.784-33.024-33.024v-701.952c0-18.24 14.784-33.024 33.024-33.024h701.952c18.24 0 33.024 14.784 33.024 33.024v701.952c0 18.24-14.784 33.024-33.024 33.024zM829.952 765.952v-635.904h-635.904v635.904h635.904z" />
<glyph unicode="&#xe928;" glyph-name="environments" d="M447.5 960v-128h-223.25c-52.642 0-96-43.358-96-96v-96h64v96c0 18.014 13.986 32 32 32h223.25v-128l160 160-160 160zM704 832v-64h96c18.016 0 32-13.986 32-32v-224h-128l160-160 160 160h-128v224c0 52.642-43.36 96-96 96h-96zM160 543.75l-160-160h128.25v-223.75c0-52.64 43.357-96 96-96h95.75v64h-95.75c-18.014 0-32 13.984-32 32v223.75h127.75l-160 160zM576 256l-160-160 160-160v128h224c52.64 0 96 43.36 96 96v96h-64v-96c0-18.016-13.984-32-32-32h-224v128z" />
<glyph unicode="&#xe929;" glyph-name="error-info" d="M514.368 333.184c25.152 0 45.824 19.264 48 43.84l0.256 4.416v359.68c0 26.624-21.632 48.192-48.256 48.192-25.216 0-45.888-19.2-48.064-43.84l-0.256-4.416v-359.68c0-26.624 21.632-48.192 48.32-48.192zM514.368 106.624c32.64 0 59.2 26.56 59.2 59.264s-26.496 59.2-59.2 59.2c-32.768 0-59.264-26.496-59.264-59.2s26.496-59.2 59.264-59.2z" />
<glyph unicode="&#xe92a;" glyph-name="expand" d="M459.968 199.168l-46.4-46.4-285.568 285.632 285.568 285.568 46.4-46.336-206.4-206.464h576.832v360.832h65.6v-787.2h-65.6v360.768h-576.832z" />
<glyph unicode="&#xe92b;" glyph-name="export" d="M834.112 330.624c17.216 0 31.36-13.184 32.896-30.080l0.128-2.944v-200.576c0-17.216-13.184-31.36-30.080-32.896l-2.944-0.128h-651.712c-17.28 0-31.36 13.184-32.96 30.080l-0.128 2.944v200.576c0 18.24 14.784 33.024 33.088 33.024 17.216 0 31.36-13.184 32.896-30.080l0.128-2.944v-167.488h585.6v167.488c0 17.216 13.248 31.36 30.080 32.896l3.008 0.128zM523.072 824.896l2.24-1.856 216.448-201.6c13.44-12.416 14.080-33.344 1.664-46.72-11.648-12.544-30.912-13.952-44.224-3.712l-2.432 2.048-160.64 149.696 1.152-356.736c0-17.28-13.12-31.488-29.952-33.024l-3.008-0.192c-17.216-0.064-31.36 13.056-32.96 29.888l-0.192 3.008-1.216 357.312-163.968-164.032c-12.864-12.928-33.792-12.928-46.72 0-12.16 12.16-12.8 31.36-2.112 44.352l2.112 2.368 216.512 216.512c5.76 5.76 13.056 8.96 20.544 9.6h3.456c7.936 0.768 16.256-1.28 23.36-6.976z" />
<glyph unicode="&#xe92c;" glyph-name="external-link" d="M768.96 832c68.544 0 124.416-54.336 126.976-122.24l0.064-4.8v-513.92c0-68.544-54.336-124.416-122.24-126.976l-4.8-0.064h-280.32c-18.56 0-33.6 15.040-33.6 33.6 0 17.536 13.44 32 30.528 33.536l3.072 0.128h280.32c31.808 0 57.856 24.896 59.712 56.32l0.064 3.456v513.92c0 31.808-24.896 57.856-56.32 59.712l-3.456 0.064h-513.92c-31.808 0-57.856-24.896-59.712-56.32l-0.064-3.456v-280.32c0-18.56-15.040-33.6-33.664-33.6-17.536 0-31.936 13.44-33.472 30.528l-0.128 3.072v280.32c0 68.544 54.336 124.416 122.24 126.976l4.864 0.064h513.92zM640.192 601.344c17.536 0 31.936-13.44 33.472-30.592l0.128-3.008v-186.88c0-18.56-15.040-33.664-33.6-33.664-17.536 0-32 13.44-33.472 30.592l-0.128 3.072-0.064 105.344-326.208-326.272c-13.12-13.12-34.368-13.12-47.552 0-12.352 12.352-13.056 32-2.176 45.184l2.176 2.368 326.656 326.656h-106.112c-17.536 0-31.936 13.44-33.472 30.528l-0.128 3.072c0 17.536 13.44 31.936 30.528 33.472l3.072 0.128h186.88z" />
<glyph unicode="&#xe92d;" glyph-name="footer" d="M128 832v-672c0-52.736 47.168-96 104.704-96h558.592c57.536 0 104.704 43.264 104.704 96v672h-69.76v-672c0-17.984-15.36-32-34.944-32h-558.592c-19.584 0-34.88 14.016-34.88 32v672h-69.824zM299.648 832c-17.792 0-32-14.272-32-32s14.208-32 32-32c17.728 0 32 14.272 32 32s-14.272 32-32 32zM439.296 832c-17.792 0-32-14.272-32-32s14.208-32 32-32c17.728 0 32 14.272 32 32s-14.272 32-32 32zM578.88 832c-17.728 0-32-14.272-32-32s14.272-32 32-32c17.792 0 32 14.272 32 32s-14.208 32-32 32zM718.528 832c-17.728 0-32-14.272-32-32s14.272-32 32-32c17.792 0 32 14.272 32 32s-14.208 32-32 32zM267.648 704v-64h418.88v64h-418.88zM267.648 576v-64h349.056v64h-349.056zM267.648 384v-192h488.704v192h-488.704zM337.408 320h349.12v-64h-349.056v64z" />
<glyph unicode="&#xe92e;" glyph-name="global-variable" d="M648.448 312.060c24.325 0 44.043-19.719 44.043-44.043 0-22.973-17.588-41.838-40.034-43.863l-4.009-0.18h-287.974c-24.324 0-44.042 19.719-44.042 44.043 0 22.973 17.588 41.838 40.034 43.863l4.008 0.18h287.974zM692.491 555.99c0 24.324-19.718 44.043-44.043 44.043l-291.982-0.18c-22.446-2.025-40.034-20.89-40.034-43.863 0-24.324 19.718-44.043 44.042-44.043l291.983 0.18c22.446 2.025 40.034 20.89 40.034 43.863zM168.492 960h671.939c76.279 0 140.032-56.552 140.032-129.126v-765.747c0-72.576-63.753-129.126-140.032-129.126h-671.939c-76.276 0-140.034 56.55-140.034 129.126v765.747c0 72.575 63.758 129.126 140.034 129.126zM840.431 871.914h-671.939c-29.823 0-51.948-19.624-51.948-41.040v-765.747c0-21.419 22.125-41.037 51.948-41.037h671.939c29.824 0 51.951 19.618 51.951 41.037v765.747c0 21.416-22.127 41.040-51.951 41.040z" />
<glyph unicode="&#xe92f;" glyph-name="grid-view" d="M438.861 901.486h-341.334c-21.544 0-39.009-17.465-39.009-39.009v-341.334c0-21.544 17.465-39.009 39.009-39.009h341.334c21.544 0 39.009 17.465 39.009 39.009v341.334c0 21.544-17.465 39.009-39.009 39.009zM399.852 823.466v-263.314h-263.314v263.314h263.314zM926.479 901.486h-341.332c-21.544 0-39.009-17.465-39.009-39.009v-341.334c0-21.544 17.465-39.009 39.009-39.009h341.332c21.548 0 39.007 17.465 39.007 39.009v341.334c0 21.544-17.459 39.009-39.007 39.009zM887.472 823.466v-263.314h-263.316v263.314h263.316zM97.527 413.866h341.334c21.544 0 39.009-17.465 39.009-39.009v-341.336c0-21.541-17.465-39.007-39.009-39.007h-341.334c-21.544 0-39.009 17.467-39.009 39.007v341.336c0 21.544 17.465 39.009 39.009 39.009zM399.852 72.536v263.312h-263.314v-263.312h263.314zM926.479 413.866h-341.332c-21.544 0-39.009-17.465-39.009-39.009v-341.336c0-21.541 17.465-39.007 39.009-39.007h341.332c21.548 0 39.007 17.467 39.007 39.007v341.336c0 21.544-17.459 39.009-39.007 39.009zM887.472 335.848v-263.312h-263.316v263.312h263.316z" />
<glyph unicode="&#xe930;" glyph-name="grid-view1" d="M438.843 901.482h-341.333c-21.544 0-39.010-17.465-39.010-39.009v-341.334c0-21.544 17.465-39.009 39.010-39.009h341.333c21.545 0 39.010 17.465 39.010 39.009v341.334c0 21.544-17.465 39.009-39.010 39.009zM399.833 823.463v-263.314h-263.314v263.314h263.314zM926.464 901.482h-341.336c-21.544 0-39.009-17.465-39.009-39.009v-341.334c0-21.544 17.465-39.009 39.009-39.009h341.336c21.541 0 39.007 17.465 39.007 39.009v341.334c0 21.544-17.467 39.009-39.007 39.009zM887.45 823.463v-263.314h-263.311v263.314h263.311zM97.51 413.863h341.333c21.545 0 39.010-17.465 39.010-39.009v-341.332c0-21.548-17.465-39.007-39.010-39.007h-341.333c-21.544 0-39.010 17.459-39.010 39.007v341.332c0 21.544 17.465 39.009 39.010 39.009zM399.833 72.528v263.316h-263.314v-263.316h263.314zM926.464 413.863h-341.336c-21.544 0-39.009-17.465-39.009-39.009v-341.332c0-21.548 17.465-39.007 39.009-39.007h341.336c21.541 0 39.007 17.459 39.007 39.007v341.332c0 21.544-17.467 39.009-39.007 39.009zM887.45 335.844v-263.316h-263.311v263.316h263.311z" />
<glyph unicode="&#xe931;" glyph-name="handshake" d="M488 627.5c71 77.5 130.75 76.75 174.502 76.5l9.498-0.25 256.026 0.222c17.664 0.015 31.974 14.338 31.974 32 0 17.684-14.342 32.015-32.026 32l-264.973 0.028c-49.752 0.25-132.001 1.25-222.002-97-59 33.75-111.5 33.5-144 33l-201.034-0.216c-17.66-0.019-31.965-14.34-31.965-32 0-17.687 14.348-32.019 32.035-32l201.466 0.216c28.25 0.25 61.75-0.25 100.25-19l-89.5-103.25 21-21c64.25-64.25 166-65.5 231.75-3.25 26.5 25 68 25.25 94.501 0.5l98.496-92.25c9.005-8.75 14.003-21 14.003-33.75 0-13.5-5.498-25.75-15.75-35.5-1.997-2-5.248-4.75-7.251-6-7.251-4-16.749-6.5-24.998-6.5h-48v-20.499l-0.998-4.998c-4.499-22.253-24.25-38.502-47.002-38.502h-48v-20.749l-1-4.749c-4.5-22.253-24.25-38.502-47-38.502h-48v-21.248l-1-4.25c-2.75-14.502-12.75-26.502-25.5-33.005-26.25-12.998-55.75-7.501-79.5 15.501l-247.25 235.002h-30.75c-17.673 0-32-14.327-32-32s14.327-32 32-32h5.25l228.5-217.248c27.5-26.752 61.251-40.499 95-40.499 12.75 0 25.25 2.496 37.5 6.496l0.25-0.749c31.75 8.998 57.25 31.251 70.75 60.25 41.75 1.747 78.5 27.251 96 64 41.752 1.747 78.5 27.002 95.998 64 17.754 0.749 36 6.003 51.501 14.752v-0.25c0.25 0.25 0.25 0.25 0.499 0.499 0.25 0 0.499 0.25 0.749 0.25v0.25c8.506 5.248 16.506 12.499 18.253 14.246 6.502 6.003 12 13.005 16.749 20.256l65.754 77.747h49.248c17.67 0 32 14.326 32 32s-14.33 32-32 32h-64c-9.498 0-18.253-4.25-24.499-11.251l-18.253-21.75c-5.498 12-12.998 23.25-22.746 33l-99.251 92.749c-51.501 47.75-131.501 47.5-182.252-0.749-33-31.251-80.749-36.5-118.5-16l89.5 103.5z" />
<glyph unicode="&#xe932;" glyph-name="hash" d="M759.168 831.168c16.832-3.712 27.776-19.648 25.6-36.416l-0.512-2.944-31.552-141.632h145.536c18.304 0 33.088-14.848 33.088-33.088 0-17.28-13.248-31.36-30.080-32.896l-3.008-0.128h-160.192l-54.656-245.888h136.896c18.24 0 33.024-14.784 33.024-33.024 0-17.28-13.184-31.36-30.080-32.896l-2.944-0.128h-151.552l-40.512-182.272c-3.904-17.792-21.568-28.992-39.36-25.088-16.832 3.776-27.776 19.712-25.6 36.48l0.512 2.944 37.248 167.936h-286.080l-40.512-182.272c-3.968-17.792-21.568-28.992-39.36-25.024-16.832 3.712-27.776 19.648-25.6 36.416l0.512 2.944 37.248 167.936h-128.832c-18.24 0-33.024 14.72-33.024 33.024 0 17.216 13.184 31.36 30.080 32.896l2.944 0.128h143.552l54.656 245.888h-120.256c-18.24 0-33.024 14.784-33.024 33.024 0 17.28 13.184 31.36 30.080 32.896l2.944 0.128 134.848 0.064 34.752 155.968c3.968 17.792 21.568 28.992 39.424 25.088 16.768-3.776 27.776-19.712 25.6-36.48l-0.512-2.944-31.552-141.632h286.080l34.752 155.968c3.968 17.792 21.632 28.992 39.424 25.024zM670.336 584.064h-286.080l-54.72-245.888h286.144l54.656 245.888z" />
<glyph unicode="&#xe933;" glyph-name="help-filled" d="M512 903.104c251.328 0 455.104-203.776 455.104-455.104s-203.776-455.104-455.104-455.104c-251.328 0-455.104 203.776-455.104 455.104s203.776 455.104 455.104 455.104zM519.424 221.248c-25.344 0-45.888-20.608-45.888-45.952s20.544-45.888 45.888-45.888c25.344 0 45.888 20.544 45.888 45.888s-20.48 45.952-45.888 45.952zM606.72 746.816c-117.376 58.048-276.736-15.104-276.736-175.808 0-20.8 16.832-37.632 37.632-37.632s37.632 16.832 37.632 37.632c0 99.2 96.704 143.616 168.064 108.288 44.032-21.76 71.936-76.096 64.128-113.856-7.36-35.584-22.784-54.848-63.296-86.656l-17.728-14.080c-55.040-44.992-77.696-81.28-77.696-148.864 0-20.8 16.832-37.632 37.632-37.632s37.632 16.832 37.632 37.632c0 42.88 12.8 61.44 58.368 97.152l18.048 14.336c46.656 38.144 69.76 69.44 80.832 122.88 14.848 72-30.336 159.872-104.512 196.608z" />
<glyph unicode="&#xe934;" glyph-name="help" d="M512 903.104c251.328 0 455.104-203.776 455.104-455.104s-203.776-455.104-455.104-455.104c-251.328 0-455.104 203.776-455.104 455.104s203.776 455.104 455.104 455.104zM512 835.712c-214.144 0-387.712-173.568-387.712-387.712s173.568-387.712 387.712-387.712c214.144 0 387.712 173.568 387.712 387.712s-173.568 387.712-387.712 387.712zM514.88 268.032c20.096 0 36.48-16.32 36.48-36.48 0-20.096-16.384-36.416-36.48-36.416s-36.416 16.32-36.416 36.48c0 20.096 16.32 36.416 36.48 36.416zM584.192 685.12c58.88-29.12 94.72-98.88 82.88-155.968-8.768-42.496-27.072-67.328-64.128-97.6l-14.272-11.328c-36.16-28.352-46.336-43.072-46.336-77.12 0-16.512-13.44-29.888-29.888-29.888-16.512 0-29.888 13.44-29.888 29.888 0 53.632 17.92 82.496 61.696 118.144l14.080 11.2c32.128 25.216 44.352 40.512 50.24 68.8 6.144 29.952-16 73.024-50.88 90.304-56.704 28.032-133.44-7.168-133.44-85.888 0-16.512-13.376-29.888-29.888-29.888-16.448 0-29.888 13.376-29.888 29.888 0 127.488 126.528 185.6 219.712 139.52z" />
<glyph unicode="&#xe935;" glyph-name="home" d="M502.336 826.112c11.328 7.872 26.304 7.872 37.696 0l338.624-234.048c8.96-6.208 14.336-16.384 14.336-27.264v-467.648c0-18.304-14.848-33.152-33.152-33.152h-628.992c-42.944 0-81.536 26.624-81.536 66.56v434.24c0 10.88 5.376 21.12 14.336 27.264zM521.152 758.528l-305.536-211.072v-413.312l1.728-1.024c2.688-1.344 6.272-2.368 10.368-2.688l3.2-0.128h160.256l0.064 329.856c0 17.28 13.248 31.488 30.144 33.024l3.008 0.128h193.536c17.28 0 31.488-13.248 33.024-30.080l0.128-3.072v-329.792l175.616-0.064v417.152l-305.536 211.072zM584.768 427.008h-127.232v-296.704l127.168 0.064 0.064 296.704z" />
<glyph unicode="&#xe936;" glyph-name="image" d="M160 832c-52.736 0-96-43.264-96-96v-576c0-52.736 43.264-96 96-96h704c52.736 0 96 43.264 96 96v576c0 52.736-43.264 96-96 96h-704zM160 768h704c17.984 0 32-14.016 32-32v-465.024l-224.256 236.8-124.992-140.8-192.768 203.264-225.984-254.464v420.224c0 17.984 14.016 32 32 32zM704 704c-35.2 0-64-28.8-64-64s28.8-64 64-64 64 28.8 64 64-28.8 64-64 64zM355.52 475.776l329.728-347.776h-525.248c-17.984 0-32 14.016-32 32v59.264l227.52 256.512zM672.96 413.056l223.040-235.136v-17.984c0-17.984-14.016-32-32-32h-90.752l-182.272 192.576 82.048 92.48z" />
<glyph unicode="&#xe937;" glyph-name="impExp" d="M128 800c0 17.655 14.345 32 32 32h640c17.658 0 32-14.345 32-32v-160c0-17.673 14.33-32 32-32s32 14.327 32 32v160c0 53.001-43.002 96-96 96h-640c-53.001 0-96-42.999-96-96v-640c0-52.998 42.999-96 96-96h640c52.998 0 96 43.002 96 96v160c0 17.673-14.33 32-32 32s-32-14.327-32-32v-160c0-17.658-14.342-32-32-32h-640c-17.655 0-32 14.342-32 32v640zM322.428 492.249c-1.565-3.773-2.428-7.91-2.428-12.249s0.863-8.476 2.428-12.249c1.539-3.718 3.808-7.206 6.809-10.243zM329.389 457.356l199.983-199.986c12.497-12.493 32.758-12.493 45.254 0 12.497 12.499 12.497 32.762 0 45.261l-145.372 145.37h466.745c17.67 0 32 14.327 32 32s-14.33 32-32 32h-466.745l145.372 145.373c12.497 12.497 12.497 32.758 0 45.254s-32.758 12.497-45.254 0l-199.983-199.983zM322.428 492.249c1.539 3.718 3.808 7.206 6.809 10.243l-6.809-10.243z" />
<glyph unicode="&#xe938;" glyph-name="info" d="M512 903.104c251.328 0 455.104-203.776 455.104-455.104s-203.776-455.104-455.104-455.104c-251.328 0-455.104 203.776-455.104 455.104s203.776 455.104 455.104 455.104zM512 835.712c-214.144 0-387.712-173.568-387.712-387.712s173.568-387.712 387.712-387.712c214.144 0 387.712 173.568 387.712 387.712s-173.568 387.712-387.712 387.712zM512 517.312c17.6 0 32-13.44 33.6-30.656l0.128-3.072v-251.2c0-18.624-15.104-33.728-33.728-33.728-17.6 0-32 13.44-33.6 30.656l-0.128 3.072v251.2c0 18.624 15.104 33.728 33.728 33.728zM512 675.584c22.848 0 41.344-18.56 41.344-41.408s-18.496-41.344-41.344-41.344c-22.848 0-41.344 18.56-41.344 41.344 0 22.848 18.496 41.408 41.344 41.408z" />
<glyph unicode="&#xe939;" glyph-name="instance-property" d="M512 896c247.424 0 448-200.576 448-448s-200.576-448-448-448-448 200.576-448 448 200.576 448 448 448zM512 829.632c-210.752 0-381.632-170.88-381.632-381.632s170.88-381.632 381.632-381.632 381.632 170.88 381.632 381.632-170.88 381.632-381.632 381.632zM512 576.896c71.168 0 128.896-57.728 128.896-128.896s-57.728-128.896-128.896-128.896c-71.168 0-128.896 57.728-128.896 128.896s57.728 128.896 128.896 128.896zM512 510.528c-34.56 0-62.528-27.968-62.528-62.528s27.968-62.528 62.528-62.528 62.528 27.968 62.528 62.528-27.968 62.528-62.528 62.528z" />
<glyph unicode="&#xe93a;" glyph-name="interuptions" d="M396.428 761.083c0-25.507-20.678-46.185-46.185-46.185-24.090 0-43.873 18.444-45.996 41.981l-0.189 4.204v152.732c0 25.507 20.678 46.185 46.186 46.185 24.090 0 43.872-18.444 45.996-41.981l0.189-4.204v-152.732zM396.428-17.818c0-25.506-20.678-46.182-46.185-46.182-24.090 0-43.873 18.441-45.996 41.984l-0.189 4.198v202.566c0 25.507 20.678 46.185 46.186 46.185 24.090 0 43.872-18.444 45.996-41.981l0.189-4.204v-202.566zM714.776 665.067c25.508 0 46.185 20.678 46.185 46.185v202.563l-0.189 4.204c-2.123 23.537-21.906 41.981-45.996 41.981-25.507 0-46.185-20.678-46.185-46.185v-202.563l0.189-4.204c2.124-23.537 21.906-41.981 45.996-41.981zM760.961-17.818c0-25.506-20.677-46.182-46.185-46.182-24.090 0-43.872 18.441-45.996 41.984l-0.189 4.198v162.511c0 25.507 20.678 46.185 46.185 46.185 24.090 0 43.873-18.444 45.996-41.981l0.189-4.204v-162.511zM904.277 522.34c18.027 15.119 21.934 41.754 8.327 61.532l-2.696 3.545c-15.119 18.027-41.754 21.934-61.532 8.327l-270.046-185.776-119.009 149.9-3.046 3.472c-16.966 17.513-45.074 18.918-63.737 2.402l-294.817-261.172c-16.056-17.197-16.699-44.11-0.789-62.089l3.106-3.191c17.197-16.056 44.11-16.699 62.088-0.789l255.162 225.791 115.495-145.563 2.968-3.391c15.507-16.071 40.629-18.85 59.386-5.946l309.14 212.948z" />
<glyph unicode="&#xe93b;" glyph-name="ivr" d="M202.88 737.6l6.016-1.088 179.2-48c18.048-4.864 28.8-23.36 23.936-41.408l-40-149.376c-4.16-15.488-18.624-25.92-34.624-24.96l-110.144 6.4c20.288-94.464 70.016-180.608 141.632-245.44l49.6 98.56c7.168 14.336 23.488 21.632 38.976 17.472l149.376-40.064c17.984-4.8 28.736-23.36 23.872-41.408l-48-179.2c-3.84-14.080-15.808-23.68-29.44-24.96h-5.952c-2.048 0.128-4.032 0.512-6.016 1.024-6.208 1.664-12.352 3.456-18.496 5.312l-7.040 2.24c-5.504 1.728-10.88 3.584-16.256 5.504l-2.88 1.024c-6.4 2.368-12.8 4.8-19.136 7.36l-2.304 0.96c-13.248 5.504-26.24 11.52-38.912 17.984l-3.392 1.792c-4.352 2.24-8.64 4.608-12.928 6.976l-6.848 3.904c-4.48 2.56-8.832 5.184-13.184 7.872l-7.616 4.8-11.456 7.552c-7.168 4.928-14.208 9.92-21.12 15.168l15.552-11.328c-134.272 93.888-218.368 246.208-225.472 410.496l-0.256 7.296c-0.192 5.312-0.256 10.624-0.256 16l0.064 5.312c0 5.12 0.192 10.24 0.384 15.424l0.384 8.064c0.704 12.544 1.92 25.216 3.52 37.888l0.64 4.544c0.896 6.592 1.92 13.184 3.072 19.776l0.64 3.456c1.088 6.080 2.304 12.16 3.648 18.176 1.728 8 3.712 16 5.76 23.936l-5.12-20.864c1.6 6.912 3.328 13.888 5.12 20.864 3.84 14.016 15.872 23.616 29.504 24.896h5.952zM466.56 277.312l-43.2-85.888 1.92-1.28c1.92-1.28 3.84-2.56 5.76-3.712 4.288-2.752 8.576-5.376 12.864-7.872l-12.8 7.872c7.040-4.48 14.272-8.832 21.632-12.928 3.456-1.92 6.848-3.84 10.368-5.632l-10.368 5.632c5.12-2.88 10.24-5.632 15.424-8.32l-5.12 2.688c13.184-6.912 26.688-13.184 40.576-18.88 5.632-2.24 11.328-4.48 17.088-6.528l5.76-1.984 30.208 112.64-90.112 24.192zM614.592 832c188.672-50.56 301.568-242.88 254.72-431.616l-1.728-6.592-65.28 17.472c40.896 152.704-47.936 309.568-198.912 353.664l-6.272 1.728 17.472 65.344zM548.16 687.808c119.808-32.064 191.68-153.728 162.88-273.6l-1.472-5.888-65.344 17.536c22.528 83.968-25.92 170.24-108.544 195.2l-4.992 1.472 17.472 65.28zM225.216 662.144l-1.088-5.952c-0.896-4.928-1.664-9.92-2.432-14.912l2.432 14.976c-1.088-6.208-2.048-12.352-2.88-18.56-1.088-7.744-1.92-15.552-2.624-23.36-0.384-4.48-0.704-9.024-0.96-13.568l0.96 13.568c-0.64-6.848-1.024-13.76-1.28-20.672l0.32 7.104c-0.832-15.36-0.896-30.848-0.192-46.208l-0.128 2.048 0.512-9.216 96-5.568 24.128 90.112-112.768 30.208z" />
<glyph unicode="&#xe93c;" glyph-name="language-management" d="M771.801 883.827l5.473-0.12c88.873-3.898 152.369-102.503 152.369-217.664 0-23.099-18.723-41.824-41.826-41.824-23.095 0-41.826 18.725-41.826 41.824 0 76.848-37.767 134.135-74.189 134.135l-218.329 0.075 0.013-819.835-0.171-3.805c-1.923-21.315-19.837-38.014-41.653-38.014-23.099 0-41.825 18.723-41.825 41.819l-0.017 819.835-223.407-0.232c-35.362-3.334-70.879-59.458-70.879-133.978 0-23.099-18.725-41.824-41.824-41.824s-41.825 18.725-41.825 41.824c0 117.511 66.114 217.783 157.841 217.783h522.075z" />
<glyph unicode="&#xe93d;" glyph-name="left-channels" d="M823.974 846.219h-623.942c-47.667 0-86.251-38.582-86.251-86.269v-467.931l0.106-4.307c2.241-45.683 39.923-81.958 86.145-81.958l189.636 0.019 93.839-140.742 1.859-2.541c14.269-17.76 42.164-16.915 55.135 2.541l93.817 140.742 189.657-0.019c47.667 0 86.253 38.579 86.253 86.266v467.931c0 47.687-38.586 86.269-86.253 86.269zM200.032 777.667h623.942c9.837 0 17.741-7.9 17.741-17.716v-467.931c0-9.818-7.904-17.715-17.741-17.715l-211.389-0.173c-10.136-1.011-19.369-6.502-25.088-15.085l-75.494-113.197-75.493 113.197c-6.355 9.536-17.047 15.258-28.497 15.258h-207.981c-9.839 0-17.74 7.898-17.74 17.715v467.931c0 9.817 7.9 17.716 17.74 17.716zM319.315 554.9c0-23.678 19.14-42.817 42.82-42.817s42.819 19.139 42.819 42.817c0 23.678-19.14 42.817-42.819 42.817s-42.82-19.139-42.82-42.817zM518.12 512.083c-23.679 0-42.819 19.139-42.819 42.817s19.14 42.817 42.819 42.817c23.679 0 42.82-19.139 42.82-42.817s-19.14-42.817-42.82-42.817zM631.286 554.9c0-23.678 19.139-42.817 42.819-42.817s42.822 19.139 42.822 42.817c0 23.678-19.142 42.817-42.822 42.817s-42.819-19.139-42.819-42.817z" />
<glyph unicode="&#xe93e;" glyph-name="link" d="M456.512 586.816c60.736-4.352 116.544-34.88 153.024-83.584 11.008-14.72 8-35.52-6.72-46.528s-35.52-8-46.528 6.72c-24.896 33.28-63.040 54.144-104.512 57.088-39.488 2.816-78.336-10.816-107.328-37.504l-4.288-4.16-105.536-105.472c-54.272-56.256-53.504-145.664 1.792-200.96 53.952-53.952 140.544-55.936 196.48-5.76l3.968 3.648 60.416 60.352c12.992 12.992 34.048 12.992 46.976 0 12.224-12.16 12.928-31.552 2.176-44.608l-2.176-2.368-60.8-60.8c-82.304-79.488-213.12-78.336-294.080 2.56-79.424 79.488-81.92 207.040-6.4 289.92l4.288 4.608 105.856 105.92c43.008 43.008 102.656 65.28 163.328 60.928zM835.2 770.496c79.488-79.36 81.984-206.976 6.4-289.92l-4.224-4.48-105.92-105.984c-43.072-43.008-102.656-65.28-163.392-60.928s-116.48 34.88-152.96 83.584c-11.008 14.72-8 35.52 6.656 46.528 14.72 11.008 35.52 8 46.528-6.72 24.96-33.28 63.040-54.144 104.512-57.088 39.552-2.816 78.336 10.816 107.328 37.504l4.288 4.16 105.536 105.472c54.336 56.256 53.568 145.664-1.728 200.96-54.016 53.952-140.544 55.936-196.608 5.76l-3.968-3.712-60.8-60.352c-12.992-12.992-33.984-12.928-46.912 0.128-12.16 12.224-12.864 31.616-2.048 44.608l2.176 2.368 61.056 60.736c82.304 79.488 213.12 78.336 294.080-2.56z" />
<glyph unicode="&#xe93f;" glyph-name="list-view" d="M108.144 765.49c47.944 0 86.81 38.767 86.81 86.588s-38.867 86.589-86.81 86.589c-47.944 0-86.81-38.767-86.81-86.589s38.866-86.588 86.81-86.588zM1002.667 852.078c0 25.505-20.727 46.181-46.302 46.181l-592.004-0.189c-23.595-2.123-42.085-21.904-42.085-45.992 0-25.504 20.729-46.18 46.299-46.18l592.005 0.189c23.595 2.123 42.086 21.904 42.086 45.991zM1002.667 448c0 25.504-20.727 46.181-46.302 46.181l-592.004-0.189c-23.595-2.124-42.085-21.904-42.085-45.992 0-25.504 20.729-46.181 46.299-46.181l592.005 0.189c23.595 2.123 42.086 21.903 42.086 45.991zM956.365 90.103c25.574 0 46.302-20.676 46.302-46.182 0-24.090-18.492-43.87-42.086-45.995l-4.215-0.188h-587.79c-25.57 0-46.299 20.676-46.299 46.182 0 24.090 18.49 43.87 42.085 45.995l4.215 0.188h587.79zM194.954 448c0-47.822-38.867-86.589-86.81-86.589s-86.81 38.767-86.81 86.589c0 47.822 38.866 86.589 86.81 86.589s86.81-38.767 86.81-86.589zM108.144-42.667c47.944 0 86.81 38.767 86.81 86.588s-38.867 86.589-86.81 86.589c-47.944 0-86.81-38.768-86.81-86.589s38.866-86.588 86.81-86.588z" />
<glyph unicode="&#xe940;" glyph-name="list-view1" d="M234.688 213.312c35.328 0 64-28.608 64-64 0-35.328-28.672-64-64-64-35.392 0-64 28.672-64 64 0 35.392 28.608 64 64 64zM874.688 183.488c18.816 0 34.112-15.36 34.112-34.176 0-17.792-13.632-32.384-31.040-33.92l-3.072-0.192h-448c-18.88 0-34.176 15.296-34.176 34.112 0 17.856 13.632 32.448 31.040 33.984l3.136 0.192h448zM234.688 512c35.328 0 64-28.672 64-64s-28.672-64-64-64c-35.392 0-64 28.672-64 64s28.608 64 64 64zM874.688 482.112c18.816 0 34.112-15.232 34.112-34.112 0-17.792-13.632-32.448-31.040-33.984l-3.072-0.128h-448c-18.88 0-34.176 15.232-34.176 34.112 0 17.792 13.632 32.448 31.040 33.984l3.136 0.128h448zM234.688 810.688c35.328 0 64-28.672 64-64 0-35.392-28.672-64-64-64-35.392 0-64 28.608-64 64 0 35.328 28.608 64 64 64zM874.688 780.8c18.816 0 34.112-15.296 34.112-34.112 0-17.856-13.632-32.448-31.040-33.984l-3.072-0.192h-448c-18.88 0-34.176 15.36-34.176 34.176 0 17.792 13.632 32.384 31.040 33.92l3.136 0.192h448z" />
<glyph unicode="&#xe941;" glyph-name="list" d="M755.584 832c45.952 0 83.2-37.184 83.2-83.2v-601.6c0-46.016-37.248-83.2-83.2-83.2h-501.696c-45.952 0-83.2 37.184-83.2 83.2v601.6c0 46.016 37.248 83.2 83.2 83.2zM755.584 765.888h-501.696c-9.472 0-17.088-7.68-17.088-17.088v-601.6c0-9.472 7.68-17.088 17.088-17.088h501.696c9.472 0 17.088 7.68 17.088 17.088v601.6c0 9.472-7.68 17.088-17.088 17.088zM655.232 330.304c18.24 0 33.024-14.784 33.024-33.024 0-17.28-13.184-31.36-30.016-32.96l-3.008-0.128h-300.992c-18.24 0-33.088 14.848-33.088 33.088 0 17.28 13.248 31.36 30.080 32.896l3.008 0.128h300.992zM655.232 480.832c18.24 0 33.024-14.784 33.024-33.088 0-17.216-13.184-31.36-30.016-32.896l-3.008-0.128h-300.992c-18.24 0-33.088 14.784-33.088 33.024 0 17.28 13.248 31.424 30.080 32.96l3.008 0.128h300.992zM554.88 631.296c18.24 0 33.088-14.72 33.088-33.024 0-17.28-13.248-31.36-30.080-32.896l-3.008-0.128h-200.64c-18.24 0-33.088 14.72-33.088 33.024 0 17.28 13.248 31.36 30.080 32.896l3.008 0.128h200.64z" />
<glyph unicode="&#xe942;" glyph-name="lock" d="M512 960c-173.538 0-315.077-141.539-315.077-315.077v-78.769h-39.385c-64.923 0-118.154-53.231-118.154-118.154v-393.846c0-64.922 53.231-118.154 118.154-118.154h708.923c64.922 0 118.154 53.232 118.154 118.154v393.846c0 64.923-53.232 118.154-118.154 118.154h-39.385v78.769c0 173.538-141.539 315.077-315.077 315.077zM512 881.231c131.077 0 236.308-105.231 236.308-236.308v-78.769h-472.615v78.769c0 131.077 105.231 236.308 236.308 236.308zM157.538 487.385h708.923c22.15 0 39.385-17.231 39.385-39.385v-393.846c0-22.15-17.235-39.385-39.385-39.385h-708.923c-22.154 0-39.385 17.235-39.385 39.385v393.846c0 22.154 17.231 39.385 39.385 39.385z" />
<glyph unicode="&#xe943;" glyph-name="lookup" d="M261.44 155.584l292.48 292.48 83.52-83.584v208.96h-208.896l83.456-83.584-292.48-292.48 41.856-41.792zM366.656 93.76c22.592-9.28 45.952-16.768 70.080-21.888l18.24-3.392c1.28-0.384 2.752-0.512 4.224-1.024 0.512 0.192 0.64 0 0.64 0 114.752-15.488 235.712 20.928 323.84 109.056 149.76 149.76 149.76 393.28 0 543.104-149.824 149.824-393.344 149.824-543.168 0-90.752-90.752-126.592-216.064-107.52-333.696l0.32-0.896 0.448-2.56c4.928-27.712 13.44-54.144 24-79.744l45.248 45.184c-5.12 15.552-8.832 31.36-11.584 47.488-16.32 99.904 13.824 205.44 90.88 282.496 127.104 127.168 332.416 127.168 459.52 0 127.168-127.104 127.168-332.416 0-459.52-74.88-74.88-176.64-105.6-273.92-92.224-19.328 2.56-37.888 7.168-55.872 13.056l-45.376-45.44z" />
<glyph unicode="&#xe944;" glyph-name="maximize" d="M161.024 570.944c-18.24 0-33.024 14.784-33.024 33.024 0 17.28 13.184 31.36 30.080 32.896l2.944 0.128h116.992c23.744 0 43.2 18.432 44.8 41.792l0.192 3.2v116.992c0 18.24 14.72 33.024 33.024 33.024 17.216 0 31.36-13.184 32.896-30.080l0.128-2.944v-116.992c0-59.84-47.36-108.608-106.56-110.912l-4.48-0.128h-116.992zM745.984 570.944c-59.84 0-108.608 47.36-110.912 106.56l-0.128 4.48v116.992c0 18.24 14.784 33.024 33.024 33.024 17.28 0 31.36-13.184 32.896-30.080l0.128-2.944v-116.992c0-23.744 18.432-43.2 41.792-44.8l3.2-0.192h116.992c18.24 0 33.024-14.72 33.024-33.024 0-17.216-13.184-31.36-30.080-32.896l-2.944-0.128h-116.992zM667.968 64c-17.216 0-31.36 13.184-32.896 30.080l-0.128 2.944v116.992c0 59.84 47.36 108.608 106.56 110.912l4.48 0.128h116.992c18.24 0 33.024-14.784 33.024-33.024 0-17.28-13.184-31.36-30.080-32.896l-2.944-0.128h-116.992c-23.744 0-43.2-18.432-44.8-41.792l-0.192-3.2v-116.992c0-18.24-14.72-33.024-33.024-33.024zM356.032 64c-17.28 0-31.36 13.184-32.896 30.080l-0.128 2.944v116.992c0 23.744-18.432 43.2-41.792 44.8l-3.2 0.192h-116.992c-18.24 0-33.024 14.72-33.024 33.024 0 17.216 13.184 31.36 30.080 32.896l2.944 0.128h116.992c59.84 0 108.608-47.36 110.912-106.56l0.128-4.48v-116.992c0-18.24-14.784-33.024-33.024-33.024z" />
<glyph unicode="&#xe945;" glyph-name="minimize" d="M862.976 325.056c17.28 0 31.36-13.184 32.896-30.080l0.128-2.944v-116.992c0-59.84-47.36-108.608-106.56-110.976l-4.48-0.064h-116.992c-18.24 0-33.024 14.784-33.024 33.024 0 17.28 13.184 31.36 30.080 32.896l2.944 0.128h116.992c23.744 0 43.2 18.432 44.864 41.792l0.128 3.2v116.992c0 18.24 14.72 33.024 33.024 33.024zM161.024 325.056c17.28 0 31.36-13.184 32.896-30.080l0.128-2.944v-116.992c0-23.744 18.432-43.2 41.792-44.864l3.2-0.128h116.992c18.24 0 33.024-14.72 33.024-33.024 0-17.28-13.184-31.36-30.080-32.896l-2.88-0.128h-117.056c-59.84 0-108.608 47.36-111.040 106.56v121.472c0 18.24 14.784 33.024 33.024 33.024zM356.032 832c18.24 0 33.024-14.784 33.024-33.024 0-17.28-13.184-31.36-30.080-32.896l-2.944-0.128h-116.992c-23.744 0-43.2-18.432-44.864-41.792l-0.128-3.2v-116.992c0-18.24-14.72-33.024-33.024-33.024-17.28 0-31.36 13.184-32.896 30.080l-0.128 2.88v117.056c0 59.84 47.36 108.608 106.56 111.040h121.472zM784.96 832c59.84 0 108.608-47.36 110.976-106.56l0.064-4.48v-116.992c0-18.24-14.784-33.024-33.024-33.024-17.28 0-31.36 13.184-32.896 30.080l-0.128 2.944v116.992c0 23.744-18.432 43.2-41.792 44.864l-3.2 0.128h-116.992c-18.24 0-33.024 14.72-33.024 33.024 0 17.28 13.184 31.36 30.080 32.896l2.88 0.128h116.992z" />
<glyph unicode="&#xe946;" glyph-name="minus" d="M875.968 504.896c18.944 0 34.24-15.36 34.24-34.24 0-17.92-13.696-32.576-31.104-34.112l-3.136-0.192h-727.936c-18.944 0-34.24 15.36-34.24 34.304 0 17.856 13.696 32.512 31.104 34.112l3.136 0.128h727.936z" />
<glyph unicode="&#xe947;" glyph-name="mis" d="M708.923 960c-173.546 0-315.077-141.531-315.077-315.077 0-37.992 12.13-71.832 24.462-105.077l-210.924-211.077c-3.686 0.288-6.398 1.077-10.461 1.077-108.306 0-196.923-88.617-196.923-196.923 0-108.308 88.617-196.923 196.923-196.923s196.923 88.615 196.923 196.923c0 3.891-0.654 6.341-0.923 9.846l211.231 211.384c33.125-12.229 66.855-24.307 104.769-24.307 173.544 0 315.077 141.531 315.077 315.077 0 40.421-8.302 78.479-21.693 113.231l-21.843 56.615-42.772-42.923-126.921-126.923h-101.849v101.846l169.842 169.692-56.611 21.846c-34.751 13.386-72.81 21.692-113.231 21.692zM708.923 881.231c6.771 0 12.761-3.085 19.384-3.693l-98.154-98.154v-213.231h213.228l98.154 98.154c0.607-6.624 3.694-12.613 3.694-19.384 0-130.976-105.33-236.308-236.308-236.308-35.936 0-69.82 8.7-101.077 23.539l-25.077 12-272.769-272.925 3.077-19.842c1.215-7.751 2-13.714 2-18.464 0-65.772-52.38-118.154-118.154-118.154s-118.154 52.382-118.154 118.154c0 65.774 52.38 118.154 118.154 118.154 5.084 0 11.204-0.74 19.077-2l20-3.231 272.308 272.616-12 25.231c-14.977 31.397-23.692 65.204-23.692 101.231 0 130.976 105.332 236.308 236.308 236.308zM196.923 172.308c-10.446 0-20.463-4.151-27.849-11.532-7.386-7.389-11.536-17.408-11.536-27.853s4.15-20.464 11.536-27.853c7.385-7.381 17.403-11.532 27.849-11.532s20.463 4.151 27.849 11.532c7.386 7.389 11.536 17.408 11.536 27.853s-4.15 20.464-11.536 27.853c-7.385 7.381-17.403 11.532-27.849 11.532z" />
<glyph unicode="&#xe948;" glyph-name="ml" d="M472.615 960c-265.231 0-433.231-198.769-433.231-433.231 0-119.692 44.923-198.153 85.539-259.077 40.308-60.615 72-101.844 72-164.308v-128c0-21.748 17.633-39.385 39.385-39.385s39.385 17.636 39.385 39.385v128c0 89.846-47.077 150.154-85.539 208-38.153 57.847-72 114.462-72 215.385 0 198.769 127.077 354.462 354.462 354.462 117.846 0 194.462-36.615 247.384-91.077 53.231-54.462 82.77-129.231 94.154-207.384 1.846-13.539 6.153-26.77 12.923-39.385l77.848-139.693c2.458-4 1.229-7.077-3.080-8.923l-74.768-27.692v-155.385c0-65.536-27.077-87.694-56.923-102.463-29.846-15.076-61.23-15.691-61.23-15.691h-39.385v-118.154c0-21.748 17.633-39.385 39.385-39.385s39.385 17.636 39.385 39.385v49.231c18.462 2.15 28-0.307 56.923 13.848 48.927 24.615 100.615 81.227 100.615 173.229v100.615l25.844 9.539 0.614 0.307c46.159 19.385 65.851 76 41.543 119.693l-77.848 139.692c-1.843 3.385-3.387 7.385-4.001 12.308-13.233 90.462-47.38 181.847-115.383 251.385-68.001 69.538-169.231 114.769-304 114.769zM433.231 802.462v-82.769c-25.231-5.231-48-15.692-68.615-29.231l-59.077 59.077-55.692-55.692 59.077-59.077c-13.539-20.615-23.693-43.692-28.923-68.615h-83.077v-78.769h83.077c5.23-24.923 15.384-48 28.923-68.308l-59.077-59.384 55.692-55.692 59.077 59.077c20.615-13.847 43.692-24 68.615-29.231v-82.769h78.769v82.769c25.231 5.231 48 15.692 68.615 29.231l59.077-59.077 55.692 55.692-59.077 59.077c13.539 20.615 23.693 43.692 28.923 68.615h83.077v78.769h-83.077c-5.23 24.923-15.384 48-28.923 68.308l59.077 59.384-55.692 55.692-59.077-59.077c-20.615 13.847-43.692 24-68.615 29.231v82.769h-78.769zM472.615 644.923c32 0 60.615-12.616 81.846-32.923l3.385-3.385c20.307-21.231 32.923-49.846 32.923-81.846s-12.616-60.615-32.923-81.846l-3.385-3.385c-21.231-20.307-49.846-32.923-81.846-32.923s-60.615 12.616-81.846 32.923l-3.385 3.385c-20.307 21.231-32.923 49.846-32.923 81.846s12.616 60.615 32.923 81.846l3.385 3.385c21.231 20.307 49.846 32.923 81.846 32.923z" />
<glyph unicode="&#xe949;" glyph-name="mobile" d="M746.688 844.8c18.816 0 34.112-15.296 34.112-34.112v-725.376c0-18.816-15.296-34.112-34.112-34.112h-469.376c-18.816 0-34.112 15.296-34.112 34.112v725.376c0 18.816 15.296 34.112 34.112 34.112zM712.512 776.512h-401.024v-657.024h401.024v657.024zM512 256c23.552 0 42.688-19.072 42.688-42.688 0-23.552-19.136-42.624-42.688-42.624s-42.688 19.072-42.688 42.624c0 23.616 19.136 42.688 42.688 42.688z" />
<glyph unicode="&#xe94a;" glyph-name="move-down" d="M810.88 426.048l2.368-2.112c12.032-12.032 12.8-31.104 2.112-43.968l-2.112-2.368-282.688-282.688c-12.032-12.032-31.104-12.736-43.968-2.112l-2.304 2.112-282.688 282.688c-12.8 12.8-12.8 33.536 0 46.336 12.032 12.032 31.104 12.736 43.968 2.112l2.304-2.112 259.584-259.52 259.456 259.52c12.096 12.032 31.168 12.736 44.032 2.112zM810.88 803.2l2.368-2.112c12.032-12.032 12.8-31.104 2.112-43.968l-2.112-2.368-282.688-282.688c-12.032-12.032-31.104-12.736-43.968-2.112l-2.304 2.112-282.688 282.688c-12.8 12.8-12.8 33.536 0 46.336 12.032 12.032 31.104 12.736 43.968 2.112l2.304-2.112 259.648-259.52 259.456 259.52c12.096 12.032 31.168 12.736 44.032 2.112z" />
<glyph unicode="&#xe94b;" glyph-name="move-up" d="M486.592 426.048c12.864 10.624 32 9.92 43.968-2.112l284.8-285.056c10.624-12.8 9.92-31.936-2.112-43.968l-2.304-2.112c-12.864-10.624-32-9.92-44.032 2.112l-259.392 259.52-261.888-261.632c-12.864-10.624-32-9.92-43.968 2.112-12.8 12.8-12.8 33.536 0 46.336l282.688 282.688zM486.592 803.2c12.864 10.624 32 9.92 43.968-2.112l284.8-285.056c10.624-12.8 9.92-31.936-2.112-43.968l-2.304-2.112c-12.864-10.624-32-9.92-44.032 2.112l-259.392 259.584-261.952-261.696c-12.864-10.624-32-9.92-43.968 2.112-12.8 12.8-12.8 33.536 0 46.336l282.688 282.688z" />
<glyph unicode="&#xe94c;" glyph-name="move" d="M374.848 173.696c30.336 0 54.848-24.512 54.848-54.848 0-30.272-24.512-54.848-54.848-54.848-30.272 0-54.848 24.576-54.848 54.848 0 30.336 24.576 54.848 54.848 54.848zM649.152 173.696c30.272 0 54.848-24.512 54.848-54.848 0-30.272-24.576-54.848-54.848-54.848-30.336 0-54.848 24.576-54.848 54.848 0 30.336 24.512 54.848 54.848 54.848zM374.848 393.152c30.336 0 54.848-24.576 54.848-54.848 0-30.336-24.512-54.848-54.848-54.848-30.272 0-54.848 24.512-54.848 54.848 0 30.272 24.576 54.848 54.848 54.848zM649.152 393.152c30.272 0 54.848-24.576 54.848-54.848 0-30.336-24.576-54.848-54.848-54.848-30.336 0-54.848 24.512-54.848 54.848 0 30.272 24.512 54.848 54.848 54.848zM374.848 612.48c30.336 0 54.848-24.512 54.848-54.848 0-30.272-24.512-54.848-54.848-54.848-30.272 0-54.848 24.576-54.848 54.848 0 30.336 24.576 54.848 54.848 54.848zM649.152 612.48c30.272 0 54.848-24.512 54.848-54.848 0-30.272-24.576-54.848-54.848-54.848-30.336 0-54.848 24.576-54.848 54.848 0 30.336 24.512 54.848 54.848 54.848zM374.848 832c30.336 0 54.848-24.576 54.848-54.848 0-30.336-24.512-54.848-54.848-54.848-30.272 0-54.848 24.512-54.848 54.848 0 30.272 24.576 54.848 54.848 54.848zM649.152 832c30.272 0 54.848-24.576 54.848-54.848 0-30.336-24.576-54.848-54.848-54.848-30.336 0-54.848 24.512-54.848 54.848 0 30.272 24.512 54.848 54.848 54.848z" />
<glyph unicode="&#xe94d;" glyph-name="multi-intent" d="M777.344 484.032c17.344 0 31.616-13.312 33.152-30.208l0.128-3.072v-239.872c0-79.232-61.376-144.128-138.496-146.816l-4.928-0.064h-192.832c-18.368 0-33.28 14.912-33.28 33.28 0 17.344 13.312 31.616 30.208 33.152l3.072 0.128h192.832c40.896 0 74.688 33.536 76.8 76.16l0.064 4.16v239.872c0 18.368 14.912 33.28 33.28 33.28zM225.792 329.792c65.728 0 119.104-53.376 119.104-119.040 0-65.792-53.376-119.104-119.104-119.104-65.792 0-119.104 53.312-119.104 119.040s53.312 119.040 119.040 119.040zM225.792 263.232c-29.056 0-52.608-23.552-52.608-52.48 0-28.992 23.552-52.544 52.608-52.544 28.992 0 52.544 23.552 52.544 52.48 0 28.992-23.552 52.544-52.544 52.544zM529.28 832c18.368 0 33.28-14.912 33.28-33.28 0-17.344-13.312-31.616-30.272-33.152l-3.008-0.128h-192.768c-40.96 0-74.752-33.536-76.8-76.16l-0.064-4.16v-239.872c0-18.368-14.912-33.28-33.28-33.28-17.344 0-31.616 13.312-33.152 30.208l-0.128 3.072v239.872c0 79.232 61.312 144.128 138.496 146.816l4.928 0.064h192.832zM777.856 804.352c65.728 0 119.104-53.312 119.104-119.040s-53.376-119.040-119.104-119.040c-65.792 0-119.104 53.312-119.104 119.040s53.312 119.040 119.040 119.040zM777.856 737.792c-29.056 0-52.608-23.552-52.608-52.48 0-28.992 23.552-52.544 52.608-52.544 28.992 0 52.544 23.552 52.544 52.48 0 28.992-23.552 52.544-52.544 52.544z" />
<glyph unicode="&#xe94e;" glyph-name="nlp" d="M771.968 846.208c76.352 0 138.24-61.888 138.24-138.176s-61.888-138.176-138.24-138.176c-23.168 0-44.992 5.76-64.128 15.744l-1.28-1.92-99.456-134.848 107.328-135.040c14.72 6.72 30.72 10.88 47.68 12.16l9.856 0.32c76.352 0 138.24-61.888 138.24-138.24 0-76.224-61.888-138.112-138.24-138.112-76.288 0-138.24 61.888-138.24 138.176 0 30.976 10.24 59.52 27.392 82.56l-0.128 0.128-113.536 142.976h-161.536c-14.528-56.64-64-99.264-124.096-103.552l-9.856-0.32c-76.352 0-138.24 61.888-138.24 138.24 0 76.224 61.888 138.112 138.24 138.112 64.512 0 118.72-44.16 133.952-103.936h160.64l104.896 142.016c1.792 2.432 3.84 4.608 6.144 6.4-15.104 21.952-23.872 48.64-23.872 77.312 0 76.288 61.952 138.24 138.24 138.24zM771.968 257.728c-38.464 0-69.76-31.168-69.76-69.632 0-38.4 31.296-69.696 69.76-69.696 38.528 0 69.76 31.232 69.76 69.696 0 38.4-31.232 69.632-69.76 69.632zM252.032 517.76c-38.528 0-69.76-31.232-69.76-69.696 0-38.4 31.232-69.632 69.76-69.632 38.464 0 69.76 31.168 69.76 69.632 0 38.4-31.296 69.696-69.76 69.696zM771.968 777.728c-38.464 0-69.76-31.232-69.76-69.696 0-38.4 31.296-69.632 69.76-69.632 38.528 0 69.76 31.232 69.76 69.632s-31.232 69.696-69.76 69.696z" />
<glyph unicode="&#xe94f;" glyph-name="note" d="M213.333 960c-70.333 0-128-57.667-128-128v-768c0-70.332 57.667-128 128-128h597.333c70.333 0 128 57.668 128 128v597.327c0 11.316-4.495 22.169-12.497 30.17l-256.006 256.006c-8.002 8.002-18.854 12.497-30.17 12.497h-426.66zM213.333 874.667h384v-170.667c0-47.128 38.205-85.333 85.333-85.333h170.667v-554.667c0-23.996-18.667-42.667-42.667-42.667h-597.333c-24 0-42.667 18.671-42.667 42.667v768c0 24 18.667 42.667 42.667 42.667zM682.667 814.333l110.333-110.333h-110.333v110.333zM384 448c-23.564 0-42.667-19.103-42.667-42.667s19.103-42.667 42.667-42.667h256c23.564 0 42.667 19.103 42.667 42.667s-19.103 42.667-42.667 42.667h-256zM384 277.333c-23.564 0-42.667-19.103-42.667-42.667s19.103-42.667 42.667-42.667h170.667c23.564 0 42.667 19.103 42.667 42.667s-19.103 42.667-42.667 42.667h-170.667z" />
<glyph unicode="&#xe950;" glyph-name="notes" d="M216.64 832c-48.704 0-88.64-39.936-88.64-88.64v-590.72c0-48.704 39.936-88.64 88.64-88.64h484.8l194.56 194.56v484.8c0 48.704-39.936 88.64-88.64 88.64h-590.72zM216.64 772.928h590.72c16.64 0 29.568-12.928 29.568-29.568v-443.072h-177.28v-177.216h-442.944c-16.64 0-29.568 12.928-29.568 29.568v590.72c0 16.64 12.928 29.568 29.568 29.568zM718.784 241.216h76.352l-76.352-76.352v76.352z" />
<glyph unicode="&#xe951;" glyph-name="notificatios" d="M507.456 85.312c28.544 0 52.992 10.112 73.216 30.4 20.288 20.224 30.4 44.608 30.4 73.216h181.312c14.080 0 26.176 5.12 36.48 15.36 10.24 10.24 15.36 22.4 15.36 36.48-13.504 11.328-25.792 23.232-36.864 35.584-11.072 12.416-22.528 28.544-34.432 48.384-11.84 19.84-21.888 41.216-30.080 64.192-8.32 22.912-15.040 50.688-20.288 83.328s-7.872 67.776-7.872 105.28c0 40.96-15.808 79.104-47.36 114.304-31.616 35.2-72.96 56.64-124.288 64.192 2.176 5.12 3.2 10.368 3.2 15.808 0 10.752-3.712 19.968-11.264 27.52s-16.768 11.328-27.52 11.328c-10.88 0-19.968-3.84-27.52-11.328-7.616-7.552-11.392-16.768-11.392-27.52 0-5.44 1.088-10.688 3.264-15.808-51.264-7.552-92.672-28.928-124.288-64.192-31.552-35.2-47.36-73.28-47.36-114.304 0-37.504-2.56-72.576-7.872-105.28-5.248-32.64-11.968-60.416-20.224-83.328-8.256-22.976-18.304-44.352-30.144-64.192-11.904-19.84-23.36-35.968-34.432-48.384-11.072-12.352-23.36-24.256-36.8-35.584 0-14.080 5.12-26.24 15.36-36.48s22.4-15.36 36.48-15.36h181.312c0-28.608 10.112-52.992 30.336-73.216 20.224-20.288 44.672-30.4 73.28-30.4zM507.456 117.696c-19.712 0-36.48 6.976-50.432 20.864-13.888 13.888-20.864 30.72-20.864 50.368 0 4.352 2.176 6.528 6.528 6.528 4.288 0 6.4-2.176 6.4-6.528 0-15.872 5.76-29.568 17.28-41.088 11.456-11.456 25.152-17.152 41.088-17.152 4.288 0 6.4-2.176 6.4-6.528 0-4.288-2.112-6.4-6.4-6.4z" />
<glyph unicode="&#xe952;" glyph-name="number" d="M407.296 704c76.672 0 139.584-62.912 139.584-139.648 0-36.096-16.768-68.288-37.888-102.4s-48.128-68.864-75.008-100.608l-17.536-20.416c-10.56-11.968-19.072-21.12-26.688-28.992l-26.688-26.88h183.808v-69.76h-279.232v70.592l30.848 30.656c19.584 19.968 50.88 52.864 82.048 89.792 25.536 30.208 50.816 63.040 68.992 92.416 18.176 29.44 27.52 56.448 27.52 65.6 0 38.912-30.848 69.824-69.76 69.824-36.16 0-65.408-26.624-69.376-61.632l-0.448-8.192h-69.824c0 76.736 62.912 139.648 139.648 139.648zM756.352 704c76.736 0 139.648-62.912 139.648-139.648 0-47.616-20.224-82.624-44.736-104.704 24.512-22.080 44.736-57.088 44.736-104.768 0-76.672-62.912-139.584-139.648-139.584-73.216 0-133.888 57.344-139.264 129.28l-0.384 10.304h69.824c0-38.912 30.912-69.76 69.824-69.76s69.824 30.848 69.824 69.76c0 41.728-15.232 52.288-32.832 60.992-17.664 8.704-36.48 8.832-36.48 8.832h-70.336v69.824h70.4s18.752 0.192 36.416 8.896c17.6 8.704 32.832 19.2 32.832 60.928 0 38.912-30.912 69.824-69.76 69.824-36.224 0-65.408-26.624-69.376-61.632l-0.512-8.192h-69.76c-0.064 76.736 62.912 139.648 139.52 139.648zM197.824 704v-488.704h-69.824v488.704h69.76z" />
<glyph unicode="&#xe953;" glyph-name="overflow" d="M477.888 209.088c43.968 0 79.616-35.648 79.616-79.68 0-43.968-35.648-79.616-79.616-79.616-44.032 0-79.68 35.648-79.68 79.616 0 44.032 35.648 79.68 79.68 79.68zM477.888 527.616c43.968 0 79.616-35.648 79.616-79.616s-35.648-79.616-79.616-79.616c-44.032 0-79.68 35.648-79.68 79.616s35.648 79.616 79.68 79.616zM477.888 846.208c43.968 0 79.616-35.648 79.616-79.616 0-44.032-35.648-79.68-79.616-79.68-44.032 0-79.68 35.648-79.68 79.68 0 43.968 35.648 79.616 79.68 79.616z" />
<glyph unicode="&#xe954;" glyph-name="password_2" d="M512 832c-140.992 0-256-115.008-256-256v-64h-32c-52.672 0-96-43.328-96-96v-320c0-52.672 43.328-96 96-96h576c52.672 0 96 43.328 96 96v320c0 52.672-43.328 96-96 96h-32v64c0 140.992-115.008 256-256 256zM512 768c106.432 0 192-85.568 192-192v-64h-384v64c0 106.432 85.568 192 192 192zM224 448h576c17.984 0 32-14.016 32-32v-320c0-17.984-14.016-32-32-32h-576c-17.984 0-32 14.016-32 32v320c0 17.984 14.016 32 32 32zM320 320c-35.328 0-64-28.672-64-64s28.672-64 64-64 64 28.672 64 64-28.672 64-64 64zM512 320c-35.328 0-64-28.672-64-64s28.672-64 64-64 64 28.672 64 64-28.672 64-64 64zM704 320c-35.328 0-64-28.672-64-64s28.672-64 64-64 64 28.672 64 64-28.672 64-64 64z" />
<glyph unicode="&#xe955;" glyph-name="password" d="M512 732.416c187.712 0 338.88-102.080 450.816-301.888 6.272-11.2 5.632-24.96-1.6-35.52-127.936-186.496-278.016-281.728-449.216-281.728s-321.344 95.232-449.216 281.6c-7.232 10.624-7.872 24.384-1.6 35.584 111.936 199.936 263.040 301.952 450.816 301.952zM512 665.024c-155.904 0-282.24-81.728-381.44-249.152l6.784-9.408c109.312-148.736 231.232-222.912 366.784-225.664l7.872-0.064c141.44 0 268.032 77.056 381.056 234.56l0.384 0.576c-97.408 164.48-220.992 246.208-373.12 249.088zM512 584.96c88.448 0 160.128-71.68 160.128-160.128s-71.68-160.128-160.128-160.128c-88.448 0-160.128 71.68-160.128 160.128s71.68 160.128 160.128 160.128zM512 517.504c-51.2 0-92.736-41.472-92.736-92.672s41.536-92.736 92.736-92.736 92.736 41.536 92.736 92.736-41.536 92.672-92.736 92.672z" />
<glyph unicode="&#xe956;" glyph-name="pattern1" d="M649.634 448c0 24.324-19.719 44.043-44.043 44.043l-191.191-0.18c-22.446-2.025-40.034-20.89-40.034-43.863 0-24.324 19.719-44.043 44.043-44.043l191.191 0.18c22.446 2.025 40.034 20.89 40.034 43.863zM275.089 919.966c-2.026 22.446-20.89 40.034-43.863 40.034-24.324 0-44.043-19.719-44.043-44.043v-143.14h-143.14l-4.009-0.18c-22.446-2.025-40.034-20.89-40.034-43.863 0-24.324 19.719-44.043 44.043-44.043h143.14v-473.462h-143.14l-4.009-0.18c-22.446-2.026-40.034-20.89-40.034-43.863 0-24.324 19.719-44.043 44.043-44.043h143.14v-143.142l0.18-4.002c2.025-22.451 20.89-40.038 43.863-40.038 24.324 0 44.043 19.721 44.043 44.041v143.142h473.462v-143.142l0.18-4.002c2.026-22.451 20.89-40.038 43.863-40.038 24.324 0 44.043 19.721 44.043 44.041v143.142h143.142l4.002 0.18c22.451 2.025 40.038 20.89 40.038 43.863 0 24.324-19.721 44.043-44.041 44.043h-143.142v473.462h143.142l4.002 0.18c22.451 2.026 40.038 20.89 40.038 43.863 0 24.324-19.721 44.043-44.041 44.043h-143.142v143.14l-0.18 4.009c-2.025 22.446-20.89 40.034-43.863 40.034-24.324 0-44.043-19.719-44.043-44.043v-143.14h-473.462v143.14l-0.18 4.009zM275.269 684.731h473.462v-473.462h-473.462v473.462z" />
<glyph unicode="&#xe957;" glyph-name="pause" d="M289.024 832c17.28 0 31.36-13.184 32.896-30.080l0.128-2.944v-701.952c0-18.24-14.72-33.024-33.024-33.024-17.28 0-31.36 13.184-32.896 30.080l-0.128 2.88v702.016c0 18.24 14.784 33.024 33.024 33.024zM745.344 832c17.152 0 31.36-13.184 32.832-30.080l0.128-2.944v-701.952c0-18.24-14.72-33.024-33.024-33.024-17.28 0-31.36 13.184-32.896 30.080l-0.128 2.944v701.952c0 18.24 14.784 33.024 33.024 33.024z" />
<glyph unicode="&#xe958;" glyph-name="phone-number" d="M268.48 832l-93.312-93.312c-51.2-51.2-62.272-130.816-25.664-193.344 40.768-69.952 74.112-121.6 213.76-260.928 139.328-139.648 177.28-158.656 246.080-198.912 62.72-36.608 142.144-25.472 193.088 25.664l93.568 93.312-180.608 180.416-73.408-73.408c-8.768 3.904-22.016 10.88-37.248 20.608-31.488 20.16-71.808 50.944-107.2 86.592-35.712 35.456-70.4 79.68-94.528 115.328-11.776 17.6-21.248 33.536-26.368 43.968l-0.448 0.96 72.704 72.704-180.416 180.352zM268.48 748.16l96.64-96.512-42.432-42.624c-8.768-8.832-9.728-18.56-9.472-24.064 0-5.376 0.896-9.024 1.856-12.544 2.048-7.168 4.864-13.44 8.32-20.8 7.168-14.4 17.6-31.488 30.528-50.944 25.984-38.4 62.528-84.992 101.44-124.16 39.168-38.848 82.176-71.744 117.632-94.208 17.6-11.328 33.088-19.904 46.336-25.664 6.72-3.072 12.736-5.376 19.84-6.72 3.52-0.704 7.488-1.152 12.8-0.704 5.312 0.192 13.632 2.048 21.056 9.472l42.368 42.368 96.768-96.576-51.584-51.584c-32.192-32.192-81.984-39.168-121.344-16.256-69.952 40.96-96.576 51.84-234.368 189.44-137.536 137.792-163.904 180.16-204.16 249.152-22.976 39.36-16 89.152 16.192 121.344l51.584 51.584z" />
<glyph unicode="&#xe959;" glyph-name="play" d="M308.288 825.728l454.144-325.824c17.536-12.608 18.432-38.464 1.792-52.288l-454.144-375.936c-21.504-17.856-54.080-2.56-54.080 25.408v701.824c0 26.88 30.4 42.496 52.288 26.88zM322.048 734.592v-567.296l367.104 303.936-367.104 263.36z" />
<glyph unicode="&#xe95a;" glyph-name="publish" d="M227.584 811.904c0 24.512 24.768 40.768 46.912 31.872l2.624-1.216 520.32-259.968c24.256-12.16 25.152-45.888 2.752-59.712l-2.816-1.536-501.312-250.496v-186.816c0-17.92-13.696-32.512-31.168-34.112l-3.072-0.128c-17.92 0-32.576 13.696-34.112 31.104l-0.128 3.136v727.872zM296.064 756.544v-409.152l409.344 204.544-409.344 204.608z" />
<glyph unicode="&#xe95b;" glyph-name="quick-reply" d="M181.824 422.592l-2.048-1.984c-19.712-20.608-5.44-55.744 24-55.744h211.712l-43.712-262.272c-5.248-31.68 33.28-51.52 55.936-28.8l403.2 403.072c17.92 21.056 3.2 54.272-25.28 54.272h-161.664l43.776 262.272c5.12 30.72-31.232 50.816-54.528 30.080l-451.456-400.832zM607.168 712l-34.752-208.448-0.32-2.752c-1.6-19.008 13.44-35.712 32.896-35.712h120.832l-271.872-271.68 33.152 199.040 0.384 2.752c1.6 19.008-13.44 35.712-32.96 35.712h-163.84l316.48 281.088z" />
<glyph unicode="&#xe95c;" glyph-name="radio-button" d="M522.496 831.872c-211.584 5.952-388.352-161.536-394.368-373.12-5.952-211.648 161.536-388.608 373.12-394.624 211.648-5.76 388.608 161.536 394.624 373.376 1.152 44.288-5.568 86.976-18.432 126.912l-48.704-45.952c5.76-25.6 8.768-52.16 8.064-79.616-5.12-179.072-154.88-320.512-333.888-315.648-179.072 5.12-320.768 154.88-315.904 333.888 5.12 179.072 154.88 320.768 333.888 315.904 58.624-1.856 113.088-19.2 159.936-48l44.288 41.984c-58.176 38.784-127.36 62.784-202.624 64.896zM807.296 723.392l-354.56-354.432-97.28 97.152-20.8 20.992-41.728-41.792 20.992-20.736 138.88-139.136 396.224 396.16-41.792 41.792z" />
<glyph unicode="&#xe95d;" glyph-name="range-slider" d="M669.538 960c-51.076 0-94.461-33.231-110.769-78.769h-519.385c-21.752 0-39.385-17.633-39.385-39.385s17.633-39.384 39.385-39.384h519.385c16.307-45.539 59.692-78.769 110.769-78.769s94.461 33.231 110.769 78.769h125.54c21.751 0 39.381 17.632 39.381 39.384s-17.63 39.385-39.381 39.385h-125.54c-16.308 45.538-59.692 78.769-110.769 78.769zM669.538 881.231c22.154 0 39.385-17.231 39.385-39.385s-17.231-39.384-39.385-39.384c-22.153 0-39.384 17.231-39.384 39.384s17.231 39.385 39.384 39.385zM275.692 566.154c-51.077 0-94.461-33.231-110.769-78.769h-125.538c-21.751 0-39.385-17.633-39.385-39.385s17.633-39.385 39.385-39.385h125.538c16.308-45.538 59.692-78.769 110.769-78.769s94.461 33.231 110.769 78.769h519.386c21.751 0 39.381 17.633 39.381 39.385s-17.63 39.385-39.381 39.385h-519.386c-16.308 45.538-59.692 78.769-110.769 78.769zM275.692 487.385c22.153 0 39.385-17.231 39.385-39.385s-17.231-39.385-39.385-39.385c-22.154 0-39.385 17.231-39.385 39.385s17.231 39.385 39.385 39.385zM669.538 172.308c-51.076 0-94.461-33.231-110.769-78.765h-519.385c-21.751 0-39.385-17.638-39.385-39.39s17.633-39.381 39.385-39.381h519.385c16.307-45.542 59.692-78.771 110.769-78.771s94.461 33.229 110.769 78.771h125.54c21.751 0 39.381 17.63 39.381 39.381s-17.63 39.39-39.381 39.39h-125.54c-16.308 45.535-59.692 78.765-110.769 78.765zM669.538 93.542c22.154 0 39.385-17.237 39.385-39.39s-17.231-39.381-39.385-39.381c-22.153 0-39.384 17.229-39.384 39.381s17.231 39.39 39.384 39.39z" />
<glyph unicode="&#xe95e;" glyph-name="range-slider1" d="M630.144 832c-38.272 0-70.848-24.96-83.072-59.072h-419.072v-59.072h419.072c12.224-34.176 44.8-59.072 83.072-59.072 38.336 0 70.848 24.96 83.072 59.072h123.712v59.072h-123.712c-12.16 34.176-44.8 59.072-83.072 59.072zM630.144 772.928c16.64 0 29.568-12.928 29.568-29.568s-12.928-29.504-29.568-29.504-29.504 12.928-29.504 29.504c0 16.64 12.928 29.568 29.504 29.568zM334.784 536.64c-38.336 0-70.848-24.96-83.072-59.072h-123.712v-59.136h123.712c12.16-34.112 44.8-59.072 83.072-59.072s70.848 24.96 83.072 59.072h419.072v59.136h-419.072c-12.224 34.112-44.8 59.072-83.072 59.072zM334.784 477.568c16.64 0 29.504-12.928 29.504-29.568s-12.928-29.568-29.504-29.568c-16.64 0-29.568 12.928-29.568 29.568s12.928 29.568 29.568 29.568zM630.144 241.216c-38.272 0-70.848-24.96-83.072-59.072h-419.072v-59.072h419.072c12.224-34.176 44.8-59.072 83.072-59.072 38.336 0 70.848 24.96 83.072 59.072h123.712v59.072h-123.712c-12.16 34.176-44.8 59.072-83.072 59.072zM630.144 182.144c16.64 0 29.568-12.928 29.568-29.504 0-16.64-12.928-29.568-29.568-29.568s-29.504 12.928-29.504 29.568 12.928 29.504 29.504 29.504z" />
<glyph unicode="&#xe95f;" glyph-name="record" d="M512 908.8c254.464 0 460.8-206.336 460.8-460.8s-206.336-460.8-460.8-460.8-460.8 206.336-460.8 460.8 206.336 460.8 460.8 460.8zM512 840.512c-216.768 0-392.512-175.744-392.512-392.512s175.744-392.512 392.512-392.512 392.512 175.744 392.512 392.512-175.744 392.512-392.512 392.512zM512 640c106.048 0 192-85.952 192-192s-85.952-192-192-192-192 85.952-192 192 85.952 192 192 192z" />
<glyph unicode="&#xe960;" glyph-name="remote-lookup" d="M512 768c-102.592 0-191.872-71.296-216.576-169.344-60.352-8.96-108.288-57.088-117.696-119.68-66.944-22.656-113.728-86.528-113.728-158.976 0-92.544 75.52-168 168-168h560c92.544 0 168 75.52 168 168 0 50.304-22.336 97.344-60.8 129.088 3.264 12.864 4.8 25.984 4.8 38.912 0 101.952-90.112 185.088-196.48 165.376-39.36 70.208-113.408 114.624-195.52 114.624zM512 712c67.584 0 128.384-40.256 154.88-102.4l9.856-24.064 24.512 8.32c12.672 4.16 24.064 6.144 34.752 6.144 61.696 0 112-50.304 112-112 0-13.12-2.624-26.496-7.872-39.808l-7.872-21.44 19.2-12.224c32.832-20.8 52.544-56 52.544-94.528 0-61.696-50.304-112-112-112h-560c-61.696 0-112 50.304-112 112 0 53.12 37.824 99.328 89.664 109.824l23.040 6.528-0.704 23.68c0 46.336 37.632 83.968 81.152 84.16l5.696-0.64h24.32l3.456 24.32c11.584 82.24 82.688 144.128 165.376 144.128zM456 488l-112-83.328 112-83.328v54.656h168v-56l112 84.032-112 83.968v-56h-168v56z" />
<glyph unicode="&#xe961;" glyph-name="return" d="M496.512 888.448l2.368-2.176 118.592-118.464c12.224-12.224 12.928-31.552 2.176-44.608l-2.176-2.368-118.592-118.592c-12.928-12.928-33.92-12.928-46.912 0-12.16 12.224-12.928 31.552-2.176 44.608l2.176 2.368 61.696 61.696-10.688-0.256c-171.648-7.296-308.544-148.736-308.544-321.984 0-177.984 144.384-322.304 322.56-322.304 178.048 0 322.496 144.32 322.496 322.304 0 18.304 14.848 33.152 33.216 33.152 18.304 0 33.152-14.848 33.152-33.152 0-214.656-174.144-388.736-388.928-388.736-214.72 0.064-388.928 174.144-388.928 388.8 0 213.632 172.544 387.072 385.92 388.672l-61.952 61.888c-12.16 12.16-12.928 31.552-2.176 44.608l2.176 2.368c12.16 12.16 31.552 12.928 44.544 2.176z" />
<glyph unicode="&#xe962;" glyph-name="rich-text" d="M896 160c0-52.736-43.264-96-96-96h-576c-52.736 0-96 43.264-96 96v576c0 49.664 38.336 90.88 86.784 95.552l9.216 0.448h576c49.664 0 90.88-38.336 95.552-86.784l0.448-9.216v-576zM192 160c0-17.984 14.016-32 32-32h576c17.984 0 32 14.016 32 32v576c0 16-11.072 28.8-26.176 31.488l-5.824 0.512h-576c-16 0-28.8-11.072-31.488-26.176l-0.512-5.824v-576zM512 256v-64h-256v64h256zM576 384v-64h-320v64h320zM768 704v-192h-512v192h512zM704 640h-384v-64h384v64z" />
<glyph unicode="&#xe963;" glyph-name="search" d="M467.072 844.8c194.304 0 351.808-157.952 351.808-352.768 0-85.12-30.080-163.2-80.128-224.192l162.816-161.28c13.312-13.184 13.44-34.752 0.32-48.128-12.416-12.544-32.192-13.44-45.568-2.432l-2.432 2.176-163.072 161.536c-60.8-50.24-138.752-80.512-223.744-80.512-194.368 0-351.872 157.952-351.872 352.832 0 194.816 157.504 352.768 351.872 352.768zM467.072 776.768c-156.864 0-284.032-127.488-284.032-284.8 0-157.248 127.168-284.736 284.032-284.736 156.8 0 283.968 127.488 283.968 284.8 0 157.248-127.104 284.8-283.968 284.8z" />
<glyph unicode="&#xe964;" glyph-name="section" d="M160 832c-17.664 0-32-14.336-32-32s14.336-32 32-32 32 14.336 32 32-14.336 32-32 32zM568.64 768c-29.952 0-56.64-24.128-56.64-55.232v-72.768h-320v64h-64v-416c0-52.672 43.328-96 96-96h288v-74.624c0-31.808 28.032-53.248 56.64-53.248h270.72c28.544 0 56.768 21.504 56.768 53.248v149.376c0 31.808-28.16 53.248-56.768 53.248h-143.872l-20.096 35.392c-10.24 18.24-29.44 28.608-49.536 28.608h-57.216c-29.952 0-56.64-24.128-56.64-55.232v-72.768h-288c-17.984 0-32 14.016-32 32v288h320v-74.752c0-31.68 28.032-53.184 56.64-53.12h270.72c28.544 0 56.768 21.504 56.768 53.248v149.376c0 31.808-28.16 53.248-56.768 53.248h-143.872l-20.096 35.392c-10.24 18.24-29.44 28.608-49.536 28.608h-57.216zM576 704h45.888l22.4-39.36 11.52-24.64h176.256v-127.872h-256.064v191.872zM576 320h45.888l22.4-39.36 11.52-24.64h176.256v-127.872h-256.064v191.872z" />
<glyph unicode="&#xe965;" glyph-name="settings" d="M605.632 903.104c16 0 29.888-11.328 33.024-27.136l5.184-26.112 16.192-78.72 2.56-1.216c19.712-8.96 38.72-19.968 57.024-32.768l3.264-2.368 80.832 27.008 26.048 8.064c14.976 4.672 31.168-1.6 39.040-15.168l13.44-22.976 66.752-111.744 13.504-23.232c8.192-14.016 5.248-31.808-6.976-42.432l-20.096-17.536-60.288-51.328 0.64-4.16c1.856-11.904 2.624-20.16 2.816-29.632v-3.648c0-11.072-0.768-19.904-2.816-33.28l-0.64-4.096 60.608-51.648 19.84-17.28c12.16-10.624 15.104-28.416 6.912-42.432l-13.696-23.488-66.368-111.168-13.568-23.296c-7.936-13.632-24.192-19.904-39.168-15.232l-26.688 8.32-80.128 26.816-3.2-2.368c-18.368-12.8-37.376-23.744-57.088-32.768l-2.56-1.152-16.128-78.592-5.248-26.304c-3.136-15.808-16.96-27.136-33.024-27.136h-187.328c-16.064 0-29.952 11.392-33.024 27.2l-5.12 26.048-16.256 78.784-2.56 1.152c-19.712 8.96-38.72 19.968-57.024 32.768l-3.328 2.368-80.704-27.008-26.048-8.128c-15.040-4.736-31.36 1.664-39.168 15.296l-13.248 22.848-66.88 111.872-13.44 23.232c-8.128 13.952-5.248 31.744 6.912 42.368l20.096 17.536 60.288 51.392-1.024 6.72c-1.536 10.432-2.24 18.176-2.432 26.816v3.84c0 8.832 0.64 17.216 1.92 27.008l1.536 10.368-60.672 51.648-19.712 17.28c-12.16 10.624-15.040 28.416-6.976 42.368l13.696 23.616 66.432 111.104 13.44 23.232c7.936 13.568 24.192 19.904 39.168 15.232l26.752-8.32 80.064-26.752 3.328 2.368c18.304 12.8 37.312 23.744 57.024 32.768l2.56 1.152 16.192 78.528 5.12 26.24c3.2 15.872 17.024 27.264 33.088 27.264zM577.92 835.648h-131.84l-19.712-95.616c-2.112-10.24-8.832-18.88-18.112-23.488l-2.88-1.28c-27.136-10.304-52.992-25.344-77.568-44.608-8.96-7.040-20.736-9.024-31.488-5.44l-96.448 32.384-66.176-110.72 73.408-62.464c8.192-6.976 12.544-17.408 11.776-28.096l-0.384-3.2-2.816-16.512c-2.048-12.416-2.944-20.608-2.944-28.544 0-7.68 0.64-14.4 2.688-26.688l3.072-18.56c1.92-11.712-2.432-23.488-11.392-31.104l-73.408-62.464 66.176-110.656 96.448 32.256c9.664 3.2 20.224 1.92 28.736-3.52l2.752-1.92c24.576-19.264 50.432-34.304 77.568-44.672 10.752-4.096 18.688-13.44 20.992-24.704l19.648-95.616h131.904l19.648 95.616c2.112 10.24 8.832 18.88 18.112 23.488l2.88 1.28c27.136 10.304 52.992 25.344 77.568 44.608 8.96 7.040 20.736 9.024 31.488 5.44l96.448-32.256 66.112 110.72-73.344 62.4c-8.192 6.976-12.48 17.408-11.776 28.032l0.384 3.2 3.456 20.672c1.28 8.384 1.984 14.080 2.176 19.648l0.128 4.736c0 7.296-0.64 13.632-2.304 24.448l-3.456 20.736c-1.92 11.648 2.368 23.488 11.392 31.168l73.344 62.464-66.048 110.72-96.512-32.32c-9.664-3.2-20.224-1.92-28.736 3.52l-2.752 1.92c-24.576 19.264-50.432 34.304-77.568 44.672-10.752 4.096-18.688 13.44-20.992 24.704l-19.648 95.616zM512 601.92c85.12 0 154.112-69.056 154.112-154.112 0-85.12-69.056-154.112-154.112-154.112-85.12 0-154.112 68.992-154.112 154.112s69.056 154.112 154.112 154.112zM512 534.464c-47.872 0-86.656-38.848-86.656-86.656s38.784-86.656 86.656-86.656c47.872 0 86.656 38.848 86.656 86.656s-38.784 86.656-86.656 86.656z" />
<glyph unicode="&#xe966;" glyph-name="shape" d="M356.224 847.872c11.264 19.712 38.272 21.376 52.16 4.928l3.392-4.928 127.744-223.872c108.992 48.512 238.528 25.856 323.84-58.944 91.52-91.008 109.376-231.040 43.52-341.376-65.664-110.080-198.272-163.2-323.584-129.984-120.576 31.936-205.952 136.32-212.48 257.728h-242.816c-22.656 0-37.568 22.592-30.080 42.88l2.304 4.992 256 448.512zM571.456 568.192l96.32-168.832c11.264-19.712-1.024-43.776-22.272-47.36l-5.504-0.576h-205.184c6.464-92.16 72.128-171.328 164.8-195.84 97.856-25.984 201.28 15.488 252.224 100.928 50.752 85.12 36.992 192.832-33.664 263.168-64.896 64.512-162.944 82.816-246.72 48.384zM384 767.424l-200.896-351.872h401.728l-200.832 351.936z" />
<glyph unicode="&#xe967;" glyph-name="share" d="M705.024 832c79.744 0 144.384-64.64 144.384-144.32 0-79.744-64.64-144.32-144.384-144.32-37.632 0-72 14.4-97.664 38.080l-135.68-101.76c5.76-15.616 8.96-32.512 8.96-50.112 0-17.088-2.944-33.472-8.384-48.704l134.272-67.072c25.792 24.128 60.416 38.848 98.56 38.848 79.68 0 144.32-64.64 144.32-144.32s-64.64-144.32-144.384-144.32c-79.68 0-144.32 64.64-144.32 144.32 0 17.152 3.008 33.536 8.448 48.768l-134.272 67.072c-25.792-24.128-60.416-38.912-98.56-38.912-79.68 0-144.32 64.64-144.32 144.32s64.64 144.32 144.32 144.32c37.76 0 72.064-14.464 97.728-38.144l135.68 101.696c-5.824 15.616-8.96 32.576-8.96 50.24-0.064 79.68 64.512 144.32 144.192 144.32zM705.024 285.248c-42.432 0-76.864-34.432-76.864-76.928s34.432-76.928 76.864-76.928c42.496 0 76.928 34.432 76.928 76.928s-34.432 76.928-76.928 76.928zM336.384 506.496c-42.56 0-76.992-34.432-76.992-76.928s34.432-76.928 76.928-76.928c42.496 0 76.928 34.432 76.928 76.928s-34.432 76.928-76.928 76.928zM705.024 764.608c-42.432 0-76.864-34.432-76.864-76.928s34.432-76.928 76.864-76.928c42.496 0 76.928 34.432 76.928 76.928s-34.432 76.928-76.928 76.928z" />
<glyph unicode="&#xe968;" glyph-name="sort-down" d="M514.048 846.208c18.048 0 32.896-13.824 34.496-31.424l0.128-3.2v-649.536l137.344 123.584c13.44 12.16 33.664 11.776 46.656-0.32l2.176-2.24c12.16-13.44 11.776-33.664-0.32-46.656l-2.24-2.24-195.008-175.488c-12.416-11.2-30.848-11.84-43.968-1.984l-2.368 1.92-195.072 175.552c-14.208 12.8-15.36 34.688-2.56 48.896 12.096 13.44 32.32 15.232 46.464 4.608l2.432-2.048 137.216-123.52v649.472c0 19.2 15.552 34.624 34.624 34.624z" />
<glyph unicode="&#xe969;" glyph-name="sort-up" d="M534.848 839.296l2.432-1.92 195.008-175.552c14.208-12.8 15.36-34.688 2.56-48.896-12.032-13.44-32.256-15.232-46.4-4.608l-2.432 1.984-137.344 123.584v-649.408c0-19.2-15.424-34.624-34.56-34.624-18.048 0-32.896 13.824-34.496 31.424l-0.128 3.2v649.408l-137.28-123.52c-13.44-12.16-33.664-11.776-46.72 0.32l-2.176 2.24c-12.032 13.44-11.712 33.664 0.32 46.656l2.24 2.24 195.072 175.488c12.416 11.2 30.848 11.84 43.904 1.984z" />
<glyph unicode="&#xe96a;" glyph-name="sort" d="M717.376 771.392c18.432 0 33.408-14.976 33.408-33.408v-537.792l103.040 97.6 2.304 1.92c13.44 10.624 32.96 9.472 44.928-3.2 12.672-13.44 12.16-34.56-1.28-47.296l-163.008-154.496-2.368-2.048c-12.928-10.176-31.488-9.472-43.648 2.048l-163.008 154.496-2.112 2.24c-11.328 12.8-11.2 32.384 0.832 45.056l2.176 2.112c12.8 11.328 32.384 11.136 45.056-0.832l110.208-104.448v544.64l0.192 3.008c1.536 17.024 15.808 30.4 33.28 30.4zM330.88 782.208l2.368-2.048 163.008-154.56c13.44-12.672 14.016-33.856 1.28-47.232-11.968-12.672-31.552-13.888-44.928-3.264l-2.304 1.984-103.040 97.664v-537.856c0-18.432-14.976-33.408-33.408-33.408-17.408 0-31.744 13.312-33.28 30.4l-0.128 3.008-0.128 544.704-110.144-104.512c-12.608-11.968-32.192-12.16-45.056-0.832l-2.176 2.112c-11.968 12.672-12.16 32.192-0.832 45.056l2.112 2.176 163.008 154.56c12.16 11.52 30.72 12.16 43.648 2.048z" />
<glyph unicode="&#xe96b;" glyph-name="sorting" d="M36.571 923.429c-20.198 0-36.571-16.374-36.571-36.571s16.374-36.571 36.571-36.571c20.198 0 36.571 16.374 36.571 36.571s-16.374 36.571-36.571 36.571zM768 850.286c-20.195 0-36.571-16.374-36.571-36.571v-624.859l-140.553 140.314c-14.215 14.191-37.24 14.181-51.444-0.022-14.206-14.206-14.212-37.236-0.014-51.451l205.556-205.789c12.712-12.727 33.346-12.734 46.065-0.007l205.531 205.529c14.336 14.337 14.27 37.6-0.146 51.857-14.299 14.146-37.347 14.082-51.566-0.143l-140.288-140.287v624.859c0 20.198-16.377 36.571-36.571 36.571zM36.571 777.143c-20.198 0-36.571-16.374-36.571-36.571s16.374-36.571 36.571-36.571h73.143c20.198 0 36.571 16.374 36.571 36.571s-16.374 36.571-36.571 36.571h-73.143zM36.571 630.857c-20.198 0-36.571-16.374-36.571-36.571s16.374-36.571 36.571-36.571h146.286c20.198 0 36.571 16.374 36.571 36.571s-16.374 36.571-36.571 36.571h-146.286zM36.571 484.571c-20.198 0-36.571-16.374-36.571-36.571s16.374-36.571 36.571-36.571h219.429c20.198 0 36.571 16.374 36.571 36.571s-16.374 36.571-36.571 36.571h-219.429zM36.571 338.286c-20.198 0-36.571-16.374-36.571-36.571s16.374-36.571 36.571-36.571h292.571c20.198 0 36.571 16.374 36.571 36.571s-16.374 36.571-36.571 36.571h-292.571zM36.571 192c-20.198 0-36.571-16.377-36.571-36.571s16.374-36.571 36.571-36.571h365.714c20.198 0 36.571 16.377 36.571 36.571s-16.374 36.571-36.571 36.571h-365.714zM36.571 45.714c-20.198 0-36.571-16.377-36.571-36.571s16.374-36.571 36.571-36.571h438.857c20.198 0 36.571 16.377 36.571 36.571s-16.374 36.571-36.571 36.571h-438.857z" />
<glyph unicode="&#xe96c;" glyph-name="star" d="M512 896c-247.424 0-448-200.576-448-448s200.576-448 448-448 448 200.576 448 448-200.576 448-448 448zM512 829.632c210.752 0 381.632-170.88 381.632-381.632s-170.88-381.632-381.632-381.632-381.632 170.88-381.632 381.632 170.88 381.632 381.632 381.632z" />
<glyph unicode="&#xe96d;" glyph-name="steps" d="M675.2 810.688v-204.8h-353.92v-155.52h92.16v80h409.344v-204.8h-409.28v95.552h-92.224v-211.008h92.288v80h409.344v-204.8h-409.408v95.552h-120.064v424.96h-80.192v204.8h461.888z" />
<glyph unicode="&#xe96e;" glyph-name="storyboard" d="M512 832c212.096 0 384-171.84 384-383.808 0-68.352-17.92-134.144-51.328-191.872l49.664-148.8c8.32-24.96-14.272-48.64-39.104-42.56l-2.688 0.768-149.248 49.792-9.6-5.568c-55.36-29.696-117.376-45.504-181.696-45.504-212.032 0-384 171.776-384 383.744s171.968 383.808 384 383.808zM512 765.952c-175.616 0-317.952-142.272-317.952-317.76 0-175.424 142.336-317.696 317.952-317.696 58.624 0 114.88 15.872 163.968 45.44 8.64 5.12 18.624 5.952 27.52 3.008 5.248 1.536 10.944 1.728 16.64 0.448l2.88-0.832 87.744-29.248-29.248 87.68-1.088 4.224c-7.040 10.56-7.552 24.704-0.32 36.032 32.384 50.56 49.92 109.44 49.92 170.944 0 175.488-142.4 317.76-318.016 317.76zM512 405.76c18.24 0 33.024-14.72 33.024-33.024 0-17.216-13.184-31.36-30.016-32.896l-3.008-0.128h-100.288c-18.24 0-33.024 14.784-33.024 33.024 0 17.28 13.184 31.36 30.080 32.896l2.944 0.128h100.288zM612.288 581.312c18.24 0 33.024-14.784 33.024-33.024 0-17.28-13.184-31.36-30.016-32.896l-3.008-0.192h-200.576c-18.24 0-33.024 14.848-33.024 33.088 0 17.216 13.184 31.36 30.080 32.896l2.944 0.128h200.576z" />
<glyph unicode="&#xe96f;" glyph-name="survey" d="M516.928 832c-38.336 0-70.848-24.96-83.072-59.072h-153.216c-48.704 0-88.64-39.936-88.64-88.64v-531.648c0-48.704 39.936-88.64 88.64-88.64h472.576c48.704 0 88.64 39.936 88.64 88.64v531.648c0 48.704-39.936 88.64-88.64 88.64h-153.216c-12.224 34.112-44.8 59.072-83.072 59.072zM516.928 772.928c16.64 0 29.504-12.928 29.504-29.568v-29.504h59.136v-59.072h-177.28v59.072h59.072v29.504c0 16.64 12.928 29.568 29.568 29.568zM280.64 713.856h88.576v-118.144h295.424v118.144h88.576c16.64 0 29.568-12.928 29.568-29.568v-531.648c0-16.64-12.928-29.568-29.568-29.568h-472.576c-16.64 0-29.568 12.928-29.568 29.568v531.648c0 16.64 12.928 29.568 29.568 29.568zM310.144 477.568v-59.136h59.072v59.136h-59.072zM428.288 477.568v-59.136h295.424v59.136h-295.424zM310.144 300.288v-59.072h59.072v59.072h-59.072zM428.288 300.288v-59.072h295.424v59.072h-295.424z" />
<glyph unicode="&#xe970;" glyph-name="synonyms" d="M236.308 960c-64.923 0-118.154-53.231-118.154-118.154v-812.103c0-9.893 1.576-19.866 6.522-28.436 21.488-37.218 67.299-65.308 111.632-65.308h630.154c21.751 0 39.385 17.636 39.385 39.385s-17.633 39.385-39.385 39.385h-630.154c-22.154 0-39.385 17.235-39.385 39.385s17.231 39.385 39.385 39.385h630.154c21.751 0 39.385 17.636 39.385 39.385s-17.633 39.385-39.385 39.385h-630.154c-22.154 0-39.385 17.231-39.385 39.385s17.231 39.385 39.385 39.385h630.154c21.751 0 39.385 17.633 39.385 39.385v630.154c0 21.751-17.633 39.385-39.385 39.385h-630.154zM236.308 881.231h551.385c21.751 0 39.385-17.633 39.385-39.385v-472.615c0-21.751-17.633-39.385-39.385-39.385h-551.385c-13.846 0-27.077-3.077-39.385-7.385v519.385c0 22.154 17.231 39.385 39.385 39.385zM315.077 723.692c-21.751 0-39.385-17.633-39.385-39.385s17.633-39.385 39.385-39.385h393.846c21.751 0 39.385 17.633 39.385 39.385s-17.633 39.385-39.385 39.385h-393.846z" />
<glyph unicode="&#xe971;" glyph-name="tab" d="M216.64 768c-48.704 0-88.64-39.936-88.64-88.64v-561.216h768v561.28c0 48.576-39.936 88.576-88.64 88.576h-590.72zM216.64 708.928h236.288c16.64 0 29.504-12.928 29.504-29.568v-88.576h324.928c16.64 0 29.568-12.928 29.568-29.568v-384h-649.856v502.144c0 4.16 0.896 8.128 2.304 11.52 4.416 10.88 14.72 18.048 27.264 18.048zM536 708.928h271.36c12.48 0 22.848-7.168 27.264-17.984 1.344-3.456 2.304-7.424 2.304-11.52v-35.136c-3.904 1.408-7.68 2.816-11.776 3.712-5.76 1.152-11.776 1.856-17.792 1.856h-265.792v29.504c0 10.432-2.368 20.352-5.568 29.568z" />
<glyph unicode="&#xe972;" glyph-name="table" d="M216.64 832c-48.704 0-88.64-39.936-88.64-88.64v-590.72c0-48.704 39.936-88.64 88.64-88.64h590.72c48.704 0 88.64 39.936 88.64 88.64v590.72c0 48.704-39.936 88.64-88.64 88.64h-590.72zM216.64 772.928h147.648v-177.28h-177.216v147.776c0 16.64 12.928 29.568 29.568 29.568zM423.36 772.928h177.28v-177.28h-177.28v177.28zM659.712 772.928h147.648c16.64 0 29.568-12.928 29.568-29.568v-147.648h-177.28v177.216zM187.072 536.64h177.28v-177.28h-177.28v177.28zM423.36 536.64h177.28v-177.28h-177.28v177.28zM659.712 536.64h177.216v-177.28h-177.28v177.28zM187.072 300.288h177.28v-177.216h-147.776c-16.64 0-29.568 12.928-29.568 29.568v147.648zM423.36 300.288h177.28v-177.216h-177.28v177.28zM659.712 300.288h177.216v-147.648c0-16.64-12.928-29.568-29.568-29.568h-147.648v177.28z" />
</font>
</defs>
</svg>
