<?xml version="1.0" encoding="UTF-8"?>
<svg width="17px" height="16px" viewBox="0 0 17 16" version="1.1" xmlns="http://www.w3.org/2000/svg" xmlns:xlink="http://www.w3.org/1999/xlink">
    <!-- Generator: Sketch 53.2 (72643) - https://sketchapp.com -->
    <title>componentPropertyGray</title>
    <desc>Created with Sketch.</desc>
    <g id="Page-1" stroke="none" stroke-width="1" fill="none" fill-rule="evenodd" stroke-linecap="round" stroke-linejoin="round">
        <g id="componentPropertyGray" transform="translate(0.000000, 1.000000)" stroke="#9AA0A6" stroke-width="1.5">
            <path d="M6.477,0 L6.386,0.437 L6.039,2.035 C5.484,2.235 4.981,2.52 4.526,2.858 L2.83,2.32 L2.374,2.187 L2.138,2.572 L0.97,4.423 L0.734,4.809 L1.08,5.096 L2.392,6.154 C2.344,6.431 2.283,6.704 2.283,6.995 C2.283,7.286 2.344,7.56 2.392,7.837 L1.08,8.895 L0.734,9.182 L0.97,9.568 L2.138,11.418 L2.374,11.805 L2.83,11.67 L4.526,11.133 C4.981,11.471 5.484,11.755 6.039,11.956 L6.386,13.554 L6.476,13.991 L9.76,13.991 L9.851,13.554 L10.197,11.956 C10.7388105,11.7570087 11.2485538,11.4797326 11.71,11.133 L13.407,11.67 L13.862,11.805 L14.1,11.419 L15.266,9.568 L15.504,9.182 L15.157,8.895 L13.844,7.837 C13.893,7.56 13.953,7.287 13.953,6.995 C13.953,6.705 13.893,6.431 13.844,6.154 L15.157,5.096 L15.504,4.809 L15.266,4.423 L14.1,2.573 L13.862,2.187 L13.407,2.32 L11.71,2.858 C11.2485538,2.51126741 10.7388105,2.23399131 10.197,2.035 L9.85,0.437 L9.76,0 L6.477,0 Z" id="Path"></path>
            <path d="M10.228,6.999 C10.228,8.102 9.283,8.997 8.118,8.997 C6.954,8.997 6.008,8.102 6.008,6.999 C6.008,5.895 6.954,5 8.118,5 C9.283,5 10.228,5.895 10.228,6.999 L10.228,6.999 Z" id="Path"></path>
        </g>
    </g>
</svg>