<?xml version="1.0" encoding="UTF-8"?>
<svg width="17px" height="16px" viewBox="0 0 17 16" version="1.1" xmlns="http://www.w3.org/2000/svg" xmlns:xlink="http://www.w3.org/1999/xlink">
    <!-- Generator: Sketch 53.2 (72643) - https://sketchapp.com -->
    <title>componentPropertyGreen</title>
    <desc>Created with Sketch.</desc>
    <g id="Page-1" stroke="none" stroke-width="1" fill="none" fill-rule="evenodd" stroke-linecap="round" stroke-linejoin="round">
        <g id="componentPropertyGreen" transform="translate(1.000000, 1.000000)" stroke="#0156D4" stroke-width="1.5">
            <path d="M6.147,0 L6.061,0.437 L5.731,2.035 C5.21474321,2.23587481 4.73166456,2.51331635 4.298,2.858 L2.69,2.32 L2.258,2.187 L2.034,2.572 L0.927,4.423 L0.703,4.809 L1.031,5.096 L2.275,6.154 C2.23,6.431 2.172,6.704 2.172,6.995 C2.172,7.286 2.23,7.56 2.275,7.837 L1.03,8.895 L0.702,9.182 L0.926,9.568 L2.033,11.418 L2.257,11.805 L2.689,11.67 L4.297,11.133 C4.73097121,11.4777704 5.21439272,11.7552152 5.731,11.956 L6.06,13.554 L6.146,13.991 L9.257,13.991 L9.344,13.554 L9.672,11.956 C10.1886073,11.7552152 10.6720288,11.4777704 11.106,11.133 L12.714,11.67 L13.146,11.805 L13.371,11.419 L14.477,9.568 L14.702,9.182 L14.372,8.895 L13.129,7.837 C13.175,7.56 13.232,7.287 13.232,6.995 C13.232,6.705 13.175,6.431 13.129,6.154 L14.373,5.096 L14.702,4.809 L14.477,4.423 L13.371,2.573 L13.146,2.187 L12.714,2.32 L11.106,2.858 C10.6720288,2.51322963 10.1886073,2.23578479 9.672,2.035 L9.344,0.437 L9.258,0 L6.147,0 Z" id="Path"></path>
            <path d="M7.703,8.999 C6.5984305,8.999 5.703,8.1035695 5.703,6.999 C5.703,5.8944305 6.5984305,4.999 7.703,4.999 C8.8075695,4.999 9.703,5.8944305 9.703,6.999 C9.703,8.1035695 8.8075695,8.999 7.703,8.999 Z" id="Path"></path>
        </g>
    </g>
</svg>