<?xml version="1.0" encoding="UTF-8"?>
<svg width="15px" height="16px" viewBox="0 0 15 16" version="1.1" xmlns="http://www.w3.org/2000/svg" xmlns:xlink="http://www.w3.org/1999/xlink">
    <!-- Generator: Sketch 53.2 (72643) - https://sketchapp.com -->
    <title>trainingGray</title>
    <desc>Created with Sketch.</desc>
    <g id="Page-1" stroke="none" stroke-width="1" fill="none" fill-rule="evenodd" stroke-linecap="round" stroke-linejoin="round">
        <g id="trainingGray" transform="translate(1.000000, 1.000000)" stroke="#9AA0A6" stroke-width="1.5">
            <path d="M12.461,2.175 C12.461,3.26548624 11.5769862,4.1495 10.4865,4.1495 C9.39601376,4.1495 8.512,3.26548624 8.512,2.175 C8.512,1.08423762 9.39623762,0.2 10.487,0.2 C11.5777624,0.2 12.462,1.08423762 12.462,2.175 L12.461,2.175 Z M12.625,11.773 C12.625,12.8637624 11.7407624,13.748 10.65,13.748 C9.55923762,13.748 8.675,12.8637624 8.675,11.773 C8.675,10.6822376 9.55923762,9.798 10.65,9.798 C11.7407624,9.798 12.625,10.6822376 12.625,11.773 L12.625,11.773 Z M4.33,6.9 C4.33,7.99076238 3.44576238,8.875 2.355,8.875 C1.26423762,8.875 0.38,7.99076238 0.38,6.9 C0.38,5.80923762 1.26423762,4.925 2.355,4.925 C3.44576238,4.925 4.33,5.80923762 4.33,6.9 L4.33,6.9 Z M4.629,6.91 L7.59,6.91 L4.629,6.91 Z M7.59,6.908 L9.564,3.948 L7.59,6.908 Z M9.564,9.87 L7.59,6.91 L9.564,9.87 Z" id="Shape"></path>
        </g>
    </g>
</svg>