<?xml version="1.0" encoding="UTF-8"?>
<svg width="15px" height="16px" viewBox="0 0 15 16" version="1.1" xmlns="http://www.w3.org/2000/svg" xmlns:xlink="http://www.w3.org/1999/xlink">
    <!-- Generator: Sketch 53.2 (72643) - https://sketchapp.com -->
    <title>trainingGreen</title>
    <desc>Created with Sketch.</desc>
    <g id="Page-1" stroke="none" stroke-width="1" fill="none" fill-rule="evenodd" stroke-linecap="round" stroke-linejoin="round">
        <g id="trainingGreen" transform="translate(1.000000, 1.000000)" stroke="#0156D4" stroke-width="1.5">
            <path d="M12.65,2.175 C12.65,3.2652101 11.7662101,4.149 10.676,4.149 C9.5857899,4.149 8.702,3.2652101 8.702,2.175 C8.702,1.08451376 9.58601376,0.2005 10.6765,0.2005 C11.7669862,0.2005 12.651,1.08451376 12.651,2.175 L12.65,2.175 Z M12.814,11.773 C12.814,12.8634862 11.9299862,13.7474999 10.8395,13.7474999 C9.74901378,13.7474999 8.86500003,12.8634862 8.865,11.773 C8.86500003,10.6825138 9.74901378,9.79850006 10.8395,9.79850006 C11.9299862,9.79850006 12.814,10.6825138 12.814,11.773 L12.814,11.773 Z M4.518,6.9 C4.518,7.9902101 3.6342101,8.874 2.544,8.874 C1.4537899,8.874 0.57,7.9902101 0.57,6.9 C0.57,5.8097899 1.4537899,4.926 2.544,4.926 C3.6342101,4.926 4.518,5.8097899 4.518,6.9 Z M4.818,6.91 L7.78,6.91 L4.818,6.91 Z M7.78,6.908 L9.754,3.948 L7.78,6.908 Z M9.754,9.87 L7.78,6.91 L9.754,9.87 Z" id="Shape"></path>
        </g>
    </g>
</svg>