<svg xmlns="http://www.w3.org/2000/svg" width="16" height="16" viewBox="0 0 16 16">
    <g fill="none" fill-rule="evenodd">
        <path fill="#D8D8D8" fill-opacity="0" d="M0 0H16V16H0z"/>
        <path fill="#FF001F" d="M9.215 2c.868 0 1.576.685 1.613 1.545l.001.07v.577h2.223c.286 0 .518.233.518.519 0 .27-.207.492-.47.516l-.048.002h-.578v7.156c0 .869-.685 1.577-1.545 1.614l-.07.001H5.378c-.869 0-1.577-.685-1.613-1.545l-.002-.07V5.23h-.578c-.286 0-.518-.232-.518-.518 0-.27.207-.492.47-.516l.048-.002 2.222-.001v-.577c0-.869.686-1.577 1.545-1.614L7.022 2h2.193zm2.222 3.229H4.799v7.156c0 .304.234.553.531.577l.048.002h5.481c.304 0 .553-.234.577-.531l.002-.048-.001-7.156zM7.022 6.934c.27 0 .492.207.516.47l.002.048v3.289c0 .286-.232.518-.518.518-.27 0-.492-.207-.516-.47l-.002-.048V7.45c0-.285.232-.517.518-.517zm2.193 0c.27 0 .492.207.516.47l.002.048v3.289c0 .286-.232.518-.518.518-.27 0-.492-.207-.516-.47l-.002-.048V7.45c0-.285.232-.517.518-.517zm0-3.898H7.022c-.303 0-.552.234-.576.531l-.002.048v.577h3.349v-.577c0-.304-.234-.553-.53-.577l-.048-.002z"/>
    </g>
</svg>
