<svg width="14" height="14" viewBox="0 0 14 14" fill="none" xmlns="http://www.w3.org/2000/svg">
<path d="M6.5073 2.18703C6.5073 2.46106 6.72789 2.68321 7 2.68321C7.27211 2.68321 7.4927 2.46106 7.4927 2.18703V0.996185C7.4927 0.722149 7.27211 0.5 7 0.5C6.72789 0.5 6.5073 0.722149 6.5073 0.996185V2.18703Z" fill="#07377F"/>
<path d="M10.9142 3.35584C10.7218 3.16207 10.7218 2.8479 10.9142 2.65413L11.7503 1.81208C11.9428 1.61831 12.2547 1.61831 12.4471 1.81208C12.6395 2.00585 12.6395 2.32002 12.4471 2.51379L11.611 3.35584C11.4186 3.54961 11.1066 3.54961 10.9142 3.35584Z" fill="#07377F"/>
<path d="M11.5821 7.54578C11.5821 7.27175 11.8027 7.0496 12.0748 7.0496H13.2573C13.5294 7.0496 13.75 7.27175 13.75 7.54578C13.75 7.81982 13.5294 8.04197 13.2573 8.04197H12.0748C11.8027 8.04197 11.5821 7.81982 11.5821 7.54578Z" fill="#07377F"/>
<path d="M0.742701 7.0496C0.47059 7.0496 0.25 7.27175 0.25 7.54578C0.25 7.81982 0.47059 8.04197 0.742701 8.04197H1.92518C2.19729 8.04197 2.41788 7.81982 2.41788 7.54578C2.41788 7.27175 2.19729 7.0496 1.92518 7.0496H0.742701Z" fill="#07377F"/>
<path d="M1.54723 1.81208C1.73964 1.61831 2.0516 1.61831 2.24401 1.81208L3.08015 2.65413C3.27256 2.8479 3.27256 3.16207 3.08015 3.35584C2.88774 3.54961 2.57578 3.54961 2.38337 3.35584L1.54723 2.51379C1.35482 2.32002 1.35482 2.00585 1.54723 1.81208Z" fill="#07377F"/>
<path fill-rule="evenodd" clip-rule="evenodd" d="M8.70755 9.53052C9.60589 8.95926 10.2026 7.95056 10.2026 6.80151C10.2026 5.02028 8.76873 3.57631 7 3.57631C5.23128 3.57631 3.79745 5.02028 3.79745 6.80151C3.79745 7.95056 4.39412 8.95926 5.29246 9.53052H5.27555V12.5076C5.27555 13.0557 5.71673 13.5 6.26095 13.5H7.73905C8.28328 13.5 8.72446 13.0557 8.72446 12.5076V9.53052H8.70755ZM7 9.03434C8.2245 9.03434 9.21716 8.03467 9.21716 6.80151C9.21716 5.56835 8.2245 4.56868 7 4.56868C5.7755 4.56868 4.78285 5.56835 4.78285 6.80151C4.78285 8.03467 5.7755 9.03434 7 9.03434ZM7.73905 9.94041C7.50181 9.99684 7.25437 10.0267 7 10.0267C6.74564 10.0267 6.4982 9.99684 6.26095 9.94041V12.5076H7.73905V9.94041Z" fill="#07377F"/>
</svg>
