<svg xmlns="http://www.w3.org/2000/svg" xmlns:xlink="http://www.w3.org/1999/xlink" width="614" height="208" viewBox="0 0 614 208">
    <defs>
        <path id="b" d="M4 0h596a4 4 0 0 1 4 4v102a4 4 0 0 1-4 4H4a4 4 0 0 1-4-4V4a4 4 0 0 1 4-4z"/>
        <filter id="a" width="102.6%" height="114.5%" x="-1.3%" y="-6.4%" filterUnits="objectBoundingBox">
            <feOffset dy="1" in="SourceAlpha" result="shadowOffsetOuter1"/>
            <feGaussianBlur in="shadowOffsetOuter1" result="shadowBlurOuter1" stdDeviation="2.5"/>
            <feComposite in="shadowBlurOuter1" in2="SourceAlpha" operator="out" result="shadowBlurOuter1"/>
            <feColorMatrix in="shadowBlurOuter1" values="0 0 0 0 0.701960784 0 0 0 0 0.729411765 0 0 0 0 0.784313725 0 0 0 0.583220109 0"/>
        </filter>
    </defs>
    <g fill="none" fill-rule="evenodd" transform="translate(5 4)">
        <use fill="#000" filter="url(#a)" xlink:href="#b"/>
        <path fill="#FFF" stroke="#E5E8EC" stroke-linejoin="square" d="M4 .5A3.5 3.5 0 0 0 .5 4v102a3.5 3.5 0 0 0 3.5 3.5h596a3.5 3.5 0 0 0 3.5-3.5V4A3.5 3.5 0 0 0 600 .5H4z"/>
        <circle cx="20" cy="20" r="20" stroke="#E5E8EC" stroke-linecap="round" stroke-linejoin="round" stroke-width="5" transform="translate(30 34)"/>
        <text fill="#18AE08" font-family="Lato-Bold, Lato" font-size="24" font-weight="bold">
            <tspan x="91" y="53">6</tspan> <tspan x="104.92" y="53" font-family="Lato-Light, Lato" font-weight="300">/</tspan> <tspan x="113.476" y="53">8</tspan>
        </text>
        <rect width="37" height="19" x="91" y="35" fill="#E5E8EC" rx="2"/>
        <rect width="37" height="19" x="272" y="62" fill="#E5E8EC" rx="2"/>
        <g fill="#E5E8EC" transform="translate(369 33)">
            <rect width="37" height="19" x="20" y="29" rx="2"/>
            <rect width="77" height="12" rx="2"/>
        </g>
        <g fill="#E5E8EC" transform="translate(486 33)">
            <rect width="37" height="19" x="20" y="29" rx="2"/>
            <rect width="77" height="12" rx="2"/>
        </g>
        <rect width="77" height="12" x="91" y="64" fill="#E5E8EC" rx="2"/>
        <rect width="77" height="12" x="252" y="33" fill="#E5E8EC" rx="2"/>
        <path stroke="#8A959F" stroke-linecap="square" d="M217 33.5v50" opacity=".5"/>
        <rect width="77" height="12" x="8" y="144" fill="#E5E8EC" rx="2"/>
        <path fill="#E5E8EC" d="M10 176h183a2 2 0 0 1 2 2v2a2 2 0 0 1-2 2H10a2 2 0 0 1-2-2v-2a2 2 0 0 1 2-2zM10 198h113a2 2 0 0 1 2 2v2a2 2 0 0 1-2 2H10a2 2 0 0 1-2-2v-2a2 2 0 0 1 2-2z"/>
        <rect width="77" height="12" x="484" y="144" fill="#E5E8EC" rx="2"/>
        <path fill="#E5E8EC" d="M486 176h63a2 2 0 0 1 2 2v2a2 2 0 0 1-2 2h-63a2 2 0 0 1-2-2v-2a2 2 0 0 1 2-2z"/>
        <rect width="77" height="12" x="246" y="144" fill="#E5E8EC" rx="2"/>
        <path fill="#E5E8EC" d="M248 176h183a2 2 0 0 1 2 2v2a2 2 0 0 1-2 2H248a2 2 0 0 1-2-2v-2a2 2 0 0 1 2-2zM248 198h113a2 2 0 0 1 2 2v2a2 2 0 0 1-2 2H248a2 2 0 0 1-2-2v-2a2 2 0 0 1 2-2z"/>
    </g>
</svg>
