<?xml version="1.0" encoding="UTF-8"?>
<svg width="16px" height="18px" viewBox="0 0 16 18" version="1.1" xmlns="http://www.w3.org/2000/svg" xmlns:xlink="http://www.w3.org/1999/xlink">
    <!-- Generator: Sketch 49 (51002) - http://www.bohemiancoding.com/sketch -->
    <title>Group 10</title>
    <desc>Created with Sketch.</desc>
    <defs></defs>
    <g id="6.12" stroke="none" stroke-width="1" fill="none" fill-rule="evenodd">
        <g id="//-Ontology-multipart-response-1" transform="translate(-1294.000000, -461.000000)" fill="#FFFFFF">
            <g id="Group-10" transform="translate(1294.000000, 457.000000)">
                <path d="M4.28571429,15.7142857 C4.28571429,15.4776774 4.20200977,15.2756705 4.03459821,15.1082589 C3.86718666,14.9408474 3.66517975,14.8571429 3.42857143,14.8571429 C3.1919631,14.8571429 2.98995619,14.9408474 2.82254464,15.1082589 C2.65513309,15.2756705 2.57142857,15.4776774 2.57142857,15.7142857 C2.57142857,15.950894 2.65513309,16.1529009 2.82254464,16.3203125 C2.98995619,16.4877241 3.1919631,16.5714286 3.42857143,16.5714286 C3.66517975,16.5714286 3.86718666,16.4877241 4.03459821,16.3203125 C4.20200977,16.1529009 4.28571429,15.950894 4.28571429,15.7142857 Z M6.85714286,15.7142857 C6.85714286,15.4776774 6.77343834,15.2756705 6.60602679,15.1082589 C6.43861523,14.9408474 6.23660833,14.8571429 6,14.8571429 C5.76339167,14.8571429 5.56138477,14.9408474 5.39397321,15.1082589 C5.22656166,15.2756705 5.14285714,15.4776774 5.14285714,15.7142857 C5.14285714,15.950894 5.22656166,16.1529009 5.39397321,16.3203125 C5.56138477,16.4877241 5.76339167,16.5714286 6,16.5714286 C6.23660833,16.5714286 6.43861523,16.4877241 6.60602679,16.3203125 C6.77343834,16.1529009 6.85714286,15.950894 6.85714286,15.7142857 Z M9.42857143,15.7142857 C9.42857143,15.4776774 9.34486691,15.2756705 9.17745536,15.1082589 C9.01004381,14.9408474 8.8080369,14.8571429 8.57142857,14.8571429 C8.33482025,14.8571429 8.13281334,14.9408474 7.96540179,15.1082589 C7.79799023,15.2756705 7.71428571,15.4776774 7.71428571,15.7142857 C7.71428571,15.950894 7.79799023,16.1529009 7.96540179,16.3203125 C8.13281334,16.4877241 8.33482025,16.5714286 8.57142857,16.5714286 C8.8080369,16.5714286 9.01004381,16.4877241 9.17745536,16.3203125 C9.34486691,16.1529009 9.42857143,15.950894 9.42857143,15.7142857 Z M12,15.7142857 C12,16.4910753 11.7321455,17.2087021 11.1964286,17.8671875 C10.6607116,18.5256729 9.93304031,19.045757 9.01339286,19.4274554 C8.0937454,19.8091537 7.08929116,20 6,20 C5.50892612,20 5.03794868,19.9598218 4.58705357,19.8794643 C3.81472828,20.6517896 2.84375585,21.1629452 1.67410714,21.4129464 C1.44196313,21.4575895 1.25000076,21.4866071 1.09821429,21.5 C1.04464259,21.5044643 0.995535938,21.4910716 0.950892857,21.4598214 C0.906249777,21.4285713 0.87723221,21.3883931 0.863839286,21.3392857 C0.845982054,21.2723211 0.890624464,21.1897326 0.997767857,21.0915179 C1.0200894,21.0691963 1.07254423,21.0212057 1.15513393,20.9475446 C1.23772363,20.8738836 1.2946427,20.8214287 1.32589286,20.7901786 C1.35714301,20.7589284 1.40959785,20.7020093 1.48325893,20.6194196 C1.55692001,20.5368299 1.6104909,20.4665181 1.64397321,20.4084821 C1.67745552,20.3504461 1.723214,20.2678577 1.78125,20.1607143 C1.839286,20.0535709 1.88392842,19.9464291 1.91517857,19.8392857 C1.94642873,19.7321423 1.97879448,19.6037954 2.01227679,19.4542411 C2.0457591,19.3046868 2.0736606,19.142858 2.09598214,18.96875 C1.44419317,18.5669623 0.931921507,18.0837082 0.559151786,17.5189732 C0.186382065,16.9542382 0,16.3526818 0,15.7142857 C0,14.9374961 0.267854464,14.2198694 0.803571429,13.5613839 C1.33928839,12.9028985 2.06695969,12.3828144 2.98660714,12.0011161 C3.9062546,11.6194177 4.91070884,11.4285714 6,11.4285714 C7.08929116,11.4285714 8.0937454,11.6194177 9.01339286,12.0011161 C9.93304031,12.3828144 10.6607116,12.9028985 11.1964286,13.5613839 C11.7321455,14.2198694 12,14.9374961 12,15.7142857 Z" id=""></path>
                <text id="+" font-family="Lato-Heavy, Lato" font-size="12" font-weight="600">
                    <tspan x="9.02" y="12">+</tspan>
                </text>
            </g>
        </g>
    </g>
</svg>