<?xml version="1.0" encoding="UTF-8"?>
<svg width="14px" height="12px" viewBox="0 0 14 12" version="1.1" xmlns="http://www.w3.org/2000/svg" xmlns:xlink="http://www.w3.org/1999/xlink">
    <!-- Generator: Sketch 53.2 (72643) - https://sketchapp.com -->
    <title>exclamation-triangle-gray</title>
    <desc>Created with Sketch.</desc>
    <g id="Page-1" stroke="none" stroke-width="1" fill="none" fill-rule="evenodd">
        <g id="exclamation-triangle-gray" transform="translate(-1.000000, -2.000000)" fill-rule="nonzero">
            <polygon id="Path" fill-opacity="0" fill="#D8D8D8" points="0 0 16 0 16 16 0 16"></polygon>
            <path d="M8.095,2 C8.343,2 8.577,2.065 8.789,2.192 C8.958,2.293 9.099,2.425 9.209,2.585 L9.287,2.711 L14.354,12 L14.39,12.07 C14.589,12.485 14.565,12.925 14.328,13.329 C14.208,13.534 14.041,13.699 13.834,13.818 C13.667,13.914 13.488,13.972 13.3,13.992 L13.157,13.999 L3.015,13.999 L2.933,13.995 C2.729,13.981 2.535,13.921 2.357,13.818 C2.15,13.698 1.983,13.534 1.863,13.329 C1.637,12.943 1.606,12.528 1.771,12.136 L1.842,11.99 L6.914,2.692 L6.958,2.62 C7.072,2.444 7.221,2.3 7.401,2.191 C7.614,2.064 7.848,1.999 8.095,1.999 L8.095,2 Z M8.095,3.032 C8.035,3.032 7.985,3.046 7.933,3.077 C7.903,3.096 7.877,3.117 7.858,3.137 L7.834,3.165 L7.81,3.205 L2.746,12.489 C2.682,12.605 2.683,12.687 2.754,12.808 C2.783,12.858 2.82,12.895 2.873,12.925 C2.902,12.942 2.931,12.953 2.955,12.96 L2.989,12.966 L3.033,12.968 L13.157,12.968 C13.217,12.968 13.267,12.954 13.318,12.925 C13.371,12.895 13.408,12.857 13.438,12.807 C13.49,12.717 13.503,12.65 13.485,12.582 L13.466,12.531 L13.443,12.485 L8.381,3.205 C8.351,3.15 8.311,3.109 8.258,3.077 C8.207,3.047 8.156,3.032 8.095,3.032 L8.095,3.032 Z M7.99,10.581 C8.346,10.581 8.635,10.869 8.635,11.226 C8.635,11.582 8.345,11.871 7.99,11.871 C7.633,11.871 7.344,11.582 7.344,11.226 C7.344,10.869 7.634,10.581 7.99,10.581 Z M7.99,5.796 C8.243,5.796 8.454,5.978 8.497,6.219 L8.506,6.312 L8.506,9.19 L8.504,9.237 C8.48,9.5 8.259,9.707 7.99,9.707 C7.736,9.707 7.525,9.524 7.482,9.283 L7.473,9.19 L7.473,6.312 L7.475,6.265 C7.499,6.002 7.72,5.795 7.99,5.795 L7.99,5.796 Z" id="Shape" fill="#8A959F"></path>
        </g>
    </g>
</svg>