<svg width="49" height="48" viewBox="0 0 49 48" fill="none" xmlns="http://www.w3.org/2000/svg">
<path d="M9.5 5H39.5C41.2 5 42.5 6.3 42.5 8V37H6.5V8C6.5 6.3 7.8 5 9.5 5Z" fill="#FEC62D"/>
<path d="M9.5 7H39.5C40.1 7 40.5 7.4 40.5 8V37H8.5V8C8.5 7.4 8.9 7 9.5 7Z" fill="url(#paint0_linear)"/>
<path d="M41.5 31H31.2C30.3 31 29.6 31.6 29.3 32.5C28.7 34.5 26.8 36 24.5 36C22.2 36 20.4 34.5 19.7 32.5C19.4 31.6 18.7 31 17.8 31H7.5C6.9 31 6.5 31.4 6.5 32V40C6.5 41.7 7.8 43 9.5 43H39.5C41.2 43 42.5 41.7 42.5 40V32C42.5 31.4 42.1 31 41.5 31Z" fill="url(#paint1_linear)"/>
<defs>
<linearGradient id="paint0_linear" x1="24.5" y1="6.064" x2="24.5" y2="40.107" gradientUnits="userSpaceOnUse">
<stop stop-color="#EBA600"/>
<stop offset="1" stop-color="#C28200"/>
</linearGradient>
<linearGradient id="paint1_linear" x1="24.5" y1="31.071" x2="24.5" y2="42.693" gradientUnits="userSpaceOnUse">
<stop stop-color="#FFD869"/>
<stop offset="1" stop-color="#FEC52B"/>
</linearGradient>
</defs>
</svg>
