<svg width="20" height="20" viewBox="0 0 20 20" fill="none" xmlns="http://www.w3.org/2000/svg">
<path d="M10.0001 16.25C5.11911 16.25 1.00111 10.943 0.308105 10C1.00111 9.0575 5.12261 3.75 10.0001 3.75C14.8811 3.75 18.9991 9.057 19.6921 10C18.9991 10.9425 14.8776 16.25 10.0001 16.25Z" fill="white"/>
<path d="M10 4C14.5485 4 18.453 8.774 19.38 10C18.453 11.226 14.5485 16 10 16C5.4515 16 1.547 11.226 0.62 10C1.547 8.774 5.4515 4 10 4ZM10 3.5C4.477 3.5 0 10 0 10C0 10 4.477 16.5 10 16.5C15.523 16.5 20 10 20 10C20 10 15.523 3.5 10 3.5Z" fill="#135423"/>
<path d="M10 5C8.67392 5 7.40215 5.52678 6.46447 6.46447C5.52678 7.40215 5 8.67392 5 10C5 11.3261 5.52678 12.5979 6.46447 13.5355C7.40215 14.4732 8.67392 15 10 15C11.3261 15 12.5979 14.4732 13.5355 13.5355C14.4732 12.5979 15 11.3261 15 10C15 8.67392 14.4732 7.40215 13.5355 6.46447C12.5979 5.52678 11.3261 5 10 5Z" fill="#93D3A2"/>
<path d="M10 8C9.46957 8 8.96086 8.21071 8.58579 8.58579C8.21071 8.96086 8 9.46957 8 10C8 10.5304 8.21071 11.0391 8.58579 11.4142C8.96086 11.7893 9.46957 12 10 12C10.5304 12 11.0391 11.7893 11.4142 11.4142C11.7893 11.0391 12 10.5304 12 10C12 9.46957 11.7893 8.96086 11.4142 8.58579C11.0391 8.21071 10.5304 8 10 8Z" fill="#135423"/>
<path d="M11.5 7C11.2348 7 10.9804 7.10536 10.7929 7.29289C10.6054 7.48043 10.5 7.73478 10.5 8C10.5 8.26522 10.6054 8.51957 10.7929 8.70711C10.9804 8.89464 11.2348 9 11.5 9C11.7652 9 12.0196 8.89464 12.2071 8.70711C12.3946 8.51957 12.5 8.26522 12.5 8C12.5 7.73478 12.3946 7.48043 12.2071 7.29289C12.0196 7.10536 11.7652 7 11.5 7Z" fill="#EAF6EC"/>
</svg>
