<svg width="20" height="20" viewBox="0 0 20 20" fill="none" xmlns="http://www.w3.org/2000/svg">
<path d="M1.25 1.25H18.75V18.75H1.25V1.25Z" fill="#EAF6EC"/>
<path d="M18.5 1.5V18.5H1.5V1.5H18.5ZM19 1H1V19H19V1Z" fill="#135423"/>
<path d="M8 9H17V11.5H8V9Z" fill="#93D3A2"/>
<path d="M6.25 10.5H3.25C3.112 10.5 3 10.388 3 10.25C3 10.112 3.112 10 3.25 10H6.25C6.388 10 6.5 10.112 6.5 10.25C6.5 10.388 6.388 10.5 6.25 10.5Z" fill="#135423"/>
<path d="M8 5H17V7.5H8V5Z" fill="#93D3A2"/>
<path d="M6.25 6.5H3.25C3.112 6.5 3 6.388 3 6.25C3 6.112 3.112 6 3.25 6H6.25C6.388 6 6.5 6.112 6.5 6.25C6.5 6.388 6.388 6.5 6.25 6.5Z" fill="#135423"/>
<path d="M8 13H14V15H8V13Z" fill="#28A745"/>
</svg>
