<svg width="20" height="20" viewBox="0 0 20 20" fill="none" xmlns="http://www.w3.org/2000/svg">
<path d="M10.25 0.25C10.053 0.25 9.85796 0.288799 9.67597 0.364181C9.49399 0.439563 9.32863 0.550052 9.18934 0.68934C9.05005 0.828628 8.93956 0.993986 8.86418 1.17597C8.7888 1.35796 8.75 1.55302 8.75 1.75C8.75 1.94698 8.7888 2.14204 8.86418 2.32403C8.93956 2.50601 9.05005 2.67137 9.18934 2.81066C9.32863 2.94995 9.49399 3.06044 9.67597 3.13582C9.85796 3.2112 10.053 3.25 10.25 3.25C10.447 3.25 10.642 3.2112 10.824 3.13582C11.006 3.06044 11.1714 2.94995 11.3107 2.81066C11.4499 2.67137 11.5604 2.50601 11.6358 2.32403C11.7112 2.14204 11.75 1.94698 11.75 1.75C11.75 1.55302 11.7112 1.35796 11.6358 1.17597C11.5604 0.993986 11.4499 0.828628 11.3107 0.68934C11.1714 0.550052 11.006 0.439563 10.824 0.364181C10.642 0.288799 10.447 0.25 10.25 0.25Z" fill="#93D3A2"/>
<path d="M10.25 3.5C9.3 3.5 8.5 2.7 8.5 1.75C8.5 0.8 9.3 0 10.25 0C11.2 0 12 0.8 12 1.75C12 2.7 11.2 3.5 10.25 3.5ZM10.25 0.5C9.55 0.5 9 1.05 9 1.75C9 2.45 9.55 3 10.25 3C10.95 3 11.5 2.45 11.5 1.75C11.5 1.05 10.95 0.5 10.25 0.5Z" fill="#135423"/>
<path d="M2.8501 1.7002C2.45227 1.7002 2.07074 1.85823 1.78944 2.13954C1.50813 2.42084 1.3501 2.80237 1.3501 3.2002C1.3501 3.59802 1.50813 3.97955 1.78944 4.26086C2.07074 4.54216 2.45227 4.7002 2.8501 4.7002C3.24792 4.7002 3.62945 4.54216 3.91076 4.26086C4.19206 3.97955 4.3501 3.59802 4.3501 3.2002C4.3501 2.80237 4.19206 2.42084 3.91076 2.13954C3.62945 1.85823 3.24792 1.7002 2.8501 1.7002Z" fill="#93D3A2"/>
<path d="M2.75 5C1.8 5 1 4.2 1 3.25C1 2.3 1.8 1.5 2.75 1.5C3.7 1.5 4.5 2.3 4.5 3.25C4.5 4.2 3.7 5 2.75 5ZM2.75 2C2.05 2 1.5 2.55 1.5 3.25C1.5 3.95 2.05 4.5 2.75 4.5C3.45 4.5 4 3.95 4 3.25C4 2.55 3.45 2 2.75 2ZM10 3.25H10.5V6H10V3.25Z" fill="#135423"/>
<path d="M3.57715 4.43555L3.9307 4.08199L5.41565 5.56689L5.0621 5.92045L3.57715 4.43555Z" fill="#135423"/>
<path d="M17.6499 1.7002C17.2521 1.7002 16.8705 1.85823 16.5892 2.13954C16.3079 2.42084 16.1499 2.80237 16.1499 3.2002C16.1499 3.59802 16.3079 3.97955 16.5892 4.26086C16.8705 4.54216 17.2521 4.7002 17.6499 4.7002C18.0477 4.7002 18.4293 4.54216 18.7106 4.26086C18.9919 3.97955 19.1499 3.59802 19.1499 3.2002C19.1499 2.80237 18.9919 2.42084 18.7106 2.13954C18.4293 1.85823 18.0477 1.7002 17.6499 1.7002Z" fill="#93D3A2"/>
<path d="M17.75 5C16.8 5 16 4.2 16 3.25C16 2.3 16.8 1.5 17.75 1.5C18.7 1.5 19.5 2.3 19.5 3.25C19.5 4.2 18.7 5 17.75 5ZM17.75 2C17.05 2 16.5 2.55 16.5 3.25C16.5 3.95 17.05 4.5 17.75 4.5C18.45 4.5 19 3.95 19 3.25C19 2.55 18.45 2 17.75 2Z" fill="#135423"/>
<path d="M15.0767 5.56738L16.5616 4.08243L16.9151 4.43598L15.4302 5.92093L15.0767 5.56738Z" fill="#135423"/>
<path d="M10.25 16.75C9.85218 16.75 9.47064 16.908 9.18934 17.1893C8.90804 17.4706 8.75 17.8522 8.75 18.25C8.75 18.6478 8.90804 19.0294 9.18934 19.3107C9.47064 19.592 9.85218 19.75 10.25 19.75C10.6478 19.75 11.0294 19.592 11.3107 19.3107C11.592 19.0294 11.75 18.6478 11.75 18.25C11.75 17.8522 11.592 17.4706 11.3107 17.1893C11.0294 16.908 10.6478 16.75 10.25 16.75Z" fill="#93D3A2"/>
<path d="M10.25 20C9.3 20 8.5 19.2 8.5 18.25C8.5 17.3 9.3 16.5 10.25 16.5C11.2 16.5 12 17.3 12 18.25C12 19.2 11.2 20 10.25 20ZM10.25 17C9.55 17 9 17.55 9 18.25C9 18.95 9.55 19.5 10.25 19.5C10.95 19.5 11.5 18.95 11.5 18.25C11.5 17.55 10.95 17 10.25 17Z" fill="#135423"/>
<path d="M17.6499 15C17.2521 15 16.8705 15.158 16.5892 15.4393C16.3079 15.7206 16.1499 16.1022 16.1499 16.5C16.1499 16.8978 16.3079 17.2794 16.5892 17.5607C16.8705 17.842 17.2521 18 17.6499 18C18.0477 18 18.4293 17.842 18.7106 17.5607C18.9919 17.2794 19.1499 16.8978 19.1499 16.5C19.1499 16.1022 18.9919 15.7206 18.7106 15.4393C18.4293 15.158 18.0477 15 17.6499 15Z" fill="#93D3A2"/>
<path d="M17.75 18.5C16.8 18.5 16 17.7 16 16.75C16 15.8 16.8 15 17.75 15C18.7 15 19.5 15.8 19.5 16.75C19.5 17.7 18.7 18.5 17.75 18.5ZM17.75 15.5C17.05 15.5 16.5 16.05 16.5 16.75C16.5 17.45 17.05 18 17.75 18C18.45 18 19 17.45 19 16.75C19 16.05 18.45 15.5 17.75 15.5ZM10 14H10.5V16.75H10V14Z" fill="#135423"/>
<path d="M15.0806 14.4346L15.4341 14.081L16.9191 15.5659L16.5655 15.9195L15.0806 14.4346Z" fill="#135423"/>
<path d="M2.75 15.25C2.35218 15.25 1.97064 15.408 1.68934 15.6893C1.40804 15.9706 1.25 16.3522 1.25 16.75C1.25 17.1478 1.40804 17.5294 1.68934 17.8107C1.97064 18.092 2.35218 18.25 2.75 18.25C3.14782 18.25 3.52936 18.092 3.81066 17.8107C4.09196 17.5294 4.25 17.1478 4.25 16.75C4.25 16.3522 4.09196 15.9706 3.81066 15.6893C3.52936 15.408 3.14782 15.25 2.75 15.25Z" fill="#93D3A2"/>
<path d="M2.75 18.5C1.8 18.5 1 17.7 1 16.75C1 15.8 1.8 15 2.75 15C3.7 15 4.5 15.8 4.5 16.75C4.5 17.7 3.7 18.5 2.75 18.5ZM2.75 15.5C2.05 15.5 1.5 16.05 1.5 16.75C1.5 17.45 2.05 18 2.75 18C3.45 18 4 17.45 4 16.75C4 16.05 3.45 15.5 2.75 15.5Z" fill="#135423"/>
<path d="M3.58057 15.5654L5.06546 14.0805L5.41902 14.434L3.93413 15.919L3.58057 15.5654Z" fill="#135423"/>
<path d="M5.25 5.75H15.25V14.25H5.25V5.75Z" fill="#EAF6EC"/>
<path d="M15.5 14.5H5V5.5H15.5V14.5ZM5.5 14H15V6H5.5V14Z" fill="#135423"/>
<path d="M11.25 7.5H9.25C9.1 7.5 9 7.4 9 7.25C9 7.1 9.1 7 9.25 7H11.25C11.4 7 11.5 7.1 11.5 7.25C11.5 7.4 11.4 7.5 11.25 7.5Z" fill="#28A745"/>
</svg>
