<svg width="20" height="20" viewBox="0 0 20 20" fill="none" xmlns="http://www.w3.org/2000/svg">
<path d="M0.75 2.25043H19.25V17.7504H0.75V2.25043Z" fill="#EAF6EC"/>
<path d="M19 2.49976V17.4998H1V2.49976H19ZM19.5 1.99976H0.5V17.9998H19.5V1.99976Z" fill="#28A745"/>
<path d="M1 2.5H19V5H1V2.5Z" fill="#93D3A2"/>
<path d="M14.5 7.99976H5C4.724 7.99976 4.5 7.77576 4.5 7.49976C4.5 7.22376 4.724 6.99976 5 6.99976H14.5C14.776 6.99976 15 7.22376 15 7.49976C15 7.77576 14.776 7.99976 14.5 7.99976ZM5.75 10.9998H4.75C4.612 10.9998 4.5 10.8878 4.5 10.7498C4.5 10.6118 4.612 10.4998 4.75 10.4998H5.75C5.888 10.4998 6 10.6118 6 10.7498C6 10.8878 5.888 10.9998 5.75 10.9998ZM14.75 10.9998H7.25C7.112 10.9998 7 10.8878 7 10.7498C7 10.6118 7.112 10.4998 7.25 10.4998H14.75C14.888 10.4998 15 10.6118 15 10.7498C15 10.8878 14.888 10.9998 14.75 10.9998ZM5.75 12.9998H4.75C4.612 12.9998 4.5 12.8878 4.5 12.7498C4.5 12.6118 4.612 12.4998 4.75 12.4998H5.75C5.888 12.4998 6 12.6118 6 12.7498C6 12.8878 5.888 12.9998 5.75 12.9998ZM14.75 12.9998H7.25C7.112 12.9998 7 12.8878 7 12.7498C7 12.6118 7.112 12.4998 7.25 12.4998H14.75C14.888 12.4998 15 12.6118 15 12.7498C15 12.8878 14.888 12.9998 14.75 12.9998ZM5.75 14.9998H4.75C4.612 14.9998 4.5 14.8878 4.5 14.7498C4.5 14.6118 4.612 14.4998 4.75 14.4998H5.75C5.888 14.4998 6 14.6118 6 14.7498C6 14.8878 5.888 14.9998 5.75 14.9998ZM14.75 14.9998H7.25C7.112 14.9998 7 14.8878 7 14.7498C7 14.6118 7.112 14.4998 7.25 14.4998H14.75C14.888 14.4998 15 14.6118 15 14.7498C15 14.8878 14.888 14.9998 14.75 14.9998Z" fill="#28A745"/>
</svg>
