<svg width="20" height="20" viewBox="0 0 20 20" fill="none" xmlns="http://www.w3.org/2000/svg">
<path d="M1.77344 18.7245C1.88594 17.5015 2.24294 14.9925 2.92144 14.295C3.34044 13.864 3.89694 13.6265 4.48794 13.6265C5.07944 13.6265 5.63594 13.864 6.05494 14.295C6.92444 15.1895 6.92444 16.6445 6.05494 17.539C5.37994 18.234 2.96094 18.6055 1.77344 18.7245Z" fill="#28A745"/>
<path d="M4.4885 13.8765C5.012 13.8765 5.5045 14.087 5.876 14.469C6.652 15.2675 6.652 16.5665 5.876 17.3645C5.3495 17.906 3.4495 18.283 2.052 18.4435C2.204 16.9965 2.569 15.0165 3.1015 14.469C3.4725 14.087 3.965 13.8765 4.4885 13.8765ZM4.4885 13.3765C3.8565 13.3765 3.2245 13.6245 2.7425 14.1205C1.778 15.113 1.5 19 1.5 19C1.5 19 5.27 18.7055 6.2345 17.7135C7.199 16.7215 7.199 15.113 6.2345 14.121C5.752 13.6245 5.1205 13.3765 4.4885 13.3765Z" fill="#135423"/>
<path d="M4.94321 16.6509C4.62171 16.9814 3.38721 17.0624 3.38721 17.0624C3.38721 17.0624 3.45771 15.7839 3.77921 15.4534C4.10071 15.1229 4.62171 15.1229 4.94321 15.4534C5.26471 15.7839 5.26421 16.3204 4.94321 16.6509Z" fill="#EAF6EC"/>
<path d="M6.68916 17.847C6.53716 17.847 6.39466 17.7855 6.28666 17.674L2.79416 14.081C2.56666 13.847 2.56666 13.4665 2.79416 13.2325L4.94316 11.022L9.25066 15.453L7.09216 17.6735C6.98366 17.7855 6.84066 17.847 6.68916 17.847Z" fill="#93D3A2"/>
<path d="M4.94364 11.3808L8.90214 15.4538L6.91264 17.5003C6.85214 17.5623 6.77264 17.5968 6.68914 17.5968C6.60564 17.5968 6.52614 17.5623 6.46564 17.5003L2.97364 13.9078C2.84164 13.7723 2.84164 13.5428 2.97364 13.4073L4.94364 11.3808ZM4.94364 10.6633L2.61564 13.0583C2.29414 13.3888 2.29414 13.9253 2.61564 14.2558L6.10764 17.8483C6.26814 18.0138 6.47914 18.0963 6.68964 18.0963C6.90014 18.0963 7.11114 18.0138 7.27164 17.8483L9.59964 15.4533L4.94364 10.6633Z" fill="#135423"/>
<path d="M9.22468 17.1043L3.34818 11.0583L1.28418 9.99634L3.33618 7.88534C3.59968 7.61434 3.94918 7.46484 4.32018 7.46484C4.41168 7.46484 4.50318 7.47484 4.59268 7.49284L6.56318 7.89884L12.2782 13.7778L12.6732 15.8098C12.7657 16.2858 12.6222 16.7753 12.2892 17.1173L10.2507 19.2148L9.22468 17.1043Z" fill="#93D3A2"/>
<path d="M4.32063 7.71545C4.39463 7.71545 4.46963 7.72295 4.54263 7.73795L6.43813 8.12795L12.0471 13.899L12.4281 15.858C12.5051 16.254 12.3861 16.66 12.1101 16.944L10.3196 18.786L9.46713 17.032L9.43213 16.9595L9.37613 16.902L3.55563 10.9135L3.49863 10.855L3.42563 10.8175L1.69813 9.92895L3.51513 8.05995C3.73113 7.83795 4.01713 7.71545 4.32063 7.71545ZM4.32063 7.21545C3.88863 7.21545 3.46863 7.39095 3.15663 7.71145L0.869629 10.0645L3.19763 11.262L9.01713 17.25L10.1811 19.645L12.4681 17.292C12.8571 16.8915 13.0261 16.3175 12.9181 15.7625L12.5086 13.6575L6.68863 7.66945L4.64263 7.24845C4.53613 7.22645 4.42763 7.21545 4.32063 7.21545Z" fill="#135423"/>
<path d="M2.96387 11.861L12.1064 2.4545C12.8614 1.6775 14.6169 1.25 17.0489 1.25C17.7779 1.25 18.3804 1.2895 18.6804 1.3135C18.7599 2.3035 19.0129 6.607 17.5679 8.094L8.43537 17.4895L2.96387 11.861Z" fill="#EAF6EC"/>
<path d="M17.0502 1.5C17.6272 1.5 18.1237 1.525 18.4502 1.547C18.5737 3.2275 18.5672 6.707 17.3887 7.9195L8.43572 17.1315L3.31272 11.861L12.2862 2.629C12.9937 1.901 14.6857 1.5 17.0502 1.5ZM17.0502 1C15.3577 1 12.9702 1.2075 11.9272 2.2805C10.2262 4.031 2.61572 11.861 2.61572 11.861L8.43572 17.849C8.43572 17.849 16.0167 10.049 17.7477 8.2685C19.4787 6.488 18.9117 1.083 18.9117 1.083C18.9117 1.083 18.1197 1 17.0502 1Z" fill="#135423"/>
<path d="M10.25 8.25C9.85218 8.25 9.47064 8.40804 9.18934 8.68934C8.90804 8.97064 8.75 9.35218 8.75 9.75C8.75 10.1478 8.90804 10.5294 9.18934 10.8107C9.47064 11.092 9.85218 11.25 10.25 11.25C10.6478 11.25 11.0294 11.092 11.3107 10.8107C11.592 10.5294 11.75 10.1478 11.75 9.75C11.75 9.35218 11.592 8.97064 11.3107 8.68934C11.0294 8.40804 10.6478 8.25 10.25 8.25Z" fill="#93D3A2"/>
<path d="M10.25 8.5C10.9395 8.5 11.5 9.0605 11.5 9.75C11.5 10.4395 10.9395 11 10.25 11C9.5605 11 9 10.4395 9 9.75C9 9.0605 9.5605 8.5 10.25 8.5ZM10.25 8C9.2835 8 8.5 8.7835 8.5 9.75C8.5 10.7165 9.2835 11.5 10.25 11.5C11.2165 11.5 12 10.7165 12 9.75C12 8.7835 11.2165 8 10.25 8Z" fill="#135423"/>
<path d="M14.25 4.25C13.8522 4.25 13.4706 4.40804 13.1893 4.68934C12.908 4.97064 12.75 5.35218 12.75 5.75C12.75 6.14782 12.908 6.52936 13.1893 6.81066C13.4706 7.09196 13.8522 7.25 14.25 7.25C14.6478 7.25 15.0294 7.09196 15.3107 6.81066C15.592 6.52936 15.75 6.14782 15.75 5.75C15.75 5.35218 15.592 4.97064 15.3107 4.68934C15.0294 4.40804 14.6478 4.25 14.25 4.25Z" fill="#93D3A2"/>
<path d="M14.25 4.5C14.9395 4.5 15.5 5.0605 15.5 5.75C15.5 6.4395 14.9395 7 14.25 7C13.5605 7 13 6.4395 13 5.75C13 5.0605 13.5605 4.5 14.25 4.5ZM14.25 4C13.2835 4 12.5 4.7835 12.5 5.75C12.5 6.7165 13.2835 7.5 14.25 7.5C15.2165 7.5 16 6.7165 16 5.75C16 4.7835 15.2165 4 14.25 4Z" fill="#135423"/>
</svg>
