<svg width="20" height="20" viewBox="0 0 20 20" fill="none" xmlns="http://www.w3.org/2000/svg">
<path d="M10 18.75C5.1755 18.75 1.25 14.8245 1.25 10C1.25 5.1755 5.1755 1.25 10 1.25C14.8245 1.25 18.75 5.1755 18.75 10C18.75 14.8245 14.8245 18.75 10 18.75Z" fill="#EAF6EC"/>
<path d="M10 1.50073C14.687 1.50073 18.5 5.31373 18.5 10.0007C18.5 14.6877 14.687 18.5007 10 18.5007C5.313 18.5007 1.5 14.6877 1.5 10.0007C1.5 5.31373 5.313 1.50073 10 1.50073ZM10 1.00073C5.0295 1.00073 1 5.03023 1 10.0007C1 14.9712 5.0295 19.0007 10 19.0007C14.9705 19.0007 19 14.9712 19 10.0007C19 5.03023 14.9705 1.00073 10 1.00073Z" fill="#135423"/>
<path d="M7.5 6.00073V14.0007L14.5 10.0007L7.5 6.00073Z" fill="#28A745"/>
</svg>
