<svg width="20" height="20" viewBox="0 0 20 20" fill="none" xmlns="http://www.w3.org/2000/svg">
<path d="M1.25 1.75H18.75V18.25H1.25V1.75Z" fill="#EAF6EC"/>
<path d="M18.5 2V18H1.5V2H18.5ZM19 1.5H1V18.5H19V1.5Z" fill="#28A745"/>
<path d="M1.5 2H18.5V4.5H1.5V2Z" fill="#93D3A2"/>
<path d="M8.393 13.25C9.4505 13.25 10 12.2425 10 11M10 11C10 9.7575 9.4045 8.75 8.393 8.75M10 11C10 12.2425 10.5495 13.25 11.607 13.25M10 11C10 9.7575 10.5955 8.75 11.607 8.75M14.2365 14.25C14.5625 13.2735 14.75 12.171 14.75 11C14.75 9.829 14.5625 8.7265 14.2365 7.75M5.7635 7.75C5.4375 8.7265 5.25 9.829 5.25 11C5.25 12.171 5.4375 13.2735 5.7635 14.25" stroke="#28A745" stroke-width="0.5" stroke-miterlimit="10" stroke-linecap="round"/>
</svg>
