<svg width="20" height="20" viewBox="0 0 20 20" fill="none" xmlns="http://www.w3.org/2000/svg">
<path d="M10 19.25C4.8995 19.25 0.75 15.1005 0.75 10C0.75 4.8995 4.8995 0.75 10 0.75C15.1005 0.75 19.25 4.8995 19.25 10C19.25 15.1005 15.1005 19.25 10 19.25Z" fill="#EAF6EC"/>
<path d="M10 1C14.9625 1 19 5.0375 19 10C19 14.9625 14.9625 19 10 19C5.0375 19 1 14.9625 1 10C1 5.0375 5.0375 1 10 1ZM10 0.5C4.7535 0.5 0.5 4.7535 0.5 10C0.5 15.2465 4.7535 19.5 10 19.5C15.2465 19.5 19.5 15.2465 19.5 10C19.5 4.7535 15.2465 0.5 10 0.5Z" fill="#135423"/>
<path d="M1.5305 6H18.5L17.9885 5.5H2.0415L1.5305 6ZM18.4695 14H1.5L2.0115 14.5H17.9585L18.4695 14Z" fill="#135423"/>
<path d="M4.29199 13.75C5.26649 16.9855 7.45599 19.25 9.99999 19.25C12.544 19.25 14.734 16.9855 15.7085 13.75M15.7085 6.25C14.734 3.0145 12.544 0.75 9.99999 0.75C7.45599 0.75 5.26599 3.0145 4.29199 6.25H15.7085Z" stroke="#135423" stroke-width="0.5" stroke-miterlimit="10" stroke-linecap="round"/>
<path d="M12.0471 6.25C11.6636 2.885 10.7976 0.75 9.99965 0.75C9.20165 0.75 8.33565 2.885 7.95215 6.25M7.95215 13.75C8.33565 17.115 9.20165 19.25 9.99965 19.25C10.7976 19.25 11.6636 17.115 12.0471 13.75H7.95215Z" stroke="#135423" stroke-width="0.5" stroke-miterlimit="10" stroke-linecap="round"/>
<path d="M6.1445 8H6.941L6.015 12H5.14L4.5585 9.434C4.5275 9.3 4.509 9.15 4.5025 8.9845H4.4925C4.478 9.1665 4.4565 9.3165 4.429 9.4335L3.8325 12H2.9215L2 8H2.8625L3.356 10.664C3.3775 10.7775 3.3925 10.93 3.4025 11.1215H3.417C3.4235 10.9785 3.447 10.822 3.488 10.653L4.1235 8H4.969L5.5435 10.686C5.565 10.7845 5.5835 10.928 5.5995 11.1155H5.6095C5.616 10.9685 5.633 10.82 5.661 10.669L6.1445 8Z" fill="#135423"/>
<path d="M11.1903 10.6695C11.1628 10.82 11.1458 10.969 11.1388 11.116H11.1288C11.1123 10.9285 11.0938 10.785 11.0728 10.6865L10.4988 8H9.65327L9.01777 10.6525C8.97677 10.822 8.95377 10.978 8.94677 11.121H8.93227C8.92227 10.9295 8.90727 10.777 8.88577 10.6635L8.39277 8H7.53027L8.45177 12H9.36327L9.95977 9.434C9.98727 9.317 10.0088 9.167 10.0233 8.985H10.0333C10.0398 9.1505 10.0583 9.3 10.0893 9.434L10.6698 12H11.5448L12.4708 8H11.6743L11.1903 10.6695Z" fill="#135423"/>
<path d="M17.2036 8L16.7196 10.6695C16.6921 10.82 16.6751 10.969 16.6681 11.116H16.6581C16.6416 10.9285 16.6231 10.785 16.6021 10.6865L16.0281 8H15.1826L14.5471 10.6525C14.5061 10.822 14.4831 10.978 14.4761 11.121H14.4616C14.4516 10.9295 14.4366 10.777 14.4151 10.6635L13.9216 8H13.0591L13.9806 12H14.8921L15.4886 9.434C15.5161 9.317 15.5376 9.167 15.5521 8.985H15.5621C15.5686 9.1505 15.5871 9.3 15.6181 9.434L16.1991 12H17.0741L18.0001 8H17.2036Z" fill="#135423"/>
</svg>
