<?xml version="1.0" encoding="UTF-8"?>
<svg width="14px" height="14px" viewBox="0 0 14 14" version="1.1" xmlns="http://www.w3.org/2000/svg" xmlns:xlink="http://www.w3.org/1999/xlink">
    <!-- Generator: Sketch 49.1 (51147) - http://www.bohemiancoding.com/sketch -->
    <title>bug</title>
    <desc>Created with Sketch.</desc>
    <defs></defs>
    <g id="bug" stroke="none" stroke-width="1" fill="none" fill-rule="evenodd">
        <path d="M14.0699997,7.87919983 C14.0699997,8.03162559 14.0143065,8.16353052 13.9029184,8.27491857 C13.7915304,8.38630663 13.6596255,8.44199982 13.5071997,8.44199982 L11.5373997,8.44199982 C11.5373997,9.44449231 11.341008,10.2945463 10.9482185,10.9921873 L12.7773185,12.830081 C12.8887065,12.941469 12.9443997,13.073374 12.9443997,13.2257997 C12.9443997,13.3782255 12.8887065,13.5101304 12.7773185,13.6215185 C12.6717929,13.7329065 12.539888,13.7885997 12.3815997,13.7885997 C12.2233114,13.7885997 12.0914065,13.7329065 11.985881,13.6215185 L10.2447185,11.8891497 C10.2154059,11.9184624 10.1714376,11.9565683 10.1128123,12.0034685 C10.054187,12.0503687 9.93107572,12.1339085 9.74347479,12.2540904 C9.55587385,12.3742722 9.36534451,12.4812618 9.17188105,12.5750622 C8.97841759,12.6688627 8.7380575,12.7538681 8.45079357,12.830081 C8.16352964,12.9062939 7.87920124,12.9443997 7.59779984,12.9443997 L7.59779984,5.06519989 L6.47219986,5.06519989 L6.47219986,12.9443997 C6.17321087,12.9443997 5.87569198,12.9048282 5.57963425,12.8256841 C5.28357653,12.74654 5.02856034,12.6498097 4.81457802,12.5354904 C4.60059571,12.421171 4.40713514,12.3068534 4.23419053,12.1925341 C4.06124592,12.0782148 3.93373783,11.9829501 3.85166242,11.9067372 L3.71975617,11.7836247 L2.11049995,13.603931 C1.99324937,13.7270441 1.85255078,13.7885997 1.68839996,13.7885997 C1.54769926,13.7885997 1.42165678,13.7417002 1.31026872,13.6478997 C1.19888067,13.5423742 1.13879064,13.4119349 1.12999685,13.2565778 C1.12120306,13.1012208 1.16663698,12.9649191 1.26629997,12.8476685 L3.04263743,10.8514873 C2.70261074,10.1831589 2.53259995,9.38000449 2.53259995,8.44199982 L0.562799988,8.44199982 C0.410374229,8.44199982 0.278469301,8.38630663 0.167081246,8.27491857 C0.0556931919,8.16353052 0,8.03162559 0,7.87919983 C0,7.72677407 0.0556931919,7.59486914 0.167081246,7.48348109 C0.278469301,7.37209303 0.410374229,7.31639984 0.562799988,7.31639984 L2.53259995,7.31639984 L2.53259995,4.7310374 L1.01128123,3.20971868 C0.899893174,3.09833063 0.844199982,2.9664257 0.844199982,2.81399994 C0.844199982,2.66157418 0.899893174,2.52966925 1.01128123,2.4182812 C1.12266928,2.30689314 1.25457421,2.25119995 1.40699997,2.25119995 C1.55942573,2.25119995 1.69133066,2.30689314 1.80271871,2.4182812 L3.32403743,3.93959991 L10.7459623,3.93959991 L12.267281,2.4182812 C12.378669,2.30689314 12.510574,2.25119995 12.6629997,2.25119995 C12.8154255,2.25119995 12.9473304,2.30689314 13.0587185,2.4182812 C13.1701065,2.52966925 13.2257997,2.66157418 13.2257997,2.81399994 C13.2257997,2.9664257 13.1701065,3.09833063 13.0587185,3.20971868 L11.5373997,4.7310374 L11.5373997,7.31639984 L13.5071997,7.31639984 C13.6596255,7.31639984 13.7915304,7.37209303 13.9029184,7.48348109 C14.0143065,7.59486914 14.0699997,7.72677407 14.0699997,7.87919983 Z M9.84899979,2.81399994 L4.22099991,2.81399994 C4.22099991,2.03428356 4.49506904,1.37036209 5.04321552,0.822215607 C5.59136199,0.274069128 6.25528347,0 7.03499985,0 C7.81471623,0 8.4786377,0.274069128 9.02678418,0.822215607 C9.57493066,1.37036209 9.84899979,2.03428356 9.84899979,2.81399994 Z" id="" fill="#F2F3F5"></path>
    </g>
</svg>