<?xml version="1.0" encoding="UTF-8"?>
<svg width="14px" height="14px" viewBox="0 0 14 14" version="1.1" xmlns="http://www.w3.org/2000/svg" xmlns:xlink="http://www.w3.org/1999/xlink">
    <!-- Generator: Sketch 49.1 (51147) - http://www.bohemiancoding.com/sketch -->
    <title>compress</title>
    <desc>Created with Sketch.</desc>
    <defs></defs>
    <g id="compress" stroke="none" stroke-width="1" fill="none" fill-rule="evenodd">
        <path d="M2.8,14 L4.66666667,14 L4.66666667,9.33333333 L0,9.33333333 L0,11.2 L2.8,11.2 L2.8,14 L2.8,14 Z M4.66666667,0 L2.8,0 L2.8,2.8 L0,2.8 L0,4.66666667 L4.66666667,4.66666667 L4.66666667,0 L4.66666667,0 Z M11.2,11.2 L14,11.2 L14,9.33333333 L9.33333333,9.33333333 L9.33333333,14 L11.2,14 L11.2,11.2 L11.2,11.2 Z M14,4.66666667 L14,2.8 L11.2,2.8 L11.2,0 L9.33333333,0 L9.33333333,4.66666667 L14,4.66666667 L14,4.66666667 Z" id="Shape" fill="#F2F3F5"></path>
    </g>
</svg>