<?xml version="1.0" encoding="UTF-8"?>
<svg width="14px" height="14px" viewBox="0 0 14 14" version="1.1" xmlns="http://www.w3.org/2000/svg" xmlns:xlink="http://www.w3.org/1999/xlink">
    <!-- Generator: Sketch 49.1 (51147) - http://www.bohemiancoding.com/sketch -->
    <title>expand</title>
    <desc>Created with Sketch.</desc>
    <defs></defs>
    <g id="expand" stroke="none" stroke-width="1" fill="none" fill-rule="evenodd">
        <path d="M1.86666667,9.33333333 L0,9.33333333 L0,14 L4.66666667,14 L4.66666667,12.1333333 L1.86666667,12.1333333 L1.86666667,9.33333333 L1.86666667,9.33333333 Z M0,4.66666667 L1.86666667,4.66666667 L1.86666667,1.86666667 L4.66666667,1.86666667 L4.66666667,0 L0,0 L0,4.66666667 L0,4.66666667 Z M12.1333333,12.1333333 L9.33333333,12.1333333 L9.33333333,14 L14,14 L14,9.33333333 L12.1333333,9.33333333 L12.1333333,12.1333333 L12.1333333,12.1333333 Z M9.33333333,0 L9.33333333,1.86666667 L12.1333333,1.86666667 L12.1333333,4.66666667 L14,4.66666667 L14,0 L9.33333333,0 L9.33333333,0 Z" id="Shape" fill="#F2F3F5"></path>
    </g>
</svg>