<?xml version="1.0" encoding="UTF-8"?>
<svg width="14px" height="14px" viewBox="0 0 14 14" version="1.1" xmlns="http://www.w3.org/2000/svg" xmlns:xlink="http://www.w3.org/1999/xlink">
    <!-- Generator: Sketch 49.1 (51147) - http://www.bohemiancoding.com/sketch -->
    <title>reload</title>
    <desc>Created with Sketch.</desc>
    <defs></defs>
    <g id="reload" stroke="none" stroke-width="1" fill="none" fill-rule="evenodd">
        <g transform="translate(2.000000, 1.000000)" fill="#FFFFFF" fill-rule="nonzero" id="Shape" stroke="#F2F3F5">
            <path d="M10.8,5.27357658 C10.8,2.3657142 8.37758571,0 5.40002387,0 C2.42246203,0 0,2.3657142 0,5.27357658 C0,5.44631142 0.143406353,5.58635976 0.320282942,5.58635976 C0.49715953,5.58635976 0.640565883,5.4462881 0.640565883,5.27357658 C0.640565883,2.71064765 2.77564226,0.625589668 5.4,0.625589668 C8.02435774,0.625589668 10.1594341,2.71067096 10.1594341,5.27357658 C10.1594341,7.83645889 8.02435774,9.92154018 5.4,9.92154018 L4.84432724,9.92154018 L5.63887531,9.05297003 C5.75673733,8.92415912 5.74530206,8.72640816 5.6134026,8.611306 C5.48150313,8.49620385 5.27898672,8.50739466 5.16114857,8.63620556 L4.02535688,9.87780276 C3.83943235,10.0810559 3.83943235,10.3875908 4.02535688,10.590844 L5.16114857,11.8324412 C5.22443644,11.9016377 5.31207498,11.9368421 5.40011937,11.9368421 C5.47606004,11.9368421 5.55231106,11.9105903 5.6134026,11.8573407 C5.74532594,11.7422386 5.75673733,11.5444876 5.63887531,11.4156767 L4.84432724,10.5471065 L5.4,10.5471065 C8.37758571,10.5471065 10.8,8.18139234 10.8,5.27357658 Z"></path>
        </g>
    </g>
</svg>