<svg width="24" height="24" viewBox="0 0 24 24" fill="none" xmlns="http://www.w3.org/2000/svg">
<path d="M11.6996 22.4996C11.3596 22.5001 11.0266 22.4034 10.7397 22.221C10.4528 22.0386 10.224 21.7781 10.0802 21.47L9.99856 21.2996H1.19956C0.960955 21.2993 0.732205 21.2044 0.563485 21.0357C0.394766 20.867 0.299851 20.6382 0.299561 20.3996V17.0996H23.0996V20.3996C23.0993 20.6382 23.0044 20.867 22.8356 21.0357C22.6669 21.2044 22.4382 21.2993 22.1996 21.2996H13.4006L13.319 21.47C13.1751 21.7781 12.9463 22.0386 12.6594 22.221C12.3726 22.4034 12.0395 22.5001 11.6996 22.4996Z" fill="#B893F2"/>
<path d="M22.8 17.4008V20.4008C22.7997 20.5598 22.7364 20.7123 22.624 20.8248C22.5115 20.9372 22.3591 21.0005 22.2 21.0008H13.212L13.0488 21.3422C12.9289 21.5988 12.7384 21.8158 12.4994 21.9679C12.2605 22.12 11.9832 22.2008 11.7 22.2008C11.4168 22.2008 11.1395 22.12 10.9006 21.9679C10.6616 21.8158 10.4711 21.5988 10.3512 21.3422L10.188 21.0008H1.2C1.04095 21.0005 0.88849 20.9372 0.776025 20.8248C0.66356 20.7123 0.600262 20.5598 0.6 20.4008V17.4008H22.8ZM23.4 16.8008H4.54042e-08V20.4008C-4.33121e-05 20.5584 0.030966 20.7144 0.0912563 20.8601C0.151547 21.0057 0.239936 21.138 0.351375 21.2494C0.462814 21.3608 0.595118 21.4492 0.740729 21.5095C0.886339 21.5698 1.0424 21.6008 1.2 21.6008H9.81C9.97864 21.9596 10.2459 22.2629 10.5806 22.4754C10.9153 22.6879 11.3036 22.8008 11.7 22.8008C12.0964 22.8008 12.4847 22.6879 12.8194 22.4754C13.1541 22.2629 13.4214 21.9596 13.59 21.6008H22.2C22.3576 21.6008 22.5137 21.5698 22.6593 21.5095C22.8049 21.4492 22.9372 21.3608 23.0486 21.2494C23.1601 21.138 23.2485 21.0057 23.3087 20.8601C23.369 20.7144 23.4 20.5584 23.4 20.4008V16.8008Z" fill="#381472"/>
<path d="M11.7004 20.6996V4.19961C11.701 3.64284 11.9225 3.10905 12.3162 2.71536C12.7099 2.32166 13.2437 2.10022 13.8004 2.09961H23.1004V19.4996H13.2004C12.8548 19.5 12.5198 19.6196 12.252 19.8382C11.9843 20.0568 11.8001 20.361 11.7304 20.6996H11.7004Z" fill="#F1E9FB"/>
<path d="M22.8001 2.40078V19.2008H13.2001C12.7571 19.2004 12.3296 19.3641 12.0001 19.6604V4.20078C12.0007 3.72357 12.1906 3.26607 12.528 2.92863C12.8654 2.59119 13.3229 2.40136 13.8001 2.40078H22.8001ZM23.4001 1.80078H13.8001C13.1636 1.80081 12.5532 2.05368 12.1031 2.50376C11.653 2.95384 11.4002 3.56427 11.4001 4.20078V21.0008H12.0001C12.0001 20.8432 12.0311 20.6871 12.0914 20.5415C12.1517 20.3959 12.2401 20.2636 12.3515 20.1522C12.463 20.0407 12.5953 19.9523 12.7409 19.892C12.8865 19.8317 13.0425 19.8007 13.2001 19.8008H23.4001V1.80078Z" fill="#381472"/>
<path d="M11.6696 20.6996C11.5999 20.361 11.4157 20.0568 11.148 19.8382C10.8802 19.6196 10.5452 19.5 10.1996 19.4996H0.299561V2.09961H9.59956C10.1563 2.10022 10.6901 2.32166 11.0838 2.71536C11.4775 3.10905 11.6989 3.64284 11.6996 4.19961V20.6996H11.6696Z" fill="#F1E9FB"/>
<path d="M20.2747 10.7992C20.2738 10.57 20.2448 10.3418 20.1883 10.1196L20.8495 9.44442L20.3351 8.55362L19.4207 8.78842C19.0899 8.46799 18.6851 8.23426 18.2423 8.10802L17.9891 7.19922H16.9607L16.7071 8.10842C16.2642 8.23467 15.8594 8.46839 15.5287 8.78882L14.6143 8.55402L14.0999 9.44482L14.7611 10.12C14.6459 10.5656 14.6459 11.0332 14.7611 11.4788L14.0999 12.154L14.6143 13.0448L15.5287 12.81C15.8594 13.1304 16.2642 13.3642 16.7071 13.4904L16.9603 14.3992H17.9887L18.2423 13.49C18.6851 13.3638 19.0899 13.13 19.4207 12.8096L20.3351 13.0444L20.8495 12.1536L20.1883 11.4784C20.2448 11.2564 20.2738 11.0283 20.2747 10.7992ZM18.6747 10.7992C18.6747 11.0366 18.6043 11.2686 18.4724 11.4659C18.3406 11.6632 18.1531 11.817 17.9339 11.9079C17.7146 11.9987 17.4733 12.0225 17.2405 11.9762C17.0078 11.9299 16.794 11.8156 16.6261 11.6477C16.4583 11.4799 16.344 11.2661 16.2977 11.0333C16.2514 10.8005 16.2752 10.5593 16.366 10.34C16.4568 10.1207 16.6106 9.93331 16.808 9.80146C17.0053 9.6696 17.2373 9.59922 17.4747 9.59922C17.6322 9.59921 17.7883 9.63024 17.9339 9.69054C18.0795 9.75085 18.2118 9.83924 18.3232 9.95067C18.4346 10.0621 18.523 10.1944 18.5833 10.34C18.6436 10.4856 18.6747 10.6416 18.6747 10.7992Z" fill="#381472"/>
<path d="M9.6 2.40078C10.0772 2.40136 10.5347 2.59119 10.8722 2.92863C11.2096 3.26607 11.3994 3.72357 11.4 4.20078V19.6604C11.0706 19.3641 10.6431 19.2004 10.2 19.2008H0.6V2.40078H9.6ZM9.6 1.80078H0V19.8008H10.2C10.3576 19.8007 10.5137 19.8317 10.6593 19.892C10.8049 19.9523 10.9372 20.0407 11.0486 20.1522C11.1601 20.2636 11.2485 20.3959 11.3087 20.5415C11.369 20.6871 11.4 20.8432 11.4 21.0008H12V4.20078C12 3.56427 11.7471 2.95384 11.297 2.50376C10.8469 2.05368 10.2365 1.80081 9.6 1.80078Z" fill="#381472"/>
<path d="M0.599854 19.8008H10.1999V20.4008H0.599854V19.8008Z" fill="#B893F2"/>
</svg>
