<svg width="20" height="20" viewBox="0 0 20 20" fill="none" xmlns="http://www.w3.org/2000/svg">
<path d="M0.75 2.25H19.25V17.75H0.75V2.25Z" fill="#EAF6EC"/>
<path d="M19 2.5V17.5H1V2.5H19ZM19.5 2H0.5V18H19.5V2Z" fill="#28A745"/>
<path d="M1 2.5H19V5H1V2.5Z" fill="#93D3A2"/>
<path d="M14.5 8H5C4.724 8 4.5 7.776 4.5 7.5C4.5 7.224 4.724 7 5 7H14.5C14.776 7 15 7.224 15 7.5C15 7.776 14.776 8 14.5 8ZM5.75 11H4.75C4.612 11 4.5 10.888 4.5 10.75C4.5 10.612 4.612 10.5 4.75 10.5H5.75C5.888 10.5 6 10.612 6 10.75C6 10.888 5.888 11 5.75 11ZM14.75 11H7.25C7.112 11 7 10.888 7 10.75C7 10.612 7.112 10.5 7.25 10.5H14.75C14.888 10.5 15 10.612 15 10.75C15 10.888 14.888 11 14.75 11ZM5.75 13H4.75C4.612 13 4.5 12.888 4.5 12.75C4.5 12.612 4.612 12.5 4.75 12.5H5.75C5.888 12.5 6 12.612 6 12.75C6 12.888 5.888 13 5.75 13ZM14.75 13H7.25C7.112 13 7 12.888 7 12.75C7 12.612 7.112 12.5 7.25 12.5H14.75C14.888 12.5 15 12.612 15 12.75C15 12.888 14.888 13 14.75 13ZM5.75 15H4.75C4.612 15 4.5 14.888 4.5 14.75C4.5 14.612 4.612 14.5 4.75 14.5H5.75C5.888 14.5 6 14.612 6 14.75C6 14.888 5.888 15 5.75 15ZM14.75 15H7.25C7.112 15 7 14.888 7 14.75C7 14.612 7.112 14.5 7.25 14.5H14.75C14.888 14.5 15 14.612 15 14.75C15 14.888 14.888 15 14.75 15Z" fill="#28A745"/>
</svg>
