<svg width="20" height="20" viewBox="0 0 20 20" fill="none" xmlns="http://www.w3.org/2000/svg">
<path d="M16.6664 16.6673H3.33308C3.03433 16.6673 2.75933 16.5077 2.61058 16.249C2.46224 15.9902 2.46308 15.6719 2.61349 15.414L9.28016 3.74732C9.42933 3.49148 9.70349 3.33398 9.99974 3.33398C10.296 3.33398 10.5702 3.49148 10.7197 3.74732L17.3864 15.414C17.5368 15.6719 17.5377 15.9902 17.3893 16.249C17.241 16.5077 16.9647 16.6673 16.6664 16.6673Z" fill="#FFC107"/>
<path d="M9.16699 14.2258C9.16699 14.1137 9.18658 14.0113 9.22658 13.915C9.26574 13.82 9.32199 13.7375 9.39449 13.6683C9.46574 13.5983 9.55366 13.5437 9.65449 13.5046C9.75616 13.4662 9.87033 13.4458 9.99783 13.4458C10.1253 13.4458 10.2403 13.4662 10.3428 13.5046C10.447 13.5437 10.5349 13.5983 10.6062 13.6683C10.6791 13.7375 10.7353 13.82 10.7741 13.915C10.8141 14.0113 10.8337 14.1137 10.8337 14.2258C10.8337 14.3383 10.8141 14.4408 10.7741 14.5342C10.7349 14.6279 10.6787 14.7088 10.6062 14.7792C10.5349 14.8483 10.447 14.9025 10.3428 14.9425C10.2403 14.9808 10.1253 15 9.99783 15C9.86991 15 9.75616 14.9808 9.65449 14.9421C9.55366 14.9021 9.46574 14.8479 9.39449 14.7788C9.32158 14.7083 9.26533 14.6275 9.22658 14.5338C9.18658 14.4404 9.16699 14.3379 9.16699 14.2258ZM10.617 12.5H9.37824L9.20283 7.5H10.792L10.617 12.5Z" fill="#5D4037"/>
</svg>
