<svg width="24" height="24" viewBox="0 0 24 24" fill="none" xmlns="http://www.w3.org/2000/svg">
<g id="Maintenance">
<path id="Vector" d="M4.84118 6.45712L2.83958 5.78992L0.977783 2.68672L2.68598 0.978516L5.78918 2.84032L6.45638 4.84192L13.3756 11.7611L11.7604 13.3763L4.84118 6.45712Z" fill="#85B7FE"/>
<path id="Vector_2" d="M2.73285 1.35501L5.54025 3.03921L6.14985 4.86861L6.19485 5.00301L6.29505 5.10321L12.9515 11.7596L11.7599 12.9512L5.10345 6.29421L5.00325 6.19401L4.86885 6.14961L3.04005 5.54001L1.35525 2.73261L2.73285 1.35501ZM2.63985 0.599609L0.599854 2.63961L2.63925 6.03921L4.67865 6.71901L11.7599 13.7996L13.7999 11.7596L6.71925 4.67901L6.03945 2.63901L2.63985 0.599609Z" fill="#07377F"/>
<path id="Vector_3" d="M20.7206 23.0997C20.0804 23.0997 19.4798 22.8495 19.0298 22.3947L11.2244 14.5257L14.6072 11.1777L22.4114 19.0461C22.859 19.4973 23.1032 20.0961 23.1002 20.7321C23.0966 21.3675 22.8464 21.9639 22.3946 22.4109C21.9464 22.8549 21.3518 23.0997 20.7206 23.0997Z" fill="#0D6EFD"/>
<path id="Vector_4" d="M14.6049 11.6023L22.1985 19.2577C22.5891 19.6525 22.8033 20.1757 22.8003 20.7313C22.7973 21.2869 22.5789 21.8077 22.1841 22.1989C21.7917 22.5871 21.2721 22.8007 20.7207 22.8007C20.1615 22.8007 19.6365 22.5817 19.2423 22.1839L11.6493 14.5291L14.6049 11.6023ZM14.6085 10.7539L10.8003 14.5249L18.8163 22.6063C19.3407 23.1355 20.0307 23.4007 20.7207 23.4007C21.4023 23.4007 22.0839 23.1427 22.6059 22.6249C23.6577 21.5833 23.6661 19.8871 22.6245 18.8353L14.6085 10.7539Z" fill="#07377F"/>
<path id="Vector_5" d="M3.86119 23.1004C3.06499 23.1004 2.31799 22.7884 1.75759 22.2226C1.20079 21.661 0.895989 20.9152 0.900189 20.1244C0.904389 19.3336 1.21579 18.5914 1.77799 18.0358L12.2096 7.68164L16.376 11.89L5.94379 22.2436C5.38639 22.7962 4.64659 23.1004 3.86119 23.1004ZM3.90079 18.9004C3.24139 18.9004 2.70319 19.4362 2.70019 20.0944C2.69719 20.7562 3.23299 21.2974 3.89419 21.3004C4.55839 21.3004 5.09719 20.7646 5.10019 20.1064C5.10319 19.4446 4.56739 18.9034 3.90619 18.9004H3.90079Z" fill="#E7F1FF"/>
<path id="Vector_6" d="M12.2074 8.10486L15.952 11.8867L5.73282 22.0291C5.23182 22.5259 4.56642 22.7995 3.86082 22.7995C3.14502 22.7995 2.47362 22.5193 1.96962 22.0111C0.937019 20.9683 0.945419 19.2805 1.98882 18.2473L12.2074 8.10486ZM3.89862 21.5995H3.89982C4.72302 21.5995 5.39562 20.9299 5.39982 20.1067C5.40402 19.2799 4.73442 18.6037 3.89982 18.5995C3.07662 18.5995 2.40402 19.2691 2.39982 20.0923C2.39802 20.4931 2.55222 20.8705 2.83422 21.1549C3.11622 21.4393 3.49182 21.5977 3.89322 21.5995H3.89862ZM12.211 7.25586L1.56642 17.8213C0.286619 19.0885 0.276419 21.1531 1.54362 22.4329C2.18142 23.0767 3.02082 23.3995 3.86082 23.3995C4.69002 23.3995 5.51922 23.0851 6.15522 22.4557L16.7998 11.8909L12.211 7.25586ZM3.89982 20.9995C3.89802 20.9995 3.89682 20.9995 3.89502 20.9995C3.39822 20.9971 2.99742 20.5921 2.99982 20.0953C3.00222 19.5997 3.40482 19.1995 3.89982 19.1995C3.90162 19.1995 3.90282 19.1995 3.90462 19.1995C4.40142 19.2019 4.80222 19.6069 4.79982 20.1037C4.79742 20.5993 4.39482 20.9995 3.89982 20.9995Z" fill="#07377F"/>
<g id="Group">
<path id="Vector_7" d="M18.3317 12.316C16.6955 12.3154 15.0143 11.5642 13.7171 10.2544C11.3819 7.89579 11.0237 4.45179 12.9167 2.57679C13.9295 1.57419 15.6953 0.900391 17.3105 0.900391C17.9519 0.900391 18.5387 1.00119 19.0601 1.20039L15.2309 4.99479L16.1945 7.79619L18.9875 8.78799L22.8155 4.99359C23.5781 7.04739 22.7279 9.79959 21.3851 11.1298C20.6021 11.9062 19.5461 12.316 18.3317 12.316Z" fill="#E7F1FF"/>
<path id="Vector_8" d="M17.311 1.19961C17.7328 1.19961 18.1288 1.24581 18.4954 1.33641L15.154 4.64781L14.8864 4.91361L15.0088 5.27001L15.8638 7.75641L15.958 8.03001L16.2304 8.12661L18.709 9.00741L19.0642 9.13341L19.3318 8.86821L22.6708 5.55921C23.1046 7.40781 22.3456 9.75621 21.1732 10.9166C20.4472 11.6354 19.4638 12.0158 18.3304 12.0158C16.774 12.0158 15.1696 11.297 13.9282 10.043C12.8374 8.94141 12.1612 7.56741 12.0238 6.17421C11.8912 4.82721 12.2824 3.62541 13.126 2.79021C14.0884 1.83861 15.7696 1.19961 17.311 1.19961ZM17.311 0.599609C15.5716 0.599609 13.753 1.32621 12.7054 2.36361C10.6906 4.35861 11.0482 7.98561 13.5028 10.4648C14.9038 11.8796 16.6852 12.6152 18.331 12.6152C19.5694 12.6152 20.731 12.1988 21.5956 11.3426C23.1262 9.82701 24.0028 6.65181 22.9162 4.47141L18.9094 8.44221L16.4308 7.56141L15.5758 5.07501L19.5826 1.10421C18.898 0.754409 18.1126 0.599609 17.311 0.599609Z" fill="#07377F"/>
</g>
<path id="Vector_9" d="M20.7004 20.6996L15.8914 15.8906" stroke="#07377F" stroke-width="0.6" stroke-miterlimit="10" stroke-linecap="round"/>
</g>
</svg>
