<svg width="20" height="20" viewBox="0 0 20 20" fill="none" xmlns="http://www.w3.org/2000/svg">
<path d="M10 2C5.582 2 2 5.582 2 10C2 14.418 5.582 18 10 18C14.418 18 18 14.418 18 10C18 5.582 14.418 2 10 2ZM14.4713 8.47133L9.43133 13.5113C9.306 13.6367 9.13667 13.7067 8.96 13.7067C8.78333 13.7067 8.61333 13.6367 8.48867 13.5113L6.18667 11.2093C5.926 10.9487 5.926 10.5273 6.18667 10.2667C6.44733 10.006 6.86867 10.006 7.12933 10.2667L8.96 12.0973L13.5287 7.52867C13.7893 7.268 14.2107 7.268 14.4713 7.52867C14.732 7.78933 14.732 8.21067 14.4713 8.47133Z" fill="#28A745"/>
</svg>
