<svg width="24" height="24" viewBox="0 0 24 24" fill="none" xmlns="http://www.w3.org/2000/svg">
<path d="M2.12842 22.4692C2.26342 21.0016 2.69182 17.9908 3.50602 17.1538C4.00882 16.6366 4.67662 16.3516 5.38582 16.3516C6.09562 16.3516 6.76342 16.6366 7.26622 17.1538C8.30962 18.2272 8.30962 19.9732 7.26622 21.0466C6.45622 21.8806 3.55342 22.3264 2.12842 22.4692Z" fill="#FFDA2D"/>
<path d="M5.38649 16.6508C6.01469 16.6508 6.60569 16.9034 7.05149 17.3618C7.98269 18.32 7.98269 19.8788 7.05149 20.8364C6.41969 21.4862 4.13969 21.9386 2.46269 22.1312C2.64509 20.3948 3.08309 18.0188 3.72209 17.3618C4.16729 16.9034 4.75829 16.6508 5.38649 16.6508ZM5.38649 16.0508C4.62809 16.0508 3.86969 16.3484 3.29129 16.9436C2.13389 18.1346 1.80029 22.799 1.80029 22.799C1.80029 22.799 6.32429 22.4456 7.48169 21.2552C8.63909 20.0648 8.63909 18.1346 7.48169 16.9442C6.90269 16.3484 6.14489 16.0508 5.38649 16.0508Z" fill="#806D16"/>
<path d="M5.93214 19.9805C5.54634 20.3771 4.06494 20.4743 4.06494 20.4743C4.06494 20.4743 4.14954 18.9401 4.53534 18.5435C4.92114 18.1469 5.54634 18.1469 5.93214 18.5435C6.31794 18.9401 6.31734 19.5839 5.93214 19.9805Z" fill="white"/>
<path d="M8.02743 21.4166C7.84503 21.4166 7.67403 21.3428 7.54443 21.209L3.35343 16.8974C3.08043 16.6166 3.08043 16.16 3.35343 15.8792L5.93223 13.2266L11.1012 18.5438L8.51103 21.2084C8.38083 21.3428 8.20923 21.4166 8.02743 21.4166Z" fill="#FFFBEA"/>
<path d="M5.9328 13.6579L10.683 18.5455L8.2956 21.0013C8.223 21.0757 8.1276 21.1171 8.0274 21.1171C7.9272 21.1171 7.8318 21.0757 7.7592 21.0013L3.5688 16.6903C3.4104 16.5277 3.4104 16.2523 3.5688 16.0897L5.9328 13.6579ZM5.9328 12.7969L3.1392 15.6709C2.7534 16.0675 2.7534 16.7113 3.1392 17.1079L7.3296 21.4189C7.5222 21.6175 7.7754 21.7165 8.028 21.7165C8.2806 21.7165 8.5338 21.6175 8.7264 21.4189L11.52 18.5449L5.9328 12.7969Z" fill="#806D16"/>
<path d="M11.0696 20.5244L4.01782 13.2692L1.54102 11.9948L4.00342 9.46163C4.31962 9.13643 4.73902 8.95703 5.18422 8.95703C5.29402 8.95703 5.40382 8.96903 5.51122 8.99063L7.87582 9.47783L14.7338 16.5326L15.2078 18.971C15.3188 19.5422 15.1466 20.1296 14.747 20.54L12.3008 23.057L11.0696 20.5244Z" fill="#FFFBEA"/>
<path d="M5.18417 9.2582C5.27297 9.2582 5.36297 9.2672 5.45057 9.2852L7.72517 9.7532L14.456 16.6784L14.9132 19.0292C15.0056 19.5044 14.8628 19.9916 14.5316 20.3324L12.383 22.5428L11.36 20.438L11.318 20.351L11.2508 20.282L4.26617 13.0958L4.19777 13.0256L4.11017 12.9806L2.03717 11.9144L4.21757 9.6716C4.47677 9.4052 4.81997 9.2582 5.18417 9.2582ZM5.18417 8.6582C4.66577 8.6582 4.16177 8.8688 3.78737 9.2534L1.04297 12.077L3.83657 13.514L10.82 20.6996L12.2168 23.5736L14.9612 20.75C15.428 20.2694 15.6308 19.5806 15.5012 18.9146L15.0098 16.3886L8.02577 9.203L5.57057 8.6978C5.44277 8.6714 5.31257 8.6582 5.18417 8.6582Z" fill="#806D16"/>
<path d="M3.55786 14.2332L14.5289 2.9454C15.4349 2.013 17.5415 1.5 20.4599 1.5C21.3347 1.5 22.0577 1.5474 22.4177 1.5762C22.5131 2.7642 22.8167 7.9284 21.0827 9.7128L10.1237 20.9874L3.55786 14.2332Z" fill="#FFFBEA"/>
<path d="M20.4598 1.79922C21.1522 1.79922 21.748 1.82922 22.1398 1.85562C22.288 3.87222 22.2802 8.04762 20.866 9.50262L10.1224 20.557L3.97483 14.2324L14.743 3.15402C15.592 2.28042 17.6224 1.79922 20.4598 1.79922ZM20.4598 1.19922C18.4288 1.19922 15.5638 1.44822 14.3122 2.73582C12.271 4.83642 3.13843 14.2324 3.13843 14.2324L10.1224 21.418C10.1224 21.418 19.2196 12.058 21.2968 9.92142C23.374 7.78482 22.6936 1.29882 22.6936 1.29882C22.6936 1.29882 21.7432 1.19922 20.4598 1.19922Z" fill="#806D16"/>
<path d="M12.2998 9.90039C11.8224 9.90039 11.3645 10.09 11.027 10.4276C10.6894 10.7652 10.4998 11.223 10.4998 11.7004C10.4998 12.1778 10.6894 12.6356 11.027 12.9732C11.3645 13.3107 11.8224 13.5004 12.2998 13.5004C12.7771 13.5004 13.235 13.3107 13.5725 12.9732C13.9101 12.6356 14.0998 12.1778 14.0998 11.7004C14.0998 11.223 13.9101 10.7652 13.5725 10.4276C13.235 10.09 12.7771 9.90039 12.2998 9.90039Z" fill="#FFFBEA"/>
<path d="M12.2997 10.1996C13.1271 10.1996 13.7997 10.8722 13.7997 11.6996C13.7997 12.527 13.1271 13.1996 12.2997 13.1996C11.4723 13.1996 10.7997 12.527 10.7997 11.6996C10.7997 10.8722 11.4723 10.1996 12.2997 10.1996ZM12.2997 9.59961C11.1399 9.59961 10.1997 10.5398 10.1997 11.6996C10.1997 12.8594 11.1399 13.7996 12.2997 13.7996C13.4595 13.7996 14.3997 12.8594 14.3997 11.6996C14.3997 10.5398 13.4595 9.59961 12.2997 9.59961Z" fill="#806D16"/>
<path d="M17.1003 5.10156C16.6229 5.10156 16.1651 5.2912 15.8275 5.62877C15.4899 5.96634 15.3003 6.42417 15.3003 6.90156C15.3003 7.37895 15.4899 7.83679 15.8275 8.17436C16.1651 8.51192 16.6229 8.70156 17.1003 8.70156C17.5777 8.70156 18.0355 8.51192 18.3731 8.17436C18.7106 7.83679 18.9003 7.37895 18.9003 6.90156C18.9003 6.42417 18.7106 5.96634 18.3731 5.62877C18.0355 5.2912 17.5777 5.10156 17.1003 5.10156Z" fill="#FFFBEA"/>
<path d="M17.1 5.40078C17.9274 5.40078 18.6 6.07338 18.6 6.90078C18.6 7.72818 17.9274 8.40078 17.1 8.40078C16.2726 8.40078 15.6 7.72818 15.6 6.90078C15.6 6.07338 16.2726 5.40078 17.1 5.40078ZM17.1 4.80078C15.9402 4.80078 15 5.74098 15 6.90078C15 8.06058 15.9402 9.00078 17.1 9.00078C18.2598 9.00078 19.2 8.06058 19.2 6.90078C19.2 5.74098 18.2598 4.80078 17.1 4.80078Z" fill="#806D16"/>
</svg>
