<svg width="24" height="24" viewBox="0 0 24 24" fill="none" xmlns="http://www.w3.org/2000/svg">
<path d="M3.81739 22.5C3.53179 22.5 3.29959 22.2624 3.29959 21.969V2.031C3.29959 1.7376 3.53239 1.5 3.81739 1.5H9.92359C9.90739 1.6008 9.89959 1.7004 9.89959 1.8C9.89959 2.958 10.8416 3.9 11.9996 3.9C13.1576 3.9 14.0996 2.958 14.0996 1.8C14.0996 1.7004 14.0918 1.6008 14.0756 1.5H20.1818C20.4674 1.5 20.6996 1.7376 20.6996 2.031V21.969C20.6996 22.2618 20.4668 22.5 20.1818 22.5H3.81739Z" fill="#FCEAED"/>
<path d="M20.1816 1.79922C20.3022 1.79922 20.4 1.90302 20.4 2.03022V21.9688C20.4 22.0954 20.3022 22.1992 20.1816 22.1992H3.8184C3.6978 22.1992 3.6 22.0954 3.6 21.9682V2.03022C3.6 1.90302 3.6978 1.79922 3.8184 1.79922H9.6C9.6 3.12282 10.6764 4.19922 12 4.19922C13.3236 4.19922 14.4 3.12282 14.4 1.79922H20.1816ZM20.1816 1.19922H13.6896C13.7568 1.38762 13.8 1.58742 13.8 1.79922C13.8 2.79342 12.9942 3.59922 12 3.59922C11.0058 3.59922 10.2 2.79342 10.2 1.79922C10.2 1.58742 10.2432 1.38762 10.3104 1.19922H3.8184C3.3666 1.19922 3 1.57122 3 2.03022V21.9688C3 22.4272 3.3666 22.7992 3.8184 22.7992H20.1822C20.6334 22.7992 21 22.4272 21 21.9682V2.03022C21 1.57122 20.6334 1.19922 20.1816 1.19922Z" fill="#59141C"/>
<path d="M4.79959 3H19.1996V21H4.79959V3Z" fill="#FCEAED"/>
<path d="M12.0004 0.6C12.6622 0.6 13.2004 1.1382 13.2004 1.8C13.2004 2.4618 12.6622 3 12.0004 3C11.3386 3 10.8004 2.4618 10.8004 1.8C10.8004 1.1382 11.3386 0.6 12.0004 0.6ZM12.0004 0C11.0062 0 10.2004 0.8058 10.2004 1.8C10.2004 2.7942 11.0062 3.6 12.0004 3.6C12.9946 3.6 13.8004 2.7942 13.8004 1.8C13.8004 0.8058 12.9946 0 12.0004 0Z" fill="#59141C"/>
<path d="M9.0002 4.50078C8.504 4.50078 8.1002 4.09698 8.1002 3.60078V1.50078H10.5218L10.5446 1.43718C10.5152 1.55358 10.5002 1.67538 10.5002 1.80078C10.5002 2.62818 11.1728 3.30078 12.0002 3.30078C12.8276 3.30078 13.5002 2.62818 13.5002 1.80078C13.5002 1.67538 13.4852 1.55358 13.4558 1.43718L13.4786 1.50078H15.9002V3.60078C15.9002 4.09698 15.4964 4.50078 15.0002 4.50078H9.0002ZM11.9978 0.300781C11.999 0.300781 12.0014 0.300781 12.0026 0.300781C12.0014 0.300781 11.999 0.300781 11.9978 0.300781Z" fill="#EF9AA3"/>
<path d="M15.5996 1.8V3.6C15.5996 3.9306 15.3302 4.2 14.9996 4.2H8.99959C8.66899 4.2 8.39959 3.9306 8.39959 3.6V1.8H10.1996C10.1996 2.7924 11.0072 3.6 11.9996 3.6C12.992 3.6 13.7996 2.7924 13.7996 1.8H15.5996ZM11.9996 0C11.2172 0 10.5578 0.5022 10.31 1.2H7.79959V3.6C7.79959 4.263 8.33659 4.8 8.99959 4.8H14.9996C15.6626 4.8 16.1996 4.263 16.1996 3.6V1.2H13.6892C13.4414 0.5022 12.782 0 11.9996 0ZM11.9996 3C11.3378 3 10.7996 2.4618 10.7996 1.8C10.7996 1.1382 11.3378 0.6 11.9996 0.6C12.6614 0.6 13.1996 1.1382 13.1996 1.8C13.1996 2.4618 12.6614 3 11.9996 3Z" fill="#59141C"/>
<path d="M13.5 9.89922L14.625 11.0242L17.1 8.69922M13.5 15.2992L14.625 16.4242L17.1 14.0992" stroke="#59141C" stroke-width="0.6" stroke-miterlimit="10" stroke-linecap="round"/>
<path d="M11.7004 10.1996H7.50041C7.33541 10.1996 7.20041 10.0646 7.20041 9.89961C7.20041 9.73461 7.33541 9.59961 7.50041 9.59961H11.7004C11.8654 9.59961 12.0004 9.73461 12.0004 9.89961C12.0004 10.0646 11.8654 10.1996 11.7004 10.1996Z" fill="#EF9AA3"/>
<path d="M11.7004 9.59961H7.50041C7.33541 9.59961 7.20041 9.73461 7.20041 9.89961C7.20041 10.0646 7.33541 10.1996 7.50041 10.1996H11.7004C11.8654 10.1996 12.0004 10.0646 12.0004 9.89961C12.0004 9.73461 11.8654 9.59961 11.7004 9.59961Z" fill="#59141C"/>
<path d="M11.7004 15.6H7.50041C7.33541 15.6 7.20041 15.465 7.20041 15.3C7.20041 15.135 7.33541 15 7.50041 15H11.7004C11.8654 15 12.0004 15.135 12.0004 15.3C12.0004 15.465 11.8654 15.6 11.7004 15.6Z" fill="#EF9AA3"/>
<path d="M11.7004 15H7.50041C7.33541 15 7.20041 15.135 7.20041 15.3C7.20041 15.465 7.33541 15.6 7.50041 15.6H11.7004C11.8654 15.6 12.0004 15.465 12.0004 15.3C12.0004 15.135 11.8654 15 11.7004 15Z" fill="#59141C"/>
</svg>
