<svg width="78" height="77" viewBox="0 0 78 77" fill="none" xmlns="http://www.w3.org/2000/svg">
<rect width="78" height="77" rx="3" fill="#F8F9FA"/>
<path d="M24 53.0002H23C23 53.0002 23 40.5252 23 39.4652C23 38.5902 24 38.5532 24 39.0002C24 39.4962 24 53.0002 24 53.0002Z" fill="#3C4043"/>
<path d="M23.5 58.564C22.593 56.737 21.5 54.282 21.5 53.5C21.5 52.397 22.397 51.5 23.5 51.5C24.603 51.5 25.5 52.397 25.5 53.5C25.5 54.282 24.407 56.737 23.5 58.564Z" fill="#5F6368"/>
<path d="M23.5 52C24.327 52 25 52.673 25 53.5C25 54.019 24.32 55.695 23.5 57.422C22.68 55.695 22 54.02 22 53.5C22 52.673 22.673 52 23.5 52ZM23.5 51C22.119 51 21 52.119 21 53.5C21 54.881 23.5 59.667 23.5 59.667C23.5 59.667 26 54.881 26 53.5C26 52.119 24.881 51 23.5 51Z" fill="#3C4043"/>
<path d="M20.1816 39.3318L38.9996 30.5508L57.8176 39.3318L38.9996 48.1138L20.1816 39.3318Z" fill="#9AA0A6"/>
<path d="M39 31.104L56.635 39.334L39 47.563L21.365 39.333L39 31.104ZM39 30L19 39.333L39 48.666L59 39.333L39 30Z" fill="#3C4043"/>
<path d="M28.5 47.5V40C28.5 38.98 32.59 37.5 39 37.5C45.41 37.5 49.5 38.98 49.5 40V47.5H28.5Z" fill="#BDC1C6"/>
<path d="M39 38C45.043 38 48.727 39.33 49 40V47H28.999L28.994 40.042C29.273 39.33 32.957 38 39 38ZM39 37C32.925 37 28 38.343 28 40C28 40.547 28 47.453 28 48H50C50 47.453 50 40.547 50 40C50 38.343 45.075 37 39 37Z" fill="#3C4043"/>
<path d="M39 50.5C32.59 50.5 28.5 49.02 28.5 48C28.5 46.98 32.59 45.5 39 45.5C45.41 45.5 49.5 46.98 49.5 48C49.5 49.02 45.41 50.5 39 50.5Z" fill="#5F6368"/>
<path d="M39 46C44.926 46 48.582 47.278 48.986 48C48.582 48.722 44.926 50 39 50C33.074 50 29.418 48.722 29.014 48C29.418 47.278 33.074 46 39 46ZM39 45C32.925 45 28 46.343 28 48C28 49.657 32.925 51 39 51C45.075 51 50 49.657 50 48C50 46.343 45.075 45 39 45Z" fill="#3C4043"/>
</svg>
