<svg width="78" height="77" viewBox="0 0 78 77" fill="none" xmlns="http://www.w3.org/2000/svg">
<rect width="78" height="77" rx="3" fill="#EAF6EC"/>
<path d="M51 31.5C49.8065 31.5 48.6619 31.9741 47.818 32.818C46.9741 33.6619 46.5 34.8065 46.5 36C46.5 37.1935 46.9741 38.3381 47.818 39.182C48.6619 40.0259 49.8065 40.5 51 40.5C52.1935 40.5 53.3381 40.0259 54.182 39.182C55.0259 38.3381 55.5 37.1935 55.5 36C55.5 34.8065 55.0259 33.6619 54.182 32.818C53.3381 31.9741 52.1935 31.5 51 31.5Z" fill="#EAF6EC"/>
<path d="M51 32C53.206 32 55 33.794 55 36C55 38.206 53.206 40 51 40C48.794 40 47 38.206 47 36C47 33.794 48.794 32 51 32ZM51 31C48.239 31 46 33.239 46 36C46 38.761 48.239 41 51 41C53.761 41 56 38.761 56 36C56 33.239 53.761 31 51 31Z" fill="#135423"/>
<path d="M43.5 51.5V51C43.5 46.864 46.864 43.5 51 43.5C55.136 43.5 58.5 46.864 58.5 51V51.5H43.5Z" fill="#28A745"/>
<path d="M51 44C54.86 44 58 47.14 58 51H44C44 47.14 47.14 44 51 44ZM51 43C46.582 43 43 46.582 43 51V52H59V51C59 46.582 55.418 43 51 43Z" fill="#135423"/>
<path d="M27 31.5C25.8065 31.5 24.6619 31.9741 23.818 32.818C22.9741 33.6619 22.5 34.8065 22.5 36C22.5 37.1935 22.9741 38.3381 23.818 39.182C24.6619 40.0259 25.8065 40.5 27 40.5C28.1935 40.5 29.3381 40.0259 30.182 39.182C31.0259 38.3381 31.5 37.1935 31.5 36C31.5 34.8065 31.0259 33.6619 30.182 32.818C29.3381 31.9741 28.1935 31.5 27 31.5Z" fill="#EAF6EC"/>
<path d="M27 32C29.206 32 31 33.794 31 36C31 38.206 29.206 40 27 40C24.794 40 23 38.206 23 36C23 33.794 24.794 32 27 32ZM27 31C24.239 31 22 33.239 22 36C22 38.761 24.239 41 27 41C29.761 41 32 38.761 32 36C32 33.239 29.761 31 27 31Z" fill="#135423"/>
<path d="M33.5 22.5C32.4391 22.5 31.4217 22.9214 30.6716 23.6716C29.9214 24.4217 29.5 25.4391 29.5 26.5C29.5 27.5609 29.9214 28.5783 30.6716 29.3284C31.4217 30.0786 32.4391 30.5 33.5 30.5C34.5609 30.5 35.5783 30.0786 36.3284 29.3284C37.0786 28.5783 37.5 27.5609 37.5 26.5C37.5 25.4391 37.0786 24.4217 36.3284 23.6716C35.5783 22.9214 34.5609 22.5 33.5 22.5Z" fill="#EAF6EC"/>
<path d="M33.5 23C35.43 23 37 24.57 37 26.5C37 28.43 35.43 30 33.5 30C31.57 30 30 28.43 30 26.5C30 24.57 31.57 23 33.5 23ZM33.5 22C31.015 22 29 24.015 29 26.5C29 28.985 31.015 31 33.5 31C35.985 31 38 28.985 38 26.5C38 24.015 35.985 22 33.5 22Z" fill="#135423"/>
<path d="M44.5 22.5C43.4391 22.5 42.4217 22.9214 41.6716 23.6716C40.9214 24.4217 40.5 25.4391 40.5 26.5C40.5 27.5609 40.9214 28.5783 41.6716 29.3284C42.4217 30.0786 43.4391 30.5 44.5 30.5C45.5609 30.5 46.5783 30.0786 47.3284 29.3284C48.0786 28.5783 48.5 27.5609 48.5 26.5C48.5 25.4391 48.0786 24.4217 47.3284 23.6716C46.5783 22.9214 45.5609 22.5 44.5 22.5Z" fill="#EAF6EC"/>
<path d="M44.5 23C46.43 23 48 24.57 48 26.5C48 28.43 46.43 30 44.5 30C42.57 30 41 28.43 41 26.5C41 24.57 42.57 23 44.5 23ZM44.5 22C42.015 22 40 24.015 40 26.5C40 28.985 42.015 31 44.5 31C46.985 31 49 28.985 49 26.5C49 24.015 46.985 22 44.5 22Z" fill="#135423"/>
<path d="M19.5 51.5V51C19.5 46.864 22.864 43.5 27 43.5C31.136 43.5 34.5 46.864 34.5 51V51.5H19.5Z" fill="#28A745"/>
<path d="M27 44C30.86 44 34 47.14 34 51H20C20 47.14 23.14 44 27 44ZM27 43C22.582 43 19 46.582 19 51V52H35V51C35 46.582 31.418 43 27 43Z" fill="#135423"/>
<path d="M39 36.5C38.4091 36.5 37.8239 36.6164 37.2779 36.8425C36.732 37.0687 36.2359 37.4002 35.818 37.818C35.4002 38.2359 35.0687 38.732 34.8425 39.2779C34.6164 39.8239 34.5 40.4091 34.5 41C34.5 41.5909 34.6164 42.1761 34.8425 42.7221C35.0687 43.268 35.4002 43.7641 35.818 44.182C36.2359 44.5998 36.732 44.9313 37.2779 45.1575C37.8239 45.3836 38.4091 45.5 39 45.5C39.5909 45.5 40.1761 45.3836 40.7221 45.1575C41.268 44.9313 41.7641 44.5998 42.182 44.182C42.5998 43.7641 42.9313 43.268 43.1575 42.7221C43.3836 42.1761 43.5 41.5909 43.5 41C43.5 40.4091 43.3836 39.8239 43.1575 39.2779C42.9313 38.732 42.5998 38.2359 42.182 37.818C41.7641 37.4002 41.268 37.0687 40.7221 36.8425C40.1761 36.6164 39.5909 36.5 39 36.5Z" fill="#EAF6EC"/>
<path d="M39 37C41.206 37 43 38.794 43 41C43 43.206 41.206 45 39 45C36.794 45 35 43.206 35 41C35 38.794 36.794 37 39 37ZM39 36C36.239 36 34 38.239 34 41C34 43.761 36.239 46 39 46C41.761 46 44 43.761 44 41C44 38.239 41.761 36 39 36Z" fill="#135423"/>
<path d="M31.5 56.5V56C31.5 51.864 34.864 48.5 39 48.5C43.136 48.5 46.5 51.864 46.5 56V56.5H31.5Z" fill="#93D3A2"/>
<path d="M39 49C42.86 49 46 52.14 46 56H32C32 52.14 35.14 49 39 49ZM39 48C34.582 48 31 51.582 31 56V57H47V56C47 51.582 43.418 48 39 48Z" fill="#135423"/>
</svg>
