<svg width="78" height="77" viewBox="0 0 78 77" fill="none" xmlns="http://www.w3.org/2000/svg">
<rect width="78" height="77" rx="3" fill="#F1E9FB"/>
<path d="M30.5224 53.7992C31.0256 53.7992 31.5144 53.6984 31.9744 53.4984C34.7384 52.3 40.0832 49.5816 44.8328 44.832C49.5824 40.0824 52.3008 34.7376 53.4992 31.9744C54.1056 30.576 53.7904 28.9656 52.6968 27.872L49.7152 24.8904C49.2696 24.4448 48.6768 24.1992 48.0456 24.1992C47.4144 24.1992 46.8216 24.4448 46.376 24.8912L42.4696 28.7976C42.036 29.2312 41.8032 29.8352 41.8152 30.4984C41.8264 31.1352 42.0648 31.7328 42.4696 32.1376L46.5576 36.2256L46.468 36.4664C46.4192 36.5968 45.2504 39.6888 42.4696 42.4688C39.6896 45.2496 36.5976 46.4192 36.4672 46.4672L36.2264 46.5568L32.1384 42.4688C31.692 42.0224 31.0992 41.7768 30.468 41.7768C29.8368 41.7768 29.244 42.0224 28.7984 42.4688L24.892 46.3752C23.9712 47.296 23.9712 48.7944 24.892 49.7152L27.8736 52.6968C28.5736 53.3976 29.54 53.7992 30.5224 53.7992Z" fill="#B893F2"/>
<path d="M48.0456 24.6008C47.5216 24.6008 47.0288 24.8048 46.6584 25.1752L42.752 29.0816C41.9704 29.8632 42.1104 31.2144 42.752 31.856L46.6584 35.7624L47.0216 36.1256L46.8424 36.6072C46.7928 36.7408 45.5936 39.912 42.752 42.7536C39.9104 45.5952 36.7392 46.7944 36.6056 46.844L36.124 47.0232L35.7608 46.66L31.8544 42.7536C31.484 42.3832 30.9912 42.1792 30.4672 42.1792C29.9432 42.1792 29.4504 42.3832 29.08 42.7536L25.1736 46.66C24.4088 47.4248 24.4088 48.6696 25.1736 49.4344L28.1544 52.4152C28.7824 53.0416 29.6456 53.4008 30.5232 53.4008C30.9712 53.4008 31.4056 53.3104 31.816 53.1328C34.5536 51.9464 39.848 49.2528 44.5504 44.5512C49.2528 39.8488 51.9456 34.5544 53.132 31.8168C53.6728 30.5696 53.3904 29.1336 52.4144 28.1568L49.4336 25.176C49.0624 24.8048 48.5696 24.6008 48.0456 24.6008ZM48.0456 23.8008C48.752 23.8008 49.4592 24.0704 49.9984 24.6096L52.98 27.5912C54.1736 28.7848 54.5376 30.5864 53.8664 32.1352C52.54 35.196 49.8128 40.42 45.116 45.1168C40.4192 49.8136 35.1944 52.54 32.1344 53.8672C31.6144 54.092 31.0672 54.2008 30.5232 54.2008C29.4456 54.2008 28.3832 53.7736 27.5904 52.9808L24.6096 50C23.5312 48.9216 23.5312 47.1728 24.6096 46.0936L28.516 42.1872C29.0552 41.648 29.7624 41.3784 30.4688 41.3784C31.1752 41.3784 31.8824 41.648 32.4216 42.1872L36.328 46.0936C36.328 46.0936 39.4368 44.9384 42.1872 42.1872C44.9376 39.4368 46.0936 36.328 46.0936 36.328L42.1872 32.4216C41.2088 31.4432 41.1088 29.5944 42.1872 28.5152L46.0936 24.6088C46.632 24.0704 47.3384 23.8008 48.0456 23.8008Z" fill="#381472"/>
</svg>
