<svg width="22" height="14" viewBox="0 0 22 14" fill="none" xmlns="http://www.w3.org/2000/svg">
<path d="M2.30615 0.3125C1.12134 0.3125 0.149902 1.28394 0.149902 2.46875V11.0938C0.149902 12.2786 1.12134 13.25 2.30615 13.25H19.5562C20.741 13.25 21.7124 12.2786 21.7124 11.0938V2.46875C21.7124 1.28394 20.741 0.3125 19.5562 0.3125H2.30615ZM2.30615 1.75H19.5562C19.9604 1.75 20.2749 2.06445 20.2749 2.46875V11.0938C20.2749 11.498 19.9604 11.8125 19.5562 11.8125H2.30615C1.90186 11.8125 1.5874 11.498 1.5874 11.0938V2.46875C1.5874 2.06445 1.90186 1.75 2.30615 1.75ZM3.0249 3.1875V4.625H4.4624V3.1875H3.0249ZM5.8999 3.1875V4.625H7.3374V3.1875H5.8999ZM8.7749 3.1875V4.625H10.2124V3.1875H8.7749ZM11.6499 3.1875V4.625H13.0874V3.1875H11.6499ZM14.5249 3.1875V4.625H15.9624V3.1875H14.5249ZM17.3999 3.1875V4.625H18.8374V3.1875H17.3999ZM3.0249 6.0625V7.5H4.4624V6.0625H3.0249ZM5.8999 6.0625V7.5H7.3374V6.0625H5.8999ZM8.7749 6.0625V7.5H10.2124V6.0625H8.7749ZM11.6499 6.0625V7.5H13.0874V6.0625H11.6499ZM14.5249 6.0625V7.5H15.9624V6.0625H14.5249ZM17.3999 6.0625V7.5H18.8374V6.0625H17.3999ZM7.3374 8.9375V10.375H14.5249V8.9375H7.3374ZM3.0249 8.94873V10.3918H5.8999V8.94873H3.0249ZM15.9849 8.94873V10.3918H18.8599V8.94873H15.9849Z" fill="#5F6368"/>
</svg>
