<svg width="78" height="77" viewBox="0 0 78 77" fill="none" xmlns="http://www.w3.org/2000/svg">
<rect width="78" height="77" rx="3" fill="#FCE4EC"/>
<path d="M32.219 26.6562C32.344 26.6562 32.469 26.625 32.594 26.5938C33.0627 26.4062 33.3127 25.8438 33.094 25.375L31.2815 21.0312C31.094 20.5625 30.5315 20.3125 30.0627 20.5313C29.594 20.7188 29.344 21.2812 29.5627 21.75L31.3752 26.0938C31.5002 26.4375 31.8752 26.6562 32.219 26.6562ZM28.9377 28.75L24.469 27.3438C23.969 27.1875 23.4377 27.4688 23.2815 27.9688C23.1252 28.4688 23.4065 29 23.9065 29.1562L28.3752 30.5313C28.469 30.5625 28.5627 30.5625 28.6565 30.5625C29.0627 30.5625 29.4377 30.3125 29.5627 29.9063C29.719 29.4063 29.4377 28.9062 28.9377 28.75ZM34.6877 53.2188C34.8752 53.2812 35.0627 53.3438 35.2502 53.3438C35.6877 53.3438 36.094 53.1562 36.3752 52.8438L40.594 48.3438L43.469 55.2812C43.6252 55.6562 43.969 55.8438 44.344 55.8438C44.469 55.8438 44.594 55.8125 44.719 55.7812C45.1877 55.5937 45.4377 55.0312 45.219 54.5625L42.3127 47.5938H48.6877C49.3127 47.5938 49.9065 47.2188 50.1252 46.625C50.3752 46.0312 50.219 45.375 49.7502 44.9062L36.344 31.8438C35.9065 31.4062 35.219 31.2812 34.6565 31.5312C34.0627 31.7812 33.719 32.3438 33.719 32.9688V51.7812C33.6877 52.4375 34.0627 53 34.6877 53.2188ZM35.5627 33.7188L47.9377 45.7188H40.9065C40.6565 45.7188 40.4065 45.8125 40.219 46.0312L35.5627 51.0312V33.7188ZM38.8752 21.375L36.6877 25.5312C36.4377 26 36.6252 26.5625 37.094 26.7812C37.219 26.8438 37.3752 26.875 37.5315 26.875C37.8752 26.875 38.1877 26.6875 38.3752 26.375L40.5627 22.2188C40.8127 21.75 40.6252 21.1875 40.1565 20.9688C39.6877 20.75 39.1252 20.9062 38.8752 21.375Z" fill="#880E4F"/>
</svg>
