<svg width="78" height="77" viewBox="0 0 78 77" fill="none" xmlns="http://www.w3.org/2000/svg">
<rect width="78" height="77" rx="3" fill="#FFFBEA"/>
<path d="M32.783 27.6486L44 27.6426L47.109 36.2956L51.5 40.0006V57.6426H28.5C26.12 57.6426 24.5 55.5226 24.5 53.1426C24.5 50.7626 25.93 48.7926 28.31 48.7926C30.497 48.7926 32.342 50.4216 32.62 52.5336V27.8926" fill="#FFFBEA"/>
<path d="M32.4999 52.142C32.4189 49.743 30.9149 48.642 28.4999 48.642C26.0279 48.642 24.3369 50.629 24.3369 53.102V27.973C24.3369 25.501 26.3369 23.5 28.8099 23.5C31.2819 23.5 32.4999 25.669 32.4999 28.142C32.4999 29.305 32.4999 52.142 32.4999 52.142Z" fill="#FFDA2D"/>
<path d="M51.5 39.5006V57.6426H29C26.62 57.6426 24.5 55.4826 24.5 53.1026C24.5 50.7226 26.12 48.6426 28.5 48.6426C30.687 48.6426 32.5 50.6426 32.5 52.6426V27.6426" stroke="#803C25" stroke-miterlimit="10"/>
<path d="M32.5 27.6426H43.5" stroke="#803C25" stroke-miterlimit="10"/>
<path d="M32.5 27.6426C32.5 25.2626 30.88 23.6426 28.5 23.6426C26.12 23.6426 24.5 25.5116 24.5 27.8926V53.1426" stroke="#803C25" stroke-miterlimit="10"/>
<path d="M50.4547 27.5C48.5247 27.5 46.9547 29.07 46.9547 31C46.9547 32.93 48.5247 34.5 50.4547 34.5C52.3847 34.5 53.9547 32.93 53.9547 31C53.9547 29.07 52.3847 27.5 50.4547 27.5ZM49.3787 39.5L49.0187 37.341L48.7117 37.256C47.6557 36.963 46.6857 36.404 45.9047 35.639L45.6777 35.416L43.6317 36.183L42.5547 34.319L44.2447 32.927L44.1657 32.619C44.0257 32.072 43.9547 31.527 43.9547 31C43.9547 30.473 44.0257 29.928 44.1667 29.382L44.2457 29.074L42.5557 27.682L43.6327 25.818L45.6787 26.585L45.9047 26.361C46.6847 25.597 47.6547 25.038 48.7117 24.744L49.0187 24.659L49.3787 22.5H51.5307L51.8907 24.659L52.1977 24.744C53.2547 25.038 54.2247 25.597 55.0047 26.361L55.2317 26.584L57.2777 25.817L58.3547 27.681L56.6647 29.073L56.7437 29.381C56.8837 29.928 56.9547 30.473 56.9547 31C56.9547 31.527 56.8837 32.072 56.7427 32.618L56.6637 32.926L58.3537 34.318L57.2767 36.182L55.2307 35.415L55.0037 35.638C54.2237 36.403 53.2527 36.962 52.1967 37.255L51.8897 37.34L51.5297 39.499L49.3787 39.5Z" fill="#FFDA2D"/>
<path d="M50.4552 35C52.6612 35 54.4552 33.206 54.4552 31C54.4552 28.794 52.6612 27 50.4552 27C48.2492 27 46.4552 28.794 46.4552 31C46.4552 33.206 48.2492 35 50.4552 35ZM50.4552 34C48.7982 34 47.4552 32.657 47.4552 31C47.4552 29.343 48.7982 28 50.4552 28C52.1122 28 53.4552 29.343 53.4552 31C53.4552 32.657 52.1122 34 50.4552 34ZM51.1082 23L51.3462 24.426L51.4512 25.054L52.0652 25.225C53.0402 25.496 53.9362 26.012 54.6552 26.718L55.1102 27.164L55.7062 26.941L57.0582 26.435L57.7112 27.566L56.5932 28.486L56.1012 28.89L56.2592 29.506C56.3892 30.013 56.4552 30.516 56.4552 31C56.4552 31.484 56.3892 31.987 56.2592 32.494L56.1012 33.11L56.5922 33.514L57.7102 34.434L57.0572 35.565L55.7052 35.059L55.1092 34.836L54.6542 35.282C53.9352 35.987 53.0392 36.504 52.0642 36.775L51.4502 36.946L51.3452 37.574L51.1082 39H49.8022L49.5642 37.574L49.4592 36.946L48.8452 36.775C47.8702 36.504 46.9742 35.988 46.2552 35.282L45.8002 34.836L45.2052 35.059L43.8532 35.565L43.2002 34.434L44.3182 33.514L44.8092 33.11L44.6512 32.494C44.5212 31.987 44.4552 31.484 44.4552 31C44.4552 30.516 44.5212 30.013 44.6512 29.506L44.8092 28.89L44.3182 28.486L43.2002 27.566L43.8532 26.435L45.2052 26.941L45.8012 27.164L46.2562 26.718C46.9752 26.013 47.8712 25.496 48.8462 25.225L49.4602 25.054L49.5652 24.426L49.8022 23H51.1082ZM51.9552 22H48.9552L48.5782 24.262C47.4232 24.583 46.3882 25.188 45.5562 26.004L43.4112 25.201L41.9112 27.799L43.6832 29.258C43.5392 29.816 43.4552 30.397 43.4552 31C43.4552 31.603 43.5392 32.184 43.6822 32.742L41.9102 34.2L43.4102 36.798L45.5552 35.994C46.3872 36.81 47.4222 37.415 48.5772 37.736L48.9552 40H51.9552L52.3322 37.738C53.4872 37.417 54.5222 36.812 55.3542 35.996L57.4992 36.8L58.9992 34.202L57.2272 32.744C57.3712 32.184 57.4552 31.603 57.4552 31C57.4552 30.397 57.3712 29.816 57.2282 29.258L59.0002 27.799L57.5002 25.201L55.3552 26.005C54.5232 25.189 53.4882 24.584 52.3332 24.263L51.9552 22Z" fill="#803C25"/>
</svg>
