<svg width="78" height="77" viewBox="0 0 78 77" fill="none" xmlns="http://www.w3.org/2000/svg">
<rect width="78" height="77" rx="3" fill="#FFF1ED"/>
<path d="M23 51.5C21.621 51.5 20.5 50.378 20.5 49V29C20.5 27.622 21.621 26.5 23 26.5H55C56.379 26.5 57.5 27.622 57.5 29V49C57.5 50.378 56.379 51.5 55 51.5H23Z" fill="#FFF1ED"/>
<path d="M55 27C56.103 27 57 27.897 57 29V49C57 50.103 56.103 51 55 51H23C21.897 51 21 50.103 21 49V29C21 27.897 21.897 27 23 27H55ZM55 26H23C21.343 26 20 27.343 20 29V49C20 50.657 21.343 52 23 52H55C56.657 52 58 50.657 58 49V29C58 27.343 56.657 26 55 26Z" fill="#803C25"/>
<path d="M34 38V27H32V38H21V40H32V51H34V40H57V38H34Z" fill="#FF784B"/>
<path d="M43.5 47.5H49.5M43.5 44.5H53.5H43.5Z" stroke="#803C25" stroke-miterlimit="10" stroke-linecap="round"/>
<path d="M33.5 35C33.5 33.067 35.067 31.5 37 31.5C38.933 31.5 40.5 33.067 40.5 35C40.5 36.933 38.933 38.5 37 38.5M29 38.5C27.067 38.5 25.5 36.933 25.5 35C25.5 33.067 27.067 31.5 29 31.5C30.933 31.5 32.5 33.067 32.5 35L29 38.5Z" stroke="#FF784B" stroke-miterlimit="10"/>
<path d="M26.5 44.5003C31.5 44.5003 32 39.2383 32 39.2383M39.5 44.5003C34.5 44.5003 34 39.2383 34 39.2383L39.5 44.5003Z" stroke="#FF784B" stroke-miterlimit="10" stroke-linecap="round"/>
</svg>
