<svg width="22" height="20" viewBox="0 0 22 20" fill="none" xmlns="http://www.w3.org/2000/svg">
<path d="M15.5866 1.1098C10.6715 -1.42272 4.64656 0.529429 2.10973 5.43619C-0.427096 10.3429 1.52838 16.3577 6.44348 18.8902C11.3586 21.4227 17.3836 19.4706 19.9204 14.5638C22.4572 9.60429 20.5017 3.64232 15.5866 1.1098ZM15.4809 12.2423C14.2125 14.7221 11.2 15.6718 8.71606 14.4055C6.23208 13.1393 5.28077 10.1319 6.54918 7.65214C7.8176 5.17238 10.8301 4.22269 13.3141 5.48895C15.798 6.80797 16.7493 9.81534 15.4809 12.2423Z" fill="#69CDCF"/>
<path d="M18.1235 6.43827C17.4893 5.80514 16.8022 5.33029 16.0623 4.96097C13.2612 3.64195 9.82592 4.11679 7.50049 6.38551C8.98031 4.9082 11.3586 4.48612 13.3141 5.48857C15.798 6.75483 16.7493 9.7622 15.4809 12.242C15.2695 12.7168 14.9524 13.0861 14.5825 13.4555C14.5825 13.4555 14.5825 13.4555 14.5296 13.5082L14.4768 13.561C12.1513 15.8297 8.71606 16.3045 5.96783 14.9855C5.22792 14.6162 4.54086 14.1413 3.90665 13.5082C0.999871 10.6064 0.999869 5.91066 3.8538 2.95605C3.16674 3.64195 2.58539 4.48612 2.10973 5.38305C-0.427096 10.2898 1.52838 16.3045 6.44348 18.8371C10.3544 20.842 15.0053 19.9978 17.9649 17.096C17.9649 17.096 17.9649 17.096 18.0178 17.0432L18.0706 16.9904L18.1235 16.9377C18.1235 16.9377 18.1235 16.9377 18.1235 16.8849C21.0302 13.9831 20.9774 9.34011 18.1235 6.43827Z" fill="url(#paint0_linear)"/>
<path d="M15.585 1.10959C11.674 -0.895324 7.02319 -0.0511503 4.0107 2.85069C4.0107 2.85069 4.0107 2.85069 3.95785 2.90346C3.95785 2.90346 3.95785 2.90345 3.905 2.95622L3.85215 3.00898C0.998217 5.96358 0.998218 10.6065 3.905 13.5611C4.53921 14.1943 5.22626 14.6691 5.96617 15.0384C8.76725 16.3575 12.2025 15.8826 14.528 13.6139C13.0482 15.0912 10.6699 15.5133 8.7144 14.5108C6.23043 13.2446 5.27912 10.2372 6.54753 7.75745C6.81178 7.2826 7.07604 6.86052 7.44599 6.49119C7.44599 6.49119 7.44599 6.49119 7.49884 6.43843C9.82427 4.16971 13.2596 3.64211 16.0606 5.01389C16.8005 5.38321 17.4876 5.85806 18.1218 6.49119C21.0286 9.39304 21.0286 14.0887 18.1747 16.9906C18.8617 16.3047 19.4431 15.4605 19.9187 14.5636C22.4556 9.60408 20.5001 3.64211 15.585 1.10959Z" fill="url(#paint1_linear)"/>
<defs>
<linearGradient id="paint0_linear" x1="1.06403" y1="19.8415" x2="10.8964" y2="9.9923" gradientUnits="userSpaceOnUse">
<stop stop-color="#69CDCF" stop-opacity="0"/>
<stop offset="1" stop-color="#009EA5"/>
</linearGradient>
<linearGradient id="paint1_linear" x1="19.8621" y1="0.846892" x2="11.9275" y2="9.0707" gradientUnits="userSpaceOnUse">
<stop stop-color="#69CDCF" stop-opacity="0"/>
<stop offset="1" stop-color="#009EA5"/>
</linearGradient>
</defs>
</svg>
