<svg xmlns="http://www.w3.org/2000/svg" width="39" height="43" viewBox="0 0 39 43">
    <g fill="none" fill-rule="evenodd">
        <g fill-rule="nonzero">
            <g>
                <g>
                    <g>
                        <path fill="#FFD869" d="M30 11v25c0 1.105-.895 2-2 2H2c-1.105 0-2-.895-2-2V2C0 .895.895 0 2 0h17l11 11z" transform="translate(-932 -355) translate(910 107) translate(22 242) translate(0 6)"/>
                        <path fill="#EBA600" d="M19 0v9c0 1.105.895 2 2 2h9L19 0z" transform="translate(-932 -355) translate(910 107) translate(22 242) translate(0 6)"/>
                        <path fill="#21AD64" d="M29 43c5.523 0 10-4.477 10-10s-4.477-10-10-10-10 4.477-10 10 4.477 10 10 10z" transform="translate(-932 -355) translate(910 107) translate(22 242) translate(0 6)"/>
                        <path fill="#FFF" d="M29.5 38h-1c-.276 0-.5-.224-.5-.5v-9c0-.276.224-.5.5-.5h1c.276 0 .5.224.5.5v9c0 .276-.224.5-.5.5z" transform="translate(-932 -355) translate(910 107) translate(22 242) translate(0 6)"/>
                        <path fill="#FFF" d="M24 33.5v-1c0-.276.224-.5.5-.5h9c.276 0 .5.224.5.5v1c0 .276-.224.5-.5.5h-9c-.276 0-.5-.224-.5-.5z" transform="translate(-932 -355) translate(910 107) translate(22 242) translate(0 6)"/>
                    </g>
                </g>
            </g>
        </g>
    </g>
</svg>
