<svg xmlns="http://www.w3.org/2000/svg" width="42" height="43" viewBox="0 0 42 43">
    <g fill="none" fill-rule="evenodd">
        <g fill-rule="nonzero">
            <g>
                <g>
                    <g>
                        <path fill="#FEC62D" d="M3 5h30c1.7 0 3 1.3 3 3v29H0V8c0-1.7 1.3-3 3-3z" transform="translate(-932 -207) translate(910 107) translate(22 94) translate(0 6)"/>
                        <path fill="#EBA600" d="M3 7h30c.6 0 1 .4 1 1v29H2V8c0-.6.4-1 1-1z" transform="translate(-932 -207) translate(910 107) translate(22 94) translate(0 6)"/>
                        <path fill="#FFD869" d="M35 31H24.7c-.9 0-1.6.6-1.9 1.5-.6 2-2.5 3.5-4.8 3.5s-4.1-1.5-4.8-3.5c-.3-.9-1-1.5-1.9-1.5H1c-.6 0-1 .4-1 1v8c0 1.7 1.3 3 3 3h30c1.7 0 3-1.3 3-3v-8c0-.6-.4-1-1-1z" transform="translate(-932 -207) translate(910 107) translate(22 94) translate(0 6)"/>
                        <path fill="#21AD64" d="M32 20c5.523 0 10-4.477 10-10S37.523 0 32 0 22 4.477 22 10s4.477 10 10 10z" transform="translate(-932 -207) translate(910 107) translate(22 94) translate(0 6)"/>
                        <path fill="#FFF" d="M32.5 15h-1c-.3 0-.5-.2-.5-.5v-9c0-.3.2-.5.5-.5h1c.3 0 .5.2.5.5v9c0 .3-.2.5-.5.5z" transform="translate(-932 -207) translate(910 107) translate(22 94) translate(0 6)"/>
                        <path fill="#FFF" d="M27 10.5v-1c0-.3.2-.5.5-.5h9c.3 0 .5.2.5.5v1c0 .3-.2.5-.5.5h-9c-.3 0-.5-.2-.5-.5z" transform="translate(-932 -207) translate(910 107) translate(22 94) translate(0 6)"/>
                    </g>
                </g>
            </g>
        </g>
    </g>
</svg>
