<svg xmlns="http://www.w3.org/2000/svg" xmlns:xlink="http://www.w3.org/1999/xlink" width="48" height="48" viewBox="0 0 48 48">
    <defs>
        <radialGradient id="2s72gigotc" cx="49.613%" cy="78.942%" r="78.759%" fx="49.613%" fy="78.942%" gradientTransform="matrix(.63158 0 0 1 .183 0)">
            <stop offset="93.4%" stop-opacity=".2"/>
            <stop offset="100%" stop-opacity="0"/>
        </radialGradient>
        <path id="58jqwk8uua" d="M0 0H48V48H0z"/>
    </defs>
    <g fill="none" fill-rule="evenodd">
        <g>
            <g>
                <g>
                    <g transform="translate(-932 -278) translate(910 107) translate(22 168) translate(0 3)">
                        <mask id="s6ybk7yjvb" fill="#fff">
                            <use xlink:href="#58jqwk8uua"/>
                        </mask>
                        <use fill="#FFF" fill-opacity="0" xlink:href="#58jqwk8uua"/>
                        <g fill-rule="nonzero" mask="url(#s6ybk7yjvb)">
                            <g transform="translate(1 7)">
                                <path fill="#50E6FF" d="M45 20.9h-6.63c-.018-3.8-1.54-7.436-4.233-10.116C31.443 8.104 27.798 6.6 24 6.6c-3.8 0-7.444 1.504-10.136 4.184C11.17 13.464 9.648 17.1 9.63 20.9H3c-.001-1.995.289-3.979.86-5.89 1.293-4.337 3.952-8.14 7.58-10.845C15.07 1.461 19.475 0 24 0s8.93 1.46 12.56 4.165c3.628 2.705 6.287 6.508 7.58 10.845.572 1.911.861 3.895.86 5.89z"/>
                                <path fill="#42A4ED" d="M46 17v7c-.002.53-.213 1.038-.587 1.413-.375.374-.883.585-1.413.587h-3.5V15H44c.047-.002.094.001.14.01.504.035.976.26 1.322.63.345.368.537.855.538 1.36z"/>
                                <path fill="#EBA600" d="M28 37.273v4.454c-.001.338-.155.66-.427.9-.273.238-.642.372-1.027.373H24v-7h2.546c.034 0 .068.001.101.007.367.022.71.165.961.4.251.235.391.544.392.866z"/>
                                <path fill="#42A4ED" d="M7.5 15v11H4c-.53-.002-1.038-.213-1.412-.587C2.213 25.038 2.002 24.53 2 24v-7c.001-.505.193-.992.538-1.36.346-.37.818-.595 1.322-.63.046-.009.093-.012.14-.01h3.5z"/>
                                <path fill="#EBA600" d="M4 36v7H1.455c-.386-.001-.755-.135-1.028-.374-.272-.238-.426-.561-.427-.899v-4.454c0-.322.14-.631.392-.866.25-.235.594-.378.96-.4.034-.006.068-.008.103-.007H4z"/>
                                <path fill="url(#2s72gigotc)" d="M43 20.9v.1c.002 1.69-.223 3.371-.67 5H40.5v-5.1h-2.13c-.018-3.8-1.54-7.436-4.233-10.116C31.443 8.104 27.798 6.6 24 6.6c-3.8 0-7.444 1.504-10.136 4.184C11.17 13.464 9.648 17.1 9.63 20.9H7.5V26H5.67c-.447-1.629-.672-3.31-.67-5v-.1c.007-2.007.338-4 .98-5.9 1.258-3.785 3.676-7.077 6.91-9.41C16.125 3.255 20.012 2 24 2c3.988 0 7.875 1.256 11.11 3.59 3.234 2.333 5.652 5.625 6.91 9.41.642 1.9.973 3.893.98 5.9z"/>
                                <path fill="#FFD869" d="M24 3c-4.774 0-9.352 1.896-12.728 5.272C7.896 11.648 6 16.226 6 21h36c0-4.774-1.897-9.352-5.272-12.728C33.352 4.896 28.774 3 24 3z"/>
                                <path fill="#64717C" d="M31.1 31.9H16.9c-1.3 0-2.587-.256-3.789-.753-1.2-.498-2.292-1.227-3.212-2.146-.919-.92-1.648-2.011-2.146-3.212C7.256 24.588 7 23.3 7 22c0-1.3.256-2.587.753-3.788C8.251 17.01 8.98 15.919 9.9 15c.92-.92 2.011-1.649 3.212-2.146 1.201-.498 2.489-.754 3.789-.754h14.2c1.3 0 2.587.256 3.789.754 1.2.497 2.292 1.226 3.211 2.146.92.919 1.649 2.01 2.146 3.212.498 1.2.754 2.488.754 3.788 0 1.3-.256 2.588-.754 3.789-.497 1.2-1.226 2.292-2.146 3.212-.919.919-2.01 1.648-3.211 2.146-1.202.497-2.489.753-3.789.753z"/>
                                <path fill="#EBA600" d="M31.05 33h-14.1c-2.903-.003-5.686-1.158-7.74-3.21-2.052-2.054-3.207-4.837-3.21-7.74v-.1c.003-2.903 1.158-5.686 3.21-7.74 2.054-2.052 4.837-3.207 7.74-3.21h14.1c2.903.003 5.686 1.158 7.74 3.21 2.052 2.054 3.207 4.837 3.21 7.74v.101c-.003 2.903-1.158 5.686-3.211 7.739-2.053 2.052-4.836 3.207-7.739 3.21zm-14.1-20c-2.373.003-4.648.947-6.326 2.624C8.947 17.302 8.003 19.577 8 21.95v.101c.003 2.373.947 4.647 2.625 6.325S14.577 30.997 16.95 31h14.1c2.373-.003 4.648-.946 6.326-2.624 1.678-1.678 2.622-3.953 2.624-6.326v-.1c-.003-2.373-.947-4.648-2.624-6.326-1.678-1.678-3.953-2.621-6.326-2.624h-14.1z"/>
                                <path fill="#50E6FF" d="M20.999 23c-.228 0-.448-.078-.625-.22-.178-.143-.301-.341-.35-.563-.168-.664-.561-1.249-1.113-1.653-.552-.405-1.228-.605-1.911-.564-.683-.04-1.36.159-1.911.564-.552.404-.946.989-1.113 1.653-.058.258-.216.483-.44.625-.223.142-.494.19-.752.132-.259-.058-.484-.215-.627-.438-.142-.224-.19-.494-.134-.753.264-1.109.905-2.091 1.812-2.781S15.861 17.958 17 18c1.139-.042 2.257.312 3.165 1.002.907.69 1.547 1.672 1.811 2.781.058.26.01.53-.133.754-.142.224-.368.382-.627.44-.071.015-.144.023-.217.023zM34.999 23c-.228 0-.448-.078-.626-.22-.177-.143-.3-.341-.35-.563-.167-.664-.56-1.249-1.112-1.653-.552-.405-1.228-.605-1.911-.564-.683-.04-1.36.159-1.911.564-.552.404-.946.989-1.113 1.653-.058.258-.216.483-.44.625-.223.142-.494.19-.753.132-.258-.058-.483-.215-.626-.438-.142-.224-.19-.494-.134-.753.264-1.109.905-2.091 1.812-2.781S29.861 17.958 31 18c1.139-.042 2.257.312 3.164 1.002.908.69 1.548 1.672 1.812 2.781.057.26.01.53-.133.754-.142.224-.368.382-.627.44-.071.015-.144.023-.217.023z"/>
                                <path fill="#64717C" d="M4.1 52V37.8c0-1.3.256-2.588.754-3.789C5.35 32.811 6.08 31.72 7 30.8c.92-.919 2.01-1.648 3.212-2.146 1.2-.497 2.488-.753 3.788-.753 1.3 0 2.588.256 3.789.753 1.201.498 2.293 1.227 3.212 2.146.92.92 1.648 2.011 2.146 3.212.497 1.201.753 2.489.753 3.789V52c0 1.3-.256 2.587-.753 3.788C22.649 56.99 21.92 58.081 21 59c-.92.92-2.01 1.649-3.212 2.146-1.201.498-2.489.754-3.789.754-1.3 0-2.587-.256-3.788-.754C9.01 60.65 7.919 59.92 7 59c-.92-.919-1.649-2.01-2.146-3.212C4.356 54.588 4.1 53.3 4.1 52z"/>
                                <path fill="#50E6FF" d="M12.4 38c-.137 0-.27-.047-.376-.132-.106-.086-.18-.205-.21-.338-.1-.398-.336-.748-.667-.99-.332-.243-.737-.363-1.147-.339-.41-.024-.816.096-1.147.338-.331.243-.567.593-.667.991-.035.155-.13.29-.264.375-.134.085-.297.114-.452.08-.155-.035-.29-.13-.376-.263-.085-.134-.114-.297-.08-.452.158-.664.543-1.254 1.087-1.667.544-.414 1.215-.626 1.899-.601.683-.025 1.354.187 1.899.6.544.414.928 1.004 1.087 1.668.034.156.005.318-.08.452-.086.134-.22.23-.376.264-.043.01-.087.014-.13.014z"/>
                                <path fill="#FFB400" d="M3 52.05v-14.1c.003-2.903 1.158-5.686 3.21-7.74 2.054-2.052 4.837-3.207 7.74-3.21h.1c2.903.003 5.686 1.158 7.74 3.21 2.052 2.054 3.207 4.837 3.21 7.74v14.1c-.003 2.903-1.158 5.686-3.21 7.74-2.054 2.052-4.837 3.207-7.74 3.21h-.101c-2.903-.003-5.686-1.158-7.739-3.211C4.158 57.736 3.003 54.953 3 52.05zm20-14.1c-.003-2.373-.947-4.648-2.624-6.326-1.678-1.677-3.953-2.621-6.326-2.624h-.101c-2.373.003-4.647.947-6.325 2.625S5.003 35.577 5 37.95v14.1c.003 2.373.946 4.648 2.624 6.326 1.678 1.678 3.953 2.622 6.326 2.624h.1c2.373-.003 4.648-.947 6.326-2.624 1.677-1.678 2.621-3.953 2.624-6.326v-14.1z"/>
                                <rect width="5" height="1.4" x="16" y="36.5" fill="#50E6FF" rx=".7"/>
                            </g>
                        </g>
                    </g>
                </g>
            </g>
        </g>
    </g>
</svg>
