<svg xmlns="http://www.w3.org/2000/svg" width="40" height="35" viewBox="0 0 40 35">
    <g fill="none" fill-rule="evenodd">
        <g fill-rule="nonzero">
            <g>
                <g>
                    <g>
                        <path fill="#737B80" d="M6 4.643C6 4.289 6.289 4 6.643 4h26.714c.354 0 .643.289.643.643V13h3V4.643C37 2.634 35.366 1 33.357 1H6.643C4.634 1 3 2.634 3 4.643V13h3V4.643z" transform="translate(-932 -137) translate(910 107) translate(22 20) translate(0 10)"/>
                        <path fill="#EBA600" d="M24.803 8.347c-.447-.454-1.169-.464-1.628-.023L17 14.26V17h14v-2.367l-6.197-6.286z" transform="translate(-932 -137) translate(910 107) translate(22 20) translate(0 10)"/>
                        <path fill="#FFCF54" d="M16.803 7.347c-.447-.454-1.169-.464-1.628-.023L9 13.26V16h14v-2.367l-6.197-6.286z" transform="translate(-932 -137) translate(910 107) translate(22 20) translate(0 10)"/>
                        <path fill="#21AD64" d="M39.61 14.26L39.2 17l-.06.4-2.35 15.73C36.62 34.21 35.7 35 34.61 35H5.39c-1.09 0-2.01-.79-2.18-1.87L.88 17.4.82 17l-.41-2.74C.31 13.59.82 13 1.5 13h37.02c.68 0 1.19.59 1.09 1.26z" transform="translate(-932 -137) translate(910 107) translate(22 20) translate(0 10)"/>
                        <g fill="#000" opacity=".05">
                            <path d="M3 0L0 0 0 1 3 1zM34 0L31 0 31 1 34 1z" transform="translate(-932 -137) translate(910 107) translate(22 20) translate(0 10) translate(3 12)"/>
                        </g>
                        <path fill="#33C481" d="M39.61 14.26c.1-.67-.41-1.26-1.09-1.26H1.5c-.68 0-1.19.59-1.09 1.26L.82 17H39.2l.41-2.74z" transform="translate(-932 -137) translate(910 107) translate(22 20) translate(0 10)"/>
                        <path fill="#107C42" d="M16.5 33c-.828 0-1.5-.672-1.5-1.5v-11c0-.828.672-1.5 1.5-1.5s1.5.672 1.5 1.5v11c0 .828-.672 1.5-1.5 1.5zM9.5 33c-.828 0-1.5-.672-1.5-1.5v-11c0-.828.672-1.5 1.5-1.5s1.5.672 1.5 1.5v11c0 .828-.672 1.5-1.5 1.5zM23.5 33c-.828 0-1.5-.672-1.5-1.5v-11c0-.828.672-1.5 1.5-1.5s1.5.672 1.5 1.5v11c0 .828-.672 1.5-1.5 1.5zM30.5 33c-.828 0-1.5-.672-1.5-1.5v-11c0-.828.672-1.5 1.5-1.5s1.5.672 1.5 1.5v11c0 .828-.672 1.5-1.5 1.5z" transform="translate(-932 -137) translate(910 107) translate(22 20) translate(0 10)"/>
                        <path fill="#33C481" d="M26 5H14c-.552 0-1-.448-1-1V1c0-.552.448-1 1-1h12c.552 0 1 .448 1 1v3c0 .552-.448 1-1 1z" transform="translate(-932 -137) translate(910 107) translate(22 20) translate(0 10)"/>
                        <g fill="#000" opacity=".07">
                            <path d="M3 .5L0 .5 0 1 3 1zM34 .5L31 .5 31 1 34 1z" transform="translate(-932 -137) translate(910 107) translate(22 20) translate(0 10) translate(3 12)"/>
                        </g>
                    </g>
                </g>
            </g>
        </g>
    </g>
</svg>
