<svg width="185" height="156" viewBox="0 0 185 156" fill="none" xmlns="http://www.w3.org/2000/svg">
<path d="M172.212 29.5556V29.0311H172.191L172.187 9.05371H0V155.691H172.212L172.209 134.54H172.212V134.015H172.209L172.205 113.537H172.212V113.012H172.205L172.201 92.5605H172.212V92.0355H172.201L172.198 71.5588H172.212V71.0339H172.198L172.194 50.557H172.212V50.032H172.194L172.191 29.5553L172.212 29.5556ZM171.664 9.62882V29.0311H151.21V9.62882H171.664ZM150.686 9.62882V29.0311H129.558V9.62882H150.686ZM86.0064 71.5591H107.383V92.0357H86.0064V71.5591ZM85.4826 92.0357H64.1057V71.5591H85.4826V92.0357ZM86.0064 71.0341V50.5572H107.383V71.0341H86.0064ZM85.4826 71.0341H64.1057V50.5572H85.4826V71.0341ZM63.5819 71.0341H42.1791V50.5572H63.5809L63.5819 71.0341ZM63.5819 71.5591V92.0357H42.1791V71.5591H63.5819ZM63.5819 92.5607V113.012H42.1791V92.5607H63.5819ZM64.1057 92.5607H85.4826V113.012H64.1057V92.5607ZM86.0064 92.5607H107.383V113.012H86.0064V92.5607ZM107.907 92.5607H129.035V113.012H107.907V92.5607ZM107.907 92.0357V71.5591H129.035V92.0357H107.907ZM107.907 71.0341V50.5572H129.035V71.0341H107.907ZM107.907 50.0322V29.5556H129.035V50.0322H107.907ZM107.383 50.0322H86.0064V29.5556H107.383V50.0322ZM85.4826 50.0322H64.1057V29.5556H85.4826V50.0322ZM63.5819 50.0322H42.1791V29.5556H63.5809L63.5819 50.0322ZM41.6563 50.0322H20.2794V29.5556H41.6563V50.0322ZM41.6563 50.5572V71.0341H20.2794V50.5572H41.6563ZM41.6563 71.5591V92.0357H20.2794V71.5591H41.6563ZM41.6563 92.5607V113.012H20.2794V92.5607H41.6563ZM41.6563 113.538V134.014H20.2794V113.537L41.6563 113.538ZM42.1801 113.538H63.5819V134.014H42.1791L42.1801 113.538ZM64.1057 113.538H85.4826V134.014H64.1057V113.538ZM86.0064 113.538H107.383V134.014H86.0064V113.538ZM107.907 113.538H129.035V134.014H107.907V113.538ZM129.558 113.538H150.686V134.014H129.558V113.538ZM129.558 113.012V92.5607H150.686V113.012H129.558ZM129.558 92.0357V71.5591H150.686V92.0357H129.558ZM129.558 71.0341V50.5572H150.686V71.0341H129.558ZM129.558 50.0322V29.5556H150.686V50.0322H129.558ZM129.035 9.62882V29.0311H107.907V9.62882H129.035ZM107.383 9.62882V29.0311H86.0064V9.62882H107.383ZM85.4826 9.62882V29.0311H64.1057V9.62882H85.4826ZM63.5819 9.62882V29.0311H42.1791V9.62882H63.5819ZM41.6563 9.62882V29.0311H20.2794V9.62882H41.6563ZM0.54889 9.62882H19.7556V29.0311H0.54889V9.62882ZM0.54889 29.5556H19.7556V50.0322H0.54889V29.5556ZM0.54889 50.5572H19.7556V71.0341H0.54889V50.5572ZM0.54889 71.5591H19.7556V92.0357H0.54889V71.5591ZM0.54889 92.5607H19.7556V113.012H0.54889V92.5607ZM0.54889 113.538H19.7556V134.014H0.54889V113.538ZM0.54889 155.141V134.539H19.7556V155.141H0.54889ZM20.2794 155.141V134.539H41.6563V155.141H20.2794ZM42.1801 155.141V134.539H63.5819V155.141H42.1801ZM64.1057 155.141V134.539H85.4826V155.141H64.1057ZM86.0064 155.141V134.539H107.383V155.141H86.0064ZM107.907 155.141V134.539H129.035V155.141H107.907ZM129.558 155.141V134.539H150.686V155.141H129.558ZM171.664 155.141H151.21V134.539H171.664L171.664 155.141ZM171.664 134.015H151.21V113.537H171.664L171.664 134.015ZM171.664 113.013H151.21V92.561H171.664L171.664 113.013ZM171.664 92.036H151.21V71.5591H171.664L171.664 92.036ZM171.664 71.0343H151.21V50.5572H171.664L171.664 71.0343ZM171.664 50.0325H151.21V29.5556H171.664L171.664 50.0325Z" fill="#E7F1FF"/>
<path d="M152.662 39.3855C152.313 39.4796 152.546 39.4295 152.557 39.4298L152.685 39.4513L152.692 39.5282L152.396 39.6814L152.623 39.6971L152.375 39.8374L152.633 39.8512L152.278 40.0141L152.414 40.0587L152.459 40.1253L152.513 40.1914L152.453 40.2904L152.878 40.2658L152.431 40.4512L152.755 40.4519L152.884 40.5L152.762 40.6071L152.792 40.6778L152.658 40.7866L152.881 40.8151L153.041 40.8551L152.81 40.9866L153.04 41.0095L152.833 41.1349L153.209 41.1266L152.926 41.2691L153.15 41.3013L152.771 41.4625L153.274 41.4315L153.171 41.5326L152.845 41.6822L153.165 41.6902L153.112 41.7815L152.892 41.9071L153.347 41.8868L153.319 41.9708L153.174 42.0791L153.358 42.1186L153.149 42.2375L153.136 42.3174L153.503 42.3187L153.066 42.4869L153.2 42.537L153.158 42.6237L153.483 42.635L153.153 42.7785L153.479 42.7905L153.393 42.8857L153.185 43.0047L153.417 43.0348L153.305 43.1345L153.39 43.1923L153.544 43.2401L153.625 43.3004L153.67 43.3698L153.568 43.4669L153.622 43.5337L153.623 43.6115L153.457 43.7198L153.52 43.7854L153.835 43.8046L153.833 43.8828L153.84 43.9597L153.66 44.0702L153.678 44.1448C153.707 44.1657 153.746 44.1842 153.778 44.204L153.675 44.3004L154.043 44.3129L153.943 44.4082L154.064 44.4681L153.92 44.5702L154.006 44.6331L154.084 44.6959C154.102 44.711 153.959 44.7537 154.163 44.7371C154.197 44.7341 154.164 44.7568 154.589 44.6846L154.786 44.6505L155.132 44.5882L155.352 44.5549C155.372 44.5522 155.391 44.547 155.41 44.5395C155.424 44.5164 155.361 44.5075 155.341 44.4909L155.332 44.4131L155.254 44.3503L155.373 44.2534L155.54 44.1458L155.431 44.0856L155.568 43.9814L155.453 43.922C155.443 43.8968 155.432 43.8724 155.419 43.8488L155.473 43.7582L155.241 43.721L155.4 43.6126L155.51 43.5128L155.353 43.462L155.552 43.3455L155.502 43.275L155.413 43.2118L155.644 43.088L155.413 43.0516L155.208 43.0115L155.506 42.874C155.516 42.8456 155.523 42.8169 155.533 42.7885L155.147 42.7847L155.496 42.6366L155.185 42.6185L155.206 42.5345L155.243 42.4471L155.454 42.3242L155.487 42.2371L155.114 42.2185L155.06 42.1517L155.517 41.9771L155.134 41.9771L155.155 41.8925L155.491 41.7452L155.199 41.7303L154.976 41.6975L155.43 41.5204L155.015 41.5292L155.283 41.3894L155.028 41.3648L155.368 41.2137L154.94 41.2269L155.184 41.0932L154.931 41.0686L155.263 40.914L155.006 40.8906L154.95 40.8223L155.34 40.6424L155.309 40.5688L155.218 40.509L154.795 40.5254L154.834 40.4354L155.155 40.2868L155.214 40.1918L154.749 40.2196L155.078 40.0618L154.784 40.0481L154.922 39.9356L154.762 39.8956L154.743 39.8134L154.754 39.7298L155.009 39.5874L155.042 39.4983L155.025 39.4217L154.637 39.4359L154.794 39.3162L155.104 39.1581L155.038 39.0936C154.982 39.0805 154.917 39.0658 154.861 39.0569L155.027 38.9338L154.67 38.9419L154.775 38.8891L154.858 38.8482C154.866 38.8413 154.93 38.8195 154.791 38.8481C154.652 38.8766 154.312 38.957 153.516 39.1618L152.662 39.3855Z" fill="#FFBCA5"/>
<path d="M160.151 37.3508C159.808 37.2463 160.021 37.3288 160.025 37.3334L160.053 37.3779C160.06 37.3903 160.069 37.4015 160.08 37.411L160.095 37.4287L160.064 37.5254L159.744 37.5306L159.929 37.6973L159.648 37.715L159.845 37.8835L159.462 37.8698L159.543 38.0023L159.537 38.1078L159.543 38.2159L159.435 38.2901L159.797 38.5074L159.323 38.4728L159.586 38.6571L159.664 38.7857L159.503 38.8447L159.486 38.9456L159.313 39.0021L159.483 39.1553L159.593 39.2899L159.327 39.3217L159.499 39.4744L159.248 39.5084L159.568 39.6989L159.252 39.7195L159.434 39.8718L159.026 39.8669L159.465 40.0898L159.324 40.1579L158.966 40.1729L159.236 40.3459L159.148 40.4284L158.897 40.4666L159.296 40.6713L159.235 40.7544L159.054 40.8151L159.197 40.955L158.954 41.0018L158.902 41.0957L159.222 41.2722L158.755 41.2693L158.85 41.3946L158.771 41.4809L159.053 41.6459L158.692 41.676L158.976 41.8398L158.859 41.9188L158.624 41.9713L158.809 42.1133L158.669 42.19L158.721 42.304L158.838 42.4307L158.882 42.5419L158.89 42.6459L158.754 42.723L158.772 42.8288L158.737 42.925L158.535 42.9921L158.561 43.0986L158.842 43.2535L158.805 43.3495C158.795 43.3818 158.787 43.415 158.779 43.4474L158.563 43.5132L158.55 43.6137L158.614 43.7268L158.467 43.8056L158.818 43.9639L158.684 44.0448L158.782 44.1647C158.722 44.1894 158.663 44.2145 158.605 44.24L158.667 44.3507L158.723 44.4602C158.73 44.4855 158.598 44.4895 158.807 44.5441C158.841 44.5524 158.813 44.5701 159.228 44.6294L159.423 44.6499L159.765 44.6949C159.858 44.7114 159.951 44.7206 160.045 44.7224C160.078 44.7017 160.043 44.672 160.024 44.6439L160.043 44.5483L159.989 44.4418L160.139 44.3661L160.344 44.3014L160.26 44.1906C160.317 44.1672 160.376 44.1434 160.429 44.1195L160.329 44.0051L160.315 43.9047L160.397 43.8201L160.19 43.6867L160.38 43.6212L160.517 43.5469L160.386 43.4252L160.614 43.3677L160.592 43.2659L160.533 43.1568L160.789 43.1064L160.591 42.9709L160.421 42.8396L160.744 42.8028L160.802 42.7166L160.461 42.5494L160.837 42.527L160.567 42.3704L160.624 42.2819L160.696 42.1977L160.939 42.1503L161.007 42.0665L160.686 41.9005L160.671 41.7979L161.154 41.8058L160.817 41.6312L160.874 41.5443L161.237 41.529L160.983 41.3753L160.803 41.2339L161.283 41.2493L160.916 41.0619L161.213 41.0346L161.004 40.8839L161.371 40.8762L160.997 40.6746L161.273 40.6452L161.066 40.4933L161.428 40.4872L161.221 40.3339L161.207 40.2308L161.63 40.2433L161.641 40.1469L161.595 40.0348L161.235 39.8396L161.315 39.7612L161.663 39.7587L161.762 39.6871L161.36 39.4722L161.717 39.4748L161.482 39.306L161.657 39.2567L161.547 39.1229L161.57 39.029L161.628 38.9428L161.916 38.9294L161.993 38.8528L162.021 38.7616L161.698 38.5643L161.895 38.525L162.236 38.5324C162.229 38.4979 162.225 38.463 162.223 38.4279L162.114 38.2941L162.34 38.2669L162.053 38.0724C162.093 38.075 162.138 38.0794 162.168 38.0781L162.246 38.0787C162.255 38.0789 162.313 38.0889 162.18 38.0354L162.039 37.9834L161.803 37.9008L160.965 37.6189C160.55 37.4742 160.3 37.3994 160.151 37.3508Z" fill="#FFBCA5"/>
<path d="M165.167 42.3303C164.901 42.1219 165.067 42.2634 165.072 42.2694L165.096 42.3106C165.109 42.3271 165.133 42.3556 165.127 42.3573L165.095 42.3976L164.839 42.2599L164.97 42.4322L164.748 42.3237L164.895 42.5035L164.596 42.331L164.648 42.4393L164.635 42.4949L164.629 42.5568L164.538 42.5506L164.796 42.8235L164.431 42.5985L164.618 42.8135L164.664 42.9178L164.533 42.8791L164.508 42.9263L164.369 42.8807L164.482 43.0376L164.55 43.1582L164.337 43.061L164.451 43.218L164.259 43.1321L164.48 43.3748L164.24 43.2432L164.359 43.4062L164.045 43.2222L164.355 43.536L164.236 43.5081L163.963 43.3566L164.145 43.5677L164.066 43.5708L163.869 43.4818L164.145 43.7686L164.081 43.7841L163.936 43.7345L164.02 43.869L163.831 43.784L163.779 43.8087L163.992 44.0453L163.642 43.832L163.693 43.9393L163.619 43.9478L163.803 44.1612L163.53 44.0096L163.713 44.2222L163.61 44.2074L163.423 44.1254L163.537 44.2824L163.419 44.2538L163.438 44.3357L163.502 44.4533L163.515 44.5298L163.502 44.5863L163.39 44.5631L163.384 44.6242L163.343 44.6581L163.185 44.5986L163.185 44.6658L163.353 44.8717L163.308 44.9026L163.267 44.9359L163.097 44.867L163.066 44.908L163.085 44.9907L162.961 44.9582L163.174 45.1948L163.051 45.1631L163.092 45.262L162.933 45.201L162.946 45.2775L162.956 45.3518C162.959 45.3704 162.832 45.2846 162.982 45.4193C163.003 45.4448 162.971 45.4278 163.308 45.6961L163.464 45.8185L163.741 46.0375L163.914 46.1709C163.929 46.1837 163.945 46.1952 163.962 46.2053C163.982 46.2038 163.94 46.1536 163.934 46.1312L163.962 46.0872L163.936 45.9998L164.058 46.0308L164.217 46.0918L164.171 45.9883L164.303 46.0277L164.257 45.9234L164.269 45.8662L164.346 45.8608L164.227 45.6985L164.377 45.7526L164.495 45.7812L164.43 45.6622L164.609 45.738L164.618 45.6785L164.6 45.5981L164.801 45.6916L164.687 45.5347L164.59 45.3909L164.837 45.5222L164.901 45.5061L164.683 45.2649L164.969 45.4266L164.802 45.2214L164.86 45.2013L164.93 45.1905L165.121 45.2764L165.188 45.2632L164.981 45.0306L164.989 44.9711L165.352 45.1938L165.131 44.9511L165.191 44.9325L165.468 45.0879L165.306 44.8894L165.194 44.7318L165.557 44.9545L165.311 44.691L165.542 44.8107L165.408 44.6368L165.691 44.7961L165.436 44.5255L165.655 44.631L165.522 44.4578L165.802 44.6148L165.666 44.44L165.672 44.3789L165.998 44.5722L166.022 44.5251L166.003 44.4439L165.749 44.1748L165.823 44.1671L166.096 44.3186L166.184 44.3225L165.9 44.0288L166.18 44.1858L166.023 43.9926L166.168 44.0414L166.103 43.9224L166.133 43.8791L166.187 43.856L166.416 43.9734L166.487 43.9633L166.521 43.924L166.291 43.6728L166.452 43.7347L166.725 43.8855L166.73 43.8222L166.657 43.6977L166.84 43.7773L166.63 43.5438L166.721 43.5946L166.789 43.6317C166.794 43.6385 166.845 43.6681 166.747 43.58C166.648 43.492 166.395 43.2881 165.808 42.8202L165.167 42.3303Z" fill="#FFBCA5"/>
<path d="M89.2896 40.0241C84.2678 40.5617 81.0531 34.9423 84.2504 31.1266C84.3026 31.0745 84.3373 31.0225 84.3894 30.9705C85.8665 29.3401 87.0481 27.4323 86.1966 24.3971C85.5884 22.2464 84.3199 19.1245 86.4399 18.6215C87.8995 18.2746 89.5329 21.8648 90.8362 24.4664C90.7667 20.2865 90.6798 14.8058 92.626 14.667C94.5721 14.5109 95.0239 18.4827 95.0413 23.8767C96.0665 17.9277 95.7537 14.6497 97.6478 14.7191C100.758 14.8405 99.4202 27.1201 97.7694 31.2653L96.9006 33.9536C95.8406 37.2664 92.8345 39.6425 89.2896 40.0241Z" fill="#FFF1ED"/>
<path d="M88.6494 40.579C87.5245 40.5866 86.4187 40.2879 85.4512 39.7149C84.4836 39.142 83.6909 38.3165 83.1584 37.3274C82.5948 36.2971 82.3591 35.1198 82.4827 33.9525C82.6064 32.7851 83.0834 31.6831 83.8504 30.7932C83.8601 30.7814 83.8705 30.7701 83.8813 30.7594C83.8957 30.745 83.9072 30.7302 83.9192 30.7158C83.9477 30.6811 83.9767 30.6478 84.0099 30.6138C85.563 28.8968 86.4426 27.2056 85.6945 24.5377C85.6205 24.2763 85.5364 23.999 85.4497 23.7138C84.947 22.0589 84.3772 20.1833 85.0471 19.0193C85.183 18.7874 85.3667 18.587 85.586 18.4312C85.8053 18.2755 86.0552 18.1679 86.3192 18.1157C87.7865 17.7664 89.0684 19.8296 90.2917 22.2141C90.2875 17.603 90.6328 14.2879 92.5885 14.1491C92.8321 14.1287 93.0773 14.16 93.3079 14.241C93.5385 14.3219 93.7494 14.4507 93.9265 14.6188C94.5945 15.2323 95.0341 16.4026 95.2876 18.3708C95.6463 15.7047 96.0399 14.1389 97.666 14.2001C98.0683 14.2159 98.6445 14.3853 99.1128 15.1039C100.995 17.9917 99.6956 27.8171 98.2596 31.442L97.3961 34.114C96.2767 37.6125 93.1163 40.1362 89.3448 40.5421C89.1139 40.5667 88.8817 40.5791 88.6494 40.579ZM84.6384 31.475C84.012 32.2069 83.623 33.1115 83.523 34.0689C83.423 35.0264 83.6166 35.9915 84.0783 36.8367C85.0843 38.7165 87.0602 39.7391 89.2342 39.5067C92.5953 39.145 95.4098 36.9031 96.4043 33.7954L97.2731 31.1055C97.2766 31.0946 97.2806 31.0839 97.2847 31.0731C98.743 27.4118 99.8016 18.0678 98.2392 15.6702C97.996 15.2957 97.773 15.2447 97.6271 15.239H97.5984C96.7654 15.239 96.5584 16.6007 96.1758 19.6409C96.0182 20.893 95.8397 22.3119 95.5547 23.9655C95.5327 24.0939 95.4632 24.2094 95.36 24.2892C95.2568 24.3689 95.1274 24.4071 94.9973 24.3962C94.8672 24.3853 94.746 24.3261 94.6575 24.2303C94.5691 24.1345 94.5199 24.0091 94.5196 23.8788C94.5095 20.7347 94.3632 16.4333 93.2212 15.3842C93.1495 15.3122 93.0625 15.257 92.9667 15.2228C92.8709 15.1885 92.7687 15.176 92.6674 15.1861C92.122 15.2251 91.6957 16.2904 91.4929 18.1093C91.2829 19.9948 91.3223 22.366 91.3572 24.4583C91.3592 24.5762 91.3209 24.6913 91.2487 24.7847C91.1766 24.8781 91.0747 24.9442 90.9599 24.9723C90.8451 25.0003 90.7242 24.9886 90.617 24.939C90.5097 24.8895 90.4226 24.805 90.3697 24.6995C90.262 24.4843 90.1516 24.2621 90.0396 24.0359C89.1504 22.2429 87.4958 18.9075 86.5604 19.1276C86.4353 19.148 86.316 19.1952 86.2108 19.2659C86.1057 19.3366 86.017 19.4292 85.951 19.5372C85.5057 20.3113 86.0278 22.0301 86.4475 23.4114C86.5361 23.7033 86.6223 23.9868 86.698 24.2555C87.6308 27.5809 86.2497 29.6923 84.776 31.3194C84.7699 31.3258 84.764 31.3322 84.7578 31.3383C84.7435 31.3527 84.732 31.3674 84.7199 31.3817C84.6945 31.4134 84.6683 31.4443 84.6386 31.4753L84.6384 31.475Z" fill="#3C4043"/>
<path d="M50.3355 5.22818C47.2336 4.22078 43.9037 4.14608 40.7596 5.01337C37.6155 5.88066 34.7957 7.65171 32.6508 10.1065C30.5058 12.5612 29.1302 15.5915 28.6948 18.8207C28.2594 22.0499 28.7834 25.3358 30.2017 28.27L51.4666 26.3898L50.3355 5.22818Z" fill="white"/>
<path d="M30.2009 28.7025C30.2136 28.7025 30.2263 28.7025 30.2392 28.7008L51.5041 26.8203C51.6163 26.8104 51.7202 26.7574 51.794 26.6724C51.8678 26.5875 51.9057 26.4772 51.8996 26.3649L50.7686 5.20368C50.7639 5.11619 50.7328 5.03216 50.6794 4.96267C50.626 4.89317 50.5527 4.84145 50.4693 4.81433C47.2865 3.78069 43.8698 3.70406 40.6438 4.59394C37.4177 5.48383 34.5245 7.30101 32.3236 9.81971C30.1227 12.3384 28.7111 15.4476 28.2643 18.761C27.8174 22.0744 28.3549 25.4459 29.8101 28.4567C29.8455 28.5302 29.9009 28.5923 29.9701 28.6358C30.0392 28.6793 30.1192 28.7024 30.2009 28.7025ZM51.0098 25.9927L30.4641 27.809C29.4801 25.6853 28.9735 23.3722 28.9799 21.0321C28.982 18.5026 29.5772 16.0087 30.7177 13.7502C31.8582 11.4918 33.5123 9.53153 35.5476 8.02656C37.5829 6.52158 39.9427 5.5137 42.438 5.08366C44.9333 4.65361 47.4947 4.81335 49.9171 5.55008L51.0098 25.9927Z" fill="#3C4043"/>
<path d="M54.71 9.55142C56.1288 9.32001 57.9755 9.03075 59.5681 7.43979L62.0294 4.40251L64.2433 6.1488C63.7945 4.4566 63.085 2.96689 61.6517 1.96893C60.5094 1.17534 59.1708 0.710505 57.7821 0.625158C56.3933 0.53981 55.0078 0.837234 53.7767 1.48496C52.5457 2.13269 51.5164 3.10582 50.8013 4.29812C50.0862 5.49042 49.7127 6.85607 49.7216 8.24597V8.75219L50.1573 8.45323C50.3552 8.25075 50.4773 8.27678 50.7364 8.16397C51.6814 7.75249 52.7125 7.89481 53.6499 8.37426C54.1335 8.62656 54.5099 9.04461 54.71 9.55171V9.55142Z" fill="white"/>
<path d="M54.7104 9.98508C54.7339 9.98513 54.7573 9.98325 54.7805 9.97944L54.8172 9.97351C56.2439 9.7421 58.1979 9.42391 59.8758 7.74704C59.8865 7.73619 59.8966 7.72491 59.9063 7.71319L62.0972 5.009L63.9747 6.48903C64.0463 6.54546 64.1338 6.57798 64.2249 6.58197C64.3159 6.58596 64.406 6.56121 64.4822 6.51125C64.5584 6.46128 64.6169 6.38863 64.6495 6.30357C64.6821 6.21851 64.6871 6.12537 64.6637 6.03734C64.3145 4.72118 63.6481 2.82939 61.9006 1.61274C60.6929 0.773671 59.2777 0.282171 57.8095 0.191905C56.3412 0.10164 54.8764 0.416079 53.5748 1.10089C52.2733 1.78571 51.1851 2.81457 50.4291 4.07515C49.6731 5.33574 49.2783 6.77958 49.2879 8.24906V8.75194C49.2879 8.83101 49.3095 8.90858 49.3504 8.97627C49.3913 9.04395 49.45 9.09918 49.52 9.13599C49.5901 9.1728 49.6689 9.18978 49.7479 9.18511C49.8269 9.18043 49.9031 9.15428 49.9683 9.10948L50.404 8.81009C50.427 8.79428 50.4485 8.77626 50.468 8.75628C50.518 8.70219 50.5846 8.66623 50.6574 8.65403C50.7434 8.62758 50.8279 8.59659 50.9106 8.56118C51.8721 8.14261 52.8236 8.43824 53.4524 8.76005C53.8431 8.96442 54.1468 9.30282 54.3076 9.71303C54.3399 9.79333 54.3955 9.86215 54.4673 9.91063C54.5391 9.95911 54.6237 9.98504 54.7104 9.98508ZM59.245 7.14927C57.8685 8.5146 56.2853 8.84957 54.9606 9.07043C54.7051 8.60741 54.3177 8.23058 53.8476 7.98771C52.7227 7.41178 51.556 7.3331 50.5627 7.7657C50.5068 7.78927 50.4496 7.80988 50.3915 7.82745C50.3125 7.85107 50.2354 7.88076 50.1609 7.91626C50.2114 6.63446 50.6059 5.3898 51.3033 4.31268C52.0007 3.23555 52.9753 2.3656 54.1248 1.79396C55.2744 1.22232 56.5567 0.970034 57.8374 1.06352C59.1181 1.15701 60.3501 1.59284 61.4043 2.32535C62.2709 2.92803 62.9043 3.75113 63.3808 4.91528L62.2991 4.06195C62.2095 3.9912 62.0955 3.95861 61.9819 3.97125C61.8683 3.9839 61.7643 4.04075 61.6924 4.12949L59.245 7.14927Z" fill="#3C4043"/>
<path d="M15.1226 69.8442C15.1226 69.8334 17.4992 84.1561 19.9149 91.0239L25.9825 71.9462L15.1226 69.8442Z" fill="#FFF1ED"/>
<path d="M19.9146 91.4573H19.9213C20.0123 91.4559 20.1007 91.426 20.1738 91.3717C20.2469 91.3174 20.3011 91.2415 20.3287 91.1548L26.3963 72.0767C26.4149 72.0184 26.4209 71.9567 26.4139 71.8959C26.4069 71.8351 26.3872 71.7764 26.3558 71.7237C26.3245 71.6711 26.2824 71.6256 26.2323 71.5904C26.1822 71.5552 26.1251 71.531 26.0649 71.5193L15.2054 69.4177C15.1663 69.4102 15.1263 69.4079 15.0865 69.411C15.0258 69.4161 14.9669 69.4339 14.9135 69.4632C14.8601 69.4925 14.8135 69.5327 14.7767 69.5812C14.7398 69.6296 14.7136 69.6853 14.6996 69.7445C14.6856 69.8037 14.6843 69.8652 14.6956 69.925L14.7036 69.9713C15.1148 72.4004 17.2784 84.8371 19.5054 91.1673C19.5352 91.252 19.5906 91.3254 19.6639 91.3773C19.7371 91.4292 19.8247 91.4572 19.9146 91.4573ZM25.4207 72.2791L19.9061 89.618C17.9913 83.5196 16.1976 73.5301 15.6563 70.3896L25.4207 72.2791Z" fill="#3C4043"/>
<path d="M43.2354 27.2345C40.7328 26.3954 38.0663 26.1628 35.4561 26.556C32.8458 26.9491 30.3665 27.9567 28.2229 29.4956C26.0792 31.0345 24.3326 33.0606 23.1272 35.4067C21.9218 37.7528 21.2922 40.3516 21.2903 42.9886L43.2354 27.2345Z" fill="white"/>
<path d="M21.2901 43.4215C21.3811 43.4215 21.4698 43.3931 21.5436 43.3401L43.4881 27.5861C43.553 27.5395 43.6038 27.476 43.6349 27.4024C43.666 27.3289 43.6761 27.2482 43.6642 27.1692C43.6524 27.0903 43.6189 27.0161 43.5675 26.9549C43.5162 26.8938 43.4489 26.8479 43.3732 26.8225C40.8053 25.9615 38.0693 25.7229 35.391 26.1263C32.7126 26.5297 30.1687 27.5636 27.9691 29.1426C25.7696 30.7217 23.9774 32.8006 22.7406 35.2079C21.5038 37.6152 20.8577 40.2818 20.8558 42.9876C20.8558 43.1027 20.9015 43.213 20.983 43.2944C21.0645 43.3758 21.1749 43.4215 21.2901 43.4215ZM42.2702 27.3917L21.7472 42.1247C21.8785 39.7059 22.5512 37.3473 23.7157 35.2226C24.8803 33.0979 26.507 31.2611 28.4761 29.8475C30.4453 28.4339 32.7067 27.4795 35.0939 27.0545C37.4812 26.6295 39.9335 26.7447 42.2702 27.3917Z" fill="#3C4043"/>
<path d="M23.0117 121.448C22.9201 126.145 21.9183 131.07 18.1069 132.122C14.2268 133.192 11.6352 136.707 11.9392 140.756L30.6016 140.626L38.1737 128.737L38.1158 140.626H44.1388L44.1677 121.347L23.0117 121.448Z" fill="#E7F1FF"/>
<path d="M11.9391 141.19H11.9421L30.6045 141.06C30.6771 141.059 30.7484 141.041 30.8119 141.006C30.8753 140.97 30.929 140.92 30.9679 140.859L37.732 130.239L37.6813 140.623C37.6811 140.681 37.6921 140.737 37.7138 140.79C37.7355 140.843 37.7674 140.891 37.8078 140.932C37.8482 140.972 37.8961 141.004 37.949 141.026C38.0018 141.048 38.0585 141.059 38.1157 141.059H44.1386C44.2538 141.059 44.3643 141.014 44.4458 140.932C44.5272 140.851 44.573 140.741 44.573 140.626L44.6019 121.346C44.6019 121.231 44.5562 121.121 44.4747 121.039C44.3933 120.958 44.2828 120.912 44.1676 120.912H44.1656L23.0094 121.013C22.896 121.014 22.7874 121.059 22.7066 121.138C22.6259 121.218 22.5794 121.326 22.5772 121.439C22.4602 127.442 20.9172 130.895 17.9911 131.703C13.8569 132.843 11.19 136.579 11.5059 140.788C11.514 140.898 11.5632 141 11.6436 141.074C11.7239 141.149 11.8295 141.19 11.9391 141.19ZM30.362 140.194L12.352 140.319C12.2612 136.696 14.6265 133.532 18.2225 132.54C21.4889 131.638 23.2416 128.052 23.4346 121.88L43.7322 121.783L43.7046 140.192H38.5518L38.6075 128.739C38.608 128.645 38.5778 128.553 38.5215 128.478C38.4653 128.402 38.386 128.347 38.2956 128.321C38.2052 128.294 38.1087 128.298 38.0205 128.331C37.9323 128.364 37.8573 128.425 37.8067 128.504L30.362 140.194Z" fill="#3C4043"/>
<path d="M23.615 38.0282L23.6167 38.0271L47.099 22.8153L47.1905 22.7651C47.8065 22.4266 48.4564 22.1551 49.129 21.9549C49.1197 23.6701 50.094 25.4349 51.5237 26.3253L51.5239 26.3254C52.9796 27.2313 54.4935 26.9331 55.6493 26.0966C56.5961 25.4114 57.3369 24.348 57.6844 23.2146C58.9873 24.0097 60.2171 25.0664 61.3572 26.3393C69.1865 35.0828 73.1137 39.4447 75.0838 41.6209C76.0687 42.7088 76.5654 43.2516 76.8164 43.5229C76.9415 43.6581 77.0075 43.728 77.0433 43.765C77.0604 43.7827 77.0746 43.7971 77.0869 43.8088C77.0915 43.813 77.1051 43.826 77.1229 43.8402C77.1289 43.845 77.1546 43.8657 77.1911 43.8861C77.2062 43.8946 77.2529 43.9203 77.3187 43.936C77.3528 43.9442 77.4134 43.9551 77.4888 43.947C77.5328 43.9403 77.6003 43.9219 77.6243 43.9129C77.7012 43.8734 77.7702 43.8213 77.4355 43.4499L77.7702 43.8213L77.8631 43.7376L77.9056 43.62L82.745 30.2486L98.1357 35.8097L91.6174 53.7943L91.6171 53.7949C90.7686 56.1462 89.298 58.2238 87.3616 59.8068C85.4251 61.3897 83.0953 62.4187 80.62 62.7843C79.944 62.8841 79.2618 62.9355 78.5785 62.9381C77.1547 62.9377 75.7401 62.7175 74.3848 62.2856C74.3727 62.2441 74.3594 62.2003 74.345 62.1544C74.2836 61.959 74.1959 61.7064 74.0869 61.4081C73.8684 60.8103 73.5575 60.0102 73.183 59.0784C72.4337 57.2139 71.4249 54.8096 70.3797 52.4154C69.3348 50.0221 68.2511 47.6335 67.3522 45.8023C66.9033 44.8878 66.4969 44.1048 66.1623 43.5276C65.9955 43.2399 65.8412 42.9941 65.7044 42.8058C65.636 42.7117 65.5666 42.6245 65.4973 42.5509C65.434 42.4838 65.3438 42.3985 65.2308 42.3405C65.2308 42.3405 65.2308 42.3405 65.2307 42.3405L65.0026 42.7854C64.2629 42.4061 57.7405 42.5167 51.9287 42.6153C48.246 42.6778 44.8486 42.7354 43.3886 42.6605L23.615 38.0282ZM23.615 38.0282C22.6767 38.6307 21.871 39.4176 21.2469 40.3411C20.6228 41.2645 20.1934 42.3051 19.9848 43.3996L14.9385 70.1388L24.6914 71.9218C25.0704 71.0969 25.7431 69.871 26.5508 68.4672C27.4987 66.8198 28.6518 64.8948 29.7825 63.0191C30.0559 62.5655 30.328 62.115 30.5955 61.6718C31.4357 60.2802 32.2316 58.9618 32.8865 57.8553C33.3182 57.126 33.6864 56.4922 33.9644 55.9926C34.2296 55.5159 34.3964 55.1897 34.465 55.0203L35.3917 50.1117L35.4317 49.8998L35.6133 49.7835L38.7925 47.7473L23.615 38.0282Z" fill="#FFED96" stroke="#3C4043"/>
<path d="M40.7933 43.1879C40.8545 43.188 40.9151 43.1752 40.9709 43.1502C41.0268 43.1253 41.0768 43.0889 41.1176 43.0433C41.1584 42.9977 41.1891 42.9441 41.2077 42.8858C41.2263 42.8276 41.2324 42.766 41.2255 42.7053C41.0686 41.4115 41.2618 40.0994 41.7851 38.9056C42.3557 37.5988 42.5625 36.1622 42.3835 34.7476C42.3698 34.6333 42.3112 34.5292 42.2206 34.458C42.1301 34.3869 42.0149 34.3546 41.9005 34.3683C41.7862 34.382 41.6819 34.4405 41.6107 34.531C41.5395 34.6214 41.5072 34.7365 41.5209 34.8507C41.681 36.1117 41.4974 37.3925 40.9894 38.5578C40.4042 39.8913 40.1877 41.3571 40.3623 42.8026C40.3743 42.9085 40.4248 43.0063 40.5043 43.0774C40.5838 43.1484 40.6867 43.1878 40.7933 43.1879Z" fill="#3C4043"/>
<path d="M65.5796 43.19C65.5927 43.19 65.6062 43.19 65.6197 43.1881C65.7344 43.1776 65.8402 43.122 65.9139 43.0336C65.9876 42.9451 66.0231 42.831 66.0126 42.7164C65.8244 40.6716 65.0229 38.8458 64.3832 37.6741C63.6208 36.2772 63.1268 34.7501 62.9266 33.1717C62.9111 33.0586 62.8517 32.9561 62.7611 32.8865C62.6706 32.8168 62.5562 32.7856 62.4428 32.7997C62.3293 32.8137 62.226 32.8719 62.1552 32.9615C62.0844 33.0511 62.0518 33.165 62.0645 33.2785C62.2777 34.9647 62.805 36.5961 63.6192 38.0885C64.2205 39.1899 64.9728 40.8991 65.1469 42.796C65.1569 42.9037 65.2068 43.0038 65.2868 43.0767C65.3669 43.1496 65.4713 43.19 65.5796 43.19Z" fill="#3C4043"/>
<path d="M94.5935 117.271C94.1881 122.724 95.5345 131.055 104.526 132.414C108.507 133.022 110.997 136.565 110.693 140.615L88.0204 140.63L79.29 129.175L79.3479 140.485H73.325L73.296 125.697L94.5935 117.271Z" fill="#E7F1FF"/>
<path d="M88.0201 141.063L110.693 141.048C110.802 141.048 110.908 141.007 110.988 140.932C111.068 140.858 111.118 140.756 111.126 140.647C111.456 136.256 108.707 132.613 104.591 131.985C95.0799 130.546 94.7337 121.238 95.0263 117.303C95.0318 117.229 95.0185 117.156 94.9877 117.089C94.957 117.022 94.9097 116.964 94.8503 116.921C94.7909 116.877 94.7215 116.849 94.6484 116.84C94.5754 116.831 94.5012 116.84 94.4327 116.867L73.1353 125.292C73.054 125.324 72.9842 125.38 72.9351 125.452C72.8861 125.525 72.8599 125.61 72.8602 125.697L72.8892 140.486C72.8894 140.601 72.9352 140.711 73.0167 140.792C73.0981 140.873 73.2085 140.919 73.3235 140.919H79.3464C79.4037 140.919 79.4603 140.907 79.5132 140.885C79.566 140.863 79.614 140.831 79.6544 140.791C79.6948 140.75 79.7267 140.702 79.7484 140.649C79.7701 140.596 79.7811 140.54 79.7808 140.482L79.7295 130.469L87.6745 140.892C87.715 140.945 87.7673 140.988 87.8272 141.018C87.8871 141.047 87.9531 141.063 88.0201 141.063ZM110.281 140.18L88.2352 140.195L79.6351 128.911C79.58 128.839 79.5034 128.785 79.4163 128.759C79.3291 128.732 79.2359 128.734 79.1496 128.763C79.0634 128.792 78.9886 128.848 78.9357 128.922C78.8829 128.996 78.8547 129.085 78.8552 129.176L78.9109 140.05H73.758L73.7305 125.991L94.1196 117.925C94.0263 120.059 94.1736 123.504 95.644 126.565C97.344 130.103 100.31 132.215 104.46 132.842C107.99 133.381 110.386 136.435 110.281 140.181V140.18Z" fill="#3C4043"/>
<path d="M67.2985 46.8062L95.531 116.736L72.5686 125.992L52.0981 75.2759L44.6835 88.1999V121.35H19.9113V84.8011C19.9113 84.4968 19.9312 84.1928 19.9708 83.8911L24.122 74.1504L39.6885 46.8062H67.2985Z" fill="white"/>
<path d="M72.5688 126.424C72.6245 126.424 72.6797 126.414 72.7314 126.393L95.6938 117.136C95.8005 117.093 95.8856 117.01 95.9307 116.904C95.9757 116.798 95.9769 116.679 95.934 116.572L67.7015 46.6426C67.6691 46.5624 67.6134 46.4937 67.5416 46.4453C67.4699 46.3969 67.3853 46.3711 67.2987 46.3711H39.6887C39.612 46.3711 39.5367 46.3914 39.4704 46.4299C39.404 46.4684 39.3491 46.5238 39.3112 46.5904L23.7443 73.934C23.7361 73.9484 23.7287 73.9633 23.7222 73.9785L19.5713 83.7192C19.554 83.7597 19.543 83.8026 19.5387 83.8464L19.5204 84.0254C19.4896 84.2822 19.4751 84.5406 19.477 84.7992V121.348C19.477 121.463 19.5228 121.573 19.6042 121.655C19.6857 121.736 19.7962 121.782 19.9114 121.782H44.6836C44.7988 121.782 44.9093 121.736 44.9907 121.655C45.0722 121.573 45.1179 121.463 45.1179 121.348V88.3138L52.03 76.2659L72.166 126.153C72.1984 126.233 72.254 126.302 72.3258 126.35C72.3976 126.399 72.4822 126.424 72.5688 126.424ZM94.9666 116.494L72.8097 125.426L52.5011 75.1117C52.4706 75.0362 52.4194 74.9708 52.3534 74.9229C52.2875 74.8751 52.2093 74.8468 52.128 74.8412C52.0467 74.8356 51.9654 74.853 51.8935 74.8914C51.8216 74.9298 51.762 74.9877 51.7214 75.0584L44.3069 87.9823C44.269 88.0479 44.2491 88.1223 44.249 88.1981V120.914H20.3454V84.7992C20.3435 84.5704 20.3564 84.3418 20.3841 84.1147L20.3959 83.999L24.5117 74.3413L39.9414 47.2382H67.0052L94.9666 116.494Z" fill="#3C4043"/>
<path d="M18.4845 77.9732C18.9044 79.8534 20.3522 85.3639 20.801 86.6222C21.2643 87.9383 23.7401 88.2565 23.2189 84.7564C22.0606 76.9029 24.6812 77.1922 24.0442 73.4751" fill="#FFF1ED"/>
<path d="M22.0578 87.9782C22.1797 87.9785 22.3013 87.9639 22.4197 87.9349C22.8066 87.8391 24.0382 87.3223 23.6467 84.6935C22.9828 80.1909 23.5858 78.4384 24.0704 77.0304C24.4365 75.967 24.7526 75.049 24.4705 73.4028C24.4611 73.3464 24.4406 73.2925 24.4103 73.2441C24.3799 73.1957 24.3403 73.1538 24.2937 73.1207C24.2471 73.0876 24.1944 73.0641 24.1387 73.0514C24.0829 73.0387 24.0252 73.0371 23.9689 73.0467C23.9125 73.0564 23.8587 73.077 23.8103 73.1075C23.762 73.138 23.7201 73.1777 23.6872 73.2244C23.6542 73.2711 23.6308 73.3238 23.6183 73.3795C23.6058 73.4352 23.6045 73.4929 23.6143 73.5491C23.8588 74.9761 23.5897 75.7581 23.2489 76.7484C22.7337 78.2454 22.0925 80.1084 22.7875 84.8205C23.013 86.3348 22.6375 86.9869 22.2108 87.0925C21.8258 87.1885 21.3577 86.9012 21.209 86.479C20.7602 85.2185 19.3193 79.7271 18.907 77.8794C18.8793 77.7699 18.81 77.6754 18.7137 77.6161C18.6174 77.5569 18.5017 77.5374 18.3913 77.562C18.2809 77.5866 18.1845 77.6533 18.1225 77.7478C18.0605 77.8423 18.0379 77.9573 18.0594 78.0682C18.4758 79.9326 19.9339 85.4878 20.3904 86.7682C20.5131 87.1148 20.7382 87.416 21.0359 87.6321C21.3336 87.8481 21.6899 87.9688 22.0578 87.9782Z" fill="#3C4043"/>
<path d="M38.6234 48.2582L39.001 48.4727L35.1063 55.3137L34.7287 55.0992L38.6234 48.2582Z" fill="#3C4043"/>
<path d="M65.5639 42.7563H40.7917L39.6913 46.8061H67.3013L65.5639 42.7563Z" fill="white"/>
<path d="M39.6895 47.2393H67.2994C67.3713 47.2393 67.4421 47.2215 67.5054 47.1874C67.5687 47.1534 67.6226 47.1042 67.6621 47.0443C67.7017 46.9843 67.7258 46.9155 67.7322 46.844C67.7386 46.7724 67.7271 46.7004 67.6988 46.6344L65.9614 42.5847C65.9279 42.5067 65.8722 42.4401 65.8012 42.3934C65.7302 42.3467 65.6471 42.3218 65.5621 42.3218H40.7898C40.6945 42.3218 40.6018 42.3531 40.526 42.411C40.4503 42.4688 40.3957 42.5499 40.3707 42.6418L39.2703 46.6916C39.2528 46.756 39.2504 46.8236 39.2633 46.8891C39.2762 46.9545 39.304 47.0162 39.3446 47.0692C39.3853 47.1222 39.4376 47.1651 39.4975 47.1946C39.5574 47.2241 39.6234 47.2394 39.6902 47.2393H39.6895ZM66.6408 46.3715H40.2575L41.122 43.1896H65.2757L66.6408 46.3715Z" fill="#3C4043"/>
<path d="M54.7151 9.55128C54.4873 9.10621 54.1555 8.72257 53.7477 8.43285C53.3399 8.14312 52.8683 7.95587 52.3727 7.88694C51.8771 7.81802 51.3722 7.86947 50.9007 8.03692C50.4292 8.20436 50.0051 8.48288 49.6643 8.84887C49.3235 9.21486 49.0761 9.65753 48.9429 10.1394C48.8098 10.6212 48.7948 11.128 48.8994 11.6168C49.004 12.1056 49.225 12.5621 49.5437 12.9474C49.8624 13.3328 50.2694 13.6357 50.7302 13.8305L50.7841 13.8518C50.8415 14.3988 50.9447 14.94 51.0926 15.4698L49.6064 21.6745C49.4916 22.1538 49.4724 22.651 49.55 23.1378C49.6275 23.6245 49.8003 24.0912 50.0584 24.5112C50.3165 24.9312 50.6549 25.2964 51.0542 25.5858C51.4536 25.8751 51.9061 26.0831 52.3859 26.1978C52.8657 26.3125 53.3634 26.3317 53.8507 26.2542C54.3379 26.1767 54.8051 26.0042 55.2255 25.7463C56.0747 25.2256 56.682 24.3893 56.9139 23.4212L57.6511 20.3435C58.7123 20.3859 59.77 20.1956 60.7497 19.7859C61.7294 19.3762 62.6073 18.757 63.3217 17.972C64.0361 17.1869 64.5697 16.255 64.8849 15.2418C65.2001 14.2287 65.2892 13.1588 65.146 12.1075C65.0269 11.2382 64.7497 10.3979 64.3283 9.62808C64.4007 9.31094 64.4513 8.98926 64.48 8.66526C64.5233 8.12529 64.5087 7.58226 64.4366 7.04538C64.3948 6.73771 64.3319 6.43327 64.2484 6.13419L62.0345 4.40381C60.7315 5.99477 59.9805 6.74685 57.5463 8.16425C56.4584 8.79745 55.5677 9.31958 54.7151 9.55128Z" fill="#FFF1ED"/>
<path d="M53.2597 26.736C54.2014 26.7346 55.1153 26.417 55.8546 25.8343C56.5939 25.2515 57.1156 24.4374 57.3359 23.5228L57.992 20.7835C59.0874 20.7765 60.1687 20.5363 61.1638 20.0787C62.1589 19.6212 63.0449 18.957 63.7626 18.1303C64.4803 17.3037 65.0133 16.3336 65.3261 15.2848C65.6388 14.2361 65.724 13.1328 65.576 12.0485C65.4573 11.1815 65.1901 10.3413 64.7861 9.56476C64.8446 9.28035 64.8868 8.99284 64.9125 8.70362C64.9587 8.13224 64.9434 7.55755 64.8669 6.98944C64.8222 6.66055 64.755 6.33513 64.6656 6.01548C64.6404 5.92739 64.588 5.84952 64.5158 5.79304L62.3019 4.06193C62.2125 3.99201 62.0992 3.95986 61.9863 3.97238C61.8734 3.98489 61.7699 4.04108 61.698 4.1289C60.4312 5.67646 59.7261 6.3921 57.3272 7.78925L57.2887 7.81167C56.3673 8.3484 55.6138 8.78722 54.9163 9.03381C54.6181 8.57644 54.2182 8.19406 53.7477 7.91649C53.2773 7.63893 52.749 7.47368 52.2041 7.43363C51.6592 7.39359 51.1124 7.47983 50.6064 7.68564C50.1003 7.89144 49.6487 8.21125 49.2867 8.62011C48.9248 9.02897 48.6623 9.51583 48.5197 10.0427C48.377 10.5696 48.3582 11.1223 48.4646 11.6577C48.571 12.193 48.7998 12.6966 49.1331 13.1291C49.4664 13.5616 49.8952 13.9113 50.386 14.1511C50.4404 14.6016 50.5258 15.0478 50.6417 15.4866L49.1836 21.574C49.0365 22.1894 49.0308 22.83 49.1669 23.4479C49.3031 24.0658 49.5776 24.6448 49.9699 25.1415C50.3621 25.6382 50.8619 26.0397 51.4317 26.3159C52.0015 26.592 52.6265 26.7356 53.2598 26.736H53.2597ZM57.6505 19.9102C57.5529 19.9102 57.4583 19.943 57.3817 20.0034C57.3051 20.0637 57.2511 20.1481 57.2283 20.2428L56.4909 23.3207C56.2814 24.1721 55.7432 24.9061 54.9938 25.3625C54.2444 25.8188 53.3447 25.9604 52.4912 25.7564C51.6376 25.5523 50.8996 25.0192 50.4381 24.2735C49.9767 23.5277 49.8293 22.6298 50.0283 21.7759L51.5146 15.5712C51.5337 15.4909 51.5297 15.4069 51.5029 15.3288C51.366 14.8299 51.2699 14.3206 51.2156 13.8061C51.2053 13.7279 51.1747 13.6538 51.1269 13.591C51.079 13.5283 51.0156 13.4791 50.9429 13.4484L50.889 13.4272C50.4936 13.2581 50.1448 12.9964 49.8721 12.6642C49.5994 12.332 49.4107 11.9391 49.3221 11.5186C49.2335 11.0982 49.2475 10.6627 49.363 10.2488C49.4785 9.83496 49.6921 9.45498 49.9857 9.141C50.2792 8.82702 50.6442 8.58827 51.0496 8.44495C51.4551 8.30163 51.8891 8.25795 52.315 8.31761C52.7409 8.37726 53.1462 8.53849 53.4966 8.78767C53.8469 9.03685 54.1321 9.36664 54.3279 9.74917C54.3733 9.83782 54.4478 9.90817 54.539 9.94841C54.6302 9.98865 54.7325 9.99633 54.8287 9.97016C55.7263 9.72602 56.6529 9.1864 57.7261 8.5613L57.7646 8.53888C60.0983 7.17934 60.9399 6.39485 62.0996 5.00595L63.866 6.38733C63.9257 6.62459 63.9723 6.86495 64.0057 7.10731C64.0736 7.61221 64.0872 8.12293 64.0462 8.63072C64.0191 8.93427 63.9715 9.23564 63.9038 9.5328C63.8805 9.63584 63.8956 9.74383 63.9463 9.83652C64.5221 10.8964 64.8064 12.0898 64.7704 13.2952C64.7343 14.5005 64.3792 15.6748 63.7411 16.6985C63.103 17.7222 62.2048 18.5587 61.1379 19.1228C60.071 19.6869 58.8735 19.9585 57.6673 19.91L57.6505 19.9102Z" fill="#3C4043"/>
<path d="M57.6153 20.7852C57.6723 20.7867 57.7291 20.777 57.7824 20.7567C57.8357 20.7363 57.8844 20.7056 57.9259 20.6664C57.9673 20.6272 58.0006 20.5802 58.0238 20.5282C58.0471 20.4761 58.0598 20.42 58.0614 20.363C58.0629 20.306 58.0532 20.2493 58.0328 20.1961C58.0124 20.1429 57.9817 20.0942 57.9424 20.0528C57.9032 20.0114 57.8562 19.9782 57.8041 19.9549C57.752 19.9317 57.6958 19.919 57.6387 19.9174C56.4265 19.8567 55.2519 19.4769 54.2339 18.8166C54.1862 18.7853 54.1329 18.7636 54.0768 18.7529C54.0208 18.7422 53.9632 18.7425 53.9073 18.754C53.8514 18.7656 53.7984 18.7879 53.7512 18.8199C53.7039 18.8519 53.6635 18.8929 53.6321 18.9405C53.6007 18.9881 53.5791 19.0414 53.5683 19.0974C53.5576 19.1534 53.558 19.2109 53.5695 19.2667C53.581 19.3226 53.6034 19.3756 53.6354 19.4227C53.6675 19.4699 53.7085 19.5103 53.7561 19.5417C54.9023 20.2862 56.2251 20.7148 57.5905 20.7838C57.5991 20.7851 57.6072 20.7852 57.6153 20.7852Z" fill="#3C4043"/>
<path d="M52.8575 12.1236C52.9397 12.1235 53.0202 12.1002 53.0896 12.0562C53.1591 12.0123 53.2146 11.9495 53.2498 11.8753C53.2849 11.8011 53.2983 11.7185 53.2883 11.637C53.2783 11.5555 53.2453 11.4785 53.1933 11.4149L51.5958 9.46816C51.5596 9.42406 51.5151 9.3875 51.4648 9.36058C51.4146 9.33365 51.3595 9.31688 51.3027 9.31122C51.2459 9.30557 51.1886 9.31114 51.1339 9.32762C51.0793 9.3441 51.0285 9.37117 50.9843 9.40728C50.9402 9.44338 50.9036 9.48782 50.8766 9.53806C50.8497 9.58829 50.8329 9.64334 50.8272 9.70006C50.8216 9.75677 50.8272 9.81405 50.8437 9.86861C50.8602 9.92317 50.8872 9.97395 50.9234 10.0181L51.8448 11.1407L50.732 11.0172C50.675 11.0102 50.6171 11.0146 50.5618 11.0301C50.5065 11.0457 50.4549 11.072 50.4098 11.1076C50.3648 11.1432 50.3272 11.1874 50.2994 11.2376C50.2715 11.2878 50.2539 11.343 50.2476 11.4C50.2413 11.457 50.2463 11.5148 50.2625 11.5698C50.2786 11.6249 50.3055 11.6762 50.3417 11.7208C50.3778 11.7654 50.4224 11.8024 50.473 11.8297C50.5235 11.8569 50.579 11.8739 50.6361 11.8796L52.809 12.1209C52.8251 12.1227 52.8413 12.1237 52.8575 12.1236Z" fill="#3C4043"/>
<path d="M62.8732 14.2492C62.9605 14.2492 63.0457 14.2228 63.1177 14.1735L64.6234 13.1466C64.7167 13.083 64.7814 12.9857 64.8041 12.8752C64.8267 12.7648 64.8054 12.6498 64.7446 12.5548L63.0072 9.8357C62.9452 9.73869 62.8472 9.67026 62.7347 9.64545C62.6222 9.62065 62.5044 9.64151 62.4073 9.70344C62.3102 9.76537 62.2417 9.8633 62.2169 9.97569C62.192 10.0881 62.2129 10.2057 62.2749 10.3027L63.7857 12.667L62.6275 13.4569C62.5508 13.5092 62.4928 13.5846 62.4622 13.6722C62.4316 13.7598 62.4299 13.8549 62.4574 13.9435C62.4848 14.0321 62.54 14.1097 62.6148 14.1647C62.6895 14.2197 62.78 14.2493 62.8729 14.2492H62.8732Z" fill="#3C4043"/>
<path d="M59.9165 11.261C59.7215 11.0387 59.7438 10.7006 59.9663 10.5058C60.1888 10.311 60.5272 10.3333 60.7222 10.5556C60.9172 10.7778 60.895 11.1159 60.6725 11.3107C60.45 11.5055 60.1115 11.4833 59.9165 11.261Z" fill="#3C4043"/>
<path d="M63.8985 11.0676C63.7036 10.8453 63.7259 10.5072 63.9484 10.3124C64.1709 10.1176 64.5093 10.1399 64.7043 10.3622C64.8993 10.5845 64.877 10.9226 64.6545 11.1173C64.432 11.3121 64.0935 11.2898 63.8985 11.0676Z" fill="#3C4043"/>
<path d="M61.8033 16.4406C62.3066 16.4402 62.7915 16.2519 63.163 15.9127L63.3833 15.7072C63.4676 15.6286 63.5171 15.5199 63.5211 15.4049C63.5251 15.2899 63.4832 15.178 63.4046 15.0939C63.326 15.0097 63.2171 14.9602 63.102 14.9562C62.9868 14.9523 62.8748 14.9941 62.7906 15.0727L62.5734 15.2752C62.4558 15.3823 62.3171 15.4637 62.1661 15.5141C62.0151 15.5645 61.8552 15.5827 61.6968 15.5677C61.5431 15.5543 61.394 15.5083 61.2594 15.433C61.1249 15.3576 61.0078 15.2546 60.9161 15.1307L60.8717 15.0715C60.8374 15.0259 60.7946 14.9875 60.7455 14.9585C60.6964 14.9295 60.6421 14.9104 60.5856 14.9023C60.5291 14.8943 60.4716 14.8974 60.4164 14.9115C60.3611 14.9257 60.3092 14.9505 60.2636 14.9847C60.2179 15.0189 60.1795 15.0617 60.1504 15.1108C60.1214 15.1598 60.1023 15.2141 60.0942 15.2705C60.0861 15.3269 60.0893 15.3843 60.1034 15.4395C60.1176 15.4947 60.1425 15.5466 60.1767 15.5922L60.2201 15.65C60.3852 15.8701 60.5944 16.0533 60.8345 16.1878C61.0746 16.3223 61.3402 16.4052 61.6143 16.4311C61.6774 16.4375 61.7404 16.4407 61.8033 16.4406Z" fill="#3C4043"/>
<path d="M28.8742 113.553L30.6857 116.93L27.6547 115.518L28.8742 113.553Z" fill="#FFF1ED"/>
<path d="M26.7755 87.3205L23.4194 82.5769L23.796 81.2029L29.854 80.646L26.7755 87.3205Z" fill="#FFF1ED"/>
<path d="M46.1549 50.9059L45.4433 55.6931L42.1729 53.0942L46.1549 50.9059Z" fill="#FFF1ED"/>
<path d="M51.4902 57.9056L51.3688 58.0584C48.005 62.2836 41.8305 62.9836 37.6046 59.6193C36.6583 58.8659 35.8681 57.9549 35.2562 56.9116C35.1064 56.656 35.192 56.3271 35.4475 56.1776C35.7029 56.0277 36.0316 56.1133 36.1817 56.3689C36.7266 57.2979 37.4302 58.1092 38.2729 58.78C42.0359 61.7758 47.534 61.1526 50.5292 57.3903L50.6501 57.2382C52.685 54.6743 53.1169 51.2252 51.7771 48.2376C51.656 47.9672 51.7771 47.6498 52.047 47.5289C52.3174 47.4076 52.6346 47.5286 52.7561 47.7989C54.2605 51.1538 53.7754 55.0262 51.4902 57.9056Z" fill="#E7F1FF"/>
<path d="M83.0375 120.667C83.034 120.668 83.0307 120.668 83.0271 120.669L82.8364 120.705C77.5328 121.706 72.4032 118.205 71.4019 112.9C70.4005 107.595 73.9007 102.465 79.2043 101.464L79.3958 101.428C79.3972 101.427 79.3988 101.427 79.4 101.427C83.1516 100.719 87.001 102.275 89.2077 105.392C89.3789 105.633 89.3217 105.968 89.08 106.139C88.8381 106.31 88.5035 106.253 88.3323 106.012C86.3674 103.236 82.9394 101.851 79.5987 102.481C79.5973 102.481 79.5962 102.482 79.595 102.482L79.4033 102.518C74.6809 103.409 71.5643 107.977 72.4559 112.701C73.3476 117.425 77.9149 120.542 82.6373 119.651L82.8288 119.615C82.8318 119.614 82.835 119.613 82.8381 119.613C84.7401 119.254 86.4882 118.255 87.7623 116.798C87.9574 116.575 88.2961 116.552 88.5191 116.748C88.742 116.943 88.7647 117.282 88.5696 117.505C87.1382 119.141 85.1738 120.264 83.0375 120.667Z" fill="#E7F1FF"/>
<path d="M79.9019 115.034L78.5376 107.806L85.4757 110.24L79.9019 115.034Z" fill="#FFF1ED"/>
<path d="M20.6608 90.7083C20.6498 90.589 20.6785 90.4653 20.7509 90.3585C20.9173 90.1134 21.2508 90.0493 21.496 90.2155C23.1585 91.3424 25.1757 91.8602 27.1757 91.6733C31.965 91.233 35.5013 86.9816 35.0614 82.1959L35.0435 82.0019C34.6138 77.333 30.6082 73.8605 25.9243 74.0963C25.6285 74.1111 25.3774 73.8844 25.3615 73.5875C25.3467 73.2917 25.5744 73.0397 25.8704 73.0247C31.1306 72.7598 35.6293 76.6598 36.1119 81.9033L36.1298 82.0973C36.6239 87.4719 32.6522 92.2467 27.2764 92.7409C25.0282 92.951 22.7619 92.3692 20.8937 91.1028C20.7557 91.0096 20.675 90.8626 20.6608 90.7083Z" fill="#E7F1FF"/>
<path d="M38.5277 118.198L38.5216 118.391C38.5043 118.936 38.4412 119.483 38.3342 120.018C38.2761 120.308 37.9934 120.496 37.7029 120.438C37.4123 120.38 37.2242 120.098 37.2823 119.807C37.3776 119.33 37.4339 118.843 37.4494 118.357L37.4555 118.164C37.6068 113.36 33.8202 109.328 29.0147 109.177C26.0963 109.082 23.3418 110.444 21.6462 112.82C21.4742 113.061 21.1391 113.117 20.8979 112.945C20.6568 112.773 20.6008 112.438 20.7728 112.197C22.6777 109.528 25.7715 107.998 29.049 108.104C34.4451 108.275 38.6976 112.802 38.5277 118.198Z" fill="#E7F1FF"/>
<path d="M66.2984 84.7231C64.4812 82.8473 63.5023 80.3759 63.5423 77.7636C63.5823 75.149 64.6381 72.7063 66.5152 70.8853C68.3937 69.0629 70.8695 68.0818 73.4862 68.1228C73.8839 68.1291 74.2855 68.1597 74.6798 68.2138C74.9733 68.2541 75.1786 68.5246 75.1383 68.8181C75.0979 69.1116 74.8272 69.3169 74.5337 69.2766C74.182 69.2283 73.8239 69.2011 73.4691 69.1954C71.1392 69.159 68.9348 70.0325 67.2621 71.6552C65.5909 73.2766 64.6507 75.4516 64.615 77.7796C64.5795 80.1056 65.4509 82.3063 67.0691 83.9766C67.0706 83.9782 67.0717 83.9793 67.0734 83.981L67.2092 84.1212C70.5531 87.5715 76.0825 87.6585 79.535 84.3151C79.7492 84.1044 79.9571 83.8767 80.1499 83.6419C80.338 83.413 80.676 83.3797 80.9049 83.5677C81.1342 83.756 81.167 84.0937 80.9789 84.3226C80.7622 84.5866 80.5285 84.8422 80.2844 85.0826C76.4039 88.8404 70.1941 88.7427 66.4387 84.8677L66.303 84.7276C66.3015 84.7263 66.2999 84.7246 66.2984 84.7231Z" fill="#E7F1FF"/>
<path d="M69.4171 79.1555L74.6984 74.0391L76.4876 81.1698L69.4171 79.1555Z" fill="#FFF1ED"/>
<path d="M122.9 83.5229C107.044 83.5229 94.1913 96.3761 94.1913 112.231C94.1913 128.086 107.044 140.94 122.9 140.94C138.755 140.94 151.608 128.087 151.608 112.231C151.608 96.3761 138.755 83.5229 122.9 83.5229ZM122.9 130.933C112.571 130.933 104.198 122.56 104.198 112.231C104.198 101.903 112.571 93.5301 122.9 93.5301C133.228 93.5301 141.601 101.903 141.601 112.231C141.601 122.56 133.228 130.933 122.9 130.933Z" fill="white"/>
<path d="M122.9 141.402C106.815 141.402 93.7296 128.316 93.7296 112.232C93.7296 96.1474 106.815 83.0615 122.9 83.0615C138.984 83.0615 152.07 96.1474 152.07 112.232C152.07 128.316 138.984 141.402 122.9 141.402ZM122.9 83.9856C107.325 83.9856 94.6537 96.6568 94.6537 112.232C94.6537 127.807 107.325 140.478 122.9 140.478C138.475 140.478 151.146 127.807 151.146 112.232C151.146 96.657 138.475 83.9856 122.9 83.9856ZM122.9 131.395C112.333 131.395 103.737 122.799 103.737 112.232C103.737 101.665 112.333 93.0687 122.9 93.0687C133.467 93.0687 142.063 101.665 142.063 112.232C142.063 122.799 133.467 131.395 122.9 131.395ZM122.9 93.9927C112.843 93.9927 104.661 102.175 104.661 112.232C104.661 122.289 112.843 130.471 122.9 130.471C132.957 130.471 141.139 122.289 141.139 112.232C141.139 102.175 132.957 93.9927 122.9 93.9927Z" fill="#3C4043"/>
<path d="M88.3444 109.093C96.2721 115.008 97.8968 126.205 91.9737 134.102C86.0506 142 74.8221 143.608 66.8947 137.693C66.809 137.629 66.7241 137.565 66.6396 137.499L71.9142 130.593C75.9604 133.669 81.7373 132.894 84.8173 128.864C87.8973 124.833 87.1141 119.072 83.068 115.997L88.3444 109.093Z" fill="#85B7FE"/>
<path d="M157.79 47.976C157.72 47.9522 157.645 47.9483 157.573 47.9649C157.502 47.9814 157.436 48.0177 157.384 48.0696L145.829 59.5776L146.169 79.3694L162.278 84.4508C162.342 84.4708 162.409 84.4745 162.474 84.4616C162.539 84.4487 162.6 84.4196 162.651 84.3771C162.702 84.3345 162.741 84.2798 162.765 84.2181C162.789 84.1563 162.797 84.0894 162.788 84.0237L158.055 48.2985C158.045 48.2255 158.015 48.1566 157.968 48.0996C157.922 48.0426 157.86 47.9998 157.79 47.976Z" fill="#85B7FE"/>
<path d="M146.288 78.9921L131.561 74.3457L146.149 59.8163L146.288 78.9921Z" fill="white"/>
<path d="M146.698 79.2286C146.645 79.3219 146.561 79.3941 146.46 79.4331C146.36 79.4721 146.249 79.4757 146.146 79.4433L131.419 74.7968C131.341 74.7723 131.271 74.7282 131.215 74.6687C131.159 74.6092 131.119 74.5363 131.1 74.4572C131.08 74.378 131.081 74.2951 131.103 74.2167C131.125 74.1382 131.167 74.0668 131.225 74.0093L145.814 59.4803C145.88 59.4144 145.964 59.3696 146.056 59.3514C146.147 59.3333 146.242 59.3426 146.329 59.3782C146.415 59.4138 146.489 59.4742 146.542 59.5516C146.594 59.6291 146.622 59.7202 146.623 59.8135L146.761 78.9894C146.762 79.0733 146.74 79.1559 146.698 79.2286ZM132.45 74.1294L145.809 78.3448L145.684 60.9499L132.45 74.1294Z" fill="#3C4043"/>
<path d="M179.429 140.081C175.915 141.995 171.515 140.692 169.602 137.172C169.599 137.167 169.597 137.162 169.594 137.157L145.458 92.6096C143.504 89.1059 144.756 84.68 148.254 82.7242C151.752 80.7685 156.172 82.0234 158.126 85.5271C158.155 85.5788 182.344 130.225 182.344 130.225C184.257 133.751 182.955 138.162 179.434 140.078C179.433 140.079 179.431 140.08 179.429 140.081Z" fill="white"/>
<path d="M176.758 141.396C173.755 141.701 170.717 140.216 169.187 137.399C169.187 137.398 169.178 137.383 169.178 137.383L145.043 92.836C144.039 91.036 143.794 88.9466 144.357 86.9577C144.919 84.9687 146.221 83.3185 148.024 82.311C151.744 80.231 156.461 81.5704 158.539 85.2967C158.568 85.3494 180.284 125.43 182.76 130C184.795 133.75 183.404 138.458 179.661 140.495L179.43 140.081L179.656 140.497C178.73 141.001 177.746 141.295 176.758 141.396ZM170.018 136.946C171.803 140.231 175.923 141.451 179.204 139.665C179.204 139.664 179.205 139.664 179.206 139.664C182.494 137.874 183.714 133.743 181.929 130.452C181.687 130.007 157.817 85.9483 157.711 85.7554C155.889 82.4885 151.749 81.3133 148.485 83.1385C146.904 84.0227 145.761 85.4708 145.267 87.2162C144.774 88.9614 144.988 90.7951 145.872 92.3792L170.01 136.931L169.602 137.172L170.018 136.946Z" fill="#3C4043"/>
<path d="M155.911 141.411C154.025 141.411 152.182 140.852 150.614 139.805C149.046 138.757 147.824 137.268 147.103 135.526C146.381 133.784 146.192 131.867 146.561 130.018C146.929 128.168 147.837 126.47 149.171 125.137C150.959 123.349 153.383 122.345 155.911 122.345C158.439 122.345 160.863 123.349 162.651 125.137C164.438 126.925 165.443 129.349 165.443 131.877C165.443 134.405 164.438 136.829 162.651 138.617C161.768 139.506 160.718 140.21 159.561 140.69C158.404 141.17 157.163 141.415 155.911 141.411ZM155.911 127.986C155.141 127.986 154.389 128.214 153.749 128.641C153.109 129.069 152.61 129.677 152.316 130.388C152.021 131.099 151.944 131.881 152.094 132.636C152.245 133.391 152.615 134.084 153.159 134.629C153.704 135.173 154.397 135.543 155.152 135.693C155.907 135.844 156.689 135.767 157.4 135.472C158.111 135.178 158.719 134.679 159.146 134.039C159.574 133.399 159.802 132.647 159.802 131.877C159.801 130.845 159.391 129.856 158.661 129.127C157.932 128.397 156.943 127.987 155.911 127.986V127.986Z" fill="#85B7FE"/>
<circle cx="123.155" cy="112.371" r="19.8736" fill="white" stroke="#3C4043" stroke-width="2"/>
</svg>
