<svg width="14" height="12" viewBox="0 0 14 12" fill="none" xmlns="http://www.w3.org/2000/svg">
<path fill-rule="evenodd" clip-rule="evenodd" d="M7.69609 0.142578C7.18509 0.142578 6.70457 0.385856 6.40181 0.797689L3.8748 4.24414H1.45829C1.26463 4.24414 1.07926 4.32069 0.942179 4.45719C0.805679 4.59428 0.729126 4.77964 0.729126 4.97331V11.1279C0.729126 11.3216 0.805679 11.5075 0.942179 11.644C1.07926 11.7805 1.26463 11.8571 1.45829 11.8571H4.09583H10.5148C11.2469 11.8571 11.8873 11.3627 12.0722 10.654L13.2184 6.2596C13.3438 5.77719 13.2398 5.26396 12.9347 4.86963C12.6302 4.4753 12.1597 4.24414 11.6609 4.24414H9.14645C9.10328 4.24414 9.06279 4.2244 9.03479 4.19173C9.00737 4.15848 8.99589 4.11524 9.00289 4.07324L9.36292 2.02474C9.44517 1.55807 9.31709 1.07849 9.012 0.715658C8.7075 0.352241 8.25806 0.142578 7.78381 0.142578H7.69609ZM7.69609 1.01758H7.78381C7.99906 1.01758 8.20383 1.11226 8.34208 1.27734C8.48092 1.44243 8.53892 1.66146 8.50159 1.87321L8.14042 3.92171C8.08792 4.21863 8.1712 4.52356 8.36487 4.75456C8.55912 4.98556 8.84428 5.11914 9.14645 5.11914H11.6609C11.8884 5.11914 12.1032 5.22431 12.242 5.40397C12.3814 5.58422 12.4296 5.81807 12.3719 6.03857L11.2257 10.4329C11.1411 10.7561 10.849 10.9821 10.5148 10.9821H4.53333V4.8252L7.1082 1.31608C7.24528 1.12825 7.46392 1.01758 7.69609 1.01758ZM1.60413 5.11914H3.65833V10.9821H1.60413V5.11914Z" fill="#36C381"/>
</svg>
