<svg width="16" height="16" viewBox="0 0 16 16" fill="none" xmlns="http://www.w3.org/2000/svg">
<path d="M6.46585 2.91729C6.15106 2.91729 5.89587 2.66211 5.89587 2.34732C5.89587 2.05002 6.12349 1.80588 6.41397 1.77967L6.46585 1.77734H9.6957C10.0105 1.77734 10.2657 2.03253 10.2657 2.34732C10.2657 2.64462 10.0381 2.88875 9.74758 2.91496L9.6957 2.91729H6.46585Z" fill="#9AA0A6"/>
<path d="M5.08841 4.67524C5.08841 4.99003 5.34359 5.24522 5.65838 5.24522H10.5032L10.555 5.24289C10.8455 5.21668 11.0731 4.97254 11.0731 4.67524C11.0731 4.36045 10.818 4.10527 10.5032 4.10527H5.65838L5.6065 4.1076C5.31603 4.1338 5.08841 4.37794 5.08841 4.67524Z" fill="#9AA0A6"/>
<path d="M5.08841 9.97073C5.08841 10.2855 5.34359 10.5407 5.65838 10.5407H10.5032L10.555 10.5384C10.8455 10.5122 11.0731 10.268 11.0731 9.97073C11.0731 9.65594 10.818 9.40075 10.5032 9.40075L5.65838 9.40075L5.6065 9.40308C5.31603 9.42929 5.08841 9.67343 5.08841 9.97073Z" fill="#9AA0A6"/>
<path fill-rule="evenodd" clip-rule="evenodd" d="M4.04345 14.2218H12.1181C12.8789 14.2218 13.4955 13.6052 13.4955 12.844V7.99996C13.4955 7.23868 12.8789 6.62213 12.1181 6.62213H4.04345C3.28269 6.62213 2.66602 7.23868 2.66602 7.99996V12.844C2.66602 13.6052 3.28269 14.2218 4.04345 14.2218ZM12.1181 13.0818H4.04345C3.91222 13.0818 3.80596 12.9756 3.80596 12.844V7.99996C3.80596 7.86831 3.91222 7.76208 4.04345 7.76208H12.1181C12.2493 7.76208 12.3556 7.86831 12.3556 7.99996V12.844C12.3556 12.9756 12.2493 13.0818 12.1181 13.0818Z" fill="#9AA0A6"/>
</svg>
