<svg width="17" height="17" viewBox="0 0 17 17" fill="none" xmlns="http://www.w3.org/2000/svg">
<path opacity="0.12" d="M6.375 3.54199C6.375 2.36839 7.32639 1.41699 8.5 1.41699C9.6736 1.41699 10.625 2.36839 10.625 3.54199V8.50033C10.625 9.67393 9.6736 10.6253 8.5 10.6253C7.32639 10.6253 6.375 9.67393 6.375 8.50033V3.54199Z" fill="#101828"/>
<path d="M13.4577 7.08366V8.50033C13.4577 11.2387 11.2378 13.4587 8.49935 13.4587M3.54102 7.08366V8.50033C3.54102 11.2387 5.76094 13.4587 8.49935 13.4587M8.49935 13.4587V15.5837M5.66602 15.5837H11.3327M8.49935 10.6253C7.32574 10.6253 6.37435 9.67393 6.37435 8.50033V3.54199C6.37435 2.36839 7.32574 1.41699 8.49935 1.41699C9.67295 1.41699 10.6243 2.36839 10.6243 3.54199V8.50033C10.6243 9.67393 9.67295 10.6253 8.49935 10.6253Z" stroke="#777A80" stroke-linecap="round" stroke-linejoin="round"/>
</svg>
