<svg width="40" height="40" viewBox="0 0 40 40" fill="none" xmlns="http://www.w3.org/2000/svg">
<path d="M34 12.7333V32.0667C34 32.5794 33.7963 33.0711 33.4337 33.4337C33.0711 33.7963 32.5794 34 32.0667 34H12.7333C10.6823 34 8.71532 33.1852 7.26503 31.735C5.81476 30.2847 5 28.3176 5 26.2667V12.7333C5 10.6823 5.81476 8.71532 7.26503 7.26503C8.71532 5.81476 10.6823 5 12.7333 5H26.2667C28.3176 5 30.2847 5.81476 31.735 7.26503C33.1852 8.71532 34 10.6823 34 12.7333Z" fill="#E6B415"/>
<path d="M27.5961 25.6466L24.5256 22.5761C25.2623 21.4637 25.6525 20.1576 25.6466 18.8233C25.6466 17.4738 25.2465 16.1546 24.4967 15.0325C23.747 13.9104 22.6812 13.0358 21.4345 12.5194C20.1877 12.003 18.8158 11.8678 17.4922 12.1311C16.1686 12.3944 14.9528 13.0442 13.9985 13.9985C13.0442 14.9528 12.3944 16.1686 12.1311 17.4922C11.8678 18.8158 12.003 20.1876 12.5194 21.4344C13.0358 22.6814 13.9104 23.747 15.0325 24.4967C16.1546 25.2465 17.4738 25.6466 18.8233 25.6466C20.1576 25.6525 21.4637 25.2623 22.5761 24.5256L25.6466 27.5961C25.9052 27.8547 26.2558 28 26.6214 28C26.987 28 27.3376 27.8547 27.5961 27.5961C27.8547 27.3376 28 26.987 28 26.6214C28 26.2558 27.8547 25.9052 27.5961 25.6466ZM23.1025 21.153C22.6513 21.9749 21.9749 22.6512 21.153 23.1025C20.4394 23.4949 19.6377 23.6995 18.8233 23.6971C17.8594 23.6971 16.9171 23.4113 16.1156 22.8757C15.3141 22.3402 14.6894 21.579 14.3205 20.6885C13.9516 19.7979 13.8551 18.8179 14.0432 17.8725C14.2312 16.9271 14.6954 16.0587 15.377 15.377C16.0587 14.6954 16.9271 14.2312 17.8725 14.0432C18.8179 13.8551 19.7979 13.9516 20.6884 14.3205C21.579 14.6894 22.3402 15.3141 22.8757 16.1156C23.4113 16.9171 23.6971 17.8594 23.6971 18.8233C23.6995 19.6377 23.4949 20.4394 23.1025 21.153Z" fill="white"/>
<path d="M19.1527 19.1389C18.9961 19.3153 18.7961 19.4356 18.5781 19.4845C18.3601 19.5333 18.1341 19.5086 17.9287 19.4133C17.7234 19.318 17.5481 19.1566 17.4252 18.9495C17.3023 18.7425 17.2373 18.4993 17.2386 18.2508C17.2386 17.9191 17.1207 17.6009 16.9108 17.3664C16.7009 17.1318 16.4162 17 16.1193 17C15.8225 17 15.5378 17.1318 15.3278 17.3664C15.1179 17.6009 15 17.9191 15 18.2508C15.0006 18.9925 15.1978 19.7174 15.5669 20.3338C15.9359 20.9503 16.4601 21.4308 17.0733 21.7145C17.6865 21.9983 18.3613 22.0726 19.0122 21.9281C19.6632 21.7836 20.2613 21.4268 20.7309 20.9026C20.9143 20.6632 21.01 20.3555 20.9992 20.0407C20.9883 19.7259 20.8716 19.4273 20.6722 19.2045C20.4729 18.9817 20.2057 18.8512 19.9239 18.8391C19.6422 18.8269 19.3668 18.934 19.1527 19.1389Z" fill="white"/>
</svg>
