<svg width="14" height="12" viewBox="0 0 14 12" fill="none" xmlns="http://www.w3.org/2000/svg">
<path fill-rule="evenodd" clip-rule="evenodd" d="M6.30391 11.8574C6.81491 11.8574 7.29543 11.6141 7.59819 11.2023L10.1252 7.75586H12.5417C12.7354 7.75586 12.9207 7.67931 13.0578 7.54281C13.1943 7.40572 13.2709 7.22036 13.2709 7.02669L13.2709 0.872069C13.2709 0.678403 13.1943 0.492456 13.0578 0.355956C12.9207 0.219457 12.7354 0.142902 12.5417 0.142902H9.90417L3.48523 0.142902C2.75315 0.142902 2.11269 0.637278 1.92777 1.34603L0.781615 5.7404C0.656199 6.22281 0.760223 6.73604 1.06531 7.13037C1.36981 7.5247 1.84032 7.75586 2.33907 7.75586L4.85355 7.75586C4.89672 7.75586 4.93721 7.7756 4.96521 7.80827C4.99263 7.84152 5.00411 7.88476 4.99711 7.92676L4.63708 9.97526C4.55483 10.4419 4.68291 10.9215 4.988 11.2843C5.2925 11.6478 5.74194 11.8574 6.21619 11.8574H6.30391ZM6.30391 10.9824H6.21619C6.00094 10.9824 5.79617 10.8877 5.65792 10.7227C5.51908 10.5576 5.46108 10.3385 5.49841 10.1268L5.85958 8.07829C5.91208 7.78137 5.8288 7.47644 5.63513 7.24544C5.44088 7.01444 5.15572 6.88086 4.85355 6.88086L2.33907 6.88086C2.11157 6.88086 1.89685 6.77569 1.75802 6.59603C1.6186 6.41578 1.57038 6.18193 1.62813 5.96143L2.77429 1.56706C2.85887 1.24389 3.15098 1.0179 3.48523 1.0179L9.46667 1.0179L9.46667 7.1748L6.8918 10.6839C6.75472 10.8718 6.53608 10.9824 6.30391 10.9824ZM12.3959 6.88086H10.3417L10.3417 1.0179H12.3959L12.3959 6.88086Z" fill="#D9435F"/>
</svg>
