<svg width="20" height="20" viewBox="0 0 20 20" fill="none" xmlns="http://www.w3.org/2000/svg">
<path d="M3.25 18.75V1.25H12.3965L16.75 5.6035V18.75H3.25Z" fill="#FCEAED"/>
<path d="M12.293 1.5L16.5 5.707V18.5H3.5V1.5H12.293ZM12.5 1H3V19H17V5.5L12.5 1Z" fill="#59141C"/>
<path d="M12.25 5.75V1.25H12.3965L16.75 5.6035V5.75H12.25Z" fill="#FCEAED"/>
<path d="M12.5 1.707L16.293 5.5H12.5V1.707ZM12.5 1H12V6H17V5.5L12.5 1Z" fill="#59141C"/>
<path d="M10.5 9.5H17V19H10.5V9.5Z" fill="#FCEAED"/>
<path d="M16.75 9C16.8875 9 17 9.1125 17 9.25V9.75C17 9.8875 16.8875 10 16.75 10C16.6125 10 16.5 9.8875 16.5 9.75V9.25C16.5 9.1125 16.6125 9 16.75 9ZM10.25 19H10.75C10.8875 19 11 18.8875 11 18.75C11 18.6125 10.8875 18.5 10.75 18.5H10.25C10.1125 18.5 10 18.6125 10 18.75C10 18.8875 10.1125 19 10.25 19ZM13.75 8.5H7.75C7.612 8.5 7.5 8.388 7.5 8.25C7.5 8.112 7.612 8 7.75 8H13.75C13.888 8 14 8.112 14 8.25C14 8.388 13.888 8.5 13.75 8.5ZM11.75 10H7.75C7.612 10 7.5 9.888 7.5 9.75C7.5 9.612 7.612 9.5 7.75 9.5H11.75C11.888 9.5 12 9.612 12 9.75C12 9.888 11.888 10 11.75 10ZM13.75 11.5H7.75C7.612 11.5 7.5 11.388 7.5 11.25C7.5 11.112 7.612 11 7.75 11H13.75C13.888 11 14 11.112 14 11.25C14 11.388 13.888 11.5 13.75 11.5ZM13.75 14.5H7.75C7.612 14.5 7.5 14.388 7.5 14.25C7.5 14.112 7.612 14 7.75 14H13.75C13.888 14 14 14.112 14 14.25C14 14.388 13.888 14.5 13.75 14.5ZM11.75 13H7.75C7.612 13 7.5 12.888 7.5 12.75C7.5 12.612 7.612 12.5 7.75 12.5H11.75C11.888 12.5 12 12.612 12 12.75C12 12.888 11.888 13 11.75 13Z" fill="#59141C"/>
<path d="M14.0001 11.5V11H12.8061C12.5586 11.1485 12.3231 11.314 12.1041 11.5H14.0001ZM14.0001 14.5V14H10.4706C10.4221 14.1635 10.3811 14.33 10.3481 14.5H14.0001ZM12.0001 13V12.5H11.1951C11.0826 12.661 10.9766 12.8265 10.8826 13H12.0001Z" fill="#FCEAED"/>
<path d="M15.5 19.75C13.1565 19.75 11.25 17.8435 11.25 15.5C11.25 13.1565 13.1565 11.25 15.5 11.25C17.8435 11.25 19.75 13.1565 19.75 15.5C19.75 17.8435 17.8435 19.75 15.5 19.75Z" fill="#EF9AA3"/>
<path d="M15.5 11.5C17.7055 11.5 19.5 13.2945 19.5 15.5C19.5 17.7055 17.7055 19.5 15.5 19.5C13.2945 19.5 11.5 17.7055 11.5 15.5C11.5 13.2945 13.2945 11.5 15.5 11.5ZM15.5 11C13.0145 11 11 13.0145 11 15.5C11 17.9855 13.0145 20 15.5 20C17.9855 20 20 17.9855 20 15.5C20 13.0145 17.9855 11 15.5 11Z" fill="#59141C"/>
<path d="M13 15.5H18M15.5 18V13V18Z" stroke="#FCEAED" stroke-miterlimit="10"/>
<path d="M6.25 7.875C6.15054 7.875 6.05516 7.91451 5.98484 7.98484C5.91451 8.05516 5.875 8.15054 5.875 8.25C5.875 8.34946 5.91451 8.44484 5.98484 8.51517C6.05516 8.58549 6.15054 8.625 6.25 8.625C6.34946 8.625 6.44484 8.58549 6.51516 8.51517C6.58549 8.44484 6.625 8.34946 6.625 8.25C6.625 8.15054 6.58549 8.05516 6.51516 7.98484C6.44484 7.91451 6.34946 7.875 6.25 7.875Z" fill="#59141C"/>
<path d="M6.25 9.375C6.15054 9.375 6.05516 9.41451 5.98484 9.48483C5.91451 9.55516 5.875 9.65054 5.875 9.75C5.875 9.84946 5.91451 9.94484 5.98484 10.0152C6.05516 10.0855 6.15054 10.125 6.25 10.125C6.34946 10.125 6.44484 10.0855 6.51516 10.0152C6.58549 9.94484 6.625 9.84946 6.625 9.75C6.625 9.65054 6.58549 9.55516 6.51516 9.48483C6.44484 9.41451 6.34946 9.375 6.25 9.375Z" fill="#59141C"/>
<path d="M6.25 10.875C6.15054 10.875 6.05516 10.9145 5.98484 10.9848C5.91451 11.0552 5.875 11.1505 5.875 11.25C5.875 11.3495 5.91451 11.4448 5.98484 11.5152C6.05516 11.5855 6.15054 11.625 6.25 11.625C6.34946 11.625 6.44484 11.5855 6.51516 11.5152C6.58549 11.4448 6.625 11.3495 6.625 11.25C6.625 11.1505 6.58549 11.0552 6.51516 10.9848C6.44484 10.9145 6.34946 10.875 6.25 10.875Z" fill="#59141C"/>
<path d="M6.25 12.375C6.15054 12.375 6.05516 12.4145 5.98484 12.4848C5.91451 12.5552 5.875 12.6505 5.875 12.75C5.875 12.8495 5.91451 12.9448 5.98484 13.0152C6.05516 13.0855 6.15054 13.125 6.25 13.125C6.34946 13.125 6.44484 13.0855 6.51516 13.0152C6.58549 12.9448 6.625 12.8495 6.625 12.75C6.625 12.6505 6.58549 12.5552 6.51516 12.4848C6.44484 12.4145 6.34946 12.375 6.25 12.375Z" fill="#59141C"/>
<path d="M6.25 13.875C6.15054 13.875 6.05516 13.9145 5.98484 13.9848C5.91451 14.0552 5.875 14.1505 5.875 14.25C5.875 14.3495 5.91451 14.4448 5.98484 14.5152C6.05516 14.5855 6.15054 14.625 6.25 14.625C6.34946 14.625 6.44484 14.5855 6.51516 14.5152C6.58549 14.4448 6.625 14.3495 6.625 14.25C6.625 14.1505 6.58549 14.0552 6.51516 13.9848C6.44484 13.9145 6.34946 13.875 6.25 13.875Z" fill="#59141C"/>
</svg>
