<svg width="20" height="20" viewBox="0 0 20 20" fill="none" xmlns="http://www.w3.org/2000/svg">
<path d="M0.755859 19.25C0.890359 16.4705 3.24686 14.25 6.12486 14.25H9.87486C12.7529 14.25 15.1099 16.4705 15.2439 19.25H0.755859Z" fill="#DD3646"/>
<path d="M9.875 14.5C12.528 14.5 14.7165 16.477 14.9745 19H1.0255C1.2835 16.477 3.472 14.5 6.125 14.5H9.875ZM9.875 14H6.125C3.0185 14 0.5 16.4625 0.5 19.5H15.5C15.5 16.4625 12.9815 14 9.875 14Z" fill="#59141C"/>
<path d="M8 15.7501C6.4625 15.7501 5.8515 14.4376 5.75 14.1886V11.4551H10.25V14.1891C10.1485 14.4376 9.5375 15.7501 8 15.7501Z" fill="#FCEAED"/>
<path d="M10 11.7051V14.1376C9.8685 14.4326 9.3035 15.5001 8 15.5001C6.6945 15.5001 6.1295 14.4296 6 14.1376V11.7051H10ZM10.5 11.2051H5.5V14.2361C5.5 14.2361 6.1335 16.0006 8 16.0006C9.8665 16.0006 10.5 14.2361 10.5 14.2361V11.2051Z" fill="#59141C"/>
<path d="M8 13.7508C7.698 13.7508 7.414 13.6418 7.179 13.4358L7.1335 13.3958L7.0755 13.3808C5.412 12.9588 4.25 11.4658 4.25 9.75081V5.10181C4.25 4.18831 4.993 3.44531 5.906 3.44531H10.0935C11.0065 3.44531 11.75 4.18831 11.75 5.10181V9.75081C11.75 11.4658 10.588 12.9588 8.9245 13.3808L8.8665 13.3958L8.821 13.4358C8.586 13.6418 8.302 13.7508 8 13.7508Z" fill="#FCEAED"/>
<path d="M10.0935 3.69336C10.869 3.69336 11.5 4.32436 11.5 5.09986V9.74886C11.5 11.3494 10.4155 12.7424 8.8625 13.1369L8.746 13.1664L8.6555 13.2459C8.524 13.3614 8.304 13.4989 8 13.4989C7.696 13.4989 7.476 13.3614 7.3445 13.2459L7.254 13.1664L7.1375 13.1369C5.5845 12.7424 4.5 11.3494 4.5 9.74886V5.09986C4.5 4.32436 5.131 3.69336 5.9065 3.69336H10.0935ZM10.0935 3.19336H5.906C4.8535 3.19336 4 4.04686 4 5.09986V9.74886C4 11.6174 5.283 13.1819 7.0145 13.6214C7.2785 13.8534 7.621 13.9989 8 13.9989C8.379 13.9989 8.7215 13.8534 8.9855 13.6214C10.717 13.1819 12 11.6174 12 9.74886V5.09986C12 4.04686 11.1465 3.19336 10.0935 3.19336Z" fill="#59141C"/>
<path d="M12.0002 13.75C11.1202 13.75 10.2967 13.294 9.86567 13.0075C10.3887 12.678 11.2502 11.896 11.2502 10.321V7.959C11.2502 6.754 10.2072 5.8475 10.1627 5.81L9.94767 5.626L9.79117 5.8625C9.78067 5.878 8.72367 7.4405 6.46617 7.7525C5.28717 7.915 4.75017 8.807 4.75017 9.5665V10.321C4.75017 11.9175 5.60367 12.6885 6.12867 13.011C5.69917 13.298 4.88217 13.75 4.00017 13.75C3.10367 13.75 2.30917 13.2825 1.92017 13.0085C2.36067 12.661 3.14267 11.8885 3.14267 10.786C3.14267 10.322 3.05467 9.8315 2.96167 9.312C2.85767 8.731 2.75017 8.131 2.75017 7.5C2.75017 3.256 5.44367 1.75 7.75017 1.75C9.65167 1.75 10.2657 3.0875 10.2717 3.1015L10.3377 3.25H10.5002C12.2477 3.25 13.2502 4.6165 13.2502 7C13.2502 7.671 13.1157 8.418 12.9867 9.1405C12.8647 9.817 12.7502 10.4565 12.7502 11C12.7502 11.922 13.4797 12.426 14.0717 12.6405C13.7177 13.046 12.9642 13.75 12.0002 13.75Z" fill="#EF9AA3"/>
<path d="M7.75 2C9.4635 2 10.0215 3.1575 10.043 3.2025L10.1745 3.5H10.5C12.112 3.5 13 4.743 13 7C13 7.649 12.868 8.3845 12.74 9.0965C12.6165 9.7845 12.5 10.434 12.5 11C12.5 11.8825 13.0715 12.4285 13.646 12.726C13.2755 13.0835 12.694 13.5 12 13.5C11.363 13.5 10.7515 13.238 10.3215 12.995C10.866 12.5535 11.5 11.736 11.5 10.3215V7.9595C11.5 6.6405 10.373 5.6615 10.325 5.6205L9.896 5.2565L9.583 5.7245C9.5425 5.785 8.568 7.21 6.4315 7.505C5.1045 7.688 4.5 8.702 4.5 9.5665V10.321C4.5 11.7525 5.127 12.5655 5.671 13.0015C5.2455 13.243 4.641 13.5 4 13.5C3.3435 13.5 2.7375 13.222 2.3345 12.9795C2.8055 12.5395 3.393 11.79 3.393 10.7855C3.393 10.2995 3.303 9.798 3.208 9.2675C3.1055 8.698 3 8.109 3 7.5C3 3.4405 5.559 2 7.75 2ZM7.75 1.5C5.106 1.5 2.5 3.347 2.5 7.5C2.5 8.727 2.893 9.841 2.893 10.7855C2.893 12.1635 1.5 13 1.5 13C1.5 13 2.627 14 4 14C5.397 14 6.6055 12.972 6.6055 12.972C6.6055 12.972 5 12.459 5 10.3215C5 10.015 5 10.0415 5 9.567C5 8.89 5.471 8.1425 6.5 8C8.908 7.6675 10 6 10 6C10 6 11 6.8555 11 7.9595C11 8.4815 11 9.464 11 10.3215C11 12.4185 9.393 12.9725 9.393 12.9725C9.393 12.9725 10.6125 14 12 14C13.5025 14 14.5 12.5 14.5 12.5C14.5 12.5 13 12.2325 13 11C13 9.905 13.5 8.324 13.5 7C13.5 4.1195 12.117 3 10.5 3C10.5 3 9.836 1.5 7.75 1.5Z" fill="#59141C"/>
<path d="M15.5624 7.75673C15.0619 7.75673 14.5789 7.60573 14.1659 7.31973L14.0219 7.22023L13.8824 7.32573C13.5094 7.60723 13.0694 7.75623 12.6094 7.75623C11.7554 7.75623 11.0039 7.26523 10.6959 6.50573L10.6559 6.40673L10.5554 6.36973C9.75743 6.07573 9.24243 5.36573 9.24243 4.56073C9.24243 3.80573 9.69443 3.13373 10.4224 2.80723L10.5579 2.74623L10.5649 2.59773C10.6149 1.55623 11.5129 0.740234 12.6094 0.740234C13.0309 0.740234 13.4384 0.863234 13.7874 1.09573L13.9219 1.18473L14.0564 1.09573C14.4054 0.863234 14.8134 0.740234 15.2344 0.740234C16.0239 0.740234 16.7524 1.18223 17.0909 1.86523L17.1544 1.99373L17.2969 2.00023C18.3964 2.04773 19.2579 2.89823 19.2579 3.93573C19.2579 4.69573 18.7829 5.39073 18.0469 5.70573L17.9274 5.75673L17.9039 5.88473C17.7054 6.96973 16.7204 7.75673 15.5624 7.75673Z" fill="#FCEAED"/>
<path d="M15.2345 0.984C15.9325 0.984 16.576 1.373 16.8735 1.9745L17.0005 2.231L17.2865 2.2435C18.2565 2.2855 19.016 3.0295 19.016 3.9375C19.016 4.6005 18.598 5.208 17.9515 5.485L17.7125 5.5875L17.6655 5.843C17.488 6.8125 16.6035 7.516 15.5625 7.516C15.112 7.516 14.6765 7.38 14.303 7.1225L14.0155 6.924L13.7365 7.1345C13.4055 7.384 13.016 7.516 12.6095 7.516C11.8545 7.516 11.1915 7.0845 10.9205 6.4165L10.84 6.218L10.639 6.144C9.9375 5.886 9.4845 5.265 9.4845 4.5625C9.4845 3.904 9.882 3.317 10.5215 3.03L10.7925 2.9085L10.8065 2.6115C10.85 1.699 11.642 0.9845 12.6095 0.9845C12.9835 0.9845 13.3445 1.0935 13.6535 1.299L13.922 1.4775L14.1905 1.299C14.4995 1.093 14.8605 0.984 15.2345 0.984ZM15.2345 0.5C14.7455 0.5 14.2945 0.648 13.922 0.896C13.5495 0.648 13.0985 0.5 12.6095 0.5C11.3765 0.5 10.379 1.427 10.323 2.588C9.5435 2.938 9 3.6875 9 4.5625C9 5.4925 9.612 6.282 10.4715 6.5985C10.804 7.417 11.6325 8 12.6095 8C13.148 8 13.6365 7.816 14.0285 7.5205C14.4605 7.819 14.988 8 15.5625 8C16.8575 8 17.927 7.105 18.142 5.93C18.941 5.5875 19.5 4.8265 19.5 3.9375C19.5 2.7635 18.5265 1.813 17.3075 1.76C16.94 1.0175 16.1535 0.5 15.2345 0.5Z" fill="#59141C"/>
<path d="M16.25 3.625C16.0842 3.625 15.9253 3.69085 15.8081 3.80806C15.6908 3.92527 15.625 4.08424 15.625 4.25C15.625 4.41576 15.6908 4.57473 15.8081 4.69194C15.9253 4.80915 16.0842 4.875 16.25 4.875C16.4158 4.875 16.5747 4.80915 16.6919 4.69194C16.8092 4.57473 16.875 4.41576 16.875 4.25C16.875 4.08424 16.8092 3.92527 16.6919 3.80806C16.5747 3.69085 16.4158 3.625 16.25 3.625ZM14.25 3.625C14.0842 3.625 13.9253 3.69085 13.8081 3.80806C13.6908 3.92527 13.625 4.08424 13.625 4.25C13.625 4.41576 13.6908 4.57473 13.8081 4.69194C13.9253 4.80915 14.0842 4.875 14.25 4.875C14.4158 4.875 14.5747 4.80915 14.6919 4.69194C14.8092 4.57473 14.875 4.41576 14.875 4.25C14.875 4.08424 14.8092 3.92527 14.6919 3.80806C14.5747 3.69085 14.4158 3.625 14.25 3.625ZM12.25 3.625C12.0842 3.625 11.9253 3.69085 11.8081 3.80806C11.6908 3.92527 11.625 4.08424 11.625 4.25C11.625 4.41576 11.6908 4.57473 11.8081 4.69194C11.9253 4.80915 12.0842 4.875 12.25 4.875C12.4158 4.875 12.5747 4.80915 12.6919 4.69194C12.8092 4.57473 12.875 4.41576 12.875 4.25C12.875 4.08424 12.8092 3.92527 12.6919 3.80806C12.5747 3.69085 12.4158 3.625 12.25 3.625Z" fill="#59141C"/>
</svg>
