<svg width="20" height="20" viewBox="0 0 20 20" fill="none" xmlns="http://www.w3.org/2000/svg">
<path d="M10 18.75C5.1755 18.75 1.25 14.8245 1.25 10C1.25 5.1755 5.1755 1.25 10 1.25C14.8245 1.25 18.75 5.1755 18.75 10C18.75 14.8245 14.8245 18.75 10 18.75Z" fill="#FCEAED"/>
<path d="M10 1.5C14.687 1.5 18.5 5.313 18.5 10C18.5 14.687 14.687 18.5 10 18.5C5.313 18.5 1.5 14.687 1.5 10C1.5 5.313 5.313 1.5 10 1.5ZM10 1C5.0295 1 1 5.0295 1 10C1 14.9705 5.0295 19 10 19C14.9705 19 19 14.9705 19 10C19 5.0295 14.9705 1 10 1Z" fill="#59141C"/>
<path d="M7.5 6V14L14.5 10L7.5 6Z" fill="#DD3646"/>
</svg>
