<svg width="20" height="20" viewBox="0 0 20 20" fill="none" xmlns="http://www.w3.org/2000/svg">
<path d="M19 19.2508C17.95 19.1508 16.75 18.8508 15.6 18.3008L15.5 18.2508L15.4 18.3008C14.55 18.6008 13.65 18.8008 12.75 18.8008C9.15 18.8008 6.25 16.3508 6.25 13.3008C6.25 10.2508 9.15 7.80078 12.75 7.80078C16.35 7.80078 19.25 10.2508 19.25 13.3008C19.25 14.5508 18.75 15.8008 17.8 16.8008L17.7 16.9508L17.8 17.1008C18.15 17.8508 18.55 18.6008 19 19.2508Z" fill="#EF9AA3"/>
<path d="M12.75 8C16.2 8 19 10.35 19 13.25C19 14.45 18.5 15.6 17.6 16.55L17.35 16.8L17.5 17.1C17.8 17.75 18.15 18.35 18.5 18.9C17.6 18.75 16.65 18.45 15.7 18L15.5 17.95L15.3 18.05C14.5 18.35 13.65 18.5 12.75 18.5C9.3 18.5 6.5 16.15 6.5 13.25C6.5 10.35 9.3 8 12.75 8ZM12.75 7.5C9 7.5 6 10.05 6 13.25C6 16.45 9 19 12.75 19C13.75 19 14.65 18.8 15.5 18.5C16.75 19.1 18.2 19.5 19.5 19.5C18.9 18.75 18.4 17.8 17.95 16.9C18.9 15.9 19.5 14.65 19.5 13.25C19.5 10.05 16.5 7.5 12.75 7.5Z" fill="#59141C"/>
<path d="M0.999805 12.25C1.4498 11.65 1.8498 10.9 2.2498 10.05L2.3498 9.9L2.2498 9.75C1.2998 8.75 0.799805 7.55 0.799805 6.25C0.799805 3.2 3.6998 0.75 7.2998 0.75C10.8998 0.75 13.7998 3.2 13.7998 6.25C13.7998 9.3 10.8998 11.75 7.2998 11.75C6.3998 11.75 5.4998 11.6 4.6498 11.25H4.4998L4.3998 11.3C3.2498 11.8 2.0498 12.15 0.999805 12.25Z" fill="#FCEAED"/>
<path d="M7.25 1C10.7 1 13.5 3.35 13.5 6.25C13.5 9.15 10.7 11.5 7.25 11.5C6.35 11.5 5.5 11.35 4.7 11.05L4.5 10.95L4.3 11.05C3.35 11.5 2.4 11.8 1.5 11.9C1.85 11.35 2.15 10.75 2.5 10.1L2.65 9.8L2.4 9.55C1.5 8.6 1 7.45 1 6.25C1 3.35 3.8 1 7.25 1ZM7.25 0.5C3.5 0.5 0.5 3.05 0.5 6.25C0.5 7.65 1.1 8.9 2.05 9.9C1.6 10.8 1.1 11.75 0.5 12.5C1.8 12.5 3.25 12.1 4.5 11.5C5.35 11.8 6.25 12 7.25 12C11 12 14 9.45 14 6.25C14 3.05 11 0.5 7.25 0.5Z" fill="#59141C"/>
<path d="M10.75 5H3.75C3.6 5 3.5 4.9 3.5 4.75C3.5 4.6 3.6 4.5 3.75 4.5H10.75C10.9 4.5 11 4.6 11 4.75C11 4.9 10.9 5 10.75 5ZM10.75 8H3.75C3.6 8 3.5 7.9 3.5 7.75C3.5 7.6 3.6 7.5 3.75 7.5H10.75C10.9 7.5 11 7.6 11 7.75C11 7.9 10.9 8 10.75 8ZM16.25 12H9.25C9.1 12 9 11.9 9 11.75C9 11.6 9.1 11.5 9.25 11.5H16.25C16.4 11.5 16.5 11.6 16.5 11.75C16.5 11.9 16.4 12 16.25 12ZM16.25 15H9.25C9.1 15 9 14.9 9 14.75C9 14.6 9.1 14.5 9.25 14.5H16.25C16.4 14.5 16.5 14.6 16.5 14.75C16.5 14.9 16.4 15 16.25 15Z" fill="#59141C"/>
</svg>
