<svg width="20" height="20" viewBox="0 0 20 20" fill="none" xmlns="http://www.w3.org/2000/svg">
<path d="M18.997 19.23C17.9405 19.1475 16.7565 18.8145 15.608 18.2715L15.512 18.226L15.4125 18.264C14.5655 18.5865 13.67 18.75 12.75 18.75C9.166 18.75 6.25 16.2825 6.25 13.25C6.25 10.2175 9.166 7.75 12.75 7.75C16.334 7.75 19.25 10.2175 19.25 13.25C19.25 14.5145 18.729 15.7505 17.7825 16.7295L17.6615 16.855L17.737 17.0115C18.146 17.862 18.569 18.6055 18.997 19.23Z" fill="#85B7FE"/>
<path d="M12.75 8C16.1965 8 19 10.355 19 13.25C19 14.45 18.504 15.624 17.603 16.5555L17.361 16.806L17.512 17.12C17.8325 17.7865 18.162 18.3885 18.496 18.921C17.6085 18.7875 16.6505 18.488 15.7145 18.0455L15.522 17.9545L15.323 18.0305C14.5045 18.342 13.639 18.5 12.75 18.5C9.3035 18.5 6.5 16.145 6.5 13.25C6.5 10.355 9.3035 8 12.75 8ZM12.75 7.5C9.022 7.5 6 10.0745 6 13.25C6 16.4255 9.022 19 12.75 19C13.7305 19 14.66 18.818 15.5005 18.4975C16.7735 19.099 18.2025 19.5 19.5 19.5C18.912 18.7255 18.3995 17.8115 17.9625 16.903C18.923 15.91 19.5 14.6375 19.5 13.25C19.5 10.0745 16.478 7.5 12.75 7.5Z" fill="#07377F"/>
<path d="M13.5175 10.5H12.029L10 16H11.3605C11.3605 16 12.712 11.643 12.725 11.482H12.756C12.774 11.6735 14.132 16 14.132 16H15.5L13.5175 10.5Z" fill="#07377F"/>
<path d="M11 13.5H14.5V14.5H11V13.5Z" fill="#07377F"/>
<path d="M1.003 12.23C1.431 11.6055 1.854 10.862 2.263 10.0115L2.3385 9.855L2.2175 9.7295C1.271 8.7505 0.75 7.5145 0.75 6.25C0.75 3.2175 3.666 0.75 7.25 0.75C10.834 0.75 13.75 3.2175 13.75 6.25C13.75 9.2825 10.834 11.75 7.25 11.75C6.33 11.75 5.4345 11.5865 4.588 11.264L4.4885 11.226L4.3925 11.2715C3.2435 11.8145 2.0595 12.1475 1.003 12.23Z" fill="#E7F1FF"/>
<path d="M7.25 1C10.6965 1 13.5 3.355 13.5 6.25C13.5 9.145 10.6965 11.5 7.25 11.5C6.361 11.5 5.4955 11.342 4.6775 11.0305L4.4785 10.9545L4.286 11.0455C3.35 11.488 2.392 11.7875 1.5045 11.921C1.8385 11.3885 2.1675 10.7865 2.4885 10.12L2.6395 9.806L2.3975 9.5555C1.496 8.624 1 7.45 1 6.25C1 3.355 3.8035 1 7.25 1ZM7.25 0.5C3.522 0.5 0.5 3.0745 0.5 6.25C0.5 7.6375 1.077 8.91 2.0375 9.903C1.6005 10.8115 1.088 11.7255 0.5 12.5C1.7975 12.5 3.2265 12.099 4.4995 11.4975C5.34 11.818 6.2695 12 7.25 12C10.978 12 14 9.4255 14 6.25C14 3.0745 10.978 0.5 7.25 0.5Z" fill="#07377F"/>
<path d="M7 4C7.813 4 8.5 4.916 8.5 6C8.5 7.084 7.813 8 7 8C6.187 8 5.5 7.084 5.5 6C5.5 4.916 6.187 4 7 4ZM7 3C5.6195 3 4.5 4.343 4.5 6C4.5 7.657 5.6195 9 7 9C8.3805 9 9.5 7.657 9.5 6C9.5 4.343 8.3805 3 7 3Z" fill="#07377F"/>
<path d="M7 8H8.5L10 9.5H8.5L7 8Z" fill="#07377F"/>
</svg>
