<svg width="20" height="20" viewBox="0 0 20 20" fill="none" xmlns="http://www.w3.org/2000/svg">
<path d="M9.84631 5.50694L10.4438 4.90894C10.8693 4.48394 11.4348 4.24994 12.0353 4.24994H13.9998L19.2498 3.77344V10.2499H17.4163L15.5308 11.6644L9.84631 5.50694Z" fill="#85B7FE"/>
<path d="M18.9998 4.0475V10H17.4998H17.3333L17.1998 10.1L15.5608 11.329L10.1928 5.514L10.6208 5.086C10.9988 4.708 11.5013 4.5 12.0353 4.5H13.9998H14.0223L14.0448 4.498L18.9998 4.0475ZM19.4998 3.5L13.9998 4H12.0353C11.3723 4 10.7363 4.2635 10.2673 4.732L9.49982 5.5L15.4998 12L17.4998 10.5H19.4998V3.5Z" fill="#07377F"/>
<path d="M10.7498 17.2499C10.3083 17.2499 9.91532 16.9509 9.79332 16.5229L9.68532 16.1434L9.56132 16.2519L4.11082 10.2499H0.749817V3.77344L5.97732 4.24894L8.41682 4.24994C9.03582 4.24994 9.63432 4.50944 10.0583 4.96094L13.8588 9.01494L15.6488 10.8854L15.6803 10.9034C16.0318 11.1049 16.2503 11.4769 16.2503 11.8749C16.2503 12.4739 15.7793 12.9654 15.1778 12.9934L14.8603 13.0084L14.9498 13.3134C14.9838 13.4314 14.9998 13.5304 14.9998 13.6249C14.9998 14.2454 14.4948 14.7499 13.8748 14.7499C13.7763 14.7499 13.6743 14.7329 13.5528 14.6964L13.1788 14.5834L13.2328 14.9704C13.2428 15.0379 13.2493 15.0804 13.2493 15.1249C13.2493 15.7454 12.7443 16.2499 12.1243 16.2499C12.1003 16.2499 12.0768 16.2459 12.0538 16.2429L11.7733 16.2114L11.7298 16.4379C11.6408 16.9084 11.2283 17.2499 10.7498 17.2499Z" fill="#E7F1FF"/>
<path d="M1.00018 4.0475L5.95468 4.498L5.97768 4.5H6.00018H8.41718C8.96768 4.5 9.49968 4.7305 9.87618 5.132L13.6807 9.19L15.4437 11.032L15.4937 11.084L15.5562 11.12C15.8342 11.2795 16.0002 11.562 16.0002 11.875C16.0002 12.34 15.6337 12.722 15.1662 12.744L14.5327 12.774L14.7097 13.383C14.7372 13.478 14.7502 13.555 14.7502 13.625C14.7502 14.1075 14.3577 14.5 13.8752 14.5C13.8022 14.5 13.7227 14.4865 13.6252 14.457L12.8787 14.2325L12.9857 15.0045L12.9897 15.033C12.9942 15.0635 13.0002 15.0935 13.0002 15.125C13.0002 15.6075 12.6077 16 12.1277 16C12.1147 15.9995 12.1017 15.997 12.0887 15.995L12.0307 15.9875L11.5717 15.9375L11.4852 16.391C11.4182 16.744 11.1087 17 10.7502 17C10.4202 17 10.1257 16.7755 10.0342 16.454L9.80518 15.701L9.58018 15.9L4.37018 10.164L4.22168 10H4.00018H1.00018V4.0475ZM0.500183 3.5V10.5H4.00018L9.54168 16.6015L9.55318 16.591C9.70268 17.1145 10.1792 17.5 10.7502 17.5C11.3602 17.5 11.8662 17.063 11.9767 16.485C12.0262 16.4905 12.0742 16.5 12.1252 16.5C12.8847 16.5 13.5002 15.8845 13.5002 15.125C13.5002 15.06 13.4897 14.998 13.4812 14.936C13.6067 14.9735 13.7372 15 13.8752 15C14.6347 15 15.2502 14.3845 15.2502 13.625C15.2502 13.4915 15.2252 13.3655 15.1897 13.2435C15.9187 13.209 16.5002 12.612 16.5002 11.875C16.5002 11.364 16.2182 10.9235 15.8047 10.6865L14.0417 8.844L10.2412 4.79C9.76818 4.286 9.10818 4 8.41718 4H6.00018L0.500183 3.5Z" fill="#07377F"/>
<path d="M8.80921 9.3955C8.54421 9.3955 8.29121 9.351 8.09671 9.2695C7.61921 9.07 7.33821 8.8175 7.28371 8.5395C7.21971 8.2155 7.46171 7.8915 7.67671 7.677L10.4442 4.909C10.8697 4.484 11.4352 4.25 12.0357 4.25H13.7502V7.25H13.0002C12.5567 7.25 11.9502 7.4825 11.6202 7.7795L10.6367 8.6645C9.92871 9.3005 9.18821 9.3955 8.80921 9.3955Z" fill="#85B7FE"/>
<path d="M13.5004 4.5V7H13.0004C12.4944 7 11.8294 7.255 11.4534 7.5935L10.4699 8.478C9.82441 9.0585 9.15291 9.1455 8.80991 9.1455C8.49591 9.1455 8.28891 9.0785 8.19391 9.0385C7.80841 8.877 7.56641 8.6775 7.52991 8.491C7.49741 8.325 7.61541 8.0925 7.85441 7.8535L10.6224 5.0855C10.9994 4.708 11.5019 4.5 12.0359 4.5H13.5004ZM14.0004 4H12.0359C11.3729 4 10.7369 4.2635 10.2679 4.732L7.50041 7.5C6.79191 8.2085 6.80591 9 8.00041 9.5C8.21091 9.588 8.49141 9.6455 8.80991 9.6455C9.41091 9.6455 10.1479 9.4405 10.8044 8.85L11.7879 7.9655C12.0719 7.7095 12.6179 7.5 13.0004 7.5H14.0004V4Z" fill="#07377F"/>
<path d="M15.8335 7L14 7.5H13.5V7H12.5V4.5H15.8335V7ZM9.25 17.25C8.7755 17.25 8.3635 16.913 8.27 16.4485L8.2295 16.2475H8.025L7.975 16.2515C7.3105 16.25 6.75 15.689 6.75 15V14.75H6.5C5.8105 14.75 5.25 14.189 5.25 13.5V13.25H5C4.3105 13.25 3.75 12.689 3.75 12C3.75 11.311 4.3105 10.75 5 10.75C5.6895 10.75 6.25 11.311 6.25 12V12.25H6.5C7.1895 12.25 7.75 12.811 7.75 13.5V13.75H8C8.6895 13.75 9.25 14.311 9.25 15V15.205L9.448 15.27C9.9125 15.3635 10.25 15.7755 10.25 16.25C10.25 16.8015 9.8015 17.25 9.25 17.25Z" fill="#85B7FE"/>
<path d="M5.00037 11C5.55187 11 6.00037 11.4485 6.00037 12V12.5H6.50037C7.05187 12.5 7.50037 12.9485 7.50037 13.5V14H8.00037C8.54287 14 8.98537 14.434 8.99987 14.973L8.99837 14.984L8.99787 15.0165L8.99037 15.4335L9.39937 15.5155C9.74787 15.585 10.0004 15.894 10.0004 16.25C10.0004 16.6635 9.66387 17 9.25037 17C8.89437 17 8.58537 16.7475 8.51537 16.399L8.43337 15.99L8.01637 15.9975C8.00287 15.9975 7.98987 15.9985 7.97687 15.9995C7.43637 15.987 7.00037 15.5435 7.00037 15V14.5H6.50037C5.94887 14.5 5.50037 14.0515 5.50037 13.5V13H5.00037C4.44887 13 4.00037 12.5515 4.00037 12C4.00037 11.4485 4.44887 11 5.00037 11ZM5.00037 10.5C4.17187 10.5 3.50037 11.1715 3.50037 12C3.50037 12.8285 4.17187 13.5 5.00037 13.5C5.00037 14.3285 5.67187 15 6.50037 15C6.50037 15.8285 7.17187 16.5 8.00037 16.5C8.00887 16.5 8.01687 16.4975 8.02537 16.4975C8.14037 17.069 8.64487 17.5 9.25037 17.5C9.94087 17.5 10.5004 16.9405 10.5004 16.25C10.5004 15.6445 10.0694 15.14 9.49787 15.025C9.49787 15.0165 9.50037 15.0085 9.50037 15C9.50037 14.1715 8.82887 13.5 8.00037 13.5C8.00037 12.6715 7.32887 12 6.50037 12C6.50037 11.1715 5.82887 10.5 5.00037 10.5Z" fill="#07377F"/>
<path d="M11.4996 16L11.8681 16.3685M14.4996 12.5L15.0851 13.0855L14.4996 12.5ZM12.7496 14.25L13.3351 14.8355L12.7496 14.25Z" stroke="#07377F" stroke-width="0.5" stroke-miterlimit="10" stroke-linecap="round"/>
<path d="M13.2502 7H13.7502C13.8877 7 14.0002 7.1125 14.0002 7.25C14.0002 7.3875 13.8877 7.5 13.7502 7.5H13.2502C13.1127 7.5 13.0002 7.3875 13.0002 7.25C13.0002 7.1125 13.1127 7 13.2502 7Z" fill="#07377F"/>
</svg>
