<svg width="20" height="20" viewBox="0 0 20 20" fill="none" xmlns="http://www.w3.org/2000/svg">
<path d="M10.25 0.25C10.053 0.25 9.85796 0.288799 9.67597 0.364181C9.49399 0.439563 9.32863 0.550052 9.18934 0.68934C9.05005 0.828628 8.93956 0.993986 8.86418 1.17597C8.7888 1.35796 8.75 1.55302 8.75 1.75C8.75 1.94698 8.7888 2.14204 8.86418 2.32403C8.93956 2.50601 9.05005 2.67137 9.18934 2.81066C9.32863 2.94995 9.49399 3.06044 9.67597 3.13582C9.85796 3.2112 10.053 3.25 10.25 3.25C10.447 3.25 10.642 3.2112 10.824 3.13582C11.006 3.06044 11.1714 2.94995 11.3107 2.81066C11.4499 2.67137 11.5604 2.50601 11.6358 2.32403C11.7112 2.14204 11.75 1.94698 11.75 1.75C11.75 1.55302 11.7112 1.35796 11.6358 1.17597C11.5604 0.993986 11.4499 0.828628 11.3107 0.68934C11.1714 0.550052 11.006 0.439563 10.824 0.364181C10.642 0.288799 10.447 0.25 10.25 0.25Z" fill="#FFDA2D"/>
<path d="M10.25 3.5C9.3 3.5 8.5 2.7 8.5 1.75C8.5 0.8 9.3 0 10.25 0C11.2 0 12 0.8 12 1.75C12 2.7 11.2 3.5 10.25 3.5ZM10.25 0.5C9.55 0.5 9 1.05 9 1.75C9 2.45 9.55 3 10.25 3C10.95 3 11.5 2.45 11.5 1.75C11.5 1.05 10.95 0.5 10.25 0.5Z" fill="#806D16"/>
<path d="M2.85001 1.69922C2.45218 1.69922 2.07065 1.85725 1.78935 2.13856C1.50804 2.41986 1.35001 2.80139 1.35001 3.19922C1.35001 3.59704 1.50804 3.97857 1.78935 4.25988C2.07065 4.54118 2.45218 4.69922 2.85001 4.69922C3.24783 4.69922 3.62936 4.54118 3.91067 4.25988C4.19197 3.97857 4.35001 3.59704 4.35001 3.19922C4.35001 2.80139 4.19197 2.41986 3.91067 2.13856C3.62936 1.85725 3.24783 1.69922 2.85001 1.69922Z" fill="#FFDA2D"/>
<path d="M2.75 5C1.8 5 1 4.2 1 3.25C1 2.3 1.8 1.5 2.75 1.5C3.7 1.5 4.5 2.3 4.5 3.25C4.5 4.2 3.7 5 2.75 5ZM2.75 2C2.05 2 1.5 2.55 1.5 3.25C1.5 3.95 2.05 4.5 2.75 4.5C3.45 4.5 4 3.95 4 3.25C4 2.55 3.45 2 2.75 2ZM10 3.25H10.5V6H10V3.25Z" fill="#806D16"/>
<path d="M3.57721 4.43555L3.93076 4.08199L5.41571 5.56689L5.06216 5.92045L3.57721 4.43555Z" fill="#806D16"/>
<path d="M17.65 1.69922C17.2522 1.69922 16.8706 1.85725 16.5893 2.13856C16.308 2.41986 16.15 2.80139 16.15 3.19922C16.15 3.59704 16.308 3.97857 16.5893 4.25988C16.8706 4.54118 17.2522 4.69922 17.65 4.69922C18.0478 4.69922 18.4294 4.54118 18.7107 4.25988C18.992 3.97857 19.15 3.59704 19.15 3.19922C19.15 2.80139 18.992 2.41986 18.7107 2.13856C18.4294 1.85725 18.0478 1.69922 17.65 1.69922Z" fill="#FFDA2D"/>
<path d="M17.75 5C16.8 5 16 4.2 16 3.25C16 2.3 16.8 1.5 17.75 1.5C18.7 1.5 19.5 2.3 19.5 3.25C19.5 4.2 18.7 5 17.75 5ZM17.75 2C17.05 2 16.5 2.55 16.5 3.25C16.5 3.95 17.05 4.5 17.75 4.5C18.45 4.5 19 3.95 19 3.25C19 2.55 18.45 2 17.75 2Z" fill="#806D16"/>
<path d="M15.0769 5.56641L16.5618 4.08146L16.9153 4.435L15.4304 5.91995L15.0769 5.56641Z" fill="#806D16"/>
<path d="M10.25 16.75C9.85218 16.75 9.47064 16.908 9.18934 17.1893C8.90804 17.4706 8.75 17.8522 8.75 18.25C8.75 18.6478 8.90804 19.0294 9.18934 19.3107C9.47064 19.592 9.85218 19.75 10.25 19.75C10.6478 19.75 11.0294 19.592 11.3107 19.3107C11.592 19.0294 11.75 18.6478 11.75 18.25C11.75 17.8522 11.592 17.4706 11.3107 17.1893C11.0294 16.908 10.6478 16.75 10.25 16.75Z" fill="#FFDA2D"/>
<path d="M10.25 20C9.3 20 8.5 19.2 8.5 18.25C8.5 17.3 9.3 16.5 10.25 16.5C11.2 16.5 12 17.3 12 18.25C12 19.2 11.2 20 10.25 20ZM10.25 17C9.55 17 9 17.55 9 18.25C9 18.95 9.55 19.5 10.25 19.5C10.95 19.5 11.5 18.95 11.5 18.25C11.5 17.55 10.95 17 10.25 17Z" fill="#4788C7"/>
<path d="M17.65 15C17.2522 15 16.8706 15.158 16.5893 15.4393C16.308 15.7206 16.15 16.1022 16.15 16.5C16.15 16.8978 16.308 17.2794 16.5893 17.5607C16.8706 17.842 17.2522 18 17.65 18C18.0478 18 18.4294 17.842 18.7107 17.5607C18.992 17.2794 19.15 16.8978 19.15 16.5C19.15 16.1022 18.992 15.7206 18.7107 15.4393C18.4294 15.158 18.0478 15 17.65 15Z" fill="#FFDA2D"/>
<path d="M17.75 18.5C16.8 18.5 16 17.7 16 16.75C16 15.8 16.8 15 17.75 15C18.7 15 19.5 15.8 19.5 16.75C19.5 17.7 18.7 18.5 17.75 18.5ZM17.75 15.5C17.05 15.5 16.5 16.05 16.5 16.75C16.5 17.45 17.05 18 17.75 18C18.45 18 19 17.45 19 16.75C19 16.05 18.45 15.5 17.75 15.5ZM10 14H10.5V16.75H10V14Z" fill="#806D16"/>
<path d="M15.0807 14.4336L15.4343 14.08L16.9192 15.5649L16.5657 15.9185L15.0807 14.4336Z" fill="#806D16"/>
<path d="M2.75 15.25C2.35218 15.25 1.97064 15.408 1.68934 15.6893C1.40804 15.9706 1.25 16.3522 1.25 16.75C1.25 17.1478 1.40804 17.5294 1.68934 17.8107C1.97064 18.092 2.35218 18.25 2.75 18.25C3.14782 18.25 3.52936 18.092 3.81066 17.8107C4.09196 17.5294 4.25 17.1478 4.25 16.75C4.25 16.3522 4.09196 15.9706 3.81066 15.6893C3.52936 15.408 3.14782 15.25 2.75 15.25Z" fill="#FFDA2D"/>
<path d="M2.75 18.5C1.8 18.5 1 17.7 1 16.75C1 15.8 1.8 15 2.75 15C3.7 15 4.5 15.8 4.5 16.75C4.5 17.7 3.7 18.5 2.75 18.5ZM2.75 15.5C2.05 15.5 1.5 16.05 1.5 16.75C1.5 17.45 2.05 18 2.75 18C3.45 18 4 17.45 4 16.75C4 16.05 3.45 15.5 2.75 15.5Z" fill="#806D16"/>
<path d="M3.58078 15.5664L5.06568 14.0815L5.41924 14.435L3.93434 15.92L3.58078 15.5664Z" fill="#806D16"/>
<path d="M5.25 5.75H15.25V14.25H5.25V5.75Z" fill="#FFFBEA"/>
<path d="M15.5 14.5H5V5.5H15.5V14.5ZM5.5 14H15V6H5.5V14Z" fill="#806D16"/>
<path d="M11.25 7.5H9.25C9.1 7.5 9 7.4 9 7.25C9 7.1 9.1 7 9.25 7H11.25C11.4 7 11.5 7.1 11.5 7.25C11.5 7.4 11.4 7.5 11.25 7.5Z" fill="#FFDA2D"/>
</svg>
