<svg width="20" height="20" viewBox="0 0 20 20" fill="none" xmlns="http://www.w3.org/2000/svg">
<path d="M18.745 19.195C18.6785 19.195 18.608 19.1895 18.534 19.1795C17.5955 19.048 16.583 18.734 15.606 18.272L15.5095 18.2265L15.41 18.2645C14.565 18.5865 13.67 18.75 12.75 18.75C9.166 18.75 6.25 16.2825 6.25 13.25C6.25 10.2175 9.166 7.75 12.75 7.75C16.334 7.75 19.25 10.2175 19.25 13.25C19.25 14.515 18.729 15.7505 17.7825 16.7295L17.6615 16.855L17.737 17.0115C17.8895 17.3285 18.0495 17.646 18.2205 17.959C18.3565 18.2075 18.5715 18.4085 18.761 18.5865C19.145 18.9465 19.1505 19.0085 19.0685 19.1065C19.0215 19.1625 18.9035 19.195 18.745 19.195Z" fill="#FFDA2D"/>
<path d="M12.75 8C16.1965 8 19 10.355 19 13.25C19 14.45 18.504 15.624 17.603 16.5555L17.361 16.806L17.512 17.12C17.6825 17.475 17.843 17.7885 18.002 18.079C18.157 18.3625 18.387 18.5785 18.59 18.7685C18.645 18.82 18.7155 18.886 18.7725 18.945C18.764 18.9455 18.7545 18.9455 18.745 18.9455C18.692 18.9455 18.633 18.941 18.569 18.932C17.6555 18.804 16.668 18.4975 15.7125 18.046L15.52 17.955L15.321 18.031C14.5035 18.342 13.6385 18.5 12.75 18.5C9.3035 18.5 6.5 16.145 6.5 13.25C6.5 10.355 9.3035 8 12.75 8ZM12.75 7.5C9.022 7.5 6 10.0745 6 13.25C6 16.4255 9.022 19 12.75 19C13.73 19 14.6585 18.818 15.499 18.498C16.452 18.9485 17.492 19.286 18.4995 19.427C18.5855 19.439 18.6675 19.4455 18.745 19.4455C18.9725 19.4455 19.157 19.391 19.2605 19.2665C19.6685 18.777 18.761 18.425 18.44 17.8385C18.271 17.5295 18.113 17.216 17.962 16.903C18.923 15.91 19.5 14.6375 19.5 13.25C19.5 10.0745 16.478 7.5 12.75 7.5Z" fill="#806D16"/>
<path d="M1.0025 12.23C1.431 11.6055 1.8535 10.862 2.263 10.0115L2.3385 9.855L2.2175 9.7295C1.271 8.7505 0.75 7.5145 0.75 6.25C0.75 3.2175 3.666 0.75 7.25 0.75C10.834 0.75 13.75 3.2175 13.75 6.25C13.75 9.2825 10.834 11.75 7.25 11.75C6.3305 11.75 5.435 11.5865 4.5885 11.264L4.489 11.226L4.3925 11.2715C3.2435 11.8145 2.0595 12.1475 1.0025 12.23Z" fill="#FFFBEA"/>
<path d="M7.25 1C10.6965 1 13.5 3.355 13.5 6.25C13.5 9.145 10.6965 11.5 7.25 11.5C6.361 11.5 5.4955 11.342 4.6775 11.0305L4.4785 10.9545L4.286 11.0455C3.35 11.488 2.392 11.7875 1.5045 11.921C1.8385 11.3885 2.1675 10.7865 2.4885 10.12L2.6395 9.806L2.3975 9.5555C1.496 8.624 1 7.45 1 6.25C1 3.355 3.8035 1 7.25 1ZM7.25 0.5C3.522 0.5 0.5 3.0745 0.5 6.25C0.5 7.6375 1.077 8.91 2.0375 9.903C1.6005 10.8115 1.088 11.7255 0.5 12.5C1.7975 12.5 3.2265 12.099 4.4995 11.4975C5.34 11.818 6.2695 12 7.25 12C10.978 12 14 9.4255 14 6.25C14 3.0745 10.978 0.5 7.25 0.5Z" fill="#806D16"/>
<path d="M1.75 1.75L18.9165 18.9165" stroke="#806D16" stroke-miterlimit="10" stroke-linecap="round"/>
</svg>
