<svg width="20" height="20" viewBox="0 0 20 20" fill="none" xmlns="http://www.w3.org/2000/svg">
<path d="M3.18168 18.75C2.94368 18.75 2.75018 18.552 2.75018 18.3075V1.6925C2.75018 1.448 2.94418 1.25 3.18168 1.25H8.27018C8.25668 1.334 8.25018 1.417 8.25018 1.5C8.25018 2.465 9.03518 3.25 10.0002 3.25C10.9652 3.25 11.7502 2.465 11.7502 1.5C11.7502 1.417 11.7437 1.334 11.7302 1.25H16.8187C17.0567 1.25 17.2502 1.448 17.2502 1.6925V18.3075C17.2502 18.5515 17.0562 18.75 16.8187 18.75H3.18168Z" fill="#EF9AA3"/>
<path d="M16.818 1.5C16.9185 1.5 17 1.5865 17 1.6925V18.308C17 18.4135 16.9185 18.5 16.818 18.5H3.182C3.0815 18.5 3 18.4135 3 18.3075V1.6925C3 1.5865 3.0815 1.5 3.182 1.5H8C8 2.603 8.897 3.5 10 3.5C11.103 3.5 12 2.603 12 1.5H16.818ZM16.818 1H11.408C11.464 1.157 11.5 1.3235 11.5 1.5C11.5 2.3285 10.8285 3 10 3C9.1715 3 8.5 2.3285 8.5 1.5C8.5 1.3235 8.536 1.157 8.592 1H3.182C2.8055 1 2.5 1.31 2.5 1.6925V18.308C2.5 18.69 2.8055 19 3.182 19H16.8185C17.1945 19 17.5 18.69 17.5 18.3075V1.6925C17.5 1.31 17.1945 1 16.818 1Z" fill="#59141C"/>
<path d="M4.00018 2.5H16.0002V17.5H4.00018V2.5Z" fill="#FCEAED"/>
<path d="M9.99982 0.5C10.5513 0.5 10.9998 0.9485 10.9998 1.5C10.9998 2.0515 10.5513 2.5 9.99982 2.5C9.44832 2.5 8.99982 2.0515 8.99982 1.5C8.99982 0.9485 9.44832 0.5 9.99982 0.5ZM9.99982 0C9.17132 0 8.49982 0.6715 8.49982 1.5C8.49982 2.3285 9.17132 3 9.99982 3C10.8283 3 11.4998 2.3285 11.4998 1.5C11.4998 0.6715 10.8283 0 9.99982 0Z" fill="#59141C"/>
<path d="M7.50037 3.75C7.08687 3.75 6.75037 3.4135 6.75037 3V1.25H8.76837L8.78737 1.197C8.76287 1.294 8.75037 1.3955 8.75037 1.5C8.75037 2.1895 9.31087 2.75 10.0004 2.75C10.6899 2.75 11.2504 2.1895 11.2504 1.5C11.2504 1.3955 11.2379 1.294 11.2134 1.197L11.2324 1.25H13.2504V3C13.2504 3.4135 12.9139 3.75 12.5004 3.75H7.50037ZM9.99837 0.25C9.99937 0.25 10.0014 0.25 10.0024 0.25C10.0014 0.25 9.99937 0.25 9.99837 0.25Z" fill="#EF9AA3"/>
<path d="M13.0002 1.5V3C13.0002 3.2755 12.7757 3.5 12.5002 3.5H7.50018C7.22468 3.5 7.00018 3.2755 7.00018 3V1.5H8.50018C8.50018 2.327 9.17318 3 10.0002 3C10.8272 3 11.5002 2.327 11.5002 1.5H13.0002ZM10.0002 0C9.34818 0 8.79868 0.4185 8.59218 1H6.50018V3C6.50018 3.5525 6.94768 4 7.50018 4H12.5002C13.0527 4 13.5002 3.5525 13.5002 3V1H11.4082C11.2017 0.4185 10.6522 0 10.0002 0ZM10.0002 2.5C9.44868 2.5 9.00018 2.0515 9.00018 1.5C9.00018 0.9485 9.44868 0.5 10.0002 0.5C10.5517 0.5 11.0002 0.9485 11.0002 1.5C11.0002 2.0515 10.5517 2.5 10.0002 2.5Z" fill="#59141C"/>
<path d="M11.25 8.25L12.1875 9.1875L14.25 7.25M11.75 11.75L13.75 13.75L11.75 11.75ZM13.75 11.75L11.75 13.75L13.75 11.75Z" stroke="#59141C" stroke-width="0.5" stroke-miterlimit="10" stroke-linecap="round"/>
<path d="M9.74982 8.5H6.24982C6.11232 8.5 5.99982 8.3875 5.99982 8.25C5.99982 8.1125 6.11232 8 6.24982 8H9.74982C9.88732 8 9.99982 8.1125 9.99982 8.25C9.99982 8.3875 9.88732 8.5 9.74982 8.5Z" fill="#EF9AA3"/>
<path d="M9.74982 8H6.24982C6.11232 8 5.99982 8.1125 5.99982 8.25C5.99982 8.3875 6.11232 8.5 6.24982 8.5H9.74982C9.88732 8.5 9.99982 8.3875 9.99982 8.25C9.99982 8.1125 9.88732 8 9.74982 8Z" fill="#59141C"/>
<path d="M9.74982 13H6.24982C6.11232 13 5.99982 12.8875 5.99982 12.75C5.99982 12.6125 6.11232 12.5 6.24982 12.5H9.74982C9.88732 12.5 9.99982 12.6125 9.99982 12.75C9.99982 12.8875 9.88732 13 9.74982 13Z" fill="#EF9AA3"/>
<path d="M9.74982 12.5H6.24982C6.11232 12.5 5.99982 12.6125 5.99982 12.75C5.99982 12.8875 6.11232 13 6.24982 13H9.74982C9.88732 13 9.99982 12.8875 9.99982 12.75C9.99982 12.6125 9.88732 12.5 9.74982 12.5Z" fill="#59141C"/>
</svg>
