<svg width="20" height="20" viewBox="0 0 20 20" fill="none" xmlns="http://www.w3.org/2000/svg">
<path d="M1.25 1.75H18.75V18.25H1.25V1.75Z" fill="#FFFBEA"/>
<path d="M18.4998 2V18H1.49982V2H18.4998ZM18.9998 1.5H0.999817V18.5H18.9998V1.5Z" fill="#806D16"/>
<path d="M1.50018 2H18.5002V4.5H1.50018V2Z" fill="#FFDA2D"/>
<path d="M8.39318 13.25C9.45068 13.25 10.0002 12.2425 10.0002 11M10.0002 11C10.0002 9.7575 9.40468 8.75 8.39318 8.75M10.0002 11C10.0002 12.2425 10.5497 13.25 11.6072 13.25M10.0002 11C10.0002 9.7575 10.5957 8.75 11.6072 8.75M14.2367 14.25C14.5627 13.2735 14.7502 12.171 14.7502 11C14.7502 9.829 14.5627 8.7265 14.2367 7.75M5.76368 7.75C5.43768 8.7265 5.25018 9.829 5.25018 11C5.25018 12.171 5.43768 13.2735 5.76368 14.25" stroke="#806D16" stroke-width="0.5" stroke-miterlimit="10" stroke-linecap="round"/>
</svg>
