<?xml version="1.0" encoding="UTF-8"?>
<svg width="11px" height="11px" viewBox="0 0 11 11" version="1.1" xmlns="http://www.w3.org/2000/svg" xmlns:xlink="http://www.w3.org/1999/xlink">
    <!-- Generator: Sketch 53.2 (72643) - https://sketchapp.com -->
    <title>return-green</title>
    <desc>Created with Sketch.</desc>
    <g id="Page-1" stroke="none" stroke-width="1" fill="none" fill-rule="evenodd">
        <g id="return-green" transform="translate(-1.000000, -1.000000)" fill="#009DAB" fill-rule="nonzero">
            <path d="M11.285714,1.85714255 L11.285714,4.85714255 C11.285714,4.97321456 11.2433037,5.07365998 11.1584818,5.15848183 C11.07366,5.24330369 10.9732146,5.28571398 10.8571426,5.28571398 L7.85714257,5.28571398 C7.66964163,5.28571398 7.53794652,5.19642915 7.46205328,5.01785683 C7.38616004,4.84374882 7.41740973,4.6897325 7.55580328,4.55580326 L8.47991042,3.63169612 C7.81919284,3.02008592 7.04018277,2.7142854 6.14285685,2.7142854 C5.67856882,2.7142854 5.23549289,2.80468629 4.81361578,2.98549076 C4.39173867,3.16629524 4.02678696,3.41071244 3.71874971,3.71874969 C3.41071246,4.02678694 3.16629526,4.39173865 2.98549078,4.81361576 C2.80468631,5.23549287 2.71428542,5.6785688 2.71428542,6.14285683 C2.71428542,6.60714487 2.80468631,7.05022079 2.98549078,7.4720979 C3.16629526,7.89397501 3.41071246,8.25892672 3.71874971,8.56696398 C4.02678696,8.87500123 4.39173867,9.11941843 4.81361578,9.3002229 C5.23549289,9.48102738 5.67856882,9.57142826 6.14285685,9.57142826 C6.67410951,9.57142826 7.17633663,9.45535799 7.64955328,9.22321398 C8.12276993,8.99106996 8.52231951,8.66294824 8.848214,8.23883898 C8.87946415,8.1941959 8.93080292,8.16741045 9.00223185,8.15848183 C9.06919647,8.15848183 9.12499949,8.17857092 9.16964257,8.21874969 L10.0870533,9.14285683 C10.127232,9.1785713 10.1484372,9.22432977 10.1506693,9.28013362 C10.1529015,9.33593747 10.1361606,9.38616018 10.1004461,9.43080326 C9.61383656,10.0200919 9.02455674,10.4765606 8.332589,10.8002229 C7.64062125,11.1238852 6.91071784,11.285714 6.14285685,11.285714 C5.4464248,11.285714 4.78125288,11.1495546 4.14732114,10.8772318 C3.5133894,10.604909 2.96651987,10.2388413 2.50669614,9.77901755 C2.04687241,9.31919382 1.68080464,8.77232429 1.40848185,8.13839255 C1.13615906,7.50446081 0.999999708,6.83928889 0.999999708,6.14285683 C0.999999708,5.44642478 1.13615906,4.78125286 1.40848185,4.14732112 C1.68080464,3.51338938 2.04687241,2.96651985 2.50669614,2.50669612 C2.96651987,2.04687239 3.5133894,1.68080463 4.14732114,1.40848184 C4.78125288,1.13615905 5.4464248,0.999999692 6.14285685,0.999999692 C6.79911013,0.999999692 7.43414843,1.12388238 8.04799078,1.37165148 C8.66183314,1.61942057 9.20758661,1.96874744 9.68526757,2.41964255 L10.5558033,1.55580326 C10.6852682,1.41740971 10.8415166,1.38616003 11.0245533,1.46205326 C11.1986613,1.5379465 11.285714,1.66964161 11.285714,1.85714255 Z" id="refreshIconGreen" transform="translate(6.142857, 6.142857) scale(-1, 1) rotate(-93.000000) translate(-6.142857, -6.142857) "></path>
        </g>
    </g>
</svg>