<?xml version="1.0" encoding="UTF-8"?>
<svg width="30px" height="30px" viewBox="0 0 30 30" version="1.1" xmlns="http://www.w3.org/2000/svg" xmlns:xlink="http://www.w3.org/1999/xlink">
    <!-- Generator: Sketch 48.2 (47327) - http://www.bohemiancoding.com/sketch -->
    <title>Group 5</title>
    <desc>Created with Sketch.</desc>
    <defs></defs>
    <g id="//-2-other-icons" stroke="none" stroke-width="1" fill="none" fill-rule="evenodd" transform="translate(-997.000000, -301.000000)">
        <g id="Group-5" transform="translate(997.000000, 301.000000)">
            <circle id="Oval-1-Copy" fill="#E5E8EC" cx="15" cy="15" r="15"></circle>
            <g id="Group-6" transform="translate(9.000000, 8.000000)">
                <path d="M6,15 C6,15 12,12 12,7.5 L12,1.5 L6,0 L0,1.5 L0,7.5 C0,12 6,15 6,15 Z" id="Shape-Copy-3" stroke="#8A959F" stroke-width="2" stroke-linecap="round" stroke-linejoin="round"></path>
                <path d="M10,6.10018904 C10,6.17412345 9.95833375,6.25477797 9.875,6.34215501 L8.12980769,8.12665406 L8.54326923,10.647133 C8.54647438,10.6706575 8.54807692,10.7042636 8.54807692,10.7479521 C8.54807692,10.8185259 8.53125017,10.8781766 8.49759615,10.9269061 C8.46394214,10.9756356 8.41506442,11 8.35096154,11 C8.2900638,11 8.22596187,10.9798364 8.15865385,10.9395085 L6,9.74984247 L3.84134615,10.9395085 C3.77083298,10.9798364 3.70673106,11 3.64903846,11 C3.58173043,11 3.53125017,10.9756356 3.49759615,10.9269061 C3.46394214,10.8781766 3.44711538,10.8185259 3.44711538,10.7479521 C3.44711538,10.7277882 3.45032048,10.6941821 3.45673077,10.647133 L3.87019231,8.12665406 L2.12019231,6.34215501 C2.0400637,6.25141732 2,6.1707628 2,6.10018904 C2,5.97584479 2.08974269,5.89855088 2.26923077,5.86830498 L4.68269231,5.50031506 L5.76442308,3.20667927 C5.82532082,3.0688924 5.90384567,3 6,3 C6.09615433,3 6.17467918,3.0688924 6.23557692,3.20667927 L7.31730769,5.50031506 L9.73076923,5.86830498 C9.91025731,5.89855088 10,5.97584479 10,6.10018904 Z" id="-copy" fill="#8A959F"></path>
            </g>
        </g>
    </g>
</svg>