<?xml version="1.0" encoding="UTF-8"?>
<svg width="16px" height="16px" viewBox="0 0 16 16" version="1.1" xmlns="http://www.w3.org/2000/svg" xmlns:xlink="http://www.w3.org/1999/xlink">
    <!-- Generator: Sketch 47.1 (45422) - http://www.bohemiancoding.com/sketch -->
    <title>Group 34</title>
    <desc>Created with Sketch.</desc>
    <defs></defs>
    <g id="Universal-Bot---Apps" stroke="none" stroke-width="1" fill="none" fill-rule="evenodd">
        <g id="01f01-Universal-Bot---Apps-" transform="translate(-21.000000, -218.000000)">
            <g id="Group-8">
                <g id="Left-Menu">
                    <g id="Group-34" transform="translate(22.000000, 219.000000)">
                        <path d="M5,10.9928292 L7,13.9908735 L9,10.9928292 L13,10.9928292 C13.553,10.9928292 14,10.5461206 14,9.9934811 L14,0.99934811 C14,0.446708605 13.553,0 13,0 L1,0 C0.447,0 0,0.446708605 0,0.99934811 L0,9.9934811 C0,10.5461206 0.447,10.9928292 1,10.9928292 L5,10.9928292 Z" id="Stroke-262" stroke="#FFFFFF" stroke-width="2" stroke-linecap="round" stroke-linejoin="round"></path>
                        <path d="M5,10.9928292 L7,13.9908735 L9,10.9928292 L13,10.9928292 C13.553,10.9928292 14,10.5461206 14,9.9934811 L14,0.99934811 C14,0.446708605 13.553,0 13,0 L1,0 C0.447,0 0,0.446708605 0,0.99934811 L0,9.9934811 C0,10.5461206 0.447,10.9928292 1,10.9928292 L5,10.9928292 Z" id="Stroke-263" stroke="#FFFFFF" stroke-width="2" stroke-linecap="round" stroke-linejoin="round"></path>
                        <path d="M5,4.99934811 C5,5.55198761 4.553,5.99869622 4,5.99869622 C3.447,5.99869622 3,5.55198761 3,4.99934811 C3,4.4467086 3.447,4 4,4 C4.553,4 5,4.4467086 5,4.99934811" id="Fill-264" fill="#FFFFFF"></path>
                        <path d="M8,4.99934811 C8,5.55198761 7.553,5.99869622 7,5.99869622 C6.447,5.99869622 6,5.55198761 6,4.99934811 C6,4.4467086 6.447,4 7,4 C7.553,4 8,4.4467086 8,4.99934811" id="Fill-265" fill="#FFFFFF"></path>
                        <path d="M11,4.99934811 C11,5.55198761 10.553,5.99869622 10,5.99869622 C9.447,5.99869622 9,5.55198761 9,4.99934811 C9,4.4467086 9.447,4 10,4 C10.553,4 11,4.4467086 11,4.99934811" id="Fill-266" fill="#FFFFFF"></path>
                    </g>
                </g>
            </g>
        </g>
    </g>
</svg>