<?xml version="1.0" encoding="UTF-8"?>
<svg width="30px" height="24px" viewBox="0 0 30 24" version="1.1" xmlns="http://www.w3.org/2000/svg" xmlns:xlink="http://www.w3.org/1999/xlink">
    <!-- Generator: Sketch 52.3 (67297) - http://www.bohemiancoding.com/sketch -->
    <title>chatIcon</title>
    <desc>Created with Sketch.</desc>
    <g id="Page-1" stroke="none" stroke-width="1" fill="none" fill-rule="evenodd">
        <g id="chatIcon" transform="translate(1.000000, 1.000000)">
            <g id="Group" fill="#FFFFFF">
                <path d="M6.429,14.143 L9,18 L11.571,14.143 L16.714,14.143 C17.425,14.143 18,13.568 18,12.857 L18,1.286 C18,0.575 17.425,0 16.714,0 L1.286,0 C0.575,0 0,0.575 0,1.286 L0,12.857 C0,13.568 0.575,14.143 1.286,14.143 L6.429,14.143 Z" id="Path" stroke="#FFFFFF" stroke-width="2" fill-opacity="0.135" stroke-linecap="round" stroke-linejoin="round"></path>
                <path d="M6.571,7.286 C6.571,7.99596205 5.99546205,8.5715 5.2855,8.5715 C4.57553795,8.5715 4,7.99596205 4,7.286 C4,6.57603795 4.57553795,6.0005 5.2855,6.0005 C5.99546205,6.0005 6.571,6.57603795 6.571,7.286 M10.571,7.286 C10.571,7.99596205 9.99546205,8.5715 9.2855,8.5715 C8.57553795,8.5715 8,7.99596205 8,7.286 C7.99999999,6.82673508 8.2450149,6.40235678 8.64274999,6.17272431 C9.04048508,5.94309185 9.53051492,5.94309185 9.92825001,6.17272431 C10.3259851,6.40235678 10.571,6.82673508 10.571,7.286 M14.571,7.286 C14.571,7.99596205 13.995462,8.5715 13.2855,8.5715 C12.575538,8.5715 12,7.99596205 12,7.286 C12,6.57603795 12.575538,6.0005 13.2855,6.0005 C13.995462,6.0005 14.571,6.57603795 14.571,7.286 M24.571,11.286 C24.571,11.995962 23.995462,12.5715 23.2855,12.5715 C22.575538,12.5715 22,11.995962 22,11.286 C22,10.576038 22.575538,10.0005 23.2855,10.0005 C23.995462,10.0005 24.571,10.576038 24.571,11.286" id="Shape" fill-rule="nonzero"></path>
            </g>
            <path d="M13.615,18.143 L16.429,18.143 L19,22 L21.571,18.143 L26.714,18.143 C27.425,18.143 28,17.568 28,16.857 L28,5.286 C28,4.575 27.425,4 26.714,4 L22.228,4" id="Path" stroke-opacity="0.581606658" stroke="#FFFFFF" stroke-width="2" stroke-linecap="round" stroke-linejoin="round"></path>
        </g>
    </g>
</svg>