<svg width="20" height="20" viewBox="0 0 20 20" fill="none" xmlns="http://www.w3.org/2000/svg">
<path d="M10.4492 0.5C5.20237 0.5 0.949219 4.75315 0.949219 10C0.949219 14.2213 3.70469 17.7952 7.51372 19.0326H13.3847C17.1937 17.7952 19.9492 14.2213 19.9492 10C19.9492 4.75315 15.6961 0.5 10.4492 0.5Z" fill="url(#paint0_linear_2492_31172)"/>
<path opacity="0.05" d="M13.7774 18.5481L13.7726 15.794C13.7726 15.348 13.6681 14.9124 13.4677 14.5177C16.1471 13.9795 17.451 12.3954 17.451 9.68362C17.451 8.6125 17.1351 7.66677 16.5124 6.87162C16.5599 6.72105 16.5951 6.56525 16.6169 6.40565C16.7062 5.75538 16.606 5.33025 16.5252 4.98825L16.5124 4.93315C16.4241 4.55505 16.3181 4.28525 16.3139 4.27385L16.2611 4.1399L16.2084 4.00595L16.065 3.99075L15.921 3.97555C15.921 3.97555 15.8265 3.96558 15.6831 3.96558C15.484 3.96558 15.1891 3.98553 14.9102 4.08005L14.8171 4.1114C14.4656 4.22968 14.1336 4.34178 13.6691 4.61918C13.5332 4.7004 13.3845 4.79303 13.2254 4.89658C12.5063 4.71845 11.7325 4.62773 10.9226 4.62773C10.1047 4.62773 9.32423 4.71893 8.60033 4.89895C8.43931 4.79445 8.28968 4.70088 8.15288 4.61918C7.68833 4.34178 7.35631 4.23015 7.00481 4.1114L6.91171 4.08005C6.63383 3.98553 6.33838 3.96558 6.13936 3.96558C5.99591 3.96558 5.90138 3.97555 5.90138 3.97555L5.75793 3.99075L5.61543 4.00548L5.56223 4.13895L5.50856 4.27338C5.50381 4.28573 5.39788 4.55553 5.30953 4.9341L5.29671 4.98873C5.21596 5.33025 5.11573 5.75585 5.20503 6.40565C5.22783 6.57 5.26441 6.73103 5.31428 6.88588C4.7039 7.67723 4.39468 8.61772 4.39468 9.68362C4.39468 12.3887 5.69998 13.9719 8.38326 14.5144C8.2911 14.6987 8.21938 14.8934 8.16856 15.0958C8.07498 15.1276 7.98901 15.149 7.913 15.1608C7.79995 15.1779 7.68168 15.1865 7.56198 15.1865C7.23613 15.1865 6.98011 15.1228 6.88036 15.0635C6.73168 14.9751 6.46616 14.7181 6.20871 14.3424C5.98878 14.0218 5.64583 13.6024 5.2625 13.4271C4.93095 13.2756 4.57993 13.1886 4.29873 13.1886C4.23318 13.1886 4.17285 13.1934 4.12013 13.2019C3.87455 13.2409 3.66935 13.3758 3.55773 13.5724C3.4613 13.742 3.4461 13.9396 3.51593 14.1144C3.61995 14.3747 3.92015 14.5823 4.15385 14.7105C4.2688 14.7737 4.51723 15.0046 4.6621 15.2373C4.77088 15.4121 4.82123 15.5366 4.89106 15.7085C4.93238 15.8106 4.97798 15.9218 5.03973 16.0562C5.26298 16.5417 5.95981 16.9701 6.03866 17.0171C6.42151 17.2466 7.06513 17.3202 7.53823 17.3416L7.59665 17.343H7.59713C7.71113 17.343 7.86788 17.3321 8.07403 17.3093V18.5504C8.07498 18.8017 7.81896 18.8587 7.48028 18.8535L7.7401 18.9409C8.73523 19.2967 9.80398 19.5 10.9226 19.5C12.0412 19.5 13.11 19.2967 14.1065 18.9414L14.4405 18.8169C14.1027 18.8055 13.7802 18.7504 13.7774 18.5481Z" fill="black"/>
<path opacity="0.07" d="M14.1457 18.9282C13.9529 18.9505 13.5373 18.8764 13.5373 18.5505V15.7936C13.5373 15.274 13.3815 14.7719 13.0927 14.3439C15.9023 13.8894 17.2152 12.3998 17.2152 9.68325C17.2152 8.62067 16.8893 7.6911 16.2467 6.9178C16.3117 6.74442 16.3573 6.56155 16.3835 6.37297C16.4666 5.76687 16.3759 5.38212 16.2961 5.0425L16.2832 4.9874C16.1987 4.62592 16.0989 4.37132 16.0947 4.36087L16.0419 4.22692L15.898 4.21172C15.898 4.21172 15.8135 4.2027 15.6847 4.2027C15.5038 4.2027 15.2363 4.22027 14.9884 4.30482L14.8953 4.33617C14.5561 4.45065 14.2355 4.55847 13.7928 4.82257C13.6351 4.91662 13.4594 5.0273 13.2698 5.15222C12.5417 4.96175 11.7536 4.86485 10.9248 4.86485C10.0878 4.86485 9.29314 4.96222 8.55974 5.1546C8.36831 5.02872 8.19161 4.91757 8.03296 4.82257C7.59026 4.55847 7.26964 4.45017 6.93049 4.33617L6.83739 4.30482C6.58991 4.22075 6.32201 4.2027 6.14104 4.2027C6.01231 4.2027 5.92776 4.21172 5.92776 4.21172L5.78431 4.22692L5.73064 4.36135C5.72636 4.3718 5.62661 4.6264 5.54206 4.98787L5.52924 5.04297C5.44896 5.3826 5.35824 5.76687 5.44184 6.37297C5.46844 6.5663 5.51594 6.75345 5.58339 6.93062C4.95306 7.70012 4.63386 8.62495 4.63386 9.68325C4.63386 12.3922 5.94771 13.8813 8.75971 14.3411C8.57209 14.6213 8.44099 14.9372 8.37354 15.274C8.21679 15.3357 8.07476 15.3766 7.95031 15.3956C7.82539 15.4146 7.69524 15.4241 7.56366 15.4241C7.23591 15.4241 6.92099 15.3628 6.76091 15.2678C6.55191 15.1438 6.25884 14.8337 6.01421 14.4769C5.84796 14.2347 5.51689 13.8039 5.16491 13.6433C4.86329 13.5056 4.54836 13.4262 4.29994 13.4262C4.24769 13.4262 4.20019 13.43 4.15839 13.4367C3.98454 13.4642 3.84109 13.5564 3.76509 13.6903C3.70429 13.7967 3.69431 13.9198 3.73706 14.0266C3.82209 14.2394 4.13701 14.4304 4.26859 14.5026C4.42771 14.59 4.70511 14.856 4.86424 15.1125C4.98346 15.3044 5.03999 15.4436 5.11171 15.6193C5.15209 15.7186 5.19626 15.8269 5.25611 15.9575C5.41334 16.299 5.89879 16.6567 6.16099 16.8139C6.51914 17.0286 7.18414 17.0885 7.54894 17.1046L7.60166 17.1056C7.74369 17.1056 7.98166 17.0842 8.31179 17.0415V18.5505C8.31179 18.9206 7.84106 18.9353 7.72564 18.9353C7.71091 18.9353 7.96456 19.0227 7.96456 19.0227C8.89699 19.3286 9.89021 19.4996 10.9248 19.4996C11.9593 19.4996 12.9525 19.3286 13.8845 19.0232C13.8845 19.0232 14.1605 18.9263 14.1457 18.9282Z" fill="black"/>
<path d="M16.5011 9.6839C16.5011 8.58665 16.1297 7.67655 15.4956 6.9631C15.5644 6.80873 15.6362 6.60163 15.6718 6.34133C15.7535 5.74758 15.6571 5.39133 15.5754 5.04268C15.4937 4.69403 15.3972 4.44893 15.3972 4.44893C15.3972 4.44893 14.9593 4.40428 14.5883 4.53063C14.2173 4.65698 13.8981 4.7534 13.4379 5.02795C13.2227 5.1562 13.0061 5.2968 12.8346 5.4108C12.1017 5.2075 11.2956 5.103 10.4477 5.103C9.59225 5.103 8.77905 5.20798 8.0409 5.4127C7.86895 5.29823 7.65093 5.15668 7.43433 5.02748C6.97405 4.75293 6.65485 4.6565 6.28388 4.53015C5.9129 4.4038 5.47495 4.44845 5.47495 4.44845C5.47495 4.44845 5.37853 4.69355 5.29683 5.0422C5.21513 5.39085 5.1187 5.7471 5.2004 6.34085C5.23698 6.6078 5.31108 6.8187 5.38185 6.97403C4.7596 7.6832 4.3948 8.5876 4.3948 9.68343C4.3948 12.5254 5.93 13.8226 8.72728 14.1651C8.40095 14.5099 8.18198 14.9516 8.10835 15.4433C7.92453 15.524 7.71268 15.6 7.5089 15.6304C6.9845 15.7097 6.43018 15.6304 6.16323 15.4722C5.89628 15.3141 5.57945 14.9578 5.34195 14.6111C5.1415 14.3185 4.85223 13.9789 4.59003 13.8591C4.24375 13.701 3.90698 13.6416 3.71935 13.6711C3.53125 13.701 3.44243 13.8392 3.48185 13.9385C3.52128 14.0373 3.70938 14.186 3.90745 14.2947C4.10553 14.4035 4.41238 14.7004 4.5905 14.9873C4.78905 15.3074 4.828 15.4922 4.99615 15.8579C5.11443 16.1154 5.51913 16.437 5.80745 16.6099C6.05493 16.7585 6.5494 16.8431 7.08425 16.8673C7.26903 16.8759 7.70555 16.8217 8.07368 16.7695V18.5507C8.07368 18.8542 7.7958 19.0851 7.50795 19.0319C8.43183 19.3425 9.4184 19.5002 10.4477 19.5002C11.4766 19.5002 12.4632 19.3425 13.388 19.0328C13.1006 19.0856 12.8227 18.8547 12.8227 18.5512V15.7943C12.8227 15.163 12.5724 14.5925 12.1706 14.1674C14.9474 13.834 16.5011 12.5676 16.5011 9.6839ZM4.38625 14.1456C4.3131 14.1081 4.27368 14.0387 4.29838 13.9898C4.32308 13.9408 4.40288 13.9318 4.47603 13.9693C4.54918 14.0069 4.5886 14.0762 4.5639 14.1251C4.5392 14.1741 4.4594 14.1831 4.38625 14.1456ZM4.96195 14.5042C4.92348 14.546 4.84083 14.5327 4.77718 14.4747C4.71353 14.4168 4.6931 14.3356 4.73158 14.2938C4.77005 14.252 4.8527 14.2653 4.91635 14.3232C4.98 14.3812 5.00043 14.4624 4.96195 14.5042ZM5.3201 15.0979C5.27165 15.1321 5.18948 15.1003 5.13675 15.0267C5.08403 14.9531 5.0807 14.8652 5.12915 14.831C5.1776 14.7968 5.25978 14.8286 5.3125 14.9022C5.36475 14.9759 5.36855 15.0637 5.3201 15.0979ZM5.83453 15.5449C5.80175 15.5981 5.70865 15.6005 5.62695 15.5506C5.54525 15.5007 5.50535 15.4171 5.53813 15.3639C5.5709 15.3107 5.664 15.3084 5.7457 15.3582C5.8274 15.4081 5.8673 15.4917 5.83453 15.5449ZM6.32093 15.9824C6.21975 15.97 6.1447 15.9069 6.15325 15.8413C6.16133 15.7758 6.25015 15.733 6.35085 15.7454C6.45203 15.7577 6.52708 15.8209 6.51853 15.8864C6.51045 15.9515 6.4221 15.9948 6.32093 15.9824ZM7.10515 16.0959C6.99733 16.0897 6.91325 16.028 6.91753 15.9586C6.9218 15.8893 7.01253 15.8375 7.12035 15.8437C7.22818 15.8499 7.31225 15.9116 7.30798 15.981C7.3037 16.0508 7.21298 16.1021 7.10515 16.0959ZM7.8452 16.0218C7.73025 16.0218 7.63715 15.962 7.63715 15.8883C7.63715 15.8147 7.73025 15.7549 7.8452 15.7549C7.96015 15.7549 8.05325 15.8147 8.05325 15.8883C8.05325 15.962 7.95968 16.0218 7.8452 16.0218Z" fill="white"/>
<defs>
<linearGradient id="paint0_linear_2492_31172" x1="0.949219" y1="9.7663" x2="19.9492" y2="9.7663" gradientUnits="userSpaceOnUse">
<stop stop-color="#4C4C4C"/>
<stop offset="1" stop-color="#343434"/>
</linearGradient>
</defs>
</svg>
