<svg width="19" height="18" viewBox="0 0 19 18" fill="none" xmlns="http://www.w3.org/2000/svg">
<path fill-rule="evenodd" clip-rule="evenodd" d="M17.8275 9.20419C17.8275 8.56601 17.7702 7.95237 17.6639 7.36328H9.1875V10.8446H14.0311C13.8225 11.9696 13.1884 12.9228 12.2352 13.561V15.8192H15.1439C16.8457 14.2524 17.8275 11.9451 17.8275 9.20419Z" fill="#4285F4"/>
<path fill-rule="evenodd" clip-rule="evenodd" d="M9.18726 18C11.6173 18 13.6545 17.1941 15.1436 15.8195L12.235 13.5613C11.4291 14.1013 10.3982 14.4204 9.18726 14.4204C6.84317 14.4204 4.85908 12.8372 4.15135 10.71H1.14453V13.0418C2.62544 15.9831 5.66908 18 9.18726 18Z" fill="#34A853"/>
<path fill-rule="evenodd" clip-rule="evenodd" d="M4.15159 10.7098C3.97159 10.1698 3.86932 9.59301 3.86932 8.99983C3.86932 8.40664 3.97159 7.82983 4.15159 7.28983V4.95801H1.14477C0.535227 6.17301 0.1875 7.54755 0.1875 8.99983C0.1875 10.4521 0.535227 11.8266 1.14477 13.0416L4.15159 10.7098Z" fill="#FBBC05"/>
<path fill-rule="evenodd" clip-rule="evenodd" d="M9.18726 3.57955C10.5086 3.57955 11.695 4.03364 12.6277 4.92545L15.2091 2.34409C13.6504 0.891818 11.6132 0 9.18726 0C5.66908 0 2.62544 2.01682 1.14453 4.95818L4.15135 7.29C4.85908 5.16273 6.84317 3.57955 9.18726 3.57955Z" fill="#EA4335"/>
</svg>
