<svg width="21" height="20" viewBox="0 0 21 20" fill="none" xmlns="http://www.w3.org/2000/svg">
<g clip-path="url(#clip0_2492_31168)">
<path d="M3.148 4.73684H3.174C4.569 4.73684 5.4375 3.68421 5.4375 2.36842C5.4115 1.02368 4.569 0 3.2005 0C1.832 0 0.9375 1.02368 0.9375 2.36842C0.9375 3.68421 1.8055 4.73684 3.148 4.73684ZM0.9375 6.31579H5.4375V20H0.9375V6.31579ZM20.9375 11.3158C20.9375 8.55421 18.811 6.31579 16.1875 6.31579C14.661 6.31579 13.3065 7.07684 12.4375 8.25474V6.31579H7.9375V20H12.4375V12.1053C12.4375 10.9426 13.333 10 14.4375 10C15.542 10 16.4375 10.9426 16.4375 12.1053V20H20.9375C20.9375 20 20.9375 12.0816 20.9375 11.3158Z" fill="#0078D4"/>
</g>
<defs>
<clipPath id="clip0_2492_31168">
<rect width="20" height="20" fill="white" transform="translate(0.9375)"/>
</clipPath>
</defs>
</svg>
