<?xml version="1.0" encoding="UTF-8"?>
<svg width="24px" height="24px" viewBox="0 0 24 24" version="1.1" xmlns="http://www.w3.org/2000/svg" xmlns:xlink="http://www.w3.org/1999/xlink">
    <!-- Generator: Sketch 53.2 (72643) - https://sketchapp.com -->
    <title>icon-1</title>
    <desc>Created with Sketch.</desc>
    <defs>
        <linearGradient x1="22.2222083%" y1="1.977625e-06%" x2="100%" y2="50%" id="linearGradient-1">
            <stop stop-color="#26B6E9" offset="0%"></stop>
            <stop stop-color="#064BD7" offset="100%"></stop>
        </linearGradient>
    </defs>
    <g id="Page-1" stroke="none" stroke-width="1" fill="none" fill-rule="evenodd">
        <g id="icon-1" fill-rule="nonzero">
            <rect id="Rectangle" fill="url(#linearGradient-1)" x="0" y="0" width="24" height="24" rx="2"></rect>
            <path d="M7.7907,6 C6.84025,6 6.06977,6.77049 6.06977,7.72093 L7.18605,7.72093 C7.18605,7.38699 7.45676,7.11628 7.7907,7.11628 L16.2558,7.11628 C16.5898,7.11628 16.8605,7.38699 16.8605,7.72093 L17.9767,7.72093 C17.9767,6.77049 17.2063,6 16.2558,6 L7.7907,6 Z" id="Path" fill="#FFFFFF"></path>
            <path d="M6.11628,10.4186 C6.11628,9.90484 6.53276,9.48837 7.04651,9.48837 L16.9535,9.48837 C17.4672,9.48837 17.8837,9.90484 17.8837,10.4186 L17.8837,13.9535 C17.8837,14.4673 17.4672,14.8837 16.9535,14.8837 L11.0014,14.8837 L7.86115,18.0239 L8.65048,18.8133 L11.4637,16 L16.9535,16 C18.0837,16 19,15.0838 19,13.9535 L19,10.4186 C19,9.28834 18.0837,8.37209 16.9535,8.37209 L7.04651,8.37209 C5.91625,8.37209 5,9.28834 5,10.4186 L5,13.9535 C5,15.0838 5.91625,16 7.04651,16 L8.76744,16 L8.76744,14.8837 L7.04651,14.8837 C6.53276,14.8837 6.11628,14.4673 6.11628,13.9535 L6.11628,10.4186 Z" id="Path" fill="#FFFFFF"></path>
            <path d="M10.3488,12.186 C10.3488,12.6484 9.97401,13.0233 9.51163,13.0233 C9.04925,13.0233 8.67442,12.6484 8.67442,12.186 C8.67442,11.7237 9.04925,11.3488 9.51163,11.3488 C9.97401,11.3488 10.3488,11.7237 10.3488,12.186 Z" id="Path" fill="#FFFFFF"></path>
            <path d="M14.1628,13.0233 C14.6252,13.0233 15,12.6484 15,12.186 C15,11.7237 14.6252,11.3488 14.1628,11.3488 C13.7004,11.3488 13.3256,11.7237 13.3256,12.186 C13.3256,12.6484 13.7004,13.0233 14.1628,13.0233 Z" id="Path" fill="#FFFFFF"></path>
        </g>
    </g>
</svg>