<?xml version="1.0" encoding="UTF-8"?>
<svg width="24px" height="24px" viewBox="0 0 24 24" version="1.1" xmlns="http://www.w3.org/2000/svg" xmlns:xlink="http://www.w3.org/1999/xlink">
    <!-- Generator: Sketch 53.2 (72643) - https://sketchapp.com -->
    <title>icon-7</title>
    <desc>Created with Sketch.</desc>
    <defs>
        <linearGradient x1="22.2222083%" y1="1.977625e-06%" x2="100%" y2="50%" id="linearGradient-1">
            <stop stop-color="#26E9B1" offset="0%"></stop>
            <stop stop-color="#06D776" offset="100%"></stop>
        </linearGradient>
    </defs>
    <g id="Page-1" stroke="none" stroke-width="1" fill="none" fill-rule="evenodd">
        <g id="icon-7" fill-rule="nonzero">
            <rect id="Rectangle" fill="url(#linearGradient-1)" x="0" y="0" width="24" height="24" rx="2"></rect>
            <path d="M11.0339,4 L10.9401,4.55469 C10.7674,5.55609 10.6667,6.60612 10.6667,7.66667 C10.6667,10.4525 12.3494,12.854 14.6667,13.2526 L14.6667,18.2214 L10.2005,12.2656 C10.1383,12.183 10.0576,12.1159 9.96494,12.0698 C9.87228,12.0237 9.77016,11.9998 9.66667,12 L8.20833,12 C8.18047,12 8.15264,12.0017 8.125,12.0052 C8.07606,11.9962 8.02628,11.9927 7.97656,11.9948 C7.84923,12.0009 7.72632,12.0434 7.6224,12.1172 C7.6224,12.1172 4,14.62 4,19.3333 C4.00002,19.5101 4.07026,19.6797 4.19528,19.8047 C4.3203,19.9297 4.48986,20 4.66667,20 L13,20 L14.6667,20 L18.6667,20 L18.6667,18.6667 L16,18.6667 L16,13.2526 C18.3173,12.854 20,10.4525 20,7.66667 C20,6.60612 19.8992,5.55609 19.7266,4.55469 L19.6328,4 L19.0703,4 L11.0339,4 Z M12.2031,5.33333 L18.4635,5.33333 C18.5255,5.7731 18.5766,6.21895 18.6146,6.66667 L13.3333,6.66667 L13.3333,8 L18.6406,8 C18.5039,10.3012 17.0105,12 15.3333,12 C13.5743,12 12,10.1398 12,7.66667 C12,6.87752 12.0953,6.09914 12.2031,5.33333 Z M8.01042,13.5312 L11.7005,18.6667 L5.45312,18.6667 C5.71324,15.9109 7.29841,14.1822 8.01042,13.5312 Z" id="Shape" fill="#FFFFFF"></path>
        </g>
    </g>
</svg>