<?xml version="1.0" encoding="UTF-8"?>
<svg width="24px" height="24px" viewBox="0 0 24 24" version="1.1" xmlns="http://www.w3.org/2000/svg" xmlns:xlink="http://www.w3.org/1999/xlink">
    <!-- Generator: Sketch 53.2 (72643) - https://sketchapp.com -->
    <title>icon-2</title>
    <desc>Created with Sketch.</desc>
    <defs>
        <linearGradient x1="22.2222083%" y1="1.977625e-06%" x2="100%" y2="50%" id="linearGradient-1">
            <stop stop-color="#E9264C" offset="0%"></stop>
            <stop stop-color="#F5463B" offset="100%"></stop>
        </linearGradient>
    </defs>
    <g id="Page-1" stroke="none" stroke-width="1" fill="none" fill-rule="evenodd">
        <g id="icon-2" fill-rule="nonzero">
            <rect id="Rectangle" fill="url(#linearGradient-1)" x="0" y="0" width="24" height="24" rx="2"></rect>
            <path d="M11.7143,4 L11.7143,6.28571 L9.42857,6.28571 L9.42857,7.42857 L11.7143,7.42857 L11.7143,9.71429 L12.8571,9.71429 L12.8571,7.42857 L15.1429,7.42857 L15.1429,6.28571 L12.8571,6.28571 L12.8571,4 L11.7143,4 Z M7.71429,6.28571 C6.77232,6.28571 6,7.05804 6,8 L6,20 L18.5714,20 L18.5714,8 C18.5714,7.05804 17.7991,6.28571 16.8571,6.28571 L16.2857,6.28571 L16.2857,7.42857 L16.8571,7.42857 C17.1786,7.42857 17.4286,7.67857 17.4286,8 L17.4286,18.8571 L14,18.8571 L14,15.4286 L10.5714,15.4286 L10.5714,18.8571 L7.14286,18.8571 L7.14286,8 C7.14286,7.67857 7.39286,7.42857 7.71429,7.42857 L8.28571,7.42857 L8.28571,6.28571 L7.71429,6.28571 Z M8.28571,8.57143 L8.28571,9.71429 L9.42857,9.71429 L9.42857,8.57143 L8.28571,8.57143 Z M15.1429,8.57143 L15.1429,9.71429 L16.2857,9.71429 L16.2857,8.57143 L15.1429,8.57143 Z M8.28571,10.8571 L8.28571,12 L9.42857,12 L9.42857,10.8571 L8.28571,10.8571 Z M10.5714,10.8571 L10.5714,12 L11.7143,12 L11.7143,10.8571 L10.5714,10.8571 Z M12.8571,10.8571 L12.8571,12 L14,12 L14,10.8571 L12.8571,10.8571 Z M15.1429,10.8571 L15.1429,12 L16.2857,12 L16.2857,10.8571 L15.1429,10.8571 Z M8.28571,13.1429 L8.28571,14.2857 L9.42857,14.2857 L9.42857,13.1429 L8.28571,13.1429 Z M10.5714,13.1429 L10.5714,14.2857 L11.7143,14.2857 L11.7143,13.1429 L10.5714,13.1429 Z M12.8571,13.1429 L12.8571,14.2857 L14,14.2857 L14,13.1429 L12.8571,13.1429 Z M15.1429,13.1429 L15.1429,14.2857 L16.2857,14.2857 L16.2857,13.1429 L15.1429,13.1429 Z M8.28571,15.4286 L8.28571,16.5714 L9.42857,16.5714 L9.42857,15.4286 L8.28571,15.4286 Z M15.1429,15.4286 L15.1429,16.5714 L16.2857,16.5714 L16.2857,15.4286 L15.1429,15.4286 Z M11.7143,16.5714 L12.8571,16.5714 L12.8571,18.8571 L11.7143,18.8571 L11.7143,16.5714 Z" id="Shape" fill="#FFFFFF"></path>
        </g>
    </g>
</svg>