<?xml version="1.0" encoding="UTF-8"?>
<svg width="24px" height="24px" viewBox="0 0 24 24" version="1.1" xmlns="http://www.w3.org/2000/svg" xmlns:xlink="http://www.w3.org/1999/xlink">
    <!-- Generator: Sketch 53.2 (72643) - https://sketchapp.com -->
    <title>icon-5</title>
    <desc>Created with Sketch.</desc>
    <defs>
        <linearGradient x1="22.2222083%" y1="1.977625e-06%" x2="100%" y2="50%" id="linearGradient-1">
            <stop stop-color="#E9D626" offset="0%"></stop>
            <stop stop-color="#FFBC00" offset="100%"></stop>
        </linearGradient>
    </defs>
    <g id="Page-1" stroke="none" stroke-width="1" fill="none" fill-rule="evenodd">
        <g id="icon-5" fill-rule="nonzero">
            <rect id="Rectangle" fill="url(#linearGradient-1)" x="0" y="0" width="24" height="24" rx="2"></rect>
            <path d="M10.7692,4 C6.625,4 4,7.10577 4,10.7692 C4,12.6394 4.70192,13.8654 5.33654,14.8173 C5.96635,15.7644 6.46154,16.4087 6.46154,17.3846 L6.46154,20 L7.69231,20 L7.69231,17.3846 C7.69231,15.9808 6.95673,15.0385 6.35577,14.1346 C5.75962,13.2308 5.23077,12.3462 5.23077,10.7692 C5.23077,8.25962 6.54808,6.21154 8.92308,5.50962 L8.92308,9.26923 C8.19231,9.69712 7.69231,10.4808 7.69231,11.3846 C7.69231,12.7356 8.80288,13.8462 10.1538,13.8462 C10.6058,13.8462 11.0288,13.7115 11.3942,13.4952 L12.6587,14.7596 C12.6298,14.8654 12.6154,14.9712 12.6154,15.0769 C12.6154,15.7548 13.1683,16.3077 13.8462,16.3077 C14.524,16.3077 15.0769,15.7548 15.0769,15.0769 C15.0769,14.399 14.524,13.8462 13.8462,13.8462 C13.7404,13.8462 13.6346,13.8606 13.5288,13.8894 L12.2644,12.625 C12.4808,12.2596 12.6154,11.8365 12.6154,11.3846 C12.6154,10.0337 11.5048,8.92308 10.1538,8.92308 L10.1538,5.28365 C10.3606,5.26442 10.5529,5.23077 10.7692,5.23077 C12.6106,5.23077 13.8077,5.80288 14.6346,6.65385 C15.4663,7.50481 15.9279,8.67308 16.1058,9.89423 C16.1346,10.1058 16.2019,10.3125 16.3077,10.5096 L17.524,12.6923 C17.5625,12.7548 17.5433,12.8029 17.476,12.8317 L16.3077,13.2644 L16.3077,15.6923 C16.3077,16.7163 15.8846,17.0625 15.4183,17.2933 C14.9519,17.5288 14.4615,17.5385 14.4615,17.5385 L13.8462,17.5385 L13.8462,20 L15.0769,20 L15.0769,18.6154 C15.3654,18.5817 15.5144,18.6202 15.9663,18.399 C16.7308,18.0144 17.5385,17.1298 17.5385,15.6923 L17.5385,14.1202 L17.9423,13.9712 L17.9519,13.9663 C18.6731,13.6635 18.9808,12.7788 18.601,12.0962 L17.3846,9.91346 C17.3558,9.86058 17.3317,9.79808 17.3221,9.72115 C17.1154,8.30769 16.5817,6.87981 15.5192,5.79327 C14.4567,4.70673 12.875,4 10.7692,4 Z M10.1538,10.1538 C10.8413,10.1538 11.3846,10.6971 11.3846,11.3846 C11.3846,12.0721 10.8413,12.6154 10.1538,12.6154 C9.46635,12.6154 8.92308,12.0721 8.92308,11.3846 C8.92308,10.6971 9.46635,10.1538 10.1538,10.1538 Z" id="Shape" fill="#FFFFFF"></path>
        </g>
    </g>
</svg>