<?xml version="1.0" encoding="UTF-8"?>
<svg width="24px" height="24px" viewBox="0 0 24 24" version="1.1" xmlns="http://www.w3.org/2000/svg" xmlns:xlink="http://www.w3.org/1999/xlink">
    <!-- Generator: Sketch 53.2 (72643) - https://sketchapp.com -->
    <title>icon-8</title>
    <desc>Created with Sketch.</desc>
    <defs>
        <linearGradient x1="22.2222083%" y1="1.977625e-06%" x2="100%" y2="50%" id="linearGradient-1">
            <stop stop-color="#FF4A16" offset="0%"></stop>
            <stop stop-color="#FF6C00" offset="100%"></stop>
        </linearGradient>
    </defs>
    <g id="Page-1" stroke="none" stroke-width="1" fill="none" fill-rule="evenodd">
        <g id="icon-8" fill-rule="nonzero">
            <rect id="Rectangle" fill="url(#linearGradient-1)" x="0" y="0" width="24" height="24" rx="2"></rect>
            <path d="M12,4 C11.3269,4 10.7212,4.02418 10.1538,4.05804 L10.1538,4.04836 C10.1106,4.04836 10.0721,4.05804 10.0288,4.05804 C8.10096,4.17411 6.76442,4.44978 5.87981,4.71577 C5.37981,4.87054 4.94231,5.1849 4.59615,5.59598 C4.25481,6.00223 4,6.51488 4,7.09524 L4,8.95238 L7.70192,8.95238 L7.75481,8.39137 C7.75481,8.39137 7.83654,7.55952 8.20192,6.7567 C8.38462,6.36012 8.63462,5.97805 8.95192,5.71689 C9.18269,5.52344 9.44231,5.37835 9.77885,5.32031 C9.86058,5.31548 9.91827,5.3058 10.0048,5.29613 C10.0096,5.29613 10.0144,5.30097 10.0192,5.29613 C10.6106,5.26228 11.2692,5.2381 12,5.2381 C12.7308,5.2381 13.3894,5.26228 13.9808,5.29613 C13.9856,5.30097 13.9904,5.29613 13.9952,5.29613 C14.0144,5.30097 14.0337,5.30097 14.0577,5.3058 C14.1154,5.3058 14.1635,5.31548 14.2212,5.32031 C14.5577,5.37835 14.8173,5.52344 15.0481,5.71689 C15.3654,5.97805 15.6154,6.36012 15.7981,6.7567 C16.1635,7.55952 16.2452,8.39137 16.2452,8.39137 L16.2933,8.95238 L20,8.95238 L20,7.09524 C20,6.51488 19.7452,6.00223 19.4038,5.59598 C19.0577,5.1849 18.6202,4.87054 18.1202,4.71577 C17.2356,4.44978 15.899,4.17411 13.9712,4.05804 C13.9279,4.05804 13.8894,4.04836 13.8462,4.04836 L13.8462,4.05804 C13.2788,4.02418 12.6731,4 12,4 Z M7.4375,5.62016 C7.30769,5.82813 7.17788,6.03609 7.08654,6.24405 C6.74519,6.98884 6.73558,7.36607 6.68269,7.71429 L5.23077,7.71429 L5.23077,7.09524 C5.23077,6.90179 5.33654,6.63095 5.53846,6.39397 C5.74039,6.15699 6.01923,5.96838 6.24039,5.90551 C6.54808,5.80878 6.96635,5.71205 7.4375,5.62016 Z M16.5625,5.62016 C17.0337,5.71205 17.4519,5.80878 17.7644,5.90551 C17.9808,5.96838 18.2596,6.15699 18.4615,6.39397 C18.6635,6.63095 18.7692,6.90179 18.7692,7.09524 L18.7692,7.71429 L17.3173,7.71429 C17.2644,7.36607 17.2548,6.98884 16.9183,6.24405 C16.8221,6.03609 16.6923,5.82813 16.5625,5.62016 Z M8.92308,8.95238 L8.92308,11.4107 L8.86539,11.4494 C8.86539,11.4494 7.97596,12.1023 7.08654,13.0841 C6.19231,14.061 5.23077,15.3813 5.23077,16.9048 L5.23077,18.1429 C5.23077,19.1633 6.0625,20 7.07692,20 L16.9231,20 C17.9375,20 18.7692,19.1633 18.7692,18.1429 L18.7692,16.9048 C18.7692,15.3813 17.8077,14.061 16.9183,13.0841 C16.024,12.1023 15.1346,11.4494 15.1346,11.4494 L15.0769,11.4107 L15.0769,8.95238 L13.8462,8.95238 L13.8462,11.3333 L10.1538,11.3333 L10.1538,8.95238 L8.92308,8.95238 Z M9.46154,12.5714 L14.5385,12.5714 C14.649,12.6585 15.274,13.1131 16.0048,13.9159 C16.8077,14.7961 17.5385,15.952 17.5385,16.9048 L17.5385,18.1429 C17.5385,18.4911 17.2692,18.7619 16.9231,18.7619 L7.07692,18.7619 C6.73077,18.7619 6.46154,18.4911 6.46154,18.1429 L6.46154,16.9048 C6.46154,15.952 7.19231,14.7961 7.99039,13.9159 C8.72596,13.1131 9.35096,12.6585 9.46154,12.5714 Z M8.92308,13.8095 L8.92308,15.0476 L10.1538,15.0476 L10.1538,13.8095 L8.92308,13.8095 Z M11.3846,13.8095 L11.3846,15.0476 L12.6154,15.0476 L12.6154,13.8095 L11.3846,13.8095 Z M13.8462,13.8095 L13.8462,15.0476 L15.0769,15.0476 L15.0769,13.8095 L13.8462,13.8095 Z M8.92308,16.2857 L8.92308,17.5238 L10.1538,17.5238 L10.1538,16.2857 L8.92308,16.2857 Z M11.3846,16.2857 L11.3846,17.5238 L12.6154,17.5238 L12.6154,16.2857 L11.3846,16.2857 Z M13.8462,16.2857 L13.8462,17.5238 L15.0769,17.5238 L15.0769,16.2857 L13.8462,16.2857 Z" id="Shape" fill="#FFFFFF"></path>
        </g>
    </g>
</svg>