<?xml version="1.0" encoding="UTF-8"?>
<svg width="24px" height="24px" viewBox="0 0 24 24" version="1.1" xmlns="http://www.w3.org/2000/svg" xmlns:xlink="http://www.w3.org/1999/xlink">
    <!-- Generator: Sketch 53.2 (72643) - https://sketchapp.com -->
    <title>icon-6</title>
    <desc>Created with Sketch.</desc>
    <defs>
        <linearGradient x1="22.2222083%" y1="1.977625e-06%" x2="100%" y2="50%" id="linearGradient-1">
            <stop stop-color="#262DE9" offset="0%"></stop>
            <stop stop-color="#7806D7" offset="100%"></stop>
        </linearGradient>
    </defs>
    <g id="Page-1" stroke="none" stroke-width="1" fill="none" fill-rule="evenodd">
        <g id="icon-6" fill-rule="nonzero">
            <rect id="Rectangle" fill="url(#linearGradient-1)" x="0" y="0" width="24" height="24" rx="2"></rect>
            <path d="M10.3976,4 L3.61128,7.39205 C3.20812,7.59364 3,8.00458 3,8.42567 L3,9.75715 L4.13809,9.75715 L4.13809,16.5857 L3,16.5857 L3,17.7238 L9.82856,17.7238 L9.82856,18.2929 C9.82856,19.229 10.5996,20 11.5357,20 L18.3643,20 C19.3004,20 20.0714,19.229 20.0714,18.2929 L20.0714,13.7405 C20.0714,12.8044 19.3004,12.0333 18.3643,12.0333 L16.6571,12.0333 L16.6571,9.75715 L17.7952,9.75715 L17.7952,9.18811 L17.7952,8.42567 C17.7952,8.00458 17.5871,7.59364 17.1839,7.39205 L10.3976,4 Z M10.3976,5.27146 L16.6505,8.399 C16.6521,8.40212 16.6571,8.40985 16.6571,8.42567 L16.6571,8.61906 L4.13809,8.61906 L4.13809,8.42567 C4.13809,8.40985 4.14316,8.3999 4.14476,8.39678 L10.3976,5.27146 Z M10.3976,6.34287 C10.2467,6.34287 10.102,6.40283 9.99523,6.50954 C9.88852,6.61626 9.82856,6.761 9.82856,6.91192 C9.82856,7.06284 9.88852,7.20758 9.99523,7.3143 C10.102,7.42101 10.2467,7.48097 10.3976,7.48097 C10.5485,7.48097 10.6933,7.42101 10.8,7.3143 C10.9067,7.20758 10.9667,7.06284 10.9667,6.91192 C10.9667,6.761 10.9067,6.61626 10.8,6.50954 C10.6933,6.40283 10.5485,6.34287 10.3976,6.34287 Z M5.27619,9.75715 L6.41428,9.75715 L6.41428,16.5857 L5.27619,16.5857 L5.27619,9.75715 Z M7.55238,9.75715 L13.2428,9.75715 L13.2428,12.0333 L11.5357,12.0333 C10.5996,12.0333 9.82856,12.8044 9.82856,13.7405 L9.82856,16.5857 L7.55238,16.5857 L7.55238,9.75715 Z M14.3809,9.75715 L15.519,9.75715 L15.519,12.0333 L14.3809,12.0333 L14.3809,9.75715 Z M11.5357,13.1714 L18.3643,13.1714 C18.6846,13.1714 18.9333,13.4201 18.9333,13.7405 L18.9333,18.2929 C18.9333,18.6132 18.6846,18.8619 18.3643,18.8619 L11.5357,18.8619 C11.2154,18.8619 10.9667,18.6132 10.9667,18.2929 L10.9667,13.7405 C10.9667,13.4201 11.2154,13.1714 11.5357,13.1714 Z M15.519,14.3095 L15.519,15.4476 L17.7952,15.4476 L17.7952,14.3095 L15.519,14.3095 Z M12.1048,16.5857 L12.1048,17.7238 L13.2428,17.7238 L13.2428,16.5857 L12.1048,16.5857 Z M14.3809,16.5857 L14.3809,17.7238 L15.519,17.7238 L15.519,16.5857 L14.3809,16.5857 Z M16.6571,16.5857 L16.6571,17.7238 L17.7952,17.7238 L17.7952,16.5857 L16.6571,16.5857 Z" id="Shape" fill="#FFFFFF"></path>
        </g>
    </g>
</svg>