<?xml version="1.0" encoding="UTF-8"?>
<svg width="14px" height="10px" viewBox="0 0 14 10" version="1.1" xmlns="http://www.w3.org/2000/svg" xmlns:xlink="http://www.w3.org/1999/xlink">
    <!-- Generator: Sketch 53.2 (72643) - https://sketchapp.com -->
    <title>content-variable-white</title>
    <desc>Created with Sketch.</desc>
    <g id="Page-1" stroke="none" stroke-width="1" fill="none" fill-rule="evenodd">
        <g id="content-variable-white" transform="translate(-1.000000, -3.000000)" fill-rule="nonzero">
            <polygon id="Path" fill-opacity="0" fill="#D8D8D8" points="0 0 16 0 16 16 0 16"></polygon>
            <path d="M5.327,3.009 C5.567,2.964 5.81,3.095 5.9,3.329 L9.252,12.103 L9.266,12.147 C9.338,12.4 9.206,12.669 8.956,12.765 C8.691,12.865 8.395,12.733 8.294,12.469 L5.309,4.656 L3.956,8.198 L6.203,8.198 L6.25,8.2 C6.511,8.224 6.716,8.443 6.716,8.71 C6.716,8.994 6.486,9.223 6.203,9.223 L3.564,9.223 L2.324,12.469 C2.224,12.733 1.928,12.866 1.664,12.765 C1.414,12.669 1.281,12.4 1.353,12.147 L1.367,12.103 L2.595,8.89 C2.574,8.834 2.562,8.774 2.562,8.71 C2.562,8.514 2.672,8.344 2.835,8.258 L4.719,3.33 C4.811,3.089 5.065,2.957 5.309,3.012 L5.327,3.009 Z M12.289,6.547 C12.626,6.535 12.936,6.584 13.217,6.697 C13.497,6.81 13.741,6.977 13.941,7.193 C14.137,7.406 14.287,7.663 14.391,7.959 C14.476,8.206 14.529,8.471 14.548,8.755 L14.554,8.878 L14.666,12.084 C14.676,12.366 14.455,12.604 14.172,12.614 C13.905,12.624 13.678,12.426 13.645,12.166 L13.642,12.119 L13.634,11.885 C13.083,12.283 12.56,12.535 12.059,12.635 C10.904,12.868 9.97,12.136 10.033,10.933 C10.103,9.586 11.781,8.711 13.572,9.128 L13.536,9.12 L13.53,8.914 C13.522,8.683 13.485,8.478 13.422,8.296 C13.364,8.129 13.286,7.995 13.187,7.888 C13.092,7.785 12.976,7.705 12.834,7.648 C12.692,7.591 12.524,7.565 12.324,7.572 C12.02,7.582 11.752,7.644 11.516,7.756 C11.276,7.87 11.051,8.039 10.838,8.269 C10.646,8.477 10.322,8.489 10.114,8.298 C9.906,8.105 9.894,7.781 10.085,7.573 C10.385,7.25 10.715,7.001 11.077,6.829 C11.444,6.656 11.849,6.562 12.289,6.547 L12.289,6.547 Z M13.339,10.127 C12.106,9.839 11.089,10.37 11.056,10.987 C11.03,11.497 11.336,11.735 11.856,11.63 C12.299,11.541 12.823,11.252 13.419,10.754 C13.471,10.71 13.529,10.679 13.59,10.659 L13.573,10.126 C13.498,10.143 13.419,10.145 13.339,10.126 L13.339,10.127 Z" id="Shape" fill="#FFFFFF"></path>
        </g>
    </g>
</svg>