<?xml version="1.0" encoding="UTF-8"?>
<svg width="20px" height="24px" viewBox="0 0 20 24" version="1.1" xmlns="http://www.w3.org/2000/svg" xmlns:xlink="http://www.w3.org/1999/xlink">
    <!-- Generator: Sketch 49 (51002) - http://www.bohemiancoding.com/sketch -->
    <title>Group 9</title>
    <desc>Created with Sketch.</desc>
    <defs></defs>
    <g id="Property-pannel" stroke="none" stroke-width="1" fill="none" fill-rule="evenodd">
        <g id="10.2-IVR" transform="translate(-1083.000000, -349.000000)">
            <g id="Group-9" transform="translate(1083.000000, 349.000000)">
                <path d="M2,0 L18,0 C19.1045695,-2.02906125e-16 20,0.8954305 20,2 L20,22 C20,23.1045695 19.1045695,24 18,24 L2,24 C0.8954305,24 1.3527075e-16,23.1045695 0,22 L0,2 C-1.3527075e-16,0.8954305 0.8954305,2.02906125e-16 2,0 Z" id="Rectangle-4-Copy-5" fill="#36BA5A"></path>
                <path d="M6.54241071,7.00669643 L6.90401786,7.1875 C6.95758955,7.20982154 7.42856699,7.22098214 8.31696429,7.22098214 C8.51339384,7.22098214 8.80803375,7.2165179 9.20089286,7.20758929 C9.59375196,7.19866067 9.88839188,7.19419643 10.0848214,7.19419643 C10.2455365,7.19419643 10.4854895,7.19531249 10.8046875,7.19754464 C11.1238855,7.1997768 11.3638385,7.20089286 11.5245536,7.20089286 L13.4866071,7.20089286 C13.513393,7.20089286 13.5602675,7.20200892 13.6272321,7.20424107 C13.6941968,7.20647323 13.7399552,7.20647323 13.7645089,7.20424107 C13.7890626,7.20200892 13.8247766,7.19531256 13.8716518,7.18415179 C13.918527,7.17299102 13.9575891,7.15290193 13.9888393,7.12388393 C14.0200894,7.09486593 14.0535713,7.05580382 14.0892857,7.00669643 L14.3705357,7 C14.3883929,7 14.4196426,7.00111606 14.4642857,7.00334821 C14.5089288,7.00558037 14.5401785,7.00669643 14.5580357,7.00669643 C14.5669643,7.50669893 14.5714286,8.25669143 14.5714286,9.25669643 C14.5714286,9.61384107 14.560268,9.85714221 14.5379464,9.98660714 C14.3638384,10.0491075 14.2120542,10.0892856 14.0825893,10.1071429 C13.9709816,9.9107133 13.8504471,9.62500188 13.7209821,9.25 C13.7075892,9.20982123 13.6830359,9.10267944 13.6473214,8.92857143 C13.611607,8.75446342 13.5792412,8.59040256 13.5502232,8.43638393 C13.5212052,8.2823653 13.5044643,8.20312502 13.5,8.19866071 C13.4732142,8.16294625 13.4464287,8.13504474 13.4196429,8.11495536 C13.392857,8.09486597 13.3582591,8.08147325 13.3158482,8.07477679 C13.2734373,8.06808032 13.2444197,8.06250002 13.2287946,8.05803571 C13.2131696,8.05357141 13.1729914,8.05245535 13.1082589,8.0546875 C13.0435265,8.05691965 13.0066965,8.05803571 12.9977679,8.05803571 C12.9218746,8.05803571 12.7734386,8.05691965 12.5524554,8.0546875 C12.3314721,8.05245535 12.1651791,8.05133929 12.0535714,8.05133929 C11.9419637,8.05133929 11.799108,8.05580353 11.625,8.06473214 C11.450892,8.07366076 11.2924114,8.08705348 11.1495536,8.10491071 C11.1093748,8.46651967 11.0915178,8.77008806 11.0959821,9.015625 C11.0959821,9.43526996 11.1004464,10.3013327 11.109375,11.6138393 C11.1183036,12.9263458 11.1227679,13.9419607 11.1227679,14.6607143 C11.1227679,14.7321432 11.1171876,14.8917398 11.1060268,15.1395089 C11.094866,15.387278 11.094866,15.5915171 11.1060268,15.7522321 C11.1171876,15.9129472 11.1450891,16.0669635 11.1897321,16.2142857 C11.3683045,16.3080362 11.6450874,16.4029013 12.0200893,16.4988839 C12.3950912,16.5948666 12.6629456,16.6785711 12.8236607,16.75 C12.8459823,16.9285723 12.8571429,17.0401783 12.8571429,17.0848214 C12.8571429,17.1473217 12.8504465,17.2120532 12.8370536,17.2790179 L12.609375,17.2857143 C12.2700876,17.2946429 11.7834853,17.2767859 11.1495536,17.2321429 C10.5156218,17.1874998 10.0535729,17.1651786 9.76339286,17.1651786 C9.54017746,17.1651786 9.20312725,17.1852677 8.75223214,17.2254464 C8.30133703,17.2656252 7.96205471,17.2857143 7.734375,17.2857143 C7.72098208,17.0580346 7.71428571,16.9419643 7.71428571,16.9375 L7.71428571,16.8772321 C7.79017895,16.7566958 7.92745436,16.6607146 8.12611607,16.5892857 C8.32477778,16.5178568 8.54464165,16.4531253 8.78571429,16.3950893 C9.02678692,16.3370533 9.20089232,16.276786 9.30803571,16.2142857 C9.39285757,16.0267848 9.43526786,15.1718826 9.43526786,13.6495536 C9.43526786,13.1986585 9.4285715,12.5223259 9.41517857,11.6205357 C9.40178565,10.7187455 9.39508929,10.042413 9.39508929,9.59151786 L9.39508929,8.80803571 C9.39508929,8.7991071 9.39620535,8.76450923 9.3984375,8.70424107 C9.40066965,8.64397291 9.40178571,8.5881699 9.40178571,8.53683036 C9.40178571,8.48549081 9.39955359,8.42857174 9.39508929,8.36607143 C9.39062498,8.30357112 9.38392862,8.25000022 9.375,8.20535714 C9.36607138,8.16071406 9.35491078,8.12946437 9.34151786,8.11160714 C9.29241047,8.05803545 8.93080694,8.03125 8.25669643,8.03125 C8.10937426,8.03125 7.90178705,8.05803545 7.63392857,8.11160714 C7.36607009,8.16517884 7.18750045,8.22321397 7.09821429,8.28571429 C7.01339243,8.34375029 6.93750033,8.50557903 6.87053571,8.77120536 C6.80357109,9.03683169 6.7332593,9.28459706 6.65959821,9.51450893 C6.58593713,9.74442079 6.49107201,9.86383924 6.375,9.87276786 C6.18749906,9.75669585 6.06250031,9.65848254 6,9.578125 L6,7.01339286 L6.54241071,7.00669643 Z" id="Panel-Icon-Copy-4" fill="#FFFFFF"></path>
            </g>
        </g>
    </g>
</svg>