<?xml version="1.0" encoding="UTF-8"?>
<svg width="20px" height="24px" viewBox="0 0 20 24" version="1.1" xmlns="http://www.w3.org/2000/svg" xmlns:xlink="http://www.w3.org/1999/xlink">
    <!-- Generator: Sketch 49 (51002) - http://www.bohemiancoding.com/sketch -->
    <title>Group 4</title>
    <desc>Created with Sketch.</desc>
    <defs></defs>
    <g id="Property-pannel" stroke="none" stroke-width="1" fill="none" fill-rule="evenodd">
        <g id="10.1-IVR-Copy" transform="translate(-1083.000000, -330.000000)">
            <g id="Group-4" transform="translate(1083.000000, 330.000000)">
                <path d="M2,0 L18,0 C19.1045695,-2.02906125e-16 20,0.8954305 20,2 L20,22 C20,23.1045695 19.1045695,24 18,24 L2,24 C0.8954305,24 1.3527075e-16,23.1045695 0,22 L0,2 C-1.3527075e-16,0.8954305 0.8954305,2.02906125e-16 2,0 Z" id="Rectangle-4-Copy-2" fill="#8A959F"></path>
                <path d="M9.14285714,8.07142857 L9.14285714,15.3571429 C9.14285714,15.4732149 9.10044685,15.5736603 9.015625,15.6584821 C8.93080315,15.743304 8.83035772,15.7857143 8.71428571,15.7857143 C8.59821371,15.7857143 8.49776828,15.743304 8.41294643,15.6584821 L6.18303571,13.4285714 L4.42857143,13.4285714 C4.31249942,13.4285714 4.212054,13.3861611 4.12723214,13.3013393 C4.04241029,13.2165174 4,13.116072 4,13 L4,10.4285714 C4,10.3124994 4.04241029,10.212054 4.12723214,10.1272321 C4.212054,10.0424103 4.31249942,10 4.42857143,10 L6.18303571,10 L8.41294643,7.77008929 C8.49776828,7.68526743 8.59821371,7.64285714 8.71428571,7.64285714 C8.83035772,7.64285714 8.93080315,7.68526743 9.015625,7.77008929 C9.10044685,7.85491114 9.14285714,7.95535656 9.14285714,8.07142857 Z M11.7142857,11.7142857 C11.7142857,12.0535731 11.6194206,12.3694182 11.4296875,12.6618304 C11.2399544,12.9542425 10.9888408,13.1629458 10.6763393,13.2879464 C10.6316962,13.310268 10.5758932,13.3214286 10.5089286,13.3214286 C10.3928566,13.3214286 10.2924111,13.2801343 10.2075893,13.1975446 C10.1227674,13.1149549 10.0803571,13.0133935 10.0803571,12.8928571 C10.0803571,12.7991067 10.1071426,12.7198664 10.1607143,12.6551339 C10.214286,12.5904015 10.2790175,12.5345984 10.3549107,12.4877232 C10.430804,12.440848 10.506696,12.3895092 10.5825893,12.3337054 C10.6584825,12.2779015 10.723214,12.1975452 10.7767857,12.0926339 C10.8303574,11.9877227 10.8571429,11.8616079 10.8571429,11.7142857 C10.8571429,11.5669635 10.8303574,11.4408487 10.7767857,11.3359375 C10.723214,11.2310263 10.6584825,11.1506699 10.5825893,11.0948661 C10.506696,11.0390622 10.430804,10.9877234 10.3549107,10.9408482 C10.2790175,10.893973 10.214286,10.83817 10.1607143,10.7734375 C10.1071426,10.708705 10.0803571,10.6294648 10.0803571,10.5357143 C10.0803571,10.415178 10.1227674,10.3136165 10.2075893,10.2310268 C10.2924111,10.1484371 10.3928566,10.1071429 10.5089286,10.1071429 C10.5758932,10.1071429 10.6316962,10.1183035 10.6763393,10.140625 C10.9888408,10.2611613 11.2399544,10.4687485 11.4296875,10.7633929 C11.6194206,11.0580372 11.7142857,11.3749983 11.7142857,11.7142857 Z M13.4285714,11.7142857 C13.4285714,12.3973248 13.2388412,13.0278989 12.859375,13.6060268 C12.4799088,14.1841547 11.9776817,14.6049094 11.3526786,14.8683036 C11.2946426,14.8906251 11.2388396,14.9017857 11.1852679,14.9017857 C11.0647315,14.9017857 10.962054,14.8593754 10.8772321,14.7745536 C10.7924103,14.6897317 10.75,14.5892863 10.75,14.4732143 C10.75,14.2991063 10.8370527,14.1674112 11.0111607,14.078125 C11.261162,13.9486601 11.4308031,13.8504468 11.5200893,13.7834821 C11.8504481,13.5424095 12.108258,13.2399572 12.2935268,12.8761161 C12.4787956,12.512275 12.5714286,12.1250021 12.5714286,11.7142857 C12.5714286,11.3035694 12.4787956,10.9162965 12.2935268,10.5524554 C12.108258,10.1886143 11.8504481,9.88616192 11.5200893,9.64508929 C11.4308031,9.57812467 11.261162,9.47991136 11.0111607,9.35044643 C10.8370527,9.26116027 10.75,9.12946516 10.75,8.95535714 C10.75,8.83928513 10.7924103,8.73883971 10.8772321,8.65401786 C10.962054,8.569196 11.0624994,8.52678571 11.1785714,8.52678571 C11.2366074,8.52678571 11.2946426,8.53794632 11.3526786,8.56026786 C11.9776817,8.82366203 12.4799088,9.24441675 12.859375,9.82254464 C13.2388412,10.4006725 13.4285714,11.0312466 13.4285714,11.7142857 Z M15.1428571,11.7142857 C15.1428571,12.7410766 14.8593778,13.6841475 14.2924107,14.5435268 C13.7254436,15.4029061 12.9709869,16.0357123 12.0290179,16.4419643 C11.9709819,16.4642858 11.9129467,16.4754464 11.8549107,16.4754464 C11.7388387,16.4754464 11.6383933,16.4330361 11.5535714,16.3482143 C11.4687496,16.2633924 11.4263393,16.162947 11.4263393,16.046875 C11.4263393,15.8861599 11.513392,15.7544648 11.6875,15.6517857 C11.7187502,15.6339285 11.7689729,15.6104912 11.8381696,15.5814732 C11.9073664,15.5524552 11.9575891,15.5290179 11.9888393,15.5111607 C12.1941975,15.399553 12.3772313,15.2857149 12.5379464,15.1696429 C13.0870563,14.7633908 13.5156235,14.2566995 13.8236607,13.6495536 C14.131698,13.0424077 14.2857143,12.3973248 14.2857143,11.7142857 C14.2857143,11.0312466 14.131698,10.3861638 13.8236607,9.77901786 C13.5156235,9.17187196 13.0870563,8.6651806 12.5379464,8.25892857 C12.3772313,8.14285656 12.1941975,8.02901842 11.9888393,7.91741071 C11.9575891,7.89955348 11.9073664,7.87611622 11.8381696,7.84709821 C11.7689729,7.81808021 11.7187502,7.79464295 11.6875,7.77678571 C11.513392,7.67410663 11.4263393,7.54241152 11.4263393,7.38169643 C11.4263393,7.26562442 11.4687496,7.165179 11.5535714,7.08035714 C11.6383933,6.99553529 11.7388387,6.953125 11.8549107,6.953125 C11.9129467,6.953125 11.9709819,6.9642856 12.0290179,6.98660714 C12.9709869,7.39285917 13.7254436,8.02566535 14.2924107,8.88504464 C14.8593778,9.74442394 15.1428571,10.6874949 15.1428571,11.7142857 Z" id="Panel-Icon-Copy-3" fill="#FFFFFF"></path>
            </g>
        </g>
    </g>
</svg>