<?xml version="1.0" encoding="UTF-8"?>
<svg width="12px" height="18px" viewBox="0 0 12 18" version="1.1" xmlns="http://www.w3.org/2000/svg" xmlns:xlink="http://www.w3.org/1999/xlink">
    <!-- Generator: Sketch 49 (51002) - http://www.bohemiancoding.com/sketch -->
    <title>Panel Icon Copy 2</title>
    <desc>Created with Sketch.</desc>
    <defs></defs>
    <g id="Property-pannel" stroke="none" stroke-width="1" fill="none" fill-rule="evenodd">
        <g id="10.9-IVR-with-real-content-Copy" transform="translate(-1157.000000, -116.000000)" fill="#009EA9">
            <g id="Group-12" transform="translate(1152.000000, 115.000000)">
                <path d="M9.50892857,17.3660714 C9.50892857,17.4970245 9.37946558,17.6532729 9.12053571,17.8348214 C8.86160585,18.01637 8.63690571,18.1428568 8.44642857,18.2142857 C8.32738036,18.261905 8.19345312,18.2857143 8.04464286,18.2857143 C7.84226089,18.2857143 7.55059714,18.2321434 7.16964286,18.125 L7.11607143,18.1071429 C6.42559179,17.8928561 5.89285902,17.5148837 5.51785714,16.9732143 C5.35714205,16.7410703 5.11012071,16.2619084 4.77678571,15.5357143 C4.48511759,14.8988063 4.28273866,14.2559556 4.16964286,13.6071429 C4.05654705,12.9583301 4,12.2321469 4,11.4285714 C4,10.624996 4.05654705,9.89881277 4.16964286,9.25 C4.28273866,8.60118723 4.48511759,7.95833652 4.77678571,7.32142857 C4.79464295,7.2797617 4.82142839,7.22321464 4.85714286,7.15178571 C5.04166759,6.7529742 5.1770829,6.47172701 5.26339286,6.30803571 C5.34970281,6.14434442 5.48660621,5.93601317 5.67410714,5.68303571 C5.86160808,5.43005826 6.07291549,5.23363165 6.30803571,5.09375 C6.54315594,4.95386835 6.83035545,4.83333384 7.16964286,4.73214286 C7.55059714,4.62499946 7.84226089,4.57142857 8.04464286,4.57142857 C8.19345312,4.57142857 8.32738036,4.59523786 8.44642857,4.64285714 C8.63690571,4.71428607 8.86160585,4.8407729 9.12053571,5.02232143 C9.37946558,5.20386996 9.50892857,5.36011839 9.50892857,5.49107143 C9.50892857,5.55654795 9.47023848,5.72916527 9.39285714,6.00892857 C9.3154758,6.28869188 9.22321482,6.60714107 9.11607143,6.96428571 C9.00892804,7.32143036 8.94940482,7.52678545 8.9375,7.58035714 C8.93154759,7.60416679 8.91666679,7.68303504 8.89285714,7.81696429 C8.8690475,7.95089353 8.84375013,8.05803531 8.81696429,8.13839286 C8.79017844,8.2187504 8.75000027,8.28273786 8.69642857,8.33035714 C8.60714241,8.41369089 8.45535821,8.45535714 8.24107143,8.45535714 C8.10416598,8.45535714 7.89583473,8.43898826 7.61607143,8.40625 C7.33630812,8.37351174 7.12500071,8.35714286 6.98214286,8.35714286 C6.77976089,8.35714286 6.63988134,8.38988063 6.5625,8.45535714 C6.52678554,8.4851192 6.49404777,8.53124969 6.46428571,8.59375 C6.43452366,8.65625031 6.41220246,8.71577353 6.39732143,8.77232143 C6.3824404,8.82886933 6.36309536,8.90029719 6.33928571,8.98660714 C6.31547607,9.0729171 6.30059527,9.12797607 6.29464286,9.15178571 C6.07440366,9.91369429 5.96428571,10.6726153 5.96428571,11.4285714 C5.96428571,12.1845276 6.07440366,12.9434486 6.29464286,13.7053571 C6.30059527,13.7291668 6.31547607,13.7842258 6.33928571,13.8705357 C6.36309536,13.9568457 6.3824404,14.0282735 6.39732143,14.0848214 C6.41220246,14.1413693 6.43452366,14.2008925 6.46428571,14.2633929 C6.49404777,14.3258932 6.52678554,14.3720237 6.5625,14.4017857 C6.63988134,14.4672622 6.77976089,14.5 6.98214286,14.5 C7.12500071,14.5 7.33630812,14.4836311 7.61607143,14.4508929 C7.89583473,14.4181546 8.10416598,14.4017857 8.24107143,14.4017857 C8.45535821,14.4017857 8.60714241,14.443452 8.69642857,14.5267857 C8.75000027,14.574405 8.79017844,14.6383925 8.81696429,14.71875 C8.84375013,14.7991075 8.8690475,14.9062493 8.89285714,15.0401786 C8.91666679,15.1741078 8.93154759,15.2529761 8.9375,15.2767857 C8.94940482,15.3303574 9.00892804,15.5357125 9.11607143,15.8928571 C9.22321482,16.2500018 9.3154758,16.568451 9.39285714,16.8482143 C9.47023848,17.1279776 9.50892857,17.3005949 9.50892857,17.3660714 Z M10.9285714,9.21428571 C10.7738087,9.21428571 10.6398815,9.15773866 10.5267857,9.04464286 C10.4136899,8.93154705 10.3571429,8.79613174 10.3571429,8.63839286 C10.3571429,8.48065397 10.4136899,8.34523866 10.5267857,8.23214286 C10.7470249,8.01190366 10.8571429,7.7440492 10.8571429,7.42857143 C10.8571429,7.11904607 10.7470249,6.84821545 10.5267857,6.61607143 C10.4136899,6.50297563 10.3571429,6.36904839 10.3571429,6.21428571 C10.3571429,6.05952304 10.4136899,5.9255958 10.5267857,5.8125 C10.6398815,5.6994042 10.7738087,5.64285714 10.9285714,5.64285714 C11.0833341,5.64285714 11.2172613,5.6994042 11.3303571,5.8125 C11.7767879,6.2589308 12,6.79761589 12,7.42857143 C12,8.05952696 11.7767879,8.59821205 11.3303571,9.04464286 C11.2053565,9.15773866 11.0714293,9.21428571 10.9285714,9.21428571 Z M12.5446429,10.8303571 C12.3839278,10.8303571 12.2500005,10.7738101 12.1428571,10.6607143 C12.0297613,10.5476185 11.9732143,10.4136913 11.9732143,10.2589286 C11.9732143,10.1041659 12.0297613,9.97023866 12.1428571,9.85714286 C12.8095271,9.17856804 13.1428571,8.36905232 13.1428571,7.42857143 C13.1428571,6.48809054 12.8095271,5.67857482 12.1428571,5 C12.0297613,4.8869042 11.9732143,4.75297696 11.9732143,4.59821429 C11.9732143,4.44345161 12.0297613,4.30952438 12.1428571,4.19642857 C12.2559529,4.08333277 12.3898802,4.02678571 12.5446429,4.02678571 C12.6994055,4.02678571 12.8333328,4.08333277 12.9464286,4.19642857 C13.8392902,5.08929018 14.2857143,6.16666036 14.2857143,7.42857143 C14.2857143,8.6904825 13.8392902,9.76785268 12.9464286,10.6607143 C12.8392852,10.7738101 12.7053579,10.8303571 12.5446429,10.8303571 Z M14.1607143,12.4464286 C13.9999992,12.4464286 13.866072,12.3898815 13.7589286,12.2767857 C13.6458328,12.1636899 13.5892857,12.0297627 13.5892857,11.875 C13.5892857,11.7202373 13.6458328,11.5863101 13.7589286,11.4732143 C14.2946455,10.9315449 14.7068438,10.3125035 14.9955357,9.61607143 C15.2842276,8.91963938 15.4285714,8.19048 15.4285714,7.42857143 C15.4285714,6.66666286 15.2842276,5.93750348 14.9955357,5.24107143 C14.7068438,4.54463938 14.2946455,3.92559795 13.7589286,3.38392857 C13.6458328,3.27083277 13.5892857,3.13690554 13.5892857,2.98214286 C13.5892857,2.82738018 13.6458328,2.69345295 13.7589286,2.58035714 C13.8720244,2.46726134 14.0059516,2.41071429 14.1607143,2.41071429 C14.315477,2.41071429 14.4494042,2.46726134 14.5625,2.58035714 C15.2113128,3.22916991 15.7083316,3.97023393 16.0535714,4.80357143 C16.3988113,5.63690893 16.5714286,6.51190018 16.5714286,7.42857143 C16.5714286,8.34524268 16.3988113,9.22023393 16.0535714,10.0535714 C15.7083316,10.8869089 15.2113128,11.6279729 14.5625,12.2767857 C14.4553566,12.3898815 14.3214294,12.4464286 14.1607143,12.4464286 Z" id="Panel-Icon-Copy-2" transform="translate(10.285714, 10.348214) scale(-1, 1) rotate(-45.000000) translate(-10.285714, -10.348214) "></path>
            </g>
        </g>
    </g>
</svg>