<svg width="20" height="20" viewBox="0 0 20 20" fill="none" xmlns="http://www.w3.org/2000/svg">
<g opacity="0.5">
<path d="M3.125 1.25C2.09473 1.25 1.25 2.09473 1.25 3.125V9.375C1.25 10.4053 2.09473 11.25 3.125 11.25H3.74023V13.75L7.08008 11.25H7.5V14.375C7.5 15.4053 8.34473 16.25 9.375 16.25H12.9248L16.2549 18.75V16.25H16.875C17.9053 16.25 18.75 15.4053 18.75 14.375V8.125C18.75 7.09473 17.9053 6.25 16.875 6.25H12.5V3.125C12.5 2.09473 11.6553 1.25 10.625 1.25H3.125ZM3.125 2.5H10.625C10.9766 2.5 11.25 2.77344 11.25 3.125V9.375C11.25 9.72656 10.9766 10 10.625 10H6.66016L4.99023 11.25V10H3.125C2.77344 10 2.5 9.72656 2.5 9.375V3.125C2.5 2.77344 2.77344 2.5 3.125 2.5ZM6.875 3.75C5.84473 3.75 5 4.59473 5 5.625C5 6.65527 5.84473 7.5 6.875 7.5C7.09473 7.5 7.30469 7.45117 7.5 7.38281V8.75H8.75V5.625C8.75 4.59473 7.90527 3.75 6.875 3.75ZM6.875 5C7.22656 5 7.5 5.27344 7.5 5.625C7.5 5.97656 7.22656 6.25 6.875 6.25C6.52344 6.25 6.25 5.97656 6.25 5.625C6.25 5.27344 6.52344 5 6.875 5ZM12.5 7.5H16.875C17.2266 7.5 17.5 7.77344 17.5 8.125V14.375C17.5 14.7266 17.2266 15 16.875 15H15.0049V16.25L13.3398 15H9.375C9.02344 15 8.75 14.7266 8.75 14.375V11.25H10.625C10.8447 11.25 11.0547 11.2012 11.25 11.1328V13.75H12.5V12.5H13.75V13.75H15V10.625C15 9.59473 14.1553 8.75 13.125 8.75C12.9053 8.75 12.6953 8.79883 12.5 8.86719V7.5ZM13.125 10C13.4766 10 13.75 10.2734 13.75 10.625V11.25H12.5V10.625C12.5 10.2734 12.7734 10 13.125 10Z" fill="#28A745"/>
</g>
</svg>
