<svg width="20" height="20" viewBox="0 0 20 20" fill="none" xmlns="http://www.w3.org/2000/svg">
<path fill-rule="evenodd" clip-rule="evenodd" d="M2.70389 10.6248L2.75068 10.5791L12.8856 1.44259C13.4087 0.971047 14.2252 1.42899 14.1101 2.12934L13.1278 8.10452L16.7566 8.10496C17.3957 8.10496 17.7262 8.86301 17.3252 9.34192L17.281 9.39043L8.27223 18.5269C7.76177 19.0446 6.89729 18.5929 7.016 17.8705L7.99759 11.8945L3.24339 11.8949C2.58309 11.8949 2.26162 11.0933 2.70389 10.6248ZM11.5203 8.73403L12.3005 3.98376L5.19585 10.3887L8.87377 10.3891C9.31141 10.3891 9.64905 10.7698 9.61325 11.2036L9.60556 11.2659L8.85992 15.8016L14.9644 9.61035L12.2521 9.61079C11.8144 9.61079 11.4768 9.23009 11.5126 8.79632L11.5203 8.73403Z" fill="#B893F2"/>
</svg>
