<svg width="20" height="20" viewBox="0 0 20 20" fill="none" xmlns="http://www.w3.org/2000/svg">
<path d="M8.75 1.25C2.82227 1.25 2.51953 5.15137 2.5 8.25195C1.77734 8.53516 1.25 9.22852 1.25 10C1.25 10.9961 1.99707 12.5 3.125 12.5C3.22266 12.5 3.3252 12.4902 3.42773 12.4805C4.3457 15.3271 6.61133 17.5 8.75 17.5C9.77051 17.5 10.8203 16.9922 11.7432 16.1523C11.3672 16.2109 10.9961 16.25 10.625 16.25H8.75C7.28027 16.25 5.22949 14.4287 4.51172 11.7188L4.30664 11.0059L3.7207 11.1523C3.35938 11.2451 3.17383 11.25 3.125 11.25C2.92481 11.2256 2.5 10.5127 2.5 10C2.5 9.69727 2.81738 9.39453 3.16406 9.375L3.75 9.33594V8.75C3.75 4.86328 4.08691 2.5 8.75 2.5C8.89648 2.5 10.6494 2.50488 11.8066 2.50977L11.3818 3.37402C11.3184 3.52539 11.0889 4.0332 10.293 4.6875C9.375 5.44922 7.7832 6.25 5 6.25V7.5C8.02734 7.5 9.94629 6.59668 11.0938 5.6543C11.7041 5.14648 12.0752 4.64844 12.3096 4.2627C13.5938 4.91699 13.75 6.21582 13.75 8.75V11.8311C13.6084 13.4033 11.4502 13.75 10.625 13.75H10C10 13.0615 9.43848 12.5 8.75 12.5C8.06152 12.5 7.5 13.0615 7.5 13.75C7.5 14.4385 8.06152 15 8.75 15H10.625C12.3486 15 14.248 14.2676 14.8291 12.6562H15.625C16.6553 12.6562 17.5 11.8115 17.5 10.7812V9.375C17.5 8.34473 16.6553 7.5 15.625 7.5H14.9756C14.9121 5.70801 14.6045 4.02344 12.8906 3.14453L13.8184 1.26953L12.8125 1.26465C12.8125 1.26465 8.96973 1.25 8.75 1.25ZM6.875 8.75C6.52832 8.75 6.25 9.02832 6.25 9.375C6.25 9.72168 6.52832 10 6.875 10C7.22168 10 7.5 9.72168 7.5 9.375C7.5 9.02832 7.22168 8.75 6.875 8.75ZM10.625 8.75C10.2783 8.75 10 9.02832 10 9.375C10 9.72168 10.2783 10 10.625 10C10.9717 10 11.25 9.72168 11.25 9.375C11.25 9.02832 10.9717 8.75 10.625 8.75ZM15 8.75H15.625C15.9766 8.75 16.25 9.02344 16.25 9.375V10.7812C16.25 11.1328 15.9766 11.4062 15.625 11.4062H15V8.75Z" fill="#0D6EFD"/>
</svg>
