<?xml version="1.0" encoding="UTF-8"?>
<svg width="14px" height="14px" viewBox="0 0 14 14" version="1.1" xmlns="http://www.w3.org/2000/svg" xmlns:xlink="http://www.w3.org/1999/xlink">
    <!-- Generator: Sketch 49.1 (51147) - http://www.bohemiancoding.com/sketch -->
    <title>Group 2</title>
    <desc>Created with Sketch.</desc>
    <defs></defs>
    <g id="Smartbot" stroke="none" stroke-width="1" fill="none" fill-rule="evenodd" stroke-linecap="round" stroke-linejoin="round">
        <g id="(5.1-SB)-Smartbot-veriable-management" transform="translate(-84.000000, -81.000000)" stroke="#8A959F" stroke-width="2">
            <g id="Group-31-Copy" transform="translate(78.000000, 75.000000)">
                <g id="Group-2" transform="translate(7.000000, 7.000000)">
                    <path d="M4.66628571,0 L4.59257143,0.374327249 L4.31057143,1.74400522 C3.85971429,1.91617862 3.45085714,2.16030508 3.08142857,2.44983051 L1.70314286,1.98898827 L1.33285714,1.874206 L1.14085714,2.20484746 L0.192,3.7912412 L0,4.12188266 L0.281142857,4.36772229 L1.34742857,5.27484485 C1.30885714,5.51211864 1.25914286,5.74682269 1.25914286,5.99608866 C1.25914286,6.24535463 1.30885714,6.48005867 1.34742857,6.71733246 L0.281142857,7.62445502 L0,7.87029465 L0.192,8.20093611 L1.14085714,9.78732986 L1.33285714,10.1188279 L1.70314286,10.003189 L3.08142857,9.54234681 C3.45085714,9.83187223 3.85971429,10.0759987 4.31057143,10.2481721 L4.59257143,11.6178501 L4.66628571,11.9921773 L5.052,11.9921773 L6.948,11.9921773 L7.33285714,11.9921773 L7.40742857,11.6178501 L7.68857143,10.2481721 C8.13942857,10.0759987 8.54828571,9.83187223 8.91771429,9.54234681 L10.296,10.003189 L10.6662857,10.1188279 L10.8591429,9.78732986 L11.8071429,8.20093611 L12,7.87029465 L11.718,7.62445502 L10.6517143,6.71733246 C10.6911429,6.48005867 10.74,6.24535463 10.74,5.99608866 C10.74,5.74682269 10.6911429,5.51211864 10.6517143,5.27484485 L11.718,4.36772229 L12,4.12188266 L11.8071429,3.7912412 L10.8591429,2.20484746 L10.6662857,1.874206 L10.296,1.98898827 L8.91771429,2.44983051 C8.54828571,2.16030508 8.13942857,1.91617862 7.68857143,1.74400522 L7.40742857,0.374327249 L7.33285714,0 L6.948,0 L5.052,0 L4.66628571,0 Z" id="Stroke-247"></path>
                    <path d="M7.71428571,5.99888247 C7.71428571,6.94455131 6.94628571,7.71205066 6,7.71205066 C5.05371429,7.71205066 4.28571429,6.94455131 4.28571429,5.99888247 C4.28571429,5.05321363 5.05371429,4.28571429 6,4.28571429 C6.94628571,4.28571429 7.71428571,5.05321363 7.71428571,5.99888247 Z" id="Stroke-248"></path>
                </g>
            </g>
        </g>
    </g>
</svg>