<svg xmlns="http://www.w3.org/2000/svg" width="159" height="130" viewBox="0 0 159 130">
    <defs>
        <linearGradient id="a" x1="50.005%" x2="50.005%" y1="100%" y2="0%">
            <stop offset="0%" stop-color="gray" stop-opacity=".25"/>
            <stop offset="54%" stop-color="gray" stop-opacity=".12"/>
            <stop offset="100%" stop-color="gray" stop-opacity=".1"/>
        </linearGradient>
        <linearGradient id="b" x1="50%" x2="50%" y1="99.993%" y2="-.102%">
            <stop offset="0%" stop-color="gray" stop-opacity=".25"/>
            <stop offset="54%" stop-color="gray" stop-opacity=".12"/>
            <stop offset="100%" stop-color="gray" stop-opacity=".1"/>
        </linearGradient>
        <linearGradient id="c" x1="50%" x2="50%" y1="100%" y2="0%">
            <stop offset="0%" stop-color="gray" stop-opacity=".25"/>
            <stop offset="54%" stop-color="gray" stop-opacity=".12"/>
            <stop offset="100%" stop-color="gray" stop-opacity=".1"/>
        </linearGradient>
        <linearGradient id="d" x1="50%" x2="50%" y1="100%" y2="0%">
            <stop offset="0%" stop-color="gray" stop-opacity=".25"/>
            <stop offset="54%" stop-color="gray" stop-opacity=".12"/>
            <stop offset="100%" stop-color="gray" stop-opacity=".1"/>
        </linearGradient>
        <linearGradient id="e" x1="50.003%" x2="50.003%" y1="100.024%" y2="-.001%">
            <stop offset="0%" stop-color="gray" stop-opacity=".25"/>
            <stop offset="54%" stop-color="gray" stop-opacity=".12"/>
            <stop offset="100%" stop-color="gray" stop-opacity=".1"/>
        </linearGradient>
    </defs>
    <g fill="none" fill-rule="evenodd">
        <path fill="#009688" fill-rule="nonzero" d="M149.787 62.318c-5.384 6.822-3.288 16.788.128 24.77 1.144 2.672 2.442 5.499 1.959 8.365-.59 3.505-3.73 6.066-7.025 7.425-6.003 2.476-13.194 1.887-18.713-1.535-4.768-2.958-8.185-7.766-13.035-10.588-8.124-4.726-18.45-2.942-27.264.312-6.237 2.302-13.054 5.295-19.25 2.889-4.36-1.693-7.375-5.813-9.018-10.18-.793-2.108-1.368-4.39-2.882-6.061-.9-.998-2.074-1.699-3.277-2.294-10.989-5.43-24.873-2.522-35.541-8.548-7.209-4.068-11.823-11.74-13.866-19.74-2.043-8-1.805-16.384-1.286-24.63.368-5.855 1.03-12.11 4.784-16.626C9.472 1.097 16.288-.676 22.447.227c6.16.903 11.745 4.147 16.656 7.961 6.14 4.767 11.833 10.704 19.371 12.635 5.133 1.315 10.534.596 15.827.347 8.851-.416 17.705.51 26.507 1.524 8.426.97 16.913 2.039 24.94 4.771 5.682 1.934 10.236 5.442 15.6 7.894 3.497 1.599 7.31 2.039 10.62 4.075 4.078 2.507 7.816 6.868 6.772 11.967-.994 4.862-6.096 7.296-8.953 10.917z" opacity=".1"/>
        <ellipse cx="92.87" cy="123.044" fill="#DEE3F3" fill-rule="nonzero" opacity=".5" rx="40.673" ry="6.832"/>
        <path fill="url(#a)" fill-rule="nonzero" d="M84.706 75.32h3.02v-2.196H63.02v2.196h3.02v2.196h-4.943v2.744h28.552v-2.744h-4.943z"/>
        <path fill="url(#b)" fill-rule="nonzero" d="M104.934 77.33c.213-2.562.16-5.139-.157-7.69a20.9 20.9 0 0 0-1.763-6.247c-1.59-3.332-3.854-5.142-5.84-6.123a10.99 10.99 0 0 0-4.274-1.165 1.92 1.92 0 0 0-3.8 0V51.16H78.668v-2.745h14.046a1.59 1.59 0 0 0 1.59-1.59v-14.39a1.59 1.59 0 0 0-1.59-1.59h-5.325V16.662a2.14 2.14 0 0 0 1.259-1.952v-.063-.063a2.143 2.143 0 0 0-4.284 0v.126a2.14 2.14 0 0 0 1.133 1.892v14.243H65.709V16.602a2.14 2.14 0 0 0 1.133-1.892v-.063-.063a2.143 2.143 0 0 0-4.284 0v.126a2.14 2.14 0 0 0 1.26 1.952v14.183h-5.796a1.59 1.59 0 0 0-1.59 1.59v14.388c0 .878.712 1.59 1.59 1.59h14.057v2.744H61.648v4.046a1.918 1.918 0 0 0-.415-.69l-.044-.048a1.92 1.92 0 0 0-3.28 1.36v.262c-1.51.08-2.987.478-4.334 1.167-1.989.984-4.25 2.794-5.84 6.129a20.9 20.9 0 0 0-1.763 6.241 37.255 37.255 0 0 0-.158 7.69c-4.405 3.657 1.113 8.97 1.113 8.97 4.52 0 4.418-7.503 4.368-8.784h.024s0-.063-.032-.18a28.106 28.106 0 0 1-.262-6.34 16.187 16.187 0 0 1 1.07-4.863 8.634 8.634 0 0 1 2.173-3.188 7.427 7.427 0 0 1 3.649-1.76v1.235a1.92 1.92 0 0 0 3.739.622v10.085H89.1v-9.865c.056.383.226.74.488 1.024l.052.055a1.92 1.92 0 0 0 3.28-1.36v-1.768a7.409 7.409 0 0 1 3.568 1.742 8.634 8.634 0 0 1 2.172 3.188c.608 1.56.97 3.204 1.073 4.875a28.106 28.106 0 0 1-.262 6.338c-.019.118-.032.181-.032.181h.024c-.05 1.28-.15 8.784 4.368 8.784-.01-.005 5.507-5.318 1.102-8.975z"/>
        <path fill="url(#c)" fill-rule="nonzero" d="M62.471 80.515v2.492h3.293v16.471h-3.843v3.844h10.433v-3.844h-1.647V83.007h3.843V80.263H62.471z"/>
        <path fill="url(#d)" fill-rule="nonzero" d="M75.647 80.515v2.492h4.943v16.471h-3.844v3.844h10.432v-3.844H85.53V83.007h2.196V80.263H75.647z"/>
        <rect width="36.864" height="17.095" x="56.941" y="31.575" fill="#009DAB" fill-rule="nonzero" rx="8.548"/>
        <path fill="#000" fill-rule="nonzero" d="M59.879 46.046h30.987v1H59.879z" opacity=".1"/>
        <path fill="#000" fill-rule="nonzero" d="M59.879 34.245h30.987v11.754H59.879z" opacity=".3"/>
        <circle cx="67.092" cy="40.369" r="4.274" fill="#000" fill-rule="nonzero" opacity=".1"/>
        <circle cx="67.092" cy="40.122" r="3" fill="#FFF" fill-rule="nonzero"/>
        <circle cx="83.654" cy="40.369" r="4.274" fill="#000" fill-rule="nonzero" opacity=".1"/>
        <circle cx="83.654" cy="40.122" r="3" fill="#FFF" fill-rule="nonzero"/>
        <path fill="#009DAB" fill-rule="nonzero" d="M72.168 48.67h6.409v3.741h-6.409z"/>
        <path fill="#009DAB" fill-rule="nonzero" d="M62.018 51.343h26.713v21.369H62.018zM87.393 72.712v2.136h-2.939v2.138H66.291v-2.138h-2.938v-2.136z"/>
        <path fill="#000" fill-rule="nonzero" d="M87.393 72.712v2.136h-2.939v2.138H66.291v-2.138h-2.938v-2.136z" opacity=".3"/>
        <path fill="#009DAB" fill-rule="nonzero" d="M61.482 76.986h27.781v2.671H61.482z"/>
        <path fill="#009DAB" fill-rule="nonzero" d="M62.818 79.657h11.754v2.671H62.818zM75.642 79.657h11.754v2.671H75.642zM62.285 98.355h10.151v3.739H62.285zM66.024 86.069v12.286h4.809V82.328h-4.81zM80.448 82.328v16.027h4.81V82.328zM76.71 98.355h10.151v3.739H76.71zM62.12 55.882v6.554a1.87 1.87 0 0 1-3.733-.145v-6.409a1.868 1.868 0 0 1 3.19-1.312l.044.045c.291.31.467.71.499 1.133-.003.037 0 .087 0 .134zM92.451 56.415v6.412a1.868 1.868 0 0 1-3.19 1.311l-.053-.055a1.865 1.865 0 0 1-.496-1.267v-6.401a1.87 1.87 0 0 1 3.739 0zM58.379 56.15v4.94c-1.32.23-2.55.824-3.553 1.713a8.395 8.395 0 0 0-2.114 3.101 15.741 15.741 0 0 0-1.05 4.723 27.06 27.06 0 0 0 .297 6.349h-5.334a36.468 36.468 0 0 1 .14-7.664c.252-2.101.83-4.15 1.715-6.073 1.548-3.246 3.75-5.009 5.683-5.964a10.494 10.494 0 0 1 4.216-1.125z"/>
        <path fill="#009DAB" fill-rule="nonzero" d="M47.693 85.534s-5.368-5.169-1.081-8.729h5.323s.567 8.729-4.242 8.729z"/>
        <path fill="#000" fill-rule="nonzero" d="M47.693 85.534s-5.368-5.169-1.081-8.729h5.323s.567 8.729-4.242 8.729zM66.291 54.547h18.163v13.889H66.291zM66.024 82.328h4.809v3.739h-4.809zM66.024 89.272h4.809v4.809h-4.809zM66.024 96.752h4.809v1.603h-4.809zM80.448 82.328h4.809v3.739h-4.809zM80.448 89.272h4.809v4.809h-4.809zM80.448 96.752h4.809v1.603h-4.809zM58.379 56.15v4.94c-1.32.23-2.55.824-3.553 1.713l-.663-5.51a10.494 10.494 0 0 1 4.216-1.143zM52.714 65.904a15.741 15.741 0 0 0-1.049 4.723l-4.906-1.312c.252-2.102.831-4.15 1.716-6.074l4.24 2.663z" opacity=".3"/>
        <path fill="#009DAB" fill-rule="nonzero" d="M92.367 56.15v4.94c1.32.23 2.55.824 3.552 1.713a8.395 8.395 0 0 1 2.115 3.101c.591 1.51.945 3.104 1.05 4.723a27.06 27.06 0 0 1-.297 6.349h5.342c.224-2.549.179-5.114-.134-7.653a20.335 20.335 0 0 0-1.716-6.074c-1.548-3.245-3.75-5.008-5.683-5.963a10.494 10.494 0 0 0-4.229-1.136z"/>
        <path fill="#009688" fill-rule="nonzero" d="M103.053 85.534s5.368-5.169 1.08-8.729h-5.322s-.567 8.729 4.242 8.729z"/>
        <path fill="#000" fill-rule="nonzero" d="M103.053 85.534s5.368-5.169 1.08-8.729h-5.322s-.567 8.729 4.242 8.729zM92.367 56.15v4.94c1.32.23 2.55.824 3.552 1.713l.664-5.51a10.494 10.494 0 0 0-4.216-1.143zM98.034 65.904c.591 1.51.945 3.104 1.05 4.723l4.906-1.312a20.335 20.335 0 0 0-1.716-6.074l-4.24 2.663z" opacity=".3"/>
        <path fill="#000" fill-rule="nonzero" d="M72.168 48.67h6.409v1h-6.409zM89.203 55.15v8.946a1.865 1.865 0 0 1-.496-1.267v-6.414c0-.47.177-.921.496-1.265zM62.112 55.738v6.698a1.863 1.863 0 0 1-.498 1.133v-8.965c.29.31.466.71.498 1.134zM63.353 72.712h24.04v1h-24.04z" opacity=".1"/>
        <path fill="#009DAB" fill-rule="nonzero" d="M62.818 79.657h11.754v1H62.818zM75.642 79.657h11.754v1H75.642z" opacity=".1"/>
        <path fill="#009DAB" fill-rule="nonzero" d="M64.13 15.755h1.839v15.82H64.13zM85.223 15.755h1.839v15.82h-1.839z"/>
        <circle cx="64.987" cy="15.878" r="2.086" fill="#000" fill-rule="nonzero" opacity=".1"/>
        <circle cx="64.987" cy="15.755" r="2.086" fill="#009DAB" fill-rule="nonzero"/>
        <circle cx="86.204" cy="15.878" r="2.086" fill="#000" fill-rule="nonzero" opacity=".1"/>
        <circle cx="86.204" cy="15.755" r="2.086" fill="#009DAB" fill-rule="nonzero"/>
        <path fill="#FFD037" fill-rule="nonzero" d="M127.082 69.868c0 .976.11 1.769.244 1.769s.244-.787.244-1.769c0-.98-.136-.524-.262-.524s-.226-.441-.226.524z"/>
        <path fill="#FFD037" fill-rule="nonzero" d="M125.726 71.033c.858.467 1.603.75 1.668.63.066-.12-.577-.593-1.435-1.05-.858-.456-.524-.125-.582 0-.058.126-.506-.047.349.42z"/>
        <path stroke="#535461" stroke-width=".81" d="M139.403 82.192s-1.894-6.22.355-10.797a9.54 9.54 0 0 0 .824-6.165 16.061 16.061 0 0 0-.901-2.892"/>
        <path fill="#009DAB" fill-rule="nonzero" d="M141.075 59.444c0 .763-1.425 2.974-1.425 2.974s-1.427-2.216-1.427-2.974c.024-.745.655-1.338 1.426-1.338.771 0 1.403.593 1.426 1.338zM143.433 63.667c-.427.64-2.867 1.745-2.867 1.745s.044-2.607.473-3.246a1.457 1.457 0 0 1 1.951-.376c.648.406.845 1.238.443 1.877zM143.33 70.883c-.703.342-3.385.105-3.385.105s1.398-2.228 2.101-2.57a1.467 1.467 0 0 1 1.442.06c.434.271.683.748.65 1.247a1.381 1.381 0 0 1-.808 1.158zM141.982 76.325c-.633.454-3.318.652-3.318.652s.989-2.423 1.616-2.877a1.465 1.465 0 0 1 1.452-.207c.486.195.821.633.873 1.14.05.507-.19 1-.629 1.283l.006.01zM137.573 65.56c.564.53 3.196 1.082 3.196 1.082s-.645-2.53-1.212-3.063a1.459 1.459 0 0 0-1.397-.365c-.5.132-.886.517-1.009 1.005-.122.487.038 1 .419 1.34h.003zM136.079 71.944c.703.343 3.385.105 3.385.105s-1.398-2.226-2.101-2.57c-.7-.325-1.541-.048-1.89.623-.35.672-.08 1.49.606 1.842zM135.508 78.342c.633.453 3.316.652 3.316.652s-.987-2.424-1.616-2.877a1.458 1.458 0 0 0-1.938.327 1.35 1.35 0 0 0 .242 1.889l-.004.01z"/>
        <path fill="#A8A8A8" fill-rule="nonzero" d="M127.754 83.264s5.93-.183 7.716-1.456c1.786-1.272 9.12-2.791 9.563-.75.443 2.041 8.92 10.148 2.217 10.203-6.704.055-15.553-1.05-17.337-2.128-1.784-1.078-2.16-5.869-2.16-5.869z"/>
        <path fill="#000" fill-rule="nonzero" d="M147.37 90.55c-6.692.055-15.552-1.05-17.336-2.128-1.36-.826-1.9-3.796-2.08-5.166h-.198s.376 4.783 2.16 5.87c1.784 1.086 10.643 2.182 17.336 2.127 1.931-.016 2.6-.703 2.563-1.721-.27.622-1.007 1.007-2.445 1.018z" opacity=".2"/>
        <path fill="#009DAB" fill-rule="nonzero" d="M82.747 29.825l18.53-5.79.705 2.254-18.531 5.79z"/>
        <path fill="#A8A8A8" fill-rule="nonzero" d="M109.528 111.748s-10.159-2.03-12.869-4.74c-2.71-2.71-14.899-7.451-16.266-4.064-1.367 3.387-18.286 14.899-6.774 16.932 11.512 2.034 27.091 2.71 30.478 1.354 3.387-1.356 5.43-9.482 5.43-9.482z"/>
        <path fill="#000" fill-rule="nonzero" d="M73.63 118.617c11.514 2.03 27.09 2.71 30.478 1.354 2.579-1.031 4.37-5.987 5.079-8.296l.338.07s-2.03 8.134-5.417 9.482c-3.387 1.349-18.964.677-30.478-1.353-3.325-.588-4.274-1.965-3.917-3.707.286 1.138 1.443 2.014 3.917 2.45z" opacity=".2"/>
        <path fill="url(#e)" fill-rule="nonzero" d="M132.088 23.174c-.181-.45-.47-.85-.84-1.165-2.725-2.484-7.136-1.731-10.52-3.248-.787-.349-1.574-.834-2.427-.7-1.183.186-2.282 1.532-3.313.934l.073.225-.073-.04.758 2.31c.29.886.598 1.8 1.165 2.537a6.643 6.643 0 0 0 1.605 11.048l.105.233.097.042c.225.516.393 1.056.501 1.608-.876.12-2.405 1.092-3.911 2.524l-3.01-.102a9.838 9.838 0 0 1-5.404-1.837l-8.996-6.467a3.012 3.012 0 0 0-1.724.761c-1.118-1.165-2.065-2.38-1.984-3.093 0 0-4.184-7.829-5.703-3.915-1.52 3.915 2.852 8.018 2.852 8.018l2.775 3.594a15.12 15.12 0 0 0-.207 1.905c3.41 3.914 15.403 7.456 15.403 7.456l1.868.09v.091a6.36 6.36 0 0 0-.168 1.496v.373c.095 6.243.95 25.354.95 25.354.165-.074.338-.142.525-.208l-.134 1.698s-7.986 1.117-13.881 3.355c-5.896 2.238-6.085 4.849-6.085 4.849v23.03c-1.684.862-4.342 1.998-5.703 1.392-1.48-.658-2.293-.104-2.44.473a.735.735 0 0 0 0 .349.593.593 0 0 0 .157.278c.57.559 12.932 5.407 15.784 4.66a1.97 1.97 0 0 0 .262-.087l.079-.04c.052-.023.105-.05.155-.078.05-.03.055-.04.084-.058.028-.019.086-.055.125-.09.04-.033.053-.047.08-.07.025-.024.073-.066.107-.1s.047-.055.07-.081c.024-.026.066-.074.095-.113.029-.04.042-.06.06-.09.019-.028.058-.083.084-.128.027-.044.034-.063.053-.094a1.719 1.719 0 0 0 .115-.239l.066-.157.034-.097c.02-.058.04-.116.058-.174l.026-.091a4.08 4.08 0 0 0 .05-.192l.018-.087c.016-.068.029-.139.042-.207v-.079c0-.076.024-.15.034-.225v-.066c0-.081.019-.162.024-.246v-.053c0-.089.005-.176.016-.262v-.037-.304a15.61 15.61 0 0 0-.368-3.306l.69-19.619c3.746.065 7.492-.066 11.224-.394l.41 9.361s0 6.153 2.098 8.95c1.79 2.392 3.86 12.976 4.418 15.98-.769 1.466-2.238 3.276-4.798 3.221 0 0-4.817-.417-4.544.908.007.035.018.07.031.102a.942.942 0 0 0 .052.11c.019.035.042.069.066.105l.016.021c.029.04.058.08.094.121l.105.116.032.031c.042.042.089.087.139.134 2.471 2.238 16.924 2.61 16.924 2.61v-.05-.052c0-.648-.094-4.046-.96-6.6h.2s-2.1-18.83-3.805-21.068c0 0-.453-9.928.572-16.15l.19-.07c4.792-1.788 5.134-6.199 4.64-9.444.908.291 1.446.49 1.446.49l-.047-.39.047.018s-.092-.593-.241-1.516c-.344-2.54-1.008-6.979-1.716-9.075a15.077 15.077 0 0 0-.326-1.155 19.708 19.708 0 0 1-.837-3.872 45.897 45.897 0 0 1-.293-5.134c.015-2.293.19-4.582.524-6.85.292-1.981.551-4.235.525-5.81a7.745 7.745 0 0 0-.115-1.636c-.263-1.162-1.375-1.918-2.54-2.398-.076-.032-.152-.055-.228-.084.029-.44.065-.94.113-1.467.282.196.632.267.968.197.5-.11.86-.525 1.18-.92 1.685-2.07 3.41-4.227 4.064-6.798.259-1.149.379-2.324.357-3.5v-.194a3.807 3.807 0 0 0-.139-1.286z"/>
        <path fill="#F7C4A7" fill-rule="nonzero" d="M116.743 33.264s2.552 3.83 2.007 5.654c-.546 1.823 6.018.73 6.018.73s.184-7.113 1.459-8.755c1.275-1.643-9.484 2.371-9.484 2.371zM99.873 35.728s-5.289-4.376-5.108-6.019c0 0-4.011-7.66-5.473-3.83-1.461 3.83 2.74 7.842 2.74 7.842l5.107 6.748 2.734-4.741z"/>
        <path fill="#535461" fill-rule="nonzero" d="M94.492 104.395s-4.927 3.1-6.929 2.19c-2.001-.91-2.736.549-2.188 1.094.549.546 12.402 5.29 15.138 4.56 2.737-.73 1.344-6.703 1.344-6.703l-7.365-1.141zM120.573 117.701s-1.186 5.017-5.289 4.925c0 0-6.202-.549-3.83 1.642 2.371 2.19 16.232 2.553 16.232 2.553s0-7.477-2.553-9.12c-2.553-1.642-4.56 0-4.56 0z"/>
        <path fill="#575988" fill-rule="nonzero" d="M113.096 82.328l.548 12.766s0 6.018 2.007 8.755c2.007 2.736 4.376 16.416 4.376 16.416h6.932s-2.007-18.42-3.647-20.611c0 0-.73-16.232 1.837-19.88l-12.053 2.554z"/>
        <path fill="#000" fill-rule="nonzero" d="M113.096 82.328l.548 12.766s0 6.018 2.007 8.755c2.007 2.736 4.376 16.416 4.376 16.416h6.932s-2.007-18.42-3.647-20.611c0 0-.73-16.232 1.837-19.88l-12.053 2.554z" opacity=".1"/>
        <path fill="#575988" fill-rule="nonzero" d="M127.505 70.836s4.197 10.03-3.466 12.95c-7.664 2.92-21.513 2.553-21.513 2.553l-.73 21.157s-8.571 1.094-8.755-1.643v-23.16s.184-2.553 5.838-4.741c5.654-2.188 13.304-3.277 13.304-3.277l.365-4.741 14.957.902z"/>
        <path fill="#000" fill-rule="nonzero" d="M120.786 37.793a8.729 8.729 0 0 1 4.284.606c1.118.47 2.193 1.21 2.437 2.345.289 1.346-.031 4.366-.399 6.918a47.652 47.652 0 0 0-.223 12.092c.19 1.677.449 3.149.803 3.789 1.094 2.007 2.188 11.491 2.188 11.491s-12.037-4.56-18.055-1.836c0 0-.821-18.696-.913-24.804-.071-4.722 5.927-10.121 7.934-10.305 1.175-.097.773-.176 1.944-.296z" opacity=".1"/>
        <path fill="#E14B5A" fill-rule="nonzero" d="M120.786 37.42a8.729 8.729 0 0 1 4.284.606c1.118.47 2.193 1.21 2.437 2.346.289 1.345-.031 4.365-.399 6.918a47.652 47.652 0 0 0-.223 12.092c.142 1.286.411 2.555.803 3.788.821 2.461 2.188 11.492 2.188 11.492s-12.037-4.56-18.055-1.837c0 0-.821-18.695-.913-24.803-.071-4.723 5.927-10.122 7.934-10.306 1.175-.089.773-.167 1.944-.296z"/>
        <path fill="#000" fill-rule="nonzero" d="M124.039 47.492l-12.96-.73s-.824-6.349 1.049-6.283l12.816.446s2.744 3.282-.905 6.567z" opacity=".1"/>
        <path fill="#E14B5A" fill-rule="nonzero" d="M124.039 47.127l-14.773-.73s-11.49-3.467-14.774-7.295c0 0 .184-6.748 3.83-7.113l8.63 6.328a9.316 9.316 0 0 0 5.176 1.797l12.816.446s2.744 3.283-.905 6.567z"/>
        <path fill="#000" fill-rule="nonzero" d="M124.676 34.085c.218-1.728 1.003-2.303 1.55-3.009 1.279-1.642-9.483 2.361-9.483 2.361.554.855 1.04 1.753 1.453 2.684.86.395 1.794.6 2.74.599 1.589.01 2.607-1.698 3.74-2.635z" opacity=".1"/>
        <circle cx="120.938" cy="29.982" r="6.567" fill="#F7C4A7" fill-rule="nonzero"/>
        <path fill="#000" fill-rule="nonzero" d="M116.793 25.38c-.701-.763-1.037-1.781-1.354-2.767l-.727-2.26c.99.586 2.044-.731 3.177-.912.813-.132 1.574.343 2.327.687 3.246 1.485 7.475.748 10.09 3.18.357.309.634.7.806 1.138.122.417.172.852.147 1.286.021 1.15-.093 2.3-.341 3.424-.622 2.516-2.28 4.625-3.896 6.65-.307.386-.65.788-1.134.9-.939.21-1.666-.805-2.028-1.694a18.037 18.037 0 0 1-1.049-3.673 4.796 4.796 0 0 0-.451-1.527c-.564-1.003-1.957-1.95-2.805-2.726-.847-.777-1.986-.856-2.762-1.706z" opacity=".1"/>
        <path fill="#632652" fill-rule="nonzero" d="M116.793 25.197c-.701-.764-1.037-1.782-1.354-2.768l-.727-2.259c.99.585 2.044-.732 3.177-.913.813-.131 1.574.344 2.327.687 3.246 1.485 7.475.748 10.09 3.18.357.309.634.7.806 1.139.122.417.172.852.147 1.285.021 1.151-.093 2.3-.341 3.424-.622 2.516-2.28 4.625-3.896 6.65-.307.387-.65.788-1.134.9-.939.21-1.666-.805-2.028-1.694a18.037 18.037 0 0 1-1.049-3.673 4.796 4.796 0 0 0-.433-1.548c-.564-1.002-1.957-1.95-2.804-2.726-.848-.776-2.005-.834-2.781-1.684z"/>
        <ellipse cx="122.672" cy="30.714" fill="#F7C4A7" fill-rule="nonzero" rx="1" ry="1.186"/>
        <path fill="#000" fill-rule="nonzero" d="M125.954 62.344s-.365 1.094-2.188.913c-1.823-.181-7.113-.548-7.113 0" opacity=".1"/>
        <path fill="#FFF" fill-rule="nonzero" d="M111.454 124.092a1.545 1.545 0 0 1-.525-.76c-.047.236.1.545.525.944 2.36 2.188 16.232 2.553 16.232 2.553v-.184c-.08 0-13.869-.37-16.232-2.553zM100.51 111.874c-2.736.73-14.589-4.011-15.137-4.56a.593.593 0 0 1-.153-.262.656.656 0 0 0 .153.633c.548.548 12.401 5.289 15.138 4.56 1.409-.376 1.72-2.142 1.694-3.766-.023 1.509-.39 3.046-1.694 3.395z" opacity=".5"/>
    </g>
</svg>
