<svg xmlns="http://www.w3.org/2000/svg" width="181" height="130" viewBox="0 0 181 130">
    <defs>
        <linearGradient id="a" x1="50.002%" x2="50.002%" y1="100.052%" y2=".007%">
            <stop offset="0%" stop-color="gray" stop-opacity=".25"/>
            <stop offset="54%" stop-color="gray" stop-opacity=".12"/>
            <stop offset="100%" stop-color="gray" stop-opacity=".1"/>
        </linearGradient>
    </defs>
    <g fill="none" fill-rule="evenodd">
        <path fill="#009DAB" fill-rule="nonzero" d="M2.11 70.74c2.849 12.18 8.88 22.707 18.413 27.817 19.813 10.605 64.494 5.134 97.84-1.149a76.359 76.359 0 0 0 43.421-24.821L2.11 70.74zM176.977 13.412H158.68a1.58 1.58 0 0 1 0-3.161h3.163a1.582 1.582 0 0 1 0-3.163h-2.258a1.582 1.582 0 0 1 0-3.163h9.55c-2.12-.985-4.596-1.686-7.45-2.054-26.04-3.343-35.337-1.13-38.617 1.15-4.046 2.806-8.56 4.87-13.384 5.866C93.618 12.2 63.572 16.189 36.34 7.61 22.804 3.342 12.746 10.55 6.715 22.592h173.438c-.226-3.5-.904-6.73-2.148-9.56a1.57 1.57 0 0 1-1.028.38zM.556 45.32a80.611 80.611 0 0 0 .71 21.248l160.641 5.876A75.48 75.48 0 0 0 173.07 55.42L.556 45.319zm63.536 15.156H60.93a1.58 1.58 0 0 1 0 3.162H42.632a1.58 1.58 0 1 1 0-3.162h3.163a1.582 1.582 0 0 1 0-3.163h-2.258a1.582 1.582 0 0 1 0-3.163h18.297a1.582 1.582 0 0 1 0 3.163h2.258a1.582 1.582 0 0 1 0 3.163zM180.162 22.697L4.78 26.965C2.646 32.45 1.24 38.645.583 45.075h176.506a75.023 75.023 0 0 0 2.549-11.544c.525-3.777.735-7.43.524-10.834zM36.188 36.676h-3.163a1.58 1.58 0 1 1 0 3.161H14.728a1.58 1.58 0 0 1 0-3.161h3.163a1.582 1.582 0 0 1 0-3.163h-2.258a1.582 1.582 0 0 1 0-3.163H33.93a1.582 1.582 0 0 1 0 3.163h2.258a1.582 1.582 0 0 1 0 3.163z" opacity=".1"/>
        <ellipse cx="92.678" cy="126.883" fill="#009DAB" fill-rule="nonzero" opacity=".1" rx="57.257" ry="3.099"/>
        <path fill="#009DAB" fill-rule="nonzero" d="M140.211 104.095s.901 1.18-.417 2.955c-1.318 1.774-2.404 3.283-1.97 4.394 0 0 1.988-3.308 3.612-3.354 1.623-.046.555-2.005-1.225-3.995z"/>
        <path fill="#000" fill-rule="nonzero" d="M140.211 104.095c.078.114.14.239.184.37 1.58 1.856 2.42 3.588.903 3.63-1.415.041-3.11 2.57-3.516 3.208.013.05.029.098.048.146 0 0 1.987-3.308 3.61-3.354 1.624-.046.55-2.01-1.229-4z" opacity=".1"/>
        <path fill="#FFD037" fill-rule="nonzero" d="M141.887 105.599c0 .415-.046.752-.103.752-.058 0-.105-.337-.105-.752 0-.416.059-.22.116-.22.058 0 .092-.196.092.22z"/>
        <path fill="#FFD037" fill-rule="nonzero" d="M142.462 106.094c-.365.2-.682.319-.71.268-.027-.05.247-.253.611-.451.365-.199.22-.055.248 0 .028.054.215-.015-.15.183z"/>
        <path fill="#009DAB" fill-rule="nonzero" d="M135.448 104.095s-.901 1.18.417 2.955c1.318 1.774 2.403 3.283 1.97 4.394 0 0-1.99-3.308-3.612-3.354-1.621-.046-.556-2.005 1.225-3.995z"/>
        <path fill="#000" fill-rule="nonzero" d="M135.448 104.095c-.079.114-.14.238-.184.37-1.579 1.856-2.421 3.588-.903 3.63 1.413.041 3.119 2.57 3.516 3.208-.013.049-.03.096-.047.146 0 0-1.99-3.308-3.612-3.354-1.621-.046-.551-2.01 1.23-4z" opacity=".1"/>
        <path fill="#FFD037" fill-rule="nonzero" d="M133.772 105.599c0 .415.046.752.103.752.058 0 .105-.337.105-.752 0-.416-.059-.22-.116-.22-.058 0-.092-.196-.092.22z"/>
        <path fill="#FFD037" fill-rule="nonzero" d="M133.196 106.094c.364.2.683.319.71.268.028-.05-.246-.253-.61-.451-.364-.199-.22-.055-.248 0-.028.054-.217-.015.148.183z"/>
        <path fill="#A8A8A8" fill-rule="nonzero" d="M134.06 111.294s2.52-.078 3.282-.618 3.879-1.189 4.067-.329c.19.86 3.789 4.316.943 4.339-2.847.023-6.614-.444-7.372-.905s-.92-2.487-.92-2.487z"/>
        <path fill="#000" fill-rule="nonzero" d="M142.4 114.392c-2.845.023-6.612-.443-7.37-.905-.578-.353-.808-1.615-.885-2.196h-.084s.164 2.032.917 2.495c.754.463 4.526.928 7.372.905.82 0 1.106-.3 1.09-.733-.115.266-.429.429-1.04.434z" opacity=".2"/>
        <path fill="#009DAB" fill-rule="nonzero" d="M44.356 112.217c.301-.246.52-.577.63-.95.08-.376-.08-.821-.44-.967-.403-.155-.835.126-1.163.408-.329.283-.701.606-1.13.545.448-.405.65-1.017.532-1.61a.676.676 0 0 0-.148-.328c-.224-.24-.63-.138-.9.05-.853.602-1.09 1.762-1.096 2.804-.085-.376-.013-.768-.014-1.149-.002-.38-.109-.82-.434-1.022a1.313 1.313 0 0 0-.656-.155c-.384-.014-.811.025-1.074.304-.328.35-.241.934.043 1.313.284.38.714.626 1.11.89.318.19.59.448.794.757.023.043.043.089.06.136h2.404a6.692 6.692 0 0 0 1.482-1.026z"/>
        <path stroke="#535461" stroke-width="2" d="M25.245 114.807s-2.308-7.831.432-13.594a12.37 12.37 0 0 0 1.004-7.762 20.718 20.718 0 0 0-1.098-3.641"/>
        <path fill="#009688" fill-rule="nonzero" d="M27.282 86.166c0 .96-1.737 3.744-1.737 3.744s-1.738-2.79-1.738-3.744a1.738 1.738 0 0 1 3.475 0zM30.154 91.483c-.52.806-3.493 2.197-3.493 2.197s.055-3.282.577-4.087a1.738 1.738 0 0 1 2.916 1.89zM30.03 100.568c-.857.431-4.125.133-4.125.133s1.704-2.805 2.56-3.237a1.738 1.738 0 1 1 1.565 3.104zM28.387 107.42c-.772.572-4.043.821-4.043.821s1.205-3.051 1.97-3.622a1.738 1.738 0 1 1 2.066 2.79l.007.012zM23.014 93.866c.688.668 3.895 1.362 3.895 1.362s-.786-3.186-1.477-3.855a1.738 1.738 0 1 0-2.421 2.493h.003zM21.194 101.904c.857.432 4.125.133 4.125.133s-1.704-2.804-2.56-3.237a1.738 1.738 0 0 0-1.565 3.104zM20.498 109.96c.771.57 4.041.82 4.041.82s-1.203-3.05-1.97-3.622a1.738 1.738 0 0 0-2.066 2.79l-.005.012z"/>
        <path fill="#A8A8A8" fill-rule="nonzero" d="M19.787 114.315s2.81-.558 3.559-1.302c.748-.744 4.12-2.045 4.494-1.116.374.929 5.056 4.09 1.871 4.648-3.184.558-7.49.744-8.425.371-.936-.372-1.499-2.601-1.499-2.601z"/>
        <path fill="#009DAB" fill-rule="nonzero" d="M27.282 86.166c0 .96-1.737 3.744-1.737 3.744s-1.738-2.79-1.738-3.744a1.738 1.738 0 0 1 3.475 0zM30.154 91.483c-.52.806-3.493 2.197-3.493 2.197s.055-3.282.577-4.087a1.738 1.738 0 0 1 2.916 1.89zM30.03 100.568c-.857.431-4.125.133-4.125.133s1.704-2.805 2.56-3.237a1.738 1.738 0 1 1 1.565 3.104zM28.387 107.42c-.772.572-4.043.821-4.043.821s1.205-3.051 1.97-3.622a1.738 1.738 0 1 1 2.066 2.79l.007.012zM23.014 93.866c.688.668 3.895 1.362 3.895 1.362s-.786-3.186-1.477-3.855a1.738 1.738 0 1 0-2.421 2.493h.003zM21.194 101.904c.857.432 4.125.133 4.125.133s-1.704-2.804-2.56-3.237a1.738 1.738 0 0 0-1.565 3.104zM20.498 109.96c.771.57 4.041.82 4.041.82s-1.203-3.05-1.97-3.622a1.738 1.738 0 0 0-2.066 2.79l-.005.012z"/>
        <path fill="#000" fill-rule="nonzero" d="M29.716 116.197c-3.183.558-7.49.744-8.425.373-.713-.284-1.208-1.641-1.404-2.277l-.1.022s.563 2.23 1.499 2.601c.935.371 5.243.186 8.425-.37.92-.165 1.182-.54 1.084-1.018-.074.31-.394.55-1.079.67z" opacity=".2"/>
        <path fill="url(#a)" fill-rule="nonzero" d="M119.047 43.166c.881-.985.537-2.52.537-2.52s-4.16-10.6-4.621-10.716c-.461-.117-1.618-2.79-1.618-2.79s-11.091-10.544-11.49-10.544c-.4 0-4.449-2.912-4.967-2.969-.519-.057-1.33-.35-2.196-.82-.867-.472-9.649.058-9.995.465-.346.408-1.97.7-1.97.7s-3.292.174-3.755.756c-.463.583-3.87.892-3.87.892s-1.675.623.6 2.28c-.729.115-1.58.203-2.446.266-.216.014-.436.03-.656.04h-.13a2.147 2.147 0 0 0-.808-1.084 6.772 6.772 0 0 0-.766-.357 6.12 6.12 0 0 1-1.136-.78 37.224 37.224 0 0 0-5.37-3.558 2.572 2.572 0 0 0-.958-.36c-.704-.067-1.332.427-2.022.593-1.211.29-2.432-.448-3.678-.46-1.556-.014-2.973 1.197-3.447 2.69-.176.554-.255 1.17-.634 1.608-.492.573-1.324.656-1.999.996a3.017 3.017 0 0 0-1.622 2.674v.013c0 .087 0 .174.015.261.077.703.402 1.351.64 2.017a8.343 8.343 0 0 1 .483 2.502v.425c0 .627-.022 1.26-.02 1.886V27.658c0 .084 0 .164.01.253v.088c0 .077.011.156.02.233 0 .033 0 .068.008.1 0 .076.018.15.028.224l.015.105c.011.074.024.147.037.221l.02.102c.016.079.036.164.056.236.008.028.013.055.02.083a4.626 4.626 0 0 0 3.161 3.202c.264.073.538.107.812.102.493-.012.964-.164 1.256-.5.072.081.143.163.218.245a9.837 9.837 0 0 0 15.976-2.134c.173-.037.343-.072.516-.105.298-.055.599-.108.9-.164l.291-.046.115-.02a71.546 71.546 0 0 1 3.94-.492l-4.061.504s-.985 4.729-1.27 5.253c-.283.523.986 1.396.986 1.396s1.098 1.34 1.098 1.749c0 .408 1.27 1.572 1.617 2.212.044.081.099.156.164.222-.257.099-.493.243-.7.425-.802.76-.535 2.093-.902 3.137-.23.656-.71 1.188-1.174 1.705a2.328 2.328 0 0 0-.413.573c-.06.14-.098.288-.11.44a2.155 2.155 0 0 0-.01.253v.03c0 .065 0 .129.013.193v.084c.08.686.313 1.349.384 2.035.07.686-.015 1.377.126 2.045.05.233.125.46.227.675l-2.35 2.626s-.015.13-.02.343c-1.96 1.627-4.99 4.696-3.909 7.403.119.296.228.58.329.852-.796.507-1.059 1.11.134 1.71.19.095.371.177.55.251.612 1.798.852 2.298 1.878.974.11-.145.238-.329.377-.527 1.445-.03 2.28-.698 2.28-.698s4.043-.233 5.089.409c.523.328 1.754.394 2.844.386-.014 1.174.04 2.348.165 3.515 0 0-.174 4.95.288 6 .463 1.049.72 2.854.72 2.854s-.777 1.747-.316 2.679c.461.932-.404 2.272-.404 2.272v3.435l.329-.023c-.025.232-.056.475-.097.706-.095.537-.238 1.018-.458 1.174-.578.415-.635 2.626-.635 2.626s-.924 2.68-.752 3.146c.172.467-1.097 1.397-.808 2.097.29.699.88 5.124 1.394 6.401.514 1.277-1.047.932-1.047.932l.46 3.32s.464 3.377.117 3.61c-.346.234-2.339 1.923-.968 2.912.107.077.215.148.328.215.006.154.003.307-.011.46-.026.26-.092.47-.238.492-.407.06-1.217.467-1.387.293-.17-.174-1.15.44-2.134.64l-.136.021-1.279-.328a8.998 8.998 0 0 0-5.778-.214s-.927.145-1.377.837c-.228.355-.328.854-.125 1.55.618 2.058 4.824 2.767 4.824 2.767s1.458.3 3.21.698h-.176a1.932 1.932 0 1 0 .656.12c1.97.453 4.152 1.004 5.038 1.393.66.249 1.336.452 2.024.608a1.92 1.92 0 0 0 3.575.804c2.68.56 5.262 1.034 5.262 1.034l4.312.07h.03a1.92 1.92 0 1 0 .026 0l6.528.107a1.927 1.927 0 1 0 3.775.53c0-.158-.02-.315-.059-.469l5.758.094 1.15-1.264c.063-.123.102-.258.112-.396.035-.415-.18-1.045-1.65-1.313-.11-.02-3.11.028-5.76.072v-1.04s-.075-.573-.12-1.248a14.689 14.689 0 0 1-.03-.609c.15.103.317.179.492.225 1.099.176 2.6-3.028 2.6-3.028s0-1.806.347-3.262c.346-1.456.985-6.349.985-6.349l1.388-5.881s.575-11.999.286-12.465c-.29-.466.348-1.282.348-1.282s.461-2.562-.232-3.435c-.692-.874.404-1.748.404-1.748s.289-3.029-.52-4.193c-.81-1.163.379-1.98.379-1.98l.289-4.717c1.213-1.222 2.31-8.502 2.368-10.075a6.47 6.47 0 0 1 .578-2.563s.808-1.223.924-2.04c.117-.815.985-2.502.985-2.502l1.502-5.593c.606-2.255.451-3.923.05-5.11a6.729 6.729 0 0 0-.186-.467zm-27.134.328c.924.583.635.757.924 1.107.289.35.057.29-.174.873-.232.582-.058.408.057 1.049.115.64.06.64.06.64l.288.04-.402 2.704c-.657.429-.957 1.25-1.093 2.096a58.122 58.122 0 0 1-1.128-1.52c.12-.267.097-.586.1-.886.013-.985.381-1.925.55-2.895a7.316 7.316 0 0 0-.093-2.973 4.517 4.517 0 0 0-.386-1.056c.374.25.849.545 1.297.828v-.007zm1.039 57.077s.73-.492 1.44-.94c.237 1.728.462 3.525.621 5.15-.254-.564-.431-.948-.431-.948-.261-.314-.417-.7-.447-1.107-.028-.633-1.183-2.148-1.183-2.148v-.007zM88.62 40.705c.164.023.397.232.617.481a17.392 17.392 0 0 0-.619-.482l.002.001zM78.048 62.254c-.667.21-2.925.179-4.268.1a205.53 205.53 0 0 0 1.444-2.515c.262.068.528.116.796.143l4.398-3.862a7.573 7.573 0 0 0 5.105-.033l.12.187c.05.082.104.164.164.256l-.11-.179s-1.698 1.011-1.525 1.478c.172.466-.23 1.63-.865 2.877-.164.312-.307.62-.445.93-1.438.135-4.148.408-4.814.618zm8.343 53.812l-.025-.461c.28-.06.463-.117.463-.117a18.17 18.17 0 0 0-.289-2.038c-.174-.7-.083-.467.593-.985.676-.519 0-6.402 0-6.402s.328-.408.848.64c.52 1.05 1.043 1.69 1.217 1.747.174.057-.695 1.224 0 2.33.43.716.724 1.506.865 2.33 0 0-.461 1.85.231 2.672.094.096.205.172.328.225v.468c0 .307 0 .57-.014.625a.231.231 0 0 1-.37.145c-.179-.117-1.313.144-1.236.874a5.372 5.372 0 0 1-.906.85l-1.574-.408-.131-2.495z"/>
        <path fill="#009688" fill-rule="nonzero" d="M72.214 55.726s-.55 4.506 3.811 4.967l.657-3.119-1.374-1.848-1.968-.666-1.126.666z"/>
        <path fill="#000" fill-rule="nonzero" d="M73.34 55.06l-1.126.664s-.55 4.506 3.811 4.967" opacity=".1"/>
        <path fill="#F8BDC5" fill-rule="nonzero" d="M80.127 30.25s-2.943.18-5.894.67a39.683 39.683 0 0 0-1.417.269c-1.546.318-2.954.732-3.775 1.26-.985.632-1.313-1.07-1.344-3.435-.013-.833.015-1.745.059-2.668.057-1.067.141-2.147.23-3.118.195-2.154.42-3.828.42-3.828s1.03 0 2.408-.048l.443-.016c.432-.017.89-.04 1.351-.067.218-.012.438-.025.657-.041a30.062 30.062 0 0 0 2.462-.266c.774-.125 1.403-.283 1.744-.493 1.56-.929 2.656 11.78 2.656 11.78z"/>
        <path fill="#474463" fill-rule="nonzero" d="M93.24 46.887l-.574 3.813s-1.252 1.56-1.088 2.426c.164.867 1.608 39.167 1.608 39.167s2.832 16.175 1.849 18.255c-.984 2.08-.058 6.933-.058 6.933l5.893-.924 1.97-70.71-9.6 1.04z"/>
        <path fill="#000" fill-rule="nonzero" d="M93.24 46.887l-.574 3.813s-1.252 1.56-1.088 2.426c.164.867 1.608 39.167 1.608 39.167s2.832 16.175 1.849 18.255c-.984 2.08-.058 6.933-.058 6.933l5.893-.924 1.97-70.71-9.6 1.04z" opacity=".1"/>
        <path fill="#575988" fill-rule="nonzero" d="M106.239 118.463c-.187.31-.172 1.222-.12 1.999.046.668.12 1.236.12 1.236v3.928s-6.297-2.195-9.763-4.506c-1.43-.954-1.837-1.84-1.758-2.55.115-1.009 1.214-1.667 1.758-1.667.518 0 2.157-.904 3.5-1.704a76.107 76.107 0 0 0 1.931-1.185s4.678 3.87 4.332 4.449z"/>
        <path fill="#000" fill-rule="nonzero" d="M106.239 118.463c-.187.31-.172 1.222-.12 1.999-1.4-.657-5.735-4.862-6.144-5.263a76.107 76.107 0 0 0 1.932-1.185s4.678 3.87 4.332 4.449z" opacity=".1"/>
        <path fill="#474463" fill-rule="nonzero" d="M119.18 49.544l-1.502 5.547s-.867 1.674-.985 2.483c-.118.81-.924 2.022-.924 2.022a6.402 6.402 0 0 0-.578 2.541c-.057 1.561-1.149 8.782-2.368 9.995l-.29 4.68s-1.148.807-.346 1.97c.803 1.161.52 4.159.52 4.159s-1.097.866-.403 1.733c.694.867.23 3.41.23 3.41s-.636.807-.347 1.27c.29.463-.285 12.363-.285 12.363l-1.389 5.833s-.637 4.854-.985 6.298c-.348 1.445-.346 3.234-.346 3.234s-1.502 3.178-2.6 3.006c-1.098-.173-6.411-5.374-6.411-5.374l.75-17.564s.635-7.452.231-8.896c-.404-1.445-.693-8.665-.693-8.665l-.809-11.38-8.079-12.71s-.586-3.698 1.088-4.794l.304-1.998.274-1.815 9.591-1.04 14.673-3.812s1.13.697 1.723 2.439c.406 1.174.561 2.828-.044 5.065z"/>
        <path fill="#FFC1C8" fill-rule="nonzero" d="M93.65 55.388s-6.816 8.371-6.527 6.032c.18-1.469-.752-3.263-1.477-4.397a13.64 13.64 0 0 0-.783-1.116s4.16-7.625 4.39-6.586c.074.328.555 1.082 1.174 1.942 1.305 1.802 3.224 4.125 3.224 4.125z"/>
        <path fill="#FFF" fill-rule="nonzero" d="M106.239 124.808v.82s-6.297-2.194-9.763-4.505c-1.43-.953-1.837-1.84-1.758-2.549 1.914.969 5.474 2.815 6.552 3.647.916.706 3.283 1.824 4.969 2.587z" opacity=".3"/>
        <circle cx="104.757" cy="126" r="1.925" fill="#474463" fill-rule="nonzero"/>
        <circle cx="85.089" cy="123.296" r="1.925" fill="#474463" fill-rule="nonzero"/>
        <path fill="#009DAB" fill-rule="nonzero" d="M113.65 123.98c-.01.138-.05.271-.113.393l-1.15 1.253-16.059-.258-4.319-.07s-9.09-1.655-10.86-2.427c-1.772-.771-8.735-2.183-8.735-2.183s-4.205-.706-4.822-2.746c-.209-.69-.104-1.185.125-1.536.448-.688 1.377-.832 1.377-.832a9.077 9.077 0 0 1 5.777.213l26.92 6.925.417.107s9.595-.18 9.789-.145c1.472.27 1.687.895 1.653 1.307z"/>
        <path fill="#FFF" fill-rule="nonzero" d="M113.65 123.98c-1.615-.21-4.432-.52-5.157-.22 0 0-5.123-.634-12.172 1.608l-4.312-.07s-9.09-1.655-10.86-2.427c-1.772-.771-8.735-2.183-8.735-2.183s-4.205-.706-4.822-2.746c-.209-.69-.104-1.185.125-1.536.287.837.84 2.05 1.723 2.39 1.387.533 7.088 1.62 7.088 1.62l11.283 2.762s6.515 1.414 9.05.493c1.04-.375 2.99-.708 4.925-.969l.417.107s9.595-.179 9.789-.144c1.477.279 1.692.904 1.658 1.316z" opacity=".3"/>
        <path fill="#474463" fill-rule="nonzero" d="M98.068 121.901a5.333 5.333 0 0 1-.09.72s-6.382.229-9.704-.263c-.918-.137-1.437-.43-1.694-.782a1.2 1.2 0 0 1-.12-1.149c.037-.107.083-.21.14-.308.247-.434.628-.74.836-.7.578.117 1.57-1.068 1.57-1.068-.08-.724 1.058-.985 1.236-.867a.231.231 0 0 0 .369-.144 6.68 6.68 0 0 0 .015-.62c0-.51-.015-1.15-.015-1.15l6.415.78.254 1.226c.233 1.093.558 2.595.698 3.109.097.398.127.809.09 1.216z"/>
        <path fill="#000" fill-rule="nonzero" d="M98.068 121.901a5.333 5.333 0 0 1-.09.72s-6.382.229-9.704-.263c-.918-.137-1.437-.43-1.694-.782.852-.05 1.96-.079 2.646.089.978.243 6.83.243 8.842.236z" opacity=".1"/>
        <path fill="#474463" fill-rule="nonzero" d="M86.593 120.115c.014.121-.04.24-.14.309-.807.624-4.683-.054-4.683-.054s-7.918-.493-9.101-1.3a.835.835 0 0 1-.261-.274c-.493-.89 1.29-2.384 1.444-2.384.154 0 2.283-.29 2.426-.318.985-.199 1.97-.81 2.134-.635.164.174.985-.232 1.385-.29.146-.02.214-.227.238-.492a5.472 5.472 0 0 0-.036-1.071l6.325 1.702.055 1.008.183 3.355.023.412a.15.15 0 0 1 .008.032z"/>
        <path fill="#000" fill-rule="nonzero" d="M81.777 120.37s-7.918-.493-9.102-1.3a.835.835 0 0 1-.26-.274c1.603.131 4.277.353 4.76.476.694.164 4.595.404 4.595.404h4.798l.023.412c.209 1.162-4.814.282-4.814.282z" opacity=".1"/>
        <circle cx="75.448" cy="123.296" r="1.925" fill="#474463" fill-rule="nonzero"/>
        <circle cx="96.359" cy="127.293" r="1.925" fill="#474463" fill-rule="nonzero"/>
        <path fill="#F8BDC5" fill-rule="nonzero" d="M76.777 57.806s-.364.656-.912 1.631c-1.314 2.318-3.676 6.426-4.692 7.726-1.444 1.849-1.328.117-2.889-3.754-1.158-2.879 2.408-6.173 4.316-7.67.656-.52 1.116-.82 1.116-.82l3.061 2.887z"/>
        <path fill="#FFC1C8" fill-rule="nonzero" d="M83.766 62.254s-4.794.404-5.718.693c-.925.288-4.91.114-5.253 0-.343-.115-7.165 1.444-4.044 3.003 3.12 1.56 5.088 0 5.088 0s4.044-.231 5.088.406c1.044.637 4.852.289 4.852.289l-.013-4.391z"/>
        <path fill="#000" fill-rule="nonzero" d="M73.806 26.9c.591 1.511.222 2.828-.474 4.179-1.743.328-3.383.78-4.296 1.365-2.6 1.676-.635-13.056-.635-13.056s1.257 0 2.851-.064c-.482 2.203 1.346 4.49 2.554 7.575z" opacity=".1"/>
        <path fill="#F8BDC5" fill-rule="nonzero" d="M73.954 26.571a9.848 9.848 0 1 1-19.697-.025 9.848 9.848 0 0 1 19.697.025z"/>
        <path fill="#000" fill-rule="nonzero" d="M119.227 44.474a2.255 2.255 0 0 1-1.313.911c-2.253.635-18.14 4.448-19.18 4.217-.917-.204-4.855-.77-5.763-.9l.274-1.815 9.591-1.04 14.673-3.812s1.126.698 1.718 2.44zM80.127 30.25c-1.878.112-3.748.32-5.605.623a.386.386 0 0 0-.01-.257l3.84-.475s-.56-9.027-2.625-11.19c.774-.126 1.403-.283 1.744-.493 1.56-.918 2.656 11.792 2.656 11.792z" opacity=".1"/>
        <path fill="#009DAB" fill-rule="nonzero" d="M75.103 16.692s3.41-.307 3.87-.885c.462-.578 3.756-.75 3.756-.75s1.617-.29 1.97-.695c.353-.405 9.126-.924 9.993-.46.866.462 1.675.75 2.196.808.52.06 4.563 2.945 4.967 2.945.403 0 11.49 10.457 11.49 10.457s1.149 2.658 1.618 2.773c.47.115 4.622 10.63 4.622 10.63s.578 2.54-1.674 3.177-18.14 4.449-19.18 4.217c-1.039-.231-5.95-.924-5.95-.924s.057 0-.058-.635c-.114-.635-.288-.463-.059-1.04.23-.579.463-.521.174-.867-.289-.347 0-.52-.924-1.099-.924-.577-1.97-1.213-2.022-1.385-.052-.172-.867-1.33-1.27-1.387-.404-.057-11.728-3.235-11.728-3.235l-2.658-.867s-1.27-.866-.985-1.385c.286-.519 1.27-5.212 1.27-5.212l4.062-.5s-.606-9.783-2.881-11.425c-2.275-1.64-.6-2.256-.6-2.256z"/>
        <path fill="#000" fill-rule="nonzero" d="M76.777 57.806s-.364.656-.912 1.631c-.086-3.013-2.193-3.598-3.265-3.698.656-.52 1.116-.82 1.116-.82l3.061 2.887z" opacity=".1"/>
        <path fill="#009DAB" fill-rule="nonzero" d="M73.954 35.91l.279 1.56s1.098 1.33 1.098 1.734c0 .403 1.27 1.559 1.618 2.194.348.635 1.56.752 1.097 1.85-.463 1.098-3.119 9.474-3.119 9.474l-2.715 3.004s4.506-.405 3.812 4.967l5.835-5.088 4.57-8.314s-4.449-8.434-4.62-9.126c-.173-.693-7.855-2.254-7.855-2.254z"/>
        <path fill="#000" fill-rule="nonzero" d="M87.464 38.8s3.697-2.6 3.697-2.89c0-.288-3.697 2.89-3.697 2.89zM93.65 42.035s1.97-.463 2.135-1.502c.164-1.039-2.134 1.502-2.134 1.502zM95.263 44.692s2.774-1.373 2.657-1.611c-.116-.238-2.657 1.611-2.657 1.611zM110.11 35.893s-1.15.75-.808 1.452c.341.703.807-1.452.807-1.452zM113.512 36.2s-3.273 3.118-2.533 3.178c.74.059 2.533-3.178 2.533-3.178zM106.067 84.553s4.216.809 4.331 1.098c.115.289-4.331-1.098-4.331-1.098zM107.568 87.325s2.252 1.387 2.31 1.79c.057.404-2.31-1.79-2.31-1.79zM107.048 90.445s.346 1.56.924 1.791c.578.231-.924-1.79-.924-1.79zM72.979 22.215c0 .016 0 .034-.008.05-.08.515-.29 1.071-.772 1.242a1.228 1.228 0 0 1-.875-.08c-.82-.36-1.55-1.224-2.427-1.015-.417.098-.71.415-.916.804-.144.28-.254.576-.328.882-.165.643-.296 1.342-.045 1.955.042.1.09.196.148.288.233.373.561.69.791 1.066.286.47.36 1.173-.085 1.495a.901.901 0 0 1-.765.107 4.55 4.55 0 0 1-.934-.414c-.581-.304-1.313-.492-1.865-.141-.19.118-.343.289-.525.414a1.894 1.894 0 0 1-1.269.264c-1.044-.107-1.434-.768-2.232-1.28-.584-.378-1.806-.539-2.154.233-.223.492.109 1.112-.11 1.615-.218.502-.912.656-1.234 1.122-.423.614-.03 1.502-.34 2.184a1.113 1.113 0 0 1-.189.288 9.878 9.878 0 0 1 13.969-13.952l.443-.016c.432-.016.89-.04 1.351-.067.109.23.194.472.254.72.179.732.218 1.49.117 2.236z" opacity=".1"/>
        <path fill="#474463" fill-rule="nonzero" d="M58.484 27.855c-.225.492.106 1.113-.11 1.613-.217.5-.916.657-1.235 1.123-.425.616-.03 1.504-.34 2.183-.354.777-1.424.898-2.245.671a4.596 4.596 0 0 1-3.063-2.864c-.556-1.584-.197-3.327-.341-5a8.294 8.294 0 0 0-.46-2.099c-.238-.656-.563-1.303-.64-2a2.974 2.974 0 0 1 1.605-2.924c.677-.328 1.509-.422 2.001-.985.378-.437.458-1.046.634-1.595.474-1.478 1.89-2.683 3.447-2.668 1.244.01 2.462.744 3.678.455.688-.164 1.313-.657 2.022-.586.34.053.665.174.957.356a37.293 37.293 0 0 1 5.37 3.53c.348.3.73.559 1.137.772.262.102.518.22.766.353.53.328.808.954.959 1.561.181.731.222 1.49.121 2.236-.072.527-.279 1.118-.78 1.293a1.226 1.226 0 0 1-.876-.084c-.82-.356-1.55-1.22-2.426-1.012-.715.164-1.06.975-1.247 1.685-.164.644-.299 1.343-.045 1.957.21.509.657.881.938 1.353.28.47.36 1.175-.086 1.495-.492.356-1.16-.023-1.7-.305-.578-.304-1.313-.493-1.863-.143-.189.118-.342.289-.525.415a1.91 1.91 0 0 1-1.268.263c-1.045-.107-1.436-.769-2.232-1.28-.586-.381-1.804-.542-2.153.23z"/>
        <path fill="#000" fill-rule="nonzero" d="M90.429 51.255c-.045.246-.383.274-.452.514-.656 2.316-2.1 4.399-4.33 5.252-.428-.675-.783-1.116-.783-1.116s4.16-7.624 4.391-6.585c.074.323.555 1.075 1.174 1.935z" opacity=".1"/>
        <path fill="#FFC1C8" fill-rule="nonzero" d="M90.552 49.66a7.626 7.626 0 1 1-7.626-7.625 7.598 7.598 0 0 1 7.626 7.624z"/>
        <path fill="#000" fill-rule="nonzero" d="M86.337 115.313l.056 1.007c-.669.148-1.939.342-2.68-.111-.956-.586-2.37-.729-3.665-1.527a5.472 5.472 0 0 0-.036-1.072l6.325 1.703zM97.28 117.58c-.044.224-.085.362-.085.362s-5.097-.522-6.566-1.226c0-.509-.015-1.149-.015-1.149l6.415.78.251 1.232z" opacity=".1"/>
        <path fill="#575988" fill-rule="nonzero" d="M96.13 94.662c-.347.924-.52 1.098-.173 1.56.348.46.172 2.888-.38 3.118-.55.23-2.625 1.617-2.625 1.617s1.149 1.502 1.183 2.134c.03.403.186.787.447 1.098 0 0 1.779 3.813 2.133 5.026.355 1.213.68 3.118.68 3.118s-.622 1.734-.192 2.717c.43.983 0 2.426 0 2.426s-6.206-.635-6.894-1.451c-.688-.816-.23-2.65-.23-2.65a6.636 6.636 0 0 0-.866-2.312c-.695-1.098.164-2.252 0-2.311-.165-.06-.695-.693-1.217-1.732-.522-1.039-.847-.637-.847-.637s.677 5.836 0 6.356c-.676.52-.768.289-.594.985.135.668.231 1.343.289 2.022 0 0-2.08.635-3.119 0-1.039-.635-2.603-.752-3.977-1.733-1.374-.982.622-2.658.969-2.89.346-.23-.115-3.58-.115-3.58l-.463-3.294s1.56.347 1.047-.924c-.512-1.27-1.105-5.66-1.394-6.354-.288-.692.985-1.618.81-2.08-.176-.46.75-3.118.75-3.118s.059-2.194.635-2.606c.22-.155.363-.634.458-1.164.101-.626.16-1.258.179-1.891 0 0 13.228-.924 15.365.346.962.571.895 1.624.493 2.689-.493 1.3-1.504 2.626-1.758 3.107-.478.886-.248 1.484-.595 2.408z"/>
        <path fill="#000" fill-rule="nonzero" d="M98.465 89.147c-1.641.461-3.828 1.139-4.184 1.528-.578.637-2.542-3.582-2.542-3.582s.116 3.172-2.484 1.845c-2.25-1.149-5.883-.998-6.822-.935.101-.626.161-1.258.18-1.891 0 0 13.228-.924 15.365.346.962.571.894 1.624.487 2.689z" opacity=".1"/>
        <path fill="#DCE6F2" fill-rule="nonzero" d="M91.739 54.224s1.149-1.387 1.387-.867 1.593 1.56 1.593 1.56.39 1.213 1.074 1.387c.684.174 5.825 7.105 5.825 7.105l-1.85 3.754-1.501 9.128s.065 1.445-.344 1.97c-.408.525-1.97.404-1.245 1.039.724.635 1.763 1.213 2.34 4.104.578 2.89 1.27 4.563 1.27 4.563s-5.429 1.387-6.007 2.022c-.578.635-2.542-3.582-2.542-3.582s.116 3.17-2.484 1.845c-2.6-1.324-7.048-.92-7.048-.92v-3.415s.867-1.33.405-2.253c-.46-.924.316-2.658.316-2.658s-.258-1.79-.721-2.83c-.463-1.039-.289-5.95-.289-5.95s-.351-3.178-.031-4.796a14.346 14.346 0 0 1 1.423-4.018c.635-1.238 1.037-2.393.865-2.856-.172-.463 1.525-1.464 1.525-1.464l.94 1.521.24.91s4.975-3.566 4.859-5.299z"/>
        <path fill="#FFC1C8" fill-rule="nonzero" d="M100.052 62.254s3.236 3.176 3.582 3.696c.346.52 1.507 3.226.005 4.046-1.502.821-7.386 2.087-7.97 1.65-.585-.437-4.104.493-4.104.493s-5.886 1.444-4.616-.925c1.27-2.368 4.276-1.97 4.276-1.97s4.855-.008 5.374-.492c.519-.484 4.432-1.523 3.545-3.663-.886-2.14-.092-2.835-.092-2.835z"/>
        <path fill="#000" fill-rule="nonzero" d="M90.552 76.465s-7.536 6.528-6.786 6.528 6.786-6.528 6.786-6.528zM95.578 79.123s-2.395.576-1.932.924c.463.348 1.932-.924 1.932-.924zM87.133 63.293s2.989.267 2.462 1.203c-.527.936-2.462-1.203-2.462-1.203zM85.27 91.35s-.406 1.175 0 1.805c.405.63 0 2.134 0 2.134v5.253s-.056 3.813 1.328 5.14L85.27 91.35zM81.312 107.718s.808 1.183.924 1.617c.117.433-.924-1.617-.924-1.617zM81.514 105.35s1.878-.347 2.167-.145c.289.202-2.167.144-2.167.144zM80.966 112.425s-.55.058.548.657c1.098.6 3.235 1.357 3.263 1.098.028-.26-3.811-1.755-3.811-1.755zM89.004 106.677c.194 0 2.612-.144 2.472.232-.14.375-2.472-.232-2.472-.232zM92.289 103.297s.548-.952.75-.548c.202.404-.75.548-.75.548zM90.552 49.66c0 .708-.098 1.414-.292 2.095-.319.29-.869.293-1.26.078-.46-.253-.76-.713-1.06-1.15-.298-.436-.638-.873-1.127-1.06-.62-.233-1.325 0-1.863.388-.539.387-.969.9-1.478 1.313-.508.413-1.157.748-1.805.646-.419-.064-.79-.3-1.15-.528-.491-.31-1.02-.793-1.56-1.001-.54-.209-.985.164-1.499.164-.408.148-.853.484-.771.91.044.157.115.306.21.439a1.847 1.847 0 0 1-.241 2.034 7.626 7.626 0 1 1 13.898-4.339l-.002.01z" opacity=".1"/>
        <path fill="#794F6A" fill-rule="nonzero" d="M77.457 50.383c-.409.148-.854.484-.773.911.045.157.117.305.211.438.48.856.074 2.083-.82 2.48a.727.727 0 0 1-.457.073.808.808 0 0 1-.328-.197 3.038 3.038 0 0 1-.947-1.633c-.141-.657-.054-1.353-.126-2.027-.073-.675-.304-1.34-.385-2.02a1.873 1.873 0 0 1 .104-.997c.108-.21.248-.401.413-.568.462-.514.943-1.04 1.174-1.691.366-1.037.1-2.359.901-3.119.371-.348.89-.477 1.35-.697.432-.23.847-.493 1.239-.787 1.485-1.02 3.29-1.805 5.057-1.444.706.17 1.381.448 2.004.82a22.532 22.532 0 0 1 3.283 2.207c.444.328.832.727 1.149 1.18.236.388.406.812.502 1.256.236.967.268 1.973.095 2.954-.164.962-.536 1.896-.551 2.873 0 .328.026.683-.143.965-.27.45-.942.492-1.402.243-.46-.25-.76-.713-1.057-1.15-.297-.436-.638-.872-1.127-1.058-.62-.235-1.325 0-1.863.386-.539.386-.967.9-1.478 1.313-.51.414-1.149.748-1.805.647-.419-.064-.79-.3-1.15-.527-.492-.312-1.02-.795-1.559-1.002-.538-.206-1 .171-1.511.171z"/>
        <path fill="#F8BDC5" fill-rule="nonzero" d="M94.974 62.254s-8.491 7.856-6.76 11.784c1.732 3.928 9.357-3.004 9.357-3.004l2.718-6.29-5.315-2.49z"/>
        <g fill="#000" fill-rule="nonzero" opacity=".1">
            <path d="M76.071 53.746a.722.722 0 0 1-.454.073.785.785 0 0 1-.329-.199c-.48-.43-.813-1-.948-1.631-.14-.665-.053-1.355-.125-2.03-.072-.674-.305-1.337-.384-2.018 0-.033 0-.068-.008-.102-.018.188-.015.377.008.565.079.68.312 1.336.384 2.019.072.682-.015 1.364.125 2.027.135.631.467 1.203.948 1.633a.798.798 0 0 0 .329.197c.155.026.315 0 .454-.072.706-.314 1.105-1.14 1.011-1.894a1.82 1.82 0 0 1-1.01 1.432zM91.092 47.058c-.164.962-.537 1.896-.55 2.872 0 .328.026.683-.144.965-.27.45-.94.493-1.4.243-.46-.25-.76-.71-1.06-1.149-.298-.438-.636-.873-1.127-1.058-.617-.234-1.323 0-1.861.387-.539.387-.969.898-1.478 1.313-.508.415-1.157.749-1.805.648-.419-.065-.79-.3-1.15-.528-.491-.312-1.02-.793-1.558-1.001-.539-.209-.985.164-1.499.164-.409.15-.854.484-.775.912a.68.68 0 0 0 .045.135c.16-.28.421-.489.73-.584.512 0 .965-.368 1.499-.164.533.203 1.071.689 1.559 1 .356.229.727.464 1.149.528.656.101 1.3-.228 1.805-.647.506-.419.941-.936 1.478-1.313.536-.378 1.244-.62 1.861-.386.493.186.83.627 1.128 1.059.297.431.599.89 1.058 1.149.46.26 1.131.207 1.4-.243.165-.282.14-.635.145-.965.013-.977.38-1.91.55-2.873.087-.494.122-.995.105-1.497-.01.346-.046.691-.105 1.033z"/>
        </g>
        <path fill="#000" fill-rule="nonzero" d="M84.807 22.277s-3.119 5.662 1.149 8.55c4.268 2.89 4.68 2.6 4.68 2.6s-.06.693 0 .867c.059.174 1.149.576 1.149.576s1.328 2.134 3.233 3.063c1.906.93 2.254 3.119 2.254 3.119s0 .752.985 1.444c.985.693 1.743 2.715 1.743 2.715v1.85c0 .289.346 1.149-.404 1.24-.75.093-.116 1.821-.116 1.821s-.808.985-.636 1.445c.173.46-.346 1.385-.346 1.385s-.635.924-.578 1.098c.058.174-.692.81-.52 1.213.172.404-.865.924-.693 1.387.173.463-.738.693-.738.693l-2.497 5.778s5.252 1.149 6.608 4.042l6.622-12.131s3.696-9.07 3.813-9.647c.116-.578-.81-2.657-.81-2.657L105.2 34.52l-6.76-9.532s-5.372-11.434-13.633-2.712z" opacity=".1"/>
        <path fill="#000" fill-rule="nonzero" d="M91.476 24.666s-8.115 2.847-3.84 5.736c4.273 2.89 4.679 2.599 4.679 2.599s-.058.694 0 .866c.057.173 1.149.578 1.149.578s1.33 2.134 3.235 3.063c1.906.929 2.254 3.119 2.254 3.119s0 .751.984 1.444c.985.693 1.734 2.715 1.734 2.715v1.848c0 .29.346 1.15-.406 1.243-.751.093-.114 1.82-.114 1.82s-.81.985-.636 1.443c.174.458-.346 1.387-.346 1.387s-.635.924-.578 1.098c.058.174-.694.81-.52 1.213.174.404-.867.924-.693 1.387.174.463-.74.693-.74.693l-2.495 5.776s4.327.223 5.692 3.118l7.536-11.199s3.698-9.069 3.813-9.646c.115-.578-.806-2.664-.806-2.664l-4.506-8.208-10.278-5.928s3.143-12.226-5.118-3.501z" opacity=".1"/>
        <path fill="#009DAB" fill-rule="nonzero" d="M85.27 22.277s-3.119 5.662 1.149 8.55c4.267 2.89 4.68 2.6 4.68 2.6s-.058.693 0 .867c.057.174 1.148.576 1.148.576s1.33 2.134 3.236 3.063c1.905.93 2.253 3.119 2.253 3.119s0 .752.985 1.444c.985.693 1.742 2.715 1.742 2.715v1.85c0 .289.346 1.149-.406 1.24-.751.093-.115 1.821-.115 1.821s-.809.985-.635 1.445c.174.46-.346 1.385-.346 1.385s-.635.924-.578 1.098c.058.174-.694.81-.52 1.213.174.404-.867.924-.693 1.387.174.463-.74.693-.74.693l-2.495 5.778s5.243 1.149 6.607 4.042l6.621-12.131s3.698-9.07 3.813-9.647c.115-.578-.81-2.657-.81-2.657l-4.505-8.207-6.758-9.529S93.53 13.555 85.27 22.277z"/>
        <g fill="#000" fill-rule="nonzero" opacity=".1">
            <path d="M51.15 25.12a8.237 8.237 0 0 0-.46-2.1c-.238-.657-.563-1.304-.64-2.002v-.062c-.017.175-.017.35 0 .525.077.698.402 1.34.64 2.001.245.677.399 1.383.46 2.1.023.269.033.541.036.82.005-.435 0-.86-.036-1.282zM56.8 32.313c-.353.775-1.425.898-2.246.67a4.606 4.606 0 0 1-3.063-2.863 6.779 6.779 0 0 1-.328-2.185c-.01.905.025 1.798.328 2.646a4.607 4.607 0 0 0 3.063 2.864c.82.227 1.893.106 2.245-.67.15-.33.135-.71.129-1.084a1.692 1.692 0 0 1-.129.622zM72.747 21.522c-.07.525-.279 1.116-.78 1.292a1.228 1.228 0 0 1-.874-.082c-.82-.358-1.551-1.221-2.428-1.013-.715.164-1.058.974-1.247 1.686-.137.45-.196.92-.176 1.39.032-.314.09-.625.176-.929.189-.71.532-1.515 1.247-1.686.877-.206 1.6.657 2.428 1.013.271.136.583.166.875.084.5-.176.709-.767.78-1.294.045-.335.061-.674.049-1.012-.008.184-.025.369-.05.551zM68.225 28.21c-.492.356-1.16-.024-1.7-.308-.578-.303-1.313-.492-1.863-.142-.189.118-.342.288-.525.415a1.89 1.89 0 0 1-1.268.263c-1.045-.107-1.436-.769-2.232-1.28-.584-.377-1.805-.538-2.153.234a1.4 1.4 0 0 0-.068.71.924.924 0 0 1 .068-.247c.35-.773 1.569-.612 2.153-.235.796.512 1.187 1.174 2.232 1.28a1.9 1.9 0 0 0 1.268-.264c.183-.125.336-.295.525-.414.555-.344 1.285-.164 1.863.143.54.283 1.205.657 1.7.306.29-.207.358-.575.294-.938a.758.758 0 0 1-.294.476zM58.374 29.007c-.225.515-.916.657-1.235 1.121-.238.345-.218.775-.21 1.207-.003-.263.07-.522.21-.744.319-.464 1.01-.607 1.235-1.123.078-.224.1-.464.062-.699a.926.926 0 0 1-.062.238z"/>
        </g>
    </g>
</svg>
