<svg xmlns="http://www.w3.org/2000/svg" width="173" height="130" viewBox="0 0 173 130">
    <defs>
        <linearGradient id="a" x1="50.016%" x2="50.016%" y1="99.982%" y2=".001%">
            <stop offset="0%" stop-color="gray" stop-opacity=".25"/>
            <stop offset="54%" stop-color="gray" stop-opacity=".12"/>
            <stop offset="100%" stop-color="gray" stop-opacity=".1"/>
        </linearGradient>
        <linearGradient id="b" x1="50.028%" x2="50.028%" y1="99.976%" y2="-.106%">
            <stop offset="0%" stop-color="gray" stop-opacity=".25"/>
            <stop offset="54%" stop-color="gray" stop-opacity=".12"/>
            <stop offset="100%" stop-color="gray" stop-opacity=".1"/>
        </linearGradient>
        <linearGradient id="c" x1="49.927%" x2="49.927%" y1="99.961%" y2="-.078%">
            <stop offset="0%" stop-color="gray" stop-opacity=".25"/>
            <stop offset="54%" stop-color="gray" stop-opacity=".12"/>
            <stop offset="100%" stop-color="gray" stop-opacity=".1"/>
        </linearGradient>
        <linearGradient id="d" x1="50%" x2="50%" y1="99.99%" y2="0%">
            <stop offset="0%" stop-color="gray" stop-opacity=".25"/>
            <stop offset="54%" stop-color="gray" stop-opacity=".12"/>
            <stop offset="100%" stop-color="gray" stop-opacity=".1"/>
        </linearGradient>
        <linearGradient id="e" x1="49.97%" x2="49.97%" y1="100.035%" y2="0%">
            <stop offset="0%" stop-color="gray" stop-opacity=".25"/>
            <stop offset="54%" stop-color="gray" stop-opacity=".12"/>
            <stop offset="100%" stop-color="gray" stop-opacity=".1"/>
        </linearGradient>
        <linearGradient id="f" x1="50.021%" x2="50.021%" y1="99.979%" y2="-.046%">
            <stop offset="0%" stop-color="gray" stop-opacity=".25"/>
            <stop offset="54%" stop-color="gray" stop-opacity=".12"/>
            <stop offset="100%" stop-color="gray" stop-opacity=".1"/>
        </linearGradient>
        <linearGradient id="g" x1="50.024%" x2="50.024%" y1="78.348%" y2="21.348%">
            <stop offset="0%" stop-color="gray" stop-opacity=".25"/>
            <stop offset="54%" stop-color="gray" stop-opacity=".12"/>
            <stop offset="100%" stop-color="gray" stop-opacity=".1"/>
        </linearGradient>
        <linearGradient id="h" x1="50.001%" x2="50.001%" y1="99.927%" y2=".101%">
            <stop offset="0%" stop-color="gray" stop-opacity=".25"/>
            <stop offset="54%" stop-color="gray" stop-opacity=".12"/>
            <stop offset="100%" stop-color="gray" stop-opacity=".1"/>
        </linearGradient>
        <linearGradient id="i" x1="49.988%" x2="49.988%" y1="99.782%" y2="0%">
            <stop offset="0%" stop-color="gray" stop-opacity=".25"/>
            <stop offset="54%" stop-color="gray" stop-opacity=".12"/>
            <stop offset="100%" stop-color="gray" stop-opacity=".1"/>
        </linearGradient>
        <linearGradient id="j" x1="50.032%" x2="50.032%" y1="100%" y2=".02%">
            <stop offset="0%" stop-color="gray" stop-opacity=".25"/>
            <stop offset="54%" stop-color="gray" stop-opacity=".12"/>
            <stop offset="100%" stop-color="gray" stop-opacity=".1"/>
        </linearGradient>
        <linearGradient id="k" x1="50%" x2="50%" y1="100%" y2="0%">
            <stop offset="0%" stop-color="gray" stop-opacity=".25"/>
            <stop offset="54%" stop-color="gray" stop-opacity=".12"/>
            <stop offset="100%" stop-color="gray" stop-opacity=".1"/>
        </linearGradient>
        <linearGradient id="l" x1="50.004%" x2="50.004%" y1="100%" y2="-.007%">
            <stop offset="0%" stop-color="gray" stop-opacity=".25"/>
            <stop offset="54%" stop-color="gray" stop-opacity=".12"/>
            <stop offset="100%" stop-color="gray" stop-opacity=".1"/>
        </linearGradient>
        <linearGradient id="m" x1="49.994%" x2="49.994%" y1="99.899%" y2="-.124%">
            <stop offset="0%" stop-color="gray" stop-opacity=".25"/>
            <stop offset="54%" stop-color="gray" stop-opacity=".12"/>
            <stop offset="100%" stop-color="gray" stop-opacity=".1"/>
        </linearGradient>
        <linearGradient id="n" x1="49.975%" x2="49.975%" y1="99.987%" y2="-.029%">
            <stop offset="0%" stop-color="gray" stop-opacity=".25"/>
            <stop offset="54%" stop-color="gray" stop-opacity=".12"/>
            <stop offset="100%" stop-color="gray" stop-opacity=".1"/>
        </linearGradient>
        <linearGradient id="o" x1="50.04%" x2="50.04%" y1="99.997%" y2="-.18%">
            <stop offset="0%" stop-color="gray" stop-opacity=".25"/>
            <stop offset="54%" stop-color="gray" stop-opacity=".12"/>
            <stop offset="100%" stop-color="gray" stop-opacity=".1"/>
        </linearGradient>
        <linearGradient id="p" x1="50.04%" x2="50.04%" y1="99.797%" y2="-.19%">
            <stop offset="0%" stop-color="gray" stop-opacity=".25"/>
            <stop offset="54%" stop-color="gray" stop-opacity=".12"/>
            <stop offset="100%" stop-color="gray" stop-opacity=".1"/>
        </linearGradient>
        <linearGradient id="q" x1="49.828%" x2="49.828%" y1="100%" y2="0%">
            <stop offset="0%" stop-color="gray" stop-opacity=".25"/>
            <stop offset="54%" stop-color="gray" stop-opacity=".12"/>
            <stop offset="100%" stop-color="gray" stop-opacity=".1"/>
        </linearGradient>
        <linearGradient id="r" x1="49.939%" x2="49.939%" y1="99.889%" y2="-.222%">
            <stop offset="0%" stop-color="gray" stop-opacity=".25"/>
            <stop offset="54%" stop-color="gray" stop-opacity=".12"/>
            <stop offset="100%" stop-color="gray" stop-opacity=".1"/>
        </linearGradient>
        <linearGradient id="s" x1="50.007%" x2="50.007%" y1="100.021%" y2=".095%">
            <stop offset="0%" stop-color="gray" stop-opacity=".25"/>
            <stop offset="54%" stop-color="gray" stop-opacity=".12"/>
            <stop offset="100%" stop-color="gray" stop-opacity=".1"/>
        </linearGradient>
        <linearGradient id="t" x1="49.986%" x2="49.986%" y1="100.005%" y2="0%">
            <stop offset="0%" stop-color="gray" stop-opacity=".25"/>
            <stop offset="54%" stop-color="gray" stop-opacity=".12"/>
            <stop offset="100%" stop-color="gray" stop-opacity=".1"/>
        </linearGradient>
        <linearGradient id="u" x1="49.783%" x2="49.783%" y1="100.118%" y2="0%">
            <stop offset="0%" stop-color="gray" stop-opacity=".25"/>
            <stop offset="54%" stop-color="gray" stop-opacity=".12"/>
            <stop offset="100%" stop-color="gray" stop-opacity=".1"/>
        </linearGradient>
        <linearGradient id="v" x1="49.791%" x2="49.791%" y1="100.035%" y2="0%">
            <stop offset="0%" stop-color="gray" stop-opacity=".25"/>
            <stop offset="54%" stop-color="gray" stop-opacity=".12"/>
            <stop offset="100%" stop-color="gray" stop-opacity=".1"/>
        </linearGradient>
        <linearGradient id="w" x1="51.108%" x2="51.108%" y1="100.087%" y2="0%">
            <stop offset="0%" stop-color="gray" stop-opacity=".25"/>
            <stop offset="54%" stop-color="gray" stop-opacity=".12"/>
            <stop offset="100%" stop-color="gray" stop-opacity=".1"/>
        </linearGradient>
        <linearGradient id="x" x1="49.981%" x2="49.981%" y1="100.109%" y2=".574%">
            <stop offset="0%" stop-color="gray" stop-opacity=".25"/>
            <stop offset="54%" stop-color="gray" stop-opacity=".12"/>
            <stop offset="100%" stop-color="gray" stop-opacity=".1"/>
        </linearGradient>
        <linearGradient id="y" x1="50%" x2="50%" y1="100.006%" y2="0%">
            <stop offset="0%" stop-color="gray" stop-opacity=".25"/>
            <stop offset="54%" stop-color="gray" stop-opacity=".12"/>
            <stop offset="100%" stop-color="gray" stop-opacity=".1"/>
        </linearGradient>
        <linearGradient id="z" x1="49.993%" x2="49.993%" y1="66.72%" y2="32.72%">
            <stop offset="0%" stop-color="gray" stop-opacity=".25"/>
            <stop offset="54%" stop-color="gray" stop-opacity=".12"/>
            <stop offset="100%" stop-color="gray" stop-opacity=".1"/>
        </linearGradient>
        <linearGradient id="A" x1="49.997%" x2="49.997%" y1="100.025%" y2="0%">
            <stop offset="0%" stop-color="gray" stop-opacity=".25"/>
            <stop offset="54%" stop-color="gray" stop-opacity=".12"/>
            <stop offset="100%" stop-color="gray" stop-opacity=".1"/>
        </linearGradient>
        <linearGradient id="B" x1="49.996%" x2="49.996%" y1="99.974%" y2="-.014%">
            <stop offset="0%" stop-color="gray" stop-opacity=".25"/>
            <stop offset="54%" stop-color="gray" stop-opacity=".12"/>
            <stop offset="100%" stop-color="gray" stop-opacity=".1"/>
        </linearGradient>
        <linearGradient id="C" x1="49.713%" x2="49.713%" y1="100%" y2="0%">
            <stop offset="0%" stop-color="gray" stop-opacity=".25"/>
            <stop offset="54%" stop-color="gray" stop-opacity=".12"/>
            <stop offset="100%" stop-color="gray" stop-opacity=".1"/>
        </linearGradient>
        <linearGradient id="D" x1="49.888%" x2="49.888%" y1="100%" y2="-.036%">
            <stop offset="0%" stop-color="gray" stop-opacity=".25"/>
            <stop offset="54%" stop-color="gray" stop-opacity=".12"/>
            <stop offset="100%" stop-color="gray" stop-opacity=".1"/>
        </linearGradient>
        <linearGradient id="E" x1="50.033%" x2="50.033%" y1="99.858%" y2="-.134%">
            <stop offset="0%" stop-color="gray" stop-opacity=".25"/>
            <stop offset="54%" stop-color="gray" stop-opacity=".12"/>
            <stop offset="100%" stop-color="gray" stop-opacity=".1"/>
        </linearGradient>
        <linearGradient id="F" x1="50.083%" x2="50.083%" y1="100%" y2="0%">
            <stop offset="0%" stop-color="gray" stop-opacity=".25"/>
            <stop offset="54%" stop-color="gray" stop-opacity=".12"/>
            <stop offset="100%" stop-color="gray" stop-opacity=".1"/>
        </linearGradient>
        <linearGradient id="G" x1="50.074%" x2="50.074%" y1="99.959%" y2="0%">
            <stop offset="0%" stop-color="gray" stop-opacity=".25"/>
            <stop offset="54%" stop-color="gray" stop-opacity=".12"/>
            <stop offset="100%" stop-color="gray" stop-opacity=".1"/>
        </linearGradient>
        <linearGradient id="H" x1="50.009%" x2="50.009%" y1="100.128%" y2=".043%">
            <stop offset="0%" stop-color="gray" stop-opacity=".25"/>
            <stop offset="54%" stop-color="gray" stop-opacity=".12"/>
            <stop offset="100%" stop-color="gray" stop-opacity=".1"/>
        </linearGradient>
        <linearGradient id="I" x1="49.992%" x2="49.992%" y1="100.132%" y2=".132%">
            <stop offset="0%" stop-color="gray" stop-opacity=".25"/>
            <stop offset="54%" stop-color="gray" stop-opacity=".12"/>
            <stop offset="100%" stop-color="gray" stop-opacity=".1"/>
        </linearGradient>
    </defs>
    <g fill="none" fill-rule="evenodd">
        <path fill="#009DAB" fill-rule="nonzero" d="M98.624 18.149c-10.536-.365-20.57-3.77-30.15-7.494C58.891 6.93 49.401 2.799 39.118.833c-6.613-1.271-14.178-1.45-19.506 2.1-5.126 3.414-6.786 9.315-7.676 14.78-.671 4.115-1.065 8.447.771 12.3 1.276 2.675 3.54 4.923 5.105 7.484 5.448 8.916 1.597 19.91-4.306 28.615-2.767 4.082-5.982 7.983-8.119 12.324-2.137 4.342-3.125 9.327-1.255 13.762 1.852 4.399 6.269 7.696 11.053 10.018 9.716 4.716 21.161 6.065 32.33 6.83 24.714 1.692 49.56.96 74.34.225 9.17-.27 18.38-.545 27.402-1.964 5.01-.789 10.182-2.04 13.82-5.06 4.616-3.834 5.76-10.325 2.666-15.132-5.19-8.063-19.533-10.065-23.165-18.718-1.996-4.763.054-10.068 2.956-14.485 6.225-9.476 16.657-17.79 17.206-28.62.378-7.44-4.638-14.89-12.393-18.41-8.127-3.69-19.4-3.226-25.393 2.88-6.178 6.29-17.032 8.711-26.331 8.387z" opacity=".1"/>
        <path fill="#E8E9ED" fill-rule="nonzero" d="M0 20.117h42.243v42.279H0zM130.629 20.117h42.243v42.279h-42.243z"/>
        <path fill="#009DAB" fill-rule="nonzero" d="M23.667 5.218l-.422-.432a.088.088 0 0 0-.067-.029c-.025 0-.05.01-.066.03l-2.914 2.932-1.062-1.06a.091.091 0 0 0-.133 0l-.425.425a.095.095 0 0 0 0 .136l1.338 1.338c.072.08.172.129.278.137a.443.443 0 0 0 .279-.132l3.195-3.208a.103.103 0 0 0 0-.137h-.001z" opacity=".5"/>
        <path fill="#009DAB" fill-rule="nonzero" d="M21.12 2.424a4.3 4.3 0 0 1 1.64 8.272 4.294 4.294 0 0 1-5.215-1.584 4.302 4.302 0 0 1 .535-5.428 4.271 4.271 0 0 1 3.04-1.26zm0-.67a4.97 4.97 0 0 0-4.59 3.071 4.977 4.977 0 0 0 1.077 5.421 4.967 4.967 0 0 0 5.417 1.077 4.974 4.974 0 0 0 3.066-4.596 4.973 4.973 0 0 0-4.97-4.972z" opacity=".5"/>
        <path fill="#009DAB" fill-rule="nonzero" d="M56.293 19.12l-.531-.544a.11.11 0 0 0-.083-.036.107.107 0 0 0-.085.036l-3.667 3.698-1.337-1.336a.114.114 0 0 0-.083-.036.117.117 0 0 0-.084.036l-.536.536a.117.117 0 0 0 0 .171l1.683 1.681c.091.1.217.162.352.171a.558.558 0 0 0 .348-.162l4.02-4.047a.129.129 0 0 0 0-.163l.003-.005z" opacity=".8"/>
        <path fill="#009DAB" fill-rule="nonzero" d="M53.086 15.6a5.418 5.418 0 0 1 2.07 10.422 5.41 5.41 0 0 1-6.572-1.995 5.42 5.42 0 0 1 .673-6.84 5.37 5.37 0 0 1 3.829-1.586zm0-.841a6.258 6.258 0 0 0-6.256 6.26c0 3.458 2.8 6.261 6.256 6.261a6.258 6.258 0 0 0 6.255-6.26 6.251 6.251 0 0 0-6.256-6.26v-.001z" opacity=".8"/>
        <path fill="#009DAB" fill-rule="nonzero" d="M151.75 2.424a4.3 4.3 0 0 1 1.64 8.272 4.294 4.294 0 0 1-5.215-1.584 4.302 4.302 0 0 1 .534-5.428 4.271 4.271 0 0 1 3.041-1.26zm0-.67a4.97 4.97 0 0 0-4.592 3.071 4.977 4.977 0 0 0 1.078 5.421 4.967 4.967 0 0 0 5.417 1.077 4.974 4.974 0 0 0 3.067-4.596 4.973 4.973 0 0 0-4.97-4.972z" opacity=".5"/>
        <path fill="#009DAB" fill-rule="nonzero" d="M119.557 15.6a5.418 5.418 0 0 1 2.082 10.42 5.41 5.41 0 0 1-6.574-1.991 5.42 5.42 0 0 1 .672-6.841 5.38 5.38 0 0 1 3.828-1.587h-.008zm.008-.841a6.258 6.258 0 0 0-6.255 6.26c0 3.458 2.8 6.261 6.255 6.261a6.258 6.258 0 0 0 6.256-6.26c0-1.663-.66-3.256-1.835-4.431a6.251 6.251 0 0 0-4.429-1.83h.008z" opacity=".8"/>
        <path fill="#009DAB" fill-rule="nonzero" d="M86.164 25.536a7.16 7.16 0 0 1 2.73 13.773 7.15 7.15 0 0 1-8.682-2.639 7.163 7.163 0 0 1 .89-9.038 7.106 7.106 0 0 1 5.062-2.096zm0-1.115c-4.568 0-8.27 3.706-8.27 8.278 0 4.572 3.702 8.278 8.27 8.278s8.271-3.706 8.271-8.278a8.28 8.28 0 0 0-2.422-5.854 8.266 8.266 0 0 0-5.849-2.424z"/>
        <path fill="#F3F5F7" fill-rule="nonzero" d="M29.548 31.199h47.076v47.116H29.548zM96.019 31.199h47.076v47.116H96.019z"/>
        <path fill="#000" fill-rule="nonzero" d="M4.221 27.623h15.702v1.746H4.221zM138.231 27.623h15.702v1.746h-15.702z" opacity=".1"/>
        <path stroke="#535461" stroke-width=".6" d="M114.14 100.75s4.079-7.233 10.222-9.316a12.572 12.572 0 0 0 6.368-4.767 21.289 21.289 0 0 0 1.879-3.387"/>
        <path fill="#009DAB" fill-rule="nonzero" d="M136.471 81.949c-.7.68-3.96 1.383-3.96 1.383s.8-3.24 1.5-3.922a1.769 1.769 0 0 1 2.46 2.538zM134.627 87.81c-.957.191-4.07-.992-4.07-.992s2.431-2.28 3.388-2.474a1.768 1.768 0 0 1 .687 3.467h-.005zM127.913 94.156c-.922-.326-3.017-2.916-3.017-2.916s3.256-.745 4.172-.425a1.768 1.768 0 0 1-1.155 3.341zM121.76 97.81c-.964-.163-3.468-2.364-3.468-2.364s3.08-1.282 4.042-1.124a1.766 1.766 0 1 1-.575 3.488zM127.834 84.287c0 .977 1.765 3.807 1.765 3.807s1.764-2.83 1.764-3.806a1.767 1.767 0 1 0-3.532 0l.003-.001zM120.683 88.656c.292.932 2.823 3.105 2.823 3.105s.84-3.229.549-4.16a1.767 1.767 0 1 0-3.372 1.055zM114.315 93.851c.13.968 2.257 3.537 2.257 3.537s1.373-3.04 1.245-4.007a1.768 1.768 0 0 0-2.83-1.165c-.5.386-.756 1.01-.672 1.635z"/>
        <path fill="#26344A" fill-rule="nonzero" d="M136.471 81.949c-.7.68-3.96 1.383-3.96 1.383s.8-3.24 1.5-3.922a1.769 1.769 0 0 1 2.46 2.538zM134.627 87.81c-.957.191-4.07-.992-4.07-.992s2.431-2.28 3.388-2.474a1.768 1.768 0 0 1 .687 3.467h-.005zM127.913 94.156c-.922-.326-3.017-2.916-3.017-2.916s3.256-.745 4.172-.425a1.768 1.768 0 0 1-1.155 3.341zM121.76 97.81c-.964-.163-3.468-2.364-3.468-2.364s3.08-1.282 4.042-1.124a1.766 1.766 0 1 1-.575 3.488zM127.834 84.287c0 .977 1.765 3.807 1.765 3.807s1.764-2.83 1.764-3.806a1.767 1.767 0 1 0-3.532 0l.003-.001zM120.683 88.656c.292.932 2.823 3.105 2.823 3.105s.84-3.229.549-4.16a1.767 1.767 0 1 0-3.372 1.055zM114.315 93.851c.13.968 2.257 3.537 2.257 3.537s1.373-3.04 1.245-4.007a1.768 1.768 0 0 0-2.83-1.165c-.5.386-.756 1.01-.672 1.635z" opacity=".25"/>
        <path stroke="#535461" stroke-width=".6" d="M114.374 100.606s.803-8.265 5.574-12.662A12.6 12.6 0 0 0 123.84 81c.232-1.272.348-2.562.346-3.855"/>
        <path fill="#009DAB" fill-rule="nonzero" d="M127.178 74.36c-.364.906-3.06 2.87-3.06 2.87s-.581-3.285-.216-4.191a1.767 1.767 0 1 1 3.276 1.321zM127.865 80.468c-.797.562-4.126.746-4.126.746s1.302-3.076 2.095-3.636a1.765 1.765 0 0 1 2.416.458c.55.782.38 1.859-.385 2.432zM124.296 88.992c-.977.081-3.938-1.442-3.938-1.442s2.67-2 3.641-2.08a1.766 1.766 0 0 1 1.774 2.52c-.275.576-.84.96-1.477 1.002zM120.145 94.832c-.946.245-4.127-.756-4.127-.756s2.295-2.42 3.24-2.667a1.768 1.768 0 0 1 .887 3.421v.002zM120.228 80.002c.395.893 3.154 2.77 3.154 2.77s.47-3.304.077-4.197a1.766 1.766 0 1 0-3.231 1.432v-.005zM115.458 86.893c.651.733 3.839 1.695 3.839 1.695s-.54-3.295-1.184-4.028a1.765 1.765 0 0 0-2.493-.162 1.769 1.769 0 0 0-.162 2.495z"/>
        <path fill="#009688" fill-rule="nonzero" d="M111.742 94.228c.51.832 3.495 2.32 3.495 2.32s.026-3.338-.489-4.171a1.765 1.765 0 0 0-2.429-.58 1.769 1.769 0 0 0-.58 2.43h.003z"/>
        <path fill="#000" fill-rule="nonzero" d="M35.624 41.255h15.702v1.746H35.624zM64.559 56.607h9.374v1.746h-9.374zM64.559 68.327h13.882v1.746H64.559zM35.624 47.41h15.702v1.746H35.624zM106.282 41.255h15.702v1.746h-15.702zM106.282 47.41h15.702v1.746h-15.702z" opacity=".1"/>
        <path fill="#009DAB" fill-rule="nonzero" d="M83.94 35.133l.439-.577c.422.415.99.649 1.582.652.742 0 1.292-.363 1.292-.952 0-.638-.527-1.058-1.989-1.058v-.664c1.302 0 1.79-.428 1.79-.993 0-.512-.437-.831-1.087-.831-.506.015-.99.213-1.36.557l-.468-.557a2.846 2.846 0 0 1 1.864-.725c1.125 0 1.954.54 1.954 1.489 0 .668-.489 1.104-1.192 1.346v.035c.754.163 1.385.663 1.385 1.444 0 1.03-.976 1.647-2.129 1.647-.98-.002-1.652-.375-2.082-.813z"/>
        <path fill="#009DAB" fill-rule="nonzero" d="M120.076 20.12c0-.313.028-.712.044-1.025h-.04c-.18.277-.383.553-.565.828l-1.303 1.672h3.458v.672h-4.35v-.57l2.597-3.421h.955v5.44h-.796V20.12z" opacity=".8"/>
        <path fill="#009DAB" fill-rule="nonzero" d="M150.059 8.452l.294-.402c.285.28.668.436 1.067.438.524 0 .936-.313.936-.826 0-.513-.363-.79-.902-.79a1.378 1.378 0 0 0-.769.226l-.306-.197.124-1.924h2.279v.53h-1.742l-.096 1.054a1.6 1.6 0 0 1 .676-.144c.747 0 1.356.385 1.356 1.235 0 .85-.713 1.348-1.483 1.348a2 2 0 0 1-1.434-.548z" opacity=".5"/>
        <path fill="#009688" fill-rule="nonzero" d="M56.511 46.158h58.192v58.241H56.511z" opacity=".1"/>
        <path fill="#FFF" fill-rule="nonzero" d="M58.464 43.388h58.192v58.241H58.464z"/>
        <path fill="#009688" fill-rule="nonzero" d="M64.559 49.839h46.002v1.746H64.559z" opacity=".5"/>
        <path fill="#000" fill-rule="nonzero" d="M64.559 62.467h29.292v1.746H64.559zM64.559 74.189H92.98v1.746H64.559zM64.559 80.049h38.743v1.746H64.559z" opacity=".1"/>
        <path fill="#3ACC6C" fill-rule="nonzero" d="M102.148 62.622l-.2-.207a.049.049 0 0 0-.033-.013.044.044 0 0 0-.031.013l-1.389 1.401-.506-.507a.052.052 0 0 0-.032-.013.047.047 0 0 0-.031.013l-.204.204a.046.046 0 0 0 0 .065l.638.637a.203.203 0 0 0 .134.065.205.205 0 0 0 .132-.063l1.522-1.53a.052.052 0 0 0 0-.065z" opacity=".5"/>
        <path fill="#3ACC6C" fill-rule="nonzero" d="M100.935 61.286a2.051 2.051 0 0 1 .787 3.949 2.05 2.05 0 0 1-2.49-.756 2.054 2.054 0 0 1 1.703-3.193zm0-.318a2.372 2.372 0 0 0-1.676 4.047 2.367 2.367 0 0 0 4.043-1.678 2.368 2.368 0 0 0-2.367-2.365v-.004zM102.148 74.342l-.2-.205a.042.042 0 0 0-.033-.013.04.04 0 0 0-.031.013l-1.389 1.4-.506-.506a.046.046 0 0 0-.032-.014.042.042 0 0 0-.031.014l-.204.202a.046.046 0 0 0 0 .065l.638.64a.203.203 0 0 0 .134.064.213.213 0 0 0 .132-.063l1.522-1.532a.052.052 0 0 0 0-.065z" opacity=".5"/>
        <path fill="#3ACC6C" fill-rule="nonzero" d="M100.935 73.016a2.051 2.051 0 0 1 .787 3.949 2.05 2.05 0 0 1-2.49-.756 2.054 2.054 0 0 1 1.703-3.193zm0-.326a2.372 2.372 0 0 0-1.677 4.046 2.367 2.367 0 0 0 4.044-1.675 2.37 2.37 0 0 0-2.367-2.37z" opacity=".5"/>
        <ellipse cx="83.426" cy="127.463" fill="#009688" fill-rule="nonzero" opacity=".1" rx="11.624" ry="1.952"/>
        <path fill="#000" fill-rule="nonzero" d="M96.177 75.233c-.11-.223-.977-3.095-.977-3.095l-1.672-4.247s-1.014-5.59-2.527-4.195c-1.514 1.394.813 4.74.813 4.74s.956 2.444.907 2.933c-.049.489.532 2.28.532 2.28l-.188 1.03c-.246-.016-.406-.016-.406-.016s-.15.215-.293.23a.135.135 0 0 1-.071-.01c-.163-.073-.702-.059-.977-.059a2.186 2.186 0 0 1-.73-.234c-.095-.19-.63-.302-1.103-.365-.36-.896-.866-1.768-.936-2.703a1.169 1.169 0 0 1 .143-.736.92.92 0 0 1 .108-.134c.132-.134.293-.25.44-.375.072-.062.14-.125.203-.19 1.242-1.206 1.045-3.073-.082-4.365-1.302-1.494-7.175-4.708-8.953-1.955-.247.385-.255.83-.325 1.256a5.238 5.238 0 0 1-1.403 2.77c-.59.627-1.363 1.205-1.701 1.916l-.012-.026c-.08.154-.14.318-.176.488-.17.866.412 1.698.718 2.54.104.286.18.582.225.883l.02-.185c.074.43.1.867.076 1.303-2.132.437-2.134 4.115-2.134 4.115s-.262 1.466-.218 1.99c.044.522.044 1.666.044 1.945 0 .278-.264 1.989-.293 2.194-.038.227-.438 1.312.529 1.556.067.018.138.033.211.046.041.878.118 2.72.05 3.128 0 0 .352 2.473.644 3.095.187.368.405.72.651 1.05-.02.151-.071.296-.148.426-.148.217-.072.394.177.47-.007.076-.017.16-.029.255-.106.955-.265 2.85 0 3.81.373 1.317.394 1.755.394 1.755 0 .215.052.425.153.614.163.22.44 2.26.44 2.59 0 .328.745 3.29.525 3.992-.22.703-.044 1.69-.044 1.69s-.132 1.733-.285 2.106c-.153.373-.22 6.385.022 7.942.24 1.558.395 2.853.395 2.853s-.163 1.426-.023 1.63c.14.203.373 1.382.197 1.448-.176.065-.262.549-.262.549.093.141.193.278.3.409a1.653 1.653 0 0 1-.199-.085c.07.1.174.236.301.386l-.119 1.577a.264.264 0 0 0 .196.277 2.187 2.187 0 0 0 2.178-.617c1.095-1.12 1.465-.965 1.667-1.646.02-.073.039-.143.053-.212a.712.712 0 0 0-1.007-.798c.07-.489.125-1.025.071-1.333-.109-.635-.088-2.303-.088-2.303l-.153-7.983s.285-1.579.614-2.193c.329-.614.285-2.77.285-2.77l.373-7.065.37-3.422s.35-1.184.789.132c0 0-.241 2.654-.13 3.291.11.637.262 3.73.153 4.41-.11.681-.593 4.41-.285 5.354.307.943.635 2.084.57 2.457-.066.373-.285 8.471-.285 8.471s.59 1.558.153 2.063c-.438.505-.022 2.523-.022 2.523s.052.038.144.092l-.013.163-.137 1.814a.266.266 0 0 0 .195.277 2.19 2.19 0 0 0 2.178-.617c1.096-1.12 1.465-.966 1.667-1.645.02-.074.04-.145.055-.214a.714.714 0 0 0-1.173-.687 1.111 1.111 0 0 1-.086.066l-.043.028c.11-.502.269-1.357.194-1.761-.11-.593.109-2.392.109-2.392s.636-2.15.651-3.005c.015-.856.176-6.843.176-6.843s-.021-2.786.067-3.465c.088-.68.787-6.56 1.49-8.309.538-1.346.779-4.775.636-6.517l-.025-.247c.858-.645.95-1.708.95-1.708s-.79-1.521-1.55-2.165c-.76-.643-.937-1.754-.907-2.224a1.156 1.156 0 0 0-.262-.788s-.352-1.14-.586-1.258a.163.163 0 0 1-.05-.039c-.164-.173-.038-.663-.038-.663v-.015c.026-.114.197-.85.141-1.04-.055-.188.03-1.169.03-1.169s.556-1.666.469-2.983c-.088-1.316 1.139-1.2 1.139-1.2l3.791-.04h.431a3.18 3.18 0 0 0 .489-.523c.296.056.601-.019.838-.205.804-.736.705-2.142.596-2.369zm-17.63 11.404l.027-.667.148.127c.045.175.045.359 0 .534a.57.57 0 0 1-.326.371.363.363 0 0 0-.053.033l-.038-.381c.155-.01.241-.018.241-.018v.001z" opacity=".1"/>
        <path fill="url(#a)" fill-rule="nonzero" d="M92.768 76.528s2.159 1.39 2.976.652c.817-.738.716-2.162.605-2.387-.11-.224-.99-3.116-.99-3.116l-1.697-4.282S92.63 61.76 91.09 63.16c-1.54 1.399.83 4.778.83 4.778s.977 2.465.922 2.958c-.056.494.54 2.302.54 2.302l-.614 3.33z"/>
        <path fill="url(#b)" fill-rule="nonzero" d="M88.743 126.735c-.017.07-.034.141-.057.215-.2.685-.58.53-1.693 1.658-.567.6-1.418.84-2.214.622a.267.267 0 0 1-.199-.278l.14-1.83.067-.881s1.773.498 2.676-.132c.03-.021.059-.042.087-.067l.026-.021a.724.724 0 0 1 1.167.714z"/>
        <path fill="url(#c)" fill-rule="nonzero" d="M83.18 126.044c-.014.07-.034.142-.055.215-.2.686-.58.53-1.693 1.658a2.24 2.24 0 0 1-2.213.624.266.266 0 0 1-.2-.28l.14-1.83.068-.88s1.772.498 2.674-.133c.031-.021.059-.042.088-.067l.026-.02a.722.722 0 0 1 1.166.713z"/>
        <path fill="url(#d)" fill-rule="nonzero" d="M2.559.059l.073.95C1.613 2.018.402.518.044.02.977.501 2.559.06 2.559.06z" opacity=".1" transform="translate(78.786 126.26)"/>
        <path fill="url(#e)" fill-rule="nonzero" d="M2.681.608L2.816.52c-.931 1.404-2.311.756-2.741.505L.142.143S1.914.642 2.818.011c-.072.344-.137.597-.137.597z" opacity=".1" transform="translate(84.646 126.098)"/>
        <path fill="url(#f)" fill-rule="nonzero" d="M90.157 100.14c-.713 1.77-1.426 7.698-1.515 8.384-.09.686-.067 3.494-.067 3.494l-.185 6.901c-.022.864-.668 3.03-.668 3.03s-.223 1.816-.112 2.412c.11.596-.29 2.168-.29 2.168l.135-.088c-1.115 1.68-2.875.419-2.875.419s-.423-2.035.022-2.543c.444-.508-.155-2.079-.155-2.079s.221-8.162.29-8.538c.068-.377-.254-1.527-.58-2.478-.325-.952.178-4.712.29-5.398.112-.686-.046-3.804-.163-4.446-.117-.642.134-3.318.134-3.318-.446-1.327-.803-.132-.803-.132l-.356 3.473-.367 7.13s.046 2.168-.29 2.787c-.335.619-.623 2.212-.623 2.212l.163 8.051s-.023 1.682.09 2.324c.112.642-.246 2.3-.246 2.3-1.247 2.92-3.256-.243-3.256-.243s.088-.488.267-.554c.18-.065-.067-1.26-.2-1.466-.134-.205.021-1.629.021-1.629s-.155-1.303-.4-2.877c-.246-1.574-.178-7.631-.023-8.007.154-.377.29-2.118.29-2.118s-.178-.996.045-1.705c.223-.708-.535-3.693-.535-4.025 0-.333-.29-2.389-.446-2.607a1.304 1.304 0 0 1-.163-.619s-.023-.443-.402-1.77c-.277-.977-.114-2.88 0-3.84.039-.358.071-.584.071-.584s12.79-2.058 13.303-1.592c.12.108.2.489.246 1.02.144 1.737-.101 5.196-.647 6.551z"/>
        <path fill="url(#g)" fill-rule="nonzero" d="M.024.36c.06 0 1.465.365 1.991.045S.025.36.025.36z" opacity=".1" transform="translate(85.297 109.969)"/>
        <path fill="url(#h)" fill-rule="nonzero" d="M.129.263s1.953.694 2.05.334C2.278.237.13.263.13.263z" opacity=".1" transform="translate(85.297 110.783)"/>
        <path fill="url(#i)" fill-rule="nonzero" d="M.033.207s1.009.09 1.559.603S.032.207.032.207z" opacity=".1" transform="translate(79.437 110.458)"/>
        <path fill="url(#j)" fill-rule="nonzero" d="M75.8 85.754s.163 3.083.075 3.627c0 0 .356 2.493.651 3.126.266.506.58.985.936 1.43l.876-6.118-.204-2.095-2.334.03z"/>
        <ellipse cx="85.01" cy="68.308" fill="url(#k)" fill-rule="nonzero" rx="3.431" ry="3.407"/>
        <path fill="url(#l)" fill-rule="nonzero" d="M83.228 69.901s-1.07 2.079-2.14 3.053c-1.069.974 6.418 2.079 6.595 2.079.177 0-1.336-4.423-1.07-4.954.268-.531-3.385-.178-3.385-.178z"/>
        <path fill="url(#m)" fill-rule="nonzero" d="M13.646 1.2c-.168.127-.353.23-.55.305-1.366.531-2.852 1.27-3.863.978-1.011-.292-3.148 0-3.148 0s-4.31-.355-5.17-.148a1.669 1.669 0 0 1-.889.022c.04-.356.072-.583.072-.583S12.888-.283 13.4.182c.12.105.2.481.246 1.017z" opacity=".1" transform="translate(77.158 92.374)"/>
        <path fill="url(#n)" fill-rule="nonzero" d="M91.74 91.608s-.12 1.466-1.487 2.006c-1.367.539-2.852 1.269-3.862.977-1.011-.292-3.149 0-3.149 0s-4.308-.355-5.17-.148c-.86.207-1.302-.059-1.04-.443.262-.385.24-1.65.24-2.182 0-.53-.298-2.685-.031-3.067.267-.383.504-1.858 1.04-2.094a.578.578 0 0 0 .334-.375 1.055 1.055 0 0 0 0-.539s-.09-.073-.215-.184c-.314-.279-.848-.797-.677-.966.237-.236 0-1.771 0-1.771s-.565-1.18-.357-1.621c.208-.442-1.812-2.77-1.812-2.77s0-4.01 2.442-4.188c0 0 1.722.06 1.93-.707.209-.768 1.575-1.21 1.575-1.21l3.119.679s2.767.59 3.268.236c.502-.354.892.47.892.47s1.722.09 1.901.444c.18.353-.564 3.804-.564 3.804s-1.249-.117-1.16 1.21c.09 1.328-.475 3.008-.475 3.008s-.09.977-.029 1.18c.06.201-.117.931-.145 1.047v.015s-.124.488.038.67a.243.243 0 0 0 .052.038c.237.118.594 1.268.594 1.268.186.222.281.507.268.796-.029.473.149 1.592.92 2.242.772.65 1.56 2.175 1.56 2.175z"/>
        <path fill="url(#o)" fill-rule="nonzero" d="M78.488 84.78v.126l-.056 1.38s-1.826.146-2.822-.105c-.997-.25-.575-1.34-.536-1.569.03-.206.296-1.932.296-2.212 0-.28 0-1.43-.044-1.955-.044-.525.223-2.005.223-2.005l.193-.237 2.095.797.65 5.78z"/>
        <path fill="url(#p)" fill-rule="nonzero" d="M3.606.355l-.056 1.38s-1.826.147-2.822-.104C-.27 1.38.153.29.192.06l3.414.294z" opacity=".1" transform="translate(74.879 84.554)"/>
        <path fill="url(#q)" fill-rule="nonzero" d="M.326 1.888a1.055 1.055 0 0 0 0-.539s-.09-.073-.215-.184C1.685.948 7.914.098 10.014.007V.02s-.123.489.038.67L.326 1.888z" opacity=".1" transform="translate(78.297 84.39)"/>
        <path fill="url(#r)" fill-rule="nonzero" d="M1.118.03S1.504 2.197.063 2.961c0 0 .818-1.08 1.055-2.933z" opacity=".1" transform="translate(87.413 87.323)"/>
        <path fill="url(#s)" fill-rule="nonzero" d="M.15.63S3.625-.275 4.309.425c.683.7-4.16.205-4.16.205z" opacity=".1" transform="translate(78.948 89.93)"/>
        <path fill="url(#t)" fill-rule="nonzero" d="M.618.01S-.202 2.19.412 2.693C1.028 3.195.618.01.618.01z" opacity=".1" transform="translate(86.925 76.897)"/>
        <path fill="url(#u)" fill-rule="nonzero" d="M.2.016s1 .815.397 1.652C-.007 2.506.2.016.2.016z" opacity=".1" transform="translate(77.158 75.105)"/>
        <path fill="url(#v)" fill-rule="nonzero" d="M76.246 82.229s.624.37.415.945c-.208.575-.415-.945-.415-.945z"/>
        <path fill="url(#w)" fill-rule="nonzero" d="M0 .068s.712.319.8.785C.888 1.32 0 .068 0 .068z" opacity=".1" transform="translate(76.181 80.48)"/>
        <path fill="url(#x)" fill-rule="nonzero" d="M.127.734s3.64.454 4.367-.6c0 .004-3.283.8-4.367.6z" opacity=".1" transform="translate(84.646 97.587)"/>
        <path fill="url(#y)" fill-rule="nonzero" d="M.03.102s3.906 1.403 4.678.293c0 0-3.357.385-4.679-.293z" opacity=".1" transform="translate(78.46 97.913)"/>
        <path fill="url(#z)" fill-rule="nonzero" d="M.083.505s1.628 0 2.391.135C3.238.775.083.505.083.505z" opacity=".1" transform="translate(84.971 99.216)"/>
        <path fill="url(#A)" fill-rule="nonzero" d="M.133.052s.803 1.104 1.708.906C2.746.76.133.052.133.052z" opacity=".1" transform="translate(78.623 100.03)"/>
        <path fill="url(#B)" fill-rule="nonzero" d="M80.332 63.241c-.252.388-.26.836-.326 1.266a5.267 5.267 0 0 1-1.426 2.8c-.713.753-1.69 1.434-1.875 2.353-.174.873.419 1.712.73 2.561.813 2.24-.326 4.588-.66 6.9-.091.638.02 1.454.814 1.666.248.067.53.059.752.163.3.142.39.437.446.702.198.95.267 1.921.204 2.889-.036.544-.075 1.168.44 1.54.264.163.554.278.857.34.814.218 1.867.392 2.416-.118.23-.213.325-.516.604-.685.43-.253 1.04-.082 1.582-.056a2.872 2.872 0 0 0 2.573-1.372c.438-.783.4-1.676.238-2.52-.163-.844-.443-1.678-.464-2.532-.025-.299.042-.598.192-.858.326-.508 1.102-.74 1.628-1.14.986-.75.977-1.978.625-3.006-.352-1.028-1.003-2.01-1.082-3.073a1.167 1.167 0 0 1 .146-.743c.172-.213.374-.4.599-.557 1.44-1.207 1.271-3.192.08-4.549-1.322-1.51-7.294-4.752-9.093-1.971z"/>
        <g fill-rule="nonzero" opacity=".1">
            <path fill="url(#C)" d="M1.11 6.515a5.555 5.555 0 0 0-.226-2.659C.72 3.428.498 3.001.334 2.572a1.824 1.824 0 0 0-.18.49c-.175.87.419 1.71.73 2.56.105.29.18.589.226.893z" transform="translate(76.507 66.633)"/>
            <path fill="url(#D)" d="M2.442 16.176c.063-.968-.006-1.94-.205-2.889-.056-.265-.147-.56-.445-.702-.223-.106-.506-.097-.753-.163a1.027 1.027 0 0 1-.694-.57c-.044.225-.085.45-.117.673-.093.639.018 1.455.814 1.667.247.066.53.058.753.163.298.141.39.436.445.702.092.44.156.886.192 1.334-.003-.07.01-.143.01-.215z" transform="translate(76.507 66.633)"/>
            <path fill="url(#E)" d="M10.906 15.832a2.87 2.87 0 0 1-2.572 1.372c-.542-.026-1.152-.197-1.582.055-.286.163-.374.473-.604.686-.548.51-1.602.336-2.415.118a2.603 2.603 0 0 1-.857-.34 1.053 1.053 0 0 1-.421-.68c0 .303 0 .607-.02.91-.036.543-.075 1.167.441 1.54.263.163.553.278.857.339.813.22 1.867.392 2.415-.117.23-.214.326-.515.604-.685.43-.254 1.04-.083 1.582-.055a2.868 2.868 0 0 0 2.572-1.373c.422-.753.404-1.607.257-2.421a2.637 2.637 0 0 1-.257.651z" transform="translate(76.507 66.633)"/>
            <path fill="url(#F)" d="M12.793 1.398a2.905 2.905 0 0 0-.6.557c-.13.225-.181.486-.146.743.028.323.096.64.204.946a4.07 4.07 0 0 1 .542-.477c.977-.814 1.211-1.987.895-3.08a2.83 2.83 0 0 1-.895 1.31z" transform="translate(76.507 66.633)"/>
            <path fill="url(#G)" d="M12.505 8.776c-.528.4-1.302.63-1.628 1.14-.151.26-.218.56-.192.86.012.344.055.688.127 1.026.02-.04.041-.079.065-.116.326-.507 1.1-.74 1.628-1.14.9-.685.976-1.768.71-2.734-.137.384-.384.72-.71.964z" transform="translate(76.507 66.633)"/>
        </g>
        <path fill="url(#H)" fill-rule="nonzero" d="M95.794 75.77c-.608 1.534-1.396 2.138-1.396 2.138h-.438l-3.855.04-.446-1.21.625-2.606.384.024c.232.122.483.202.743.237.281 0 .832-.015.994.058.023.01.049.014.074.01.144-.015.3-.231.3-.231s3.624.006 3.015 1.54z"/>
        <path fill="url(#I)" fill-rule="nonzero" d="M3.335 1.644C2.727 3.177 1.94 3.78 1.94 3.78H1.5c.228-.607.71-1.855.898-2.142C2.59 1.352.965.688.021.32.166.306.321.09.321.09s3.623.02 3.014 1.554z" opacity=".1" transform="translate(92.459 74.127)"/>
        <path fill="#EFB7B9" fill-rule="nonzero" d="M92.654 76.959s2.117 1.378 2.93.641c.814-.736.705-2.144.596-2.367-.109-.223-.977-3.095-.977-3.095l-1.671-4.247s-1.014-5.59-2.528-4.195c-1.514 1.394.814 4.74.814 4.74s.955 2.444.906 2.933c-.048.489.533 2.28.533 2.28l-.603 3.31z"/>
        <path fill="#009DAB" fill-rule="nonzero" d="M88.694 126.756c-.016.068-.036.14-.055.213-.199.68-.572.526-1.667 1.646a2.19 2.19 0 0 1-2.178.617.266.266 0 0 1-.196-.277l.137-1.815.067-.873s1.745.489 2.632-.132c.03-.021.059-.042.086-.067a.712.712 0 0 1 1.174.688zM83.216 126.071c-.014.069-.034.139-.053.212-.199.681-.572.526-1.667 1.646a2.187 2.187 0 0 1-2.178.617.264.264 0 0 1-.196-.277l.137-1.815.067-.873s1.745.489 2.632-.132a1 1 0 0 0 .086-.065l.025-.023a.712.712 0 0 1 1.147.71z"/>
        <path fill="#000" fill-rule="nonzero" d="M81.414 126.344l.072.943c-1.001 1-2.194-.489-2.546-.978.921.47 2.474.035 2.474.035zM87.3 126.726l.132-.086c-.914 1.391-2.279.75-2.697.5l.067-.873s1.745.489 2.632-.132c-.07.34-.133.591-.133.591z" opacity=".1"/>
        <path fill="#444053" fill-rule="nonzero" d="M90.084 100.386c-.702 1.755-1.403 7.634-1.49 8.309-.086.674-.066 3.465-.066 3.465l-.176 6.843c-.021.855-.651 3.005-.651 3.005s-.218 1.792-.11 2.392c.11.6-.284 2.15-.284 2.15l.132-.088c-1.096 1.667-2.828.418-2.828.418s-.416-2.019.022-2.524c.437-.505-.153-2.063-.153-2.063s.22-8.095.284-8.471c.066-.377-.263-1.514-.57-2.457-.305-.943.176-4.674.286-5.353.109-.68-.044-3.775-.153-4.41-.11-.636.13-3.292.13-3.292-.438-1.316-.788-.132-.788-.132l-.352 3.445-.379 7.072s.044 2.149-.285 2.77c-.329.62-.612 2.186-.612 2.186l.153 7.983s-.021 1.668.088 2.303c.11.636-.24 2.281-.24 2.281-1.228 2.895-3.201-.241-3.201-.241s.088-.489.262-.55c.174-.06-.065-1.25-.197-1.447-.132-.198.023-1.63.023-1.63s-.163-1.295-.396-2.852c-.233-1.558-.174-7.57-.021-7.942.153-.373.285-2.107.285-2.107s-.176-.987.044-1.69c.22-.702-.526-3.663-.526-3.992 0-.33-.285-2.37-.44-2.59-.1-.188-.153-.4-.152-.613 0 0-.022-.439-.394-1.755-.272-.961-.113-2.856 0-3.81.039-.354.071-.579.071-.579s12.583-2.04 13.088-1.579c.117.108.197.49.24 1.012.136 1.75-.105 5.18-.644 6.533z"/>
        <path fill="#000" fill-rule="nonzero" d="M85.328 110.242c.058 0 1.447.118 1.953.015s-1.953-.015-1.953-.015zM85.43 111.062s1.914.337 2.017.163c.103-.174-2.017-.163-2.017-.163zM79.57 110.712s.993.044 1.533.291c.54.248-1.533-.291-1.533-.291z" opacity=".1"/>
        <path fill="#EFB7B9" fill-rule="nonzero" d="M75.96 86.11s.162 3.056.073 3.597c0 0 .352 2.473.643 3.095.262.501.57.976.921 1.42l.863-6.065-.204-2.077-2.296.03z"/>
        <ellipse cx="85.022" cy="68.806" fill="#EFB7B9" fill-rule="nonzero" rx="3.376" ry="3.379"/>
        <path fill="#EFB7B9" fill-rule="nonzero" d="M83.267 70.387s-1.052 2.06-2.105 3.027c-1.053.966 6.314 2.062 6.49 2.062.176 0-1.315-4.389-1.053-4.915.262-.526-3.332-.174-3.332-.174z"/>
        <path fill="#000" fill-rule="nonzero" d="M90.72 93.87c-.164.126-.346.228-.54.304-1.344.526-2.806 1.258-3.8.964-.995-.293-3.094 0-3.094 0s-4.232-.35-5.085-.146a1.638 1.638 0 0 1-.88.018c.039-.354.071-.579.071-.579s12.583-2.04 13.088-1.578c.117.107.197.48.24 1.016z" opacity=".1"/>
        <path fill="#009DAB" fill-rule="nonzero" d="M91.645 91.914s-.117 1.467-1.465 1.99c-1.348.523-2.806 1.257-3.8.966-.995-.292-3.094 0-3.094 0s-4.232-.352-5.085-.147c-.853.205-1.286-.059-1.024-.44s.235-1.629.235-2.163c0-.535-.293-2.662-.03-3.044.264-.38.489-1.842 1.024-2.077a.57.57 0 0 0 .326-.371 1.07 1.07 0 0 0 0-.535s-.088-.073-.212-.182c-.31-.277-.833-.79-.664-.958.233-.235 0-1.756 0-1.756s-.557-1.17-.352-1.608c.206-.439-1.79-2.75-1.79-2.75s0-3.979 2.398-4.155c0 0 1.694.059 1.9-.702.204-.76 1.549-1.199 1.549-1.199l3.068.673s2.719.585 3.215.234c.497-.35.871.466.871.466s1.695.088 1.87.439c.176.35-.555 3.773-.555 3.773s-1.227-.116-1.14 1.2c.089 1.317-.468 2.984-.468 2.984s-.088.966-.03 1.17c.06.203-.115.925-.14 1.039v.014s-.121.49.037.663c.014.017.03.03.05.04.234.115.586 1.257.586 1.257.182.221.276.502.262.789-.03.469.147 1.58.907 2.224.76.643 1.551 2.166 1.551 2.166z"/>
        <path fill="#009DAB" fill-rule="nonzero" d="M78.605 85.144v.123l-.054 1.369s-1.79.146-2.767-.103c-.977-.25-.567-1.33-.53-1.556.03-.205.294-1.917.294-2.194 0-.277 0-1.42-.044-1.945-.044-.527.218-1.99.218-1.99l.19-.234 2.061.79.632 5.74z"/>
        <path fill="#000" fill-rule="nonzero" d="M78.6 85.267l-.054 1.369s-1.79.146-2.767-.103c-.977-.25-.567-1.33-.53-1.556l3.35.29z" opacity=".1"/>
        <path fill="#000" fill-rule="nonzero" d="M78.73 86.63a1.07 1.07 0 0 0 0-.535s-.088-.073-.211-.183c1.55-.215 7.678-1.057 9.744-1.14v.015s-.12.488.037.663l-9.57 1.18zM88.484 87.688s.38 2.15-1.037 2.912c0 0 .804-1.067 1.037-2.912zM79.204 90.658s3.418-.585 4.092-.132c.674.453-4.092.132-4.092.132zM87.3 77.333s-.525 2.165-.131 2.662c.394.497.132-2.662.132-2.662zM77.392 75.564s.488.803.19 1.637c-.297.834-.19-1.637-.19-1.637z" opacity=".1"/>
        <path fill="#009688" fill-rule="nonzero" d="M76.4 82.613s.613.367.408.937c-.205.57-.409-.937-.409-.937z"/>
        <path fill="#000" fill-rule="nonzero" d="M76.344 80.947s.57.306.643.759c.073.453-.643-.76-.643-.76zM84.787 98.44s3.581.366 4.296-.49c0 .007-3.23.644-4.296.49zM78.605 98.234s3.843.907 4.603.19c0 .007-3.303.25-4.603-.19zM85.064 99.624s1.608 0 2.354.044c.745.044-2.354-.044-2.354-.044zM78.869 100.311s.789.893 1.68.732c.89-.162-1.68-.732-1.68-.732z" opacity=".1"/>
        <path fill="#E3787D" fill-rule="nonzero" d="M80.413 63.772c-.247.385-.255.83-.325 1.256a5.238 5.238 0 0 1-1.403 2.77c-.7.746-1.662 1.422-1.845 2.333-.17.865.412 1.697.718 2.54.814 2.22-.325 4.55-.651 6.842-.091.634.018 1.444.798 1.654.244.065.522.057.742.163.293.14.382.433.436.695.196.942.264 1.906.202 2.866-.036.54-.075 1.158.433 1.53.26.16.545.273.843.335.801.217 1.836.388 2.377-.117.226-.212.31-.511.594-.68.423-.25 1.024-.08 1.556-.055a2.82 2.82 0 0 0 2.531-1.36c.432-.779.394-1.662.235-2.5-.16-.837-.436-1.664-.456-2.511-.026-.296.04-.593.189-.85.325-.506 1.082-.736 1.602-1.131.976-.743.966-1.955.615-2.982-.352-1.026-.988-1.994-1.066-3.048a1.169 1.169 0 0 1 .143-.736 2.96 2.96 0 0 1 .604-.54c1.418-1.197 1.25-3.165.078-4.51-1.299-1.5-7.175-4.714-8.95-1.964z"/>
        <g fill="#000" fill-rule="nonzero" opacity=".1">
            <path d="M77.749 73.606a5.571 5.571 0 0 0-.225-2.638c-.153-.425-.378-.847-.542-1.272-.08.154-.14.318-.176.489-.17.865.412 1.697.718 2.54.104.285.18.58.225.88zM79.054 83.189c.062-.96-.006-1.924-.202-2.866-.053-.262-.143-.556-.436-.696-.22-.106-.498-.098-.742-.163a1.02 1.02 0 0 1-.682-.565c-.044.221-.083.445-.116.666-.091.634.018 1.444.798 1.654.244.065.522.057.742.163.293.142.383.433.436.697.09.437.154.878.19 1.323a8.84 8.84 0 0 1 .012-.213zM87.388 82.842a2.819 2.819 0 0 1-2.53 1.36c-.533-.026-1.14-.196-1.557.055-.282.163-.368.468-.594.68-.54.505-1.576.334-2.377.117a2.563 2.563 0 0 1-.841-.337 1.062 1.062 0 0 1-.417-.675c0 .3 0 .601-.018.901-.036.54-.075 1.158.435 1.53.259.16.543.274.841.336.801.216 1.836.387 2.377-.116.226-.214.312-.513.594-.681.423-.251 1.024-.082 1.556-.056a2.819 2.819 0 0 0 2.531-1.36c.416-.748.398-1.593.253-2.401-.056.225-.14.443-.253.647zM89.24 68.53a2.87 2.87 0 0 0-.59.553 1.169 1.169 0 0 0-.143.737c.028.32.096.636.202.94.162-.175.34-.333.532-.474.959-.815 1.191-1.972.88-3.055-.163.508-.469.96-.88 1.3zM88.958 75.85c-.52.395-1.277.625-1.602 1.128a1.467 1.467 0 0 0-.189.852c.013.343.055.683.125 1.018a.782.782 0 0 1 .064-.114c.325-.505 1.082-.734 1.602-1.13.885-.68.96-1.753.698-2.711a2.06 2.06 0 0 1-.698.956z"/>
        </g>
        <path fill="#009DAB" fill-rule="nonzero" d="M95.632 76.208c-.6 1.521-1.376 2.117-1.376 2.117h-.431l-3.791.04-.438-1.2.613-2.588.38.014c.228.121.475.2.73.235.279 0 .814-.015.977.059.023.01.048.013.072.01.143-.015.293-.23.293-.23s3.568.02 2.97 1.543z"/>
        <path fill="#000" fill-rule="nonzero" d="M95.632 76.208c-.6 1.521-1.376 2.117-1.376 2.117h-.431c.226-.602.7-1.839.885-2.117.186-.279-1.411-.944-2.339-1.304.143-.014.293-.23.293-.23s3.565.012 2.968 1.534z" opacity=".1"/>
    </g>
</svg>
