<svg width="63" height="63" viewBox="0 0 63 63" fill="none" xmlns="http://www.w3.org/2000/svg">
<circle cx="31.5" cy="31.5" r="31.5" fill="#EAF6EC"/>
<path d="M25.5 34.5H24.5V31.5C24.5 29 26.5 27 29 27H43V28H29C27.1 28 25.5 29.6 25.5 31.5V34.5Z" fill="#A3B7CC"/>
<path d="M43.5 43H31.5C27.9 43 25 40.1 25 36.5V31.5H26V36.5C26 39.5 28.5 42 31.5 42H43.5V43Z" fill="#A3B7CC"/>
<path d="M26 32.5H25V27.5C25 23.9 27.9 21 31.5 21H43.5V22H31.5C28.5 22 26 24.5 26 27.5V32.5Z" fill="#788B9C"/>
<path d="M43.5 37H29.5C27 37 25 35 25 32.5V27.5H26V32.5C26 34.4 27.6 36 29.5 36H43.5V37Z" fill="#788B9C"/>
<path d="M22 28.5C21.0717 28.5 20.1815 28.8687 19.5251 29.5251C18.8687 30.1815 18.5 31.0717 18.5 32C18.5 32.9283 18.8687 33.8185 19.5251 34.4749C20.1815 35.1313 21.0717 35.5 22 35.5C22.9283 35.5 23.8185 35.1313 24.4749 34.4749C25.1313 33.8185 25.5 32.9283 25.5 32C25.5 31.0717 25.1313 30.1815 24.4749 29.5251C23.8185 28.8687 22.9283 28.5 22 28.5Z" fill="#8BB7F0"/>
<path d="M22 29C23.7 29 25 30.3 25 32C25 33.7 23.7 35 22 35C20.3 35 19 33.7 19 32C19 30.3 20.3 29 22 29ZM22 28C19.8 28 18 29.8 18 32C18 34.2 19.8 36 22 36C24.2 36 26 34.2 26 32C26 29.8 24.2 28 22 28Z" fill="#4E7AB5"/>
<path d="M43 18.5C42.337 18.5 41.7011 18.7634 41.2322 19.2322C40.7634 19.7011 40.5 20.337 40.5 21C40.5 21.663 40.7634 22.2989 41.2322 22.7678C41.7011 23.2366 42.337 23.5 43 23.5C43.663 23.5 44.2989 23.2366 44.7678 22.7678C45.2366 22.2989 45.5 21.663 45.5 21C45.5 20.337 45.2366 19.7011 44.7678 19.2322C44.2989 18.7634 43.663 18.5 43 18.5Z" fill="#8BB7F0"/>
<path d="M43 19C44.1 19 45 19.9 45 21C45 22.1 44.1 23 43 23C41.9 23 41 22.1 41 21C41 19.9 41.9 19 43 19ZM43 18C41.3 18 40 19.3 40 21C40 22.7 41.3 24 43 24C44.7 24 46 22.7 46 21C46 19.3 44.7 18 43 18Z" fill="#4E7AB5"/>
<path d="M43 25.5C42.337 25.5 41.7011 25.7634 41.2322 26.2322C40.7634 26.7011 40.5 27.337 40.5 28C40.5 28.663 40.7634 29.2989 41.2322 29.7678C41.7011 30.2366 42.337 30.5 43 30.5C43.663 30.5 44.2989 30.2366 44.7678 29.7678C45.2366 29.2989 45.5 28.663 45.5 28C45.5 27.337 45.2366 26.7011 44.7678 26.2322C44.2989 25.7634 43.663 25.5 43 25.5Z" fill="#E1EBF2"/>
<path d="M43 26C44.1 26 45 26.9 45 28C45 29.1 44.1 30 43 30C41.9 30 41 29.1 41 28C41 26.9 41.9 26 43 26ZM43 25C41.3 25 40 26.3 40 28C40 29.7 41.3 31 43 31C44.7 31 46 29.7 46 28C46 26.3 44.7 25 43 25Z" fill="#A3B7CC"/>
<path d="M43 33.5C42.6717 33.5 42.3466 33.5647 42.0433 33.6903C41.74 33.8159 41.4644 34.0001 41.2322 34.2322C41.0001 34.4644 40.8159 34.74 40.6903 35.0433C40.5647 35.3466 40.5 35.6717 40.5 36C40.5 36.3283 40.5647 36.6534 40.6903 36.9567C40.8159 37.26 41.0001 37.5356 41.2322 37.7678C41.4644 37.9999 41.74 38.1841 42.0433 38.3097C42.3466 38.4353 42.6717 38.5 43 38.5C43.3283 38.5 43.6534 38.4353 43.9567 38.3097C44.26 38.1841 44.5356 37.9999 44.7678 37.7678C44.9999 37.5356 45.1841 37.26 45.3097 36.9567C45.4353 36.6534 45.5 36.3283 45.5 36C45.5 35.6717 45.4353 35.3466 45.3097 35.0433C45.1841 34.74 44.9999 34.4644 44.7678 34.2322C44.5356 34.0001 44.26 33.8159 43.9567 33.6903C43.6534 33.5647 43.3283 33.5 43 33.5Z" fill="#8BB7F0"/>
<path d="M43 34C44.1 34 45 34.9 45 36C45 37.1 44.1 38 43 38C41.9 38 41 37.1 41 36C41 34.9 41.9 34 43 34ZM43 33C41.3 33 40 34.3 40 36C40 37.7 41.3 39 43 39C44.7 39 46 37.7 46 36C46 34.3 44.7 33 43 33Z" fill="#4E7AB5"/>
<path d="M43 40.5C42.337 40.5 41.7011 40.7634 41.2322 41.2322C40.7634 41.7011 40.5 42.337 40.5 43C40.5 43.663 40.7634 44.2989 41.2322 44.7678C41.7011 45.2366 42.337 45.5 43 45.5C43.663 45.5 44.2989 45.2366 44.7678 44.7678C45.2366 44.2989 45.5 43.663 45.5 43C45.5 42.337 45.2366 41.7011 44.7678 41.2322C44.2989 40.7634 43.663 40.5 43 40.5Z" fill="#E1EBF2"/>
<path d="M43 41C44.1 41 45 41.9 45 43C45 44.1 44.1 45 43 45C41.9 45 41 44.1 41 43C41 41.9 41.9 41 43 41ZM43 40C41.3 40 40 41.3 40 43C40 44.7 41.3 46 43 46C44.7 46 46 44.7 46 43C46 41.3 44.7 40 43 40Z" fill="#A3B7CC"/>
</svg>
