<svg width="63" height="63" viewBox="0 0 63 63" fill="none" xmlns="http://www.w3.org/2000/svg">
<circle cx="31.5" cy="31.5" r="31.5" fill="#EAF6EC"/>
<path d="M17.5 36.5H25.5V44.5H17.5V36.5Z" fill="#8BB7F0"/>
<path d="M25 37V44H18V37H25ZM26 36H17V45H26V36Z" fill="#4E7AB5"/>
<path d="M35.707 21.5L40.4997 16.7071L45.2926 21.4998L40.4999 26.2927L35.707 21.5Z" fill="#F5CE85"/>
<path d="M40.5 17.414L44.586 21.5L40.5 25.586L36.414 21.5L40.5 17.414ZM40.5 16L35 21.5L40.5 27L46 21.5L40.5 16Z" fill="#967A44"/>
<path d="M21.5 17.5C20.4391 17.5 19.4217 17.9214 18.6716 18.6716C17.9214 19.4217 17.5 20.4391 17.5 21.5C17.5 22.5609 17.9214 23.5783 18.6716 24.3284C19.4217 25.0786 20.4391 25.5 21.5 25.5C22.5609 25.5 23.5783 25.0786 24.3284 24.3284C25.0786 23.5783 25.5 22.5609 25.5 21.5C25.5 20.4391 25.0786 19.4217 24.3284 18.6716C23.5783 17.9214 22.5609 17.5 21.5 17.5Z" fill="#BAE0BD"/>
<path d="M21.5 18C23.43 18 25 19.57 25 21.5C25 23.43 23.43 25 21.5 25C19.57 25 18 23.43 18 21.5C18 19.57 19.57 18 21.5 18ZM21.5 17C19.015 17 17 19.015 17 21.5C17 23.985 19.015 26 21.5 26C23.985 26 26 23.985 26 21.5C26 19.015 23.985 17 21.5 17Z" fill="#5E9C76"/>
<path d="M40.5 36.5C39.4391 36.5 38.4217 36.9214 37.6716 37.6716C36.9214 38.4217 36.5 39.4391 36.5 40.5C36.5 41.5609 36.9214 42.5783 37.6716 43.3284C38.4217 44.0786 39.4391 44.5 40.5 44.5C41.5609 44.5 42.5783 44.0786 43.3284 43.3284C44.0786 42.5783 44.5 41.5609 44.5 40.5C44.5 39.4391 44.0786 38.4217 43.3284 37.6716C42.5783 36.9214 41.5609 36.5 40.5 36.5Z" fill="#F78F8F"/>
<path d="M40.5 37C42.43 37 44 38.57 44 40.5C44 42.43 42.43 44 40.5 44C38.57 44 37 42.43 37 40.5C37 38.57 38.57 37 40.5 37ZM40.5 36C38.015 36 36 38.015 36 40.5C36 42.985 38.015 45 40.5 45C42.985 45 45 42.985 45 40.5C45 38.015 42.985 36 40.5 36Z" fill="#C74343"/>
<path d="M21 29H22V34H21V29Z" fill="#36404D"/>
<path d="M21.5 27.6001L19.5 30.0001H23.5L21.5 27.6001Z" fill="#36404D"/>
<path d="M41 33H40V28H41V33Z" fill="#36404D"/>
<path d="M40.5 34.4L42.5 32H38.5L40.5 34.4ZM27 21H33V22H27V21Z" fill="#36404D"/>
<path d="M34.4 21.5L32 19.5V23.5L34.4 21.5Z" fill="#36404D"/>
</svg>
