<svg width="63" height="63" viewBox="0 0 63 63" fill="none" xmlns="http://www.w3.org/2000/svg">
<circle cx="31.5" cy="31.5" r="31.5" fill="#EAF6EC"/>
<path d="M33 42H27.9C24.6 42 22 39.4 22 36.1V22.5H23V36.1C23 38.8 25.2 41 27.9 41H33V42Z" fill="#A3B7CC"/>
<path d="M22.5 19.5C22.106 19.5 21.7159 19.5776 21.3519 19.7284C20.988 19.8791 20.6573 20.1001 20.3787 20.3787C20.1001 20.6573 19.8791 20.988 19.7284 21.3519C19.5776 21.7159 19.5 22.106 19.5 22.5C19.5 22.894 19.5776 23.2841 19.7284 23.6481C19.8791 24.012 20.1001 24.3427 20.3787 24.6213C20.6573 24.8999 20.988 25.1209 21.3519 25.2716C21.7159 25.4224 22.106 25.5 22.5 25.5C22.894 25.5 23.2841 25.4224 23.6481 25.2716C24.012 25.1209 24.3427 24.8999 24.6213 24.6213C24.8999 24.3427 25.1209 24.012 25.2716 23.6481C25.4224 23.2841 25.5 22.894 25.5 22.5C25.5 22.106 25.4224 21.7159 25.2716 21.3519C25.1209 20.988 24.8999 20.6573 24.6213 20.3787C24.3427 20.1001 24.012 19.8791 23.6481 19.7284C23.2841 19.5776 22.894 19.5 22.5 19.5Z" fill="#8BB7F0"/>
<path d="M22.5 20C23.9 20 25 21.1 25 22.5C25 23.9 23.9 25 22.5 25C21.1 25 20 23.9 20 22.5C20 21.1 21.1 20 22.5 20ZM22.5 19C20.6 19 19 20.6 19 22.5C19 24.4 20.6 26 22.5 26C24.4 26 26 24.4 26 22.5C26 20.6 24.4 19 22.5 19Z" fill="#4E7AB5"/>
<path d="M42 42.5H41V27.9C41 25.2 38.8 23 36.1 23H30V22H36.1C39.3 22 42 24.6 42 27.9V42.5Z" fill="#A3B7CC"/>
<path d="M41.5 38.5C40.7044 38.5 39.9413 38.8161 39.3787 39.3787C38.8161 39.9413 38.5 40.7044 38.5 41.5C38.5 42.2956 38.8161 43.0587 39.3787 43.6213C39.9413 44.1839 40.7044 44.5 41.5 44.5C42.2956 44.5 43.0587 44.1839 43.6213 43.6213C44.1839 43.0587 44.5 42.2956 44.5 41.5C44.5 40.7044 44.1839 39.9413 43.6213 39.3787C43.0587 38.8161 42.2956 38.5 41.5 38.5Z" fill="#8BB7F0"/>
<path d="M41.5 39C42.9 39 44 40.1 44 41.5C44 42.9 42.9 44 41.5 44C40.1 44 39 42.9 39 41.5C39 40.1 40.1 39 41.5 39ZM41.5 38C39.6 38 38 39.6 38 41.5C38 43.4 39.6 45 41.5 45C43.4 45 45 43.4 45 41.5C45 39.6 43.4 38 41.5 38Z" fill="#4E7AB5"/>
<path d="M28.8008 22.5001L31.5008 20.1001V24.9001L28.8008 22.5001Z" fill="#E1EBF2"/>
<path d="M31 21.2V23.8L29.5 22.5L31 21.2ZM32 19L28 22.5L32 26V19Z" fill="#A3B7CC"/>
<path d="M32.5 39.1001L35.2 41.5001L32.5 43.9001V39.1001Z" fill="#E1EBF2"/>
<path d="M33 40.2L34.5 41.5L33 42.8V40.2ZM32 38V45L36 41.5L32 38Z" fill="#A3B7CC"/>
</svg>
