<svg width="63" height="63" viewBox="0 0 63 63" fill="none" xmlns="http://www.w3.org/2000/svg">
<circle cx="31.5" cy="31.5" r="31" fill="#EAF6EC" stroke="#93D3A2"/>
<path d="M46.0003 35.8106C46.0003 36.295 45.5533 36.6882 45.0013 36.6882C44.4483 36.6882 44.0013 36.2959 44.0003 35.8114L43.9753 13.0142C43.9753 12.7799 43.8713 12.5596 43.6813 12.3937C43.4932 12.2278 43.2412 12.1374 42.9742 12.1374L20.999 12.1576C20.448 12.1576 20 12.5517 20 13.0353L20 13.0362L20.025 35.8334C20.025 35.8334 20.025 35.8334 20.025 35.8343C20.025 36.3187 19.578 36.7119 19.026 36.7119C18.473 36.7119 18.026 36.3196 18.025 35.8351L18 13.0379C18 13.0371 18 13.0362 18 13.0353C18 11.5845 19.344 10.4032 20.997 10.4023L42.9722 10.3821C43.7743 10.3821 44.5273 10.6551 45.0943 11.151C45.6613 11.6477 45.9743 12.3086 45.9753 13.0125L46.0003 35.8106Z" fill="#666666"/>
<path d="M23.9691 33.1964L24.0001 38.4387C24.0011 39.4032 23.1031 40.1931 22.0041 40.194L16.031 40.2212C14.932 40.2221 14.032 39.4339 14.031 38.4694L14 33.2271C13.999 32.2626 14.897 31.4727 15.996 31.4718L21.9691 31.4446C23.0681 31.4437 23.9681 32.2319 23.9691 33.1964Z" fill="url(#paint0_linear_2514_47884)"/>
<path d="M23.9691 19.1539L24.0001 24.3962C24.0011 25.3607 23.1031 26.1506 22.0041 26.1515L16.031 26.1787C14.932 26.1796 14.032 25.3914 14.031 24.4269L14 19.1846C13.999 18.2201 14.897 17.4302 15.996 17.4293L21.9691 17.4021C23.0681 17.4012 23.9681 18.1894 23.9691 19.1539Z" fill="url(#paint1_linear_2514_47884)"/>
<path d="M49.9691 19.1539L50.0001 24.3962C50.0011 25.3607 49.1031 26.1506 48.0041 26.1515L42.031 26.1787C40.932 26.1796 40.032 25.3914 40.031 24.4269L40 19.1846C39.999 18.2201 40.897 17.4302 41.996 17.4293L47.9691 17.4021C49.0681 17.4012 49.9681 18.1894 49.9691 19.1539Z" fill="url(#paint2_linear_2514_47884)"/>
<path d="M49.9691 33.1964L50.0001 38.4387C50.0011 39.4032 49.1031 40.1931 48.0041 40.194L42.031 40.2212C40.932 40.2221 40.032 39.4339 40.031 38.4694L40 33.2271C39.999 32.2626 40.897 31.4727 41.996 31.4718L47.9691 31.4446C49.0681 31.4437 49.9681 32.2319 49.9691 33.1964Z" fill="url(#paint3_linear_2514_47884)"/>
<path d="M25.605 7.35596C25.538 7.47357 25.5 7.60375 25.5 7.7395L25.5 13.66C25.5 13.9859 25.7111 14.2849 26.0484 14.4368L31.3627 16.8287C31.5622 16.9185 31.7811 16.9633 32.0001 16.9633L32.0001 10.2344L25.605 7.35596Z" fill="url(#paint4_linear_2514_47884)"/>
<path d="M32 10.2344L32 16.9633C32.2189 16.9633 32.4379 16.9185 32.6373 16.8287L37.9517 14.4368C38.289 14.2849 38.5001 13.9859 38.5001 13.66L38.5001 7.7395C38.5001 7.60375 38.4621 7.47357 38.395 7.35596L32 10.2344Z" fill="url(#paint5_linear_2514_47884)"/>
<path d="M32.0005 10.2343L38.3955 7.35584C38.2953 7.17972 38.1284 7.03315 37.9135 6.94626L32.5862 4.78834C32.2154 4.63826 31.7853 4.63826 31.4145 4.78834L26.0875 6.94626C25.8727 7.03344 25.7057 7.18001 25.6055 7.35584L32.0005 10.2343Z" fill="#F5F5F5"/>
<path d="M28.2992 8.56934C28.2602 8.63721 28.2383 8.71269 28.2383 8.79139L28.2383 12.219C28.2383 12.4077 28.3604 12.5809 28.5558 12.6687L31.6327 14.0534C31.7483 14.1054 31.8749 14.1315 32.0018 14.1315L32.0018 10.2358L28.2992 8.56934Z" fill="#3FB76B"/>
<path d="M32 10.2358L32 14.1315C32.1266 14.1315 32.2535 14.1054 32.3691 14.0534L35.4461 12.6687C35.6414 12.5809 35.7635 12.4077 35.7635 12.219L35.7635 8.79139C35.7635 8.71269 35.7416 8.6375 35.7026 8.56934L32 10.2358Z" fill="#1FA35A"/>
<path d="M31.9995 10.2347L35.7018 8.56826C35.6437 8.46645 35.5472 8.38161 35.4227 8.331L32.3385 7.08177C32.1237 6.99488 31.875 6.99488 31.6601 7.08177L28.576 8.331C28.4515 8.38132 28.355 8.46616 28.2969 8.56826L31.9995 10.2347Z" fill="#5CE27C"/>
<defs>
<linearGradient id="paint0_linear_2514_47884" x1="14.105" y1="37.1546" x2="23.3868" y2="33.9012" gradientUnits="userSpaceOnUse">
<stop stop-color="#3BCE78"/>
<stop offset="1" stop-color="#1DA75C"/>
</linearGradient>
<linearGradient id="paint1_linear_2514_47884" x1="14.105" y1="23.1122" x2="23.3868" y2="19.8587" gradientUnits="userSpaceOnUse">
<stop stop-color="#3BCE78"/>
<stop offset="1" stop-color="#1DA75C"/>
</linearGradient>
<linearGradient id="paint2_linear_2514_47884" x1="40.105" y1="23.1122" x2="49.3868" y2="19.8587" gradientUnits="userSpaceOnUse">
<stop stop-color="#3BCE78"/>
<stop offset="1" stop-color="#1DA75C"/>
</linearGradient>
<linearGradient id="paint3_linear_2514_47884" x1="40.105" y1="37.1546" x2="49.3868" y2="33.9012" gradientUnits="userSpaceOnUse">
<stop stop-color="#3BCE78"/>
<stop offset="1" stop-color="#1DA75C"/>
</linearGradient>
<linearGradient id="paint4_linear_2514_47884" x1="25.5" y1="12.1598" x2="32.0001" y2="12.1598" gradientUnits="userSpaceOnUse">
<stop stop-color="#D3D3D3"/>
<stop offset="1" stop-color="#B5B5B5"/>
</linearGradient>
<linearGradient id="paint5_linear_2514_47884" x1="32" y1="12.1598" x2="38.5001" y2="12.1598" gradientUnits="userSpaceOnUse">
<stop stop-color="#F5F5F5"/>
<stop offset="1" stop-color="#BBBBBB"/>
</linearGradient>
</defs>
</svg>
