<svg width="63" height="63" viewBox="0 0 63 63" fill="none" xmlns="http://www.w3.org/2000/svg">
<circle cx="31.5" cy="31.5" r="31.5" fill="#E7F1FF"/>
<path d="M44.994 44.445C43.436 44.28 41.707 43.751 40.023 42.913L39.835 42.819L39.636 42.888C38.475 43.294 37.252 43.5 36 43.5C30.762 43.5 26.5 39.911 26.5 35.5C26.5 31.089 30.762 27.5 36 27.5C41.238 27.5 45.5 31.089 45.5 35.5C45.5 37.367 44.714 39.187 43.287 40.625L43.04 40.874L43.19 41.191C43.787 42.451 44.382 43.524 44.994 44.445Z" fill="#99C99E"/>
<path d="M36 28C40.963 28 45 31.364 45 35.5C45 37.234 44.266 38.929 42.933 40.272L42.438 40.77L42.738 41.404C43.153 42.281 43.569 43.071 43.99 43.784C42.783 43.539 41.503 43.091 40.245 42.465L39.868 42.277L39.47 42.416C38.363 42.804 37.196 43 36 43C31.037 43 27 39.636 27 35.5C27 31.364 31.037 28 36 28ZM36 27C30.477 27 26 30.806 26 35.5C26 40.194 30.477 44 36 44C37.346 44 38.628 43.771 39.8 43.361C41.753 44.332 43.98 45 46 45C45.091 43.803 44.306 42.379 43.642 40.976C45.111 39.497 46 37.588 46 35.5C46 30.806 41.523 27 36 27Z" fill="#5E9C76"/>
<path d="M19.006 34.445C19.618 33.524 20.213 32.45 20.809 31.19L20.959 30.873L20.712 30.624C19.286 29.187 18.5 27.367 18.5 25.5C18.5 21.089 22.762 17.5 28 17.5C33.238 17.5 37.5 21.089 37.5 25.5C37.5 29.911 33.238 33.5 28 33.5C26.748 33.5 25.525 33.294 24.365 32.889L24.166 32.82L23.978 32.914C22.293 33.751 20.564 34.281 19.006 34.445Z" fill="#8BB7F0"/>
<path d="M28 18C32.963 18 37 21.364 37 25.5C37 29.636 32.963 33 28 33C26.804 33 25.637 32.804 24.53 32.417L24.132 32.278L23.755 32.466C22.497 33.092 21.216 33.54 20.01 33.785C20.431 33.072 20.847 32.282 21.262 31.405L21.562 30.771L21.067 30.273C19.734 28.929 19 27.234 19 25.5C19 21.364 23.037 18 28 18ZM28 17C22.477 17 18 20.806 18 25.5C18 27.588 18.889 29.497 20.358 30.976C19.694 32.379 18.909 33.803 18 35C20.02 35 22.247 34.332 24.2 33.361C25.372 33.771 26.654 34 28 34C33.523 34 38 30.194 38 25.5C38 20.806 33.523 17 28 17Z" fill="#4E7AB5"/>
</svg>
