<svg width="63" height="63" viewBox="0 0 63 63" fill="none" xmlns="http://www.w3.org/2000/svg">
<circle cx="31.5" cy="31.5" r="31.5" fill="#E7F1FF"/>
<path d="M22.0013 24.5C21.7263 24.5 21.5013 24.276 21.5013 24V22.732L18.9023 21L21.5013 19.268V18C21.5013 17.724 21.7263 17.5 22.0013 17.5H41.0013C41.2763 17.5 41.5013 17.724 41.5013 18V24C41.5013 24.276 41.2763 24.5 41.0013 24.5H22.0013Z" fill="#99C99E"/>
<path d="M41 18V24H22V23V22.465L21.555 22.168L19.803 21L21.555 19.832L22 19.535V19V18H41ZM41 17H22C21.45 17 21 17.45 21 18V19L18 21L21 23V24C21 24.55 21.45 25 22 25H41C41.55 25 42 24.55 42 24V18C42 17.45 41.55 17 41 17Z" fill="#5E9C76"/>
<path d="M24.0013 34.5C23.7263 34.5 23.5013 34.276 23.5013 34V32.732L20.9023 31L23.5013 29.268V28C23.5013 27.724 23.7263 27.5 24.0013 27.5H43.0013C43.2763 27.5 43.5013 27.724 43.5013 28V34C43.5013 34.276 43.2763 34.5 43.0013 34.5H24.0013Z" fill="#8BB7F0"/>
<path d="M43 28V34H24V33V32.465L23.555 32.168L21.803 31L23.555 29.832L24 29.535V29V28H43ZM43 27H24C23.45 27 23 27.45 23 28V29L20 31L23 33V34C23 34.55 23.45 35 24 35H43C43.55 35 44 34.55 44 34V28C44 27.45 43.55 27 43 27Z" fill="#4E7AB5"/>
<path d="M26.0013 44.5C25.7263 44.5 25.5013 44.276 25.5013 44V42.732L22.9023 41L25.5013 39.268V38C25.5013 37.724 25.7263 37.5 26.0013 37.5H45.0013C45.2763 37.5 45.5013 37.724 45.5013 38V44C45.5013 44.276 45.2763 44.5 45.0013 44.5H26.0013Z" fill="#DCD5F2"/>
<path d="M45 38V44H26V43V42.465L25.555 42.168L23.803 41L25.555 39.832L26 39.535V39V38H45ZM45 37H26C25.45 37 25 37.45 25 38V39L22 41L25 43V44C25 44.55 25.45 45 26 45H45C45.55 45 46 44.55 46 44V38C46 37.45 45.55 37 45 37Z" fill="#8B75A1"/>
</svg>
