<svg width="63" height="63" viewBox="0 0 63 63" fill="none" xmlns="http://www.w3.org/2000/svg">
<circle cx="31.5" cy="31.5" r="31.5" fill="#E7F1FF"/>
<path d="M18.516 45.5V37.874L18.5 37.862V23.58C21.218 22.417 25.35 21.5 27.104 21.5C29.029 21.5 33.505 22.191 33.505 28.596V28.695L35.476 33.487C35.543 33.65 35.466 33.84 35.303 33.909L33.516 34.671V39C33.516 40.379 32.394 41.5 31.016 41.5H28.516V45.5H18.516Z" fill="#FFEEA3"/>
<path d="M27.104 22C29.308 22 33.005 22.857 33.005 28.595V28.793L33.08 28.976L34.947 33.516L33.624 34.08L33.016 34.339V35V39C33.016 40.103 32.119 41 31.016 41H29.016H28.016V42V45H19.016V38.129L19.049 37.657L19 37.62V23.913C21.768 22.789 25.639 22 27.104 22ZM27.104 21C25.29 21 20.843 21.968 18 23.254V38.116C18.005 38.12 18.011 38.125 18.016 38.129V46H29.016V42H31.016C32.673 42 34.016 40.657 34.016 39V35L35.498 34.368C35.913 34.191 36.109 33.713 35.937 33.296L34.004 28.595C34.005 22.865 30.504 21 27.104 21Z" fill="#BA9B48"/>
<path d="M23.016 18C21.225 18 19.517 18.444 18 19.219V40.349C18.004 40.366 18.012 40.382 18.016 40.399L21.016 38.326V34.793C21.016 34.433 21.07 34.131 21.146 33.855C19.916 33.48 19.016 32.35 19.016 30.998C19.016 29.341 20.359 27.998 22.016 27.998C22.891 27.998 23.671 28.379 24.22 28.977C26.999 28.863 28.016 26.56 28.016 25C31.258 25 33.016 21 33.016 21C33.016 21 29.157 18 23.016 18Z" fill="#FFC49C"/>
<path d="M30.0156 30C29.7504 30 29.4961 30.1054 29.3085 30.2929C29.121 30.4804 29.0156 30.7348 29.0156 31C29.0156 31.2652 29.121 31.5196 29.3085 31.7071C29.4961 31.8946 29.7504 32 30.0156 32C30.2808 32 30.5352 31.8946 30.7227 31.7071C30.9103 31.5196 31.0156 31.2652 31.0156 31C31.0156 30.7348 30.9103 30.4804 30.7227 30.2929C30.5352 30.1054 30.2808 30 30.0156 30Z" fill="#36404D"/>
<path d="M23.016 18C21.225 18 19.517 18.444 18 19.219V20.374C19.486 19.509 21.201 19 23.016 19C27.262 19 30.376 20.537 31.699 21.329C31.084 22.329 29.79 24 28.016 24H27.016V25C27.016 25.928 26.495 27.653 24.58 27.942C23.862 27.338 22.953 27 22.016 27C19.81 27 18.016 28.794 18.016 31C18.016 32.459 18.797 33.76 20.028 34.459C20.02 34.57 20.016 34.681 20.016 34.795V37.803L18 39.2V40.349C18.004 40.366 18.012 40.382 18.016 40.399L21.016 38.326V34.793C21.016 34.433 21.07 34.131 21.146 33.855C19.916 33.48 19.016 32.35 19.016 30.998C19.016 29.341 20.359 27.998 22.016 27.998C22.891 27.998 23.671 28.379 24.22 28.977C26.999 28.863 28.016 26.56 28.016 25C31.258 25 33.016 21 33.016 21C33.016 21 29.157 18 23.016 18Z" fill="#A16A4A"/>
<path d="M46 41L44.021 32.399C43.974 32.172 43.779 32.008 43.549 32C43.331 31.998 43.113 32.143 43.05 32.364L40.946 39.844L39.003 34.333C38.933 34.135 38.748 34.002 38.538 33.999C38.536 33.999 38.533 33.999 38.531 33.999C38.324 33.999 38.138 34.127 38.064 34.32L36.656 38H36V39H37C37.207 39 37.393 38.872 37.467 38.679L38.512 35.95L40.528 41.667C40.601 41.873 40.799 42.011 41.016 42.001C41.234 41.993 41.422 41.847 41.481 41.637L43.456 34.614L44.973 41H46Z" fill="#4E7AB5"/>
</svg>
