<svg width="63" height="63" viewBox="0 0 63 63" fill="none" xmlns="http://www.w3.org/2000/svg">
<circle cx="31.5" cy="31.5" r="31.5" fill="#E7F1FF"/>
<path d="M17.7992 30.4001L17.1992 29.6001L23.9992 24.4001L26.9992 26.4001L32.9992 21.4001L35.9992 23.4001L40.6992 19.6001L41.2992 20.4001L35.9992 24.6001L32.9992 22.6001L26.9992 27.6001L23.9992 25.6001L17.7992 30.4001Z" fill="#5E9C76"/>
<path d="M39.1992 18.5H42.4992V21.8L39.1992 18.5Z" fill="#BAE0BD"/>
<path d="M42 19V20.6L40.4 19H42ZM43 18H38L43 23V18Z" fill="#5E9C76"/>
<path d="M37.5 31.5H40.5V44.5H37.5V31.5Z" fill="#BAE0BD"/>
<path d="M40 32V44H38V32H40ZM41 31H37V45H41V31Z" fill="#5E9C76"/>
<path d="M32.5 29.5H35.5V44.5H32.5V29.5Z" fill="#BAE0BD"/>
<path d="M35 30V44H33V30H35ZM36 29H32V45H36V29Z" fill="#5E9C76"/>
<path d="M27.5 34.5H30.5V44.5H27.5V34.5Z" fill="#BAE0BD"/>
<path d="M30 35V44H28V35H30ZM31 34H27V45H31V34Z" fill="#5E9C76"/>
<path d="M22.5 32.5H25.5V44.5H22.5V32.5Z" fill="#BAE0BD"/>
<path d="M25 33V44H23V33H25ZM26 32H22V45H26V32Z" fill="#5E9C76"/>
<path d="M17.5 36.5H20.5V44.5H17.5V36.5Z" fill="#BAE0BD"/>
<path d="M20 37V44H18V37H20ZM21 36H17V45H21V36Z" fill="#5E9C76"/>
<path d="M42.5 25.5H45.5V44.5H42.5V25.5Z" fill="#BAE0BD"/>
<path d="M45 26V44H43V26H45ZM46 25H42V45H46V25Z" fill="#5E9C76"/>
</svg>
