<?xml version="1.0" encoding="UTF-8"?>
<svg width="8px" height="12px" viewBox="0 0 8 12" version="1.1" xmlns="http://www.w3.org/2000/svg" xmlns:xlink="http://www.w3.org/1999/xlink">
    <!-- Generator: Sketch 52.3 (67297) - http://www.bohemiancoding.com/sketch -->
    <title></title>
    <desc>Created with Sketch.</desc>
    <g id="Page-1" stroke="none" stroke-width="1" fill="none" fill-rule="evenodd">
        <path d="M7.41294643,6.58705357 L2.44419643,11.5558036 C2.35937458,11.6406254 2.25892915,11.6830357 2.14285714,11.6830357 C2.02678513,11.6830357 1.92633971,11.6406254 1.84151786,11.5558036 L0.729910714,10.4441964 C0.645088862,10.3593746 0.602678571,10.2589292 0.602678571,10.1428571 C0.602678571,10.0267851 0.645088862,9.92633971 0.729910714,9.84151786 L4.28571429,6.28571429 L0.729910714,2.72991071 C0.645088862,2.64508886 0.602678571,2.54464344 0.602678571,2.42857143 C0.602678571,2.31249942 0.645088862,2.212054 0.729910714,2.12723214 L1.84151786,1.015625 C1.92633971,0.930803147 2.02678513,0.888392857 2.14285714,0.888392857 C2.25892915,0.888392857 2.35937458,0.930803147 2.44419643,1.015625 L7.41294643,5.984375 C7.49776828,6.06919685 7.54017857,6.16964228 7.54017857,6.28571429 C7.54017857,6.40178629 7.49776828,6.50223172 7.41294643,6.58705357 Z" id="" fill="#26344A"></path>
    </g>
</svg>