<?xml version="1.0" encoding="UTF-8"?>
<svg width="7px" height="11px" viewBox="0 0 7 11" version="1.1" xmlns="http://www.w3.org/2000/svg" xmlns:xlink="http://www.w3.org/1999/xlink">
    <!-- Generator: Sketch 52.3 (67297) - http://www.bohemiancoding.com/sketch -->
    <title>backArrowGreen</title>
    <desc>Created with Sketch.</desc>
    <g id="Page-1" stroke="none" stroke-width="1" fill="none" fill-rule="evenodd">
        <path d="M6.81026786,5.69866071 L1.84151786,10.6674107 C1.756696,10.7522326 1.65625058,10.7946429 1.54017857,10.7946429 C1.42410656,10.7946429 1.32366114,10.7522326 1.23883929,10.6674107 L0.127232143,9.55580357 C0.0424102902,9.47098172 0,9.37053629 0,9.25446429 C0,9.13839228 0.0424102902,9.03794685 0.127232143,8.953125 L3.68303571,5.39732143 L0.127232143,1.84151786 C0.0424102902,1.756696 0,1.65625058 0,1.54017857 C0,1.42410656 0.0424102902,1.32366114 0.127232143,1.23883929 L1.23883929,0.127232143 C1.32366114,0.0424102902 1.42410656,0 1.54017857,0 C1.65625058,0 1.756696,0.0424102902 1.84151786,0.127232143 L6.81026786,5.09598214 C6.89508971,5.180804 6.9375,5.28124942 6.9375,5.39732143 C6.9375,5.51339344 6.89508971,5.61383886 6.81026786,5.69866071 Z" id="backArrowGreen" fill="#009DAB"></path>
    </g>
</svg>