<svg width="16" height="16" viewBox="0 0 16 16" fill="none" xmlns="http://www.w3.org/2000/svg">
<path d="M5.5 2C5.30078 2 5.11719 2.12109 5.03906 2.30469L3.04297 6H1.5C1.22266 6 1 6.22266 1 6.5V8.5C1 8.77734 1.22266 9 1.5 9H2.08984L2.85156 12.7969C2.98828 13.4922 3.60938 14 4.32031 14H11.6797C12.3906 14 13.0117 13.4922 13.1523 12.7969L13.9102 9H14.5C14.7773 9 15 8.77734 15 8.5V6.5C15 6.22266 14.7773 6 14.5 6H12.957L10.9609 2.30469C10.8828 2.12109 10.6992 2 10.5 2H5.5ZM5.82812 3H6.5H7.5H8.5H9.5H10.1719L11.8711 6H4.13281L5.82812 3ZM2 7H14V8H13.5C13.2617 8 13.0547 8.16797 13.0117 8.40234L12.1719 12.5977C12.1211 12.8359 11.9219 13 11.6797 13H4.32031C4.07812 13 3.87891 12.8359 3.82812 12.5977L2.99219 8.40234C2.94531 8.16797 2.73828 8 2.5 8H2V7ZM5 8V12H11V8H5ZM6 9H10V11H6V9Z" fill="white"/>
<path d="M6.5 3V3.5H7.5V3H6.5Z" fill="white"/>
<path d="M8.5 3.5H9.5V3H8.5V3.5Z" fill="white"/>
<path d="M6.5 1.5V2H7.5V1.5H6.5Z" fill="white"/>
<path d="M8.5 2H9.5V1.5H8.5V2Z" fill="white"/>
</svg>
