<svg xmlns="http://www.w3.org/2000/svg" width="16" height="16" viewBox="0 0 16 16">
    <g fill="none" fill-rule="evenodd">
        <path fill="#D8D8D8" fill-opacity="0" d="M0 0H16V16H0z"/>
        <path fill="#009DAB" d="M12.508 2.333c.64 0 1.159.52 1.159 1.16v9.015c0 .64-.52 1.159-1.16 1.159H8c-.64 0-1.16-.52-1.16-1.16V3.493c0-.64.52-1.159 1.16-1.159zm0 1.03H8c-.071 0-.129.058-.129.13v9.015c0 .07.058.128.129.128h4.508c.07 0 .128-.057.128-.128V3.492c0-.07-.057-.128-.128-.128zm-6.124.258v1.03h-.64c-.06 0-.112.044-.124.103l-.003.026v6.44c0 .062.044.114.102.126l.025.002h.646v1.03h-.646c-.619 0-1.123-.486-1.155-1.097l-.002-.061V4.78c0-.619.485-1.125 1.096-1.157l.061-.002h.64zm-2.248 1.61v1.03h-.712c-.017 0-.05.034-.058.096l-.002.033v3.22c0 .071.03.115.05.126l.01.003h.696v1.03h-.696c-.595 0-1.059-.496-1.09-1.097V6.39c0-.607.443-1.123 1.03-1.157l.06-.002h.712z"/>
    </g>
</svg>
