<?xml version="1.0" encoding="UTF-8"?>
<svg width="6px" height="9px" viewBox="0 0 6 9" version="1.1" xmlns="http://www.w3.org/2000/svg" xmlns:xlink="http://www.w3.org/1999/xlink">
    <!-- Generator: Sketch 52.3 (67297) - http://www.bohemiancoding.com/sketch -->
    <title>caretRight</title>
    <desc>Created with Sketch.</desc>
    <g id="Page-1" stroke="none" stroke-width="1" fill="none" fill-rule="evenodd">
        <path d="M6.8515625,2.1484375 C6.95052133,2.24739633 7,2.36458266 7,2.5 C7,2.63541734 6.95052133,2.75260367 6.8515625,2.8515625 L3.3515625,6.3515625 C3.25260367,6.45052133 3.13541734,6.5 3,6.5 C2.86458266,6.5 2.74739633,6.45052133 2.6484375,6.3515625 L-0.8515625,2.8515625 C-0.950521328,2.75260367 -1,2.63541734 -1,2.5 C-1,2.36458266 -0.950521328,2.24739633 -0.8515625,2.1484375 C-0.752603672,2.04947867 -0.635417344,2 -0.5,2 L6.5,2 C6.63541734,2 6.75260367,2.04947867 6.8515625,2.1484375 Z" id="caretRight" fill="#8A959F" transform="translate(3.000000, 4.250000) rotate(-90.000000) translate(-3.000000, -4.250000) "></path>
    </g>
</svg>