<?xml version="1.0" encoding="UTF-8"?>
<svg width="5px" height="8px" viewBox="0 0 5 8" version="1.1" xmlns="http://www.w3.org/2000/svg" xmlns:xlink="http://www.w3.org/1999/xlink">
    <!-- Generator: Sketch 52.3 (67297) - http://www.bohemiancoding.com/sketch -->
    <title>caretRightGreen</title>
    <desc>Created with Sketch.</desc>
    <g id="Page-1" stroke="none" stroke-width="1" fill="none" fill-rule="evenodd">
        <path d="M6.1015625,1.8984375 C6.20052133,1.99739633 6.25,2.11458266 6.25,2.25 C6.25,2.38541734 6.20052133,2.50260367 6.1015625,2.6015625 L2.6015625,6.1015625 C2.50260367,6.20052133 2.38541734,6.25 2.25,6.25 C2.11458266,6.25 1.99739633,6.20052133 1.8984375,6.1015625 L-1.6015625,2.6015625 C-1.70052133,2.50260367 -1.75,2.38541734 -1.75,2.25 C-1.75,2.11458266 -1.70052133,1.99739633 -1.6015625,1.8984375 C-1.50260367,1.79947867 -1.38541734,1.75 -1.25,1.75 L5.75,1.75 C5.88541734,1.75 6.00260367,1.79947867 6.1015625,1.8984375 Z" id="caretRightGreen" fill="#009DAB" transform="translate(2.250000, 4.000000) rotate(-90.000000) translate(-2.250000, -4.000000) "></path>
    </g>
</svg>