<?xml version="1.0" encoding="UTF-8"?>
<svg width="14px" height="15px" viewBox="0 0 14 15" version="1.1" xmlns="http://www.w3.org/2000/svg" xmlns:xlink="http://www.w3.org/1999/xlink">
    <!-- Generator: Sketch 53.2 (72643) - https://sketchapp.com -->
    <title>chevronCircleDown</title>
    <desc>Created with Sketch.</desc>
    <g id="Page-1" stroke="none" stroke-width="1" fill="none" fill-rule="evenodd">
        <path d="M7.40178571,10.8839286 L11.4553571,6.83035714 C11.5684529,6.71726134 11.625,6.58333411 11.625,6.42857143 C11.625,6.27380875 11.5684529,6.13988152 11.4553571,6.02678571 L10.5446429,5.11607143 C10.4315471,5.00297562 10.2976198,4.94642857 10.1428571,4.94642857 C9.98809446,4.94642857 9.85416723,5.00297562 9.74107143,5.11607143 L7,7.85714286 L4.25892857,5.11607143 C4.14583277,5.00297562 4.01190554,4.94642857 3.85714286,4.94642857 C3.70238018,4.94642857 3.56845295,5.00297562 3.45535714,5.11607143 L2.54464286,6.02678571 C2.43154705,6.13988152 2.375,6.27380875 2.375,6.42857143 C2.375,6.58333411 2.43154705,6.71726134 2.54464286,6.83035714 L6.59821429,10.8839286 C6.71131009,10.9970244 6.84523732,11.0535714 7,11.0535714 C7.15476268,11.0535714 7.28868991,10.9970244 7.40178571,10.8839286 Z M12.9375,3.84821429 C13.5505983,4.89583857 13.8571429,6.04166045 13.8571429,7.28571429 C13.8571429,8.52976812 13.5505983,9.67707808 12.9375,10.7276786 C12.3244017,11.7782791 11.4925648,12.610116 10.4419643,13.2232143 C9.39136379,13.8363126 8.24405384,14.1428571 7,14.1428571 C5.75594616,14.1428571 4.60863621,13.8363126 3.55803571,13.2232143 C2.50743522,12.610116 1.6755983,11.7782791 1.0625,10.7276786 C0.449401696,9.67707808 0.142857143,8.52976812 0.142857143,7.28571429 C0.142857143,6.04166045 0.449401696,4.89435049 1.0625,3.84375 C1.6755983,2.79314951 2.50743522,1.96131259 3.55803571,1.34821429 C4.60863621,0.735115982 5.75594616,0.428571429 7,0.428571429 C8.24405384,0.428571429 9.39136379,0.735115982 10.4419643,1.34821429 C11.4925648,1.96131259 12.3244017,2.79463759 12.9375,3.84821429 Z" id="chevronCircleDown" fill="#8A959F" fill-rule="nonzero"></path>
    </g>
</svg>