<?xml version="1.0" encoding="UTF-8"?>
<svg width="14px" height="14px" viewBox="0 0 14 14" version="1.1" xmlns="http://www.w3.org/2000/svg" xmlns:xlink="http://www.w3.org/1999/xlink">
    <!-- Generator: Sketch 53.2 (72643) - https://sketchapp.com -->
    <title>chevronCircleUp</title>
    <desc>Created with Sketch.</desc>
    <g id="Page-1" stroke="none" stroke-width="1" fill="none" fill-rule="evenodd">
        <path d="M7.25892857,10.4553571 L11.3125,6.40178571 C11.4255958,6.28868991 11.4821429,6.15476268 11.4821429,6 C11.4821429,5.84523732 11.4255958,5.71131009 11.3125,5.59821429 L10.4017857,4.6875 C10.2886899,4.5744042 10.1547627,4.51785714 10,4.51785714 C9.84523732,4.51785714 9.71131009,4.5744042 9.59821429,4.6875 L6.85714286,7.42857143 L4.11607143,4.6875 C4.00297563,4.5744042 3.86904839,4.51785714 3.71428571,4.51785714 C3.55952304,4.51785714 3.4255958,4.5744042 3.3125,4.6875 L2.40178571,5.59821429 C2.28868991,5.71131009 2.23214286,5.84523732 2.23214286,6 C2.23214286,6.15476268 2.28868991,6.28868991 2.40178571,6.40178571 L6.45535714,10.4553571 C6.56845295,10.5684529 6.70238018,10.625 6.85714286,10.625 C7.01190554,10.625 7.14583277,10.5684529 7.25892857,10.4553571 Z M12.7946429,3.41964286 C13.4077412,4.46726714 13.7142857,5.61308902 13.7142857,6.85714286 C13.7142857,8.1011967 13.4077412,9.24850665 12.7946429,10.2991071 C12.1815446,11.3497076 11.3497076,12.1815446 10.2991071,12.7946429 C9.24850665,13.4077412 8.1011967,13.7142857 6.85714286,13.7142857 C5.61308902,13.7142857 4.46577906,13.4077412 3.41517857,12.7946429 C2.36457808,12.1815446 1.53274116,11.3497076 0.919642857,10.2991071 C0.306544554,9.24850665 0,8.1011967 0,6.85714286 C0,5.61308902 0.306544554,4.46577906 0.919642857,3.41517857 C1.53274116,2.36457808 2.36457808,1.53274116 3.41517857,0.919642857 C4.46577906,0.306544554 5.61308902,0 6.85714286,0 C8.1011967,0 9.24850665,0.306544554 10.2991071,0.919642857 C11.3497076,1.53274116 12.1815446,2.36606616 12.7946429,3.41964286 Z" id="chevronCircleUp" fill="#8A959F" fill-rule="nonzero" transform="translate(6.857143, 6.857143) scale(1, -1) translate(-6.857143, -6.857143) "></path>
    </g>
</svg>