<svg width="12" height="12" viewBox="0 0 12 12" fill="none" xmlns="http://www.w3.org/2000/svg">
<path d="M11 6C11 8.76125 8.76125 11 6 11C3.23875 11 1 8.76125 1 6C1 3.23875 3.23875 1 6 1C8.76125 1 11 3.23875 11 6Z" fill="url(#paint0_linear)"/>
<path d="M6 10.25C8.34721 10.25 10.25 8.34721 10.25 6C10.25 3.65279 8.34721 1.75 6 1.75C3.65279 1.75 1.75 3.65279 1.75 6C1.75 8.34721 3.65279 10.25 6 10.25Z" fill="url(#paint1_linear)"/>
<path d="M5.81779 5.68434L8.98353 4.16759C9.03128 4.14484 9.08829 4.16484 9.11104 4.21259C9.13179 4.25584 9.11703 4.30659 9.07878 4.33284L6.18229 6.31609C6.01554 6.43034 5.78804 6.38759 5.67379 6.22084C5.55954 6.05409 5.60229 5.82659 5.76904 5.71234C5.78429 5.70209 5.80179 5.69209 5.81779 5.68434Z" fill="#CF2E2E"/>
<path d="M6 6.5C6.27614 6.5 6.5 6.27614 6.5 6C6.5 5.72386 6.27614 5.5 6 5.5C5.72386 5.5 5.5 5.72386 5.5 6C5.5 6.27614 5.72386 6.5 6 6.5Z" fill="#ED5555"/>
<path d="M6 2.75C6.13807 2.75 6.25 2.63807 6.25 2.5C6.25 2.36193 6.13807 2.25 6 2.25C5.86193 2.25 5.75 2.36193 5.75 2.5C5.75 2.63807 5.86193 2.75 6 2.75Z" fill="#199BE2"/>
<path d="M9.5 6.25C9.63807 6.25 9.75 6.13807 9.75 6C9.75 5.86193 9.63807 5.75 9.5 5.75C9.36193 5.75 9.25 5.86193 9.25 6C9.25 6.13807 9.36193 6.25 9.5 6.25Z" fill="#199BE2"/>
<path d="M2.5 6.25C2.63807 6.25 2.75 6.13807 2.75 6C2.75 5.86193 2.63807 5.75 2.5 5.75C2.36193 5.75 2.25 5.86193 2.25 6C2.25 6.13807 2.36193 6.25 2.5 6.25Z" fill="#199BE2"/>
<path d="M4.25 3.21899C4.38807 3.21899 4.5 3.10707 4.5 2.96899C4.5 2.83092 4.38807 2.71899 4.25 2.71899C4.11193 2.71899 4 2.83092 4 2.96899C4 3.10707 4.11193 3.21899 4.25 3.21899Z" fill="#199BE2"/>
<path d="M2.969 8C3.10707 8 3.219 7.88807 3.219 7.75C3.219 7.61193 3.10707 7.5 2.969 7.5C2.83093 7.5 2.719 7.61193 2.719 7.75C2.719 7.88807 2.83093 8 2.969 8Z" fill="#199BE2"/>
<path d="M2.969 4.5C3.10707 4.5 3.219 4.38807 3.219 4.25C3.219 4.11193 3.10707 4 2.969 4C2.83093 4 2.719 4.11193 2.719 4.25C2.719 4.38807 2.83093 4.5 2.969 4.5Z" fill="#199BE2"/>
<path d="M9.031 8C9.16907 8 9.281 7.88807 9.281 7.75C9.281 7.61193 9.16907 7.5 9.031 7.5C8.89293 7.5 8.781 7.61193 8.781 7.75C8.781 7.88807 8.89293 8 9.031 8Z" fill="#199BE2"/>
<path d="M7.75 3.21899C7.88807 3.21899 8 3.10707 8 2.96899C8 2.83092 7.88807 2.71899 7.75 2.71899C7.61193 2.71899 7.5 2.83092 7.5 2.96899C7.5 3.10707 7.61193 3.21899 7.75 3.21899Z" fill="#199BE2"/>
<defs>
<linearGradient id="paint0_linear" x1="2.4645" y1="2.4645" x2="9.5355" y2="9.5355" gradientUnits="userSpaceOnUse">
<stop stop-color="#32BDEF"/>
<stop offset="1" stop-color="#1EA2E4"/>
</linearGradient>
<linearGradient id="paint1_linear" x1="3.67125" y1="2.8595" x2="8.29" y2="9.0885" gradientUnits="userSpaceOnUse">
<stop stop-color="#005FCC"/>
<stop offset="1" stop-color="#065299"/>
</linearGradient>
</defs>
</svg>
