<?xml version="1.0" encoding="UTF-8"?>
<svg width="11px" height="11px" viewBox="0 0 11 11" version="1.1" xmlns="http://www.w3.org/2000/svg" xmlns:xlink="http://www.w3.org/1999/xlink">
    <!-- Generator: Sketch 53.2 (72643) - https://sketchapp.com -->
    <title>closeIconDark</title>
    <desc>Created with Sketch.</desc>
    <g id="Page-1" stroke="none" stroke-width="1" fill="none" fill-rule="evenodd">
        <path d="M9.921875,7.796875 C10.0677091,7.94270906 10.140625,8.11979062 10.140625,8.328125 C10.140625,8.53645938 10.0677091,8.71354094 9.921875,8.859375 L8.859375,9.921875 C8.71354094,10.0677091 8.53645937,10.140625 8.328125,10.140625 C8.11979063,10.140625 7.94270906,10.0677091 7.796875,9.921875 L5.5,7.625 L3.203125,9.921875 C3.05729094,10.0677091 2.88020937,10.140625 2.671875,10.140625 C2.46354063,10.140625 2.28645906,10.0677091 2.140625,9.921875 L1.078125,8.859375 C0.932290937,8.71354094 0.859375,8.53645938 0.859375,8.328125 C0.859375,8.11979062 0.932290937,7.94270906 1.078125,7.796875 L3.375,5.5 L1.078125,3.203125 C0.932290937,3.05729094 0.859375,2.88020938 0.859375,2.671875 C0.859375,2.46354062 0.932290937,2.28645906 1.078125,2.140625 L2.140625,1.078125 C2.28645906,0.932290938 2.46354063,0.859375 2.671875,0.859375 C2.88020937,0.859375 3.05729094,0.932290938 3.203125,1.078125 L5.5,3.375 L7.796875,1.078125 C7.94270906,0.932290938 8.11979063,0.859375 8.328125,0.859375 C8.53645937,0.859375 8.71354094,0.932290938 8.859375,1.078125 L9.921875,2.140625 C10.0677091,2.28645906 10.140625,2.46354062 10.140625,2.671875 C10.140625,2.88020938 10.0677091,3.05729094 9.921875,3.203125 L7.625,5.5 L9.921875,7.796875 Z" id="closeIconDark" fill="#26344A" fill-rule="nonzero"></path>
    </g>
</svg>