<?xml version="1.0" encoding="UTF-8"?>
<svg width="5px" height="5px" viewBox="0 0 5 5" version="1.1" xmlns="http://www.w3.org/2000/svg" xmlns:xlink="http://www.w3.org/1999/xlink">
    <!-- Generator: Sketch 52.3 (67297) - http://www.bohemiancoding.com/sketch -->
    <title>exclamationGray</title>
    <desc>Created with Sketch.</desc>
    <g id="Page-1" stroke="none" stroke-width="1" fill="none" fill-rule="evenodd">
        <path d="M1.06584821,0.358816964 C1.39509093,0.167223744 1.75409032,0.0714285714 2.14285714,0.0714285714 C2.53162397,0.0714285714 2.89015833,0.167223744 3.21847098,0.358816964 C3.54678364,0.550410184 3.80673267,0.810359222 3.99832589,1.13867188 C4.18991911,1.46698453 4.28571429,1.82551889 4.28571429,2.21428571 C4.28571429,2.60305254 4.18991911,2.9615869 3.99832589,3.28989955 C3.80673267,3.61821221 3.54678364,3.87816124 3.21847098,4.06975446 C2.89015833,4.26134768 2.53162397,4.35714286 2.14285714,4.35714286 C1.75409032,4.35714286 1.39555596,4.26134768 1.0672433,4.06975446 C0.73893065,3.87816124 0.478981613,3.61821221 0.287388393,3.28989955 C0.095795173,2.9615869 0,2.60305254 0,2.21428571 C0,1.82551889 0.095795173,1.46698453 0.287388393,1.13867188 C0.478981613,0.810359222 0.738465625,0.550410184 1.06584821,0.358816964 Z M2.5,3.55078125 L2.5,3.02064732 C2.5,2.99460552 2.49162955,2.97274934 2.47488839,2.95507812 C2.45814724,2.93740691 2.43768613,2.92857143 2.41350446,2.92857143 L1.87779018,2.92857143 C1.85360851,2.92857143 1.83221735,2.93787193 1.81361607,2.95647321 C1.79501479,2.9750745 1.78571429,2.99646565 1.78571429,3.02064732 L1.78571429,3.55078125 C1.78571429,3.57496292 1.79501479,3.59635407 1.81361607,3.61495536 C1.83221735,3.63355664 1.85360851,3.64285714 1.87779018,3.64285714 L2.41350446,3.64285714 C2.43768613,3.64285714 2.45814724,3.63402167 2.47488839,3.61635045 C2.49162955,3.59867923 2.5,3.57682305 2.5,3.55078125 Z M2.49441964,2.59095982 L2.54464286,0.858258929 C2.54464286,0.835937388 2.53534235,0.819196484 2.51674107,0.808035714 C2.49813979,0.793154687 2.47581858,0.785714286 2.44977679,0.785714286 L1.8359375,0.785714286 C1.8098957,0.785714286 1.7875745,0.793154687 1.76897321,0.808035714 C1.75037193,0.819196484 1.74107143,0.835937388 1.74107143,0.858258929 L1.78850446,2.59095982 C1.78850446,2.6095611 1.79780497,2.62583698 1.81640625,2.63978795 C1.83500753,2.65373891 1.85732874,2.66071429 1.88337054,2.66071429 L2.39955357,2.66071429 C2.42559537,2.66071429 2.44745155,2.65373891 2.46512277,2.63978795 C2.48279399,2.62583698 2.49255951,2.6095611 2.49441964,2.59095982 Z" id="exclamationGray" fill="#8A959F"></path>
    </g>
</svg>