<?xml version="1.0" encoding="UTF-8"?>
<svg width="13px" height="9px" viewBox="0 0 13 9" version="1.1" xmlns="http://www.w3.org/2000/svg" xmlns:xlink="http://www.w3.org/1999/xlink">
    <!-- Generator: Sketch 53.2 (72643) - https://sketchapp.com -->
    <title>fa-check</title>
    <desc>Created with Sketch.</desc>
    <g id="Page-1" stroke="none" stroke-width="1" fill="none" fill-rule="evenodd">
        <path d="M11.9190848,1.46986607 C12.0545022,1.60528342 12.1222098,1.76971629 12.1222098,1.96316964 C12.1222098,2.15662299 12.0545022,2.32105587 11.9190848,2.45647321 L5.68024554,8.6953125 C5.54482819,8.83072984 5.38039531,8.8984375 5.18694196,8.8984375 C4.99348862,8.8984375 4.82905574,8.83072984 4.69363839,8.6953125 L1.08091518,5.08258929 C0.945497835,4.94717194 0.877790179,4.78273906 0.877790179,4.58928571 C0.877790179,4.39583237 0.945497835,4.23139949 1.08091518,4.09598214 L2.06752232,3.109375 C2.20293967,2.97395766 2.36737254,2.90625 2.56082589,2.90625 C2.75427924,2.90625 2.91871212,2.97395766 3.05412946,3.109375 L5.18694196,5.24944196 L9.94587054,0.483258929 C10.0812879,0.347841585 10.2457208,0.280133929 10.4391741,0.280133929 C10.6326275,0.280133929 10.7970603,0.347841585 10.9324777,0.483258929 L11.9190848,1.46986607 Z" id="fa-check" fill="#79DA83" fill-rule="nonzero"></path>
    </g>
</svg>