<?xml version="1.0" encoding="UTF-8"?>
<svg width="10px" height="10px" viewBox="0 0 10 10" version="1.1" xmlns="http://www.w3.org/2000/svg" xmlns:xlink="http://www.w3.org/1999/xlink">
    <!-- Generator: Sketch 53.2 (72643) - https://sketchapp.com -->
    <title>fa-close</title>
    <desc>Created with Sketch.</desc>
    <g id="Page-1" stroke="none" stroke-width="1" fill="none" fill-rule="evenodd">
        <path d="M9.21316964,6.95424107 C9.34858699,7.08965842 9.41629464,7.25409129 9.41629464,7.44754464 C9.41629464,7.64099799 9.34858699,7.80543087 9.21316964,7.94084821 L8.2265625,8.92745536 C8.09114516,9.0628727 7.92671228,9.13058036 7.73325893,9.13058036 C7.53980558,9.13058036 7.3753727,9.0628727 7.23995536,8.92745536 L5.10714286,6.79464286 L2.97433036,8.92745536 C2.83891301,9.0628727 2.67448013,9.13058036 2.48102679,9.13058036 C2.28757344,9.13058036 2.12314056,9.0628727 1.98772321,8.92745536 L1.00111607,7.94084821 C0.865698728,7.80543087 0.797991071,7.64099799 0.797991071,7.44754464 C0.797991071,7.25409129 0.865698728,7.08965842 1.00111607,6.95424107 L3.13392857,4.82142857 L1.00111607,2.68861607 C0.865698728,2.55319873 0.797991071,2.38876585 0.797991071,2.1953125 C0.797991071,2.00185915 0.865698728,1.83742627 1.00111607,1.70200893 L1.98772321,0.715401786 C2.12314056,0.579984442 2.28757344,0.512276786 2.48102679,0.512276786 C2.67448013,0.512276786 2.83891301,0.579984442 2.97433036,0.715401786 L5.10714286,2.84821429 L7.23995536,0.715401786 C7.3753727,0.579984442 7.53980558,0.512276786 7.73325893,0.512276786 C7.92671228,0.512276786 8.09114516,0.579984442 8.2265625,0.715401786 L9.21316964,1.70200893 C9.34858699,1.83742627 9.41629464,2.00185915 9.41629464,2.1953125 C9.41629464,2.38876585 9.34858699,2.55319873 9.21316964,2.68861607 L7.08035714,4.82142857 L9.21316964,6.95424107 Z" id="fa-close" fill="#8A959F" fill-rule="nonzero"></path>
    </g>
</svg>