<?xml version="1.0" encoding="UTF-8"?>
<svg width="13px" height="13px" viewBox="0 0 13 13" version="1.1" xmlns="http://www.w3.org/2000/svg" xmlns:xlink="http://www.w3.org/1999/xlink">
    <!-- Generator: Sketch 53.2 (72643) - https://sketchapp.com -->
    <title>fa-exclamation-triangle</title>
    <desc>Created with Sketch.</desc>
    <g id="Page-1" stroke="none" stroke-width="1" fill="none" fill-rule="evenodd">
        <path d="M7.42857143,10.8320312 L7.42857143,9.45368304 C7.42857143,9.38597436 7.40559919,9.3291483 7.35965402,9.28320312 C7.31370885,9.23725795 7.25930091,9.21428571 7.19642857,9.21428571 L5.80357143,9.21428571 C5.74069909,9.21428571 5.68629115,9.23725795 5.64034598,9.28320312 C5.59440081,9.3291483 5.57142857,9.38597436 5.57142857,9.45368304 L5.57142857,10.8320312 C5.57142857,10.8997399 5.59440081,10.956566 5.64034598,11.0025112 C5.68629115,11.0484563 5.74069909,11.0714286 5.80357143,11.0714286 L7.19642857,11.0714286 C7.25930091,11.0714286 7.31370885,11.0484563 7.35965402,11.0025112 C7.40559919,10.956566 7.42857143,10.8997399 7.42857143,10.8320312 Z M7.4140625,8.11886161 L7.54464286,4.7890625 C7.54464286,4.7310265 7.52046155,4.68508201 7.47209821,4.65122768 C7.40922588,4.59802801 7.35119074,4.57142857 7.29799107,4.57142857 L5.70200893,4.57142857 C5.64880926,4.57142857 5.59077412,4.59802801 5.52790179,4.65122768 C5.47953845,4.68508201 5.45535714,4.73586276 5.45535714,4.80357143 L5.57868304,8.11886161 C5.57868304,8.16722494 5.60286434,8.2071241 5.65122768,8.23856027 C5.69959102,8.26999644 5.75762615,8.28571429 5.82533482,8.28571429 L7.16741071,8.28571429 C7.23511939,8.28571429 7.29194545,8.26999644 7.33789062,8.23856027 C7.3838358,8.2071241 7.40922617,8.16722494 7.4140625,8.11886161 Z M7.3125,1.34319196 L12.8839286,11.5574777 C13.0532003,11.8621667 13.048364,12.1668512 12.8694196,12.4715402 C12.787202,12.6117939 12.6747589,12.7230279 12.5320871,12.8052455 C12.3894152,12.8874632 12.2358639,12.9285714 12.0714286,12.9285714 L0.928571429,12.9285714 C0.764136083,12.9285714 0.610584791,12.8874632 0.467912946,12.8052455 C0.325241102,12.7230279 0.21279803,12.6117939 0.130580357,12.4715402 C-0.04836399,12.1668512 -0.0532002511,11.8621667 0.116071429,11.5574777 L5.6875,1.34319196 C5.76971767,1.19326562 5.88336981,1.07477722 6.02845982,0.987723214 C6.17354983,0.900669208 6.33072832,0.857142857 6.5,0.857142857 C6.66927168,0.857142857 6.82645017,0.900669208 6.97154018,0.987723214 C7.11663019,1.07477722 7.23028233,1.19326562 7.3125,1.34319196 Z" id="fa-exclamation-triangle" fill="#FFC237" fill-rule="nonzero"></path>
    </g>
</svg>