<?xml version="1.0" encoding="UTF-8"?>
<svg width="12px" height="12px" viewBox="0 0 12 12" version="1.1" xmlns="http://www.w3.org/2000/svg" xmlns:xlink="http://www.w3.org/1999/xlink">
    <!-- Generator: Sketch 53.2 (72643) - https://sketchapp.com -->
    <title>fa-stop-o</title>
    <desc>Created with Sketch.</desc>
    <g id="Page-1" stroke="none" stroke-width="1" fill="none" fill-rule="evenodd">
        <path d="M7.89285714,8.44642857 L7.89285714,4.26785714 C7.89285714,4.20014847 7.87109397,4.14453147 7.82756696,4.10100446 C7.78403996,4.05747746 7.72842296,4.03571429 7.66071429,4.03571429 L3.48214286,4.03571429 C3.41443419,4.03571429 3.35881718,4.05747746 3.31529018,4.10100446 C3.27176318,4.14453147 3.25,4.20014847 3.25,4.26785714 L3.25,8.44642857 C3.25,8.51413724 3.27176318,8.56975425 3.31529018,8.61328125 C3.35881718,8.65680825 3.41443419,8.67857143 3.48214286,8.67857143 L7.66071429,8.67857143 C7.72842296,8.67857143 7.78403996,8.65680825 7.82756696,8.61328125 C7.87109397,8.56975425 7.89285714,8.51413724 7.89285714,8.44642857 Z M10.3956473,3.56417411 C10.8937897,4.41536884 11.1428571,5.34634911 11.1428571,6.35714286 C11.1428571,7.3679366 10.8937897,8.30012594 10.3956473,9.15373884 C9.89750495,10.0073517 9.22163745,10.6832192 8.36802455,11.1813616 C7.51441165,11.679504 6.58222232,11.9285714 5.57142857,11.9285714 C4.56063483,11.9285714 3.62844549,11.679504 2.77483259,11.1813616 C1.92121969,10.6832192 1.24535219,10.0073517 0.747209821,9.15373884 C0.24906745,8.30012594 0,7.3679366 0,6.35714286 C0,5.34634911 0.24906745,4.41415977 0.747209821,3.56054688 C1.24535219,2.70693398 1.92121969,2.03106648 2.77483259,1.53292411 C3.62844549,1.03478174 4.56063483,0.785714286 5.57142857,0.785714286 C6.58222232,0.785714286 7.51441165,1.03478174 8.36802455,1.53292411 C9.22163745,2.03106648 9.89750495,2.70814304 10.3956473,3.56417411 Z" id="fa-stop-o" fill="#FF8181" fill-rule="nonzero"></path>
    </g>
</svg>