<?xml version="1.0" encoding="UTF-8"?>
<svg width="12px" height="12px" viewBox="0 0 12 12" version="1.1" xmlns="http://www.w3.org/2000/svg" xmlns:xlink="http://www.w3.org/1999/xlink">
    <!-- Generator: Sketch 52.3 (67297) - http://www.bohemiancoding.com/sketch -->
    <title>failedWarning</title>
    <desc>Created with Sketch.</desc>
    <g id="Page-1" stroke="none" stroke-width="1" fill="none" fill-rule="evenodd">
        <path d="M6.86393289,9.20758929 L6.86393289,7.93526786 C6.86393289,7.87276754 6.84272775,7.82031271 6.80031682,7.77790179 C6.7579059,7.73549086 6.70768318,7.71428571 6.64964718,7.71428571 L5.36393289,7.71428571 C5.30589689,7.71428571 5.25567418,7.73549086 5.21326325,7.77790179 C5.17085232,7.82031271 5.14964718,7.87276754 5.14964718,7.93526786 L5.14964718,9.20758929 C5.14964718,9.2700896 5.17085232,9.32254443 5.21326325,9.36495536 C5.25567418,9.40736628 5.30589689,9.42857143 5.36393289,9.42857143 L6.64964718,9.42857143 C6.70768318,9.42857143 6.7579059,9.40736628 6.80031682,9.36495536 C6.84272775,9.32254443 6.86393289,9.2700896 6.86393289,9.20758929 Z M6.85054004,6.703125 L6.97107575,3.62946429 C6.97107575,3.57589259 6.94875455,3.5334823 6.90411146,3.50223214 C6.84607546,3.45312475 6.79250457,3.42857143 6.74339718,3.42857143 L5.27018289,3.42857143 C5.22107551,3.42857143 5.16750461,3.45312475 5.10946861,3.50223214 C5.06482553,3.5334823 5.04250432,3.58035683 5.04250432,3.64285714 L5.15634361,6.703125 C5.15634361,6.74776808 5.17866481,6.78459807 5.22330789,6.81361607 C5.26795097,6.84263407 5.32152187,6.85714286 5.38402218,6.85714286 L6.62286146,6.85714286 C6.68536178,6.85714286 6.73781661,6.84263407 6.78022754,6.81361607 C6.82263846,6.78459807 6.84607573,6.74776808 6.85054004,6.703125 Z M6.75679004,0.448660714 L11.8996472,9.87723214 C12.055898,10.1584835 12.0514337,10.4397307 11.8862543,10.7209821 C11.8103611,10.8504471 11.7065675,10.9531246 11.5748704,11.0290179 C11.4431733,11.1049111 11.3014337,11.1428571 11.1496472,11.1428571 L0.863932893,11.1428571 C0.71214642,11.1428571 0.570406766,11.1049111 0.438709679,11.0290179 C0.307012592,10.9531246 0.203218987,10.8504471 0.127325751,10.7209821 C-0.0378536468,10.4397307 -0.0423178878,10.1584835 0.113932893,9.87723214 L5.25679004,0.448660714 C5.33268327,0.310267165 5.43759294,0.200893259 5.57152218,0.120535714 C5.70545142,0.0401781696 5.85053926,0 6.00679004,0 C6.16304082,0 6.30812865,0.0401781696 6.44205789,0.120535714 C6.57598713,0.200893259 6.6808968,0.310267165 6.75679004,0.448660714 Z" id="failedWarning" fill="#FF001F"></path>
    </g>
</svg>