<?xml version="1.0" encoding="UTF-8"?>
<svg width="14px" height="15px" viewBox="0 0 14 15" version="1.1" xmlns="http://www.w3.org/2000/svg" xmlns:xlink="http://www.w3.org/1999/xlink">
    <!-- Generator: Sketch 53.2 (72643) - https://sketchapp.com -->
    <title>formIcon</title>
    <desc>Created with Sketch.</desc>
    <g id="Page-1" stroke="none" stroke-width="1" fill="none" fill-rule="evenodd">
        <g id="formIcon" fill="#8A959F">
            <path d="M11.5769231,0 C12.9144615,0 14,0.504 14,1.125 L14,5.375 C14,5.996 12.9144615,6.5 11.5769231,6.5 L2.42307692,6.5 C1.08553846,6.5 0,5.996 0,5.375 L0,1.125 C0,0.504 1.08553846,0 2.42307692,0 L11.5769231,0 Z M11.5769231,8 C12.9144615,8 14,8.504 14,9.125 L14,13.375 C14,13.996 12.9144615,14.5 11.5769231,14.5 L2.42307692,14.5 C1.08553846,14.5 0,13.996 0,13.375 L0,9.125 C0,8.504 1.08553846,8 2.42307692,8 L11.5769231,8 Z M12.6666667,1 L1.33333333,1 C1.14933333,1 1,1.056 1,1.125 L1,5.375 C1,5.444 1.14933333,5.5 1.33333333,5.5 L12.6666667,5.5 C12.8506667,5.5 13,5.444 13,5.375 L13,1.125 C13,1.056 12.8506667,1 12.6666667,1 Z M12.6666667,9 L1.33333333,9 C1.14933333,9 1,9.056 1,9.125 L1,13.375 C1,13.444 1.14933333,13.5 1.33333333,13.5 L12.6666667,13.5 C12.8506667,13.5 13,13.444 13,13.375 L13,9.125 C13,9.056 12.8506667,9 12.6666667,9 Z" id="Shape"></path>
        </g>
    </g>
</svg>