<svg xmlns="http://www.w3.org/2000/svg" width="14" height="14" viewBox="0 0 14 14">
    <path fill="#8A959F" fill-rule="evenodd" d="M5.375 7.5c.621 0 1.125.504 1.125 1.125v4.25C6.5 13.496 5.996 14 5.375 14h-4.25C.504 14 0 13.496 0 12.875v-4.25C0 8.004.504 7.5 1.125 7.5zm7.5 0c.621 0 1.125.504 1.125 1.125v4.25c0 .621-.504 1.125-1.125 1.125h-4.25c-.621 0-1.125-.504-1.125-1.125v-4.25c0-.621.504-1.125 1.125-1.125zm-7.5 1h-4.25c-.069 0-.125.056-.125.125v4.25c0 .069.056.125.125.125h4.25c.069 0 .125-.056.125-.125v-4.25c0-.069-.056-.125-.125-.125zm7.5 0h-4.25c-.069 0-.125.056-.125.125v4.25c0 .069.056.125.125.125h4.25c.069 0 .125-.056.125-.125v-4.25c0-.069-.056-.125-.125-.125zM5.375 0C5.996 0 6.5.504 6.5 1.125v4.25c0 .621-.504 1.125-1.125 1.125h-4.25C.504 6.5 0 5.996 0 5.375v-4.25C0 .504.504 0 1.125 0zm7.5 0C13.496 0 14 .504 14 1.125v4.25c0 .621-.504 1.125-1.125 1.125h-4.25C8.004 6.5 7.5 5.996 7.5 5.375v-4.25C7.5.504 8.004 0 8.625 0zm-7.5 1h-4.25C1.056 1 1 1.056 1 1.125v4.25c0 .069.056.125.125.125h4.25c.069 0 .125-.056.125-.125v-4.25C5.5 1.056 5.444 1 5.375 1zm7.5 0h-4.25c-.069 0-.125.056-.125.125v4.25c0 .069.056.125.125.125h4.25c.069 0 .125-.056.125-.125v-4.25c0-.069-.056-.125-.125-.125z"/>
</svg>
