<svg xmlns="http://www.w3.org/2000/svg" width="23" height="20" viewBox="0 0 23 20">
    <path fill="#FFF" d="M12.833.004C7.178-.152 2.546 4.392 2.546 10.002H.557c-.5 0-.744.6-.389.944l3.1 3.1c.222.222.566.222.788 0l3.1-3.1c.157-.16.202-.399.115-.605-.088-.207-.29-.34-.515-.34H4.767c0-4.332 3.533-7.83 7.888-7.775 4.132.055 7.61 3.532 7.665 7.665.056 4.343-3.444 7.887-7.776 7.887-1.389 0-2.689-.377-3.822-1.01-.431-.242-.97-.16-1.31.2-.512.51-.412 1.388.222 1.743 1.455.811 3.121 1.289 4.91 1.289 5.61 0 10.153-4.632 9.998-10.287-.145-5.21-4.5-9.565-9.71-9.71z"/>
</svg>
