<svg xmlns="http://www.w3.org/2000/svg" width="12" height="12" viewBox="0 0 12 12">
    <g fill="none" fill-rule="evenodd">
        <g>
            <g>
                <g>
                    <g>
                        <path fill="#D8D8D8" fill-opacity="0" d="M0 0H12V12H0z" transform="translate(-1305 -202) translate(1305 202)"/>
                        <path fill="#8A959F" d="M6 .667c2.946 0 5.333 2.387 5.333 5.333S8.946 11.333 6 11.333.667 8.946.667 6 3.054.667 6 .667zm0 .79C3.49 1.457 1.457 3.49 1.457 6c0 2.51 2.034 4.543 4.543 4.543 2.51 0 4.543-2.034 4.543-4.543 0-2.51-2.034-4.543-4.543-4.543zm.105 3.73c.26 0 .475.158.498.36l.002.036v2.944c0 .218-.224.395-.5.395-.26 0-.475-.158-.498-.36l-.002-.035V5.583c0-.219.224-.395.5-.395zM6 3.334c.268 0 .485.217.485.485s-.217.485-.485.485-.485-.217-.485-.485.217-.485.485-.485z" transform="translate(-1305 -202) translate(1305 202)"/>
                    </g>
                </g>
            </g>
        </g>
    </g>
</svg>
