<?xml version="1.0" encoding="UTF-8"?>
<svg width="13px" height="13px" viewBox="0 0 13 13" version="1.1" xmlns="http://www.w3.org/2000/svg" xmlns:xlink="http://www.w3.org/1999/xlink">
    <!-- Generator: Sketch 52.3 (67297) - http://www.bohemiancoding.com/sketch -->
    <title>Group 2</title>
    <desc>Created with Sketch.</desc>
    <g id="Page-1" stroke="none" stroke-width="1" fill="none" fill-rule="evenodd">
        <g id="Group-2" transform="translate(6.500000, 6.500000) scale(1, -1) translate(-6.500000, -6.500000) ">
            <circle id="Oval" fill="#009DAB" cx="6.5" cy="6.5" r="6.5"></circle>
            <path d="M7.15,2.835 L7.15,5.695 C7.15,5.84500075 7.14750002,5.99166595 7.1425,6.135 C7.13749998,6.27833405 7.13000005,6.42249927 7.12,6.5675 C7.10999995,6.71250072 7.09750008,6.86083257 7.0825,7.0125 C7.06749992,7.16416743 7.0500001,7.3266658 7.03,7.5 L6.425,7.5 C6.4049999,7.3266658 6.38750008,7.16416743 6.3725,7.0125 C6.35749992,6.86083257 6.34500005,6.71250072 6.335,6.5675 C6.32499995,6.42249927 6.31750003,6.27833405 6.3125,6.135 C6.30749997,5.99166595 6.305,5.84500075 6.305,5.695 L6.305,2.835 L7.15,2.835 Z M6.09,9.45 C6.09,9.3633329 6.10583317,9.28166705 6.1375,9.205 C6.16916682,9.12833295 6.21249972,9.06166695 6.2675,9.005 C6.32250027,8.94833305 6.38833295,8.9033335 6.465,8.87 C6.54166705,8.8366665 6.6233329,8.82 6.71,8.82 C6.7966671,8.82 6.87833295,8.8366665 6.955,8.87 C7.03166705,8.9033335 7.09833305,8.94833305 7.155,9.005 C7.21166695,9.06166695 7.25583318,9.12833295 7.2875,9.205 C7.31916682,9.28166705 7.335,9.3633329 7.335,9.45 C7.335,9.54000045 7.31916682,9.62249962 7.2875,9.6975 C7.25583318,9.77250037 7.21166695,9.83833305 7.155,9.895 C7.09833305,9.95166695 7.03166705,9.99583317 6.955,10.0275 C6.87833295,10.0591668 6.7966671,10.075 6.71,10.075 C6.6233329,10.075 6.54166705,10.0591668 6.465,10.0275 C6.38833295,9.99583317 6.32250027,9.95166695 6.2675,9.895 C6.21249972,9.83833305 6.16916682,9.77250037 6.1375,9.6975 C6.10583317,9.62249962 6.09,9.54000045 6.09,9.45 Z" id="!" fill="#FFFFFF"></path>
        </g>
    </g>
</svg>