<?xml version="1.0" encoding="UTF-8"?>
<svg width="16px" height="17px" viewBox="0 0 16 17" version="1.1" xmlns="http://www.w3.org/2000/svg" xmlns:xlink="http://www.w3.org/1999/xlink">
    <!-- Generator: Sketch 52.3 (67297) - http://www.bohemiancoding.com/sketch -->
    <title>kcExtractionIcon</title>
    <desc>Created with Sketch.</desc>
    <g id="Page-1" stroke="none" stroke-width="1" fill="none" fill-rule="evenodd" stroke-linecap="round" stroke-linejoin="round">
        <g id="kcExtractionIcon" transform="translate(1.000000, 1.000000)" stroke="#009EA9" stroke-width="1.5">
            <path d="M7.425,0.142 L12.88,2.87 C13.343,3.1 13.636,3.573 13.636,4.09 L13.636,10.588 C13.636,11.105 13.343,11.578 12.88,11.808 L7.425,14.536 C7.04099614,14.7280022 6.58900386,14.7280022 6.205,14.536 L0.75,11.808 C0.287189203,11.574707 -0.00341783258,11.0992739 -5.55111512e-16,10.581 L-5.55111512e-16,4.091 C-5.55111512e-16,3.573 0.293,3.1 0.757,2.87 L6.21,0.142 C6.593,-0.048 7.042,-0.048 7.424,0.142 L7.425,0.142 Z" id="Path"></path>
            <path d="M0,3.41 L6.6,6.71 L13.2,3.41 M6.818,14.836 L6.818,6.818" id="Shape"></path>
        </g>
    </g>
</svg>