<?xml version="1.0" encoding="UTF-8"?>
<svg width="13px" height="16px" viewBox="0 0 13 16" version="1.1" xmlns="http://www.w3.org/2000/svg" xmlns:xlink="http://www.w3.org/1999/xlink">
    <!-- Generator: Sketch 52.3 (67297) - http://www.bohemiancoding.com/sketch -->
    <title>lockGreen</title>
    <desc>Created with Sketch.</desc>
    <g id="Page-1" stroke="none" stroke-width="1" fill="none" fill-rule="evenodd">
        <path d="M3.57142857,7.42857143 L9.28571429,7.42857143 L9.28571429,5.28571429 C9.28571429,4.49701987 9.00669922,3.8236635 8.44866071,3.265625 C7.89062221,2.7075865 7.21726585,2.42857143 6.42857143,2.42857143 C5.63987701,2.42857143 4.96652065,2.7075865 4.40848214,3.265625 C3.85044364,3.8236635 3.57142857,4.49701987 3.57142857,5.28571429 L3.57142857,7.42857143 Z M12.8571429,8.5 L12.8571429,14.9285714 C12.8571429,15.226192 12.7529772,15.4791656 12.5446429,15.6875 C12.3363085,15.8958344 12.0833348,16 11.7857143,16 L1.07142857,16 C0.773808036,16 0.520834375,15.8958344 0.3125,15.6875 C0.104165625,15.4791656 0,15.226192 0,14.9285714 L0,8.5 C0,8.20237946 0.104165625,7.9494058 0.3125,7.74107143 C0.520834375,7.53273705 0.773808036,7.42857143 1.07142857,7.42857143 L1.42857143,7.42857143 L1.42857143,5.28571429 C1.42857143,3.91665982 1.91963795,2.74107634 2.90178571,1.75892857 C3.88393348,0.776780804 5.05951696,0.285714286 6.42857143,0.285714286 C7.79762589,0.285714286 8.97320937,0.776780804 9.95535714,1.75892857 C10.9375049,2.74107634 11.4285714,3.91665982 11.4285714,5.28571429 L11.4285714,7.42857143 L11.7857143,7.42857143 C12.0833348,7.42857143 12.3363085,7.53273705 12.5446429,7.74107143 C12.7529772,7.9494058 12.8571429,8.20237946 12.8571429,8.5 Z" id="lockGreen" fill="#009DAB"></path>
    </g>
</svg>