<?xml version="1.0" encoding="UTF-8"?>
<svg width="18px" height="18px" viewBox="0 0 18 18" version="1.1" xmlns="http://www.w3.org/2000/svg" xmlns:xlink="http://www.w3.org/1999/xlink">
    <!-- Generator: Sketch 52.3 (67297) - http://www.bohemiancoding.com/sketch -->
    <title>minus-circle</title>
    <desc>Created with Sketch.</desc>
    <g id="Page-1" stroke="none" stroke-width="1" fill="none" fill-rule="evenodd">
        <path d="M13.5714286,9.57142857 L13.5714286,8.14285714 C13.5714286,7.94940379 13.5007448,7.78199475 13.359375,7.640625 C13.2180052,7.49925525 13.0505962,7.42857143 12.8571429,7.42857143 L4.28571429,7.42857143 C4.09226094,7.42857143 3.9248519,7.49925525 3.78348214,7.640625 C3.64211239,7.78199475 3.57142857,7.94940379 3.57142857,8.14285714 L3.57142857,9.57142857 C3.57142857,9.76488192 3.64211239,9.93229096 3.78348214,10.0736607 C3.9248519,10.2150305 4.09226094,10.2857143 4.28571429,10.2857143 L12.8571429,10.2857143 C13.0505962,10.2857143 13.2180052,10.2150305 13.359375,10.0736607 C13.5007448,9.93229096 13.5714286,9.76488192 13.5714286,9.57142857 Z M15.9933036,4.56026786 C16.7596765,5.86979821 17.1428571,7.30207556 17.1428571,8.85714286 C17.1428571,10.4122102 16.7596765,11.8463476 15.9933036,13.1595982 C15.2269307,14.4728488 14.1871345,15.512645 12.8738839,16.2790179 C11.5606333,17.0453907 10.1264959,17.4285714 8.57142857,17.4285714 C7.01636127,17.4285714 5.58222383,17.0453907 4.26897321,16.2790179 C2.9557226,15.512645 1.91592645,14.4728488 1.14955357,13.1595982 C0.383180692,11.8463476 0,10.4122102 0,8.85714286 C0,7.30207556 0.383180692,5.86793811 1.14955357,4.5546875 C1.91592645,3.24143689 2.9557226,2.20164074 4.26897321,1.43526786 C5.58222383,0.668894978 7.01636127,0.285714286 8.57142857,0.285714286 C10.1264959,0.285714286 11.5606333,0.668894978 12.8738839,1.43526786 C14.1871345,2.20164074 15.2269307,3.24329699 15.9933036,4.56026786 Z" id="minus-circle" fill="#FF001F"></path>
    </g>
</svg>