<svg width="18" height="18" viewBox="0 0 18 18" fill="none" xmlns="http://www.w3.org/2000/svg">
<circle cx="9" cy="9" r="9" fill="#FFFBEA"/>
<path d="M8.29863 11.1H9.70136V12.4986H8.29863V11.1Z" fill="url(#paint0_linear_2297_27773)"/>
<path d="M8.29863 5.50137H9.70136V9.70136H8.29863V5.50137Z" fill="url(#paint1_linear_2297_27773)"/>
<path fill-rule="evenodd" clip-rule="evenodd" d="M9 3.4C5.90847 3.4 3.4 5.90847 3.4 9C3.4 12.0915 5.90847 14.6 9 14.6C12.0915 14.6 14.6 12.0915 14.6 9C14.6 5.90847 12.0915 3.4 9 3.4ZM2 9C2 5.13528 5.13528 2 9 2C12.8647 2 16 5.13528 16 9C16 12.8647 12.8647 16 9 16C5.13528 16 2 12.8647 2 9Z" fill="url(#paint2_linear_2297_27773)"/>
<defs>
<linearGradient id="paint0_linear_2297_27773" x1="9" y1="2" x2="9" y2="16" gradientUnits="userSpaceOnUse">
<stop stop-color="#FACE1F"/>
<stop offset="1" stop-color="#DF9F10"/>
</linearGradient>
<linearGradient id="paint1_linear_2297_27773" x1="9" y1="2" x2="9" y2="16" gradientUnits="userSpaceOnUse">
<stop stop-color="#FACE1F"/>
<stop offset="1" stop-color="#DF9F10"/>
</linearGradient>
<linearGradient id="paint2_linear_2297_27773" x1="9" y1="2" x2="9" y2="16" gradientUnits="userSpaceOnUse">
<stop stop-color="#FACE1F"/>
<stop offset="1" stop-color="#DF9F10"/>
</linearGradient>
</defs>
</svg>
