<svg xmlns="http://www.w3.org/2000/svg" width="16" height="16" viewBox="0 0 16 16">
    <g fill="none" fill-rule="evenodd">
        <path fill="#D8D8D8" fill-opacity="0" d="M0 0H16V16H0z"/>
        <path fill="#26344A" d="M7.467 11.733c.687 0 1.244.557 1.244 1.245 0 .687-.557 1.244-1.244 1.244-.688 0-1.245-.557-1.245-1.244 0-.688.557-1.245 1.245-1.245zm0-4.977c.687 0 1.244.557 1.244 1.244 0 .687-.557 1.244-1.244 1.244-.688 0-1.245-.557-1.245-1.244 0-.687.557-1.244 1.245-1.244zm0-4.978c.687 0 1.244.557 1.244 1.244 0 .688-.557 1.245-1.244 1.245-.688 0-1.245-.557-1.245-1.245 0-.687.557-1.244 1.245-1.244z"/>
    </g>
</svg>
