<?xml version="1.0" encoding="UTF-8"?>
<svg width="11px" height="11px" viewBox="0 0 11 11" version="1.1" xmlns="http://www.w3.org/2000/svg" xmlns:xlink="http://www.w3.org/1999/xlink">
    <!-- Generator: Sketch 52.3 (67297) - http://www.bohemiancoding.com/sketch -->
    <title>refreshIconGreen</title>
    <desc>Created with Sketch.</desc>
    <g id="Page-1" stroke="none" stroke-width="1" fill="none" fill-rule="evenodd">
        <path d="M10.2857143,0.857142857 L10.2857143,3.85714286 C10.2857143,3.97321487 10.243304,4.07366029 10.1584821,4.15848214 C10.0736603,4.243304 9.97321487,4.28571429 9.85714286,4.28571429 L6.85714286,4.28571429 C6.66964192,4.28571429 6.53794681,4.19642946 6.46205357,4.01785714 C6.38616033,3.84374913 6.41741002,3.68973281 6.55580357,3.55580357 L7.47991071,2.63169643 C6.81919313,2.02008623 6.04018306,1.71428571 5.14285714,1.71428571 C4.67856911,1.71428571 4.23549318,1.8046866 3.81361607,1.98549107 C3.39173896,2.16629555 3.02678725,2.41071275 2.71875,2.71875 C2.41071275,3.02678725 2.16629555,3.39173896 1.98549107,3.81361607 C1.8046866,4.23549318 1.71428571,4.67856911 1.71428571,5.14285714 C1.71428571,5.60714518 1.8046866,6.0502211 1.98549107,6.47209821 C2.16629555,6.89397532 2.41071275,7.25892703 2.71875,7.56696429 C3.02678725,7.87500154 3.39173896,8.11941874 3.81361607,8.30022321 C4.23549318,8.48102769 4.67856911,8.57142857 5.14285714,8.57142857 C5.6741098,8.57142857 6.17633692,8.4553583 6.64955357,8.22321429 C7.12277022,7.99107027 7.5223198,7.66294855 7.84821429,7.23883929 C7.87946444,7.19419621 7.93080321,7.16741076 8.00223214,7.15848214 C8.06919676,7.15848214 8.12499978,7.17857123 8.16964286,7.21875 L9.08705357,8.14285714 C9.12723234,8.17857161 9.14843749,8.22433008 9.15066964,8.28013393 C9.1529018,8.33593778 9.13616089,8.38616049 9.10044643,8.43080357 C8.61383685,9.02009223 8.02455703,9.47656088 7.33258929,9.80022321 C6.64062154,10.1238855 5.91071813,10.2857143 5.14285714,10.2857143 C4.44642509,10.2857143 3.78125317,10.1495549 3.14732143,9.87723214 C2.51338969,9.60490935 1.96652016,9.23884158 1.50669643,8.77901786 C1.0468727,8.31919413 0.680804933,7.7723246 0.408482143,7.13839286 C0.136159353,6.50446112 0,5.8392892 0,5.14285714 C0,4.44642509 0.136159353,3.78125317 0.408482143,3.14732143 C0.680804933,2.51338969 1.0468727,1.96652016 1.50669643,1.50669643 C1.96652016,1.0468727 2.51338969,0.680804933 3.14732143,0.408482143 C3.78125317,0.136159353 4.44642509,0 5.14285714,0 C5.79911042,0 6.43414872,0.12388269 7.04799107,0.371651786 C7.66183343,0.619420882 8.2075869,0.968747746 8.68526786,1.41964286 L9.55580357,0.555803571 C9.6852685,0.417410022 9.84151694,0.386160335 10.0245536,0.462053571 C10.1986616,0.537946808 10.2857143,0.66964192 10.2857143,0.857142857 Z" id="refreshIconGreen" fill="#009DAB" transform="translate(5.142857, 5.142857) scale(-1, 1) rotate(-93.000000) translate(-5.142857, -5.142857) "></path>
    </g>
</svg>