<svg width="20" height="21" viewBox="0 0 20 21" fill="none" xmlns="http://www.w3.org/2000/svg">
<path d="M5.83331 5.91602H9.58331C9.81331 5.91602 9.99998 5.72935 9.99998 5.49935V3.83268C9.99998 3.60268 9.81331 3.41602 9.58331 3.41602H5.83331V5.91602Z" fill="url(#paint0_linear)"/>
<path d="M7.57952 13.8327H5.83369V3.41602L3.82202 5.42768C3.5091 5.7406 3.33369 6.16435 3.33369 6.60643V13.8327H1.58786C1.28786 13.8327 1.13786 14.1952 1.34994 14.4073L4.14202 17.1994C4.38619 17.4435 4.78202 17.4435 5.02577 17.1994L7.81785 14.4073C8.02994 14.1952 7.87952 13.8327 7.57952 13.8327Z" fill="url(#paint1_linear)"/>
<path d="M14.1667 15.084H10.4167C10.1867 15.084 10 15.2707 10 15.5007V17.1673C10 17.3973 10.1867 17.584 10.4167 17.584H14.1667V15.084Z" fill="url(#paint2_linear)"/>
<path d="M12.4209 7.16698H14.1668V17.5836L16.1784 15.572C16.4909 15.2595 16.6668 14.8353 16.6668 14.3936V7.16698H18.4126C18.7126 7.16698 18.8626 6.80448 18.6505 6.5924L15.8588 3.80031C15.6147 3.55615 15.2188 3.55615 14.9751 3.80031L12.183 6.5924C11.9705 6.80448 12.1209 7.16698 12.4209 7.16698Z" fill="url(#paint3_linear)"/>
<defs>
<linearGradient id="paint0_linear" x1="9.99998" y1="4.66602" x2="5.83331" y2="4.66602" gradientUnits="userSpaceOnUse">
<stop offset="0.266" stop-color="#199AE0"/>
<stop offset="0.582" stop-color="#1898DE"/>
<stop offset="0.745" stop-color="#1590D6"/>
<stop offset="0.873" stop-color="#1083C9"/>
<stop offset="0.982" stop-color="#0870B7"/>
<stop offset="1" stop-color="#076CB3"/>
</linearGradient>
<linearGradient id="paint1_linear" x1="1.63536" y1="3.9156" x2="7.08411" y2="17.9439" gradientUnits="userSpaceOnUse">
<stop stop-color="#32BDEF"/>
<stop offset="1" stop-color="#1EA2E4"/>
</linearGradient>
<linearGradient id="paint2_linear" x1="10" y1="16.334" x2="14.1667" y2="16.334" gradientUnits="userSpaceOnUse">
<stop offset="0.266" stop-color="#199AE0"/>
<stop offset="0.582" stop-color="#1898DE"/>
<stop offset="0.745" stop-color="#1590D6"/>
<stop offset="0.873" stop-color="#1083C9"/>
<stop offset="0.982" stop-color="#0870B7"/>
<stop offset="1" stop-color="#076CB3"/>
</linearGradient>
<linearGradient id="paint3_linear" x1="13.4638" y1="3.69323" x2="18.3334" y2="17.4899" gradientUnits="userSpaceOnUse">
<stop stop-color="#32BDEF"/>
<stop offset="1" stop-color="#1EA2E4"/>
</linearGradient>
</defs>
</svg>
