<?xml version="1.0" encoding="UTF-8"?>
<svg width="11px" height="11px" viewBox="0 0 11 11" version="1.1" xmlns="http://www.w3.org/2000/svg" xmlns:xlink="http://www.w3.org/1999/xlink">
    <!-- Generator: Sketch 52.3 (67297) - http://www.bohemiancoding.com/sketch -->
    <title>refreshIcon</title>
    <desc>Created with Sketch.</desc>
    <g id="Page-1" stroke="none" stroke-width="1" fill="none" fill-rule="evenodd">
        <path d="M10.2857143,1.42857143 L10.2857143,4.42857143 C10.2857143,4.54464344 10.243304,4.64508886 10.1584821,4.72991071 C10.0736603,4.81473257 9.97321487,4.85714286 9.85714286,4.85714286 L6.85714286,4.85714286 C6.66964192,4.85714286 6.53794681,4.76785804 6.46205357,4.58928571 C6.38616033,4.4151777 6.41741002,4.26116138 6.55580357,4.12723214 L7.47991071,3.203125 C6.81919313,2.5915148 6.04018306,2.28571429 5.14285714,2.28571429 C4.67856911,2.28571429 4.23549318,2.37611517 3.81361607,2.55691964 C3.39173896,2.73772412 3.02678725,2.98214132 2.71875,3.29017857 C2.41071275,3.59821583 2.16629555,3.96316753 1.98549107,4.38504464 C1.8046866,4.80692175 1.71428571,5.24999768 1.71428571,5.71428571 C1.71428571,6.17857375 1.8046866,6.62164968 1.98549107,7.04352679 C2.16629555,7.4654039 2.41071275,7.8303556 2.71875,8.13839286 C3.02678725,8.44643011 3.39173896,8.69084731 3.81361607,8.87165179 C4.23549318,9.05245626 4.67856911,9.14285714 5.14285714,9.14285714 C5.6741098,9.14285714 6.17633692,9.02678687 6.64955357,8.79464286 C7.12277022,8.56249884 7.5223198,8.23437712 7.84821429,7.81026786 C7.87946444,7.76562478 7.93080321,7.73883933 8.00223214,7.72991071 C8.06919676,7.72991071 8.12499978,7.7499998 8.16964286,7.79017857 L9.08705357,8.71428571 C9.12723234,8.75000018 9.14843749,8.79575865 9.15066964,8.8515625 C9.1529018,8.90736635 9.13616089,8.95758906 9.10044643,9.00223214 C8.61383685,9.5915208 8.02455703,10.0479895 7.33258929,10.3716518 C6.64062154,10.6953141 5.91071813,10.8571429 5.14285714,10.8571429 C4.44642509,10.8571429 3.78125317,10.7209835 3.14732143,10.4486607 C2.51338969,10.1763379 1.96652016,9.81027016 1.50669643,9.35044643 C1.0468727,8.8906227 0.680804933,8.34375317 0.408482143,7.70982143 C0.136159353,7.07588969 0,6.41071777 0,5.71428571 C0,5.01785366 0.136159353,4.35268174 0.408482143,3.71875 C0.680804933,3.08481826 1.0468727,2.53794873 1.50669643,2.078125 C1.96652016,1.61830127 2.51338969,1.2522335 3.14732143,0.979910714 C3.78125317,0.707587924 4.44642509,0.571428571 5.14285714,0.571428571 C5.79911042,0.571428571 6.43414872,0.695311261 7.04799107,0.943080357 C7.66183343,1.19084945 8.2075869,1.54017632 8.68526786,1.99107143 L9.55580357,1.12723214 C9.6852685,0.988838594 9.84151694,0.957588906 10.0245536,1.03348214 C10.1986616,1.10937538 10.2857143,1.24107049 10.2857143,1.42857143 Z" id="refreshIcon" fill="#8A959F"></path>
    </g>
</svg>