<svg width="20" height="20" viewBox="0 0 20 20" fill="none" xmlns="http://www.w3.org/2000/svg">
<path d="M5.83301 5.41699H9.58301C9.81301 5.41699 9.99967 5.23033 9.99967 5.00033V3.33366C9.99967 3.10366 9.81301 2.91699 9.58301 2.91699H5.83301V5.41699Z" fill="url(#paint0_linear)"/>
<path d="M7.57989 13.3337H5.83405V2.91699L3.82239 4.92866C3.50947 5.24158 3.33405 5.66533 3.33405 6.10741V13.3337H1.58822C1.28822 13.3337 1.13822 13.6962 1.35031 13.9082L4.14239 16.7003C4.38655 16.9445 4.78239 16.9445 5.02614 16.7003L7.81822 13.9082C8.0303 13.6962 7.87989 13.3337 7.57989 13.3337Z" fill="url(#paint1_linear)"/>
<path d="M14.1667 14.583H10.4167C10.1867 14.583 10 14.7697 10 14.9997V16.6663C10 16.8963 10.1867 17.083 10.4167 17.083H14.1667V14.583Z" fill="url(#paint2_linear)"/>
<path d="M12.4214 6.66698H14.1672V17.0836L16.1789 15.072C16.4914 14.7595 16.6672 14.3353 16.6672 13.8936V6.66698H18.4131C18.7131 6.66698 18.8631 6.30448 18.651 6.0924L15.8593 3.30031C15.6152 3.05615 15.2193 3.05615 14.9756 3.30031L12.1835 6.0924C11.971 6.30448 12.1214 6.66698 12.4214 6.66698Z" fill="url(#paint3_linear)"/>
<defs>
<linearGradient id="paint0_linear" x1="9.99967" y1="4.16699" x2="5.83301" y2="4.16699" gradientUnits="userSpaceOnUse">
<stop offset="0.266" stop-color="#199AE0"/>
<stop offset="0.582" stop-color="#1898DE"/>
<stop offset="0.745" stop-color="#1590D6"/>
<stop offset="0.873" stop-color="#1083C9"/>
<stop offset="0.982" stop-color="#0870B7"/>
<stop offset="1" stop-color="#076CB3"/>
</linearGradient>
<linearGradient id="paint1_linear" x1="1.63572" y1="3.41658" x2="7.08447" y2="17.4449" gradientUnits="userSpaceOnUse">
<stop stop-color="#32BDEF"/>
<stop offset="1" stop-color="#1EA2E4"/>
</linearGradient>
<linearGradient id="paint2_linear" x1="10" y1="15.833" x2="14.1667" y2="15.833" gradientUnits="userSpaceOnUse">
<stop offset="0.266" stop-color="#199AE0"/>
<stop offset="0.582" stop-color="#1898DE"/>
<stop offset="0.745" stop-color="#1590D6"/>
<stop offset="0.873" stop-color="#1083C9"/>
<stop offset="0.982" stop-color="#0870B7"/>
<stop offset="1" stop-color="#076CB3"/>
</linearGradient>
<linearGradient id="paint3_linear" x1="13.4643" y1="3.19323" x2="18.3339" y2="16.9899" gradientUnits="userSpaceOnUse">
<stop stop-color="#32BDEF"/>
<stop offset="1" stop-color="#1EA2E4"/>
</linearGradient>
</defs>
</svg>
