<?xml version="1.0" encoding="UTF-8"?>
<svg width="13px" height="11px" viewBox="0 0 13 11" version="1.1" xmlns="http://www.w3.org/2000/svg" xmlns:xlink="http://www.w3.org/1999/xlink">
    <!-- Generator: Sketch 52.3 (67297) - http://www.bohemiancoding.com/sketch -->
    <title>sortIconAZ</title>
    <desc>Created with Sketch.</desc>
    <g id="sortIconAZ" stroke="none" stroke-width="1" fill="none" fill-rule="evenodd">
        <g id="Group-2" transform="translate(1.000000, 0.000000)" stroke="#26344A" stroke-linecap="round">
            <path d="M2.5,0.5 L2.5,9" id="Line-2"></path>
            <path d="M0,7.5 L2.58137512,10.3927307" id="Line"></path>
            <path d="M2.5,7.5 L5,10.3842163" id="Line-Copy" transform="translate(3.750000, 8.942108) scale(-1, 1) translate(-3.750000, -8.942108) "></path>
        </g>
        <path d="M10.2973633,3.61816406 L9.68212891,2.06054688 L9.06445312,3.61816406 L10.2973633,3.61816406 Z M10.8393555,5 L10.4462891,3.99902344 L8.91552734,3.99902344 L8.51757812,5 L8.04150391,5 L9.47460938,1.38671875 L9.98242188,1.38671875 L11.3935547,5 L10.8393555,5 Z" id="A" fill="#26344A"></path>
        <polygon id="Z" fill="#26344A" points="8.23193359 10 8.23193359 9.58984375 10.1728516 6.77001953 8.3515625 6.77001953 8.3515625 6.38671875 10.7880859 6.38671875 10.7880859 6.77001953 8.84716797 9.58984375 10.7880859 9.58984375 10.7880859 10"></polygon>
    </g>
</svg>