<?xml version="1.0" encoding="UTF-8"?>
<svg width="18px" height="17px" viewBox="0 0 18 17" version="1.1" xmlns="http://www.w3.org/2000/svg" xmlns:xlink="http://www.w3.org/1999/xlink">
    <!-- Generator: Sketch 52.3 (67297) - http://www.bohemiancoding.com/sketch -->
    <title>starGrayIcon</title>
    <desc>Created with Sketch.</desc>
    <g id="Page-1" stroke="none" stroke-width="1" fill="none" fill-rule="evenodd">
        <path d="M17.6428571,6.52064732 C17.6428571,6.67615405 17.5509682,6.84579521 17.3671875,7.02957589 L13.5184152,10.7829241 L14.4302455,16.0842634 C14.437314,16.1337428 14.4408482,16.2044266 14.4408482,16.296317 C14.4408482,16.4447552 14.4037392,16.570219 14.3295201,16.6727121 C14.255301,16.7752051 14.1475081,16.8264509 14.0061384,16.8264509 C13.8718371,16.8264509 13.7304695,16.7840406 13.5820312,16.6992188 L8.82142857,14.1969866 L4.06082589,16.6992188 C3.90531916,16.7840406 3.76395153,16.8264509 3.63671875,16.8264509 C3.48828051,16.8264509 3.3769535,16.7752051 3.30273438,16.6727121 C3.22851525,16.570219 3.19140625,16.4447552 3.19140625,16.296317 C3.19140625,16.253906 3.19847463,16.1832222 3.21261161,16.0842634 L4.12444196,10.7829241 L0.265066964,7.02957589 C0.0883547712,6.83872672 0,6.66908556 0,6.52064732 C0,6.25911328 0.197914688,6.0965405 0.59375,6.03292411 L5.91629464,5.25892857 L8.30189732,0.434709821 C8.43619859,0.144901825 8.60937394,0 8.82142857,0 C9.0334832,0 9.20665855,0.144901825 9.34095982,0.434709821 L11.7265625,5.25892857 L17.0491071,6.03292411 C17.4449425,6.0965405 17.6428571,6.25911328 17.6428571,6.52064732 Z" id="starGrayIcon" fill="#8A959F"></path>
    </g>
</svg>