<?xml version="1.0" encoding="UTF-8"?>
<svg width="54px" height="54px" viewBox="0 0 54 54" version="1.1" xmlns="http://www.w3.org/2000/svg" xmlns:xlink="http://www.w3.org/1999/xlink">
    <!-- Generator: Sketch 52.3 (67297) - http://www.bohemiancoding.com/sketch -->
    <title>sucessTickGreen</title>
    <desc>Created with Sketch.</desc>
    <g id="sucessTickGreen" stroke="none" stroke-width="1" fill="none" fill-rule="evenodd">
        <circle id="Oval" fill="#36BA5A" cx="27" cy="27" r="27"></circle>
        <path d="M35.3370536,22.4151786 C35.5453879,22.6235129 35.6495536,22.8764866 35.6495536,23.1741071 C35.6495536,23.4717277 35.5453879,23.7247013 35.3370536,23.9330357 L25.7388393,33.53125 C25.5305049,33.7395844 25.2775312,33.84375 24.9799107,33.84375 C24.6822902,33.84375 24.4293165,33.7395844 24.2209821,33.53125 L18.6629464,27.9732143 C18.4546121,27.7648799 18.3504464,27.5119063 18.3504464,27.2142857 C18.3504464,26.9166652 18.4546121,26.6636915 18.6629464,26.4553571 L20.1808036,24.9375 C20.3891379,24.7291656 20.6421116,24.625 20.9397321,24.625 C21.2373527,24.625 21.4903263,24.7291656 21.6986607,24.9375 L24.9799107,28.2299107 L32.3013393,20.8973214 C32.5096737,20.6889871 32.7626473,20.5848214 33.0602679,20.5848214 C33.3578884,20.5848214 33.6108621,20.6889871 33.8191964,20.8973214 L35.3370536,22.4151786 Z" id="" fill="#FFFFFF"></path>
    </g>
</svg>