<?xml version="1.0" encoding="UTF-8"?>
<svg width="11px" height="12px" viewBox="0 0 11 12" version="1.1" xmlns="http://www.w3.org/2000/svg" xmlns:xlink="http://www.w3.org/1999/xlink">
    <!-- Generator: Sketch 52.3 (67297) - http://www.bohemiancoding.com/sketch -->
    <title>trashIconGray</title>
    <desc>Created with Sketch.</desc>
    <g id="Page-1" stroke="none" stroke-width="1" fill="none" fill-rule="evenodd">
        <path d="M3.92857143,9.05357143 L3.92857143,3.94642857 C3.92857143,3.8787199 3.90680825,3.8231029 3.86328125,3.77957589 C3.81975425,3.73604889 3.76413724,3.71428571 3.69642857,3.71428571 L3.23214286,3.71428571 C3.16443419,3.71428571 3.10881718,3.73604889 3.06529018,3.77957589 C3.02176318,3.8231029 3,3.8787199 3,3.94642857 L3,9.05357143 C3,9.1212801 3.02176318,9.1768971 3.06529018,9.22042411 C3.10881718,9.26395111 3.16443419,9.28571429 3.23214286,9.28571429 L3.69642857,9.28571429 C3.76413724,9.28571429 3.81975425,9.26395111 3.86328125,9.22042411 C3.90680825,9.1768971 3.92857143,9.1212801 3.92857143,9.05357143 Z M5.78571429,9.05357143 L5.78571429,3.94642857 C5.78571429,3.8787199 5.76395111,3.8231029 5.72042411,3.77957589 C5.6768971,3.73604889 5.6212801,3.71428571 5.55357143,3.71428571 L5.08928571,3.71428571 C5.02157704,3.71428571 4.96596004,3.73604889 4.92243304,3.77957589 C4.87890603,3.8231029 4.85714286,3.8787199 4.85714286,3.94642857 L4.85714286,9.05357143 C4.85714286,9.1212801 4.87890603,9.1768971 4.92243304,9.22042411 C4.96596004,9.26395111 5.02157704,9.28571429 5.08928571,9.28571429 L5.55357143,9.28571429 C5.6212801,9.28571429 5.6768971,9.26395111 5.72042411,9.22042411 C5.76395111,9.1768971 5.78571429,9.1212801 5.78571429,9.05357143 Z M7.64285714,9.05357143 L7.64285714,3.94642857 C7.64285714,3.8787199 7.62109397,3.8231029 7.57756696,3.77957589 C7.53403996,3.73604889 7.47842296,3.71428571 7.41071429,3.71428571 L6.94642857,3.71428571 C6.8787199,3.71428571 6.8231029,3.73604889 6.77957589,3.77957589 C6.73604889,3.8231029 6.71428571,3.8787199 6.71428571,3.94642857 L6.71428571,9.05357143 C6.71428571,9.1212801 6.73604889,9.1768971 6.77957589,9.22042411 C6.8231029,9.26395111 6.8787199,9.28571429 6.94642857,9.28571429 L7.41071429,9.28571429 C7.47842296,9.28571429 7.53403996,9.26395111 7.57756696,9.22042411 C7.62109397,9.1768971 7.64285714,9.1212801 7.64285714,9.05357143 Z M3.69642857,1.85714286 L6.94642857,1.85714286 L6.59821429,1.00837054 C6.56435995,0.964843532 6.52325173,0.938244096 6.47488839,0.928571429 L4.17522321,0.928571429 C4.12685988,0.938244096 4.08575166,0.964843532 4.05189732,1.00837054 L3.69642857,1.85714286 Z M10.4285714,2.08928571 L10.4285714,2.55357143 C10.4285714,2.6212801 10.4068083,2.6768971 10.3632813,2.72042411 C10.3197542,2.76395111 10.2641372,2.78571429 10.1964286,2.78571429 L9.5,2.78571429 L9.5,9.66294643 C9.5,10.0643621 9.38634786,10.4113639 9.15904018,10.7039621 C8.93173249,10.9965602 8.65848374,11.1428571 8.33928571,11.1428571 L2.30357143,11.1428571 C1.9843734,11.1428571 1.71112465,11.0013965 1.48381696,10.718471 C1.25650928,10.4355455 1.14285714,10.09338 1.14285714,9.69196429 L1.14285714,2.78571429 L0.446428571,2.78571429 C0.3787199,2.78571429 0.323102896,2.76395111 0.279575893,2.72042411 C0.23604889,2.6768971 0.214285714,2.6212801 0.214285714,2.55357143 L0.214285714,2.08928571 C0.214285714,2.02157704 0.23604889,1.96596004 0.279575893,1.92243304 C0.323102896,1.87890603 0.3787199,1.85714286 0.446428571,1.85714286 L2.68805804,1.85714286 L3.19587054,0.645647321 C3.26841554,0.466702974 3.39899459,0.314360748 3.58761161,0.188616071 C3.77622862,0.0628713951 3.96726094,0 4.16071429,0 L6.48214286,0 C6.67559621,0 6.86662852,0.0628713951 7.05524554,0.188616071 C7.24386255,0.314360748 7.3744416,0.466702974 7.44698661,0.645647321 L7.95479911,1.85714286 L10.1964286,1.85714286 C10.2641372,1.85714286 10.3197542,1.87890603 10.3632813,1.92243304 C10.4068083,1.96596004 10.4285714,2.02157704 10.4285714,2.08928571 Z" id="trashIconGray" fill="#8A959F"></path>
    </g>
</svg>