<svg width="56" height="56" viewBox="0 0 56 56" fill="none" xmlns="http://www.w3.org/2000/svg">
<path d="M27.9998 51.3327C15.1338 51.3327 4.6665 40.8653 4.6665 27.9993C4.6665 15.1333 15.1338 4.66602 27.9998 4.66602C40.8658 4.66602 51.3332 15.1333 51.3332 27.9993C51.3332 40.8653 40.8658 51.3327 27.9998 51.3327ZM27.9998 9.33268C17.7075 9.33268 9.33317 17.707 9.33317 27.9993C9.33317 38.2917 17.7075 46.666 27.9998 46.666C38.2922 46.666 46.6665 38.2917 46.6665 27.9993C46.6665 17.707 38.2922 9.33268 27.9998 9.33268Z" fill="#E4E5E7"/>
<path d="M27.9998 51.3327C15.1338 51.3327 4.6665 40.8653 4.6665 27.9993H9.33317C9.33317 38.2917 17.7075 46.666 27.9998 46.666C38.2922 46.666 46.6665 38.2917 46.6665 27.9993C46.6665 17.707 38.2922 9.33268 27.9998 9.33268V4.66602C40.8658 4.66602 51.3332 15.1333 51.3332 27.9993C51.3332 40.8653 40.8658 51.3327 27.9998 51.3327Z" fill="#0D6EFD"/>
</svg>
