<?xml version="1.0" encoding="UTF-8"?>
<svg width="12px" height="12px" viewBox="0 0 12 12" version="1.1" xmlns="http://www.w3.org/2000/svg" xmlns:xlink="http://www.w3.org/1999/xlink">
    <!-- Generator: Sketch 53.2 (72643) - https://sketchapp.com -->
    <title>reloadIcon</title>
    <desc>Created with Sketch.</desc>
    <g id="Page-1" stroke="none" stroke-width="1" fill="none" fill-rule="evenodd">
        <path d="M11.8046875,7.25 C11.8046875,7.2760418 11.8020834,7.29427078 11.796875,7.3046875 C11.46354,8.70052781 10.7656303,9.83202691 9.703125,10.6992188 C8.64061969,11.5664106 7.39584047,12 5.96875,12 C5.20832953,12 4.4726598,11.8567723 3.76171875,11.5703125 C3.0507777,11.2838527 2.41666945,10.8750027 1.859375,10.34375 L0.8515625,11.3515625 C0.752603672,11.4505213 0.635417344,11.5 0.5,11.5 C0.364582656,11.5 0.247396328,11.4505213 0.1484375,11.3515625 C0.0494786719,11.2526037 0,11.1354173 0,11 L0,7.5 C0,7.36458266 0.0494786719,7.24739633 0.1484375,7.1484375 C0.247396328,7.04947867 0.364582656,7 0.5,7 L4,7 C4.13541734,7 4.25260367,7.04947867 4.3515625,7.1484375 C4.45052133,7.24739633 4.5,7.36458266 4.5,7.5 C4.5,7.63541734 4.45052133,7.75260367 4.3515625,7.8515625 L3.28125,8.921875 C3.65104352,9.26562672 4.07031016,9.53124906 4.5390625,9.71875 C5.00781484,9.90625094 5.49478914,10 6,10 C6.69792016,10 7.34895531,9.83073086 7.953125,9.4921875 C8.55729469,9.15364414 9.04166484,8.68750297 9.40625,8.09375 C9.46354195,8.00520789 9.60156141,7.70052344 9.8203125,7.1796875 C9.86197938,7.05989523 9.94010359,7 10.0546875,7 L11.5546875,7 C11.6223962,7 11.6809893,7.02473934 11.7304688,7.07421875 C11.7799482,7.12369816 11.8046875,7.18229133 11.8046875,7.25 Z M12,1 L12,4.5 C12,4.63541734 11.9505213,4.75260367 11.8515625,4.8515625 C11.7526037,4.95052133 11.6354173,5 11.5,5 L8,5 C7.86458266,5 7.74739633,4.95052133 7.6484375,4.8515625 C7.54947867,4.75260367 7.5,4.63541734 7.5,4.5 C7.5,4.36458266 7.54947867,4.24739633 7.6484375,4.1484375 L8.7265625,3.0703125 C7.95572531,2.35676727 7.04688023,2 6,2 C5.30207984,2 4.65104469,2.16926914 4.046875,2.5078125 C3.44270531,2.84635586 2.95833516,3.31249703 2.59375,3.90625 C2.53645805,3.99479211 2.39843859,4.29947656 2.1796875,4.8203125 C2.13802062,4.94010477 2.05989641,5 1.9453125,5 L0.390625,5 C0.322916328,5 0.264323164,4.97526066 0.21484375,4.92578125 C0.165364336,4.87630184 0.140625,4.81770867 0.140625,4.75 L0.140625,4.6953125 C0.479168359,3.29947219 1.18228633,2.16797309 2.25,1.30078125 C3.31771367,0.433589414 4.56770117,0 6,0 C6.76042047,0 7.49999641,0.144529805 8.21875,0.43359375 C8.93750359,0.722657695 9.57551805,1.1302057 10.1328125,1.65625 L11.1484375,0.6484375 C11.2473963,0.549478672 11.3645827,0.5 11.5,0.5 C11.6354173,0.5 11.7526037,0.549478672 11.8515625,0.6484375 C11.9505213,0.747396328 12,0.864582656 12,1 Z" id="reloadIcon" fill="#8A959F" fill-rule="nonzero"></path>
    </g>
</svg>