<svg width="20" height="20" viewBox="0 0 20 20" fill="none" xmlns="http://www.w3.org/2000/svg">
<path d="M11.3335 1.33325C11.2138 1.33339 11.0964 1.36574 10.9935 1.42691C10.8906 1.48808 10.8061 1.57582 10.7489 1.68091L5.44938 10.289V10.2903C5.37375 10.4012 5.33336 10.5323 5.3335 10.6666C5.3335 10.8434 5.40373 11.013 5.52876 11.138C5.65378 11.263 5.82335 11.3333 6.00016 11.3333H9.66683L8.67985 17.8671C8.67108 17.9108 8.66672 17.9553 8.66683 17.9999C8.66683 18.1767 8.73707 18.3463 8.86209 18.4713C8.98712 18.5963 9.15669 18.6666 9.3335 18.6666C9.45464 18.6664 9.57343 18.6332 9.67713 18.5706C9.78082 18.5079 9.86549 18.4182 9.92204 18.3111H9.92334L15.2046 9.72648L15.1981 9.71476C15.277 9.60524 15.3335 9.47845 15.3335 9.33325C15.3335 8.96525 15.0348 8.66659 14.6668 8.66659H11.0002L11.9702 2.19653C11.99 2.13286 12.0001 2.06659 12.0002 1.99992C12.0002 1.82311 11.9299 1.65354 11.8049 1.52851C11.6799 1.40349 11.5103 1.33325 11.3335 1.33325Z" fill="#FFDA2D"/>
</svg>
