<?xml version="1.0" encoding="UTF-8"?>
<svg width="18px" height="20px" viewBox="0 0 18 20" version="1.1" xmlns="http://www.w3.org/2000/svg" xmlns:xlink="http://www.w3.org/1999/xlink">
    <!-- Generator: Sketch 48.2 (47327) - http://www.bohemiancoding.com/sketch -->
    <title>Group 4</title>
    <desc>Created with Sketch.</desc>
    <defs></defs>
    <g id="//-1-task-icons-copy" stroke="none" stroke-width="1" fill="none" fill-rule="evenodd" transform="translate(-1328.000000, -15.000000)" stroke-linecap="round" stroke-linejoin="round">
        <g id="Group-3" transform="translate(1063.000000, 13.000000)" stroke="#8A959F" stroke-width="2">
            <g id="Notification" transform="translate(262.000000, 2.000000)">
                <g id="Group-4" transform="translate(4.000000, 1.000000)">
                    <path d="M10.2857143,15.4285714 C10.2857143,16.8470747 9.13371429,17.9983237 7.71428571,17.9983237 C6.29485714,17.9983237 5.14285714,16.8470747 5.14285714,15.4285714" id="Stroke-210"></path>
                    <path d="M2.57177119,5.13950456 C2.57177119,2.30121317 4.87448548,0 7.71462833,0 C10.5547712,0 12.8574855,2.30121317 12.8574855,5.13950456 L12.8574855,8.99413299 L15.347914,13.3665665 C15.5587712,13.7880059 15.3453426,14.1336375 14.8734855,14.1336375 L0.555771189,14.1336375 C0.0839140465,14.1336375 -0.129514525,13.7880059 0.0813426179,13.3665665 L2.57177119,8.99413299 L2.57177119,5.13950456 Z" id="Stroke-211"></path>
                </g>
            </g>
        </g>
    </g>
</svg>