<svg width="40" height="30" viewBox="0 0 40 30" fill="none" xmlns="http://www.w3.org/2000/svg">
<path fill-rule="evenodd" clip-rule="evenodd" d="M13.7606 18.7694C12.8829 20.4817 10.9679 21.9817 7.76291 21.9817C3.86639 21.9817 0.927368 19.8579 0.927368 15.8491C0.927368 11.2562 4.7175 10.0748 8.68052 9.65004C8.89255 9.62739 9.09711 9.60585 9.29436 9.58507C12.45 9.25273 13.734 9.1175 13.734 7.8182V7.73856C13.734 5.73416 12.5106 4.59259 10.2764 4.59259C7.9225 4.59259 6.56603 5.78726 6.08727 7.18105L1.5923 6.54389C2.6562 2.82713 5.95429 0.915649 10.2498 0.915649C14.1463 0.915649 18.5482 2.53509 18.5482 7.9244V21.5702H13.9202V18.7694H13.7606ZM5.56862 15.7694C5.56862 17.5349 7.00489 18.4508 9.01299 18.4508C11.9121 18.4508 13.7473 16.526 13.7473 14.2562V11.8535C13.1559 12.3308 10.8617 12.6418 9.54633 12.82C9.47162 12.8301 9.40007 12.8398 9.33216 12.8491C7.17777 13.1544 5.56862 13.9243 5.56862 15.7694Z" fill="url(#paint0_linear)"/>
<path d="M29.9143 9.13608H32.0376C32.3306 9.13608 32.5684 9.38434 32.5684 9.69023V12.4608H39.4691C39.7621 12.4608 40 12.709 40 13.0149V15.2315C40 15.5373 39.7621 15.7856 39.4691 15.7856H36.9844C35.4717 18.659 33.8152 21.0646 32.2133 23.0417C34.5392 25.1371 36.7832 26.5567 37.7184 27.1129C37.9721 27.2636 38.0549 27.5961 37.9116 27.8621L36.9094 29.7173C36.7651 29.9844 36.4423 30.0786 36.1854 29.9279C35.1895 29.3398 32.7311 27.7933 30.1238 25.4309C27.9765 27.7048 26.1167 29.1516 25.1103 29.8831C24.8694 30.0582 24.5413 29.9906 24.3746 29.7368L23.089 27.7762C22.9234 27.5247 22.9818 27.1855 23.2206 27.0104C23.9919 26.4467 25.7091 25.1062 27.7229 23.0333C26.7197 21.9234 25.7551 20.6963 24.9065 19.3604C24.7367 19.0922 24.8248 18.7243 25.0934 18.5658L26.9077 17.493C27.1519 17.3489 27.4555 17.432 27.6084 17.6781C28.2732 18.7493 29.0409 19.7491 29.8529 20.6684C31.0315 19.2558 32.2331 17.6257 33.3495 15.7856H22.4829C22.1899 15.7856 21.952 15.5373 21.952 15.2315V13.0149C21.952 12.709 22.1899 12.4608 22.4829 12.4608H29.3834V9.69023C29.3834 9.38434 29.6213 9.13608 29.9143 9.13608Z" fill="url(#paint1_linear)"/>
<path d="M22.2933 26.0951C23.9856 24.8582 30.2312 19.882 34.1731 11.6353L36.9503 13.0805C32.5159 22.4677 26.3573 27.3873 24.183 28.9677C23.942 29.1429 23.614 29.0752 23.4473 28.8215L22.1617 26.8609C21.996 26.6093 22.0544 26.2702 22.2933 26.0951Z" fill="url(#paint2_linear)"/>
<path d="M35.258 29.0116C33.5689 28.0141 27.6736 24.2604 23.9791 18.4441C23.8092 18.1759 23.8973 17.8079 24.1659 17.6495L25.9803 16.5766C26.2245 16.4326 26.5281 16.5157 26.681 16.7617C29.8043 21.7944 35.1975 25.249 36.791 26.1965C37.0447 26.3473 37.1275 26.6797 36.9842 26.9457L35.982 28.801C35.8376 29.0681 35.5149 29.1623 35.258 29.0116Z" fill="url(#paint3_linear)"/>
<path d="M21.5556 11.5453H38.5419C38.8349 11.5453 39.0727 11.7936 39.0727 12.0995V14.3161C39.0727 14.6219 38.8349 14.8702 38.5419 14.8702H21.5556C21.2626 14.8702 21.0248 14.6219 21.0248 14.3161V12.0995C21.0248 11.7936 21.2626 11.5453 21.5556 11.5453Z" fill="url(#paint4_linear)"/>
<path d="M28.9869 8.22021H31.1102C31.4032 8.22021 31.641 8.46847 31.641 8.77436V14.6992H28.4561V8.77436C28.4561 8.46847 28.6939 8.22021 28.9869 8.22021Z" fill="url(#paint5_linear)"/>
<path d="M6.83554 21.0661C10.0405 21.0661 11.9556 19.5661 12.8333 17.8537H12.9929V20.6546H17.6208V7.00875C17.6208 1.61944 13.2189 0 9.3224 0C5.02692 0 1.72883 1.91148 0.664936 5.62824L5.1599 6.2654C5.63866 4.87161 6.99513 3.67694 9.349 3.67694C11.5832 3.67694 12.8067 4.81851 12.8067 6.82291V6.90255C12.8067 8.28307 11.3571 8.34944 7.75316 8.73439C3.79014 9.15916 0 10.3406 0 14.9334C0 18.9422 2.93902 21.0661 6.83554 21.0661ZM8.08562 17.5351C6.07752 17.5351 4.64125 16.6192 4.64125 14.8538C4.64125 13.0087 6.2504 12.2388 8.40479 11.9335C9.66817 11.7609 12.1949 11.4423 12.82 10.9379V13.3405C12.82 15.6104 10.9847 17.5351 8.08562 17.5351Z" fill="url(#paint6_linear)"/>
<defs>
<linearGradient id="paint0_linear" x1="9.73777" y1="0.915649" x2="9.73777" y2="21.9817" gradientUnits="userSpaceOnUse">
<stop offset="0.457761" stop-color="#0D6EFD" stop-opacity="0.16"/>
<stop offset="1" stop-color="#07377F" stop-opacity="0.06"/>
</linearGradient>
<linearGradient id="paint1_linear" x1="9.73777" y1="0.915649" x2="9.73777" y2="21.9817" gradientUnits="userSpaceOnUse">
<stop offset="0.457761" stop-color="#0D6EFD" stop-opacity="0.16"/>
<stop offset="1" stop-color="#07377F" stop-opacity="0.06"/>
</linearGradient>
<linearGradient id="paint2_linear" x1="35.7054" y1="13.7391" x2="29.3421" y2="26.6254" gradientUnits="userSpaceOnUse">
<stop stop-color="#0D6EFD"/>
<stop offset="0.635417" stop-color="#0D6EFD"/>
<stop offset="1" stop-color="#85B7FE"/>
</linearGradient>
<linearGradient id="paint3_linear" x1="23.6489" y1="18.3176" x2="32.794" y2="28.735" gradientUnits="userSpaceOnUse">
<stop stop-color="#0D6EFD"/>
<stop offset="0.635417" stop-color="#0D6EFD"/>
<stop offset="1" stop-color="#85B7FE"/>
</linearGradient>
<linearGradient id="paint4_linear" x1="30.0487" y1="11.5453" x2="30.0487" y2="14.8702" gradientUnits="userSpaceOnUse">
<stop stop-color="#0D6EFD"/>
<stop offset="0.635417" stop-color="#0D6EFD"/>
<stop offset="1" stop-color="#85B7FE"/>
</linearGradient>
<linearGradient id="paint5_linear" x1="30.0485" y1="8.22021" x2="29.9124" y2="15.1125" gradientUnits="userSpaceOnUse">
<stop stop-color="#0D6EFD"/>
<stop offset="0.77174" stop-color="#0D6EFD"/>
<stop offset="1" stop-color="#85B7FE"/>
</linearGradient>
<linearGradient id="paint6_linear" x1="8.8104" y1="0" x2="8.8104" y2="21.0661" gradientUnits="userSpaceOnUse">
<stop offset="0.457761" stop-color="#0D6EFD"/>
<stop offset="1" stop-color="#85B7FE"/>
</linearGradient>
</defs>
</svg>
