<svg width="40" height="40" viewBox="0 0 40 40" fill="none" xmlns="http://www.w3.org/2000/svg">
<path d="M20.3879 15.7071L12.4904 7.91342L14.9367 5.49921C15.4983 4.94579 15.1007 4 14.3087 4H5.77919C4.7968 4 4 4.78632 4 5.75579V14.1724C4 14.9547 4.9584 15.3463 5.51919 14.7929L7.96558 12.3787L15.8631 20.1716C16.4631 20.7637 16.8007 21.5674 16.8007 22.4042V24.5263H23.2007V22.4058C23.1999 19.8929 22.1887 17.4834 20.3879 15.7071Z" fill="#185ABD"/>
<path d="M34.2208 4H25.6912C24.8984 4 24.5016 4.94579 25.0624 5.49921L27.5088 7.91342L19.6112 15.7071C17.8112 17.4834 16.8 19.8929 16.8 22.4058V34.4211C16.8 35.2934 17.516 36 18.4 36H21.6C22.484 36 23.2 35.2934 23.2 34.4211V22.4058C23.2 21.5682 23.5368 20.7653 24.1376 20.1732L32.0352 12.3803L34.4816 14.7945C35.0416 15.3471 36 14.9547 36 14.1732V5.75579C36 4.78632 35.2032 4 34.2208 4Z" fill="url(#paint0_linear)"/>
<defs>
<linearGradient id="paint0_linear" x1="13.1649" y1="29.4874" x2="36.6591" y2="5.67918" gradientUnits="userSpaceOnUse">
<stop stop-color="#4191FD"/>
<stop offset="1" stop-color="#55ACFD"/>
</linearGradient>
</defs>
</svg>
