<?xml version="1.0" encoding="UTF-8"?>
<svg width="18px" height="18px" viewBox="0 0 18 18" version="1.1" xmlns="http://www.w3.org/2000/svg" xmlns:xlink="http://www.w3.org/1999/xlink">
    <!-- Generator: Sketch 53.2 (72643) - https://sketchapp.com -->
    <title>betaIcon-white</title>
    <desc>Created with Sketch.</desc>
    <g id="Page-1" stroke="none" stroke-width="1" fill="none" fill-rule="evenodd">
        <g id="betaIcon-white">
            <polygon id="Path" points="0 0 18 0 18 18 0 18"></polygon>
            <path d="M9,0 C13.9705627,3.04359188e-16 18,4.02943725 18,9 C18,13.9705627 13.9705627,18 9,18 C4.02943725,18 6.08718376e-16,13.9705627 0,9 C-6.08718376e-16,4.02943725 4.02943725,9.13077564e-16 9,0 Z M9.16,3.743 C8.397,3.743 7.868,3.975 7.458,4.361 C7.008,4.786 6.558,5.501 6.558,7.124 L6.558,12.534 C6.558,13.364 6.597,14.157 6.734,14.544 L7.712,14.544 C7.594,14.06 7.575,13.094 7.575,12.418 L7.575,11.626 L7.615,11.646 C8.065,12.109 8.651,12.36 9.453,12.36 C10.744,12.36 11.958,11.51 11.958,9.926 C11.958,8.612 11.097,7.858 10.197,7.666 L10.197,7.626 C10.744,7.356 11.253,6.68 11.253,5.791 C11.253,4.574 10.333,3.743 9.16,3.743 Z M9.062,4.555 C9.766,4.555 10.275,5.095 10.275,5.926 C10.275,6.68 9.805,7.376 8.905,7.433 C8.847,7.433 8.788,7.453 8.71,7.453 L8.71,8.167 C8.808,8.167 8.925,8.148 9.023,8.167 C10.079,8.207 10.881,8.767 10.881,9.907 C10.881,10.853 10.197,11.549 9.238,11.549 C8.416,11.549 7.829,11.046 7.555,10.602 L7.575,10.602 L7.575,7.008 C7.575,5.385 8.103,4.555 9.062,4.555 L9.062,4.555 Z" id="Shape" fill="#FFFFFF" fill-rule="nonzero"></path>
        </g>
    </g>
</svg>