<svg xmlns="http://www.w3.org/2000/svg" width="18" height="18" viewBox="0 0 18 18">
    <g fill="none" fill-rule="evenodd">
        <path d="M0 0h18v18H0z"/>
        <path fill="#8A959F" d="M9 0a9 9 0 1 1 0 18A9 9 0 0 1 9 0zm.16 3.743c-.763 0-1.292.232-1.702.618-.45.425-.9 1.14-.9 2.763v5.41c0 .83.039 1.623.176 2.01h.978c-.118-.484-.137-1.45-.137-2.126v-.792l.04.02c.45.463 1.036.714 1.838.714 1.291 0 2.505-.85 2.505-2.434 0-1.314-.861-2.068-1.761-2.26v-.04c.547-.27 1.056-.946 1.056-1.835 0-1.217-.92-2.048-2.093-2.048zm-.098.812c.704 0 1.213.54 1.213 1.371 0 .754-.47 1.45-1.37 1.507-.058 0-.117.02-.195.02v.714c.098 0 .215-.019.313 0 1.056.04 1.858.6 1.858 1.74 0 .946-.684 1.642-1.643 1.642-.822 0-1.409-.503-1.683-.947h.02V7.008c0-1.623.528-2.453 1.487-2.453z"/>
    </g>
</svg>
