<svg width="78" height="77" viewBox="0 0 78 77" fill="none" xmlns="http://www.w3.org/2000/svg">
<rect width="78" height="77" rx="3" fill="#FFE0B2"/>
<path d="M31 56.5L37.667 44.5" stroke="#E65100" stroke-miterlimit="10"/>
<path d="M31 55C30.824 55 31.176 55 31 55C30.172 55 29.5 55.672 29.5 56.5C29.5 57.328 30.172 58 31 58C31.176 58 30.824 58 31 58C31.828 58 32.5 57.328 32.5 56.5C32.5 55.672 31.828 55 31 55Z" fill="#E65100"/>
<path d="M47 56.5L40.333 44.5" stroke="#E65100" stroke-miterlimit="10"/>
<path d="M47 55C47.176 55 46.824 55 47 55C47.828 55 48.5 55.672 48.5 56.5C48.5 57.328 47.828 58 47 58C46.824 58 47.176 58 47 58C46.172 58 45.5 57.328 45.5 56.5C45.5 55.672 46.172 55 47 55ZM39 53C38.448 53 38 52.552 38 52V21C38 20.448 38.448 20 39 20C39.552 20 40 20.448 40 21V52C40 52.552 39.552 53 39 53Z" fill="#E65100"/>
<path d="M20.5 24.5H57.5V50.5H20.5V24.5Z" fill="#FFF8E1"/>
<path d="M57 25V50H21V25H57ZM58 24H20V51H58V24Z" fill="#E65100"/>
<path d="M27.5 44.5L31.968 38.5L35.968 40.5L38.968 34.5L42.968 37.5L44.968 34.5L47.968 35.5L50.5 30.689" stroke="#E65100" stroke-miterlimit="10" stroke-linecap="round"/>
<path d="M19.5 21.5H58.5V24.5H19.5V21.5Z" fill="#FFF8E1"/>
<path d="M58 22V24H20V22H58ZM59 21H19V25H59V21Z" fill="#E65100"/>
</svg>
