<svg width="78" height="78" viewBox="0 0 78 78" fill="none" xmlns="http://www.w3.org/2000/svg">
<rect y="0.107422" width="78" height="77" rx="3" fill="#F3E5F5"/>
<path d="M27.0689 29.3683L23.7329 28.2563L20.6299 23.0843L23.4769 20.2373L28.6489 23.3403L29.7609 26.6763L41.2929 38.2083L38.6009 40.9003L27.0689 29.3683Z" fill="#DDB4E4"/>
<path d="M23.555 20.8664L28.234 23.6734L29.25 26.7224L29.325 26.9464L29.492 27.1134L40.586 38.2074L38.6 40.1934L27.506 29.0984L27.339 28.9314L27.115 28.8574L24.067 27.8414L21.259 23.1624L23.555 20.8664ZM23.4 19.6074L20 23.0074L23.399 28.6734L26.798 29.8064L38.6 41.6074L42 38.2074L30.199 26.4064L29.066 23.0064L23.4 19.6074Z" fill="#4A148C"/>
<path d="M53.534 57.1073C52.467 57.1073 51.466 56.6903 50.716 55.9323L37.707 42.8173L43.345 37.2373L56.352 50.3513C57.098 51.1033 57.505 52.1013 57.5 53.1613C57.494 54.2203 57.077 55.2143 56.324 55.9593C55.577 56.6993 54.586 57.1073 53.534 57.1073Z" fill="#CE93D8"/>
<path d="M43.341 37.9433L55.997 50.7023C56.648 51.3603 57.005 52.2323 57 53.1583C56.995 54.0843 56.631 54.9523 55.973 55.6043C55.319 56.2513 54.453 56.6073 53.534 56.6073C52.602 56.6073 51.727 56.2423 51.07 55.5793L38.415 42.8213L43.341 37.9433ZM43.347 36.5293L37 42.8143L50.36 56.2833C51.234 57.1653 52.384 57.6073 53.534 57.6073C54.67 57.6073 55.806 57.1773 56.676 56.3143C58.429 54.5783 58.443 51.7513 56.707 49.9983L43.347 36.5293Z" fill="#4A148C"/>
<path d="M25.4351 57.1072C24.1081 57.1072 22.8631 56.5872 21.9291 55.6442C21.0011 54.7082 20.4931 53.4652 20.5001 52.1472C20.5071 50.8292 21.0261 49.5922 21.9631 48.6662L39.3491 31.4092L46.2931 38.4232L28.9061 55.6792C27.9771 56.6002 26.7441 57.1072 25.4351 57.1072ZM25.5011 50.1072C24.4021 50.1072 23.5051 51.0002 23.5001 52.0972C23.4951 53.2002 24.3881 54.1022 25.4901 54.1072C26.5971 54.1072 27.4951 53.2142 27.5001 52.1172C27.5051 51.0142 26.6121 50.1122 25.5101 50.1072H25.5011Z" fill="#F3E5F5"/>
<path d="M39.3459 32.1167L45.5869 38.4197L28.5549 55.3237C27.7199 56.1517 26.6109 56.6077 25.4349 56.6077C24.2419 56.6077 23.1229 56.1407 22.2829 55.2937C20.5619 53.5557 20.5759 50.7427 22.3149 49.0207L39.3459 32.1167ZM25.4979 54.6077H25.4999C26.8719 54.6077 27.9929 53.4917 27.9999 52.1197C28.0069 50.7417 26.8909 49.6147 25.4999 49.6077C24.1279 49.6077 23.0069 50.7237 22.9999 52.0957C22.9969 52.7637 23.2539 53.3927 23.7239 53.8667C24.1939 54.3407 24.8199 54.6047 25.4889 54.6077H25.4979ZM39.3519 30.7017L21.6109 48.3107C19.4779 50.4227 19.4609 53.8637 21.5729 55.9967C22.6359 57.0697 24.0349 57.6077 25.4349 57.6077C26.8169 57.6077 28.1989 57.0837 29.2589 56.0347L46.9999 38.4267L39.3519 30.7017ZM25.4999 53.6077C25.4969 53.6077 25.4949 53.6077 25.4919 53.6077C24.6639 53.6037 23.9959 52.9287 23.9999 52.1007C24.0039 51.2747 24.6749 50.6077 25.4999 50.6077C25.5029 50.6077 25.5049 50.6077 25.5079 50.6077C26.3359 50.6117 27.0039 51.2867 26.9999 52.1147C26.9959 52.9407 26.3249 53.6077 25.4999 53.6077Z" fill="#4A148C"/>
<path d="M49.5518 39.1334C46.8248 39.1324 44.0228 37.8804 41.8608 35.6974C37.9688 31.7664 37.3718 26.0264 40.5268 22.9014C42.2148 21.2304 45.1578 20.1074 47.8498 20.1074C48.9188 20.1074 49.8968 20.2754 50.7658 20.6074L44.3838 26.9314L45.9898 31.6004L50.6448 33.2534L57.0248 26.9294C58.2958 30.3524 56.8788 34.9394 54.6408 37.1564C53.3358 38.4504 51.5758 39.1334 49.5518 39.1334Z" fill="#F3E5F5"/>
<path d="M47.8509 20.6074C48.5539 20.6074 49.2139 20.6844 49.8249 20.8354L44.2559 26.3544L43.8099 26.7974L44.0139 27.3914L45.4389 31.5354L45.5959 31.9914L46.0499 32.1524L50.1809 33.6204L50.7729 33.8304L51.2189 33.3884L56.7839 27.8734C57.5069 30.9544 56.2419 34.8684 54.2879 36.8024C53.0779 38.0004 51.4389 38.6344 49.5499 38.6344C46.9559 38.6344 44.2819 37.4364 42.2129 35.3464C40.3949 33.5104 39.2679 31.2204 39.0389 28.8984C38.8179 26.6534 39.4699 24.6504 40.8759 23.2584C42.4799 21.6724 45.2819 20.6074 47.8509 20.6074ZM47.8509 19.6074C44.9519 19.6074 41.9209 20.8184 40.1749 22.5474C36.8169 25.8724 37.4129 31.9174 41.5039 36.0494C43.8389 38.4074 46.8079 39.6334 49.5509 39.6334C51.6149 39.6334 53.5509 38.9394 54.9919 37.5124C57.5429 34.9864 59.0039 29.6944 57.1929 26.0604L50.5149 32.6784L46.3839 31.2104L44.9589 27.0664L51.6369 20.4484C50.4959 19.8654 49.1869 19.6074 47.8509 19.6074Z" fill="#4A148C"/>
<path d="M53.5001 53.1073L45.4851 45.0923" stroke="#4A148C" stroke-miterlimit="10" stroke-linecap="round"/>
</svg>
