<svg width="78" height="78" viewBox="0 0 78 78" fill="none" xmlns="http://www.w3.org/2000/svg">
<rect y="0.107422" width="78" height="77" rx="3" fill="#E8EAF6"/>
<path d="M21.5 21.5757H56.5V56.5757H21.5V21.5757Z" fill="#E8EAF6"/>
<path d="M56 22.0757V56.0757H22V22.0757H56ZM57 21.0757H21V57.0757H57V21.0757Z" fill="#1A237E"/>
<path d="M35 37.0757H53V42.0757H35V37.0757Z" fill="#C5CAE9"/>
<path d="M31.5 40.0757H25.5C25.224 40.0757 25 39.8517 25 39.5757C25 39.2997 25.224 39.0757 25.5 39.0757H31.5C31.776 39.0757 32 39.2997 32 39.5757C32 39.8517 31.776 40.0757 31.5 40.0757Z" fill="#1A237E"/>
<path d="M35 29.0757H53V34.0757H35V29.0757Z" fill="#C5CAE9"/>
<path d="M31.5 32.0757H25.5C25.224 32.0757 25 31.8517 25 31.5757C25 31.2997 25.224 31.0757 25.5 31.0757H31.5C31.776 31.0757 32 31.2997 32 31.5757C32 31.8517 31.776 32.0757 31.5 32.0757Z" fill="#1A237E"/>
<path opacity="0.6" d="M35 46.0757H51V50.0757H35V46.0757Z" fill="#1A237E"/>
</svg>
