<svg width="78" height="78" viewBox="0 0 78 78" fill="none" xmlns="http://www.w3.org/2000/svg">
<rect y="0.107422" width="78" height="77" rx="3" fill="#E0F7FA"/>
<g clip-path="url(#clip0_2004_5357)">
<path d="M39.5 19.6074C39.106 19.6074 38.7159 19.685 38.3519 19.8358C37.988 19.9865 37.6573 20.2075 37.3787 20.4861C37.1001 20.7647 36.8791 21.0954 36.7284 21.4594C36.5776 21.8233 36.5 22.2135 36.5 22.6074C36.5 23.0014 36.5776 23.3915 36.7284 23.7555C36.8791 24.1194 37.1001 24.4502 37.3787 24.7287C37.6573 25.0073 37.988 25.2283 38.3519 25.3791C38.7159 25.5298 39.106 25.6074 39.5 25.6074C39.894 25.6074 40.2841 25.5298 40.6481 25.3791C41.012 25.2283 41.3427 25.0073 41.6213 24.7287C41.8999 24.4502 42.1209 24.1194 42.2716 23.7555C42.4224 23.3915 42.5 23.0014 42.5 22.6074C42.5 22.2135 42.4224 21.8233 42.2716 21.4594C42.1209 21.0954 41.8999 20.7647 41.6213 20.4861C41.3427 20.2075 41.012 19.9865 40.6481 19.8358C40.2841 19.685 39.894 19.6074 39.5 19.6074Z" fill="#80DEEA"/>
<path d="M39.5 26.1074C37.6 26.1074 36 24.5074 36 22.6074C36 20.7074 37.6 19.1074 39.5 19.1074C41.4 19.1074 43 20.7074 43 22.6074C43 24.5074 41.4 26.1074 39.5 26.1074ZM39.5 20.1074C38.1 20.1074 37 21.2074 37 22.6074C37 24.0074 38.1 25.1074 39.5 25.1074C40.9 25.1074 42 24.0074 42 22.6074C42 21.2074 40.9 20.1074 39.5 20.1074Z" fill="#006064"/>
<path d="M24.7 22.5073C23.9043 22.5073 23.1412 22.8234 22.5786 23.386C22.016 23.9486 21.7 24.7117 21.7 25.5073C21.7 26.303 22.016 27.066 22.5786 27.6286C23.1412 28.1913 23.9043 28.5073 24.7 28.5073C25.4956 28.5073 26.2587 28.1913 26.8213 27.6286C27.3839 27.066 27.7 26.303 27.7 25.5073C27.7 24.7117 27.3839 23.9486 26.8213 23.386C26.2587 22.8234 25.4956 22.5073 24.7 22.5073Z" fill="#80DEEA"/>
<path d="M24.5 29.1074C22.6 29.1074 21 27.5074 21 25.6074C21 23.7074 22.6 22.1074 24.5 22.1074C26.4 22.1074 28 23.7074 28 25.6074C28 27.5074 26.4 29.1074 24.5 29.1074ZM24.5 23.1074C23.1 23.1074 22 24.2074 22 25.6074C22 27.0074 23.1 28.1074 24.5 28.1074C25.9 28.1074 27 27.0074 27 25.6074C27 24.2074 25.9 23.1074 24.5 23.1074ZM39 25.6074H40V31.1074H39V25.6074Z" fill="#006064"/>
<path d="M26.1545 27.979L26.8616 27.2719L29.8315 30.2417L29.1244 30.9488L26.1545 27.979Z" fill="#006064"/>
<path d="M54.3 22.5073C53.5044 22.5073 52.7413 22.8234 52.1787 23.386C51.6161 23.9486 51.3 24.7117 51.3 25.5073C51.3 26.303 51.6161 27.066 52.1787 27.6286C52.7413 28.1913 53.5044 28.5073 54.3 28.5073C55.0957 28.5073 55.8588 28.1913 56.4214 27.6286C56.984 27.066 57.3 26.303 57.3 25.5073C57.3 24.7117 56.984 23.9486 56.4214 23.386C55.8588 22.8234 55.0957 22.5073 54.3 22.5073Z" fill="#80DEEA"/>
<path d="M54.5 29.1074C52.6 29.1074 51 27.5074 51 25.6074C51 23.7074 52.6 22.1074 54.5 22.1074C56.4 22.1074 58 23.7074 58 25.6074C58 27.5074 56.4 29.1074 54.5 29.1074ZM54.5 23.1074C53.1 23.1074 52 24.2074 52 25.6074C52 27.0074 53.1 28.1074 54.5 28.1074C55.9 28.1074 57 27.0074 57 25.6074C57 24.2074 55.9 23.1074 54.5 23.1074Z" fill="#006064"/>
<path d="M49.1538 30.2422L52.1236 27.2723L52.8307 27.9794L49.8609 30.9493L49.1538 30.2422Z" fill="#006064"/>
<path d="M39.5 52.6074C38.7044 52.6074 37.9413 52.9235 37.3787 53.4861C36.8161 54.0487 36.5 54.8118 36.5 55.6074C36.5 56.4031 36.8161 57.1661 37.3787 57.7287C37.9413 58.2913 38.7044 58.6074 39.5 58.6074C40.2956 58.6074 41.0587 58.2913 41.6213 57.7287C42.1839 57.1661 42.5 56.4031 42.5 55.6074C42.5 54.8118 42.1839 54.0487 41.6213 53.4861C41.0587 52.9235 40.2956 52.6074 39.5 52.6074Z" fill="#80DEEA"/>
<path d="M39.5 59.1074C37.6 59.1074 36 57.5074 36 55.6074C36 53.7074 37.6 52.1074 39.5 52.1074C41.4 52.1074 43 53.7074 43 55.6074C43 57.5074 41.4 59.1074 39.5 59.1074ZM39.5 53.1074C38.1 53.1074 37 54.2074 37 55.6074C37 57.0074 38.1 58.1074 39.5 58.1074C40.9 58.1074 42 57.0074 42 55.6074C42 54.2074 40.9 53.1074 39.5 53.1074Z" fill="#006064"/>
<path d="M54.3 49.1074C53.5044 49.1074 52.7413 49.4235 52.1787 49.9861C51.6161 50.5487 51.3 51.3118 51.3 52.1074C51.3 52.9031 51.6161 53.6661 52.1787 54.2287C52.7413 54.7913 53.5044 55.1074 54.3 55.1074C55.0957 55.1074 55.8588 54.7913 56.4214 54.2287C56.984 53.6661 57.3 52.9031 57.3 52.1074C57.3 51.3118 56.984 50.5487 56.4214 49.9861C55.8588 49.4235 55.0957 49.1074 54.3 49.1074Z" fill="#80DEEA"/>
<path d="M54.5 56.1074C52.6 56.1074 51 54.5074 51 52.6074C51 50.7074 52.6 49.1074 54.5 49.1074C56.4 49.1074 58 50.7074 58 52.6074C58 54.5074 56.4 56.1074 54.5 56.1074ZM54.5 50.1074C53.1 50.1074 52 51.2074 52 52.6074C52 54.0074 53.1 55.1074 54.5 55.1074C55.9 55.1074 57 54.0074 57 52.6074C57 51.2074 55.9 50.1074 54.5 50.1074ZM39 47.1074H40V52.6074H39V47.1074Z" fill="#006064"/>
<path d="M49.1616 47.9761L49.8687 47.269L52.8386 50.2388L52.1315 50.9459L49.1616 47.9761Z" fill="#006064"/>
<path d="M24.5 49.6074C23.7044 49.6074 22.9413 49.9235 22.3787 50.4861C21.8161 51.0487 21.5 51.8118 21.5 52.6074C21.5 53.4031 21.8161 54.1661 22.3787 54.7287C22.9413 55.2913 23.7044 55.6074 24.5 55.6074C25.2956 55.6074 26.0587 55.2913 26.6213 54.7287C27.1839 54.1661 27.5 53.4031 27.5 52.6074C27.5 51.8118 27.1839 51.0487 26.6213 50.4861C26.0587 49.9235 25.2956 49.6074 24.5 49.6074Z" fill="#80DEEA"/>
<path d="M24.5 56.1074C22.6 56.1074 21 54.5074 21 52.6074C21 50.7074 22.6 49.1074 24.5 49.1074C26.4 49.1074 28 50.7074 28 52.6074C28 54.5074 26.4 56.1074 24.5 56.1074ZM24.5 50.1074C23.1 50.1074 22 51.2074 22 52.6074C22 54.0074 23.1 55.1074 24.5 55.1074C25.9 55.1074 27 54.0074 27 52.6074C27 51.2074 25.9 50.1074 24.5 50.1074Z" fill="#006064"/>
<path d="M26.1616 50.2388L29.1314 47.2689L29.8385 47.976L26.8687 50.9459L26.1616 50.2388Z" fill="#006064"/>
<path d="M29.5 30.6074H49.5V47.6074H29.5V30.6074Z" fill="#B2EBF2"/>
<path d="M50 48.1074H29V30.1074H50V48.1074ZM30 47.1074H49V31.1074H30V47.1074Z" fill="#006064"/>
<path d="M41.5 34.1074H37.5C37.2 34.1074 37 33.9074 37 33.6074C37 33.3074 37.2 33.1074 37.5 33.1074H41.5C41.8 33.1074 42 33.3074 42 33.6074C42 33.9074 41.8 34.1074 41.5 34.1074Z" fill="#006064"/>
</g>
<defs>
<clipPath id="clip0_2004_5357">
<rect width="40" height="40" fill="white" transform="translate(19 19.1074)"/>
</clipPath>
</defs>
</svg>
