<svg width="78" height="78" viewBox="0 0 78 78" fill="none" xmlns="http://www.w3.org/2000/svg">
<rect y="0.107422" width="78" height="77" rx="3" fill="#E3F2FD"/>
<path d="M57.5 29.1074H32.5C32.224 29.1074 32 28.8834 32 28.6074C32 28.3314 32.224 28.1074 32.5 28.1074H57.5C57.776 28.1074 58 28.3314 58 28.6074C58 28.8834 57.776 29.1074 57.5 29.1074ZM57.5 40.1074H32.5C32.224 40.1074 32 39.8834 32 39.6074C32 39.3314 32.224 39.1074 32.5 39.1074H57.5C57.776 39.1074 58 39.3314 58 39.6074C58 39.8834 57.776 40.1074 57.5 40.1074ZM57.5 51.1074H32.5C32.224 51.1074 32 50.8834 32 50.6074C32 50.3314 32.224 50.1074 32.5 50.1074H57.5C57.776 50.1074 58 50.3314 58 50.6074C58 50.8834 57.776 51.1074 57.5 51.1074Z" fill="#0D47A1"/>
<path d="M21 49.1074L24 52.1074L29 47.1074M21 38.1074L24 41.1074L29 36.1074M21 27.1074L24 30.1074L29 25.1074" stroke="#0D47A1" stroke-width="2" stroke-miterlimit="10" stroke-linecap="round"/>
</svg>
