<svg width="78" height="77" viewBox="0 0 78 77" fill="none" xmlns="http://www.w3.org/2000/svg">
<rect width="78" height="77" rx="3" fill="#E8EAF6"/>
<path d="M52.5 20.3101H57.5V57.3101H52.5V20.3101Z" fill="#B39DDB"/>
<path d="M57 20.8101V56.8101H53V20.8101H57ZM58 19.8101H52V57.8101H58V19.8101Z" fill="#1A237E"/>
<path d="M36.1399 55.7354L46.8736 20.3265L51.6586 21.777L40.9249 57.1859L36.1399 55.7354Z" fill="#B39DDB"/>
<path d="M47.2091 20.9511L51.0371 22.1121L40.5911 56.5631L36.7631 55.4021L47.2091 20.9511ZM46.5421 19.7041L35.5161 56.0691L41.2581 57.8101L52.2841 21.4451L46.5421 19.7041Z" fill="#1A237E"/>
<path d="M21.4846 54.6279L40.1011 22.3832L44.4321 24.8837L25.8156 57.1284L21.4846 54.6279Z" fill="#B39DDB"/>
<path d="M40.286 23.0662L43.75 25.0662L25.634 56.4442L22.17 54.4442L40.286 23.0662ZM39.92 21.7002L20.804 54.8102L26 57.8102L45.116 24.7002L39.92 21.7002Z" fill="#1A237E"/>
<path d="M24.207 30.3099L26.325 28.1919L21.103 22.9699L23.174 20.8989L28.396 26.1219L30.5 24.0169V30.3099H24.207Z" fill="#B39DDB"/>
<path d="M23.174 21.6059L27.689 26.1209L28.396 26.8279L29.103 26.1209L30 25.2239V29.8099H25.414L26.325 28.8989L27.032 28.1919L26.325 27.4849L21.81 22.9699L23.174 21.6059ZM23.174 20.1919L20.396 22.9699L25.618 28.1919L23 30.8099H31V22.8099L28.396 25.4139L23.174 20.1919Z" fill="#1A237E"/>
</svg>
