<svg width="78" height="77" viewBox="0 0 78 77" fill="none" xmlns="http://www.w3.org/2000/svg">
<rect width="78" height="77" rx="3" fill="#E0F7FA"/>
<path d="M36.6759 57.5L35.5509 52.999L35.2669 52.923C32.8089 52.265 30.5709 50.977 28.7939 49.199L28.5859 48.991L24.1409 50.262L21.8169 46.237L25.1519 43.012L25.0759 42.728C24.7409 41.475 24.5709 40.22 24.5709 39C24.5709 37.78 24.7409 36.525 25.0749 35.271L25.1509 34.987L21.8159 31.762L24.1399 27.737L28.5849 29.008L28.7929 28.8C30.5709 27.021 32.8089 25.734 35.2659 25.076L35.5499 25L36.6759 20.5H41.3229L42.4479 25.001L42.7319 25.077C45.1889 25.734 47.4269 27.022 49.2049 28.801L49.4129 29.009L53.8579 27.738L56.1819 31.763L52.8469 34.988L52.9229 35.272C53.2579 36.525 53.4279 37.779 53.4279 39C53.4279 40.22 53.2579 41.475 52.9239 42.729L52.8479 43.013L56.1829 46.237L53.8589 50.263L49.4139 48.991L49.2059 49.199C47.4289 50.978 45.1899 52.265 42.7329 52.923L42.4489 52.999L41.3239 57.5H36.6759Z" fill="#B2EBF2"/>
<path d="M40.933 21L41.892 24.837L42.035 25.408L42.604 25.56C44.976 26.195 47.136 27.438 48.852 29.154L49.268 29.571L49.834 29.409L53.621 28.326L55.555 31.675L52.712 34.424L52.289 34.833L52.441 35.401C52.765 36.612 52.929 37.823 52.929 39C52.929 40.177 52.765 41.388 52.441 42.599L52.289 43.167L52.712 43.576L55.555 46.325L53.621 49.674L49.834 48.591L49.268 48.429L48.852 48.846C47.137 50.562 44.976 51.805 42.604 52.44L42.035 52.592L41.892 53.163L40.934 57H37.067L36.108 53.163L35.965 52.592L35.396 52.44C33.024 51.805 30.863 50.562 29.148 48.846L28.732 48.429L28.166 48.591L24.379 49.674L22.445 46.325L25.288 43.576L25.711 43.167L25.559 42.599C25.235 41.388 25.071 40.177 25.071 39C25.071 37.823 25.235 36.612 25.559 35.401L25.711 34.833L25.288 34.424L22.445 31.675L24.379 28.326L28.166 29.409L28.732 29.571L29.148 29.154C30.863 27.438 33.024 26.195 35.396 25.56L35.965 25.408L36.108 24.837L37.066 21H40.933ZM41.714 20H36.285L35.136 24.594C32.567 25.282 30.265 26.621 28.44 28.447L23.903 27.149L21.189 31.85L24.594 35.142C24.264 36.375 24.071 37.664 24.071 39C24.071 40.336 24.263 41.625 24.593 42.857L21.188 46.149L23.902 50.85L28.44 49.552C30.265 51.378 32.568 52.717 35.137 53.405L36.286 58H41.715L42.863 53.406C45.432 52.718 47.735 51.379 49.56 49.553L54.098 50.851L56.812 46.15L53.407 42.858C53.736 41.626 53.929 40.337 53.929 39.001C53.929 37.665 53.737 36.376 53.407 35.144L56.812 31.852L54.098 27.151L49.56 28.449C47.735 26.623 45.433 25.284 42.864 24.596L41.714 20Z" fill="#006064"/>
<path d="M38 34.192C38.547 34.074 39.286 34 40.024 34C41.177 34 42.157 34.163 42.792 34.768C43.383 35.285 43.649 36.112 43.649 36.954C43.649 38.033 43.325 38.8 42.808 39.347C42.188 40.012 41.198 40.307 40.385 40.307C40.253 40.307 40.134 40.307 40.001 40.292V44H38.001V34.192H38ZM40 38.727C40.103 38.742 40.207 38.742 40.325 38.742C41.3 38.742 41.729 38.047 41.729 37.117C41.729 36.245 41.374 35.566 40.473 35.566C40.297 35.566 40.119 35.595 40 35.64V38.727ZM45 34H47V44H45V34ZM34.952 44H37L34.887 34H32.355L30 44H32.048L32.484 42H34.531L34.952 44ZM33.532 35.839H33.58C33.677 36.492 33.822 37.501 33.935 38.109L34.256 40H32.781L33.146 38.11C33.258 37.531 33.419 36.507 33.532 35.839Z" fill="#006064"/>
</svg>
