<svg width="78" height="78" viewBox="0 0 78 78" fill="none" xmlns="http://www.w3.org/2000/svg">
<rect y="0.107422" width="78" height="77" rx="3" fill="#FFEBEE"/>
<path d="M37.6931 28.0139L38.8881 26.8179C39.7391 25.9679 40.8701 25.4999 42.0711 25.4999H46.0001L56.5001 24.5469V37.4999H52.8331L49.0621 40.3289L37.6931 28.0139Z" fill="#F8BBD0"/>
<path d="M56 25.095V37H53H52.667L52.4 37.2L49.122 39.658L38.386 28.028L39.242 27.172C39.998 26.416 41.003 26 42.071 26H46H46.045L46.09 25.996L56 25.095ZM57 24L46 25H42.071C40.745 25 39.473 25.527 38.535 26.464L37 28L49 41L53 38H57V24Z" fill="#880E4F"/>
<path d="M39.5 51.4999C38.617 51.4999 37.831 50.9019 37.587 50.0459L37.371 49.2869L37.123 49.5039L26.222 37.4999H19.5V24.5469L29.955 25.4979L34.834 25.4999C36.072 25.4999 37.269 26.0189 38.117 26.9219L45.718 35.0299L49.298 38.7709L49.361 38.8069C50.064 39.2099 50.501 39.9539 50.501 40.7499C50.501 41.9479 49.559 42.9309 48.356 42.9869L47.721 43.0169L47.9 43.6269C47.968 43.8629 48 44.0609 48 44.2499C48 45.4909 46.99 46.4999 45.75 46.4999C45.553 46.4999 45.349 46.4659 45.106 46.3929L44.358 46.1669L44.466 46.9409C44.486 47.0759 44.499 47.1609 44.499 47.2499C44.499 48.4909 43.489 49.4999 42.249 49.4999C42.201 49.4999 42.154 49.4919 42.108 49.4859L41.547 49.4229L41.46 49.8759C41.282 50.8169 40.457 51.4999 39.5 51.4999Z" fill="#FCE4EC"/>
<path d="M20 25.095L29.909 25.996L29.955 26H30H34.834C35.935 26 36.999 26.461 37.752 27.264L45.361 35.38L48.887 39.064L48.987 39.168L49.112 39.24C49.668 39.559 50 40.124 50 40.75C50 41.68 49.267 42.444 48.332 42.488L47.065 42.548L47.419 43.766C47.474 43.956 47.5 44.11 47.5 44.25C47.5 45.215 46.715 46 45.75 46C45.604 46 45.445 45.973 45.25 45.914L43.757 45.465L43.971 47.009L43.979 47.066C43.988 47.127 44 47.187 44 47.25C44 48.215 43.215 49 42.255 49C42.229 48.999 42.203 48.994 42.177 48.99L42.061 48.975L41.143 48.875L40.97 49.782C40.836 50.488 40.217 51 39.5 51C38.84 51 38.251 50.551 38.068 49.908L37.61 48.402L37.16 48.8L26.74 37.328L26.443 37H26H20V25.095ZM19 24V38H26L37.083 50.203L37.106 50.182C37.405 51.229 38.358 52 39.5 52C40.72 52 41.732 51.126 41.953 49.97C42.052 49.981 42.148 50 42.25 50C43.769 50 45 48.769 45 47.25C45 47.12 44.979 46.996 44.962 46.872C45.213 46.947 45.474 47 45.75 47C47.269 47 48.5 45.769 48.5 44.25C48.5 43.983 48.45 43.731 48.379 43.487C49.837 43.418 51 42.224 51 40.75C51 39.728 50.436 38.847 49.609 38.373L46.083 34.688L38.482 26.58C37.536 25.572 36.216 25 34.834 25H30L19 24Z" fill="#880E4F"/>
<path d="M35.6181 35.791C35.0881 35.791 34.5821 35.702 34.1931 35.539C33.2381 35.14 32.6761 34.635 32.5671 34.079C32.4391 33.431 32.9231 32.783 33.3531 32.354L38.8881 26.818C39.7391 25.968 40.8701 25.5 42.0711 25.5H45.5001V31.5H44.0001C43.1131 31.5 41.9001 31.965 41.2401 32.559L39.2731 34.329C37.8571 35.601 36.3761 35.791 35.6181 35.791Z" fill="#F8BBD0"/>
<path d="M45 26V31H44C42.988 31 41.658 31.51 40.906 32.187L38.939 33.956C37.648 35.117 36.305 35.291 35.619 35.291C34.991 35.291 34.577 35.157 34.387 35.077C33.616 34.754 33.132 34.355 33.059 33.982C32.994 33.65 33.23 33.185 33.708 32.707L39.244 27.171C39.998 26.416 41.003 26 42.071 26H45ZM46 25H42.071C40.745 25 39.473 25.527 38.535 26.464L33 32C31.583 33.417 31.611 35 34 36C34.421 36.176 34.982 36.291 35.619 36.291C36.821 36.291 38.295 35.881 39.608 34.7L41.575 32.931C42.143 32.419 43.235 32 44 32H46V25Z" fill="#880E4F"/>
<path d="M49.667 31L46 32H45V31H43V26H49.667V31ZM36.5 51.5C35.551 51.5 34.727 50.826 34.54 49.897L34.459 49.495H34.05L33.95 49.503C32.621 49.5 31.5 48.378 31.5 47V46.5H31C29.621 46.5 28.5 45.378 28.5 44V43.5H28C26.621 43.5 25.5 42.378 25.5 41C25.5 39.622 26.621 38.5 28 38.5C29.379 38.5 30.5 39.622 30.5 41V41.5H31C32.379 41.5 33.5 42.622 33.5 44V44.5H34C35.379 44.5 36.5 45.622 36.5 47V47.41L36.896 47.54C37.825 47.727 38.5 48.551 38.5 49.5C38.5 50.603 37.603 51.5 36.5 51.5Z" fill="#F8BBD0"/>
<path d="M28 39C29.103 39 30 39.897 30 41V42H31C32.103 42 33 42.897 33 44V45H34C35.085 45 35.97 45.868 35.999 46.946L35.996 46.968L35.995 47.033L35.98 47.867L36.798 48.031C37.495 48.17 38 48.788 38 49.5C38 50.327 37.327 51 36.5 51C35.788 51 35.17 50.495 35.03 49.798L34.866 48.98L34.032 48.995C34.005 48.995 33.979 48.997 33.953 48.999C32.872 48.974 32 48.087 32 47V46H31C29.897 46 29 45.103 29 44V43H28C26.897 43 26 42.103 26 41C26 39.897 26.897 39 28 39ZM28 38C26.343 38 25 39.343 25 41C25 42.657 26.343 44 28 44C28 45.657 29.343 47 31 47C31 48.657 32.343 50 34 50C34.017 50 34.033 49.995 34.05 49.995C34.28 51.138 35.289 52 36.5 52C37.881 52 39 50.881 39 49.5C39 48.289 38.138 47.28 36.995 47.05C36.995 47.033 37 47.017 37 47C37 45.343 35.657 44 34 44C34 42.343 32.657 41 31 41C31 39.343 29.657 38 28 38Z" fill="#880E4F"/>
<path d="M41 49L41.737 49.737M47 42L48.171 43.171L47 42ZM43.5 45.5L44.671 46.671L43.5 45.5Z" stroke="#880E4F" stroke-miterlimit="10" stroke-linecap="round"/>
<path d="M44.5 31H45.5C45.775 31 46 31.225 46 31.5C46 31.775 45.775 32 45.5 32H44.5C44.225 32 44 31.775 44 31.5C44 31.225 44.225 31 44.5 31Z" fill="#880E4F"/>
</svg>
