<svg width="78" height="78" viewBox="0 0 78 78" fill="none" xmlns="http://www.w3.org/2000/svg">
<rect y="0.107422" width="78" height="77" rx="3" fill="#F9FBE7"/>
<path d="M22.5471 56.4489C22.7721 54.0029 23.4861 48.9849 24.8431 47.5899C25.6811 46.7279 26.7941 46.2529 27.9761 46.2529C29.1591 46.2529 30.2721 46.7279 31.1101 47.5899C32.8491 49.3789 32.8491 52.2889 31.1101 54.0779C29.7601 55.4679 24.9221 56.2109 22.5471 56.4489Z" fill="#F4FF81"/>
<path d="M27.977 46.7529C29.024 46.7529 30.009 47.1739 30.752 47.9379C32.304 49.5349 32.304 52.1329 30.752 53.7289C29.699 54.8119 25.899 55.5659 23.104 55.8869C23.408 52.9929 24.138 49.0329 25.203 47.9379C25.945 47.1739 26.93 46.7529 27.977 46.7529ZM27.977 45.7529C26.713 45.7529 25.449 46.2489 24.485 47.2409C22.556 49.2259 22 56.9999 22 56.9999C22 56.9999 29.54 56.4109 31.469 54.4269C33.398 52.4429 33.398 49.2259 31.469 47.2419C30.504 46.2489 29.241 45.7529 27.977 45.7529Z" fill="#827717"/>
<path d="M28.8869 52.3019C28.2439 52.9629 25.7749 53.1249 25.7749 53.1249C25.7749 53.1249 25.9159 50.5679 26.5589 49.9069C27.2019 49.2459 28.2439 49.2459 28.8869 49.9069C29.5299 50.5679 29.5289 51.6409 28.8869 52.3019Z" fill="#F9FBE7"/>
<path d="M32.3791 54.6939C32.0751 54.6939 31.7901 54.5709 31.5741 54.3479L24.5891 47.1619C24.1341 46.6939 24.1341 45.9329 24.5891 45.4649L28.8871 41.0439L37.5021 49.9059L33.1851 54.3469C32.9681 54.5709 32.6821 54.6939 32.3791 54.6939Z" fill="#D4E157"/>
<path d="M28.887 41.7621L36.804 49.9081L32.825 54.0011C32.704 54.1251 32.545 54.1941 32.378 54.1941C32.211 54.1941 32.052 54.1251 31.931 54.0011L24.947 46.8161C24.683 46.5451 24.683 46.0861 24.947 45.8151L28.887 41.7621ZM28.887 40.3271L24.231 45.1171C23.588 45.7781 23.588 46.8511 24.231 47.5121L31.215 54.6971C31.536 55.0281 31.958 55.1931 32.379 55.1931C32.8 55.1931 33.222 55.0281 33.543 54.6971L38.199 49.9071L28.887 40.3271Z" fill="#827717"/>
<path d="M37.4491 53.2092L25.6961 41.1172L21.5681 38.9932L25.6721 34.7712C26.1991 34.2292 26.8981 33.9302 27.6401 33.9302C27.8231 33.9302 28.0061 33.9502 28.1851 33.9862L32.1261 34.7982L43.5561 46.5562L44.3461 50.6202C44.5311 51.5722 44.2441 52.5512 43.5781 53.2352L39.5011 57.4302L37.4491 53.2092Z" fill="#D4E157"/>
<path d="M27.641 34.4312C27.789 34.4312 27.939 34.4462 28.085 34.4762L31.876 35.2562L43.094 46.7982L43.856 50.7162C44.01 51.5082 43.772 52.3202 43.22 52.8882L39.639 56.5722L37.934 53.0642L37.864 52.9192L37.752 52.8042L26.111 40.8272L25.997 40.7102L25.851 40.6352L22.396 38.8582L26.03 35.1202C26.462 34.6762 27.034 34.4312 27.641 34.4312ZM27.641 33.4312C26.777 33.4312 25.937 33.7822 25.313 34.4232L20.739 39.1292L25.395 41.5242L37.034 53.5002L39.362 58.2902L43.936 53.5842C44.714 52.7832 45.052 51.6352 44.836 50.5252L44.017 46.3152L32.377 34.3392L28.285 33.4972C28.072 33.4532 27.855 33.4312 27.641 33.4312Z" fill="#827717"/>
<path d="M24.928 42.722L43.213 23.909C44.723 22.355 48.234 21.5 53.098 21.5C54.556 21.5 55.761 21.579 56.361 21.627C56.52 23.607 57.026 32.214 54.136 35.188L35.871 53.979L24.928 42.722Z" fill="#F0F4C3"/>
<path d="M53.1 22C54.254 22 55.247 22.05 55.9 22.094C56.147 25.455 56.134 32.414 53.777 34.839L35.871 53.263L25.625 42.722L43.572 24.258C44.987 22.802 48.371 22 53.1 22ZM53.1 21C49.715 21 44.94 21.415 42.854 23.561C39.452 27.062 24.231 42.722 24.231 42.722L35.871 54.698C35.871 54.698 51.033 39.098 54.495 35.537C57.957 31.976 56.823 21.166 56.823 21.166C56.823 21.166 55.239 21 53.1 21Z" fill="#827717"/>
<path d="M39.5 35.5C38.7044 35.5 37.9413 35.8161 37.3787 36.3787C36.8161 36.9413 36.5 37.7044 36.5 38.5C36.5 39.2956 36.8161 40.0587 37.3787 40.6213C37.9413 41.1839 38.7044 41.5 39.5 41.5C40.2956 41.5 41.0587 41.1839 41.6213 40.6213C42.1839 40.0587 42.5 39.2956 42.5 38.5C42.5 37.7044 42.1839 36.9413 41.6213 36.3787C41.0587 35.8161 40.2956 35.5 39.5 35.5Z" fill="#D4E157"/>
<path d="M39.5 36C40.879 36 42 37.121 42 38.5C42 39.879 40.879 41 39.5 41C38.121 41 37 39.879 37 38.5C37 37.121 38.121 36 39.5 36ZM39.5 35C37.567 35 36 36.567 36 38.5C36 40.433 37.567 42 39.5 42C41.433 42 43 40.433 43 38.5C43 36.567 41.433 35 39.5 35Z" fill="#827717"/>
<path d="M47.5 27.5C46.7044 27.5 45.9413 27.8161 45.3787 28.3787C44.8161 28.9413 44.5 29.7044 44.5 30.5C44.5 31.2956 44.8161 32.0587 45.3787 32.6213C45.9413 33.1839 46.7044 33.5 47.5 33.5C48.2956 33.5 49.0587 33.1839 49.6213 32.6213C50.1839 32.0587 50.5 31.2956 50.5 30.5C50.5 29.7044 50.1839 28.9413 49.6213 28.3787C49.0587 27.8161 48.2956 27.5 47.5 27.5Z" fill="#D4E157"/>
<path d="M47.5 28C48.879 28 50 29.121 50 30.5C50 31.879 48.879 33 47.5 33C46.121 33 45 31.879 45 30.5C45 29.121 46.121 28 47.5 28ZM47.5 27C45.567 27 44 28.567 44 30.5C44 32.433 45.567 34 47.5 34C49.433 34 51 32.433 51 30.5C51 28.567 49.433 27 47.5 27Z" fill="#827717"/>
</svg>
