<svg width="78" height="77" viewBox="0 0 78 77" fill="none" xmlns="http://www.w3.org/2000/svg">
<rect width="78" height="77" rx="3" fill="#FFECB3"/>
<path d="M39 57.3926C28.799 57.3926 20.5 49.0936 20.5 38.8926C20.5 28.6916 28.799 20.3926 39 20.3926C49.201 20.3926 57.5 28.6916 57.5 38.8926C57.5 49.0936 49.201 57.3926 39 57.3926Z" fill="#FFECB3"/>
<path d="M39 20.8926C48.925 20.8926 57 28.9676 57 38.8926C57 48.8176 48.925 56.8926 39 56.8926C29.075 56.8926 21 48.8176 21 38.8926C21 28.9676 29.075 20.8926 39 20.8926ZM39 19.8926C28.507 19.8926 20 28.3996 20 38.8926C20 49.3856 28.507 57.8926 39 57.8926C49.493 57.8926 58 49.3856 58 38.8926C58 28.3996 49.493 19.8926 39 19.8926Z" fill="#B46807"/>
<path d="M22.061 30.8926H56L54.977 29.8926H23.083L22.061 30.8926ZM55.939 46.8926H22L23.023 47.8926H54.917L55.939 46.8926Z" fill="#B46807"/>
<path d="M27.584 46.3926C29.533 52.8636 33.912 57.3926 39 57.3926C44.088 57.3926 48.468 52.8636 50.417 46.3926M50.417 31.3926C48.468 24.9216 44.088 20.3926 39 20.3926C33.912 20.3926 29.532 24.9216 27.584 31.3926H50.417Z" stroke="#B46807" stroke-miterlimit="10" stroke-linecap="round"/>
<path d="M43.095 31.3926C42.328 24.6626 40.596 20.3926 39 20.3926C37.404 20.3926 35.672 24.6626 34.905 31.3926M34.905 46.3926C35.672 53.1226 37.404 57.3926 39 57.3926C40.596 57.3926 42.328 53.1226 43.095 46.3926H34.905Z" stroke="#B46807" stroke-miterlimit="10" stroke-linecap="round"/>
<path d="M31.289 34.8926H32.882L31.03 42.8926H29.28L28.117 37.7606C28.055 37.4926 28.018 37.1926 28.005 36.8616H27.985C27.956 37.2256 27.913 37.5256 27.858 37.7596L26.665 42.8926H24.843L23 34.8926H24.725L25.712 40.2206C25.755 40.4476 25.785 40.7526 25.805 41.1356H25.834C25.847 40.8496 25.894 40.5366 25.976 40.1986L27.247 34.8926H28.938L30.087 40.2646C30.13 40.4616 30.167 40.7486 30.199 41.1236H30.219C30.232 40.8296 30.266 40.5326 30.322 40.2306L31.289 34.8926Z" fill="#B46807"/>
<path d="M41.3801 40.2316C41.3251 40.5326 41.2911 40.8306 41.2771 41.1246H41.2571C41.2241 40.7496 41.1871 40.4626 41.1451 40.2656L39.9971 34.8926H38.3061L37.0351 40.1976C36.9531 40.5366 36.9071 40.8486 36.8931 41.1346H36.8641C36.8441 40.7516 36.8141 40.4466 36.7711 40.2196L35.7851 34.8926H34.0601L35.9031 42.8926H37.7261L38.9191 37.7606C38.9741 37.5266 39.0171 37.2266 39.0461 36.8626H39.0661C39.0791 37.1936 39.1161 37.4926 39.1781 37.7606L40.3391 42.8926H42.0891L43.9411 34.8926H42.3481L41.3801 40.2316Z" fill="#B46807"/>
<path d="M53.4069 34.8926L52.4389 40.2316C52.3839 40.5326 52.3499 40.8306 52.3359 41.1246H52.3159C52.2829 40.7496 52.2459 40.4626 52.2039 40.2656L51.0559 34.8926H49.3649L48.0939 40.1976C48.0119 40.5366 47.9659 40.8486 47.9519 41.1346H47.9229C47.9029 40.7516 47.8729 40.4466 47.8299 40.2196L46.8429 34.8926H45.1179L46.9609 42.8926H48.7839L49.9769 37.7606C50.0319 37.5266 50.0749 37.2266 50.1039 36.8626H50.1239C50.1369 37.1936 50.1739 37.4926 50.2359 37.7606L51.3979 42.8926H53.1479L54.9999 34.8926H53.4069Z" fill="#B46807"/>
</svg>
