<svg width="78" height="78" viewBox="0 0 78 78" fill="none" xmlns="http://www.w3.org/2000/svg">
<rect y="0.107422" width="78" height="77" rx="3" fill="#E8F5E9"/>
<path d="M39 57.1074C29.351 57.1074 21.5 49.2564 21.5 39.6074C21.5 29.9584 29.351 22.1074 39 22.1074C48.649 22.1074 56.5 29.9584 56.5 39.6074C56.5 49.2564 48.649 57.1074 39 57.1074Z" fill="#A5D6A7"/>
<path d="M39 22.6074C48.374 22.6074 56 30.2334 56 39.6074C56 48.9814 48.374 56.6074 39 56.6074C29.626 56.6074 22 48.9814 22 39.6074C22 30.2334 29.626 22.6074 39 22.6074ZM39 21.6074C29.059 21.6074 21 29.6664 21 39.6074C21 49.5484 29.059 57.6074 39 57.6074C48.941 57.6074 57 49.5484 57 39.6074C57 29.6664 48.941 21.6074 39 21.6074Z" fill="#1B5E20"/>
<path d="M34 31.6074V47.6074L48 39.6074L34 31.6074Z" fill="#E8F5E9"/>
</svg>
