<?xml version="1.0" encoding="UTF-8"?>
<svg width="14px" height="14px" viewBox="0 0 14 14" version="1.1" xmlns="http://www.w3.org/2000/svg" xmlns:xlink="http://www.w3.org/1999/xlink">
    <!-- Generator: Sketch 53.2 (72643) - https://sketchapp.com -->
    <title>close-dark</title>
    <desc>Created with Sketch.</desc>
    <g id="Page-1" stroke="none" stroke-width="1" fill="none" fill-rule="evenodd">
        <g id="close-dark" transform="translate(-1.000000, -1.000000)" fill-rule="nonzero">
            <polygon id="Path" fill-opacity="0" fill="#D8D8D8" points="0 0 16 0 16 16 0 16"></polygon>
            <path d="M13.347,1.9 C13.557,1.726 13.869,1.738 14.065,1.935 C14.275,2.144 14.275,2.482 14.065,2.691 L8.757,8 L14.065,13.309 C14.275,13.518 14.275,13.856 14.065,14.065 C13.869,14.262 13.557,14.274 13.347,14.1 L13.309,14.065 L7.999,8.757 L2.691,14.065 L2.653,14.1 C2.443,14.274 2.131,14.262 1.935,14.065 C1.725,13.856 1.725,13.518 1.935,13.309 L7.243,7.999 L1.935,2.691 C1.725,2.482 1.725,2.144 1.935,1.935 C2.131,1.738 2.443,1.726 2.653,1.9 L2.691,1.935 L8,7.243 L13.309,1.935 L13.347,1.9 Z" id="Path" fill="#26344A"></path>
        </g>
    </g>
</svg>