<svg xmlns="http://www.w3.org/2000/svg" width="10" height="10" viewBox="0 0 10 10">
    <g fill="#009EA9" fill-rule="nonzero">
        <path d="M5 0C2.243 0 0 2.243 0 5s2.243 5 5 5 5-2.243 5-5-2.243-5-5-5zm0 8.936A3.94 3.94 0 0 1 1.064 5 3.94 3.94 0 0 1 5 1.064 3.94 3.94 0 0 1 8.936 5 3.94 3.94 0 0 1 5 8.936z"/>
        <path d="M7.329 4.58H5.343V1.94c0-.221-.163-.402-.364-.402-.2 0-.364.18-.364.403v3.041c0 .223.163.403.364.403h2.35c.2 0 .363-.18.363-.403 0-.222-.163-.402-.363-.402z"/>
    </g>
</svg>
