<svg xmlns="http://www.w3.org/2000/svg" width="21" height="20" viewBox="0 0 21 20">
    <g fill="none" fill-rule="evenodd">
        <path fill="#ECB32D" d="M13.575 1.305A1.766 1.766 0 0 0 11.368.177a1.766 1.766 0 0 0-1.128 2.207l4.527 13.919a1.747 1.747 0 0 0 2.126 1.079c.934-.274 1.498-1.257 1.192-2.159 0-.032-4.51-13.918-4.51-13.918z"/>
        <path fill="#63C1A0" d="M6.567 3.576A1.766 1.766 0 0 0 4.36 2.45a1.766 1.766 0 0 0-1.128 2.207L7.76 18.574a1.747 1.747 0 0 0 2.127 1.08c.934-.275 1.498-1.257 1.192-2.16 0-.032-4.51-13.918-4.51-13.918z"/>
        <path fill="#E01A59" d="M19.277 12.823a1.766 1.766 0 0 0 1.128-2.207 1.766 1.766 0 0 0-2.207-1.128L4.263 14.031a1.747 1.747 0 0 0-1.079 2.127c.274.934 1.257 1.498 2.159 1.192.032 0 13.934-4.527 13.934-4.527z"/>
        <path fill="#331433" d="M7.163 16.77c.902-.29 2.078-.677 3.335-1.08-.29-.902-.677-2.078-1.08-3.334l-3.334 1.08 1.08 3.334z"/>
        <path fill="#D62027" d="M14.187 14.482c1.256-.402 2.432-.79 3.334-1.08-.29-.901-.676-2.077-1.079-3.334l-3.335 1.08 1.08 3.334z"/>
        <path fill="#89D3DF" d="M16.99 5.815a1.766 1.766 0 0 0 1.127-2.207 1.766 1.766 0 0 0-2.207-1.127L1.992 7.008a1.747 1.747 0 0 0-1.08 2.126c.275.934 1.257 1.498 2.16 1.192.032 0 13.918-4.51 13.918-4.51z"/>
        <path fill="#258B74" d="M4.892 9.746c.902-.29 2.078-.676 3.334-1.08-.402-1.256-.789-2.432-1.079-3.334l-3.335 1.08 1.08 3.334z"/>
        <path fill="#819C3C" d="M11.9 7.475c1.256-.403 2.432-.79 3.334-1.08-.403-1.256-.79-2.432-1.08-3.334L10.82 4.14l1.08 3.334z"/>
    </g>
</svg>
