<svg xmlns="http://www.w3.org/2000/svg" width="43" height="43" viewBox="0 0 43 43">
    <path fill="#1DA1F2" fill-rule="evenodd" d="M14.343 39.086c16.227 0 25.101-13.443 25.101-25.1 0-.383-.008-.763-.025-1.141a17.941 17.941 0 0 0 4.401-4.568 17.592 17.592 0 0 1-5.066 1.388 8.854 8.854 0 0 0 3.88-4.88 17.693 17.693 0 0 1-5.603 2.142 8.812 8.812 0 0 0-6.44-2.787c-4.871 0-8.822 3.95-8.822 8.82 0 .693.077 1.367.229 2.013-7.333-.37-13.834-3.88-18.186-9.218a8.799 8.799 0 0 0-1.194 4.434 8.815 8.815 0 0 0 3.926 7.344 8.756 8.756 0 0 1-3.996-1.104l-.001.113a8.824 8.824 0 0 0 7.078 8.648 8.833 8.833 0 0 1-3.985.151 8.831 8.831 0 0 0 8.242 6.128 17.698 17.698 0 0 1-10.958 3.776c-.71 0-1.413-.04-2.104-.122a24.972 24.972 0 0 0 13.523 3.963"/>
</svg>
