<svg width="16" height="16" viewBox="0 0 16 16" fill="none" xmlns="http://www.w3.org/2000/svg">
<path d="M7.49984 1.00781C6.95687 1.00781 6.4139 1.26562 6.10531 1.78125L0.226401 11.6055C-0.3986 12.6445 0.402182 14 1.61703 14H13.3787C14.5975 14 15.3983 12.6445 14.7772 11.6055L8.89437 1.78125C8.58578 1.26562 8.04281 1.00781 7.49984 1.00781ZM7.49984 1.99219C7.70687 1.99219 7.9139 2.09375 8.0389 2.29687L13.9178 12.1172C14.1639 12.5273 13.8905 13 13.3787 13H1.61703C1.10921 13 0.835776 12.5273 1.08187 12.1172L6.96078 2.29687C7.08578 2.09375 7.29281 1.99219 7.49984 1.99219ZM7.49203 5C7.21588 5 6.99203 5.22386 6.99203 5.5V9.5C6.99203 9.77614 7.21588 10 7.49203 10C7.76817 10 7.99203 9.77614 7.99203 9.5V5.5C7.99203 5.22386 7.76817 5 7.49203 5ZM7.49203 11C7.21588 11 6.99203 11.2239 6.99203 11.5C6.99203 11.7761 7.21588 12 7.49203 12C7.76817 12 7.99203 11.7761 7.99203 11.5C7.99203 11.2239 7.76817 11 7.49203 11Z" fill="#FF784B"/>
</svg>
