<svg xmlns="http://www.w3.org/2000/svg" width="333" height="145" viewBox="0 0 333 145">
    <g fill="none" fill-rule="evenodd">
        <g transform="rotate(-90 72.756 72.102)">
            <g fill-rule="nonzero">
                <g>
                    <path fill="#26344A" d="M128.099 185.791L128.889 185.791 128.889 219.477 128.099 219.477zM7.995 185.791L8.786 185.791 8.786 219.477 7.995 219.477zM14.712 178.657L60.146 178.657 60.146 179.45 14.712 179.45z" transform="translate(0 27.171) translate(.14 70.432)"/>
                    <path fill="#1372FF" d="M58.177 180.173c0-3.72 3.007-6.737 6.716-6.737 3.71 0 6.716 3.016 6.716 6.737-.004 3.72-3.008 6.733-6.716 6.737-3.71 0-6.716-3.016-6.716-6.737z" transform="translate(0 27.171) translate(.14 70.432)"/>
                    <g>
                        <path fill="#FF001F" d="M0 7.857C0 4.136 3.007 1.12 6.716 1.12c3.71 0 6.717 3.016 6.717 6.737-.004 3.72-3.009 6.733-6.717 6.737C3.007 14.594 0 11.578 0 7.857z" transform="translate(0 27.171) translate(.14 70.432) translate(.977 172.316)"/>
                        <path fill="#3F3D56" d="M1.574 6.737C1.574 3.017 4.581 0 8.29 0c3.71 0 6.717 3.016 6.717 6.737-.004 3.72-3.009 6.733-6.717 6.738-3.709 0-6.716-3.017-6.716-6.738zm.79 0c0 3.283 2.654 5.945 5.926 5.945 3.273 0 5.927-2.662 5.927-5.945C14.213 3.456 11.562.797 8.29.793c-3.272 0-5.926 2.661-5.926 5.944z" transform="translate(0 27.171) translate(.14 70.432) translate(.977 172.316)"/>
                    </g>
                    <g>
                        <path fill="#8A959F" d="M0 7.857C0 4.136 3.007 1.12 6.716 1.12c3.71 0 6.717 3.016 6.717 6.737-.004 3.72-3.009 6.733-6.717 6.737C3.007 14.594 0 11.578 0 7.857z" transform="translate(0 27.171) translate(.14 70.432) translate(.14 219.516)"/>
                        <path fill="#26344A" d="M1.574 6.737C1.574 3.017 4.581 0 8.29 0c3.71 0 6.717 3.016 6.717 6.737-.004 3.72-3.009 6.733-6.717 6.738-3.709 0-6.716-3.017-6.716-6.738zm.79 0c0 3.283 2.654 5.945 5.926 5.945 3.273 0 5.927-2.662 5.927-5.945C14.213 3.456 11.562.797 8.29.793c-3.272 0-5.926 2.661-5.926 5.944z" transform="translate(0 27.171) translate(.14 70.432) translate(.14 219.516)"/>
                    </g>
                    <path fill="#009DAB" d="M120.4 180.453c0-3.721 3.006-6.737 6.715-6.737 3.71 0 6.717 3.016 6.717 6.737-.004 3.72-3.009 6.733-6.717 6.737-3.709 0-6.716-3.016-6.716-6.737z" transform="translate(0 27.171) translate(.14 70.432)"/>
                    <path fill="#26344A" d="M72.788 178.657L122.173 178.657 122.173 179.45 72.788 179.45z" transform="translate(0 27.171) translate(.14 70.432)"/>
                    <path fill="#3F3D56" d="M66.072 0L66.862 0 66.862 172.712 66.072 172.712zM121.778 179.053c0-3.72 3.007-6.737 6.717-6.737 3.709 0 6.716 3.017 6.716 6.737-.004 3.72-3.009 6.734-6.716 6.738-3.71 0-6.717-3.017-6.717-6.738zm.79 0c0 3.284 2.654 5.945 5.927 5.945 3.272 0 5.926-2.661 5.926-5.945-.004-3.281-2.655-5.94-5.926-5.944-3.273 0-5.927 2.661-5.927 5.944z" transform="translate(0 27.171) translate(.14 70.432)"/>
                    <path fill="#26344A" d="M59.75 179.053c0-3.72 3.008-6.737 6.717-6.737 3.71 0 6.716 3.016 6.716 6.737-.004 3.72-3.008 6.734-6.716 6.738-3.71 0-6.716-3.017-6.716-6.738zm.79 0c0 3.284 2.654 5.945 5.927 5.945 3.273 0 5.926-2.661 5.926-5.945-.003-3.281-2.654-5.94-5.926-5.944-3.273 0-5.926 2.661-5.926 5.944z" transform="translate(0 27.171) translate(.14 70.432)"/>
                </g>
                <path fill="#26344A" d="M0.244 0L1.035 0 1.035 102.944 0.244 102.944z" transform="translate(0 27.171) matrix(1 0 0 -1 65.99 103.74)"/>
            </g>
            <rect width="37.947" height="38.067" x="47.434" fill="#9E32F1" rx="18.974"/>
            <path fill="#FFF" fill-rule="nonzero" d="M66.408 23.792c.598 0 1.086.471 1.115 1.063v3.975c0 .618-.499 1.12-1.115 1.12-.598 0-1.086-.472-1.115-1.064l-.001-.056v-3.919c0-.618.5-1.12 1.116-1.12zm4.885-1.439l.045.042 2.764 2.773c.435.437.435 1.146 0 1.583-.422.423-1.096.437-1.534.043l-.045-.043-2.764-2.772c-.435-.437-.435-1.146 0-1.584.407-.408 1.05-.435 1.488-.081l.046.04zm-8.237.042c.422.423.436 1.1.042 1.54l-.042.044-2.763 2.772c-.436.438-1.143.438-1.579 0-.421-.422-.435-1.099-.042-1.538l.042-.045 2.764-2.773c.436-.437 1.142-.437 1.578 0zm-2.508-4.481c.617 0 1.116.501 1.116 1.12 0 .599-.47 1.089-1.06 1.118l-.056.001h-3.906c-.616 0-1.116-.501-1.116-1.12 0-.6.47-1.089 1.06-1.118l.056-.001h3.906zm15.626 0c.616 0 1.116.501 1.116 1.12 0 .599-.47 1.089-1.06 1.118l-.056.001h-3.907c-.616 0-1.116-.501-1.116-1.12 0-.6.47-1.089 1.06-1.118l.056-.001h3.907zm-15.926-6.64l.045.042 2.763 2.772c.436.437.436 1.146 0 1.583-.421.423-1.095.437-1.534.043l-.044-.043-2.764-2.772c-.436-.437-.436-1.146 0-1.583.407-.409 1.05-.436 1.488-.082l.046.04zm13.854.042c.42.422.435 1.099.042 1.538l-.042.045-2.764 2.772c-.436.438-1.143.438-1.579 0-.421-.422-.435-1.099-.042-1.538l.042-.045 2.764-2.772c.436-.438 1.143-.438 1.579 0zm-7.694-3.199c.598 0 1.086.472 1.115 1.064v3.974c0 .619-.499 1.12-1.115 1.12-.598 0-1.086-.471-1.115-1.064l-.001-.056V9.237c0-.619.5-1.12 1.116-1.12z"/>
            <g fill-rule="nonzero">
                <path fill="#F5A623" d="M0 7.857C0 4.136 3.007 1.12 6.716 1.12c3.71 0 6.717 3.016 6.717 6.737-.004 3.72-3.009 6.733-6.717 6.737C3.007 14.594 0 11.578 0 7.857z" transform="translate(120.818 317.12)"/>
                <path fill="#26344A" d="M1.574 6.737C1.574 3.017 4.581 0 8.29 0c3.71 0 6.717 3.016 6.717 6.737-.004 3.72-3.009 6.733-6.717 6.738-3.709 0-6.716-3.017-6.716-6.738zm.79 0c0 3.283 2.654 5.945 5.926 5.945 3.273 0 5.927-2.662 5.927-5.945C14.213 3.456 11.562.797 8.29.793c-3.272 0-5.926 2.661-5.926 5.944z" transform="translate(120.818 317.12)"/>
            </g>
        </g>
        <g fill="#8A959F" fill-rule="nonzero" opacity=".5" transform="translate(54.62)">
            <path d="M50.581 2.853C64.148 8.576 72.98 21.947 72.98 36.767c0 .785-.026 1.566-.077 2.342-.093 1.505-.278 3.003-.553 4.485-.217 2.281-.658 4.536-1.316 6.73-2.885 9.748-9.692 18.764-16.896 25.77L36.346 93.396h16.42c11.435.002 20.705 9.342 20.707 20.865H6.423c0-12.766 4.879-25.042 13.625-34.278.38-.403.767-.8 1.162-1.189l6.439-6.357c-2.54-.639-5.005-1.552-7.35-2.725C12.263 65.689 5.973 58.835 2.621 50.45-2.852 36.694.406 20.973 10.885 10.573 21.363.173 37.015-2.87 50.58 2.853zM36.458 17.967c-10.298 0-18.646 8.422-18.646 18.81 0 10.388 8.348 18.81 18.646 18.81 10.299 0 18.647-8.422 18.647-18.81 0-10.388-8.348-18.81-18.647-18.81zM171.964 48.074c9.63 6.891 15.348 18.066 15.337 29.975 0 .26-.004.523-.007.783-.41 19.48-15.814 35.255-35.12 35.965-19.307.71-35.81-13.891-37.626-33.29-.111-1.139-.164-2.29-.164-3.458-.006-13.76 7.608-26.373 19.732-32.685 12.124-6.312 26.729-5.266 37.848 2.71zm-21.121 11.162c-10.299 0-18.647 8.421-18.647 18.81 0 10.388 8.348 18.809 18.647 18.809 10.298 0 18.646-8.421 18.646-18.81 0-10.388-8.348-18.809-18.646-18.809z"/>
            <ellipse cx="90.929" cy="77.905" rx="9.323" ry="9.405"/>
        </g>
    </g>
</svg>
